<?xml version="1.0" encoding="UTF-8" standalone="no"?>
<!-- Generator: Adobe Illustrator 22.1.0, SVG Export Plug-In . SVG Version: 6.00 Build 0)  -->

<svg
   version="1.1"
   id="Layer_2"
   x="0px"
   y="0px"
   viewBox="0 0 689.6 172.5"
   style="enable-background:new 0 0 689.6 172.5;"
   xml:space="preserve"
   sodipodi:docname="Agilicus-Horizontal.svg"
   inkscape:version="1.1 (1:1.1+202105261517+ce6663b3b7)"
   xmlns:inkscape="http://www.inkscape.org/namespaces/inkscape"
   xmlns:sodipodi="http://sodipodi.sourceforge.net/DTD/sodipodi-0.dtd"
   xmlns="http://www.w3.org/2000/svg"
   xmlns:svg="http://www.w3.org/2000/svg"><defs
   id="defs37" /><sodipodi:namedview
   id="namedview35"
   pagecolor="#ffffff"
   bordercolor="#666666"
   borderopacity="1.0"
   inkscape:pageshadow="2"
   inkscape:pageopacity="0.0"
   inkscape:pagecheckerboard="0"
   showgrid="false"
   inkscape:zoom="1.761891"
   inkscape:cx="344.79999"
   inkscape:cy="85.987157"
   inkscape:window-width="3440"
   inkscape:window-height="1385"
   inkscape:window-x="1280"
   inkscape:window-y="0"
   inkscape:window-maximized="1"
   inkscape:current-layer="g32" />
<style
   type="text/css"
   id="style2">
	.st0{fill:#0055B8;}
	.st1{fill:#010101;}
</style>
<g
   id="g32">
	<g
   id="g12"
   style="fill:#000000">
		<g
   id="g8"
   style="fill:#000000">
			<path
   class="st0"
   d="m 83.3,73.2 c 1.4,-1.1 3.4,-1.1 4.9,0 l 44,32.6 c 2.5,-6 3.9,-12.6 3.9,-19.5 0,-27.8 -22.5,-50.4 -50.4,-50.4 -27.9,0 -50.3,22.5 -50.3,50.4 0,6.9 1.4,13.5 3.9,19.5 z"
   id="path4"
   style="fill:#000000" />
			<path
   class="st0"
   d="m 88.2,91.5 c -1.4,-1.1 -3.4,-1.1 -4.9,0 L 47,118.4 c 9.2,11.1 23.2,18.2 38.7,18.2 15.5,0 29.5,-7.1 38.7,-18.2 z"
   id="path6"
   style="fill:#000000" />
		</g>
		<path
   class="st0"
   d="M 85.7,13.5 C 45.5,13.5 13,46.1 13,86.3 c 0,40.2 32.6,72.8 72.8,72.8 40.2,0 72.8,-32.6 72.8,-72.8 C 158.5,46.1 125.9,13.5 85.7,13.5 Z m 44.2,24.1 c 1.2,-1.2 3.2,-1.2 4.5,0 1.2,1.2 1.2,3.2 0,4.5 -1.2,1.2 -3.2,1.2 -4.5,0 -1.2,-1.3 -1.2,-3.3 0,-4.5 z m -46.6,-17 2.4,-4.2 2.4,4.2 2.4,4.2 h -4.9 -4.9 z m -46.2,17 c 1.2,-1.2 3.2,-1.2 4.5,0 1.2,1.2 1.2,3.2 0,4.5 -1.2,1.2 -3.2,1.2 -4.5,0 -1.3,-1.3 -1.3,-3.3 0,-4.5 z M 24.3,86.3 v 4.9 l -4.2,-2.4 -4.2,-2.4 4.2,-2.4 4.2,-2.4 z m 17.3,48.6 c -1.2,1.2 -3.2,1.2 -4.5,0 -1.2,-1.2 -1.2,-3.2 0,-4.5 1.2,-1.2 3.2,-1.2 4.5,0 1.2,1.3 1.2,3.3 0,4.5 z m 46.6,17 -2.4,4.2 -2.4,-4.2 -2.4,-4.2 h 4.9 4.9 z m 46.2,-17 c -1.2,1.2 -3.2,1.2 -4.5,0 -1.2,-1.2 -1.2,-3.2 0,-4.5 1.2,-1.2 3.2,-1.2 4.5,0 1.2,1.3 1.2,3.3 0,4.5 z m -48.7,8.4 c -31.5,0 -57.1,-25.6 -57.1,-57.1 0,-31.5 25.6,-57.1 57.1,-57.1 31.5,0 57.1,25.6 57.1,57.1 0,31.5 -25.5,57.1 -57.1,57.1 z m 61.5,-52.2 v -4.9 -4.9 l 4.2,2.4 4.2,2.4 -4.2,2.4 z"
   id="path10"
   style="fill:#000000" />
	</g>
	<g
   id="g30">
		<path
   class="st1"
   d="m 206.1,41.8 38.9,88.6 h -13 l -9.5,-22.6 h -34.7 l -9.6,22.6 h -12.6 l 39,-88.6 z m -14.9,57.4 h 27.5 L 205,66.6 Z"
   id="path14" />
		<path
   class="st1"
   d="m 324.6,81.2 c 0.3,1.1 0.5,2.3 0.7,3.7 0.2,1.4 0.2,3 0.2,4.9 0,6.3 -0.9,12.1 -2.8,17.2 -1.9,5.1 -4.5,9.5 -7.9,13.2 -3.4,3.7 -7.4,6.5 -12.1,8.5 -4.7,2 -9.8,3 -15.5,3 -5.9,0 -11.3,-1.1 -16.3,-3.3 -5,-2.2 -9.4,-5.3 -13,-9.3 -3.7,-4 -6.5,-8.8 -8.6,-14.4 -2.1,-5.6 -3.1,-11.9 -3.1,-18.8 0,-7.5 1.2,-14 3.5,-19.5 2.4,-5.5 5.5,-10.1 9.4,-13.7 3.9,-3.6 8.4,-6.3 13.5,-8.1 5.1,-1.8 10.4,-2.7 15.9,-2.7 5.9,0 11.6,1 16.9,2.9 5.3,1.9 10,4.5 13.9,7.8 l -6.2,10.2 c -3.7,-3 -7.5,-5.2 -11.7,-6.7 -4.1,-1.5 -8.3,-2.2 -12.7,-2.2 -4.3,0 -8.3,0.7 -12,2.1 -3.7,1.4 -7,3.5 -9.8,6.3 -2.8,2.8 -5,6.2 -6.6,10.3 -1.6,4.1 -2.4,8.8 -2.4,14.1 0,5 0.7,9.4 2.1,13.5 1.4,4 3.4,7.5 5.9,10.5 2.6,2.9 5.6,5.2 9.3,6.8 3.6,1.6 7.6,2.4 11.9,2.4 4.2,0 8,-0.7 11.3,-2.2 3.4,-1.4 6.2,-3.4 8.5,-6 2.3,-2.6 4.1,-5.6 5.4,-9.1 1.3,-3.5 1.9,-7.3 1.9,-11.4 h -24.5 v -9.8 h 34.9 z"
   id="path16" />
		<path
   class="st1"
   d="m 350.1,43 v 87.4 H 338 V 43 Z"
   id="path18" />
		<path
   class="st1"
   d="m 379.9,43 v 75.6 h 39.3 v 11.9 H 367.8 V 43 Z"
   id="path20" />
		<path
   class="st1"
   d="m 443.2,43 v 87.4 H 431.1 V 43 Z"
   id="path22" />
		<path
   class="st1"
   d="m 519.6,63.8 c -3.4,-2.9 -7.1,-5.3 -11.1,-7.2 -4,-1.9 -8.5,-2.9 -13.5,-2.9 -4.2,0 -8.1,0.7 -11.7,2.2 -3.6,1.4 -6.7,3.5 -9.3,6.3 -2.6,2.7 -4.7,6.2 -6.2,10.2 -1.5,4.1 -2.2,8.7 -2.2,14 0,5.3 0.8,10.1 2.3,14.2 1.5,4.1 3.6,7.6 6.2,10.4 2.6,2.8 5.7,5 9.3,6.5 3.5,1.5 7.3,2.2 11.4,2.2 2.5,0 5,-0.3 7.3,-0.9 2.4,-0.6 4.6,-1.4 6.7,-2.6 2.1,-1.1 4.1,-2.6 5.8,-4.3 1.7,-1.8 3.1,-3.8 4.3,-6.1 l 8.9,7.3 c -1.6,3.1 -3.6,5.8 -6,8.2 -2.4,2.3 -5,4.2 -7.9,5.8 -2.9,1.5 -6,2.6 -9.2,3.4 -3.2,0.7 -6.5,1.1 -9.9,1.1 -5.9,0 -11.4,-1.1 -16.5,-3.3 -5,-2.2 -9.4,-5.2 -13,-9.2 -3.7,-4 -6.5,-8.7 -8.6,-14.3 -2.1,-5.6 -3.1,-11.8 -3.1,-18.7 0,-6.9 1,-13 3.1,-18.5 2.1,-5.4 4.9,-10.1 8.6,-13.9 3.7,-3.8 8.1,-6.7 13.2,-8.8 5.1,-2.1 10.7,-3.1 16.7,-3.1 6.6,0 12.5,1.1 17.8,3.4 5.3,2.2 10,5.2 14.1,8.9 z"
   id="path24" />
		<path
   class="st1"
   d="m 550.7,43 v 53.6 c 0,3.7 0.3,6.9 1,9.8 0.7,2.9 1.8,5.3 3.4,7.3 1.6,2 3.7,3.5 6.2,4.5 2.6,1 5.7,1.5 9.5,1.5 7,0 12.1,-1.9 15.4,-5.7 3.2,-3.8 4.9,-9.6 4.9,-17.4 V 43 h 11.8 v 53.5 c 0,12 -2.8,20.8 -8.3,26.5 -5.6,5.7 -13.5,8.6 -23.9,8.6 -11,0 -19.1,-3 -24.3,-9 -5.2,-6 -7.8,-14.7 -7.8,-25.9 V 43 Z"
   id="path26" />
		<path
   class="st1"
   d="m 670.8,60.7 c -4.3,-2.3 -8.7,-4.1 -13.3,-5.5 -4.6,-1.4 -9.1,-2.1 -13.5,-2.1 -5.5,0 -9.8,1.1 -13,3.4 -3.2,2.2 -4.8,5.6 -4.8,10.1 0,3.4 0.9,5.8 2.8,7.5 1.9,1.6 4.6,3.1 8.2,4.4 1.4,0.5 3.2,1.1 5.4,1.8 2.1,0.6 4.4,1.3 6.7,2 2.3,0.7 4.6,1.4 6.9,2.2 2.2,0.8 4.2,1.5 6,2.2 5,2.1 8.7,4.6 11.1,7.7 2.4,3.1 3.5,7.1 3.5,12.2 0,7.8 -2.6,13.9 -7.8,18.3 -5.2,4.5 -12.8,6.7 -22.7,6.7 -2.1,0 -4.6,-0.1 -7.3,-0.4 -2.7,-0.3 -5.5,-0.7 -8.5,-1.3 -2.9,-0.6 -5.9,-1.4 -8.8,-2.5 -2.9,-1 -5.7,-2.3 -8.2,-3.9 l 2.7,-10.7 c 2.3,1.3 4.8,2.4 7.4,3.4 2.7,1 5.3,1.7 7.9,2.3 2.6,0.6 5.2,1.1 7.7,1.4 2.5,0.3 4.7,0.5 6.8,0.5 6.2,0 10.9,-1.3 14,-3.8 3.1,-2.5 4.6,-6 4.6,-10.4 0,-3 -0.8,-5.4 -2.3,-7.2 -1.6,-1.8 -4.2,-3.4 -8.1,-4.7 -1.1,-0.4 -2.7,-0.9 -4.7,-1.4 -2,-0.6 -4.1,-1.2 -6.3,-1.9 -2.2,-0.7 -4.5,-1.4 -6.7,-2.1 -2.2,-0.7 -4.2,-1.4 -5.9,-2.1 -2.3,-0.9 -4.4,-2 -6.5,-3.2 -2,-1.2 -3.8,-2.7 -5.2,-4.3 -1.4,-1.7 -2.6,-3.6 -3.4,-5.9 -0.8,-2.2 -1.3,-4.8 -1.3,-7.7 0,-3.8 0.7,-7.2 2.2,-10.1 1.4,-2.9 3.5,-5.4 6.1,-7.4 2.6,-2 5.8,-3.6 9.6,-4.6 3.8,-1.1 7.9,-1.6 12.5,-1.6 5.1,0 10.1,0.7 15,2 4.9,1.3 9.5,3.3 13.9,6 z"
   id="path28" />
	</g>
</g>
</svg>
