<?xml version="1.0" encoding="utf-8"?>
<!-- Generator: Adobe Illustrator 27.5.0, SVG Export Plug-In . SVG Version: 6.00 Build 0)  -->
<svg version="1.1" id="Calque_1" xmlns="http://www.w3.org/2000/svg" xmlns:xlink="http://www.w3.org/1999/xlink" x="0px" y="0px"
	 viewBox="0 0 407.6 221.6" style="enable-background:new 0 0 407.6 221.6;" xml:space="preserve">
<path d="M100.9,116.9c0,7.3-4.8,13.5-12.9,13.5c-7.8,0-13.1-6.4-13.1-13.7v-0.2c0-7.3,4.8-13.5,12.9-13.5c7.8,0,13.1,6.4,13.1,13.7
	V116.9z M114.8,116.7v-0.2c0-14.3-11.4-25.7-26.8-25.7c-15.5,0-27,11.6-27,25.8v0.2c0,14.3,11.4,25.7,26.8,25.7
	C103.3,142.5,114.8,131,114.8,116.7z"/>
<path d="M253.8,46.4c0,8.3-5.6,13.7-12.1,13.7c-6.6,0-12-5.5-12-13.7v-0.2c0-8.2,5.5-13.7,12-13.7c6.6,0,12.1,5.5,12.1,13.7V46.4z
	 M266.5,46.4v-0.2c0-16.6-11-25.6-22.6-25.6c-7.3,0-12,3.4-15.5,8.1v-7.1h-13.2V86h13.2V64.7c3.3,4,8,7.4,15.5,7.4
	C255.7,72.1,266.5,63,266.5,46.4z"/>
<path d="M206.6,71.2V38.8c0-12-6.3-18.2-16.8-18.2c-6.8,0-11.9,2.8-16.3,7.9c-2.6-5-7.5-7.9-14-7.9c-7.1,0-11.4,3.8-14.6,8v-7h-14.1
	v49.6h14.1V43.5c0-6.7,3.2-10.1,8.5-10.1s8.2,3.4,8.2,10.1v27.7h14.1V43.5c0-6.7,3.2-10.1,8.5-10.1s8.2,3.4,8.2,10.1v27.7H206.6z"/>
<path d="M97.9,62.1c-4,0-6.4-2.1-6.4-4.7c0-3.1,1.5-4.6,5.9-5.3c9.2-1.3,11.4-2.7,11.4-2.7C110.1,60.5,102.2,62.1,97.9,62.1z
	 M122.4,71.1c0,0-0.1-23.9-0.1-32.2c0-9.9-7.7-18.3-22.2-18.3c-14.7,0-21.4,8.3-21.4,19.2h13.1c0.2-1.2-0.4-7,7.9-7
	c6,0,8.9,1.8,8.9,4.8c0,8.3-30.4-1.3-30.4,20.8c0,10.7,7.8,14,15.1,14c11.2,0,15.3-6.3,15.3-6.3l-0.1,5.2L122.4,71.1z"/>
<path d="M59.7,53.3c-0.6,2.8-3.8,6.9-10.4,6.9c-7.7,0-12.6-6.1-12.6-13.7v-0.2c0-7.3,5-13.5,12-13.5c6.9,0,10,3.8,10.9,7h13.1
	c-0.2-6.2-5.9-19.1-24-19.1c-15.2,0-26,11.7-26,25.8v0.2c0,14.2,10.9,25.7,25.8,25.7c17.8,0,23.9-13.2,24.2-19L59.7,53.3L59.7,53.3z
	"/>
<path d="M351.1,116.7c0,8.3-5.6,13.7-12.1,13.7c-6.6,0-12-5.5-12-13.7v-0.2c0-8.2,5.5-13.7,12-13.7c6.6,0,12.1,5.5,12.1,13.7V116.7z
	 M363.8,116.7v-0.2c0-16.6-11-25.7-22.6-25.7c-7.3,0-12,3.4-15.5,8.1v-7.1h-13.2v64.5h13.2v-21.3c3.3,4,8,7.4,15.5,7.4
	C353,142.4,363.8,133.3,363.8,116.7z"/>
<path d="M303.9,141.4v-32.3c0-11.9-6.3-18.2-16.8-18.2c-6.8,0-12,2.8-16.3,7.9c-2.6-5-7.5-7.9-14-7.9c-7.1,0-11.4,3.8-14.6,8v-7
	h-14.1v49.6h14.1v-27.7c0-6.7,3.2-10.1,8.5-10.1c5.3,0,8.2,3.4,8.2,10.1v27.7h14.1v-27.7c0-6.7,3.2-10.1,8.5-10.1s8.2,3.4,8.2,10.1
	v27.7H303.9z"/>
<path d="M195.2,132.4c-4,0-6.4-2.1-6.4-4.7c0-3.1,1.5-4.6,5.9-5.3c9.2-1.3,11.4-2.7,11.4-2.7C207.4,130.8,199.5,132.4,195.2,132.4z
	 M219.7,141.4c0,0-0.1-23.9-0.1-32.2c0-9.9-7.7-18.3-22.1-18.3c-14.7,0-21.4,8.3-21.4,19.2h13.1c0.2-1.2-0.4-7,7.9-7
	c6,0,8.9,1.8,8.9,4.8c0,8.3-30.4-1.3-30.4,20.8c0,10.7,7.8,14,15.1,14c11.2,0,15.3-6.4,15.3-6.4l-0.1,5.2L219.7,141.4z"/>
<path d="M157,123.5c-0.6,2.8-3.8,6.9-10.4,6.9c-7.7,0-12.6-6.1-12.6-13.7v-0.2c0-7.3,5-13.5,12-13.5c6.9,0,10,3.8,10.9,7h13.1
	c-0.2-6.2-5.9-19.2-24-19.2c-15.2,0-26,11.7-26,25.8v0.2c0,14.2,10.9,25.7,25.8,25.7c17.8,0,23.9-13.2,24.1-19L157,123.5L157,123.5z
	"/>
<g>
	<path d="M57.2,129.7c0,0-1.9,0.2-5,0.2s-4.9-2-4.9-5.2v-20.8h10.3v-12H47.2V79.1H33.1v12.7h-7.9v12h7.9v22.7
		c0,11.5,5.8,15.5,14.5,15.5c6.1,0,9.6-0.6,9.6-0.6V129.7z"/>
</g>
<path d="M285.9,190.9c-0.1-2.9-2.5-4.3-5.3-4.3s-5.1,1.4-5.1,4.2c0,2.5,1.7,3.4,5.1,4.2c1.6,0.3,2.9,0.7,2.9,2c0,1.1-1,1.8-2.6,1.8
	c-1.7,0-3-0.9-3.2-2.8h-2.6c0.1,3.2,2.7,5,5.8,5c2.8,0,5.2-1.5,5.2-4.3c0-2.6-1.8-3.4-4.9-4c-1.8-0.4-3.2-0.8-3.2-2.1
	c0-1.2,1-1.8,2.5-1.8c1.4,0,2.6,0.6,2.8,2.1H285.9z"/>
<polygon points="262.4,186.9 262.4,189.2 266.9,189.2 266.9,200.7 269.5,200.7 269.5,189.2 274,189.2 274,186.9 "/>
<path d="M258.2,194.9c1.8-0.6,2.8-2.1,2.8-3.9c0-2.1-1.4-4.1-4.4-4.1h-6v13.8h2.5v-5.2h2.7l3.1,5.2h3L258.2,194.9z M256.2,193.2
	h-3.1v-3.9h3.2c1.4,0,2,0.9,2,1.9C258.4,192.3,257.6,193.2,256.2,193.2z"/>
<polygon points="238.7,200.7 248.2,200.7 248.2,198.3 241.2,198.3 241.2,194.9 247.3,194.9 247.3,192.5 241.2,192.5 241.2,189.2 
	247.9,189.2 247.9,186.9 238.7,186.9 "/>
<path d="M232.1,186.9h-6.1v13.8h2.5v-4.9h3.2c3.1,0,4.6-2.1,4.6-4.6C236.5,189,235.1,186.9,232.1,186.9z M231.6,193.4h-3v-4.2h3.1
	c1.4,0,2.2,0.9,2.2,2.1C233.9,192.6,233.1,193.4,231.6,193.4z"/>
<polygon points="215.9,193.5 210.9,200.7 214,200.7 217.4,195.7 220.7,200.7 223.9,200.7 218.9,193.5 223.5,186.9 220.4,186.9 
	217.4,191.4 214.4,186.9 211.3,186.9 "/>
<polygon points="200.1,200.7 209.6,200.7 209.6,198.3 202.6,198.3 202.6,194.9 208.7,194.9 208.7,192.5 202.6,192.5 202.6,189.2 
	209.3,189.2 209.3,186.9 200.1,186.9 "/>
<polygon points="183.4,200.7 193,200.7 193,198.3 185.9,198.3 185.9,194.9 192,194.9 192,192.5 185.9,192.5 185.9,189.2 
	192.6,189.2 192.6,186.9 183.4,186.9 "/>
<path d="M178.4,195.6c-0.1,2.1-1.7,3.1-3.6,3.1c-2.9,0-4.2-2.3-4.2-4.9c0-2.9,1.6-4.9,4.2-4.9c1.9,0,3.3,1.1,3.4,2.6h2.6
	c-0.3-3.1-2.7-5-5.9-5c-4.2,0-6.9,3.1-6.9,7.3c0,3.7,2.1,7.2,6.7,7.2c3.3,0,6.1-1.8,6.2-5.5L178.4,195.6L178.4,195.6z"/>
<path d="M163.3,194.9c1.8-0.6,2.8-2.1,2.8-3.9c0-2.1-1.4-4.1-4.4-4.1h-6v13.8h2.5v-5.2h2.7l3.1,5.2h3L163.3,194.9z M161.3,193.2
	h-3.1v-3.9h3.2c1.4,0,2.1,0.9,2.1,1.9C163.5,192.3,162.7,193.2,161.3,193.2z"/>
<path d="M150.1,195.6c0,2.1-1.2,3-3,3c-2,0-3.2-1.1-3.2-3.2v-8.5h-2.5v8.6c0,3.6,2.4,5.5,5.7,5.5c3.3,0,5.6-1.9,5.6-5.5v-8.6h-2.5
	L150.1,195.6L150.1,195.6z"/>
<path d="M132.1,186.5c-4.4,0-6.8,3.3-6.8,7.2c0,4,2.5,7.3,6.8,7.3c4.4,0,6.8-3.3,6.8-7.2C138.9,189.8,136.5,186.5,132.1,186.5z
	 M132.1,198.6c-2.8,0-4.3-2.2-4.3-4.8s1.5-4.8,4.3-4.8c2.8,0,4.3,2.2,4.3,4.8C136.4,196.4,134.9,198.6,132.1,198.6z"/>
<path d="M123.3,190.9c-0.1-2.9-2.4-4.3-5.3-4.3s-5.1,1.4-5.1,4.2c0,2.5,1.7,3.4,5.1,4.2c1.6,0.3,2.9,0.7,2.9,2
	c0,1.1-0.9,1.8-2.6,1.8c-1.7,0-3-0.9-3.2-2.8h-2.6c0.1,3.2,2.7,5,5.8,5c2.8,0,5.2-1.5,5.2-4.3c0-2.6-1.8-3.4-4.9-4
	c-1.8-0.4-3.2-0.8-3.2-2.1c0-1.2,0.9-1.8,2.5-1.8c1.4,0,2.6,0.6,2.8,2.1H123.3z"/>
<polygon points="102.9,186.9 102.9,196.6 96.7,186.9 93.9,186.9 93.9,200.7 96.4,200.7 96.4,190.8 102.8,200.7 105.4,200.7 
	105.4,186.9 "/>
<polygon points="81.9,200.7 91.5,200.7 91.5,198.3 84.5,198.3 84.5,194.9 90.6,194.9 90.6,192.5 84.5,192.5 84.5,189.2 91.1,189.2 
	91.1,186.9 81.9,186.9 "/>
<path d="M75.4,186.9h-6.1v13.8h2.5v-4.9h3.2c3.1,0,4.6-2.1,4.6-4.6C79.7,189,78.3,186.9,75.4,186.9z M74.9,193.4h-3v-4.2H75
	c1.4,0,2.2,0.9,2.2,2.1C77.2,192.6,76.3,193.4,74.9,193.4z"/>
<path d="M60.3,186.5c-4.4,0-6.8,3.3-6.8,7.2c0,4,2.5,7.3,6.8,7.3c4.4,0,6.8-3.3,6.8-7.2C67.1,189.8,64.7,186.5,60.3,186.5z
	 M60.3,198.6c-2.8,0-4.3-2.2-4.3-4.8s1.5-4.8,4.3-4.8c2.8,0,4.3,2.2,4.3,4.8C64.6,196.4,63.1,198.6,60.3,198.6z"/>
<polygon points="42.8,193 39.5,186.9 36.5,186.9 41.5,195.2 41.5,200.7 44,200.7 44,195.2 49,186.9 46.1,186.9 "/>
<path d="M33.3,193.4c1.4-0.5,2.1-1.8,2.1-3.2c0-1.7-1.2-3.4-3.7-3.4h-6.5v13.8h6.2c2.9,0,4.5-1.9,4.5-3.9
	C35.8,195.3,35,193.9,33.3,193.4z M27.6,189.2h3.4c1.2,0,1.7,0.7,1.7,1.5c0,0.9-0.6,1.7-1.9,1.7h-3.2L27.6,189.2L27.6,189.2z
	 M31.1,198.3h-3.4v-3.8h3.6c1.4,0,2.1,0.9,2.1,1.8C33.3,197.3,32.6,198.3,31.1,198.3z"/>
<path d="M264.7,168.6c-0.1-2.9-2.5-4.3-5.3-4.3s-5.1,1.4-5.1,4.2c0,2.5,1.7,3.4,5.1,4.2c1.6,0.3,2.9,0.7,2.9,2c0,1.1-1,1.8-2.6,1.8
	c-1.7,0-3-0.9-3.2-2.8h-2.6c0.1,3.2,2.7,5,5.8,5c2.8,0,5.2-1.5,5.2-4.3c0-2.6-1.8-3.4-4.9-4c-1.8-0.4-3.2-0.8-3.2-2.1
	c0-1.2,1-1.8,2.5-1.8c1.4,0,2.6,0.6,2.8,2.1H264.7z"/>
<polygon points="248.6,164.6 248.6,174.3 242.4,164.6 239.6,164.6 239.6,178.4 242.1,178.4 242.1,168.5 248.5,178.4 251.1,178.4 
	251.1,164.6 "/>
<path d="M230.2,164.2c-4.4,0-6.8,3.3-6.8,7.2c0,4,2.5,7.3,6.8,7.3c4.4,0,6.8-3.3,6.8-7.2C237,167.5,234.6,164.2,230.2,164.2z
	 M230.2,176.3c-2.8,0-4.3-2.2-4.3-4.8c0-2.6,1.5-4.8,4.3-4.8c2.8,0,4.3,2.2,4.3,4.8C234.5,174.1,233,176.3,230.2,176.3z"/>
<rect x="218.1" y="164.6" width="2.5" height="13.8"/>
<polygon points="204.5,164.6 204.5,167 209,167 209,178.4 211.6,178.4 211.6,167 216.1,167 216.1,164.6 "/>
<path d="M200.2,173.3c0,2.1-1.2,3-3,3c-2,0-3.2-1.1-3.2-3.2v-8.5h-2.5v8.6c0,3.6,2.4,5.5,5.7,5.5c3.3,0,5.6-1.9,5.6-5.5v-8.6h-2.5
	L200.2,173.3L200.2,173.3z"/>
<polygon points="183.1,176 183.1,164.6 180.6,164.6 180.6,178.4 189.6,178.4 189.6,176 "/>
<path d="M171.1,164.2c-4.4,0-6.8,3.3-6.8,7.2c0,4,2.5,7.3,6.8,7.3c4.4,0,6.8-3.3,6.8-7.2C177.9,167.5,175.5,164.2,171.1,164.2z
	 M171.1,176.3c-2.8,0-4.3-2.2-4.3-4.8c0-2.6,1.5-4.8,4.3-4.8c2.8,0,4.3,2.2,4.3,4.8C175.4,174.1,173.9,176.3,171.1,176.3z"/>
<path d="M162.3,168.6c-0.1-2.9-2.4-4.3-5.3-4.3s-5.1,1.4-5.1,4.2c0,2.5,1.7,3.4,5.1,4.2c1.6,0.3,2.9,0.7,2.9,2
	c0,1.1-0.9,1.8-2.6,1.8c-1.7,0-3-0.9-3.2-2.8h-2.6c0.1,3.2,2.7,5,5.8,5c2.8,0,5.2-1.5,5.2-4.3c0-2.6-1.8-3.4-4.9-4
	c-1.8-0.4-3.2-0.8-3.2-2.1c0-1.2,0.9-1.8,2.5-1.8c1.4,0,2.6,0.6,2.8,2.1H162.3z"/>
<polygon points="134.4,178.4 144,178.4 144,176 137,176 137,172.6 143.1,172.6 143.1,170.2 137,170.2 137,167 143.6,167 
	143.6,164.6 134.4,164.6 "/>
<polygon points="125.9,175.1 122.1,164.6 119.4,164.6 124.8,178.4 127,178.4 132.4,164.6 129.8,164.6 "/>
<rect x="114.8" y="164.6" width="2.5" height="13.8"/>
<polygon points="101.1,164.6 101.1,167 105.6,167 105.6,178.4 108.2,178.4 108.2,167 112.7,167 112.7,164.6 "/>
<path d="M96.4,164.6h-2.8l-5.5,13.8h2.7l1.2-3.3h5.8l1.2,3.3h2.8L96.4,164.6z M93,172.7l2.1-5.5l2.1,5.5H93z"/>
<polygon points="82.1,175.1 78.2,164.6 75.5,164.6 80.9,178.4 83.1,178.4 88.6,164.6 85.9,164.6 "/>
<polygon points="56,164.6 56,174.3 49.7,164.6 47,164.6 47,178.4 49.5,178.4 49.5,168.5 55.8,178.4 58.5,178.4 58.5,164.6 "/>
<polygon points="40.5,164.6 40.5,174.3 34.3,164.6 31.5,164.6 31.5,178.4 34,178.4 34,168.5 40.4,178.4 43,178.4 43,164.6 "/>
<rect x="25.2" y="164.6" width="2.5" height="13.8"/>
<path d="M68.2,164.2c-4.4,0-6.8,3.3-6.8,7.2c0,4,2.5,7.3,6.8,7.3c4.4,0,6.8-3.3,6.8-7.2C75,167.5,72.5,164.2,68.2,164.2z
	 M68.2,176.3c-2.8,0-4.3-2.2-4.3-4.8c0-2.6,1.5-4.8,4.3-4.8c2.8,0,4.3,2.2,4.3,4.8S70.9,176.3,68.2,176.3z"/>
<g>
	<rect x="373.3" y="71.2" width="2.3" height="2.3"/>
	<rect x="371" y="73.5" width="2.3" height="2.3"/>
	<rect x="368.8" y="75.8" width="2.3" height="2.3"/>
	<rect x="366.5" y="78.1" width="2.3" height="2.3"/>
	<rect x="364.2" y="80.3" width="2.3" height="4.6"/>
	<polygon points="382.5,82.6 382.5,80.3 380.2,80.3 380.2,75.8 377.9,75.8 377.9,73.5 375.6,73.5 375.6,78.1 373.3,78.1 373.3,80.3 
		375.6,80.3 375.6,82.6 373.3,82.6 373.3,80.3 371,80.3 371,82.6 368.8,82.6 368.8,84.9 366.5,84.9 366.5,87.2 364.2,87.2 
		364.2,84.9 361.9,84.9 361.9,91.8 384.8,91.8 384.8,82.6 	"/>
</g>
</svg>
