<?xml version="1.0" encoding="utf-8"?>
<!-- Generator: Adobe Illustrator 25.2.3, SVG Export Plug-In . SVG Version: 6.00 Build 0)  -->
<svg version="1.1" id="Layer_1" xmlns="http://www.w3.org/2000/svg" xmlns:xlink="http://www.w3.org/1999/xlink" x="0px" y="0px"
     viewBox="0 0 173.8 25.4" style="enable-background:new 0 0 173.8 25.4;" xml:space="preserve">
<style type="text/css">
	.st0{fill:#231F20;}
	.st1{fill:#ED1C24;}
</style>
  <g>
	<g>
		<polygon class="st0" points="58.4,13.4 64.2,13.4 64.2,11.8 58.4,11.8 58.4,8.3 67,8.3 67,6.7 56.7,6.7 56.7,19 67.3,19
			67.3,17.5 58.4,17.5 		"/>
    <path class="st0" d="M104,14.1c0,2.2-1.4,3.7-3.5,3.7c-2,0-3.3-1.5-3.3-3.7V6.7h-1.7v7.5c0,3.4,2.4,5.2,5,5.2c4,0,5.2-2.8,5.2-5.2
			V6.7H104V14.1z"/>
    <rect x="115.3" y="6.7" class="st0" width="1.7" height="12.3"/>
    <polygon class="st0" points="137.5,16.4 129,6.7 127.3,6.7 127.3,19 129,19 129,9.3 137.5,19 139.2,19 139.2,6.7 137.5,6.7 		"/>
    <rect x="149.6" y="6.7" class="st0" width="1.7" height="12.3"/>
    <polygon class="st0" points="168,12.3 173,6.7 170.8,6.7 166.9,11.1 163.1,6.7 160.8,6.7 165.6,12.3 159.6,19 161.8,19
			166.7,13.5 171.4,19 173.8,19 		"/>
    <path class="st0" d="M84.9,12.9c0,1.7-0.5,2.9-1.5,3.8l-0.9-1.1l-2,0l1.6,1.9c-0.4,0.2-1.1,0.4-1.7,0.4c-2.6,0-4.6-2.1-4.6-5l0,0
			c0-3,1.9-5,4.5-5.1C82.9,7.8,84.9,9.9,84.9,12.9L84.9,12.9z M80.4,6.2c-3.6,0-6.3,2.8-6.3,6.7v0c0,3.9,2.8,6.6,6.3,6.5
			c0.9,0,2-0.3,2.8-0.7l1,1.2l2,0l-1.7-2c1.4-1.1,2.3-2.9,2.3-5.1v0C86.7,8.9,83.9,6.2,80.4,6.2"/>
	</g>
    <g>
		<polygon class="st1" points="19.4,0 15.6,1.4 15.6,21.8 13,20.9 13,2.3 5.2,5 5.2,18.1 2.6,17.2 2.6,5.9 0,6.8 0,19.1 7.8,21.8
			7.8,6.8 10.4,5.9 10.4,22.7 18.1,25.4 18.1,3.2 19.4,2.7 20.7,3.2 20.7,25.4 28.5,22.7 28.5,5.9 31.1,6.8 31.1,21.8 38.9,19.1
			38.9,6.8 36.3,5.9 36.3,17.2 33.7,18.1 33.7,5 25.9,2.3 25.9,20.9 23.3,21.8 23.3,1.4 		"/>
      <path class="st1" d="M46.1,18.2c1.3,0,2.3-1.1,2.3-2.3v0c0-1.3-1-2.3-2.3-2.3c-1.3,0-2.3,1.1-2.3,2.4v0
			C43.7,17.2,44.7,18.2,46.1,18.2 M46.1,18C44.9,18,44,17,44,15.9v0c0-1.1,0.9-2.1,2.1-2.1c1.2,0,2.1,0.9,2.1,2.1v0
			C48.1,17,47.2,18,46.1,18 M45.1,17h0.6v-0.8h0.4l0.5,0.8h0.7l-0.6-0.9c0.3-0.1,0.5-0.4,0.5-0.8c0-0.5-0.4-0.8-1-0.8h-1.1V17z
			 M45.7,15.8v-0.7h0.5c0.3,0,0.4,0.1,0.4,0.3c0,0.2-0.1,0.3-0.4,0.3H45.7z"/>
	</g>
</g>
</svg>
