<?xml version="1.0" encoding="utf-8"?>
<!-- Generator: Adobe Illustrator 27.1.1, SVG Export Plug-In . SVG Version: 6.00 Build 0)  -->
<svg version="1.1" id="Ebene_1" xmlns="http://www.w3.org/2000/svg" xmlns:xlink="http://www.w3.org/1999/xlink" x="0px" y="0px"
	 viewBox="0 0 117.7 78.4" style="enable-background:new 0 0 117.7 78.4;" xml:space="preserve">
<style type="text/css">
	.st0{fill:#343231;}
</style>
<g>
	<path class="st0" d="M38.1,23.4c-2-1.1-4.1-1.7-6.3-1.7c-2.2,0-4.3,0.6-6.2,1.7c-2,1.1-3.5,2.7-4.6,4.6c-1.1,1.9-1.6,4.1-1.6,6.4
		c0,3.5,1.2,6.5,3.7,8.9c2.4,2.4,5.4,3.6,8.8,3.6c2.3,0,4.4-0.6,6.4-1.7c2-1.1,3.5-2.6,4.6-4.6c1.1-1.9,1.6-4.1,1.6-6.4
		c0-2.3-0.5-4.5-1.6-6.4C41.6,26,40.1,24.5,38.1,23.4z"/>
	<path class="st0" d="M100.9,3.8H16.7c-8,0-14.6,6.5-14.6,14.6v31.8c0,8,6.5,14.6,14.6,14.6h84.2c8,0,14.6-6.5,14.6-14.6V18.4
		C115.5,10.3,108.9,3.8,100.9,3.8z M42.9,45.3c-3,3-6.7,4.5-11,4.5c-4.4,0-8.1-1.5-11.1-4.5c-3-3-4.5-6.6-4.5-10.9
		c0-2.8,0.7-5.5,2.1-7.9c1.4-2.4,3.2-4.3,5.6-5.7c2.4-1.4,4.9-2.1,7.7-2.1c4.5,0,8.2,1.5,11.2,4.5c3,3,4.5,6.7,4.5,11
		C47.4,38.6,45.9,42.3,42.9,45.3z M65.1,47.4c-1.6,1.6-3.6,2.4-5.9,2.4c-1.8,0-3.4-0.5-4.9-1.4c-1.5-1-2.8-2.6-4-4.8l2.5-1.5
		c1.8,3.3,3.8,4.9,6.1,4.9c1,0,1.9-0.2,2.8-0.7c0.9-0.5,1.5-1.1,2-1.9c0.5-0.8,0.7-1.6,0.7-2.5c0-1-0.3-2-1-2.9
		c-0.9-1.3-2.6-2.9-5.1-4.7c-2.5-1.9-4-3.2-4.6-4c-1-1.4-1.6-2.9-1.6-4.5c0-1.3,0.3-2.5,0.9-3.5c0.6-1.1,1.5-1.9,2.6-2.5
		c1.1-0.6,2.3-0.9,3.6-0.9c1.4,0,2.7,0.3,3.9,1c1.2,0.7,2.5,2,3.8,3.8l-2.4,1.8c-1.1-1.5-2.1-2.4-2.8-2.9c-0.8-0.5-1.6-0.7-2.6-0.7
		c-1.2,0-2.2,0.4-2.9,1.1c-0.8,0.7-1.1,1.6-1.1,2.7c0,0.6,0.1,1.3,0.4,1.9c0.3,0.6,0.8,1.3,1.5,2c0.4,0.4,1.7,1.4,3.8,3
		c2.6,1.9,4.3,3.6,5.3,5c1,1.5,1.4,3,1.4,4.4C67.5,44,66.7,45.9,65.1,47.4z M79.2,43.4c2.5,2.4,5.6,3.6,9.3,3.6
		c4.1,0,7.6-1.6,10.4-4.9l2.3,1.8c-1.5,1.9-3.3,3.3-5.5,4.3c-2.2,1-4.7,1.5-7.4,1.5c-5.2,0-9.2-1.7-12.2-5.2
		c-2.5-2.9-3.8-6.4-3.8-10.5c0-4.3,1.5-8,4.5-10.9c3-3,6.8-4.4,11.4-4.4c2.8,0,5.2,0.5,7.5,1.6c2.2,1.1,4,2.6,5.5,4.6L99,26.8
		c-1.3-1.7-2.8-2.9-4.6-3.8c-1.8-0.9-3.8-1.3-5.9-1.3c-2.4,0-4.5,0.6-6.5,1.7c-2,1.1-3.6,2.7-4.7,4.6c-1.1,1.9-1.7,4.1-1.7,6.4
		C75.5,38,76.8,41,79.2,43.4z"/>
	<g>
		<path class="st0" d="M16.7,70.5h0.9v1.3h0.5v0.8h-0.5v2.7h-0.9v-2.7h-0.5v-0.8h0.5V70.5z"/>
		<path class="st0" d="M18.6,70.4h0.9v1.7c0.2-0.1,0.3-0.3,0.5-0.3c0.2-0.1,0.3-0.1,0.5-0.1c0.3,0,0.6,0.1,0.9,0.4
			c0.2,0.2,0.3,0.5,0.3,0.9v2.3h-0.9v-1.5c0-0.4,0-0.7-0.1-0.8c0-0.1-0.1-0.3-0.2-0.3c-0.1-0.1-0.2-0.1-0.3-0.1
			c-0.2,0-0.3,0.1-0.5,0.2c-0.1,0.1-0.2,0.3-0.3,0.5c0,0.1,0,0.3,0,0.7v1.4h-0.9V70.4z"/>
		<path class="st0" d="M26,73.8h-2.8c0,0.2,0.2,0.4,0.3,0.6c0.2,0.1,0.4,0.2,0.7,0.2c0.3,0,0.6-0.1,0.8-0.3l0.7,0.3
			c-0.2,0.3-0.4,0.5-0.7,0.6c-0.3,0.1-0.6,0.2-0.9,0.2c-0.5,0-1-0.2-1.3-0.5c-0.3-0.3-0.5-0.8-0.5-1.3c0-0.5,0.2-1,0.5-1.3
			c0.3-0.4,0.8-0.5,1.3-0.5c0.6,0,1,0.2,1.3,0.5c0.3,0.4,0.5,0.8,0.5,1.4L26,73.8z M25.2,73.1c-0.1-0.2-0.2-0.4-0.3-0.5
			c-0.2-0.1-0.4-0.2-0.6-0.2c-0.2,0-0.5,0.1-0.6,0.2c-0.1,0.1-0.2,0.2-0.3,0.5H25.2z"/>
		<path class="st0" d="M30.2,71.7c0.3,0,0.6,0.1,0.9,0.2c0.3,0.2,0.5,0.4,0.7,0.7c0.2,0.3,0.2,0.6,0.2,0.9c0,0.3-0.1,0.6-0.2,0.9
			c-0.2,0.3-0.4,0.5-0.7,0.7c-0.3,0.2-0.6,0.2-0.9,0.2c-0.5,0-0.9-0.2-1.3-0.5c-0.4-0.4-0.5-0.8-0.5-1.3c0-0.5,0.2-1,0.6-1.4
			C29.4,71.8,29.8,71.7,30.2,71.7z M30.3,72.5c-0.3,0-0.5,0.1-0.7,0.3c-0.2,0.2-0.3,0.4-0.3,0.7c0,0.3,0.1,0.5,0.3,0.7
			c0.2,0.2,0.4,0.3,0.7,0.3c0.3,0,0.5-0.1,0.7-0.3c0.2-0.2,0.3-0.4,0.3-0.7c0-0.3-0.1-0.5-0.3-0.7C30.8,72.6,30.5,72.5,30.3,72.5z"
			/>
		<path class="st0" d="M33.7,71.8v0.4c0.2-0.2,0.3-0.3,0.5-0.4c0.2-0.1,0.4-0.1,0.6-0.1c0.5,0,0.8,0.2,1.2,0.5
			c0.3,0.3,0.5,0.8,0.5,1.3c0,0.5-0.2,1-0.5,1.3c-0.3,0.4-0.7,0.5-1.2,0.5c-0.2,0-0.4,0-0.6-0.1c-0.2-0.1-0.3-0.2-0.5-0.4v1.6h-0.9
			v-4.8H33.7z M34.6,72.5c-0.3,0-0.5,0.1-0.7,0.3c-0.2,0.2-0.3,0.4-0.3,0.7c0,0.3,0.1,0.6,0.3,0.8c0.2,0.2,0.4,0.3,0.7,0.3
			c0.3,0,0.5-0.1,0.7-0.3c0.2-0.2,0.3-0.4,0.3-0.8c0-0.3-0.1-0.5-0.3-0.7C35.1,72.6,34.9,72.5,34.6,72.5z"/>
		<path class="st0" d="M40.7,73.8h-2.8c0,0.2,0.2,0.4,0.3,0.6c0.2,0.1,0.4,0.2,0.7,0.2c0.3,0,0.6-0.1,0.8-0.3l0.7,0.3
			c-0.2,0.3-0.4,0.5-0.7,0.6c-0.3,0.1-0.6,0.2-0.9,0.2c-0.5,0-1-0.2-1.3-0.5c-0.3-0.3-0.5-0.8-0.5-1.3c0-0.5,0.2-1,0.5-1.3
			c0.3-0.4,0.8-0.5,1.3-0.5c0.6,0,1,0.2,1.3,0.5c0.3,0.4,0.5,0.8,0.5,1.4L40.7,73.8z M39.8,73.1c-0.1-0.2-0.2-0.4-0.3-0.5
			c-0.2-0.1-0.4-0.2-0.6-0.2c-0.2,0-0.5,0.1-0.6,0.2c-0.1,0.1-0.2,0.2-0.3,0.5H39.8z"/>
		<path class="st0" d="M41.4,71.8h0.9v0.4c0.2-0.2,0.4-0.3,0.5-0.3c0.2-0.1,0.3-0.1,0.5-0.1c0.3,0,0.6,0.1,0.9,0.4
			c0.2,0.2,0.3,0.5,0.3,0.9v2.3h-0.9v-1.5c0-0.4,0-0.7-0.1-0.8c0-0.1-0.1-0.2-0.2-0.3c-0.1-0.1-0.2-0.1-0.3-0.1
			c-0.2,0-0.3,0.1-0.5,0.2c-0.1,0.1-0.2,0.3-0.3,0.5c0,0.1,0,0.3,0,0.7v1.4h-0.9V71.8z"/>
		<path class="st0" d="M49.3,72.3l-0.5,0.5c-0.2-0.2-0.4-0.3-0.6-0.3c-0.1,0-0.2,0-0.2,0.1c-0.1,0-0.1,0.1-0.1,0.2
			c0,0,0,0.1,0.1,0.1c0,0,0.1,0.1,0.3,0.2l0.3,0.2c0.3,0.2,0.6,0.3,0.7,0.5c0.1,0.2,0.2,0.4,0.2,0.6c0,0.3-0.1,0.6-0.3,0.8
			c-0.2,0.2-0.5,0.3-0.9,0.3c-0.5,0-0.9-0.2-1.2-0.6l0.5-0.6c0.1,0.1,0.2,0.2,0.4,0.3c0.1,0.1,0.3,0.1,0.4,0.1c0.1,0,0.2,0,0.3-0.1
			c0.1-0.1,0.1-0.1,0.1-0.2c0-0.1-0.1-0.3-0.4-0.4l-0.3-0.1c-0.6-0.3-0.9-0.6-0.9-1.1c0-0.3,0.1-0.5,0.3-0.7
			c0.2-0.2,0.5-0.3,0.8-0.3c0.2,0,0.4,0.1,0.6,0.1C49,71.9,49.2,72.1,49.3,72.3z"/>
		<path class="st0" d="M51.7,71.7c0.3,0,0.6,0.1,0.9,0.2c0.3,0.2,0.5,0.4,0.7,0.7c0.2,0.3,0.2,0.6,0.2,0.9c0,0.3-0.1,0.6-0.2,0.9
			c-0.2,0.3-0.4,0.5-0.7,0.7c-0.3,0.2-0.6,0.2-0.9,0.2c-0.5,0-0.9-0.2-1.3-0.5c-0.4-0.4-0.5-0.8-0.5-1.3c0-0.5,0.2-1,0.6-1.4
			C50.9,71.8,51.3,71.7,51.7,71.7z M51.8,72.5c-0.3,0-0.5,0.1-0.7,0.3c-0.2,0.2-0.3,0.4-0.3,0.7c0,0.3,0.1,0.5,0.3,0.7
			c0.2,0.2,0.4,0.3,0.7,0.3c0.3,0,0.5-0.1,0.7-0.3c0.2-0.2,0.3-0.4,0.3-0.7c0-0.3-0.1-0.5-0.3-0.7C52.3,72.6,52,72.5,51.8,72.5z"/>
		<path class="st0" d="M54.3,71.8h0.9v1.7c0,0.3,0,0.6,0.1,0.7c0,0.1,0.1,0.2,0.2,0.3c0.1,0.1,0.2,0.1,0.4,0.1c0.1,0,0.3,0,0.4-0.1
			c0.1-0.1,0.2-0.2,0.2-0.3c0-0.1,0.1-0.3,0.1-0.6v-1.7h0.9v1.5c0,0.6,0,1-0.1,1.3c-0.1,0.3-0.3,0.5-0.5,0.6
			c-0.2,0.1-0.5,0.2-0.9,0.2c-0.4,0-0.7-0.1-0.9-0.3c-0.2-0.2-0.4-0.4-0.5-0.7c-0.1-0.2-0.1-0.6-0.1-1.2V71.8z"/>
		<path class="st0" d="M58.1,71.8h0.8v0.4c0.1-0.2,0.2-0.3,0.3-0.4c0.1-0.1,0.3-0.1,0.4-0.1c0.1,0,0.2,0,0.4,0.1l-0.3,0.8
			c-0.1,0-0.2-0.1-0.3-0.1c-0.1,0-0.2,0.1-0.3,0.3c-0.1,0.2-0.1,0.5-0.1,1l0,0.2v1.4h-0.9V71.8z"/>
		<path class="st0" d="M63.8,72.5l-0.7,0.4c-0.1-0.1-0.3-0.2-0.4-0.3c-0.1-0.1-0.3-0.1-0.5-0.1c-0.3,0-0.6,0.1-0.8,0.3
			c-0.2,0.2-0.3,0.4-0.3,0.8c0,0.3,0.1,0.5,0.3,0.7c0.2,0.2,0.5,0.3,0.8,0.3c0.4,0,0.7-0.1,0.9-0.4l0.7,0.5
			c-0.4,0.5-0.9,0.7-1.6,0.7c-0.6,0-1.1-0.2-1.4-0.5c-0.3-0.4-0.5-0.8-0.5-1.3c0-0.3,0.1-0.7,0.3-0.9c0.2-0.3,0.4-0.5,0.7-0.7
			c0.3-0.2,0.6-0.2,1-0.2c0.3,0,0.7,0.1,0.9,0.2C63.4,72,63.6,72.2,63.8,72.5z"/>
		<path class="st0" d="M68.1,73.8h-2.8c0,0.2,0.1,0.4,0.3,0.6c0.2,0.1,0.4,0.2,0.7,0.2c0.3,0,0.6-0.1,0.8-0.3l0.7,0.3
			c-0.2,0.3-0.4,0.5-0.7,0.6c-0.3,0.1-0.6,0.2-0.9,0.2c-0.5,0-1-0.2-1.3-0.5c-0.3-0.3-0.5-0.8-0.5-1.3c0-0.5,0.2-1,0.5-1.3
			c0.3-0.4,0.8-0.5,1.3-0.5c0.5,0,1,0.2,1.3,0.5c0.3,0.4,0.5,0.8,0.5,1.4L68.1,73.8z M67.2,73.1c-0.1-0.2-0.2-0.4-0.3-0.5
			c-0.2-0.1-0.4-0.2-0.6-0.2c-0.2,0-0.5,0.1-0.6,0.2c-0.1,0.1-0.2,0.2-0.3,0.5H67.2z"/>
		<path class="st0" d="M74.1,72.5l-0.7,0.4c-0.1-0.1-0.3-0.2-0.4-0.3c-0.1-0.1-0.3-0.1-0.5-0.1c-0.3,0-0.6,0.1-0.8,0.3
			c-0.2,0.2-0.3,0.4-0.3,0.8c0,0.3,0.1,0.5,0.3,0.7c0.2,0.2,0.5,0.3,0.8,0.3c0.4,0,0.7-0.1,0.9-0.4l0.7,0.5
			c-0.4,0.5-0.9,0.7-1.6,0.7c-0.6,0-1.1-0.2-1.4-0.5c-0.3-0.4-0.5-0.8-0.5-1.3c0-0.3,0.1-0.7,0.3-0.9c0.2-0.3,0.4-0.5,0.7-0.7
			c0.3-0.2,0.6-0.2,1-0.2c0.3,0,0.7,0.1,0.9,0.2C73.7,72,73.9,72.2,74.1,72.5z"/>
		<path class="st0" d="M76.5,71.7c0.3,0,0.6,0.1,0.9,0.2c0.3,0.2,0.5,0.4,0.7,0.7c0.2,0.3,0.2,0.6,0.2,0.9c0,0.3-0.1,0.6-0.2,0.9
			c-0.2,0.3-0.4,0.5-0.7,0.7c-0.3,0.2-0.6,0.2-0.9,0.2c-0.5,0-0.9-0.2-1.3-0.5c-0.4-0.4-0.5-0.8-0.5-1.3c0-0.5,0.2-1,0.6-1.4
			C75.7,71.8,76.1,71.7,76.5,71.7z M76.6,72.5c-0.3,0-0.5,0.1-0.7,0.3c-0.2,0.2-0.3,0.4-0.3,0.7c0,0.3,0.1,0.5,0.3,0.7
			c0.2,0.2,0.4,0.3,0.7,0.3c0.3,0,0.5-0.1,0.7-0.3c0.2-0.2,0.3-0.4,0.3-0.7c0-0.3-0.1-0.5-0.3-0.7C77.1,72.6,76.8,72.5,76.6,72.5z"
			/>
		<path class="st0" d="M79.1,71.8H80v0.4c0.2-0.2,0.3-0.3,0.5-0.4c0.2-0.1,0.4-0.1,0.6-0.1c0.2,0,0.4,0.1,0.6,0.2
			c0.2,0.1,0.3,0.3,0.4,0.5c0.1-0.2,0.3-0.4,0.5-0.5c0.2-0.1,0.4-0.2,0.7-0.2c0.2,0,0.5,0.1,0.7,0.2c0.2,0.1,0.3,0.3,0.4,0.5
			c0.1,0.2,0.1,0.5,0.1,0.9v2.1h-0.9v-1.8c0-0.4-0.1-0.7-0.2-0.8c-0.1-0.1-0.2-0.2-0.4-0.2c-0.1,0-0.3,0-0.4,0.1
			c-0.1,0.1-0.2,0.2-0.3,0.4c-0.1,0.1-0.1,0.4-0.1,0.7v1.6h-0.9v-1.7c0-0.3,0-0.5-0.1-0.7c0-0.1-0.1-0.2-0.2-0.3
			c-0.1-0.1-0.2-0.1-0.3-0.1c-0.1,0-0.3,0-0.4,0.1c-0.1,0.1-0.2,0.2-0.3,0.4C80,73.1,80,73.4,80,73.7v1.6h-0.9V71.8z"/>
		<path class="st0" d="M86.2,71.8v0.4c0.2-0.2,0.3-0.3,0.5-0.4c0.2-0.1,0.4-0.1,0.6-0.1c0.5,0,0.8,0.2,1.2,0.5
			c0.3,0.3,0.5,0.8,0.5,1.3c0,0.5-0.2,1-0.5,1.3c-0.3,0.4-0.7,0.5-1.2,0.5c-0.2,0-0.4,0-0.6-0.1c-0.2-0.1-0.3-0.2-0.5-0.4v1.6h-0.9
			v-4.8H86.2z M87.1,72.5c-0.3,0-0.5,0.1-0.7,0.3c-0.2,0.2-0.3,0.4-0.3,0.7c0,0.3,0.1,0.6,0.3,0.8c0.2,0.2,0.4,0.3,0.7,0.3
			c0.3,0,0.5-0.1,0.7-0.3c0.2-0.2,0.3-0.4,0.3-0.8c0-0.3-0.1-0.5-0.3-0.7C87.6,72.6,87.4,72.5,87.1,72.5z"/>
		<path class="st0" d="M92.2,71.8h0.9v3.5h-0.9v-0.4c-0.2,0.2-0.3,0.3-0.5,0.4c-0.2,0.1-0.4,0.1-0.6,0.1c-0.5,0-0.8-0.2-1.2-0.5
			c-0.3-0.4-0.5-0.8-0.5-1.3c0-0.5,0.2-1,0.5-1.3c0.3-0.3,0.7-0.5,1.2-0.5c0.2,0,0.4,0,0.6,0.1c0.2,0.1,0.4,0.2,0.5,0.4V71.8z
			 M91.3,72.5c-0.3,0-0.5,0.1-0.7,0.3c-0.2,0.2-0.3,0.4-0.3,0.7c0,0.3,0.1,0.6,0.3,0.8c0.2,0.2,0.4,0.3,0.7,0.3
			c0.3,0,0.5-0.1,0.7-0.3c0.2-0.2,0.3-0.4,0.3-0.8c0-0.3-0.1-0.6-0.3-0.7C91.8,72.6,91.6,72.5,91.3,72.5z"/>
		<path class="st0" d="M94,71.8h0.9v0.4c0.2-0.2,0.4-0.3,0.5-0.3c0.2-0.1,0.3-0.1,0.5-0.1c0.3,0,0.6,0.1,0.9,0.4
			c0.2,0.2,0.3,0.5,0.3,0.9v2.3h-0.9v-1.5c0-0.4,0-0.7-0.1-0.8c0-0.1-0.1-0.2-0.2-0.3c-0.1-0.1-0.2-0.1-0.3-0.1
			c-0.2,0-0.3,0.1-0.5,0.2c-0.1,0.1-0.2,0.3-0.3,0.5c0,0.1,0,0.3,0,0.7v1.4H94V71.8z"/>
		<path class="st0" d="M97.6,71.8h0.9l0.9,2.2l1-2.2h0.9l-2.2,4.8h-0.9l0.7-1.5L97.6,71.8z"/>
	</g>
</g>
</svg>
