<svg version="1.2" xmlns="http://www.w3.org/2000/svg" viewBox="0 0 2000 370" width="2000" height="370"><defs><linearGradient id="P" gradientUnits="userSpaceOnUse"/><linearGradient id="g1" x1="-1" y1="257" x2="2008" y2="257" href="#P"><stop stop-color="#00c0ff"/><stop offset=".5" stop-color="#a800ff"/><stop offset="1" stop-color="#ffea00"/></linearGradient></defs><style>.a{fill:#9aacb5}.b{fill:url(#g1)}</style><path class="a" d="m1278.2 112h-12.7v-45.2q0-6.2-0.8-10.8-0.6-4.8-2.5-7.8-1.9-3.1-5.3-4.7-3.1-1.6-8.4-1.6-7.4 0-13.5 4.9-6 4.8-7.8 12.4v52.8h-12.7v-111h12.7v40.6h0.7q4.1-5 9.8-7.8 5.9-3 14.5-3 6.6 0 11.6 1.6 4.9 1.4 8.1 5.2 3.3 3.8 4.7 10.3 1.6 6.4 1.6 16.2zm18.8-39.7q0-20.1 8.8-30.7 9.1-10.8 25.9-10.8 8.9 0 15.4 3 6.7 2.8 11 8.4 4.3 5.4 6.3 13.2 2.1 7.6 2.1 16.9 0 20.2-9 31-8.9 10.6-25.8 10.6-8.9 0-15.5-2.9-6.5-3-10.8-8.4-4.3-5.5-6.4-13.1-2-7.8-2-17.2zm13.1 0q0 6.1 1.1 11.6 1.3 5.6 3.9 9.7 2.5 4.1 6.6 6.7 4.2 2.5 10 2.5 21.6 0.1 21.6-30.5 0-6.2-1.2-11.7-1.2-5.6-3.7-9.7-2.5-4.1-6.7-6.5-4.1-2.5-10-2.5-21.6-0.2-21.6 30.4zm111.4 18.1q0-4.7-2.9-7.4-2.9-2.7-7.2-4.5-4.1-1.9-9.2-3.5-4.9-1.7-9.2-4.3-4.1-2.7-7-6.8-2.8-4.1-2.8-11.1 0-11.4 6.5-16.6 6.5-5.4 18.1-5.4 8.6 0 14.3 1.6 5.9 1.4 10.1 3.4l-3 10.5q-3.6-1.7-8.9-3-5-1.4-10.9-1.4-7 0-10.3 2.4-3.2 2.3-3.2 8.2 0 4.1 2.8 6.5 2.9 2.2 7 4.1 4.3 1.8 9.2 3.5 5.1 1.8 9.3 4.6 4.2 2.9 7.1 7.3 2.9 4.3 2.9 11.4 0 5.1-1.8 9.6-1.6 4.4-5.1 7.6-3.5 3.1-8.7 5.1-5.1 1.7-12.1 1.7-9 0-15.4-1.7-6.3-1.8-10.6-4.2l3.8-10.8q3.6 2.1 9.5 3.8 5.9 1.8 11.9 1.8 6.9 0 11.3-2.7 4.5-2.7 4.5-9.7zm21.4-46.6v-11.1h12.4v-15.7l12.7-3.7v19.4h21.6v11.1h-21.6v43.9q0 8.3 2 11.8 2.1 3.3 7 3.3 4.2 0 7-0.8 2.9-1 6.4-2.4l2.8 9.7q-4.3 2.1-9.3 3.3-5.1 1.3-11 1.3-9.7 0-13.7-5.4-3.9-5.6-3.9-18.4v-46.3zm67 68.2v-79.3h12.7v79.3zm-2.7-103.4q0-3.7 2.4-6.2 2.5-2.7 6.3-2.7 3.8 0 6.5 2.7 2.7 2.5 2.7 6.2 0 3.6-2.7 6-2.7 2.4-6.5 2.4-3.8 0-6.3-2.4-2.4-2.4-2.4-6zm106.2 103.4h-12.7v-45.2q0-12.4-3.6-18.6-3.5-6.3-13.1-6.3-8.4 0-13.9 4.6-5.4 4.4-7.6 11.2v54.3h-12.8v-79.3h8.9l2.4 9.6h0.7q3.8-5 10.1-8.2 6.5-3.3 15.4-3.3 6.5 0 11.5 1.6 4.9 1.4 8.1 5.2 3.3 3.8 4.9 10.3 1.7 6.3 1.7 16.2zm84-76v79.6q0 15.4-8.2 22.7-8.1 7.3-24.2 7.3-9.5 0-15.4-1.1-5.7-1.3-9.8-3.2l3.3-10.8q3.7 1.5 8.1 2.7 4.5 1.3 11.6 1.3 6.7 0 10.8-1.1 4.3-1.3 6.8-4 2.6-2.8 3.5-7.1 1-4.4 1-10.5v-7.6h-0.7q-3.1 4.6-8 7.1-5 2.4-12.9 2.4-16.1 0-23.7-10-7.4-10-7.4-31.1 0-20.3 9.7-30.7 9.6-10.7 28.5-10.7 9.1 0 15.4 1.5 6.5 1.4 11.6 3.3zm-31.9 66.6q8.1 0 12.7-3.9 4.6-4.2 6.5-12.7v-40.6q-6.3-3.1-16.2-3.1-10.8 0-17 7.3-6.2 7.3-6.2 22.9 0 6.6 1.2 12.2 1.1 5.5 3.4 9.5 2.4 4 6.2 6.2 3.9 2.2 9.4 2.2z"/><path class="b" d="m247.4 359h-148.6-25.3-13.1q-11.4 0-22-2.4-10.6-2.5-19.6-8.2-8.2-6.5-13.9-17.1-4.9-11.5-4.9-29.4v-0.8-22.9-121.5h49v121.5 21.2q0 6.6 2.4 13.1 3.3 5.7 15.6 5.7h6.5 25.3 148.6v-161.5h49v202.3h-41.6zm326.7-161.5v-40.8h49.8v40.8 22.8 3.3q-1.7 22-9.8 34.2 8.1 12.3 9.8 34.3v3.3 22.8 40.8h-49.8v-40.8-21.2q0-6.5-2.5-12.2-2.4-6.6-15.5-6.6h-31-148.7v80.8h-49.8v-202.3h49.8v80.7h148.7 31q13.1 0 15.5-5.7 2.5-6.5 2.5-13zm365.8 100.3q9.8 13.9 9.8 38.4v22.8h-49v-21.2q0-6.5-3.2-13.1-2.5-6.5-14.7-6.5h-31.9-148.6v40.8h-49v-202.3h20.4 28.6 148.6 38.4 4.1q10.6 0 20.4 3.2 10.6 2.5 18.8 9 8.1 5.7 12.2 17.2 4.9 11.4 4.9 28.5v22.9 22.8q0 25.3-9.8 37.5zm-237.6-19.6h148.6 31.9q12.2 0 14.7-5.7 3.2-6.5 3.2-13v-22-21.3q0-6.5-3.2-12.2-2.5-6.5-14.7-6.5h-31.9-148.6zm525.1 80.7v-40.7h-198.5v40.7h-49v-121.5-22.9q0-17.9 4.9-29.3 5.8-11.5 13.9-18 9-6.5 19.6-8.1 11.5-2.5 22.9-2.5h13.1 24.5 98.8 15.5 22.9q11.4 0 22 2.5 11.4 1.6 19.6 8.1 9 6.5 13.9 18 5.7 11.4 5.7 29.3v22.9 121.5zm-198.4-121.5v40.8h198.4v-40.8-22q0-6.6-3.3-12.3-2.4-6.5-14.7-6.5h-16.3-15.5-98.8-24.5-6.6q-13 0-16.3 6.5-2.4 5.7-2.4 12.3zm277.6-81.6h51.5v203.1h-51.5zm276.1 41.6h-99.7-31q-13.1 0-15.5 6.6-2.5 5.7-2.5 12.2v21.2 121.6h-49.8v-121.6-22.8q0-18 4.9-29.4 5.7-11.4 13.9-18 9-6.5 19.6-8.1 11.4-2.5 22.9-2.5h2.4 35.1 99.7 29.4 8.1q11.5 0 22.1 2.5 11.4 1.6 19.6 8.1 9 6.6 13.9 18 5.7 11.4 5.7 29.4v22.8 121.6h-49.8v-121.6-21.2q0-6.5-2.5-12.2-2.4-6.6-15.5-6.6h-1.6zm128.2 17.2v-4.1q0.8-17.2 5.7-26.9 5.7-10.7 13.9-16.4 9-6.5 18.8-8.1 10.6-2.5 22-2.5h7.4 31 197.6v40.8h-197.6-31-0.9q-12.2 0-15.5 6.6-2.4 5.7-2.4 12.2v21.2h198.4v40.8h-198.4v21.2q0 6.5 2.4 13.1 3.3 5.7 15.5 5.7h0.9 31 197.6v40.8h-197.6-31-7.4q-10.6 0-21.2-1.7-9.8-2.4-18.8-7.3-8.2-5.7-13.9-15.5-5.7-9.8-6.5-26.1v-7.4-22.8-40.8z"/></svg>