<?xml version="1.0" encoding="utf-8"?>
<!-- Generator: Adobe Illustrator 26.0.3, SVG Export Plug-In . SVG Version: 6.00 Build 0)  -->
<svg version="1.1" id="Layer_1" xmlns="http://www.w3.org/2000/svg" xmlns:xlink="http://www.w3.org/1999/xlink" x="0px" y="0px"
	 viewBox="0 0 675.2 367.6" style="enable-background:new 0 0 675.2 367.6;" xml:space="preserve">
<style type="text/css">
	.st0{fill:#3887F6;}
	.st1{fill:#5051DB;}
</style>
<polygon class="st0" points="164.1,178.5 164.1,241.5 218.7,210 218.7,147 "/>
<polygon class="st1" points="109.6,147 109.6,210 164.1,178.5 164.1,115.5 "/>
<path d="M477.2,188.6c0,13.1-9.6,22.6-22.4,22.6s-22.4-9.5-22.4-22.6s9.6-22.6,22.4-22.6S477.2,175.5,477.2,188.6z M465.7,188.6
	c0-8.1-5.2-12.1-10.8-12.1s-10.8,4.1-10.8,12.1c0,8.1,5.2,12.1,10.8,12.1S465.7,196.7,465.7,188.6z"/>
<path d="M343.2,203.2v-21c0-8.6-5-16.2-18.5-16.2c-11.1,0-17.2,6.9-18.2,13.4l10.2,2.2c0.6-3.4,3.3-6.2,8.1-6.2s7.2,2.5,7.2,5.6
	c0,1.5-0.8,2.7-3.2,3l-10.5,1.6c-7.1,1-12.7,5.3-12.7,12.9c0,6.7,5.5,12.8,14.6,12.8c6.3,0,10.4-2.9,12.6-6.3c0,1.7,0.1,3.4,0.4,5.1
	h10.6C343.4,207.8,343.2,205.5,343.2,203.2z M331.9,192.7c0,7.5-4.5,9.9-9.4,9.9c-3.7,0-5.5-2.4-5.5-4.9c0-3.3,2.3-4.9,5.3-5.4
	l9.6-1.5V192.7z"/>
<path d="M287.3,210v-63h11.5v63H287.3z"/>
<path d="M366,167.3h8.6v10.2H366v17.9c0,3.7,1.7,4.9,5,4.9c1.2,0,2.4-0.1,3.5-0.3v9.5c-2.3,0.8-4.7,1.1-7.2,1
	c-7.1,0-12.9-5.7-12.9-12.8c0-0.1,0-0.2,0-0.3v-19.8h-7v-10.2h7v-12.8H366L366,167.3z"/>
<path d="M269.4,210h-11.4v-32.4h-7.7v-10.2h7.7v-8.2c0-8.2,6.3-13.2,13.2-13.2c3.2-0.1,6.4,0.4,9.5,1.3v9.5
	c-2.1-0.4-4.2-0.6-6.3-0.6c-3.3,0-5,1.2-5,4.9v6.2h10.8v10.2h-10.9V210z"/>
<path d="M381.9,210v-42.6h11.5V210H381.9z"/>
<path d="M381.9,161v-11h11.5v11H381.9z"/>
<path d="M429.2,178.8c-1.1-0.2-2.3-0.4-3.5-0.4c-5.9,0-11,2.9-11,12V210h-11.5v-42.6h11.2v6.1c2.3-4,6.5-6.5,11.1-6.5
	c1,0,2.8,0.1,3.7,0.2L429.2,178.8z"/>
<path d="M494.9,210h-11.6v-42.6h11.2v5.3c2.6-4.4,7.7-6.4,12.3-6.4c10.6,0,15.4,7.5,15.4,16.9V210h-11.5v-24.9
	c0-4.8-2.3-8.5-7.9-8.5c-5,0-8,3.9-8,8.8L494.9,210z"/>
<g>
	<path d="M530.4,204.6c0-0.8,0.1-1.5,0.4-2.2c0.3-0.7,0.7-1.3,1.2-1.8c0.5-0.5,1.1-0.9,1.8-1.2c0.7-0.3,1.4-0.4,2.2-0.4
		c0.8,0,1.5,0.1,2.2,0.4c0.7,0.3,1.3,0.7,1.8,1.2c0.5,0.5,0.9,1.1,1.2,1.8c0.3,0.7,0.4,1.4,0.4,2.2s-0.1,1.5-0.4,2.2
		c-0.3,0.7-0.7,1.3-1.2,1.8c-0.5,0.5-1.1,0.9-1.8,1.2c-0.7,0.3-1.4,0.4-2.2,0.4c-0.8,0-1.5-0.1-2.2-0.4c-0.7-0.3-1.3-0.7-1.8-1.2
		c-0.5-0.5-0.9-1.1-1.2-1.8C530.5,206.1,530.4,205.4,530.4,204.6z M531.6,204.6c0,0.6,0.1,1.2,0.3,1.8c0.2,0.6,0.5,1,0.9,1.4
		c0.4,0.4,0.9,0.7,1.4,1c0.5,0.2,1.1,0.4,1.7,0.4c0.6,0,1.2-0.1,1.7-0.4c0.5-0.2,1-0.5,1.4-1c0.4-0.4,0.7-0.9,0.9-1.4
		c0.2-0.6,0.3-1.1,0.3-1.8c0-0.6-0.1-1.2-0.3-1.8c-0.2-0.5-0.5-1-0.9-1.4s-0.9-0.7-1.4-1c-0.5-0.2-1.1-0.3-1.7-0.3
		c-0.6,0-1.2,0.1-1.7,0.3c-0.5,0.2-1,0.5-1.4,1c-0.4,0.4-0.7,0.9-0.9,1.4C531.7,203.4,531.6,203.9,531.6,204.6z M535.2,207.6h-1.2
		v-6.1h2.1c0.3,0,0.6,0,0.8,0.1c0.3,0.1,0.5,0.2,0.7,0.4c0.2,0.2,0.3,0.4,0.4,0.6c0.1,0.2,0.2,0.5,0.2,0.8c0,0.4-0.1,0.8-0.4,1.1
		c-0.2,0.3-0.6,0.6-1,0.7l1.4,2.4H537l-1.3-2.3h-0.5V207.6z M536,204.3c0.3,0,0.6-0.1,0.8-0.2c0.2-0.2,0.3-0.4,0.3-0.7
		c0-0.6-0.4-0.9-1.1-0.9h-0.8v1.8H536z"/>
</g>
</svg>
