<?xml version="1.0" encoding="utf-8"?>
<!-- Generator: Adobe Illustrator 22.1.0, SVG Export Plug-In . SVG Version: 6.00 Build 0)  -->
<svg version="1.1" id="Layer_1" xmlns="http://www.w3.org/2000/svg" xmlns:xlink="http://www.w3.org/1999/xlink" x="0px" y="0px"
	 viewBox="0 0 1065 515" style="enable-background:new 0 0 1065 515;" xml:space="preserve">
<style type="text/css">
	.st0{fill:#3771C8;}
</style>
<g>
	<path class="st0" d="M923.5,221.1l-124.2,0c-2.8,0-5.1,2.3-5.1,5.1c0,5.7,0,15,0,20.8c0,2.8,2.3,5.1,5.1,5.1l92.9,0
		c1,0,2,0.2,2.9,0.6c3.3,1.6,2,4.7,1.5,11.9c-3.7,53.1-42.6,89.7-97.9,89.7c-42.1-0.1-83.3-15.6-107.9-50.8l-0.1-0.1
		c-1.4-2.1-4.7-0.4-3.8,2c18.7,48,66.7,78.6,117.7,78.1c45-0.5,86.7-23.2,109.4-62.6c20.4-35.4,16.5-80.9,14.7-95.2
		C928.2,223,926.1,221.1,923.5,221.1z M774.2,169.8c-24.3,5.7-43.8,22.1-52.2,44c-7.5,19.6-4.9,40.8,7.3,58.4
		c0,0,9.6,14.6,20.5,19.3c2.5,1.1,4.8-2,3.1-4.1c-5.2-6.3-9.3-13.5-11.7-21.4c-10-32.9,5.8-64.3,39.5-71.9
		c19.6-4.4,42.5-0.7,56,13.8c1.9,2,4.6,3.1,7.3,3.1h30.1c2.1,0,3.3-2.3,2.1-4C854.9,175.9,814.4,160.4,774.2,169.8z"/>
	<path class="st0" d="M713.6,210.6c-6.3,16.3-6.4,34.4-0.1,50.7c5.8,15,16.4,27.8,29.9,36.5c12.5,8.1,27.4,12.1,42.2,13.3
		c19.9,1.6,44.3-0.5,57.3-18c0.3-0.4,0-1-0.5-1c-9,0.1-33.5,0-43.1,0c-2.8,0-5.1-2.3-5.1-5.1v-20.8c0-2.8,2.3-5.1,5.1-5.1h82.5
		c2.9,0,5.2,2.4,5.1,5.2c0,1.2,0,2.2-0.1,2.8c-2.3,34.3-29.1,64-61.9,72.8c-13.1,3.5-26.9,4.2-40.4,2.8c-44-4.5-84-26.4-100.1-69.2
		c-3.6-9.5-5.9-19.5-6.7-29.7c-1.5-19.3,2.3-38.9,11.4-56c7.9-14.8,19.4-27.6,32.9-37.5c30.2-22,67.1-28.4,103.4-21.5
		c41.5,7.9,78.8,33.5,95.6,73c1.4,3.4-1.1,7.1-4.7,7.1h-22.6c-2.7,0-5.3-1.5-6.7-3.8c-0.3-0.6-0.6-1.1-0.8-1.3
		c-5-8.1-11.1-15.4-18.2-21.6c-14.4-12.8-32.4-21.1-51.3-24.4c-19.5-3.4-40.6-1.8-59,6c-17.6,7.5-32.6,21-41.2,38.2
		C715.5,206.2,714.5,208.3,713.6,210.6z"/>
	<g>
		<path class="st0" d="M146,134.2h24.5c2.8,0,5.1,2.3,5.1,5.1v232.9c0,2.8-2.3,5.1-5.1,5.1H146c-2.8,0-5.1-2.3-5.1-5.1V139.4
			C140.9,136.5,143.2,134.2,146,134.2z"/>
		<path class="st0" d="M219.8,139.4v232.9c0,2.8-2.3,5.1-5.1,5.1h-25.1c-2.7,0-4.9-2.2-4.9-4.9V139.4c0-2.8,2.3-5.1,5.1-5.1h24.9
			C217.5,134.2,219.8,136.5,219.8,139.4z"/>
	</g>
	<path class="st0" d="M435.4,295.1c-4.1-20.1-20-34-38.1-41.9c-0.6-0.2-2.7-0.9-5.4-1.8c-2.7-0.8-4.6,2.6-2.4,4.4
		c9.9,8.2,16.5,17.4,19.6,30.2c6.4,26.3-9.6,50.6-39.9,60.2c-7.7,2.4-15.8,3.6-23.9,3.6c-16.3,0-33.5-4.3-46.6-13.5
		c-14-10-21.9-24.6-24.5-40.6c-0.4-2.5-2.5-4.4-5.1-4.4h-24.8c-2.5,0-4.4,2.1-4.1,4.6c1,9.3,2.9,18.1,6,26.9
		c3.5,10.1,9.2,19.7,16,27.9c9.2,11.1,21,19.6,34.2,25.2c12,5.1,25.1,7.4,38.1,8.1c29.8,1.8,62.1-6,83.2-28.3
		C432.5,340,439.8,316.5,435.4,295.1z M399.8,286.8c-5.9-24.5-30.1-36.1-49.7-48.2c-8.4-5.1-18.2-9.6-24.5-17.4
		c-8.4-10.4,1-22.3,13.3-22.3c12.4,0,17,7.4,19.7,13.4c0.8,1.8,2.7,3,4.7,3h25.6c2.4,0,4.2-2.2,3.8-4.5
		c-4.1-23.2-20.5-39.9-45.2-42.8c-20.3-2.4-45,4.3-55.6,23.5c-12.3,22.2-0.1,45.9,17.9,60.2c9.3,7.3,19.7,13.1,29.9,19.1
		c7.8,4.6,22.6,10.3,23.7,20.9c1.4,12.8-10.3,20.3-21.9,19.1c-8.3-0.9-16.7-5.2-20.9-12.7c-0.2-0.4-1.2-2.3-2.1-3.9
		c-0.9-1.7-2.6-2.7-4.5-2.7h-25.2c-3.3,0-5.7,3-5,6.2c2.8,12.3,9.1,23.6,20.2,31.5c17.3,12.2,41.8,15.2,62.6,8.7
		C386.7,331.3,406.1,312.7,399.8,286.8z M435,208.3c-1.1-13.7-4.9-27.3-12-39.1c-19.2-32.3-58.3-43.7-93.9-40.5
		c-26,2.3-52.8,12.9-68.1,35c-11.5,16.7-14.8,39.3-6.1,58c7.6,16.2,21.3,25,37.6,31.2c2.6,1,4.7-2.3,2.7-4.2
		c-23.9-22.7-24.3-57.1,2-77.4c19.6-15.1,50.2-17.4,72.4-6.9c18.2,8.6,28.1,24.4,31.7,43.8c0.2,0.9,0.3,1.8,0.5,2.8
		c0.4,2.5,2.6,4.3,5.1,4.3l23,0c3,0,5.3-2.5,5.1-5.5C435.1,209.3,435.1,208.8,435,208.3z"/>
	<g>
		<path class="st0" d="M506.8,277.3v95.1c0,2.8,2.3,5.1,5.1,5.1h23.1c2.8,0,5.1-2.3,5.1-5.1c0-12.2,0-43.4,0-61.7
			c0-2.8,2.3-5.1,5.1-5.1l7,0c1.9,0,3.7,1,4.5,2.7l35.5,66.6c0.9,1.7,2.6,2.7,4.5,2.7h23.7c3.9,0,6.3-4.1,4.6-7.5l-49.3-94.5
			c-1.1-2.1-3.3-3.5-5.7-3.4l-58.2,0C509.1,272.2,506.8,274.5,506.8,277.3z"/>
		<path class="st0" d="M628,289.5c-0.5-0.9-0.4-2.1,0.4-2.9l0,0c4.4-4.6,8.3-9.4,11.6-14.1c3.6-5.3,6.5-10.6,8.6-15.8
			c2-4.8,3.4-10.3,4.3-16.7l0.1-0.5c0.3-2-2.3-2.9-3.4-1.3l0,0c-12.1,18.4-32.1,29.4-59.7,32.9l-2,0.2c-1.8,0.2-2.8,2.1-2,3.7
			l37.4,71.8L639,375c0.9,1.6,2.6,2.6,4.5,2.6h24.9c3.9,0,6.4-4.2,4.5-7.6L628,289.5z"/>
		<path class="st0" d="M614.9,193.9c1.2,14-4,22.9-8.6,27.9c-5.4,5.9-14.7,9.5-24.8,9.7c-6.6,0.1-24.8,0.1-36.4,0.1
			c-2.8,0-5.1-2.3-5.1-5.1v-15c0-2.9,2.3-5.2,5.2-5.1c11.1,0.1,31.4,0.4,32.2,0.4c8.6,0,13.3,3.8,13.5,11c0,0.2,0,0.3,0,0.4
			c0.1,1.2,1.4,2,2.6,1.5c1.7-0.7,3.2-1.6,4.5-2.6c0.6-0.5,1.1-1,1.6-1.5c2.7-3,7.1-9.6,6.2-20.9c-1.6-18.8-21.2-20.3-41.2-20.3
			h-52.1c-3.2,0-5.7,2.6-5.7,5.7v76c0,3.9,3.1,7,7,7h52.8c15.9,0,53,0,73.4-27.3c0,0,0.1-0.1,0.1-0.1c3.7-5.5,6.5-10.3,8.6-15.8
			c2.9-7.6,4.4-15.7,4.3-24.1c-0.1-9-2.1-18-5.9-26c-2-4.2-4.4-8.2-7.2-11.7c-2.9-3.6-6.2-6.8-9.8-9.6
			c-13.2-10.4-30.7-14.8-47.3-14.8c0,0-112.4,0-112.4,0c-2.8,0-5.1,2.3-5.1,5.1v233.7c0,2.8,2.3,5.1,5.1,5.1h22.1
			c2.8,0,5.1-2.3,5.1-5.1V170.4c0-2.8,2.3-5.1,5.1-5.1h61.8C580.1,165.2,612.5,165.1,614.9,193.9z"/>
	</g>
</g>
</svg>
