<?xml version="1.0" encoding="utf-8"?>
<!-- Generator: Adobe Illustrator 22.1.0, SVG Export Plug-In . SVG Version: 6.00 Build 0)  -->
<svg version="1.1" id="Layer_1" xmlns="http://www.w3.org/2000/svg" xmlns:xlink="http://www.w3.org/1999/xlink" x="0px" y="0px"
	 viewBox="0 0 1407 518.6" style="enable-background:new 0 0 1407 518.6;" xml:space="preserve">
<style type="text/css">
	.st0{fill:#3771C8;}
</style>
<g>
	<path class="st0" d="M920.5,224.5l-124.2,0c-2.8,0-5.1,2.3-5.1,5.1c0,5.7,0,15,0,20.8c0,2.8,2.3,5.1,5.1,5.1l92.9,0
		c1,0,2,0.2,2.9,0.6c3.3,1.6,2,4.7,1.5,11.9c-3.7,53.1-42.6,89.7-97.9,89.7c-42.1-0.1-83.3-15.6-107.9-50.8l-0.1-0.1
		c-1.4-2.1-4.7-0.4-3.8,2c18.7,48,66.7,78.6,117.7,78.1c45-0.5,86.7-23.2,109.4-62.6c20.4-35.4,16.5-80.9,14.7-95.2
		C925.2,226.5,923.1,224.5,920.5,224.5z M771.2,173.2c-24.3,5.7-43.8,22.1-52.2,44c-7.5,19.6-4.9,40.8,7.3,58.4
		c0,0,9.6,14.6,20.5,19.3c2.5,1.1,4.8-2,3.1-4.1c-5.2-6.3-9.3-13.5-11.7-21.4c-10-32.9,5.8-64.3,39.5-71.9
		c19.6-4.4,42.5-0.7,56,13.8c1.9,2,4.6,3.1,7.3,3.1h30.1c2.1,0,3.3-2.3,2.1-4C851.9,179.3,811.4,163.9,771.2,173.2z"/>
	<path class="st0" d="M710.6,214c-6.3,16.3-6.4,34.4-0.1,50.7c5.8,15,16.4,27.8,29.9,36.5c12.5,8.1,27.4,12.1,42.2,13.3
		c19.9,1.6,44.3-0.5,57.3-18c0.3-0.4,0-1-0.5-1c-9,0.1-33.5,0-43.1,0c-2.8,0-5.1-2.3-5.1-5.1v-20.8c0-2.8,2.3-5.1,5.1-5.1h82.5
		c2.9,0,5.2,2.4,5.1,5.2c0,1.2,0,2.2-0.1,2.8c-2.3,34.3-29.1,64-61.9,72.8c-13.1,3.5-26.9,4.2-40.4,2.8c-44-4.5-84-26.4-100.1-69.2
		c-3.6-9.5-5.9-19.5-6.7-29.7c-1.5-19.3,2.3-38.9,11.4-56c7.9-14.8,19.4-27.6,32.9-37.5c30.2-22,67.1-28.4,103.4-21.5
		c41.5,7.9,78.8,33.5,95.6,73c1.4,3.4-1.1,7.1-4.7,7.1h-22.6c-2.7,0-5.3-1.5-6.7-3.8c-0.3-0.6-0.6-1.1-0.8-1.3
		c-5-8.1-11.1-15.4-18.2-21.6c-14.4-12.8-32.4-21.1-51.3-24.4c-19.5-3.4-40.6-1.8-59,6c-17.6,7.5-32.6,21-41.2,38.2
		C712.5,209.6,711.5,211.8,710.6,214z"/>
	<g>
		<path class="st0" d="M143,137.7h24.5c2.8,0,5.1,2.3,5.1,5.1v232.9c0,2.8-2.3,5.1-5.1,5.1H143c-2.8,0-5.1-2.3-5.1-5.1V142.8
			C137.8,140,140.1,137.7,143,137.7z"/>
		<path class="st0" d="M216.7,142.8v232.9c0,2.8-2.3,5.1-5.1,5.1h-25.1c-2.7,0-4.9-2.2-4.9-4.9V142.8c0-2.8,2.3-5.1,5.1-5.1h24.9
			C214.4,137.7,216.7,140,216.7,142.8z"/>
	</g>
	<path class="st0" d="M432.4,298.5c-4.1-20.1-20-34-38.1-41.9c-0.6-0.2-2.7-0.9-5.4-1.8c-2.7-0.8-4.6,2.6-2.4,4.4
		c9.9,8.2,16.5,17.4,19.6,30.2c6.4,26.3-9.6,50.6-39.9,60.2c-7.7,2.4-15.8,3.6-23.9,3.6c-16.3,0-33.5-4.3-46.6-13.5
		c-14-10-21.9-24.6-24.5-40.6c-0.4-2.5-2.5-4.4-5.1-4.4h-24.8c-2.5,0-4.4,2.1-4.1,4.6c1,9.3,2.9,18.1,6,26.9
		c3.5,10.1,9.2,19.7,16,27.9c9.2,11.1,21,19.6,34.2,25.2c12,5.1,25.1,7.4,38.1,8.1c29.8,1.8,62.1-6,83.2-28.3
		C429.4,343.4,436.8,319.9,432.4,298.5z M396.8,290.3c-5.9-24.5-30.1-36.1-49.7-48.2c-8.4-5.1-18.2-9.6-24.5-17.4
		c-8.4-10.4,1-22.3,13.3-22.3c12.4,0,17,7.4,19.7,13.4c0.8,1.8,2.7,3,4.7,3h25.6c2.4,0,4.2-2.2,3.8-4.5
		c-4.1-23.2-20.5-39.9-45.2-42.8c-20.3-2.4-45,4.3-55.6,23.5c-12.3,22.2-0.1,45.9,17.9,60.2c9.3,7.3,19.7,13.1,29.9,19.1
		c7.8,4.6,22.6,10.3,23.7,20.9c1.4,12.8-10.3,20.3-21.9,19.1c-8.3-0.9-16.7-5.2-20.9-12.7c-0.2-0.4-1.2-2.3-2.1-3.9
		c-0.9-1.7-2.6-2.7-4.5-2.7h-25.2c-3.3,0-5.7,3-5,6.2c2.8,12.3,9.1,23.6,20.2,31.5c17.3,12.2,41.8,15.2,62.6,8.7
		C383.7,334.7,403.1,316.1,396.8,290.3z M432,211.7c-1.1-13.7-4.9-27.3-12-39.1c-19.2-32.3-58.3-43.7-93.9-40.5
		c-26,2.3-52.8,12.9-68.1,35c-11.5,16.7-14.8,39.3-6.1,58c7.6,16.2,21.3,25,37.6,31.2c2.6,1,4.7-2.3,2.7-4.2
		c-23.9-22.7-24.3-57.1,2-77.4c19.6-15.1,50.2-17.4,72.4-6.9c18.2,8.6,28.1,24.4,31.7,43.8c0.2,0.9,0.3,1.8,0.5,2.8
		c0.4,2.5,2.6,4.3,5.1,4.3l23,0c3,0,5.3-2.5,5.1-5.5C432.1,212.7,432.1,212.2,432,211.7z"/>
	<g>
		<path class="st0" d="M503.8,280.7v95.1c0,2.8,2.3,5.1,5.1,5.1H532c2.8,0,5.1-2.3,5.1-5.1c0-12.2,0-43.4,0-61.7
			c0-2.8,2.3-5.1,5.1-5.1l7,0c1.9,0,3.7,1,4.5,2.7l35.5,66.6c0.9,1.7,2.6,2.7,4.5,2.7h23.7c3.9,0,6.3-4.1,4.6-7.5L572.8,279
			c-1.1-2.1-3.3-3.5-5.7-3.4l-58.2,0C506.1,275.6,503.8,277.9,503.8,280.7z"/>
		<path class="st0" d="M625,292.9c-0.5-0.9-0.4-2.1,0.4-2.9l0,0c4.4-4.6,8.3-9.4,11.6-14.1c3.6-5.3,6.5-10.6,8.6-15.8
			c2-4.8,3.4-10.3,4.3-16.7l0.1-0.5c0.3-2-2.3-2.9-3.4-1.3l0,0c-12.1,18.4-32.1,29.4-59.7,32.9l-2,0.2c-1.8,0.2-2.8,2.1-2,3.7
			l37.4,71.8l15.7,28.2c0.9,1.6,2.6,2.6,4.5,2.6h24.9c3.9,0,6.4-4.2,4.5-7.6L625,292.9z"/>
		<path class="st0" d="M611.9,197.3c1.2,14-4,22.9-8.6,27.9c-5.4,5.9-14.7,9.5-24.8,9.7c-6.6,0.1-24.8,0.1-36.4,0.1
			c-2.8,0-5.1-2.3-5.1-5.1v-15c0-2.9,2.3-5.2,5.2-5.1c11.1,0.1,31.4,0.4,32.2,0.4c8.6,0,13.3,3.8,13.5,11c0,0.2,0,0.3,0,0.4
			c0.1,1.2,1.4,2,2.6,1.5c1.7-0.7,3.2-1.6,4.5-2.6c0.6-0.5,1.1-1,1.6-1.5c2.7-3,7.1-9.6,6.2-20.9c-1.6-18.8-21.2-20.3-41.2-20.3
			h-52.1c-3.2,0-5.7,2.6-5.7,5.7v76c0,3.9,3.1,7,7,7h52.8c15.9,0,53,0,73.4-27.3c0,0,0.1-0.1,0.1-0.1c3.7-5.5,6.5-10.3,8.6-15.8
			c2.9-7.6,4.4-15.7,4.3-24.1c-0.1-9-2.1-18-5.9-26c-2-4.2-4.4-8.2-7.2-11.7c-2.9-3.6-6.2-6.8-9.8-9.6
			c-13.2-10.4-30.7-14.8-47.3-14.8c0,0-112.4,0-112.4,0c-2.8,0-5.1,2.3-5.1,5.1v233.7c0,2.8,2.3,5.1,5.1,5.1h22.1
			c2.8,0,5.1-2.3,5.1-5.1V173.8c0-2.8,2.3-5.1,5.1-5.1h61.8C577.1,168.6,609.5,168.5,611.9,197.3z"/>
	</g>
</g>
<g>
	<g>
		<path class="st0" d="M1037.2,186.4c-0.7,0-1.2-0.4-1.2-1.1v-32.8c0-0.7,0.5-1.3,1.2-1.3h3c0.6,0,1.2,0.6,1.2,1.3v3.4
			c1.7-2.9,4.6-5.4,9.9-5.4c8.7,0,13.2,6.3,13.2,15.7v19.1c0,0.7-0.6,1.1-1.3,1.1h-3c-0.7,0-1.1-0.4-1.1-1.1v-19.4
			c0-6.8-3.6-10.6-8.9-10.6c-5.2,0-8.8,3.7-8.8,10.6v19.4c0,0.7-0.6,1.1-1.2,1.1H1037.2z"/>
		<path class="st0" d="M1087.3,186.4c-9.6,0-11.3-4.2-11.3-12.4v-18h-5.4c-0.7,0-1.1-0.5-1.1-1.2v-2.4c0-0.7,0.4-1.3,1.1-1.3
			c3.7,0,5.6-0.8,5.6-5.3v-2.6c0-0.7,0.4-1.3,1.1-1.3h2.8c0.7,0,1.2,0.6,1.2,1.3v7.9h8c0.7,0,1.2,0.6,1.2,1.3v2.4
			c0,0.7-0.5,1.2-1.2,1.2h-8v17.5c0,6.3,0.7,8,6.5,8h1.4c0.7,0,1.2,0.6,1.2,1.3v2.5c0,0.7-0.5,1.1-1.2,1.1H1087.3z"/>
		<path class="st0" d="M1101.3,172.3c0,6.3,4,10.1,9.2,10.1c2.6,0,6.5-0.6,8.5-6c0.2-0.4,0.5-0.8,1.1-0.8h3.3c0.4,0,0.8,0.4,0.8,0.8
			c0,0.3-0.1,0.6-0.3,1.1c-2.3,7.3-8.7,9.6-13.4,9.6c-8.2,0-14.5-5.7-14.5-15.6v-5.4c0-9.9,6.3-15.7,14.4-15.7
			c8.2,0,14.4,6,14.4,15.6v3.4c0,0.7-0.5,1.2-1.2,1.2h-22.2V172.3z M1119.5,166.6v-1.1c0-6.5-3.8-10.2-9.2-10.2
			c-5.2,0-9.1,3.7-9.1,10.3v1H1119.5z"/>
		<path class="st0" d="M1135,186.4c-0.7,0-1.2-0.4-1.2-1.1v-32.8c0-0.7,0.5-1.3,1.2-1.3h2.7c0.7,0,1.2,0.6,1.2,1.3v4.7
			c1.6-3.2,4.6-6,9.9-6h1c0.7,0,1.3,0.6,1.3,1.3v2.8c0,0.7-0.6,1.2-1.3,1.2h-1.1c-7,0-9.6,5.8-9.6,11.6v17.2c0,0.7-0.5,1.1-1.2,1.1
			H1135z"/>
		<path class="st0" d="M1160.3,186.4c-0.7,0-1.2-0.4-1.2-1.1v-32.8c0-0.7,0.5-1.3,1.2-1.3h3c0.6,0,1.2,0.6,1.2,1.3v3.4
			c1.7-2.9,4.6-5.4,9.9-5.4c8.7,0,13.2,6.3,13.2,15.7v19.1c0,0.7-0.6,1.1-1.3,1.1h-3c-0.7,0-1.1-0.4-1.1-1.1v-19.4
			c0-6.8-3.6-10.6-8.9-10.6c-5.2,0-8.8,3.7-8.8,10.6v19.4c0,0.7-0.6,1.1-1.2,1.1H1160.3z"/>
		<path class="st0" d="M1201.5,172.3c0,6.3,4,10.1,9.2,10.1c2.6,0,6.5-0.6,8.5-6c0.2-0.4,0.5-0.8,1.1-0.8h3.3c0.4,0,0.8,0.4,0.8,0.8
			c0,0.3-0.1,0.6-0.3,1.1c-2.3,7.3-8.7,9.6-13.4,9.6c-8.2,0-14.5-5.7-14.5-15.6v-5.4c0-9.9,6.3-15.7,14.4-15.7
			c8.2,0,14.4,6,14.4,15.6v3.4c0,0.7-0.5,1.2-1.2,1.2h-22.2V172.3z M1219.8,166.6v-1.1c0-6.5-3.8-10.2-9.2-10.2
			c-5.2,0-9.1,3.7-9.1,10.3v1H1219.8z"/>
		<path class="st0" d="M1246.2,186.4c-9.6,0-11.3-4.2-11.3-12.4v-18h-5.4c-0.7,0-1.1-0.5-1.1-1.2v-2.4c0-0.7,0.4-1.3,1.1-1.3
			c3.7,0,5.6-0.8,5.6-5.3v-2.6c0-0.7,0.4-1.3,1.1-1.3h2.8c0.7,0,1.2,0.6,1.2,1.3v7.9h8c0.7,0,1.2,0.6,1.2,1.3v2.4
			c0,0.7-0.5,1.2-1.2,1.2h-8v17.5c0,6.3,0.7,8,6.5,8h1.4c0.7,0,1.2,0.6,1.2,1.3v2.5c0,0.7-0.5,1.1-1.2,1.1H1246.2z"/>
		<path class="st0" d="M1031.2,215.1c-0.7,0-1.1-0.4-1.2-1.1c-0.3-4.3-2.3-8.1-10.5-8.1c-6.4,0-10.9,1.7-10.9,8.2
			c0,14.2,27.9,5.4,27.9,24c0,10.1-8.7,13.7-17,13.7c-13.3,0-17.9-9.2-17.9-15.1c0-0.7,0.5-1.2,1.2-1.2h3c0.7,0,1.1,0.6,1.2,1.1
			c0.1,3.1,2.2,10.3,12.5,10.3c6.6,0,11.6-2.4,11.6-8.9c0-13.1-28-4.6-28-24c0-9.1,6.8-13,16.3-13c12.6,0,15.8,7.7,15.8,12.9
			c0,0.6-0.6,1.1-1.2,1.1H1031.2z"/>
		<path class="st0" d="M1049.1,236.9c0,6.3,4,10.1,9.2,10.1c2.6,0,6.5-0.6,8.5-6c0.2-0.4,0.5-0.8,1.1-0.8h3.3c0.4,0,0.8,0.4,0.8,0.8
			c0,0.3-0.1,0.6-0.3,1.1c-2.3,7.3-8.7,9.6-13.4,9.6c-8.2,0-14.5-5.7-14.5-15.6v-5.4c0-9.9,6.3-15.7,14.4-15.7
			c8.2,0,14.4,6,14.4,15.6v3.4c0,0.7-0.5,1.2-1.2,1.2h-22.2V236.9z M1067.4,231.2v-1.1c0-6.5-3.8-10.2-9.2-10.2
			c-5.2,0-9.1,3.7-9.1,10.3v1H1067.4z"/>
		<path class="st0" d="M1085.2,236.5c0,6.9,3.9,10.6,9.2,10.6c4.2,0,7.2-2,8.5-7.2c0.1-0.6,0.4-0.8,1-0.8h3.4c0.4,0,0.8,0.4,0.8,0.8
			c0,0.2-0.1,0.5-0.1,0.9c-0.8,4.4-4.8,11-13.5,11c-8.1,0-14.4-5.7-14.4-15.6v-5.4c0-9.9,6.2-15.7,14.3-15.7
			c8.4,0,12.6,6.1,13.7,11.6c0.1,0.1,0.1,0.4,0.1,0.4c0,0.4-0.3,0.8-0.8,0.8h-3.4c-0.6,0-0.8-0.4-1-0.8c-1.1-4.5-3.7-7.2-8.6-7.2
			c-5.2,0-9.1,3.7-9.1,10.6V236.5z"/>
		<path class="st0" d="M1143,215.9c0.6,0,1.2,0.6,1.2,1.3v32.8c0,0.7-0.6,1.1-1.2,1.1h-3c-0.7,0-1.2-0.4-1.2-1.1v-3.1
			c-1.5,2.5-4.3,4.9-9.7,4.9c-8.1,0-12.4-5.7-12.4-15.6v-19.1c0-0.7,0.5-1.3,1.2-1.3h3c0.6,0,1.2,0.6,1.2,1.3v19.4
			c0,6.9,2.8,10.6,8.1,10.6c5.2,0,8.7-3.7,8.7-10.6v-19.4c0-0.7,0.5-1.3,1.2-1.3H1143z"/>
		<path class="st0" d="M1156.1,251.1c-0.7,0-1.2-0.4-1.2-1.1v-32.8c0-0.7,0.5-1.3,1.2-1.3h2.7c0.7,0,1.2,0.6,1.2,1.3v4.7
			c1.6-3.2,4.6-6,9.9-6h1c0.7,0,1.3,0.6,1.3,1.3v2.8c0,0.7-0.6,1.2-1.3,1.2h-1.1c-7,0-9.6,5.8-9.6,11.6v17.2c0,0.7-0.5,1.1-1.2,1.1
			H1156.1z"/>
		<path class="st0" d="M1179.6,205.2c0-2.1,1.5-3.6,3.6-3.6c2.1,0,3.6,1.5,3.6,3.6c0,2.1-1.5,3.6-3.6,3.6
			C1181.1,208.8,1179.6,207.4,1179.6,205.2z M1181.8,251.1c-0.7,0-1.2-0.4-1.2-1.1v-32.8c0-0.7,0.5-1.3,1.2-1.3h3
			c0.6,0,1.2,0.6,1.2,1.3v32.8c0,0.7-0.6,1.1-1.2,1.1H1181.8z"/>
		<path class="st0" d="M1209.5,251.1c-9.6,0-11.3-4.2-11.3-12.4v-18h-5.4c-0.7,0-1.1-0.5-1.1-1.2v-2.4c0-0.7,0.4-1.3,1.1-1.3
			c3.7,0,5.6-0.8,5.6-5.3V208c0-0.7,0.4-1.3,1.1-1.3h2.8c0.7,0,1.2,0.6,1.2,1.3v7.9h8c0.7,0,1.2,0.6,1.2,1.3v2.4
			c0,0.7-0.5,1.2-1.2,1.2h-8v17.5c0,6.3,0.7,8,6.5,8h1.4c0.7,0,1.2,0.6,1.2,1.3v2.5c0,0.7-0.5,1.1-1.2,1.1H1209.5z"/>
		<path class="st0" d="M1218.9,265.2c-0.7,0-1.2-0.5-1.2-1.2v-2.7c0-0.7,0.5-1.2,1.2-1.2h2.7c4.5,0,6-2.3,7.1-5.4l1.5-4.1l-13-32.5
			c-0.3-0.6-0.5-1.1-0.5-1.4c0-0.5,0.4-0.8,0.8-0.8h3.5c0.4,0,1,0.3,1.3,1.1l10.6,27.3l10.1-27.5c0.3-0.7,0.7-1,1.2-1h3.6
			c0.4,0,0.8,0.4,0.8,0.8c0,0.2-0.2,0.8-0.4,1.3l-14.8,37.7c-2.5,6.3-4.6,9.5-11.8,9.5H1218.9z"/>
		<path class="st0" d="M1009.6,314.6c0,0.7-0.6,1.1-1.3,1.1h-3c-0.6,0-1.1-0.4-1.1-1.1v-46.9c0-0.7,0.5-1.3,1.1-1.3h16.8
			c9.1,0,15.2,4.8,15.2,14.1v1.1c0,6.3-3.3,11.4-10.6,13.3l10.1,19c0.2,0.4,0.4,0.7,0.4,1c0,0.5-0.4,0.8-0.8,0.8h-3.9
			c-0.7,0-1.1-0.4-1.3-0.9l-9.9-19h-11.8V314.6z M1009.6,290.8h12.4c5.3,0,10.1-2.9,10.1-9v-1.1c0-7-4.8-9.2-10.1-9.2h-12.4V290.8z"
			/>
		<path class="st0" d="M1048.9,301.6c0,6.3,4,10.1,9.2,10.1c2.6,0,6.5-0.6,8.5-6c0.2-0.4,0.5-0.8,1.1-0.8h3.3c0.4,0,0.8,0.4,0.8,0.8
			c0,0.3-0.1,0.6-0.3,1.1c-2.3,7.3-8.7,9.6-13.4,9.6c-8.2,0-14.5-5.7-14.5-15.6v-5.4c0-9.9,6.3-15.7,14.4-15.7
			c8.2,0,14.4,6,14.4,15.6v3.4c0,0.7-0.5,1.2-1.2,1.2h-22.2V301.6z M1067.1,295.9v-1.1c0-6.5-3.8-10.2-9.2-10.2
			c-5.2,0-9.1,3.7-9.1,10.3v1H1067.1z"/>
		<path class="st0" d="M1106,306.2c0,7.5-6.1,10.3-13.2,10.3c-8,0-12.6-4.6-13.3-9.5c0-0.2,0-0.6,0.1-0.8c0.1-0.4,0.4-0.7,0.9-0.7h3
			c0.7,0,0.9,0.3,1.1,0.8c0.7,2.6,3,5.6,8.4,5.6c4.5,0,8-1.4,8-5.6c0-9.1-20.8-1.8-20.8-16.6c0-7.1,6.4-9.8,12.4-9.8
			c10.8,0,12.2,7.5,12.7,9.4v0.5c0,0.6-0.5,0.9-1,0.9h-3c-0.6,0-0.8-0.3-1-0.9c-0.5-2.2-1.7-5.2-7.9-5.2c-3.2,0-7,1.1-7,5
			C1085.2,299,1106,291.8,1106,306.2z"/>
		<path class="st0" d="M1118.5,301.6c0,6.3,4,10.1,9.2,10.1c2.6,0,6.5-0.6,8.5-6c0.2-0.4,0.5-0.8,1.1-0.8h3.3c0.4,0,0.8,0.4,0.8,0.8
			c0,0.3-0.1,0.6-0.3,1.1c-2.3,7.3-8.7,9.6-13.4,9.6c-8.2,0-14.5-5.7-14.5-15.6v-5.4c0-9.9,6.3-15.7,14.4-15.7
			c8.2,0,14.4,6,14.4,15.6v3.4c0,0.7-0.5,1.2-1.2,1.2h-22.2V301.6z M1136.7,295.9v-1.1c0-6.5-3.8-10.2-9.2-10.2
			c-5.2,0-9.1,3.7-9.1,10.3v1H1136.7z"/>
		<path class="st0" d="M1176,314.6c0,0.7-0.6,1.1-1.3,1.1h-2.7c-0.7,0-1.2-0.4-1.2-1.1v-3.4c-1.5,3.4-5.6,5.2-9.7,5.2h-1.3
			c-6.5,0-11.4-3.4-11.4-10.3c0-8.3,6.5-10.3,13-10.3h9.4v-2.4c0-4.4-0.8-8.7-8.1-8.7c-5.6,0-7,2.2-7.5,5.1
			c-0.1,0.4-0.4,0.9-1.1,0.9h-3c-0.6,0-1-0.4-1-1c0-0.1,0-0.3,0.1-0.5c0.6-4.2,3.1-9.3,12.5-9.3c12,0,13.2,7.6,13.2,13.7V314.6z
			 M1161.6,300.1c-5.8,0-8,1.8-8,6c0,4,3.2,5.8,6.9,5.8h1.4c7.4,0,9-5.4,9-9.6v-2.3H1161.6z"/>
		<path class="st0" d="M1187.6,315.7c-0.7,0-1.2-0.4-1.2-1.1v-32.8c0-0.7,0.5-1.3,1.2-1.3h2.7c0.7,0,1.2,0.6,1.2,1.3v4.7
			c1.6-3.2,4.6-6,9.9-6h1c0.7,0,1.3,0.6,1.3,1.3v2.8c0,0.7-0.6,1.2-1.3,1.2h-1.1c-7,0-9.6,5.8-9.6,11.6v17.2c0,0.7-0.5,1.1-1.2,1.1
			H1187.6z"/>
		<path class="st0" d="M1214.6,301.2c0,6.9,3.9,10.6,9.2,10.6c4.2,0,7.2-2,8.5-7.2c0.1-0.6,0.4-0.8,1-0.8h3.4c0.4,0,0.8,0.4,0.8,0.8
			c0,0.2-0.1,0.5-0.1,0.9c-0.8,4.4-4.8,11-13.5,11c-8.1,0-14.4-5.7-14.4-15.6v-5.4c0-9.9,6.2-15.7,14.3-15.7
			c8.4,0,12.6,6.1,13.7,11.6c0.1,0.1,0.1,0.4,0.1,0.4c0,0.4-0.3,0.8-0.8,0.8h-3.4c-0.6,0-0.8-0.4-1-0.8c-1.1-4.5-3.7-7.2-8.6-7.2
			c-5.2,0-9.1,3.7-9.1,10.6V301.2z"/>
		<path class="st0" d="M1247.6,315.7c-0.7,0-1.1-0.4-1.1-1.1v-46.9c0-0.7,0.4-1.3,1.1-1.3h3c0.7,0,1.2,0.6,1.2,1.3v17.4
			c1.7-2.8,4.6-5.3,9.9-5.3c8.7,0,13.2,6.3,13.2,15.7v19.1c0,0.7-0.6,1.1-1.2,1.1h-3c-0.7,0-1.2-0.4-1.2-1.1v-19.4
			c0-6.8-3.6-10.6-8.9-10.6c-5.2,0-8.9,3.7-8.9,10.6v19.4c0,0.7-0.5,1.1-1.2,1.1H1247.6z"/>
		<path class="st0" d="M1021.2,360.3c-0.7,0-1.2-0.4-1.2-1.1v-2.5c0-0.7,0.5-1.2,1.2-1.2h16.1c0.7,0,1.2,0.5,1.2,1.2v22.7
			c0,0.7-0.5,1.1-1.2,1.1h-2.5c-0.7,0-1.1-0.4-1.1-1.1v-4.9c-2.4,4.2-7.4,6.8-13,6.8c-11.4,0-18-8.7-18-19.1v-12.2
			c0-11.8,7.9-19.3,18.2-19.3c10.2,0,16.1,6.9,17.6,14.9c0.1,0.6,0.1,0.8,0.1,1.1c0,0.5-0.3,0.8-0.7,0.8h-3.8
			c-0.5,0-0.8-0.4-0.9-1.1c-0.6-5.1-4.8-10.6-12.2-10.6c-7,0-12.7,5.3-12.7,14.3V362c0,8.9,5.7,14.1,12.8,14.1
			c8.7,0,12.4-7.3,12.4-12.2v-3.7H1021.2z"/>
		<path class="st0" d="M1050.5,380.4c-0.7,0-1.2-0.4-1.2-1.1v-32.8c0-0.7,0.5-1.3,1.2-1.3h2.7c0.7,0,1.2,0.6,1.2,1.3v4.7
			c1.6-3.2,4.6-6,9.9-6h1c0.7,0,1.3,0.6,1.3,1.3v2.8c0,0.7-0.6,1.2-1.3,1.2h-1.1c-7,0-9.6,5.8-9.6,11.6v17.2c0,0.7-0.5,1.1-1.2,1.1
			H1050.5z"/>
		<path class="st0" d="M1072.2,360.2c0-9.9,6.2-15.7,14.4-15.7c8.1,0,14.4,5.8,14.4,15.7v5.4c0,9.9-6.3,15.6-14.4,15.6
			c-8.2,0-14.4-5.7-14.4-15.6V360.2z M1077.5,365.8c0,6.9,3.8,10.6,9.1,10.6c5.3,0,9-3.7,9-10.6v-6c0-6.8-3.7-10.6-9-10.6
			c-5.3,0-9.1,3.7-9.1,10.6V365.8z"/>
		<path class="st0" d="M1135.9,345.2c0.6,0,1.2,0.6,1.2,1.3v32.8c0,0.7-0.6,1.1-1.2,1.1h-3c-0.7,0-1.2-0.4-1.2-1.1v-3.1
			c-1.5,2.5-4.3,4.9-9.7,4.9c-8.1,0-12.4-5.7-12.4-15.6v-19.1c0-0.7,0.5-1.3,1.2-1.3h3c0.6,0,1.2,0.6,1.2,1.3v19.4
			c0,6.9,2.8,10.6,8.1,10.6c5.2,0,8.7-3.7,8.7-10.6v-19.4c0-0.7,0.5-1.3,1.2-1.3H1135.9z"/>
		<path class="st0" d="M1153.2,393.3c0,0.7-0.6,1.2-1.2,1.2h-3c-0.7,0-1.2-0.5-1.2-1.2v-46.8c0-0.7,0.5-1.3,1.2-1.3h3
			c0.6,0,1.2,0.6,1.2,1.3v3.2c1.8-3,5.1-5.2,10.1-5.2c7.8,0,13.3,5.6,13.3,15.7v5.2c0,10.2-5.6,15.7-13.3,15.7
			c-4.9,0-8.2-2-10.1-5.1V393.3z M1153.2,365.8c0,6.5,3.6,10.6,9.1,10.6c5.6,0,9-4,9-10.6v-6c0-6.5-3.4-10.6-9-10.6
			c-5.4,0-9.1,3.9-9.1,10.1V365.8z"/>
	</g>
	<path class="st0" d="M1027.3,142.5c0.7,0,1.3-0.6,1.3-1.3v-3c0-0.6-0.6-1.1-1.3-1.1h-9.5h-3h-9.5c-0.7,0-1.1,0.5-1.1,1.1v3
		c0,0.7,0.4,1.3,1.1,1.3h8.4v38.6h-8.4c-0.7,0-1.1,0.5-1.1,1.1v3c0,0.7,0.4,1.3,1.1,1.3h9.5h3h9.5c0.7,0,1.3-0.6,1.3-1.3v-3
		c0-0.6-0.6-1.1-1.3-1.1h-8.2v-38.6H1027.3z"/>
</g>
</svg>
