<svg xmlns="http://www.w3.org/2000/svg" viewBox="0 0 100 116"><defs><style>.cls-1{fill-rule:evenodd;}</style></defs><title>bag</title><g id="Layer_2" data-name="Layer 2"><g id="Layer"><path class="cls-1" d="M54,84H46v4h8Zm2,6H44V82H56Zm40,8H4v10a4,4,0,0,0,4,4H92a4,4,0,0,0,4-4Zm0-46a4,4,0,0,0-4-4H8a4,4,0,0,0-4,4V96H96ZM68,20.44A16.44,16.44,0,0,0,51.56,4h-2A17.56,17.56,0,0,0,32,21.56V44H68ZM92,116H8a8,8,0,0,1-8-8V52a8,8,0,0,1,8-8H28V21.69A21.69,21.69,0,0,1,49.69,0h2A20.31,20.31,0,0,1,72,20.31V44H92a8,8,0,0,1,8,8v56A8,8,0,0,1,92,116Z"/></g></g></svg>