<svg xmlns="http://www.w3.org/2000/svg" viewBox="0 0 116.61 98"><defs><style>.cls-1{fill-rule:evenodd;}</style></defs><title>bra</title><g id="Layer_2" data-name="Layer 2"><g id="Layer"><path class="cls-1" d="M109.65,48.08S109.54,46,106.83,46a6.27,6.27,0,0,0-1.22.12C101.72,46.8,90.4,49.73,81.36,58S62.42,76.26,63.18,80s9.73,13,20.2,13.94c.71.07,1.43.1,2.15.1,10,0,21.19-6.05,24.12-14C112.79,71.39,114.27,57.57,109.65,48.08ZM60.3,78h-4v2h4ZM35.24,58C26.2,49.73,14.88,46.8,11,46.09A6.27,6.27,0,0,0,9.77,46C7.06,46,7,48.08,7,48.08,2.33,57.57,3.81,71.39,7,80c2.93,8,14.13,14,24.12,14,.72,0,1.44,0,2.15-.1C43.69,93,52.67,83.67,53.42,80S44.27,66.36,35.24,58Zm78.21,23.28C110,90.67,97.76,98,85.53,98c-.85,0-1.7,0-2.52-.12C72,96.87,61.88,88,59.59,82H57c-2.29,6-12.39,14.87-23.42,15.88-.82.08-1.67.12-2.52.12C18.84,98,6.57,90.67,3.15,81.32s-4.88-24-.09-34.44A6.28,6.28,0,0,1,6.3,42.8V1a1,1,0,0,1,1-1h2a1,1,0,0,1,1,1V42a10.43,10.43,0,0,1,1.43.16c2.54.47,15.76,3.29,26.27,13C49.74,65.94,54.85,72,56.66,76h3.28c1.81-4,6.92-10.06,18.66-20.87,10.51-9.67,23.73-12.49,26.27-13A10.43,10.43,0,0,1,106.3,42V1a1,1,0,0,1,1-1h2a1,1,0,0,1,1,1V42.8a6.28,6.28,0,0,1,3.24,4.08C118.33,57.29,116.88,72,113.45,81.32Z"/></g></g></svg>