<svg xmlns="http://www.w3.org/2000/svg" viewBox="0 0 64.79 120"><defs><style>.cls-1{fill-rule:evenodd;}</style></defs><title>dress</title><g id="Layer_2" data-name="Layer 2"><g id="Layer"><path class="cls-1" d="M54.66,4c-.85,2-7.54,6-12.14,6-1.54,0-3.17,0-4.67,0-3,0-5.45,0-5.45,0s-2.45,0-5.45,0c-1.5,0-3.13,0-4.66,0C17.69,10,11,6,10.15,4c.07.22-6.12,4-6.07,4,2.32.15,6.18,8.56,6.07,12s.24,10.93,2,14c1.53,2.63,1.92,6.07,2,10H50.63c.08-3.93.48-7.37,2-10,1.79-3.07,2.14-10.55,2-14S58.4,8.15,60.73,8C60.77,8,54.58,4.22,54.66,4ZM4.08,84c0,12.64,6.07,32,6.07,32H54.66s6.07-19.36,6.07-32-3.45-18.88-6.07-24-4-9.24-4-14H14.19c0,4.76-1.43,8.88-4,14S4.08,71.36,4.08,84ZM64.65,9a4,4,0,0,1-2.58,2.78c-1.32,1.44-3.42,6.41-3.37,8.1,0,.45.34,11.14-2.56,16.12-1.37,2.36-1.48,6.41-1.48,10s1,7.11,3.61,12.2l.29.57c2.62,5.11,6.21,12.11,6.21,25.23s-6,32.37-6.25,33.18A4,4,0,0,1,54.66,120H10.15a4,4,0,0,1-3.87-2.82C6,116.37,0,97.1,0,84S3.62,63.88,6.24,58.77l.29-.57c2.6-5.09,3.62-8.51,3.62-12.2S10,38.35,8.66,36C5.77,31,6.09,20.32,6.1,19.87c.06-1.69-2-6.66-3.37-8.1A4,4,0,0,1,.15,9C-.58,6.17,1.6,4.81,2.9,4c.9-.56,3.5-2.18,4.35-2.79A4,4,0,0,1,8.7.27a4,4,0,0,1,5,1.9c1,1.1,5.59,3.8,8.58,3.83,1.52,0,3.15,0,4.63,0,3,0,5.41,0,5.48,0s2.44,0,5.42,0C39.34,6,41,6,42.48,6c3,0,7.6-2.73,8.58-3.83A4.06,4.06,0,0,1,54.66,0a4.13,4.13,0,0,1,1.45.27,3.94,3.94,0,0,1,1.44.93C58.4,1.81,61,3.43,61.9,4,63.2,4.81,65.38,6.17,64.65,9Z"/></g></g></svg>