<svg xmlns="http://www.w3.org/2000/svg" viewBox="0 0 113.7 110"><defs><style>.cls-1{fill-rule:evenodd;}</style></defs><title>polo-shirt</title><g id="Layer_2" data-name="Layer 2"><g id="Layer"><path class="cls-1" d="M79.79,6H75.7a2.12,2.12,0,0,1,.07.71c-.77,7.1-5.85,14.46-6.07,14.68a2,2,0,0,1-1.45.62h0c-5-.11-10.09-6.35-11.37-7.83C55.56,15.66,50.43,21.9,45.47,22h0A2,2,0,0,1,44,21.39c-.22-.22-5.3-7.58-6.07-14.68A2.12,2.12,0,0,1,38,6H33.91L4,21.46,18,43l5.89-3v62c0,2.21,14.74,4,32.92,4s32.91-1.79,32.91-4V40L98,43l11.71-21.54ZM45.64,4a3.17,3.17,0,0,1-2.83,1.91,5.11,5.11,0,0,1-2.9.59C40.61,13,45.43,20,45.43,20c3.49-.07,7.37-4.09,9.2-6.22C49.27,12.34,45.64,4,45.64,4ZM70.9,5.92A3.15,3.15,0,0,1,68.06,4s-3.64,8.36-9,9.79c1.82,2.14,5.71,6.15,9.19,6.22,0,0,4.82-7,5.52-13.51A5.05,5.05,0,0,1,70.9,5.92Zm42.31,17.46-11.7,21.53A4,4,0,0,1,98,47a4.06,4.06,0,0,1-1.36-.24l-2.89-1V102c0,4.81-6,5.92-13.15,6.8A208.46,208.46,0,0,1,56.85,110a208.77,208.77,0,0,1-23.76-1.2c-7.19-.87-13.15-2-13.15-6.8V46.51l-.1.06a4,4,0,0,1-5.14-1.38L.65,23.65a4,4,0,0,1,1.51-5.74L32.08,2.44A4,4,0,0,1,33.91,2h8.26a4,4,0,0,1,3.3-2h.17A4,4,0,0,1,49.3,2.4c1.3,3,4.41,7.36,6.7,7.6h1.7c2.29-.23,5.35-4.54,6.7-7.61A4,4,0,0,1,68.06,0h.18a4,4,0,0,1,3.28,2h.85l1.26,0h6.16a4,4,0,0,1,1.83.44l29.92,15.47a4,4,0,0,1,1.67,5.47Z"/></g></g></svg>