<svg xmlns="http://www.w3.org/2000/svg" viewBox="0 0 117.6 55.99"><defs><style>.cls-1{fill-rule:evenodd;}</style></defs><title>shoe</title><g id="Layer_2" data-name="Layer 2"><g id="Layer"><path class="cls-1" d="M113.52,40.16h0c-4.33,2.19-11.66,7.07-25.21,7.46-1,0-2,0-3.07,0-21.34,0-46.86-5.89-46.86-5.89L4,41.86v4a4,4,0,0,0,4,4H32.19a4,4,0,0,0,4-4S62.54,52,84.51,52c1.36,0,2.7,0,4-.07,11.69-.44,24.14-6,24.14-6S113.83,40.16,113.52,40.16ZM97.85,29.49C91,28,78.22,27.5,66,18.42l-5.12,5.12-1.42-1.42,4.95-4.94a51.79,51.79,0,0,1-5.72-5.46L51.49,19l-1.41-1.41,7.33-7.33c-1-1.26-2.08-2.59-3.09-4C52.78,4.65,51.47,4,50.24,4,48.8,4,47.47,4.88,46,6.18A28.62,28.62,0,0,1,26,13.7c-11,0-11.21-7.51-16.17-7.51H9.55C4.34,6.47,4,11.93,4,18.45v21.4h34.7c14.21,2.63,31.09,6,45.88,6h.21a56.77,56.77,0,0,0,27.85-7.59S111,32.34,97.85,29.49ZM116.6,46.68l-.41,2-1.88.85c-.54.24-13.31,5.91-25.64,6.37-1.33.05-2.73.08-4.16.08-17.72,0-37.84-3.8-45.77-5.46a8,8,0,0,1-6.55,3.38H8.05a8.05,8.05,0,0,1-8-8V18.45C0,12.55,0,2.67,9.34,2.19l.47,0c3.65,0,5.8,2.12,7.53,3.83,2,2,3.74,3.68,8.64,3.68A24.51,24.51,0,0,0,43.33,3.16C45,1.69,47.31,0,50.24,0c2.4,0,4.66,1.09,6.92,3.33l.25.26.21.29C69.36,20.68,84.31,23.14,94.2,24.76c1.62.27,3.15.52,4.5.81,14.79,3.19,17.46,10.26,17.84,11.64l.12.43C118,39.25,117.85,40.59,116.6,46.68Z"/></g></g></svg>