<svg xmlns="http://www.w3.org/2000/svg" viewBox="0 0 119.76 94"><defs><style>.cls-1{fill-rule:evenodd;}</style></defs><title>skirt</title><g id="Layer_2" data-name="Layer 2"><g id="Layer"><path class="cls-1" d="M103.8,53.72c-2.1-10-11.18-43.95-16-48.07a4.71,4.71,0,0,0-3.1-1.34A7.26,7.26,0,0,0,81.47,5.4c-1.81.93-11.17,4.26-21.59,4.26s-21.39-4.2-23.2-5.14A3.92,3.92,0,0,0,34.89,4c-1,0-1.84.53-3,1.64-4.46,4.47-13.87,38.07-16,48.07s-12,14-12,14C7.17,74.56,17.49,78,21.91,79.25L35,36.77l1.91.59-13,42.37.09,0v2s.21,4,8,4H32a28.29,28.29,0,0,1,10.38,2.07L45.79,70l2,.38-3.48,18.1a33.74,33.74,0,0,0,5.62,1.3,22.82,22.82,0,0,0,3,.22c5.2,0,7-2.22,7-2.22s1.77,2.22,7,2.22a22.82,22.82,0,0,0,3-.22,33.06,33.06,0,0,0,5.63-1.31L72,70.37,74,70l3.42,17.84a28.28,28.28,0,0,1,10.37-2.07h.09c7.74,0,8-4,8-4v-2l.1,0-13-42.37,1.91-.59L97.87,79.25c4.42-1.21,14.73-4.7,17.91-11.51C115.78,67.74,105.9,63.72,103.8,53.72Zm15.59,15.71c-3.73,8-14.37,12-19.75,13.5-.52,2.09-2.71,6.84-11.86,6.84A23.59,23.59,0,0,0,79,91.52a43.17,43.17,0,0,1-8.58,2.22,26.45,26.45,0,0,1-3.57.26,15.9,15.9,0,0,1-7-1.42,15.82,15.82,0,0,1-7,1.42,26.45,26.45,0,0,1-3.57-.26,43.17,43.17,0,0,1-8.58-2.22,23.75,23.75,0,0,0-8.87-1.75c-9.08,0-11.26-4.75-11.77-6.85C14.75,81.4,4.11,77.45.37,69.43A4,4,0,0,1,2.47,64c.08,0,8-3.42,9.59-11.14,1.3-6.19,11.05-44,17.06-50.07A8.22,8.22,0,0,1,34.89,0,7.84,7.84,0,0,1,38.5,1C39.64,1.54,50,5.65,59.88,5.65A55.13,55.13,0,0,0,79.65,1.84l.1-.06a10.6,10.6,0,0,1,5-1.47,8.65,8.65,0,0,1,5.7,2.3c1.21,1,4,3.47,10.21,23.69,3.09,10.11,5.94,21.24,7.07,26.59,1.62,7.72,9.51,11.11,9.57,11.14a4,4,0,0,1,2.11,5.4Z"/></g></g></svg>