<svg xmlns="http://www.w3.org/2000/svg" viewBox="0 0 116 56"><defs><style>.cls-1{fill-rule:evenodd;}</style></defs><title>sneaker</title><g id="Layer_2" data-name="Layer 2"><g id="Layer"><path class="cls-1" d="M112,44H4v4a4,4,0,0,0,4,4H108a4,4,0,0,0,4-4ZM97.17,27.42a26.87,26.87,0,0,1-4.58-1.59L76.47,41.94h35.41S110.25,30.3,97.17,27.42ZM71.22,14.19,43.47,41.94H73.64l17-17C84.91,22.29,77.56,18,71.22,14.19ZM57.94,5.9a10.67,10.67,0,0,0-5.59-1.84A6.93,6.93,0,0,0,47.66,5.9c-2.73,2.44-6.83,9.63-17.86,9.63s-15-9.62-20.1-9.62H9.48C4.31,6.19,4,13.74,4,20.33V41.94H40.65L69.47,13.12C63.92,9.72,59.41,6.82,57.94,5.9ZM116,48a8,8,0,0,1-8,8H8a8,8,0,0,1-8-8V46a3.91,3.91,0,0,1,.56-2A4.06,4.06,0,0,1,0,41.94V20.33c0-5.83,0-18,9.28-18.46H9.7c3.48,0,6.16,2.22,8.74,4.38,3.1,2.57,6.29,5.23,11.36,5.23,7.3,0,10.62-3.67,13.29-6.61a25,25,0,0,1,1.94-2A10.89,10.89,0,0,1,52.35,0,14.6,14.6,0,0,1,60,2.44L62,3.67C81,15.72,93.09,22.38,98,23.46a22.37,22.37,0,0,1,17.83,17.91,4,4,0,0,1-.51,2.43A3.94,3.94,0,0,1,116,46Z"/></g></g></svg>