<svg xmlns="http://www.w3.org/2000/svg" viewBox="0 0 77.65 116"><defs><style>.cls-1{fill-rule:evenodd;}</style></defs><title>sock</title><g id="Layer_2" data-name="Layer 2"><g id="Layer"><path class="cls-1" d="M73.62,74V63.19L56.45,74.38l9.62,14.76A17,17,0,0,0,73.62,74Zm0-70h-36V14h0v8h36V16h0ZM12.5,78.53a19.11,19.11,0,0,0-1.95,1.33l23,28.11,30.82-17.8L53.68,73.8l1.67-1.1L73.62,60.8V24h-36V64ZM9.05,81.18a17,17,0,0,0-2.78,20.58l1,1.73a17,17,0,0,0,23.23,6.23l1.28-.74Zm68.57-7.34A20.9,20.9,0,0,1,67.16,93.18l-34.66,20a21,21,0,0,1-28.69-7.69l-1-1.73A21,21,0,0,1,10.5,75.07L33.6,61.73V4h0a4,4,0,0,1,4-4h36a4,4,0,0,1,4,4v6c0,.08,0,.15,0,.22Z"/></g></g></svg>