<svg xmlns="http://www.w3.org/2000/svg" viewBox="0 0 96.89 110"><title>t-shirt-2</title><g id="Layer_2" data-name="Layer 2"><g id="Layer"><path d="M70.65,0H64.59a4,4,0,0,0-4,4A12.11,12.11,0,0,1,36.33,4a4,4,0,0,0-4-4h-6a4.19,4.19,0,0,0-1.87.45L2.17,11.92A4,4,0,0,0,.38,17.16L10.56,38.7A4,4,0,0,0,14.15,41a31.46,31.46,0,0,0,1.6,7.91,49.56,49.56,0,0,1,2.41,16c0,13.69-3.93,36.18-4,36.41a3.85,3.85,0,0,0-.06.69c0,4.74,5.89,5.93,11.94,6.75A183.33,183.33,0,0,0,48.43,110a183.75,183.75,0,0,0,22.39-1.24c6-.82,11.94-2,11.94-6.75a3.85,3.85,0,0,0-.06-.69c0-.23-4-22.72-4-36.41a49.56,49.56,0,0,1,2.41-16A31.91,31.91,0,0,0,82.74,41a4,4,0,0,0,3.58-2.3L96.51,17.16a4,4,0,0,0-1.8-5.24L72.51.45A4.18,4.18,0,0,0,70.65,0Zm0,4,22.2,11.47L82.67,37l-3.95-1v4.11c0,6.7-4,10.58-4,24.8s4,37.1,4,37.1c0,2.16-12.43,3.92-30.28,4s-30.28-1.83-30.28-4c0,0,4-22.89,4-37.1s-4-18.1-4-24.8V36l-3.95,1L4,15.47,26.24,4h6a16.15,16.15,0,0,0,32.3,0Z"/></g></g></svg>