<svg xmlns="http://www.w3.org/2000/svg" viewBox="0 0 80 120"><defs><style>.cls-1{fill-rule:evenodd;}</style></defs><title>tank-top</title><g id="Layer_2" data-name="Layer 2"><g id="Layer"><path class="cls-1" d="M76,106.92c0,2.8-16.12,5.08-36,5.08s-36-2.28-36-5.08v-2c0,2.8,16.12,5.08,36,5.08s36-2.28,36-5.08v-47c-7.57,0-13.72-12.46-14-28h0V4H54V24.87a13,13,0,0,1-13,13H39a13,13,0,0,1-13-13V4H18V29.88h0c-.26,15.57-6.41,28-14,28v53C4,113.71,20.12,116,40,116s36-2.28,36-5.09ZM66,118.47A197,197,0,0,1,40,120a197,197,0,0,1-26-1.53c-8.63-1.22-14-2.91-14-7.57v-53a4,4,0,0,1,4-4c4,0,9.73-9.17,10-24.1,0-.13,0-.25,0-.38V4a4,4,0,0,1,4-4h8a4,4,0,0,1,4,4V24.87a9,9,0,0,0,9,9h2a9,9,0,0,0,9-9V4a4,4,0,0,1,4-4h8a4,4,0,0,1,4,4V29.43c0,.13,0,.25,0,.38.25,14.93,6,24.1,10,24.1a4,4,0,0,1,4,4v53C80,115.56,74.65,117.25,66,118.47Z"/></g></g></svg>