<svg xmlns="http://www.w3.org/2000/svg" viewBox="0 0 89.86 119.97"><defs><style>.cls-1{fill-rule:evenodd;}</style></defs><title>trousers</title><g id="Layer_2" data-name="Layer 2"><g id="Layer"><path class="cls-1" d="M77.1,12H12.75l-8,92.28,33.16,3.51,5.86-67.56h2.33L52,107.79l33.16-3.5Zm-.27-3.14V4H13V8.86L12.92,10h64ZM4,113,37.19,116l.54-6.17-33.16-3.5Zm81.89,0-.59-6.74-33.16,3.5.54,6.17Zm3,2.58A4,4,0,0,1,86.21,117L53,120h-.35A3.94,3.94,0,0,1,50.1,119a4,4,0,0,1-1.41-2.73L44.93,73,41.16,116.3A4,4,0,0,1,39.75,119a3.94,3.94,0,0,1-2.56.94h-.35L3.64,117A4,4,0,0,1,.93,115.6,4.06,4.06,0,0,1,0,112.66l9-104V4a4,4,0,0,1,4-4H76.83a4,4,0,0,1,4,4V8.69l9,104A4.06,4.06,0,0,1,88.92,115.6Z"/></g></g></svg>