<svg xmlns="http://www.w3.org/2000/svg" viewBox="0 0 115.54 80"><defs><style>.cls-1{fill-rule:evenodd;}</style></defs><title>underpants</title><g id="Layer_2" data-name="Layer 2"><g id="Layer"><path class="cls-1" d="M108.1,20H80.17a32.48,32.48,0,0,0-2.29,12c0,9.51,4,18.15,10.51,23.33A89.33,89.33,0,0,1,111.55,46Zm-.53-14a2,2,0,0,0-2-2H10A2,2,0,0,0,8,6V16L7.7,18H107.83l-.26-2ZM27.16,55.39c6.55-5.18,10.52-13.83,10.52-23.34a32.48,32.48,0,0,0-2.29-12h-28L4,46A89.28,89.28,0,0,1,27.16,55.39ZM45.81,76H69.72c2.86-8.5,9.61-14.87,16.88-19.51C79.94,50.86,75.9,41.8,75.9,32.05a34.69,34.69,0,0,1,2.16-12H37.5a34.69,34.69,0,0,1,2.16,12c0,9.75-4,18.82-10.71,24.45C36.21,61.14,43,67.51,45.81,76Zm66.61-26.1c-.32.08-32.22,7.43-38.93,27.38A4,4,0,0,1,69.72,80H45.81A4,4,0,0,1,42,77.28C35.35,57.39,3.43,50,3.11,49.9A4,4,0,0,1,0,45.47L4,15.73V6a6,6,0,0,1,6-6h95.61a6,6,0,0,1,6,6v9.73l4,29.74A4,4,0,0,1,112.42,49.9Z"/></g></g></svg>