<?xml version="1.0" encoding="UTF-8"?>
<svg width="118px" height="155px" viewBox="0 0 118 155" version="1.1" xmlns="http://www.w3.org/2000/svg" xmlns:xlink="http://www.w3.org/1999/xlink">
    <!-- Generator: Sketch 51.2 (57519) - http://www.bohemiancoding.com/sketch -->
    <title>Airbuds</title>
    <desc>Created with Sketch.</desc>
    <defs></defs>
    <g id="Page-1" stroke="none" stroke-width="1" fill="none" fill-rule="evenodd">
        <g id="Airbuds" transform="translate(2.000000, 2.000000)">
            <path d="M92.3,7.6 L22,7.6 C10.2,7.6 0.6,17.2 0.6,29 C0.6,40.8 10.2,50.4 22,50.4 L92.3,50.4 C104.1,50.4 113.7,40.8 113.7,29 C113.7,17.2 104.1,7.6 92.3,7.6 Z" id="Shape" class="fill-neutral" fill-rule="nonzero"></path>
            <path d="M114,51 L0.5,51 L0.5,120.6 C0.5,137.2 13.9,150.6 30.5,150.6 L83.9,150.6 C100.5,150.6 113.9,137.2 113.9,120.6 L113.9,51 L114,51 Z" id="Shape" class="fill-neutral" fill-rule="nonzero"></path>
            <path d="M93.6,10.2 L23.3,10.2 C12.2,10.2 3.2,19.2 3.2,30.3 C3.2,41.4 12.2,50.4 23.3,50.4 L93.6,50.4 C104.7,50.4 113.7,41.4 113.7,30.3 C113.7,19.2 104.7,10.2 93.6,10.2 Z" id="Shape" class="fill-primary-100" fill-rule="nonzero"></path>
            <path d="M114,55 L114,121.7 C114,137.7 101,150.7 85,150.7 L33,150.7 C21.3,150.7 11.2,143.7 6.6,133.7 C4.9,130.1 4,126 4,121.7 L4,68.1 C4,60.9 9.9,55 17.1,55 L114,55 Z" id="Shape" class="fill-primary-100" fill-rule="nonzero"></path>
            <path d="M114,55 L114,121.7 C114,137.7 101,150.7 85,150.7 L33,150.7 C21.3,150.7 11.2,143.7 6.6,133.7 C7.8,133.8 9,133.9 10.4,134 C49.6,138.1 99,138.1 99.8,95.7 C100.3,69.4 104,59 109.1,55 L114,55 Z" id="Shape" class="fill-primary-200" fill-rule="nonzero"></path>
            <path d="M45.1,7.6 L22,7.6 C10.2,7.6 0.6,17.2 0.6,29 C0.6,40.8 10.2,50.4 22,50.4 L92.3,50.4 C104.1,50.4 113.7,40.8 113.7,29 C113.7,17.2 104.1,7.6 92.3,7.6 L52.5,7.6" id="Shape" class="stroke-primary" stroke-width="3.2" stroke-linecap="round" stroke-linejoin="round"></path>
            <g id="Group" transform="translate(7.000000, 0.000000)" class="fill-neutral" fill-rule="nonzero">
                <path d="M20.6,0.2 C12.2,0.2 4.8,4.2 0.6,10.3 L0.6,33.9 C4.8,40 12.2,44 20.6,44 C23.3,44 26,43.6 28.4,42.8 L28.4,51 L44.3,51 L44.3,23.9 C44.4,23.3 44.4,22.7 44.4,22 C44.4,10 33.8,0.2 20.6,0.2 Z" id="Shape"></path>
                <path d="M79.9,0.2 C66.8,0.2 56.1,10 56.1,22.1 C56.1,22.7 56.1,23.3 56.2,24 L56.2,51.1 L72.1,51.1 L72.1,42.9 C74.6,43.7 77.2,44.1 79.9,44.1 C88.3,44.1 95.7,40.1 99.9,34 L99.9,10.4 C95.7,4.2 88.3,0.2 79.9,0.2 Z" id="Shape"></path>
            </g>
            <g id="Group" transform="translate(7.000000, 0.000000)" class="stroke-primary" stroke-linecap="round" stroke-linejoin="round" stroke-width="3.2">
                <path d="M23.9,0.4 C35.5,1.9 44.4,11 44.4,22.1 C44.4,22.7 44.4,23.3 44.3,24 L44.3,51.1 L28.4,51.1 L28.4,42.9 C25.9,43.7 23.3,44.1 20.6,44.1 C12.2,44.1 4.8,40.1 0.6,34 L0.6,10.4 C2.8,7.3 5.8,4.7 9.3,2.9" id="Shape"></path>
                <path d="M16.9,0.4 C17.5,0.3 18.1,0.3 18.7,0.2" id="Shape"></path>
                <path d="M26,11 C29.3,12.4 32,15.1 33.4,18.5" id="Shape"></path>
                <circle id="Oval" cx="13.6" cy="21" r="2.9"></circle>
                <path d="M99.9,10.2 L99.9,33.8 C95.7,39.9 88.3,43.9 79.9,43.9 C77.2,43.9 74.5,43.5 72.1,42.7 L72.1,50.9 L56.2,50.9 L56.2,23.8 C56.1,23.2 56.1,22.6 56.1,21.9 C56.1,9.8 66.8,9.09494702e-13 79.9,9.09494702e-13 C88.3,0.2 95.7,4.2 99.9,10.2 Z" id="Shape"></path>
                <path d="M74.5,11 C71.2,12.4 68.5,15.1 67.1,18.5" id="Shape"></path>
                <circle id="Oval" cx="86.9" cy="21" r="2.9"></circle>
            </g>
            <path d="M0.5,110.8 L0.5,120.6 C0.5,137.2 13.9,150.6 30.5,150.6 L83.9,150.6 C100.5,150.6 113.9,137.2 113.9,120.6 L113.9,51 L0.4,51 L0.4,91.1" id="Shape" class="stroke-primary" stroke-width="3.2" stroke-linecap="round" stroke-linejoin="round"></path>
            <path d="M0.5,100.2 L0.5,103.5" id="Shape" class="stroke-primary" stroke-width="3.2" stroke-linecap="round" stroke-linejoin="round"></path>
            <g id="Group" transform="translate(40.000000, 73.000000)" class="fill-neutral" fill-rule="nonzero" class="stroke-primary" stroke-linecap="round" stroke-linejoin="round" stroke-width="3.2">
                <path d="M11.2,16.3 L22,1.4 C22.8,0.3 24.5,1 24.3,2.4 L21.4,21 L32.4,20.8 C32.7,20.8 33,20.9 33.2,21 C33.8,21.4 34,22.2 33.5,22.9 L12.4,51.9 C11.6,53 9.9,52.3 10.1,51 L12.8,32.6 L2,32.7 C0.9,32.7 0.3,31.5 0.9,30.6 L3.3,27.3 L3.6,26.9" id="Shape"></path>
                <path d="M6.5,22.8 L7.3,21.7" id="Shape"></path>
            </g>
        </g>
    </g>
</svg>