<?xml version="1.0" encoding="UTF-8"?>
<svg width="147px" height="141px" viewBox="0 0 147 141" version="1.1" xmlns="http://www.w3.org/2000/svg" xmlns:xlink="http://www.w3.org/1999/xlink">
    <!-- Generator: Sketch 51.2 (57519) - http://www.bohemiancoding.com/sketch -->
    <title>Ball</title>
    <desc>Created with Sketch.</desc>
    <defs></defs>
    <g id="Page-1" stroke="none" stroke-width="1" fill="none" fill-rule="evenodd">
        <g id="Ball" transform="translate(2.000000, 0.000000)">
            <g id="Group" transform="translate(0.000000, 138.000000)" class="stroke-primary-300" stroke-linecap="round" stroke-linejoin="round" stroke-width="3">
                <path d="M1.7,0.7 L0.4,0.7" id="Shape"></path>
                <path d="M36.4,0.7 L6.5,0.7" id="Shape"></path>
                <path d="M42.8,0.7 L41.6,0.7" id="Shape"></path>
                <path d="M141.5,0.7 L49.4,0.7" id="Shape"></path>
            </g>
            <path d="M142.7,70.4 C142.7,79 141.1,87.1 138.3,94.7 C137.2,97.5 136,100.3 134.5,102.9 C134.5,102.9 134.5,102.9 134.5,102.9 C131,109.4 126.4,115.3 121,120.3 C108.9,131.6 92.5,138.6 74.6,138.6 C37,138.6 6.5,108.1 6.5,70.5 C6.5,56.6 10.7,43.7 17.8,32.9 C18.7,31.5 19.6,30.2 20.6,28.9 C25.2,22.9 30.9,17.7 37.2,13.5 C42.6,9.9 48.6,7.1 55,5.2 C60.7,3.5 66.6,2.5 72.8,2.4 C73.4,2.4 74,2.4 74.6,2.4 C105.6,2.4 131.7,23.1 140,51.3 C141.4,56.2 142.3,61.4 142.6,66.7 C142.6,67.9 142.7,69.2 142.7,70.4 Z" id="Shape" class="fill-neutral" fill-rule="nonzero"></path>
            <path d="M142.7,68.9 C142.7,77.5 141.1,85.6 138.3,93.2 C137.2,96 136,98.8 134.5,101.4 C134.5,101.4 134.5,101.4 134.5,101.4 C131,107.9 126.4,113.8 121,118.8 C108.9,130.1 92.5,137.1 74.6,137.1 C37,137.1 6.5,106.6 6.5,69 C6.5,55.1 10.7,42.2 17.8,31.4 C18.7,30 19.6,28.7 20.6,27.4 C25.2,21.4 30.9,16.2 37.2,12 C42.6,8.4 48.6,5.6 55,3.7 C60.7,2 66.6,1 72.8,0.9 C73.4,0.9 74,0.9 74.6,0.9 C105.6,0.9 131.7,21.6 140,49.8 C141.4,54.7 142.3,59.9 142.6,65.2 C142.6,66.3 142.7,67.6 142.7,68.9 Z" id="Shape" class="fill-neutral" fill-rule="nonzero"></path>
            <path d="M139.5,74.3 C139.5,80.6 138.6,86.7 136.9,92.4 C136.4,94 135.9,95.6 135.3,97.1 C134.3,99.8 133.1,102.3 131.7,104.8 C131.7,104.8 131.7,104.8 131.7,104.8 C128.3,110.9 124,116.5 118.9,121.2 C107.3,131.9 91.8,138.4 74.7,138.4 C38.8,138.4 9.8,109.7 9.8,74.2 C9.8,68 10.7,62.1 12.4,56.4 C14.2,50.1 17.1,44.1 20.7,38.7 C21.5,37.4 22.4,36.2 23.4,35 C27.8,29.3 33.2,24.4 39.3,20.5 C44.5,17.1 50.2,14.5 56.2,12.7 C61.6,11.1 67.3,10.2 73.1,10 C73.7,10 74.2,10 74.8,10 C104.3,10 129.2,29.5 137.1,56.1 C138.5,60.7 139.3,65.6 139.6,70.6 C139.5,72 139.5,73.2 139.5,74.3 Z" id="Shape" fill="#BAD8FF" fill-rule="nonzero"></path>
            <path d="M139.5,74.3 C139.5,80.6 138.6,86.7 136.9,92.4 C123.4,104.7 105.3,112.2 85.5,112.2 C50.3,112.2 20.8,88.6 12.2,56.5 C14,50.2 16.9,44.2 20.5,38.8 C21.3,37.5 22.2,36.3 23.2,35.1 C27.6,29.4 33,24.5 39.1,20.6 C44.3,17.2 50,14.6 56,12.8 C61.4,11.2 67.1,10.3 72.9,10.1 C73.5,10.1 74,10.1 74.6,10.1 C104.1,10.1 129,29.6 136.9,56.2 C138.3,60.8 139.1,65.7 139.4,70.7 C139.5,72 139.5,73.2 139.5,74.3 Z" id="Shape" class="fill-primary-100" fill-rule="nonzero"></path>
            <path d="M33.8,15.9 C33.8,15.9 33.9,15.8 33.9,15.8" id="Shape" class="stroke-primary" stroke-width="3" stroke-linecap="round" stroke-linejoin="round"></path>
            <path d="M39.7,11.9 C44.5,9 49.6,6.8 55,5.1 C60.7,3.4 66.6,2.4 72.8,2.3 C73.4,2.3 74,2.3 74.6,2.3 C105.6,2.3 131.7,23 140,51.2 C141.4,56.1 142.3,61.3 142.6,66.6 C142.7,67.9 142.7,69.1 142.7,70.4 C142.7,79 141.1,87.1 138.3,94.7 C137.2,97.5 136,100.3 134.5,102.9 C134.5,102.9 134.5,102.9 134.5,102.9 C131,109.4 126.4,115.3 121,120.3 C108.9,131.6 92.5,138.6 74.6,138.6 C37,138.6 6.5,108.1 6.5,70.5 C6.5,56.6 10.7,43.7 17.8,32.9 C18.7,31.5 19.6,30.2 20.6,28.9 C22.2,26.8 23.9,24.8 25.8,23" id="Shape" class="stroke-primary" stroke-width="3" stroke-linecap="round" stroke-linejoin="round"></path>
            <path d="M121,120.3 C113,123 104.5,124.5 95.6,124.5 C76.7,124.5 59.3,117.8 45.7,106.7" id="Shape" class="stroke-primary" stroke-width="3" stroke-linecap="round" stroke-linejoin="round"></path>
            <path d="M35.8,96.9 C24,83.1 16.8,65.2 16.8,45.6 C16.8,41.2 17.2,37 17.9,32.8" id="Shape" class="stroke-primary" stroke-width="3" stroke-linecap="round" stroke-linejoin="round"></path>
            <path d="M64.2,3.1 C67,2.7 69.9,2.4 72.8,2.3 C73.4,2.3 74,2.3 74.6,2.3 C105.6,2.3 131.7,23 140,51.2 C141.4,56.1 142.3,61.3 142.6,66.6 C142.7,67.9 142.7,69.1 142.7,70.4 C142.7,79 141.1,87.1 138.3,94.7 C132.6,97.8 126.4,100.2 119.8,101.6" id="Shape" class="stroke-primary" stroke-width="3" stroke-linecap="round" stroke-linejoin="round"></path>
            <path d="M108.1,103.1 C107,103.2 105.8,103.2 104.7,103.2 C65.9,103.2 34.5,71.8 34.5,33 C34.5,31.1 34.6,29.3 34.7,27.5" id="Shape" class="stroke-primary" stroke-width="3" stroke-linecap="round" stroke-linejoin="round"></path>
            <path d="M53.8,34.7 C53.7,34.1 53.5,33.5 53.4,32.9" id="Shape" class="stroke-primary" stroke-width="3" stroke-linecap="round" stroke-linejoin="round"></path>
            <path d="M52.4,23.7 C52.4,23.2 52.4,22.7 52.4,22.2 C52.4,16.2 53.3,10.5 55.1,5.1 C60.8,3.4 66.7,2.4 72.9,2.3 C73.5,2.3 74.1,2.3 74.7,2.3 C105.7,2.3 131.8,23 140.1,51.2 C141.5,56.1 142.4,61.3 142.7,66.6 C133.2,73.9 121.4,78.2 108.6,78.2 C87.5,78.2 69.1,66.5 59.6,49.3" id="Shape" class="stroke-primary" stroke-width="3" stroke-linecap="round" stroke-linejoin="round"></path>
            <path d="M72.8,2.4 C73.4,2.4 74,2.4 74.6,2.4 C105.6,2.4 131.7,23.1 140,51.3 C133.3,55.3 125.4,57.6 116.9,57.6 C95.5,57.6 77.5,42.7 72.8,22.6" id="Shape" class="stroke-primary" stroke-width="3" stroke-linecap="round" stroke-linejoin="round"></path>
            <path d="M107,22.3 C109.9,22.6 112.2,25.1 112.2,28.1 C112.2,31.4 109.6,34 106.3,34 C103,34 100.4,31.4 100.4,28.1 C100.4,27.9 100.4,27.7 100.4,27.6" id="Shape" class="stroke-primary" stroke-width="3" stroke-linecap="round" stroke-linejoin="round"></path>
        </g>
    </g>
</svg>