<?xml version="1.0" encoding="UTF-8"?>
<svg width="110px" height="148px" viewBox="0 0 110 148" version="1.1" xmlns="http://www.w3.org/2000/svg" xmlns:xlink="http://www.w3.org/1999/xlink">
    <!-- Generator: Sketch 51.2 (57519) - http://www.bohemiancoding.com/sketch -->
    <title>Banana</title>
    <desc>Created with Sketch.</desc>
    <defs></defs>
    <g id="Page-1" stroke="none" stroke-width="1" fill="none" fill-rule="evenodd">
        <g id="Banana" transform="translate(1.000000, 1.000000)">
            <path d="M70.5,76.4 C66.2,97.2 56,125.1 30.9,126.4 C14.8,127.2 22.8,125.2 0.8,145.3 C0.8,145.3 3.2,129.8 3.2,129.8 C3.4,128.8 8.2,126.6 9.2,126 C12.9,123.5 15.5,120 18.5,116.7 C26.2,108.3 32.9,95.4 36.4,81.4 C47.1,38.4 35,25.6 31.1,13.7 C29.7,9.5 30.2,4.7 34.3,2.2 C45.3,-4.4 55.7,13 60.4,20.4 C71.6,38 74.5,57.2 70.5,76.4 Z" id="Shape" class="fill-neutral" fill-rule="nonzero"></path>
            <path d="M49.4,46 C49.2,45.2 49,44.3 48.7,43.4" id="Shape" class="stroke-primary-200" stroke-width="3" stroke-linecap="round" stroke-linejoin="round"></path>
            <path d="M48.7,71.5 C50.3,64.2 51.1,58.9 50.6,53.2" id="Shape" class="stroke-primary-200" stroke-width="3" stroke-linecap="round" stroke-linejoin="round"></path>
            <path d="M40,68.1 C29.2,56.2 18.5,61.1 3.8,74.3 C3.4,74.7 3,75 2.6,75.4 C9.1,49.1 23.6,42.6 38.1,51.1 L38.5,54.6 L40,68.1 Z" id="Shape" class="fill-neutral" fill-rule="nonzero"></path>
            <path d="M106.6,94.5 C106.5,96.5 106.4,98.7 106.2,100.9 C99.9,81.9 83.3,66.5 71.7,68.6 C71.6,68.6 71.4,68.6 71.3,68.7 L72.8,53 C83,53.1 107.7,59.3 106.6,94.5 Z" id="Shape" class="fill-neutral" fill-rule="nonzero"></path>
            <path d="M40,68.1 C29.2,56.2 18.5,61.1 3.8,74.3 C10.8,51.4 25.7,47.5 39.5,56 L40,68.1 Z" id="Shape" class="fill-primary-400" fill-rule="nonzero"></path>
            <path d="M106.6,94.5 C106.5,96.5 106.4,98.7 106.2,100.9 C99.9,81.9 83.3,66.5 71.7,68.6 L72.8,57.3 C82.5,57.4 105.6,63.1 106.6,94.5 Z" id="Shape" class="fill-primary-400" fill-rule="nonzero"></path>
            <path d="M71.7,68.6 C71.4,71.2 71,73.8 70.4,76.5 C66.1,97.3 55.9,125.2 30.8,126.5 C14.7,127.3 22.7,125.3 0.7,145.4 L3.1,129.9 C3.3,128.9 8.1,126.7 9.1,126.1 C12.8,123.6 15.4,120.1 18.4,116.8 C26.1,108.4 32.8,95.5 36.3,81.5 C37.6,76.3 38.6,71.5 39.3,67.1 C42.2,69.1 45.4,70.7 48.8,71.6 C56.4,73.5 64.6,72.2 71.7,68.6 Z" id="Shape" fill="#BAD8FF" fill-rule="nonzero"></path>
            <path d="M41.1,70.4 C41.3,79.8 42.9,86.1 39.5,98.4 C36.1,110.7 48.3,110.1 59.1,94.8 C67.1,83.4 69.5,79.5 70.5,69.6 C70.5,69.6 65.3,71.3 57.7,71.6 C48.2,71.2 41.1,70.4 41.1,70.4 Z" id="Shape" class="fill-primary-400" fill-rule="nonzero"></path>
            <path d="M39.8,69 C48.2,71.7 64.4,74 71.2,69.2" id="Shape" class="stroke-primary" stroke-width="3" stroke-linecap="round" stroke-linejoin="round"></path>
            <path d="M41.1,70.4 C41.3,79.8 42.9,86.1 39.5,98.4 C36.1,110.7 48.3,110.1 59.1,94.8 C67.1,83.4 69.5,79.5 70.5,69.6" id="Shape" class="stroke-primary" stroke-width="3" stroke-linecap="round" stroke-linejoin="round"></path>
            <path d="M39.2,67.2 C28.4,56.2 17.6,61.7 2.6,75.4 C9.4,47.9 24.9,42 40,52.3" id="Shape" class="stroke-primary" stroke-width="3" stroke-linecap="round" stroke-linejoin="round"></path>
            <path d="M72.7,52.9 C83.6,53.1 110.6,60 106.1,100.8 C99.9,82 83.5,66.6 71.9,68.4" id="Shape" class="stroke-primary" stroke-width="3" stroke-linecap="round" stroke-linejoin="round"></path>
            <path d="M70.5,76.4 C66.2,97.2 56,125.1 30.9,126.4 C14.8,127.2 22.8,125.2 0.8,145.3 C0.8,145.3 3.2,129.8 3.2,129.8 C3.4,128.8 8.2,126.6 9.2,126 C12.9,123.5 15.5,120 18.5,116.7 C26.2,108.3 32.9,95.4 36.4,81.4 C47.1,38.4 35,25.6 31.1,13.7 C29.7,9.5 30.2,4.7 34.3,2.2 C45.3,-4.4 55.7,13 60.4,20.4 C71.6,38 74.5,57.2 70.5,76.4 Z" id="Shape" class="stroke-primary" stroke-width="3" stroke-linecap="round" stroke-linejoin="round"></path>
            <path d="M71.7,68.6 C64.6,72.3 56.4,73.6 48.7,71.5 C45.3,70.6 42.1,69 39.2,67 C35.8,64.6 33,61.6 30.8,58.1" id="Shape"></path>
            <path d="M51.7,24.4 C50.6,22.5 49.5,20.7 48.2,18.9" id="Shape" class="stroke-primary-200" stroke-width="3" stroke-linecap="round" stroke-linejoin="round"></path>
            <path d="M58.7,41.2 C57.6,37.3 56.2,33.4 54.4,29.6" id="Shape" class="stroke-primary-200" stroke-width="3" stroke-linecap="round" stroke-linejoin="round"></path>
            <path d="M60.1,47.1 C60.1,47.1 60.1,47 60.1,47" id="Shape" class="stroke-primary-200" stroke-width="3" stroke-linecap="round" stroke-linejoin="round"></path>
        </g>
    </g>
</svg>