<?xml version="1.0" encoding="UTF-8"?>
<svg width="149px" height="131px" viewBox="0 0 149 131" version="1.1" xmlns="http://www.w3.org/2000/svg" xmlns:xlink="http://www.w3.org/1999/xlink">
    <!-- Generator: Sketch 51.2 (57519) - http://www.bohemiancoding.com/sketch -->
    <title>Basketball</title>
    <desc>Created with Sketch.</desc>
    <defs></defs>
    <g id="Page-1" stroke="none" stroke-width="1" fill="none" fill-rule="evenodd">
        <g id="Basketball" transform="translate(1.000000, 2.000000)">
            <polyline id="Shape" class="fill-neutral" fill-rule="nonzero" points="51.2 94 0.8 94 0.8 0.1 146 0.1 146 94 96.8 94"></polyline>
            <polyline id="Shape" class="fill-primary-100" fill-rule="nonzero" points="53.8 94 4.8 94 4.8 4.3 146 4.3 146 94 98.2 94"></polyline>
            <path d="M146,94 L104.8,94" id="Shape" class="stroke-primary" stroke-width="3" stroke-linecap="round" stroke-linejoin="round"></path>
            <polyline id="Shape" class="stroke-primary" stroke-width="3" stroke-linecap="round" stroke-linejoin="round" points="0.8 11.8 0.8 0.1 146 0.1 146 81.5"></polyline>
            <path d="M0.8,18.9 L0.8,17.4" id="Shape" class="stroke-primary" stroke-width="3" stroke-linecap="round" stroke-linejoin="round"></path>
            <polyline id="Shape" class="stroke-primary" stroke-width="3" stroke-linecap="round" stroke-linejoin="round" points="51.2 94 0.8 94 0.8 29.8"></polyline>
            <polyline id="Shape" class="fill-primary-400" fill-rule="nonzero" points="44.7 63.6 44.7 31.1 102.2 31.1 102.2 71.4 44.7 71.4"></polyline>
            <polyline id="Shape" class="stroke-primary" stroke-width="3" stroke-linecap="round" stroke-linejoin="round" points="44.7 52.8 44.7 31.1 102.2 31.1 102.2 71.4"></polyline>
            <path d="M44.7,63.6 L44.7,62.9" id="Shape" class="stroke-primary" stroke-width="3" stroke-linecap="round" stroke-linejoin="round"></path>
            <g id="Group" transform="translate(40.000000, 71.000000)">
                <path d="M54,54.1 C51.5,9.7 66.7,0.8 66.7,0.8 L0.1,0.8 C0.1,0.8 15.3,9.7 12.8,54.1" id="Shape" class="stroke-primary" stroke-width="3" stroke-linecap="round" stroke-linejoin="round"></path>
                <g id="Shape">
                    <path d="M54,54.1 C53.9,51.4 53.8,48.8 53.7,46.3 C53.7,46.3 53.7,46.3 53.7,46.3 C53.6,39.2 54,33.2 54.7,28 C54.8,27.2 54.9,26.5 55,25.7 C55.9,20.3 57.2,16 58.5,12.6 C62.2,3.3 66.6,0.7 66.6,0.7 L60.8,0.7 L46.7,0.7 L41.6,0.7 L27.5,0.7 L22.4,0.7 L8.3,0.7 L0.1,0.7 C0.1,0.7 5,3.6 8.8,14.3 C9.7,16.7 10.5,19.5 11.1,22.8 C11.6,25 11.9,27.4 12.2,30 C12.7,34.1 13,38.7 13,43.9 C13,45.4 13,46.9 12.9,48.5 C12.9,50.2 12.8,52.1 12.7,53.9" class="fill-neutral" fill-rule="nonzero"></path>
                    <polyline class="stroke-primary" stroke-width="3" stroke-linecap="round" stroke-linejoin="round" points="25 55.9 15.4 46.3 13.1 44.1"></polyline>
                    <polyline class="stroke-primary" stroke-width="3" stroke-linecap="round" stroke-linejoin="round" points="11.2 22.9 15.4 27.1 25 36.7 34.6 46.3 44.2 55.9"></polyline>
                    <polyline class="stroke-primary" stroke-width="3" stroke-linecap="round" stroke-linejoin="round" points="8.3 0.8 15.4 7.9 25 17.5 34.6 27.1 44.2 36.7 53.8 46.3 53.8 46.3"></polyline>
                    <polyline class="stroke-primary" stroke-width="3" stroke-linecap="round" stroke-linejoin="round" points="54.8 28 53.8 27.1 44.2 17.5 34.6 7.9 27.6 0.8"></polyline>
                    <polyline class="stroke-primary" stroke-width="3" stroke-linecap="round" stroke-linejoin="round" points="46.8 0.8 53.8 7.9 58.6 12.7"></polyline>
                    <polyline class="stroke-primary" stroke-width="3" stroke-linecap="round" stroke-linejoin="round" points="8.8 14.4 15.4 7.9 22.4 0.8"></polyline>
                    <polyline class="stroke-primary" stroke-width="3" stroke-linecap="round" stroke-linejoin="round" points="41.6 0.8 34.6 7.9 25 17.5 15.4 27.1 12.3 30.1"></polyline>
                    <polyline class="stroke-primary" stroke-width="3" stroke-linecap="round" stroke-linejoin="round" points="13 48.6 15.4 46.3 25 36.7 34.6 27.1 44.2 17.5 53.8 7.9 60.9 0.8"></polyline>
                    <polyline class="stroke-primary" stroke-width="3" stroke-linecap="round" stroke-linejoin="round" points="25 55.9 34.6 46.3 44.2 36.7 53.8 27.1 55.1 25.8"></polyline>
                    <polyline class="stroke-primary" stroke-width="3" stroke-linecap="round" stroke-linejoin="round" points="44.2 55.9 53.8 46.3 53.8 46.3"></polyline>
                    <path d="M54,54.1 C53.9,51.4 53.8,48.8 53.7,46.3 C53.7,46.3 53.7,46.3 53.7,46.3 C53.6,39.2 54,33.2 54.7,28 C54.8,27.2 54.9,26.5 55,25.7 C55.9,20.3 57.2,16 58.5,12.6 C62.2,3.3 66.6,0.7 66.6,0.7 L60.8,0.7 L46.7,0.7 L41.6,0.7 L27.5,0.7 L22.4,0.7 L8.3,0.7 L0.1,0.7 C0.1,0.7 5,3.6 8.8,14.3 C9.7,16.7 10.5,19.5 11.1,22.8 C11.6,25 11.9,27.4 12.2,30 C12.7,34.1 13,38.7 13,43.9 C13,45.4 13,46.9 12.9,48.5 C12.9,50.2 12.8,52.1 12.7,53.9" class="stroke-primary" stroke-width="3" stroke-linecap="round" stroke-linejoin="round"></path>
                </g>
            </g>
        </g>
    </g>
</svg>