<?xml version="1.0" encoding="UTF-8"?>
<svg width="151px" height="144px" viewBox="0 0 151 144" version="1.1" xmlns="http://www.w3.org/2000/svg" xmlns:xlink="http://www.w3.org/1999/xlink">
    <!-- Generator: Sketch 51.2 (57519) - http://www.bohemiancoding.com/sketch -->
    <title>Blender</title>
    <desc>Created with Sketch.</desc>
    <defs></defs>
    <g id="Page-1" stroke="none" stroke-width="1" fill="none" fill-rule="evenodd">
        <g id="Blender" transform="translate(2.000000, 2.000000)">
            <g id="Group" transform="translate(0.000000, 140.000000)" class="stroke-primary-300" stroke-linecap="round" stroke-linejoin="round" stroke-width="3">
                <path d="M1.3,0.4 L0.1,0.4" id="Shape"></path>
                <path d="M36,0.4 L6.2,0.4" id="Shape"></path>
                <path d="M42.5,0.4 L41.3,0.4" id="Shape"></path>
                <path d="M141.2,0.4 L49,0.4" id="Shape"></path>
                <path d="M146.9,0.4 L145.1,0.4" id="Shape"></path>
            </g>
            <path d="M108.7,78.6 C108.2,78.6 107.8,78.6 107.3,78.6 C105.3,78.5 103.8,76.7 104,74.7 C104.1,72.7 105.9,71.2 107.9,71.4 C114.2,71.9 120,67.5 121.4,61.3 L125.6,42.4 C125.8,41.4 125.4,40.7 125.1,40.3 C124.8,40 124.2,39.4 123.2,39.4 L114.6,39.4 C112.6,39.4 111,37.8 111,35.8 C111,33.8 112.6,32.2 114.6,32.2 L123.2,32.2 C126.2,32.2 128.9,33.5 130.8,35.8 C132.7,38.1 133.3,41.1 132.7,44 L128.5,62.9 C126.3,72.1 118,78.6 108.7,78.6 Z" id="Shape" class="fill-neutral" fill-rule="nonzero"></path>
            <path d="M108.7,77.4 C108.2,77.4 107.8,77.4 107.3,77.4 C105.3,77.3 103.8,75.5 104,73.5 C104.1,71.5 105.9,70 107.9,70.2 C114.2,70.7 120,66.3 121.4,60.1 L125.6,41.2 C125.8,40.2 125.4,39.5 125.1,39.1 C124.8,38.8 124.2,38.2 123.2,38.2 L114.6,38.2 C112.6,38.2 111,36.6 111,34.6 C111,32.6 112.6,31 114.6,31 L123.2,31 C126.2,31 128.9,32.3 130.8,34.6 C132.7,36.9 133.3,39.9 132.7,42.8 L128.5,61.7 C126.3,70.9 118,77.4 108.7,77.4 Z" id="Shape" class="fill-neutral" fill-rule="nonzero"></path>
            <path d="M109.9,78.6 C109.4,78.6 109,78.6 108.5,78.6 C106.5,78.5 105,76.7 105.2,74.7 C105.3,72.7 107.1,71.2 109.1,71.4 C115.4,71.9 121.2,67.5 122.6,61.3 L126.8,42.4 C127,41.4 126.6,40.7 126.3,40.3 C126,40 125.4,39.4 124.4,39.4 L115.8,39.4 C113.8,39.4 112.2,37.8 112.2,35.8 C112.2,33.8 113.8,32.2 115.8,32.2 L124.4,32.2 C127.4,32.2 130.1,33.5 132,35.8 C133.9,38.1 134.5,41.1 133.9,44 L129.7,62.9 C127.5,72.1 119.2,78.6 109.9,78.6 Z" id="Shape" class="fill-primary-400" fill-rule="nonzero"></path>
            <path d="M125.5,41.7 C125.5,41.1 125.2,40.6 125,40.3 C124.7,40 124.1,39.4 123.1,39.4 L114.5,39.4 C112.5,39.4 110.9,37.8 110.9,35.8 C110.9,33.8 112.5,32.2 114.5,32.2 L123.1,32.2 C126.1,32.2 128.8,33.5 130.7,35.8 C132.6,38.1 133.2,41.1 132.6,44 L128.4,62.9 C126.4,72.1 118.1,78.6 108.8,78.6 C108.3,78.6 107.9,78.6 107.4,78.6 C105.4,78.5 103.9,76.7 104.1,74.7 C104.2,72.7 106,71.2 108,71.4 C112.2,71.7 116.1,69.9 118.7,66.9" id="Shape" class="stroke-primary" stroke-width="3" stroke-linecap="round" stroke-linejoin="round"></path>
            <path d="M121.6,60 L124.3,47.7" id="Shape" class="stroke-primary" stroke-width="3" stroke-linecap="round" stroke-linejoin="round"></path>
            <g id="Group" transform="translate(27.000000, 0.000000)" class="fill-neutral" fill-rule="nonzero">
                <path d="M79.5,12.5 L10.2,12.5 C4,12.5 -0.7,18 0.3,24.2 L12.2,96.8 L77.6,96.8 L89.5,24.2 C90.4,18.1 85.7,12.5 79.5,12.5 Z" id="Shape"></path>
                <path d="M77.3,96.5 L11.6,96.5 L1.3,128.9 C-0.4,134.3 3.6,139.9 9.3,139.9 L79.4,139.9 C85.1,139.9 89.2,134.3 87.4,128.9 L77.3,96.5 Z" id="Shape"></path>
                <circle id="Oval" cx="44.7" cy="119.7" r="8.5"></circle>
                <path d="M55.7,0.3 L34.4,0.3 C27.8,0.3 22.4,5.7 22.4,12.3 L67.7,12.3 C67.7,5.7 62.3,0.3 55.7,0.3 Z" id="Shape"></path>
                <path d="M32.4,30.9 L55.1,30.9" id="Shape"></path>
                <path d="M32.4,46.2 L55.1,46.2" id="Shape"></path>
                <path d="M32.4,61.5 L55.1,61.5" id="Shape"></path>
                <path d="M32.4,76.8 L55.1,76.8" id="Shape"></path>
            </g>
            <g id="Group" transform="translate(31.000000, 17.000000)" fill-rule="nonzero">
                <path d="M85.4,11.1 L74.3,79.7 L13.1,79.7 L12.1,73.6 L2,11.1 C1.1,5.3 5.5,0.1 11.3,0.1 L76.2,0.1 C82,0.1 86.4,5.4 85.4,11.1 Z" id="Shape" class="fill-primary-100"></path>
                <path d="M85.4,11.1 L74.3,79.7 L13.1,79.7 L12.1,73.6 C17.6,72.6 26.8,71.1 42.2,69.3 C73,65.7 70,14.3 71,0.1 L76.2,0.1 C82,0.1 86.4,5.4 85.4,11.1 Z" id="Shape" fill="#BAD8FF"></path>
                <path d="M75.9,122.8 L8.8,122.8 C3.3,122.8 -0.6,118 1.1,113.3 L2.7,108.9 L11,85.5 L73.8,85.5 L82.8,111.1 L83.6,113.4 C85.3,118.1 81.4,122.8 75.9,122.8 Z" id="Shape" fill="#8FC0FF"></path>
                <path d="M82.8,111.1 C81.4,112.4 79.4,113.2 77.1,113.2 L10,113.2 C6.7,113.2 3.9,111.4 2.7,109 L11,85.6 L73.8,85.6 L82.8,111.1 Z" id="Shape" fill="#BAD8FF"></path>
                <circle id="Oval" class="fill-primary-100" cx="40.7" cy="102.7" r="8.5"></circle>
                <path d="M28.4,13.9 L51.1,13.9" id="Shape" class="fill-primary-100"></path>
                <path d="M28.4,29.2 L51.1,29.2" id="Shape" class="fill-primary-100"></path>
                <path d="M28.4,44.5 L51.1,44.5" id="Shape" class="fill-primary-100"></path>
                <path d="M28.4,59.8 L51.1,59.8" id="Shape" class="fill-primary-100"></path>
            </g>
            <g id="Group" transform="translate(27.000000, 0.000000)" class="stroke-primary" stroke-linecap="round" stroke-linejoin="round" stroke-width="3">
                <path d="M77.6,96.7 L89.5,24.1 C90.5,18 85.8,12.4 79.6,12.4 L22.3,12.4" id="Shape"></path>
                <path d="M12.2,96.7 L64.2,96.7" id="Shape"></path>
                <path d="M6.6,13.2 C2.3,14.8 -0.5,19.3 0.3,24.2 L10.5,86.6" id="Shape"></path>
                <path d="M13.4,12.5 L12.8,12.5" id="Shape"></path>
                <path d="M64.3,96.5 L11.7,96.5 L1.4,128.9 C-0.3,134.3 3.7,139.9 9.4,139.9 L79.5,139.9 C85.2,139.9 89.3,134.3 87.5,128.9 L77.3,96.8" id="Shape"></path>
                <circle id="Oval" cx="44.7" cy="119.7" r="8.5"></circle>
                <path d="M65.3,5.1 C63.1,2.2 59.6,0.3 55.7,0.3 L34.4,0.3 C27.8,0.3 22.4,5.7 22.4,12.3" id="Shape"></path>
                <path d="M32.4,30.9 L55.1,30.9" id="Shape"></path>
                <path d="M32.4,46.2 L55.1,46.2" id="Shape"></path>
                <path d="M32.4,61.5 L55.1,61.5" id="Shape"></path>
                <path d="M32.4,76.8 L55.1,76.8" id="Shape"></path>
            </g>
            <path d="M74.6,119.4 L74.9,119.4" id="Shape" class="stroke-primary" stroke-width="3" stroke-linecap="round" stroke-linejoin="round"></path>
        </g>
    </g>
</svg>