<?xml version="1.0" encoding="UTF-8"?>
<svg width="149px" height="110px" viewBox="0 0 149 110" version="1.1" xmlns="http://www.w3.org/2000/svg" xmlns:xlink="http://www.w3.org/1999/xlink">
    <!-- Generator: Sketch 51.2 (57519) - http://www.bohemiancoding.com/sketch -->
    <title>Book</title>
    <desc>Created with Sketch.</desc>
    <defs></defs>
    <g id="Page-1" stroke="none" stroke-width="1" fill="none" fill-rule="evenodd">
        <g id="Book" transform="translate(2.000000, 2.000000)">
            <path d="M145.4,8.2 L145.4,102.4 C145.4,104.1 144,105.5 142.3,105.5 L3.6,105.5 C1.9,105.5 0.5,104.1 0.5,102.4 L0.5,8.2 C0.5,6.5 1.9,5.1 3.6,5.1 L142.3,5.1 C144,5.1 145.4,6.5 145.4,8.2 Z" id="Shape" class="fill-primary-300" fill-rule="nonzero"></path>
            <g id="Group" transform="translate(3.000000, 7.000000)" class="fill-primary-500" fill-rule="nonzero">
                <path d="M69.6,16.8 L69.6,98.6 L64.8,98.6 C61.6,95.5 57,93.5 51.9,93.5 L5.4,93.5 C2.9,93.5 0.9,91.7 0.9,89.4 L0.9,4.7 C0.9,3.3 1.6,2.1 2.8,1.4 C3.5,0.9 4.4,0.6 5.4,0.6 L51.9,0.6 C61.7,0.6 69.6,7.8 69.6,16.8 Z" id="Shape"></path>
                <path d="M139.2,4.7 L139.2,89.4 C139.2,91.7 137.2,93.5 134.7,93.5 L88.2,93.5 C83.1,93.5 78.5,95.4 75.3,98.6 L70.5,98.6 L70.5,16.8 C70.5,7.9 78.4,0.6 88.2,0.6 L134.7,0.6 C135.7,0.6 136.5,0.9 137.3,1.3 C138.4,2.1 139.2,3.3 139.2,4.7 Z" id="Shape"></path>
            </g>
            <path d="M46.1,105.5 L13.2,105.5" id="Shape" class="stroke-primary" stroke-width="3.2" stroke-linecap="round" stroke-linejoin="round"></path>
            <path d="M5.9,105.5 L3.6,105.5 C1.9,105.5 0.5,104.1 0.5,102.4 L0.5,8.2 C0.5,6.5 1.9,5.1 3.6,5.1 L142.3,5.1 C144,5.1 145.4,6.5 145.4,8.2 L145.4,102.4 C145.4,104.1 144,105.5 142.3,105.5 L58,105.5" id="Shape" class="stroke-primary" stroke-width="3.2" stroke-linecap="round" stroke-linejoin="round"></path>
            <path d="M72.6,16.7 L72.6,105.5 L72.1,105.5 C70.2,98.5 63.5,93.4 55.4,93.4 L10.1,93.4 C7.7,93.4 5.7,91.6 5.7,89.3 L5.7,4.6 C5.7,2.3 7.7,0.5 10.1,0.5 L55.4,0.5 C60,0.5 64.3,2.2 67.4,5 C70.6,8 72.6,12.1 72.6,16.7 Z" id="Shape" class="fill-neutral" fill-rule="nonzero"></path>
            <path d="M140.3,4.6 L140.3,89.3 C140.3,91.6 138.3,93.4 135.9,93.4 L90.7,93.4 C82.7,93.4 75.9,98.6 74,105.5 L73.5,105.5 L73.5,16.7 C73.5,12.1 75.5,8 78.8,5.1 C81.9,2.3 86.1,0.6 90.8,0.6 L136,0.6 C138.3,0.5 140.3,2.4 140.3,4.6 Z" id="Shape" class="fill-neutral" fill-rule="nonzero"></path>
            <path d="M30.2,0.5 L55.4,0.5 C60,0.5 64.3,2.2 67.4,5 C70.7,7.9 72.7,12.1 72.7,16.6 L72.7,105.4 L72.2,105.4 C70.3,98.4 63.6,93.3 55.5,93.3 L10.2,93.3 C7.8,93.3 5.8,91.5 5.8,89.2 L5.8,4.5 C5.8,2.2 7.8,0.4 10.2,0.4 L12.8,0.4" id="Shape" class="stroke-primary" stroke-width="3.2" stroke-linecap="round" stroke-linejoin="round"></path>
            <path d="M20.8,0.5 L22.4,0.5" id="Shape" class="stroke-primary" stroke-width="3.2" stroke-linecap="round" stroke-linejoin="round"></path>
            <path d="M99.2,0.5 L135.9,0.5 C138.3,0.5 140.3,2.3 140.3,4.6 L140.3,89.3 C140.3,91.6 138.3,93.4 135.9,93.4 L90.7,93.4 C82.7,93.4 75.9,98.6 74,105.5 L73.5,105.5 L73.5,16.7 C73.5,12.1 75.5,8 78.8,5.1 C81.9,2.3 86.1,0.6 90.8,0.6 L92.7,0.6" id="Shape" class="stroke-primary" stroke-width="3.2" stroke-linecap="round" stroke-linejoin="round"></path>
            <g id="Group" transform="translate(18.000000, 19.000000)" class="stroke-primary-300" stroke-linecap="round" stroke-linejoin="round" stroke-width="3.2">
                <path d="M9.7,58 L24.1,58" id="Shape"></path>
                <path d="M0.1,58 L2.7,58" id="Shape"></path>
                <path d="M27.3,46.6 L41.6,46.6" id="Shape"></path>
                <path d="M0.4,46.6 L21.3,46.6" id="Shape"></path>
                <path d="M0.7,35.1 L31.2,35.1" id="Shape"></path>
                <path d="M0.7,12.4 L31.2,12.4" id="Shape"></path>
                <path d="M22.5,23.7 L42.2,23.7" id="Shape"></path>
                <path d="M1,23.7 L16.2,23.7" id="Shape"></path>
                <path d="M32.8,0.2 L42.2,0.2" id="Shape"></path>
                <path d="M1,0.2 L25.3,0.2" id="Shape"></path>
            </g>
            <g id="Group" transform="translate(87.000000, 18.000000)" class="stroke-primary-300" stroke-linecap="round" stroke-linejoin="round" stroke-width="3.2">
                <path d="M9.6,44.7 L23.4,44.7" id="Shape"></path>
                <path d="M0.5,44.7 L2.9,44.7" id="Shape"></path>
                <path d="M26.4,33.4 L40.1,33.4" id="Shape"></path>
                <path d="M0.7,33.4 L20.7,33.4" id="Shape"></path>
                <path d="M1,22.1 L30.2,22.1" id="Shape"></path>
                <path d="M21.8,10.9 L40.6,10.9" id="Shape"></path>
                <path d="M1.3,10.9 L15.8,10.9" id="Shape"></path>
                <path d="M31.6,0.1 L40.6,0.1" id="Shape"></path>
                <path d="M1.3,0.1 L24.5,0.1" id="Shape"></path>
            </g>
            <path d="M92.2,99.9 L89.8,97.2 L86.9,100 C86.5,100.3 85.9,100.1 85.9,99.7 L85.9,1.7 C85.9,1 86.5,0.4 87.2,0.4 L93.3,0.4 L93.3,99.5 C93.2,100.1 92.5,100.3 92.2,99.9 Z" id="Shape" stroke-width="3.2" class="stroke-primary fill-primary-100" fill-rule="nonzero" stroke-linecap="round" stroke-linejoin="round"></path>
        </g>
    </g>
</svg>
