<?xml version="1.0" encoding="UTF-8"?>
<svg width="138px" height="138px" viewBox="0 0 138 138" version="1.1" xmlns="http://www.w3.org/2000/svg" xmlns:xlink="http://www.w3.org/1999/xlink">
    <!-- Generator: Sketch 51.2 (57519) - http://www.bohemiancoding.com/sketch -->
    <title>Call_Canceled</title>
    <desc>Created with Sketch.</desc>
    <defs></defs>
    <g id="Page-1" stroke="none" stroke-width="1" fill="none" fill-rule="evenodd">
        <g id="Call_Canceled" transform="translate(1.000000, 1.000000)">
            <path d="M52.4,63.2 L36.5,79.1 L31.1,84.5 L30.7,84.9 C27.1,80.1 23.8,75 20.8,69.5 C18.4,65.1 16.3,60.5 14.4,55.7 C11.8,49.1 9.9,42.3 9.1,35.3 C8,26.4 10.7,18.8 16.5,12.2 C18.5,9.9 20.7,7.7 22.9,5.6 C28.9,-0.2 38.1,-0.8 44.4,4.7 C47.4,7.3 50.2,10 53,12.8 C53.1,12.9 53.1,12.9 53.2,13 C55.1,15 57,17 58.8,19 C62,22.7 63.2,27.4 62.4,31.9 C62.3,32.7 62.1,33.4 61.9,34.2 C61.8,34.7 61.6,35.1 61.4,35.5 C60.7,37.1 59.8,38.7 58.6,40.1 C57,42 55.2,43.6 53.5,45.4 C53.4,45.5 53.3,45.6 53.3,45.6 C53.3,45.6 53.3,45.6 53.3,45.6 C51.5,47.5 50.6,49.4 50.5,51.4 C50.4,52.5 50.7,53.7 51.2,54.8 C51.2,54.9 51.3,54.9 51.3,55 C51.6,55.7 52.1,56.5 52.6,57.3 C53.4,58.5 54.2,59.6 55.1,60.7 L52.4,63.2 Z" id="Shape" class="fill-neutral" fill-rule="nonzero"></path>
            <path d="M131.6,112.5 C131.2,113 130.7,113.5 130.3,114 C129.9,114.5 129.4,115 129,115.5 C128.6,116 128.1,116.4 127.7,116.9 C127.3,117.4 126.8,117.8 126.4,118.2 C125.9,118.7 125.5,119.1 125,119.6 C124.6,120 124.2,120.4 123.8,120.7 C121.2,122.9 118.4,124.8 115.1,125.9 C114.9,126 114.8,126 114.6,126.1 C114.3,126.2 114,126.3 113.7,126.4 C111.2,127.1 108.8,127.6 107,128 C106.8,128 106.6,128.1 106.4,128.1 C106.4,128.1 106.3,128.1 106.3,128.1 C106,128.1 105.6,128.1 105.3,128 C101.6,127.7 98.1,127.3 94.8,126.6 C94.5,126.5 94.3,126.5 94,126.4 C94,126.4 94,126.4 93.9,126.4 C93.7,126.4 93.4,126.3 93.2,126.2 C89.1,125.3 85.3,124.1 81.6,122.6 C70.2,118.1 60,112.4 50.9,105.4 L51.2,105.1 L58.2,98.1 L72.3,84 L74.8,81.5 L75.2,81.1 C76.6,82.2 78,83.2 79.4,84.3 C82.3,86.3 85.1,86.7 87.8,85.4 C88.8,84.9 89.7,84.2 90.6,83.3 C92,81.9 93.4,80.4 94.9,79 C95.2,78.7 95.5,78.4 95.8,78.1 C101.9,72.2 111.4,71.9 117.6,77.7 C122.2,81.9 126.6,86.3 130.9,90.8 C136.7,97.1 137,106.2 131.6,112.5 Z" id="Shape" class="fill-neutral" fill-rule="nonzero"></path>
            <path d="M52.4,63.2 L36.5,79.1 L31.1,84.5 C24.9,76.2 19.7,66.9 15.6,56.5 C15.2,55.5 14.8,54.6 14.5,53.6 C14.2,52.6 13.8,51.6 13.5,50.6 C13.2,49.8 13,49 12.8,48.2 C12.7,47.8 12.6,47.5 12.5,47.1 C12.3,46.3 12.1,45.6 11.9,44.9 C11.9,44.8 11.8,44.7 11.8,44.6 C11.7,43.8 11.5,43 11.4,42.1 C11.2,40.9 11.2,39.8 11.2,38.6 C11.2,37.1 11.3,35.6 11.6,34.2 C11.6,34 11.7,33.8 11.7,33.5 C11.7,33.2 11.8,32.9 11.9,32.6 C11.9,32.5 11.9,32.4 12,32.3 C12.1,32 12.1,31.8 12.2,31.5 C12.3,31.3 12.3,31.1 12.4,30.9 C12.5,30.6 12.6,30.4 12.7,30.1 C12.8,29.8 12.9,29.5 13,29.2 C13.2,28.6 13.5,28.1 13.7,27.5 C13.8,27.3 13.9,27.1 13.9,27 C14,26.8 14.1,26.6 14.2,26.4 C14.3,26.1 14.5,25.9 14.6,25.6 C14.8,25.2 15,24.9 15.2,24.6 C15.3,24.4 15.4,24.3 15.5,24.1 C15.7,23.8 15.8,23.6 16,23.3 C16.4,22.7 16.9,22.1 17.4,21.4 C17.7,21 18.1,20.6 18.4,20.2 C20.3,18 22.4,16 24.5,14 C30.2,8.5 38.9,7.9 44.8,13.1 C45.3,13.5 45.7,13.9 46.2,14.3 C50.8,18.5 56.1,24.3 59.5,28.3 C59.7,28.5 59.9,28.8 60.1,29 C61,30.6 61.6,32.3 61.8,34 C61.8,34.2 61.9,34.4 61.9,34.5 C62,35.2 62,35.8 62,36.5 C61.3,38 60.4,39.5 59.3,40.8 C57.7,42.7 55.9,44.3 54.2,46.1 C54.1,46.2 53.9,46.4 53.8,46.5 C53.8,46.5 53.8,46.5 53.8,46.5 C53.1,47.3 52.5,48.1 52.1,48.9 C51.2,50.5 51,52.2 51.4,54 C51.2,54.3 51.1,54.5 51,54.8 C51,54.8 51,54.8 51,54.9 C49.9,57.4 50.4,60 52.4,62.8 C52.3,63.1 52.4,63.2 52.4,63.2 Z" id="Shape" class="fill-primary-400" fill-rule="nonzero"></path>
            <path d="M130.7,104.9 C130.7,105.1 130.7,105.3 130.7,105.5 C130.7,105.7 130.7,105.9 130.7,106.1 C130.5,109.2 129.3,112.3 127.1,114.9 C123.9,118.6 120.6,122.4 116.6,125 C116.5,125 116.5,125.1 116.4,125.1 C116,125.4 115.6,125.6 115.3,125.8 C115.2,125.8 115.2,125.9 115.1,125.9 C115,126 114.8,126.1 114.7,126.1 C114.7,126.1 114.7,126.1 114.7,126.1 C114.1,126.3 113.6,126.5 113,126.6 C111,127.1 109,127.5 107.6,127.8 C107.3,127.9 107,127.9 106.7,128 C106.6,128 106.5,128 106.5,128 C106.3,128 106.1,128 105.8,128 C103.2,127.8 100.7,127.5 98.3,127.2 C95.1,126.7 92,126 89.1,125.1 C88.5,124.9 88,124.8 87.4,124.6 C87.3,124.6 87.2,124.5 87.2,124.5 C86.6,124.3 86,124.1 85.4,123.9 C84.4,123.5 83.4,123.2 82.4,122.8 C70.8,118.3 60.5,112.4 51.4,105.3 L58.4,98.3 L72.5,84.2 C74.3,85.7 76.2,87.1 78.1,88.4 C81.8,91 85.4,90.7 88.7,87.5 C90.4,85.9 91.9,84.2 93.6,82.6 C94.9,81.4 96.4,80.4 97.9,79.7 C102.5,77.6 108,77.9 112.3,80.8 C112.6,81 112.9,81.2 113.2,81.5 C113.5,81.7 113.8,82 114.1,82.3 C118.4,86.3 122.6,90.4 126.6,94.7 C126.8,94.9 126.9,95.1 127.1,95.2 C127.2,95.3 127.3,95.4 127.4,95.6 C127.5,95.8 127.6,95.9 127.8,96.1 C128.6,97.1 129.2,98.2 129.7,99.4 C129.8,99.6 129.9,99.8 129.9,100 C130,100.2 130.1,100.4 130.1,100.6 C130.3,101.1 130.4,101.7 130.5,102.2 C130.5,102.3 130.6,102.5 130.6,102.6 C130.6,102.8 130.7,103 130.7,103.2 C130.8,103.5 130.8,103.8 130.8,104.1 L130.8,104.2 C130.7,104.3 130.7,104.6 130.7,104.9 Z" id="Shape" class="fill-primary-400" fill-rule="nonzero"></path>
            <path d="M50.4,39.4 C48.9,42.2 49.7,41.1 51.9,44.2 C52.3,44.7 52.6,45.2 53,45.7 C53,45.7 53,45.7 53,45.7 C53.2,46 53.5,46.3 53.7,46.6 C53.8,46.7 53.9,46.9 54,47 C53.2,47.8 52.6,48.4 52,49 C51.8,49.2 51.7,49.3 51.6,49.5 C51.5,49.7 51.3,49.8 51.2,50 C50.9,50.4 50.6,50.8 50.3,51.3 C50.3,51.4 50.2,51.4 50.2,51.5 C49,53.7 49.4,53.3 50.9,55 C50.9,55 51,55.1 51,55.1 C51.2,55.4 51.5,55.7 51.8,56.2 C52.8,57.6 53.9,59.1 55,60.6 L54.8,60.8 L52.4,63.2 L36.5,79.1 L31.1,84.5 C24.9,76.2 19.7,66.9 15.6,56.5 C15.2,55.5 14.8,54.6 14.5,53.6 C14.2,52.6 13.8,51.6 13.5,50.6 C13.2,49.8 13,49 12.8,48.2 C12.7,47.8 12.6,47.5 12.5,47.1 C12.3,46.3 12.1,45.6 11.9,44.9 C11.9,44.8 11.8,44.7 11.8,44.6 C11.7,43.8 11.5,43 11.4,42.1 C11.2,40.9 11.2,39.8 11.2,38.6 C11.2,37.1 11.3,35.6 11.6,34.2 C11.6,34 11.7,33.8 11.7,33.5 C11.7,33.2 11.8,32.9 11.9,32.6 C11.9,32.5 11.9,32.4 12,32.3 C12.1,32 12.1,31.8 12.2,31.5 C12.3,31.3 12.3,31.1 12.4,30.9 C12.5,30.6 12.6,30.4 12.7,30.1 C12.8,29.8 12.9,29.5 13,29.2 C13.2,28.6 13.5,28.1 13.7,27.5 C13.8,27.3 13.9,27.1 13.9,27 C14,26.8 14.1,26.6 14.2,26.4 C14.3,26.1 14.5,25.9 14.6,25.6 C14.8,25.2 15,24.9 15.2,24.6 C15.3,24.4 15.4,24.3 15.5,24.1 C15.7,23.8 15.8,23.6 16,23.3 C16.4,22.7 16.9,22.1 17.4,21.4 C17.7,21 18.1,20.6 18.4,20.2 C20.3,18 22.4,16 24.5,14 C30.2,8.5 38.9,7.9 44.8,13.1 C45.3,13.5 45.7,13.9 46.2,14.3 C50.8,18.5 56.1,24.3 59.5,28.3 C58.9,29.5 58.2,30.6 57.3,31.6 C55.8,33.3 54.1,34.9 52.5,36.6 C51.5,37.8 50.9,38.6 50.4,39.4 Z" id="Shape" class="fill-primary-200" fill-rule="nonzero"></path>
            <path d="M130.7,104.9 C130.7,105.1 130.7,105.3 130.7,105.5 C130.7,105.7 130.7,105.9 130.7,106.1 C130.5,109.2 129.3,112.3 127.1,114.9 C123.9,118.6 120.8,122.6 116.6,125 C116.5,125 116.5,125.1 116.4,125.1 C115.6,125.5 114.8,125.9 114,126.2 C113.9,126.3 113.8,126.3 113.7,126.3 C113.4,126.4 113.2,126.5 112.9,126.6 C111.1,127.2 109.3,127.6 107.5,127.8 C107.3,127.8 107.2,127.8 107,127.9 C106.6,127.9 106.2,128 105.7,128 C105.6,128 105.4,128 105.3,128 C104.4,128 103.5,128 102.6,127.9 C100,127.7 97.4,127.2 94.8,126.6 C94.5,126.5 94.3,126.5 94,126.4 C94,126.4 94,126.4 93.9,126.4 C92.2,126 90.5,125.5 88.9,125 C88.3,124.8 87.8,124.7 87.2,124.5 C87.1,124.5 87,124.4 87,124.4 C86.4,124.2 85.8,124 85.2,123.8 C84.2,123.4 83.2,123.1 82.2,122.7 C70.6,118.2 60.3,112.3 51.2,105.2 L58.2,98.2 L72.3,84.1 L74.8,81.6 C76,82.6 77.2,83.5 78.4,84.4 C82.1,87 84.1,89.1 87.3,85.9 C87.5,85.7 87.7,85.6 87.8,85.4 C89.3,83.9 90.7,82.4 92.2,81 C93,80.2 93.9,79.6 94.9,79 C95.4,78.7 95.9,78.5 96.5,78.3 C101.5,76.4 107.6,77.5 112.1,80.6 C112.4,80.8 112.7,81 113,81.3 C113.3,81.5 113.6,81.8 113.9,82.1 C118.2,86.1 122.4,90.2 126.4,94.5 C126.6,94.7 126.7,94.9 126.9,95 C127,95.1 127.1,95.2 127.2,95.4 C127.3,95.6 127.4,95.7 127.6,95.9 C128.4,96.9 129,98 129.5,99.2 C129.6,99.4 129.7,99.6 129.7,99.8 C129.8,100 129.9,100.2 129.9,100.4 C130.1,100.9 130.2,101.5 130.3,102 C130.3,102.1 130.4,102.3 130.4,102.4 C130.4,102.6 130.5,102.8 130.5,103 C130.6,103.3 130.6,103.6 130.6,103.9 L130.6,104 C130.7,104.3 130.7,104.6 130.7,104.9 Z" id="Shape" class="fill-primary-200" fill-rule="nonzero"></path>
            <path d="M62.9,32.8 C62.6,33.5 62.2,34.2 61.8,34.8 C61.6,35.1 61.4,35.3 61.2,35.6 C58.7,38.9 55.4,41.1 53.9,43.9 C53.4,44.8 53.1,45.4 53.1,45.8 C53.1,45.8 53.1,45.9 53.1,45.9 C53.1,46.4 53.4,46.6 53.8,46.9 C53.9,47 54,47.1 54.1,47.2 C53.3,48 52.7,48.6 52.1,49.2 C51.9,49.4 51.8,49.5 51.7,49.7 C51.6,49.9 51.4,50 51.3,50.2 C51,50.6 50.7,51 50.4,51.5 C50.4,51.6 50.3,51.6 50.3,51.7 C49.1,53.9 49.5,53.5 51,55.2 C51,55.2 51.1,55.3 51.1,55.3 C51.3,55.6 51.6,55.9 51.9,56.4 C52.9,57.8 54,59.3 55.1,60.8 L54.9,61 L52.5,63.4 L36.6,79.3 C28,69.5 21,58 15.8,44.8 C14.3,40.9 13,37 12,32.9 C12,32.9 12,32.8 12,32.8 C12.1,32.5 12.1,32.3 12.2,32 C12.3,31.8 12.3,31.6 12.4,31.4 C12.5,31.1 12.6,30.9 12.7,30.6 C12.8,30.3 12.9,30 13,29.7 C13.2,29.1 13.5,28.6 13.7,28 C13.8,27.8 13.9,27.6 13.9,27.5 C14,27.3 14.1,27.1 14.2,26.9 C14.3,26.6 14.5,26.4 14.6,26.1 C14.8,25.7 15,25.4 15.2,25.1 C15.3,24.9 15.4,24.8 15.5,24.6 C15.7,24.3 15.8,24.1 16,23.8 C16.4,23.2 16.9,22.6 17.4,21.9 C17.7,21.5 18.1,21.1 18.4,20.7 C20.3,18.5 22.4,16.5 24.5,14.5 C30.2,9 38.9,8.4 44.8,13.6 C45.3,14 45.7,14.4 46.2,14.8 C50.8,19 56.1,24.8 59.5,28.8 C59.7,29 59.9,29.3 60.1,29.5 C61.1,30.6 61.8,31.5 62.4,32.2 C62.5,32.4 62.8,32.7 62.9,32.8 Z" id="Shape" class="fill-primary-100" fill-rule="nonzero"></path>
            <path d="M129.5,99.2 C128.9,100.5 128.1,101.7 127.2,102.9 C124,106.6 120.9,110.7 116.5,113.1 C112.3,115.4 107.5,116.4 102.7,115.9 C97.6,115.4 92.3,114.1 87.4,112.6 C85.7,112 84,111.4 82.3,110.8 C73.6,107.4 65.5,103.2 58.2,98.3 L72.3,84.2 L74.8,81.7 C76,82.7 77.2,83.6 78.4,84.5 C82.1,87.1 84.1,89.2 87.3,86 C87.5,85.8 87.7,85.7 87.8,85.5 C89.3,84 90.7,82.5 92.2,81.1 C93,80.3 93.9,79.7 94.9,79.1 C95.4,78.8 95.9,78.6 96.5,78.4 C101.5,76.5 107.6,77.6 112.1,80.7 C112.4,80.9 112.7,81.1 113,81.4 C113.3,81.6 113.6,81.9 113.9,82.2 C118.2,86.2 122.4,90.3 126.4,94.6 C126.6,94.8 126.7,95 126.9,95.1 C127,95.2 127.1,95.3 127.2,95.5 C127.3,95.7 127.4,95.8 127.6,96 C128.4,97 129,98.1 129.5,99.2 Z" id="Shape" class="fill-primary-100" fill-rule="nonzero"></path>
            <path d="M52.8,12.9 C52.9,13 52.9,13 53,13.1" id="Shape" class="stroke-primary" stroke-width="3.2" stroke-linecap="round" stroke-linejoin="round"></path>
            <path d="M20.2,68.6 C18,64.6 16.1,60.3 14.2,55.8 C11.6,49.2 9.7,42.4 8.8,35.4 C7.7,26.5 10.4,18.9 16.2,12.3 C18.2,10 20.4,7.8 22.6,5.7 C28.6,-0.1 37.8,-0.7 44.1,4.8 C45.1,5.7 46.1,6.5 47,7.4" id="Shape" class="stroke-primary" stroke-width="3.2" stroke-linecap="round" stroke-linejoin="round"></path>
            <path d="M30.7,84.9 C28.4,82 26.3,78.8 24.2,75.5" id="Shape" class="stroke-primary" stroke-width="3.2" stroke-linecap="round" stroke-linejoin="round"></path>
            <path d="M49.9,104.7 C50,104.7 50,104.7 49.9,104.7 C50.3,105 50.6,105.3 50.9,105.5 C53.9,107.9 56.9,110 59.9,112" id="Shape" class="stroke-primary" stroke-width="3.2" stroke-linecap="round" stroke-linejoin="round"></path>
            <path d="M67.4,116.4 C76.7,121.5 85.7,124.6 93.2,126.3 C93.4,126.4 93.7,126.4 93.9,126.5 C93.9,126.5 93.9,126.5 94,126.5 C95.4,126.8 96.8,127 98.1,127.2 C101.1,127.6 103.9,127.8 106.2,127.6 C109.1,127.4 111.6,127 113.9,126.3 C114.3,126.2 114.7,126 115.1,125.9 C118.4,124.7 121.1,122.9 123.7,120.7 C124.1,120.3 124.5,120 124.9,119.6 C125.4,119.2 125.8,118.7 126.3,118.2 C126.7,117.8 127.2,117.3 127.6,116.9 C128,116.4 128.5,116 128.9,115.5 C129.3,115 129.8,114.5 130.2,114 C130.6,113.5 131.1,113 131.5,112.5 C136.9,106.2 136.7,97.1 130.9,90.9 C126.7,86.4 122.2,82 117.6,77.8 C111.3,72.1 101.9,72.4 95.8,78.2 C95.5,78.5 95.2,78.8 94.9,79.1 C93.5,80.5 92.1,82 90.6,83.4 C89.7,84.3 88.7,85 87.8,85.5 C85.1,86.8 82.3,86.5 79.4,84.4 C78,83.4 76.5,82.3 75.2,81.2" id="Shape" class="stroke-primary" stroke-width="3.2" stroke-linecap="round" stroke-linejoin="round"></path>
            <path d="M58.6,19.1 C61.8,22.8 63,27.5 62.2,32 C62.1,32.8 61.9,33.5 61.7,34.3 C61.6,34.8 61.4,35.2 61.2,35.6 C60.5,37.2 59.6,38.8 58.4,40.2 C56.8,42.1 55,43.7 53.3,45.5 C53.2,45.6 53.1,45.7 53.1,45.7 C53.1,45.7 53.1,45.7 53.1,45.7 C51.3,47.6 50.4,49.5 50.3,51.5 C50.2,52.6 50.5,53.8 51,54.9 C51,55 51.1,55 51.1,55.1 C51.4,55.8 51.9,56.6 52.4,57.4 C53.2,58.6 54,59.7 54.9,60.8" id="Shape" class="stroke-primary" stroke-width="3.2" stroke-linecap="round" stroke-linejoin="round"></path>
            <path d="M38.9,21 L23.5,5.1" id="Shape" class="stroke-primary" stroke-width="3.2" stroke-linecap="round" stroke-linejoin="round"></path>
            <path d="M48.1,30.6 L45.1,27.4" id="Shape" class="stroke-primary" stroke-width="3.2" stroke-linecap="round" stroke-linejoin="round"></path>
            <path d="M120.9,103.7 L96.3,78.2" id="Shape" class="stroke-primary" stroke-width="3.2" stroke-linecap="round" stroke-linejoin="round"></path>
            <path d="M50,104.7 C50.3,105 50.7,105.2 51,105.5 C50.6,105.3 50.3,105 50,104.7 Z" id="Shape" class="stroke-primary" stroke-width="3.2" stroke-linecap="round" stroke-linejoin="round"></path>
            <polygon id="Shape" class="fill-neutral" fill-rule="nonzero" points="118.8 24.6 116.3 27.1 8.7 134.7 0.6 126.6 110.8 16.5"></polygon>
            <polygon id="Shape" class="fill-primary-200" fill-rule="nonzero" points="116.3 27.1 8.7 134.7 3.2 129.1 110.8 21.5"></polygon>
            <rect id="Rectangle-path" class="stroke-primary" stroke-width="3.19996931" stroke-linecap="round" stroke-linejoin="round" transform="translate(59.730340, 75.512080) rotate(-45.000000) translate(-59.730340, -75.512080) " x="-18.1689129" y="69.8121347" width="155.798506" height="11.3998907"></rect>
        </g>
    </g>
</svg>