<?xml version="1.0" encoding="UTF-8"?>
<svg width="137px" height="142px" viewBox="0 0 137 142" version="1.1" xmlns="http://www.w3.org/2000/svg" xmlns:xlink="http://www.w3.org/1999/xlink">
    <!-- Generator: Sketch 51.2 (57519) - http://www.bohemiancoding.com/sketch -->
    <title>Call_In</title>
    <desc>Created with Sketch.</desc>
    <defs></defs>
    <g id="Page-1" stroke="none" stroke-width="1" fill="none" fill-rule="evenodd">
        <g id="Call_In" transform="translate(2.000000, 1.000000)">
            <path d="M12.2,81.1 C9.8,76.7 7.7,72.1 5.8,67.3 C3.2,60.7 1.3,53.9 0.4,46.9 C-0.7,38 2,30.4 7.8,23.8 C9.8,21.5 12,19.3 14.2,17.2 C20.2,11.4 29.4,10.8 35.7,16.3 C40.8,20.7 45.6,25.5 50,30.6 C55.4,36.7 55.1,45.5 49.8,51.7 C48.2,53.6 46.4,55.2 44.7,57 C41,60.8 40.7,64.6 43.7,69 C51.2,79.6 60.4,88.5 70.9,96 C74.8,98.8 78.7,98.4 82.1,95 C83.8,93.3 85.5,91.5 87.3,89.8 C93.4,83.9 102.9,83.7 109.1,89.4 C113.7,93.6 118.1,98 122.3,102.5 C128,108.7 128.3,117.7 122.9,124.1 C118.1,129.7 113.2,135.3 105.9,137.7 C102.8,138.7 99.6,139.2 97.7,139.7 C88.3,139.2 80.5,137.3 73.1,134.3 C46,123.5 25.6,105.8 12.2,81.1" id="Shape" class="fill-neutral" fill-rule="nonzero"></path>
            <path d="M118.5,126.3 C115.3,130 112,133.8 108,136.4 C108,136.4 107.9,136.5 107.8,136.5 C107.2,136.9 106.7,137.2 106.1,137.5 C106.1,137.5 106.1,137.5 106.1,137.5 C105.5,137.7 105,137.9 104.4,138 C102.4,138.5 100.4,138.9 99,139.2 C98.7,139.3 98.4,139.3 98.1,139.4 C97.8,139.4 97.5,139.4 97.2,139.3 C91.1,138.9 85.6,137.9 80.5,136.4 C79.9,136.2 79.4,136.1 78.8,135.9 C78.7,135.9 78.6,135.9 78.6,135.8 C78,135.6 77.4,135.4 76.8,135.2 C75.8,134.8 74.8,134.5 73.8,134.1 C42.2,121.7 19.9,99.7 7.1,67.9 C6.7,66.9 6.3,66 6,65 C5.7,64 5.3,63 5,62 C4.7,61.2 4.5,60.4 4.3,59.6 C4.2,59.2 4.1,58.9 4,58.5 C3.8,57.8 3.6,57 3.4,56.3 C3.4,56.2 3.3,56.1 3.3,56 C3.2,55.2 3.1,54.4 3,53.6 C2.8,52.4 2.8,51.3 2.8,50.1 C2.8,48.6 2.9,47.1 3.2,45.7 C3.2,45.5 3.3,45.3 3.3,45 C3.3,44.7 3.4,44.4 3.5,44.1 C3.5,44 3.5,43.9 3.6,43.8 C3.7,43.5 3.7,43.3 3.8,43 C3.8,42.8 3.9,42.6 4,42.4 C4.1,42.1 4.2,41.9 4.3,41.6 C4.4,41.3 4.5,41 4.6,40.7 C4.8,40.1 5.1,39.6 5.3,39 C5.4,38.8 5.5,38.6 5.6,38.5 C5.7,38.3 5.8,38.1 5.9,37.9 C6,37.6 6.2,37.4 6.3,37.1 C6.5,36.7 6.7,36.4 6.9,36.1 C7,36 7.1,35.8 7.2,35.7 C7.4,35.4 7.5,35.2 7.7,34.9 C8.1,34.3 8.6,33.7 9.1,33.1 C9.4,32.7 9.8,32.3 10.1,31.9 C12,29.7 14.1,27.7 16.2,25.7 C21.9,20.2 30.6,19.6 36.5,24.8 C36.9,25.2 37.4,25.6 37.9,26 C42.5,30.2 47.7,36 51.2,40 C51.4,40.2 51.6,40.5 51.8,40.7 C52.8,42.4 53.4,44.3 53.6,46.2 C53.7,46.9 53.7,47.5 53.7,48.2 C53,49.7 52.1,51.2 51,52.5 C49.4,54.3 47.6,56 45.9,57.8 C45.8,57.9 45.6,58.1 45.5,58.2 C45.5,58.2 45.5,58.2 45.5,58.2 C44.8,59 44.2,59.8 43.8,60.6 C42.9,62.3 42.7,63.9 43.1,65.7 C42.9,66 42.8,66.3 42.7,66.6 C41.6,69.1 42.1,71.7 44.1,74.5 C51.1,84.5 59.8,92.9 69.8,99.9 C73.5,102.5 77.1,102.2 80.4,99 C82.1,97.4 83.7,95.7 85.3,94.1 C90.5,89.1 98.2,88.4 104.1,92.3 C104.4,92.5 104.7,92.7 105,93 C105.3,93.2 105.6,93.5 105.9,93.8 C110.2,97.7 114.4,101.9 118.4,106.2 C118.6,106.4 118.7,106.5 118.9,106.7 C119,106.8 119.1,106.9 119.2,107.1 C119.3,107.2 119.4,107.4 119.6,107.6 C120.4,108.6 121,109.7 121.5,110.9 C121.6,111.1 121.7,111.3 121.7,111.5 C121.8,111.7 121.9,111.9 121.9,112.1 C122.1,112.6 122.2,113.2 122.3,113.7 C122.3,113.8 122.3,113.9 122.4,114.1 C122.4,114.3 122.5,114.5 122.5,114.7 C122.6,115 122.6,115.3 122.6,115.6 L122.6,115.7 C122.6,116 122.6,116.3 122.6,116.6 C122.6,116.8 122.6,117 122.6,117.2 C122.6,117.4 122.6,117.6 122.6,117.8 C122,120.7 120.7,123.7 118.5,126.3 Z" id="Shape" class="fill-primary-400" fill-rule="nonzero"></path>
            <path d="M118.5,126.3 C115.3,130 112.2,134 108,136.4 C108,136.4 107.9,136.5 107.8,136.5 C106.7,137.1 105.5,137.6 104.3,138 C102.5,138.6 100.7,139 98.9,139.2 C98.3,139.3 97.7,139.3 97.2,139.3 C96.2,139.3 95.1,139.3 94.1,139.2 C89.5,138.8 84.9,137.7 80.5,136.4 C79.9,136.2 79.4,136.1 78.8,135.9 C78.7,135.9 78.6,135.9 78.6,135.8 C78,135.6 77.4,135.4 76.8,135.2 C75.8,134.8 74.8,134.5 73.8,134.1 C42.2,121.7 19.9,99.7 7.1,67.9 C6.7,66.9 6.3,66 6,65 C5.7,64 5.3,63 5,62 C4.7,61.2 4.5,60.4 4.3,59.6 C4.2,59.2 4.1,58.9 4,58.5 C3.8,57.8 3.6,57 3.4,56.3 C3.4,56.2 3.3,56.1 3.3,56 C3.2,55.2 3.1,54.4 3,53.6 C2.8,52.4 2.8,51.3 2.8,50.1 C2.8,48.6 2.9,47.1 3.2,45.7 C3.2,45.5 3.3,45.3 3.3,45 C3.3,44.7 3.4,44.4 3.5,44.1 C3.5,44 3.5,43.9 3.6,43.8 C3.7,43.5 3.7,43.3 3.8,43 C3.8,42.8 3.9,42.6 4,42.4 C4.1,42.1 4.2,41.9 4.3,41.6 C4.4,41.3 4.5,41 4.6,40.7 C4.8,40.1 5.1,39.6 5.3,39 C5.4,38.8 5.5,38.6 5.6,38.5 C5.7,38.3 5.8,38.1 5.9,37.9 C6,37.6 6.2,37.4 6.3,37.1 C6.5,36.7 6.7,36.4 6.9,36.1 C7,36 7.1,35.8 7.2,35.7 C7.4,35.4 7.5,35.2 7.7,34.9 C8.1,34.3 8.6,33.7 9.1,33.1 C9.4,32.7 9.8,32.3 10.1,31.9 C12,29.7 14.1,27.7 16.2,25.7 C21.9,20.2 30.6,19.6 36.5,24.8 C36.9,25.2 37.4,25.6 37.9,26 C42.5,30.2 47.7,36 51.2,40 C50.6,41.2 49.9,42.3 49,43.3 C47.5,45 45.8,46.6 44.2,48.3 C43.4,49.1 42.8,50 42.3,50.8 C40.7,53.6 41.6,52.5 43.8,55.6 C44.2,56.1 44.5,56.6 44.9,57.2 C45.1,57.5 45.4,57.8 45.6,58.1 C45.7,58.2 45.8,58.4 45.9,58.5 C45.1,59.3 44.5,59.9 43.9,60.5 C43.7,60.7 43.6,60.8 43.5,61 C43.4,61.2 43.2,61.3 43.1,61.5 C42.8,61.9 42.5,62.3 42.2,62.8 C40.9,65.2 41.3,64.7 42.8,66.5 C43.1,66.8 43.4,67.2 43.7,67.7 C50.7,77.7 60.4,88.8 70.3,95.9 C74,98.5 76,100.6 79.2,97.4 C80.9,95.8 82.5,94.1 84.1,92.5 C89.3,87.5 98,88 104,92.1 C104.3,92.3 104.6,92.5 104.9,92.8 C105.2,93 105.5,93.3 105.8,93.6 C110.1,97.5 114.3,101.7 118.3,106 C118.5,106.2 118.6,106.3 118.8,106.5 C118.9,106.6 119,106.7 119.1,106.9 C119.2,107 119.3,107.2 119.5,107.4 C120.3,108.4 120.9,109.5 121.4,110.7 C121.5,110.9 121.6,111.1 121.6,111.3 C121.7,111.5 121.8,111.7 121.8,111.9 C122,112.4 122.1,113 122.2,113.5 C122.2,113.6 122.2,113.7 122.3,113.9 C122.3,114.1 122.4,114.3 122.4,114.5 C122.5,114.8 122.5,115.1 122.5,115.4 L122.5,115.5 C122.5,115.8 122.5,116.1 122.5,116.4 C122.5,116.6 122.5,116.8 122.5,117 C122.5,117.2 122.5,117.4 122.5,117.6 C122,120.7 120.7,123.7 118.5,126.3 Z" id="Shape" class="fill-primary-200" fill-rule="nonzero"></path>
            <path d="M121,110.7 C120.4,112 119.6,113.2 118.7,114.4 C115.5,118.1 112.4,122.2 108,124.6 C103.8,126.9 99,127.9 94.2,127.4 C89.1,126.9 83.8,125.6 78.9,124 C77.2,123.4 75.5,122.8 73.8,122.2 C42.2,109.8 19.9,87.8 7.1,56 C5.5,52.1 4.3,48.2 3.3,44.1 C3.3,44.1 3.3,44 3.3,44 C3.4,43.7 3.4,43.5 3.5,43.2 C3.5,43 3.6,42.8 3.7,42.6 C3.8,42.3 3.9,42.1 4,41.8 C4.1,41.5 4.2,41.2 4.3,40.9 C4.5,40.3 4.8,39.8 5,39.2 C5.1,39 5.2,38.8 5.3,38.7 C5.4,38.5 5.5,38.3 5.6,38.1 C5.7,37.8 5.9,37.6 6,37.3 C6.2,36.9 6.4,36.6 6.6,36.3 C6.7,36.2 6.8,36 6.9,35.9 C7.1,35.6 7.2,35.4 7.4,35.1 C7.8,34.5 8.3,33.9 8.8,33.3 C9.1,32.9 9.5,32.5 9.8,32.1 C11.7,29.9 13.8,27.9 15.9,25.9 C21.6,20.4 30.3,19.8 36.2,25 C36.6,25.4 37.1,25.8 37.6,26.2 C42.2,30.4 47.4,36.2 50.9,40.2 C51.1,40.4 51.3,40.7 51.5,40.9 C53,42.6 54,43.9 54.5,44.5 C54.2,45.2 53.8,45.9 53.4,46.5 C50.9,50.3 47.2,52.6 45.5,55.6 C44.9,56.6 44.7,57.2 44.7,57.6 C44.7,58.1 45,58.3 45.4,58.6 C45.5,58.7 45.6,58.8 45.7,58.9 C44.9,59.7 44.3,60.3 43.7,60.9 C43.5,61.1 43.4,61.2 43.3,61.4 C43.2,61.6 43,61.7 42.9,61.9 C42.6,62.3 42.3,62.7 42,63.2 C40.7,65.6 41.1,65.1 42.6,66.9 C42.9,67.2 43.2,67.6 43.5,68.1 C50.5,78.1 60.2,89.2 70.1,96.3 C73.8,98.9 75.8,101 79,97.8 C80.7,96.2 82.3,94.5 83.9,92.9 C89.1,87.9 97.8,88.4 103.8,92.5 C104.1,92.7 104.4,92.9 104.7,93.2 C105,93.4 105.3,93.7 105.6,94 C109.9,97.9 114.1,102.1 118.1,106.4 C118.3,106.6 118.4,106.7 118.6,106.9 C118.7,107 118.8,107.1 118.9,107.3 C119,107.4 119.1,107.6 119.3,107.8 C119.9,108.4 120.5,109.5 121,110.7 Z" id="Shape" class="fill-primary-100" fill-rule="nonzero"></path>
            <path d="M44.3,24.4 C44.4,24.5 44.4,24.5 44.5,24.6" id="Shape" class="stroke-primary" stroke-width="3.2" stroke-linecap="round" stroke-linejoin="round"></path>
            <path d="M11.7,80.1 C9.5,76.1 7.6,71.8 5.7,67.3 C3.1,60.7 1.2,53.9 0.3,46.9 C-0.8,38 1.9,30.4 7.7,23.8 C9.7,21.5 11.9,19.3 14.1,17.2 C20.1,11.4 29.3,10.8 35.6,16.3 C36.6,17.2 37.6,18 38.5,18.9" id="Shape" class="stroke-primary" stroke-width="3.2" stroke-linecap="round" stroke-linejoin="round"></path>
            <path d="M51.5,123.5 C38.7,115.2 25.9,103.3 15.8,87" id="Shape" class="stroke-primary" stroke-width="3.2" stroke-linecap="round" stroke-linejoin="round"></path>
            <path d="M50.1,30.6 C55.5,36.7 55.2,45.5 49.9,51.7 C48.3,53.6 46.5,55.2 44.8,57 C41.1,60.8 40.8,64.6 43.8,69 C51.3,79.6 60.5,88.5 71,96 C74.9,98.8 78.8,98.4 82.2,95 C83.9,93.3 85.6,91.5 87.4,89.8 C93.5,83.9 103,83.7 109.2,89.4 C113.8,93.6 118.2,98 122.4,102.5 C128.1,108.7 128.4,117.7 123,124.1 C116,132.3 110.2,138.5 97.7,139.2 C88.9,139.7 74.3,136.5 58.9,128.1" id="Shape" class="stroke-primary" stroke-width="3.2" stroke-linecap="round" stroke-linejoin="round"></path>
            <path d="M30.4,32.5 L15,16.5" id="Shape" class="stroke-primary" stroke-width="3.2" stroke-linecap="round" stroke-linejoin="round"></path>
            <path d="M39.6,42 L36.5,38.9" id="Shape" class="stroke-primary" stroke-width="3.2" stroke-linecap="round" stroke-linejoin="round"></path>
            <path d="M112.4,115.1 L87.8,89.7" id="Shape" class="stroke-primary" stroke-width="3.2" stroke-linecap="round" stroke-linejoin="round"></path>
            <path d="M83,44.9 L83,16.3 C83,13 85.7,10.2 89.1,10.2 C89.5,10.2 89.8,10.2 90.2,10.3 C93.1,10.8 95.2,13.3 95.2,16.3 L95.2,30.3 L123,2.5 C124.2,1.3 125.7,0.7 127.3,0.7 C127.7,0.7 128,0.7 128.4,0.8 C129.6,1 130.7,1.6 131.6,2.5 C134,4.9 134,8.7 131.6,11.1 L106.5,36.2 L103.8,38.9 L117.8,38.9 C118.2,38.9 118.5,38.9 118.9,39 C121.7,39.5 123.9,42 123.9,45 C123.9,48.3 121.2,51.1 117.8,51.1 L89,51.1 C86.9,51.1 85,50 83.9,48.3 C83.3,47.3 83,46.1 83,44.9 Z" id="Shape" class="fill-neutral" fill-rule="nonzero"></path>
            <path d="M83,44.9 L83,16.3 C83,13 85.7,10.2 89.1,10.2 C89.5,10.2 89.8,10.2 90.2,10.3 C90.8,11.2 94.5,11.9 94.5,13.1 L94.5,27.1 L95.2,23.5 L95.2,30.2 L123,2.4 C124.2,1.2 125.7,0.6 127.3,0.6 C127.7,0.6 128,0.6 128.4,0.7 C129.9,3 129.7,6.2 127.6,8.3 L99.8,36.1 L106.5,36.1 L103.8,38.8 L117.8,38.8 C118.2,38.8 118.5,38.8 118.9,38.9 C119.5,39.8 119.9,41 119.9,42.2 C119.9,45.5 117.2,48.3 113.8,48.3 L85,48.3 C84.6,48.3 84.3,48.3 83.9,48.2 C83.3,47.3 83,46.1 83,44.9 Z" id="Shape" class="fill-primary-100" fill-rule="nonzero"></path>
            <path d="M109.7,51 L111.8,51" id="Shape" class="stroke-primary" stroke-width="3.2" stroke-linecap="round" stroke-linejoin="round"></path>
            <path d="M117.6,51 C121,51 123.7,48.3 123.7,44.9 C123.7,41.5 121,38.8 117.6,38.8 L103.6,38.8 L131.4,11 C133.8,8.6 133.8,4.8 131.4,2.4 C130.2,1.2 128.7,0.6 127.1,0.6 C125.5,0.6 124,1.2 122.8,2.4 L95,30.2 L95,16.2 C95,12.8 92.3,10.1 88.9,10.1 C85.5,10.1 82.8,12.8 82.8,16.2 L82.8,44.8 C82.8,48.2 85.5,50.9 88.9,50.9 L98.5,50.9" id="Shape" class="stroke-primary" stroke-width="3.2" stroke-linecap="round" stroke-linejoin="round"></path>
        </g>
    </g>
</svg>