<?xml version="1.0" encoding="UTF-8"?>
<svg width="133px" height="139px" viewBox="0 0 133 139" version="1.1" xmlns="http://www.w3.org/2000/svg" xmlns:xlink="http://www.w3.org/1999/xlink">
    <!-- Generator: Sketch 51.2 (57519) - http://www.bohemiancoding.com/sketch -->
    <title>Call_Out</title>
    <desc>Created with Sketch.</desc>
    <defs></defs>
    <g id="Page-1" stroke="none" stroke-width="1" fill="none" fill-rule="evenodd">
        <g id="Call_Out" transform="translate(2.000000, 1.000000)">
            <path d="M12.2,78.3 C9.8,73.9 7.7,69.3 5.8,64.5 C3.2,57.9 1.3,51.1 0.4,44.1 C-0.7,35.2 2,27.6 7.8,21 C9.8,18.7 12,16.5 14.2,14.4 C20.2,8.6 29.4,8 35.7,13.5 C40.8,17.9 45.6,22.7 50,27.8 C55.4,33.9 55.1,42.7 49.8,48.9 C48.2,50.8 46.4,52.4 44.7,54.2 C41,58 40.7,61.8 43.7,66.2 C51.2,76.8 60.4,85.7 70.9,93.2 C74.8,96 78.7,95.6 82.1,92.2 C83.8,90.5 85.5,88.7 87.3,87 C93.4,81.1 102.9,80.9 109.1,86.6 C113.7,90.8 118.1,95.2 122.3,99.7 C128,105.9 128.3,114.9 122.9,121.3 C118.1,126.9 113.2,132.5 105.9,134.9 C102.8,135.9 99.6,136.4 97.7,136.9 C88.3,136.4 80.5,134.5 73.1,131.5 C46,120.7 25.7,103.1 12.2,78.3" id="Shape" class="fill-neutral" fill-rule="nonzero"></path>
            <path d="M118.5,123.6 C115.3,127.3 112,131.1 108,133.7 C108,133.7 107.9,133.8 107.8,133.8 C107.2,134.2 106.7,134.5 106.1,134.8 C106.1,134.8 106.1,134.8 106.1,134.8 C105.5,135 105,135.2 104.4,135.3 C102.4,135.8 100.4,136.2 99,136.5 C98.7,136.6 98.4,136.6 98.1,136.7 C97.8,136.7 97.5,136.7 97.2,136.6 C91.1,136.2 85.6,135.2 80.5,133.7 C79.9,133.5 79.4,133.4 78.8,133.2 C78.7,133.2 78.6,133.2 78.6,133.1 C78,132.9 77.4,132.7 76.8,132.5 C75.8,132.1 74.8,131.8 73.8,131.4 C42.2,119 19.9,97 7.1,65.2 C6.7,64.2 6.3,63.3 6,62.3 C5.7,61.3 5.3,60.3 5,59.3 C4.7,58.5 4.5,57.7 4.3,56.9 C4.2,56.5 4.1,56.2 4,55.8 C3.8,55.1 3.6,54.3 3.4,53.6 C3.4,53.5 3.3,53.4 3.3,53.3 C3.2,52.5 3.1,51.7 3,50.9 C2.8,49.7 2.8,48.6 2.8,47.4 C2.8,45.9 2.9,44.4 3.2,43 C3.2,42.8 3.3,42.6 3.3,42.3 C3.3,42 3.4,41.7 3.5,41.4 C3.5,41.3 3.5,41.2 3.6,41.1 C3.7,40.8 3.7,40.6 3.8,40.3 C3.8,40.1 3.9,39.9 4,39.7 C4.1,39.4 4.2,39.2 4.3,38.9 C4.4,38.6 4.5,38.3 4.6,38 C4.8,37.4 5.1,36.9 5.3,36.3 C5.4,36.1 5.5,35.9 5.6,35.8 C5.7,35.6 5.8,35.4 5.9,35.2 C6,34.9 6.2,34.7 6.3,34.4 C6.5,34 6.7,33.7 6.9,33.4 C7,33.3 7.1,33.1 7.2,33 C7.4,32.7 7.5,32.5 7.7,32.2 C8.1,31.6 8.6,31 9.1,30.4 C9.4,30 9.8,29.6 10.1,29.2 C12,27 14.1,25 16.2,23 C21.9,17.5 30.6,16.9 36.5,22.1 C36.9,22.5 37.4,22.9 37.9,23.3 C42.5,27.5 47.7,33.3 51.2,37.3 C51.4,37.5 51.6,37.8 51.8,38 C52.8,39.7 53.4,41.6 53.6,43.5 C53.7,44.2 53.7,44.8 53.7,45.5 C53,47 52.1,48.5 51,49.8 C49.4,51.6 47.6,53.3 45.9,55.1 C45.8,55.2 45.6,55.4 45.5,55.5 C45.5,55.5 45.5,55.5 45.5,55.5 C44.8,56.3 44.2,57.1 43.8,57.9 C42.9,59.6 42.7,61.2 43.1,63 C42.9,63.3 42.8,63.6 42.7,63.9 C41.6,66.4 42.1,69 44.1,71.8 C51.1,81.8 59.8,90.2 69.8,97.2 C73.5,99.8 77.1,99.5 80.4,96.3 C82.1,94.7 83.7,93 85.3,91.4 C90.5,86.4 98.2,85.7 104.1,89.6 C104.4,89.8 104.7,90 105,90.3 C105.3,90.5 105.6,90.8 105.9,91.1 C110.2,95 114.4,99.2 118.4,103.5 C118.6,103.7 118.7,103.8 118.9,104 C119,104.1 119.1,104.2 119.2,104.4 C119.3,104.5 119.4,104.7 119.6,104.9 C120.4,105.9 121,107 121.5,108.2 C121.6,108.4 121.7,108.6 121.7,108.8 C121.8,109 121.9,109.2 121.9,109.4 C122.1,109.9 122.2,110.5 122.3,111 C122.3,111.1 122.3,111.2 122.4,111.4 C122.4,111.6 122.5,111.8 122.5,112 C122.6,112.3 122.6,112.6 122.6,112.9 L122.6,113 C122.6,113.3 122.6,113.6 122.6,113.9 C122.6,114.1 122.6,114.3 122.6,114.5 C122.6,114.7 122.6,114.9 122.6,115.1 C122,117.9 120.8,121 118.5,123.6 Z" id="Shape" class="fill-primary-400" fill-rule="nonzero"></path>
            <path d="M118.5,123.6 C115.3,127.3 112.2,131.3 108,133.7 C108,133.7 107.9,133.8 107.8,133.8 C106.7,134.4 105.5,134.9 104.3,135.3 C102.5,135.9 100.7,136.3 98.9,136.5 C98.3,136.6 97.7,136.6 97.2,136.6 C96.2,136.6 95.1,136.6 94.1,136.5 C89.5,136.1 84.9,135 80.5,133.7 C79.9,133.5 79.4,133.4 78.8,133.2 C78.7,133.2 78.6,133.2 78.6,133.1 C78,132.9 77.4,132.7 76.8,132.5 C75.8,132.1 74.8,131.8 73.8,131.4 C42.2,119 19.9,97 7.1,65.2 C6.7,64.2 6.3,63.3 6,62.3 C5.7,61.3 5.3,60.3 5,59.3 C4.7,58.5 4.5,57.7 4.3,56.9 C4.2,56.5 4.1,56.2 4,55.8 C3.8,55.1 3.6,54.3 3.4,53.6 C3.4,53.5 3.3,53.4 3.3,53.3 C3.2,52.5 3.1,51.7 3,50.9 C2.8,49.7 2.8,48.6 2.8,47.4 C2.8,45.9 2.9,44.4 3.2,43 C3.2,42.8 3.3,42.6 3.3,42.3 C3.3,42 3.4,41.7 3.5,41.4 C3.5,41.3 3.5,41.2 3.6,41.1 C3.7,40.8 3.7,40.6 3.8,40.3 C3.8,40.1 3.9,39.9 4,39.7 C4.1,39.4 4.2,39.2 4.3,38.9 C4.4,38.6 4.5,38.3 4.6,38 C4.8,37.4 5.1,36.9 5.3,36.3 C5.4,36.1 5.5,35.9 5.6,35.8 C5.7,35.6 5.8,35.4 5.9,35.2 C6,34.9 6.2,34.7 6.3,34.4 C6.5,34 6.7,33.7 6.9,33.4 C7,33.3 7.1,33.1 7.2,33 C7.4,32.7 7.5,32.5 7.7,32.2 C8.1,31.6 8.6,31 9.1,30.4 C9.4,30 9.8,29.6 10.1,29.2 C12,27 14.1,25 16.2,23 C21.9,17.5 30.6,16.9 36.5,22.1 C36.9,22.5 37.4,22.9 37.9,23.3 C42.5,27.5 47.7,33.3 51.2,37.3 C50.6,38.5 49.9,39.6 49,40.6 C47.5,42.3 45.8,43.9 44.2,45.6 C43.4,46.4 42.8,47.3 42.3,48.1 C40.7,50.9 41.6,49.8 43.8,52.9 C44.2,53.4 44.5,53.9 44.9,54.5 C45.1,54.8 45.4,55.1 45.6,55.4 C45.7,55.5 45.8,55.7 45.9,55.8 C45.1,56.6 44.5,57.2 43.9,57.8 C43.7,58 43.6,58.1 43.5,58.3 C43.4,58.5 43.2,58.6 43.1,58.8 C42.8,59.2 42.5,59.6 42.2,60.1 C40.9,62.5 41.3,62 42.8,63.8 C43.1,64.1 43.4,64.5 43.7,65 C50.7,75 60.4,86.1 70.3,93.2 C74,95.8 76,97.9 79.2,94.7 C80.9,93.1 82.5,91.4 84.1,89.8 C89.3,84.8 98,85.3 104,89.4 C104.3,89.6 104.6,89.8 104.9,90.1 C105.2,90.3 105.5,90.6 105.8,90.9 C110.1,94.8 114.3,99 118.3,103.3 C118.5,103.5 118.6,103.6 118.8,103.8 C118.9,103.9 119,104 119.1,104.2 C119.2,104.3 119.3,104.5 119.5,104.7 C120.3,105.7 120.9,106.8 121.4,108 C121.5,108.2 121.6,108.4 121.6,108.6 C121.7,108.8 121.8,109 121.8,109.2 C122,109.7 122.1,110.3 122.2,110.8 C122.2,110.9 122.2,111 122.3,111.2 C122.3,111.4 122.4,111.6 122.4,111.8 C122.5,112.1 122.5,112.4 122.5,112.7 L122.5,112.8 C122.5,113.1 122.5,113.4 122.5,113.7 C122.5,113.9 122.5,114.1 122.5,114.3 C122.5,114.5 122.5,114.7 122.5,114.9 C122,117.9 120.8,121 118.5,123.6 Z" id="Shape" class="fill-primary-200" fill-rule="nonzero"></path>
            <path d="M121,107.9 C120.4,109.2 119.6,110.4 118.7,111.6 C115.5,115.3 112.4,119.4 108,121.8 C103.8,124.1 99,125.1 94.2,124.6 C89.1,124.1 83.8,122.8 78.9,121.2 C77.2,120.6 75.5,120 73.8,119.4 C42.2,107 19.9,85 7.1,53.2 C5.5,49.3 4.3,45.4 3.3,41.3 C3.3,41.3 3.3,41.2 3.3,41.2 C3.4,40.9 3.4,40.7 3.5,40.4 C3.5,40.2 3.6,40 3.7,39.8 C3.8,39.5 3.9,39.3 4,39 C4.1,38.7 4.2,38.4 4.3,38.1 C4.5,37.5 4.8,37 5,36.4 C5.1,36.2 5.2,36 5.3,35.9 C5.4,35.7 5.5,35.5 5.6,35.3 C5.7,35 5.9,34.8 6,34.5 C6.2,34.1 6.4,33.8 6.6,33.5 C6.7,33.4 6.8,33.2 6.9,33.1 C7.1,32.8 7.2,32.6 7.4,32.3 C7.8,31.7 8.3,31.1 8.8,30.5 C9.1,30.1 9.5,29.7 9.8,29.3 C11.7,27.1 13.8,25.1 15.9,23.1 C21.6,17.6 30.3,17 36.2,22.2 C36.6,22.6 37.1,23 37.6,23.4 C42.2,27.6 47.4,33.4 50.9,37.4 C51.1,37.6 51.3,37.9 51.5,38.1 C53,39.8 54,41.1 54.5,41.7 C54.2,42.4 53.8,43.1 53.4,43.7 C50.9,47.5 47.2,49.8 45.5,52.8 C44.9,53.8 44.7,54.4 44.7,54.8 C44.7,55.3 45,55.5 45.4,55.8 C45.5,55.9 45.6,56 45.7,56.1 C44.9,56.9 44.3,57.5 43.7,58.1 C43.5,58.3 43.4,58.4 43.3,58.6 C43.2,58.8 43,58.9 42.9,59.1 C42.6,59.5 42.3,59.9 42,60.4 C40.7,62.8 41.1,62.3 42.6,64.1 C42.9,64.4 43.2,64.8 43.5,65.3 C50.5,75.3 60.2,86.4 70.1,93.5 C73.8,96.1 75.8,98.2 79,95 C80.7,93.4 82.3,91.7 83.9,90.1 C89.1,85.1 97.8,85.6 103.8,89.7 C104.1,89.9 104.4,90.1 104.7,90.4 C105,90.6 105.3,90.9 105.6,91.2 C109.9,95.1 114.1,99.3 118.1,103.6 C118.3,103.8 118.4,103.9 118.6,104.1 C118.7,104.2 118.8,104.3 118.9,104.5 C119,104.6 119.1,104.8 119.3,105 C119.9,105.6 120.5,106.7 121,107.9 Z" id="Shape" class="fill-primary-100" fill-rule="nonzero"></path>
            <path d="M44.3,21.6 C44.4,21.7 44.4,21.7 44.5,21.8" id="Shape" class="stroke-primary" stroke-width="3.2" stroke-linecap="round" stroke-linejoin="round"></path>
            <path d="M11.7,77.3 C9.5,73.3 7.6,69 5.7,64.5 C3.1,57.9 1.2,51.1 0.3,44.1 C-0.8,35.2 1.9,27.6 7.7,21 C9.7,18.7 11.9,16.5 14.1,14.4 C20.1,8.6 29.3,8 35.6,13.5 C36.6,14.4 37.6,15.2 38.5,16.1" id="Shape" class="stroke-primary" stroke-width="3.2" stroke-linecap="round" stroke-linejoin="round"></path>
            <path d="M51.5,120.7 C38.7,112.4 25.9,100.5 15.8,84.2" id="Shape" class="stroke-primary" stroke-width="3.2" stroke-linecap="round" stroke-linejoin="round"></path>
            <path d="M50.1,27.8 C55.5,33.9 55.2,42.7 49.9,48.9 C48.3,50.8 46.5,52.4 44.8,54.2 C41.1,58 40.8,61.8 43.8,66.2 C51.3,76.8 60.5,85.7 71,93.2 C74.9,96 78.8,95.6 82.2,92.2 C83.9,90.5 85.6,88.7 87.4,87 C93.5,81.1 103,80.9 109.2,86.6 C113.8,90.8 118.2,95.2 122.4,99.7 C128.1,105.9 128.4,114.9 123,121.3 C116,129.5 110.2,135.7 97.7,136.4 C88.9,136.9 74.3,133.7 58.9,125.3" id="Shape" class="stroke-primary" stroke-width="3.2" stroke-linecap="round" stroke-linejoin="round"></path>
            <path d="M30.4,29.7 L15,13.8" id="Shape" class="stroke-primary" stroke-width="3.2" stroke-linecap="round" stroke-linejoin="round"></path>
            <path d="M39.6,39.2 L36.6,36.1" id="Shape" class="stroke-primary" stroke-width="3.2" stroke-linecap="round" stroke-linejoin="round"></path>
            <path d="M112.4,112.4 L87.8,86.9" id="Shape" class="stroke-primary" stroke-width="3.2" stroke-linecap="round" stroke-linejoin="round"></path>
            <path d="M129.4,6.9 L129.4,35.8 C129.4,39.2 126.6,41.9 123.3,41.9 C122.9,41.9 122.6,41.9 122.2,41.8 C119.3,41.3 117.1,38.8 117.1,35.8 L117.1,21.7 L89,49.8 C87.8,51 86.2,51.6 84.6,51.6 C84.2,51.6 83.9,51.6 83.5,51.5 C82.3,51.3 81.2,50.7 80.2,49.8 C77.8,47.4 77.8,43.5 80.2,41.1 L105.6,15.7 L108.3,13 L94.2,13 C93.8,13 93.5,13 93.1,12.9 C90.2,12.4 88,9.9 88,6.9 C88,3.5 90.8,0.8 94.1,0.8 L123,0.8 C125.2,0.8 127.1,1.9 128.2,3.6 C129.1,4.6 129.4,5.7 129.4,6.9 Z" id="Shape" class="fill-neutral" fill-rule="nonzero"></path>
            <path d="M129.4,6.9 L129.4,35.8 C129.4,39.2 126.6,41.9 123.3,41.9 C122.9,41.9 122.6,41.9 122.2,41.8 C121.6,40.8 117.8,40.2 117.8,39 L117.8,24.9 L117.1,28.5 L117.1,21.7 L89,49.8 C87.8,51 86.2,51.6 84.6,51.6 C84.2,51.6 83.9,51.6 83.5,51.5 C82,49.1 82.2,45.9 84.3,43.8 L112.4,15.7 L105.6,15.7 L108.3,13 L94.2,13 C93.8,13 93.5,13 93.1,12.9 C92.5,11.9 92.1,10.8 92.1,9.6 C92.1,6.2 94.9,3.5 98.2,3.5 L127.1,3.5 C127.5,3.5 127.8,3.5 128.2,3.6 C129.1,4.6 129.4,5.7 129.4,6.9 Z" id="Shape" class="fill-primary-100" fill-rule="nonzero"></path>
            <path d="M102.4,0.8 L100.2,0.8" id="Shape" class="stroke-primary" stroke-width="3.2" stroke-linecap="round" stroke-linejoin="round"></path>
            <path d="M94.4,0.8 C91,0.8 88.3,3.5 88.3,6.9 C88.3,10.3 91,13 94.4,13 L108.5,13 L80.4,41.1 C78,43.5 78,47.4 80.4,49.8 C81.6,51 83.2,51.6 84.7,51.6 C86.3,51.6 87.8,51 89,49.8 L117.1,21.7 L117.1,35.8 C117.1,39.2 119.8,41.9 123.2,41.9 C126.6,41.9 129.3,39.2 129.3,35.8 L129.3,6.9 C129.3,3.5 126.6,0.8 123.2,0.8 L113.5,0.8" id="Shape" class="stroke-primary" stroke-width="3.2" stroke-linecap="round" stroke-linejoin="round"></path>
        </g>
    </g>
</svg>