<?xml version="1.0" encoding="UTF-8"?>
<svg width="151px" height="122px" viewBox="0 0 151 122" version="1.1" xmlns="http://www.w3.org/2000/svg" xmlns:xlink="http://www.w3.org/1999/xlink">
    <!-- Generator: Sketch 51.2 (57519) - http://www.bohemiancoding.com/sketch -->
    <title>Cart_Pay</title>
    <desc>Created with Sketch.</desc>
    <defs></defs>
    <g id="Page-1" stroke="none" stroke-width="1" fill="none" fill-rule="evenodd">
        <g id="Cart_Pay" transform="translate(2.000000, 1.000000)">
            <g id="Group" transform="translate(15.000000, 119.000000)" class="stroke-primary-300" stroke-linecap="round" stroke-linejoin="round" stroke-width="3">
                <path d="M1.8,0.2 L0.8,0.2" id="Shape"></path>
                <path d="M91.7,0.2 L7.8,0.2" id="Shape"></path>
                <path d="M121.3,0.2 L96.5,0.2" id="Shape"></path>
                <path d="M127.4,0.2 L125.7,0.2" id="Shape"></path>
            </g>
            <path d="M127.5,29.2 C125.8,26.9 123.3,25.6 120.5,25.6 C120.5,25.6 120.5,25.6 120.4,25.6 L44,25.6 C41.5,25.6 39.5,27.6 39.5,30.1 C39.5,32.6 41.5,34.6 44,34.6 L120.2,34.6 L111,64.3 C110.4,66.4 108.5,67.8 106.3,67.8 L43,67.8 L24.7,7.7 C23.5,3.6 19.8,0.9 15.5,0.9 L4.5,0.9 C2,0.9 0,2.9 0,5.4 C0,7.9 2,9.9 4.5,9.9 L15.5,9.9 C15.8,9.9 16,10.1 16.1,10.4 L38.1,83 C39.9,88.6 45,92.3 50.8,92.3 L106.6,92.3 C109.1,92.3 111.1,90.3 111.1,87.8 C111.1,85.3 109.1,83.3 106.6,83.3 L51,83.3 C49.1,83.3 47.4,82.1 46.8,80.3 L45.8,76.8 L106.4,76.8 C112.5,76.8 117.8,72.9 119.7,67 L128.9,37.2 C129.7,34.3 129.2,31.5 127.5,29.2 Z" id="Shape" class="fill-neutral" fill-rule="nonzero"></path>
            <path d="M129.1,36.2 C129,36.5 129,36.8 128.9,37 L119.7,66.8 C117.9,72.6 112.6,76.6 106.4,76.6 L45.8,76.6 L48.6,83.6 C49.2,85.4 50.9,86.6 52.8,86.6 L106.8,86.6 C108.6,86.6 110.2,87.7 110.9,89.3 C110.2,90.9 108.6,92 106.8,92 L51,92 C45.2,92 40,88.2 38.3,82.7 L16.3,10.1 C16.2,9.8 16,9.6 15.7,9.6 L4.7,9.6 C2.9,9.6 1.3,8.5 0.6,6.9 C1.3,5.3 2.9,4.2 4.7,4.2 L15.7,4.2 C19.9,4.2 23.6,6.9 24.9,11 L43.2,67.6 L106.5,67.6 C108.7,67.6 110.6,66.2 111.2,64.1 L120.4,38 L120.3,38 L121.4,34.4 L44.2,34.4 C42.4,34.4 40.8,33.3 40.1,31.7 C40.8,30.1 42.4,29 44.2,29 L120.6,29 C123.4,29 126,30.3 127.6,32.6 C128.3,33.8 128.8,35 129.1,36.2 Z" id="Shape" class="fill-primary-200" fill-rule="nonzero"></path>
            <path d="M129.3,34.5 C129.3,32.6 128.7,30.7 127.6,29.2 C125.9,26.9 123.4,25.6 120.6,25.6 C120.6,25.6 120.6,25.6 120.5,25.6 L44.1,25.6 C41.6,25.6 39.6,27.6 39.6,30.1 C39.6,32.6 41.6,34.6 44.1,34.6 L117.1,34.6" id="Shape" class="stroke-primary" stroke-width="3" stroke-linecap="round" stroke-linejoin="round"></path>
            <path d="M86.1,83.1 L51.1,83.1 C49.2,83.1 47.5,81.9 46.9,80.1 L45.9,76.6 L84.7,76.6" id="Shape" class="stroke-primary" stroke-width="3" stroke-linecap="round" stroke-linejoin="round"></path>
            <path d="M82.5,67.7 L43.1,67.7 L24.8,7.6 C23.6,3.5 19.9,0.8 15.6,0.8 L4.6,0.8 C2.1,0.8 0.1,2.8 0.1,5.3 C0.1,7.8 2.1,9.8 4.6,9.8 L15.6,9.8 C15.9,9.8 16.1,10 16.2,10.3 L38.2,82.9 C40,88.5 45.1,92.2 50.9,92.2 L93.4,92.2" id="Shape" class="stroke-primary" stroke-width="3" stroke-linecap="round" stroke-linejoin="round"></path>
            <circle id="Oval" stroke-width="3" class="stroke-primary fill-primary-400" fill-rule="nonzero" stroke-linecap="round" stroke-linejoin="round" cx="53.1" cy="109.1" r="9.9"></circle>
            <circle id="Oval" stroke-width="3" class="stroke-primary fill-primary-100" fill-rule="nonzero" stroke-linecap="round" stroke-linejoin="round" cx="53.1" cy="109.1" r="4.7"></circle>
            <circle id="Oval" stroke-width="3" class="stroke-primary fill-primary-400" fill-rule="nonzero" stroke-linecap="round" stroke-linejoin="round" cx="100.4" cy="109.1" r="9.9"></circle>
            <circle id="Oval" stroke-width="3" class="stroke-primary fill-primary-100" fill-rule="nonzero" stroke-linecap="round" stroke-linejoin="round" cx="100.4" cy="109.1" r="4.7"></circle>
            <path d="M55.6,38.7 L55.6,62.9" id="Shape" class="stroke-primary" stroke-width="3" stroke-linecap="round" stroke-linejoin="round"></path>
            <path d="M70.8,38.7 L70.8,62.9" id="Shape" class="stroke-primary" stroke-width="3" stroke-linecap="round" stroke-linejoin="round"></path>
            <path d="M86,38.7 L86,56.3" id="Shape" class="stroke-primary" stroke-width="3" stroke-linecap="round" stroke-linejoin="round"></path>
            <path d="M101.2,54.3 L101.2,62.9" id="Shape" class="stroke-primary" stroke-width="3" stroke-linecap="round" stroke-linejoin="round"></path>
            <path d="M76.2,44.1 L90.6,44.1" id="Shape" class="stroke-primary" stroke-width="3" stroke-linecap="round" stroke-linejoin="round"></path>
            <path d="M47.7,44.1 L70.8,44.1" id="Shape" class="stroke-primary" stroke-width="3" stroke-linecap="round" stroke-linejoin="round"></path>
            <path d="M42.2,44.1 L43,44.1" id="Shape" class="stroke-primary" stroke-width="3" stroke-linecap="round" stroke-linejoin="round"></path>
            <path d="M97.5,56.6 L105.8,56.6" id="Shape" class="stroke-primary" stroke-width="3" stroke-linecap="round" stroke-linejoin="round"></path>
            <path d="M70.8,56.6 L86,56.6" id="Shape" class="stroke-primary" stroke-width="3" stroke-linecap="round" stroke-linejoin="round"></path>
            <path d="M46.9,56.6 L66.1,56.6" id="Shape" class="stroke-primary" stroke-width="3" stroke-linecap="round" stroke-linejoin="round"></path>
            <g id="Group" transform="translate(90.000000, 40.000000)">
                <path d="M52.5,13 C55.5,17.5 57.2,22.9 57.2,28.7 C57.2,44.5 44.4,57.3 28.6,57.3 C12.8,57.3 2.27373675e-13,44.5 2.27373675e-13,28.7 C2.27373675e-13,12.9 12.8,0.1 28.6,0.1 C38.6,0.1 47.4,5.2 52.5,13" id="Shape" class="fill-primary-500" fill-rule="nonzero"></path>
                <path d="M55.7,19.7 C55.8,19.9 55.8,20.2 55.9,20.4 C56.7,23 57.1,25.8 57.1,28.7 C57.1,35.1 55,40.9 51.5,45.7" id="Shape" class="stroke-primary" stroke-width="3" stroke-linecap="round" stroke-linejoin="round"></path>
                <path d="M32.8,57 C31.4,57.2 30,57.3 28.6,57.3 C12.8,57.3 0,44.5 0,28.7 C0,12.9 12.8,0.1 28.6,0.1 C37.5,0.1 45.4,4.1 50.6,10.5" id="Shape" class="stroke-primary" stroke-width="3" stroke-linecap="round" stroke-linejoin="round"></path>
                <path d="M44.9,52.1 C44.4,52.4 44,52.7 43.5,53" id="Shape" class="stroke-primary" stroke-width="3" stroke-linecap="round" stroke-linejoin="round"></path>
                <g transform="translate(10.000000, 14.000000)" fill-rule="nonzero" id="Shape">
                    <path d="M22.5,27.3 C21.4,27.3 20.3,26.9 19.5,26.1 C18.7,25.3 18.3,24.3 18.3,23.1 C18.3,22 18.7,20.9 19.5,20.1 L20.8,18.8 L6.1,18.8 C3.8,18.8 1.9,16.9 1.9,14.6 C1.9,12.3 3.8,10.4 6.1,10.4 L20.8,10.4 L19.5,9.1 C17.9,7.5 17.9,4.8 19.5,3.2 C20.3,2.4 21.3,2 22.5,2 C23.6,2 24.7,2.4 25.5,3.2 L33.9,11.6 C34.7,12.4 35.1,13.4 35.1,14.6 C35.1,15.8 34.7,16.8 33.9,17.6 L25.5,26 C24.7,26.9 23.6,27.3 22.5,27.3 Z" class="fill-neutral"></path>
                    <path d="M22.5,3.5 C23.2,3.5 23.9,3.8 24.4,4.3 L32.8,12.7 C33.3,13.2 33.6,13.9 33.6,14.6 C33.6,15.3 33.3,16 32.8,16.5 L24.4,24.9 C23.9,25.4 23.2,25.7 22.5,25.7 C21.8,25.7 21.1,25.4 20.6,24.9 C19.6,23.9 19.6,22.2 20.6,21.1 L24.5,17.2 L6.2,17.2 C4.7,17.2 3.5,16 3.5,14.5 C3.5,13 4.7,11.8 6.2,11.8 L24.5,11.8 L20.6,7.9 C19.6,6.9 19.6,5.2 20.6,4.1 C21.1,3.8 21.8,3.5 22.5,3.5 Z M22.5,0.5 C21,0.5 19.6,1.1 18.5,2.2 C17.4,3.3 16.8,4.7 16.8,6.2 C16.8,7.2 17,8.1 17.5,9 L6.2,9 C3.1,9 0.5,11.5 0.5,14.7 C0.5,17.9 3,20.4 6.2,20.4 L17.5,20.4 C17,21.2 16.8,22.2 16.8,23.2 C16.8,24.7 17.4,26.1 18.5,27.2 C19.6,28.3 21,28.9 22.5,28.9 C24,28.9 25.4,28.3 26.5,27.2 L34.9,18.8 C36,17.7 36.6,16.3 36.6,14.8 C36.6,13.3 36,11.9 34.9,10.8 L26.5,2.4 C25.5,1.1 24,0.5 22.5,0.5 Z" class="fill-primary"></path>
                </g>
            </g>
        </g>
    </g>
</svg>