<?xml version="1.0" encoding="UTF-8"?>
<svg width="153px" height="132px" viewBox="0 0 153 132" version="1.1" xmlns="http://www.w3.org/2000/svg" xmlns:xlink="http://www.w3.org/1999/xlink">
    <!-- Generator: Sketch 51.2 (57519) - http://www.bohemiancoding.com/sketch -->
    <title>Cart_Add_2</title>
    <desc>Created with Sketch.</desc>
    <defs></defs>
    <g id="Page-1" stroke="none" stroke-width="1" fill="none" fill-rule="evenodd">
        <g id="Cart_Add_2" transform="translate(2.000000, 2.000000)">
            <g id="Group" transform="translate(16.000000, 127.000000)" class="stroke-primary-300" stroke-linecap="round" stroke-linejoin="round" stroke-width="3">
                <path d="M1.6,0.9 L0.5,0.9" id="Shape"></path>
                <path d="M95.3,0.9 L7.9,0.9" id="Shape"></path>
                <path d="M126.2,0.9 L100.3,0.9" id="Shape"></path>
                <path d="M132.6,0.9 L130.8,0.9" id="Shape"></path>
            </g>
            <path d="M133,34 C131.3,31.6 128.6,30.3 125.7,30.3 C125.7,30.3 125.7,30.3 125.6,30.3 L46,30.3 C43.4,30.3 41.3,32.4 41.3,35 C41.3,37.6 43.4,39.7 46,39.7 L125.4,39.7 L115.8,70.7 C115.1,72.9 113.1,74.3 110.9,74.3 L44.9,74.3 L25.9,11.6 C24.6,7.4 20.8,4.5 16.3,4.5 L4.8,4.5 C2.2,4.5 0.1,6.6 0.1,9.2 C0.1,11.8 2.2,13.9 4.8,13.9 L16.3,13.9 C16.6,13.9 16.9,14.1 17,14.4 L40,90.1 C41.8,95.9 47.2,99.8 53.2,99.8 L111.3,99.8 C113.9,99.8 116,97.7 116,95.1 C116,92.5 113.9,90.4 111.3,90.4 L53.2,90.4 C51.2,90.4 49.4,89.1 48.8,87.2 L47.7,83.6 L110.9,83.6 C117.3,83.6 122.8,79.5 124.7,73.4 L134.3,42.3 C135.3,39.4 134.8,36.4 133,34 Z" id="Shape" class="fill-neutral" fill-rule="nonzero"></path>
            <path d="M134.6,41.3 C134.5,41.6 134.5,41.9 134.4,42.2 L124.8,73.3 C122.9,79.4 117.4,83.5 111,83.5 L47.9,83.5 L50.9,90.8 C51.5,92.7 53.2,94 55.3,94 L111.6,94 C113.5,94 115.1,95.1 115.9,96.8 C115.2,98.4 113.5,99.6 111.6,99.6 L53.5,99.6 C47.4,99.6 42.1,95.7 40.2,89.9 L17.2,14.2 C17.1,13.9 16.8,13.7 16.5,13.7 L5,13.7 C3.1,13.7 1.5,12.6 0.7,10.9 C1.4,9.3 3.1,8.1 5,8.1 L16.5,8.1 C20.9,8.1 24.8,11 26.1,15.2 L45.1,74.2 L111.1,74.2 C113.4,74.2 115.4,72.7 116,70.6 L125.6,43.4 L124.4,43.4 L125.6,39.7 L46.2,39.7 C44.3,39.7 42.6,38.6 41.9,36.9 C42.6,35.3 44.2,34.1 46.2,34.1 L125.9,34.1 C128.8,34.1 131.5,35.5 133.2,37.8 C133.8,38.9 134.4,40.1 134.6,41.3 Z" id="Shape" class="fill-primary-200" fill-rule="nonzero"></path>
            <path d="M119.5,39.6 L125.5,39.6 L115.9,70.6 C115.2,72.8 113.2,74.2 111,74.2 L45,74.2 L26,11.5 C24.7,7.3 20.9,4.4 16.4,4.4 L4.9,4.4 C2.3,4.4 0.2,6.5 0.2,9.1 C0.2,11.7 2.3,13.8 4.9,13.8 L16.4,13.8 C16.7,13.8 17,14 17.1,14.3 L40.1,90 C41.9,95.8 47.3,99.7 53.3,99.7 L111.4,99.7 C114,99.7 116.1,97.6 116.1,95 C116.1,92.4 114,90.3 111.4,90.3 L53.3,90.3 C51.3,90.3 49.5,89 48.9,87.1 L47.8,83.5 L111,83.5 C117.4,83.5 122.9,79.4 124.8,73.3 L134.4,42.2 C135.3,39.4 134.8,36.4 133,34 C131.3,31.6 128.6,30.3 125.7,30.3 C125.7,30.3 125.7,30.3 125.6,30.3 L121,30.3" id="Shape" class="stroke-primary" stroke-width="3" stroke-linecap="round" stroke-linejoin="round"></path>
            <path d="M47.3,30.3 L46.1,30.3 C43.5,30.3 41.4,32.4 41.4,35 C41.4,37.6 43.5,39.7 46.1,39.7 L48.8,39.7" id="Shape" class="stroke-primary" stroke-width="3" stroke-linecap="round" stroke-linejoin="round"></path>
            <circle id="Oval" stroke-width="3" class="stroke-primary fill-primary-400" fill-rule="nonzero" stroke-linecap="round" stroke-linejoin="round" cx="55.4" cy="117.3" r="10.3"></circle>
            <circle id="Oval" stroke-width="3" class="stroke-primary fill-primary-100" fill-rule="nonzero" stroke-linecap="round" stroke-linejoin="round" cx="55.4" cy="117.3" r="4.9"></circle>
            <circle id="Oval" stroke-width="3" class="stroke-primary fill-primary-400" fill-rule="nonzero" stroke-linecap="round" stroke-linejoin="round" cx="104.8" cy="117.3" r="10.3"></circle>
            <circle id="Oval" stroke-width="3" class="stroke-primary fill-primary-100" fill-rule="nonzero" stroke-linecap="round" stroke-linejoin="round" cx="104.8" cy="117.3" r="4.9"></circle>
            <g id="Group" transform="translate(53.000000, 0.000000)">
                <path d="M47.3,54.8 C42.6,57.9 37,59.7 31,59.7 C14.5,59.7 1.2,46.4 1.2,29.9 C1.2,13.4 14.5,0.1 31,0.1 C47.5,0.1 60.8,13.4 60.8,29.9 C60.7,40.3 55.4,49.5 47.3,54.8" id="Shape" class="fill-primary-500" fill-rule="nonzero"></path>
                <path d="M40.1,58.5 C39.8,58.6 39.6,58.6 39.3,58.7 C36.6,59.5 33.7,60 30.7,60 C24.1,60 17.9,57.8 13,54.2" id="Shape" class="stroke-primary" stroke-width="3" stroke-linecap="round" stroke-linejoin="round"></path>
                <path d="M1.2,34.6 C1,33.2 0.9,31.7 0.9,30.2 C0.9,13.7 14.2,0.4 30.7,0.4 C47.2,0.4 60.5,13.7 60.5,30.2 C60.5,39.4 56.3,47.7 49.7,53.2" id="Shape" class="stroke-primary" stroke-width="3" stroke-linecap="round" stroke-linejoin="round"></path>
                <path d="M6.2,47.2 C5.9,46.7 5.5,46.2 5.2,45.7" id="Shape" class="stroke-primary" stroke-width="3" stroke-linecap="round" stroke-linejoin="round"></path>
                <g transform="translate(13.000000, 12.000000)" fill-rule="nonzero" id="Shape">
                    <path d="M17.9,33.7 C15.9,33.7 13.7,32.2 13.7,29.5 L13.7,22.1 L6.3,22.1 C3.6,22.1 2.1,19.9 2.1,17.9 C2.1,16.8 2.5,15.8 3.1,15 C3.9,14.1 5,13.6 6.2,13.6 L13.6,13.6 L13.6,6.2 C13.6,3.5 15.8,2 17.8,2 C19.8,2 22,3.5 22,6.2 L22,13.6 L29.4,13.6 C30.7,13.6 31.8,14.1 32.5,15 C33.2,15.8 33.5,16.8 33.5,17.9 C33.5,19.9 32,22.1 29.3,22.1 L21.9,22.1 L21.9,29.5 C22.2,32.3 20,33.7 17.9,33.7 Z" class="fill-neutral"></path>
                    <path d="M17.9,3.5 C19.3,3.5 20.6,4.4 20.6,6.2 C20.6,8.1 20.6,11.5 20.6,15.1 C24.2,15.1 27.6,15.1 29.5,15.1 C33.1,15.1 33.1,20.5 29.5,20.5 C27.6,20.5 24.2,20.5 20.6,20.5 C20.6,24.1 20.6,27.5 20.6,29.4 C20.6,31.2 19.2,32.1 17.9,32.1 C16.5,32.1 15.2,31.2 15.2,29.4 C15.2,27.5 15.2,24.1 15.2,20.5 C11.6,20.5 8.2,20.5 6.3,20.5 C2.7,20.5 2.7,15.1 6.3,15.1 C8.2,15.1 11.6,15.1 15.2,15.1 C15.2,11.5 15.2,8.1 15.2,6.2 C15.2,4.4 16.6,3.5 17.9,3.5 Z M17.9,0.5 C16.5,0.5 15.1,1 14,1.9 C12.8,3 12.1,4.5 12.1,6.2 L12.1,12.1 L6.2,12.1 C3,12.1 0.5,14.6 0.5,17.8 C0.5,19.2 1,20.6 1.9,21.7 C3,22.9 4.5,23.6 6.2,23.6 L12.1,23.6 L12.1,29.5 C12.1,32.7 14.6,35.2 17.8,35.2 C21.1,35.2 23.5,32.8 23.5,29.5 L23.5,23.6 L29.4,23.6 C32.6,23.6 35.1,21.1 35.1,17.9 C35.1,14.6 32.7,12.2 29.4,12.2 L23.5,12.2 L23.5,6.3 C23.7,3 21.2,0.5 17.9,0.5 Z" class="fill-primary"></path>
                </g>
            </g>
        </g>
    </g>
</svg>
