<?xml version="1.0" encoding="UTF-8"?>
<svg width="149px" height="135px" viewBox="0 0 149 135" version="1.1" xmlns="http://www.w3.org/2000/svg" xmlns:xlink="http://www.w3.org/1999/xlink">
    <!-- Generator: Sketch 51.2 (57519) - http://www.bohemiancoding.com/sketch -->
    <title>Cash_Withdraw</title>
    <desc>Created with Sketch.</desc>
    <defs></defs>
    <g id="Page-1" stroke="none" stroke-width="1" fill="none" fill-rule="evenodd">
        <g id="Cash_Withdraw" transform="translate(1.000000, 1.000000)">
            <polyline id="Shape" class="fill-neutral" fill-rule="nonzero" points="19.4 47.2 8.5 47.2 8.5 0.9 141.9 0.9 141.9 47.2 121.2 47.2"></polyline>
            <polyline id="Shape" class="fill-primary-200" fill-rule="nonzero" points="19.4 47.2 8.5 47.2 8.5 0.9 141.9 0.9 141.9 47.2 121.2 47.2"></polyline>
            <polyline id="Shape" class="stroke-primary" stroke-width="3" stroke-linecap="round" stroke-linejoin="round" points="75.5 0.9 141.9 0.9 141.9 47.2 121.2 47.2"></polyline>
            <path d="M35,0.9 L58.2,0.9" id="Shape" class="stroke-primary" stroke-width="3" stroke-linecap="round" stroke-linejoin="round"></path>
            <polyline id="Shape" class="stroke-primary" stroke-width="3" stroke-linecap="round" stroke-linejoin="round" points="19.4 47.2 8.5 47.2 8.5 0.9 24.5 0.9"></polyline>
            <polyline id="Shape" class="fill-primary-500" fill-rule="nonzero" points="23.1 47.1 23.1 14.2 126.7 14.2 126.7 47.2"></polyline>
            <polyline id="Shape" class="stroke-primary" stroke-width="3" stroke-linecap="round" stroke-linejoin="round" points="23.1 40.6 23.1 14.2 126.7 14.2 126.7 47.2"></polyline>
            <polygon id="Shape" class="fill-primary-100" fill-rule="nonzero" points="120.3 25.3 120.3 47.2 104.2 77.1 15.2 77.1 15.2 54.6 31.8 25.3"></polygon>
            <polygon id="Shape" class="fill-neutral" fill-rule="nonzero" points="85.6 25.1 67.1 53.7 66.7 77 53 77 53.1 54.5 69.9 25.1"></polygon>
            <polyline id="Shape" class="stroke-primary" stroke-width="3" stroke-linecap="round" stroke-linejoin="round" points="104.1 63.2 104.1 54.6 120.3 25.3 31.8 25.3 15.2 54.6 15.2 77.1 104.2 77.1"></polyline>
            <path d="M70.2,54.6 L15.2,54.6" id="Shape" class="stroke-primary" stroke-width="3" stroke-linecap="round" stroke-linejoin="round"></path>
            <path d="M81.2,54.6 L75.8,54.6" id="Shape" class="stroke-primary" stroke-width="3" stroke-linecap="round" stroke-linejoin="round"></path>
            <path d="M104.1,54.6 L93.1,54.6" id="Shape" class="stroke-primary" stroke-width="3" stroke-linecap="round" stroke-linejoin="round"></path>
            <polyline id="Shape" class="stroke-primary" stroke-width="3" stroke-linecap="round" stroke-linejoin="round" points="120.3 25.3 120.3 47.2 104.2 77.1"></polyline>
            <path d="M61.1,40 L69.6,25.8" id="Shape" class="stroke-primary" stroke-width="3" stroke-linecap="round" stroke-linejoin="round"></path>
            <polyline id="Shape" class="stroke-primary" stroke-width="3" stroke-linecap="round" stroke-linejoin="round" points="52.3 77.1 52.3 54.6 57.7 45.5"></polyline>
            <polyline id="Shape" class="stroke-primary" stroke-width="3" stroke-linecap="round" stroke-linejoin="round" points="65.7 77.1 65.7 54.6 83.1 25.8"></polyline>
            <path d="M57.7,45.5 C51.6,44.2 47.5,41.8 47.5,39.1 C47.5,35.3 55.6,32.1 66,31.7" id="Shape" class="stroke-primary" stroke-width="3" stroke-linecap="round" stroke-linejoin="round"></path>
            <path d="M78.9,32.7 C85.1,34 89.2,36.4 89.2,39.1 C89.2,42.9 81,46.1 70.6,46.5" id="Shape" class="stroke-primary" stroke-width="3" stroke-linecap="round" stroke-linejoin="round"></path>
            <g id="Group" transform="translate(0.000000, 81.000000)" class="stroke-primary" stroke-linecap="round" stroke-linejoin="round" stroke-width="3">
                <path d="M111.6,33.4 C111.6,33.4 111.6,33.4 111.6,33.4 C104.1,35.9 106,35.3 103.4,36.2 C59.9,51 59.7,52.3 53.4,50.1 C31.9,42.9 32.3,43.2 30.2,41.6 C3,20.7 2.3,21.2 1.2,16.8 C1.2,16.8 1.2,16.8 1.2,16.8 C1.2,16.6 1.1,16.5 1.1,16.3 C1.1,16.3 0.9,15.4 0.9,14.4 C0.9,6.9 9.2,2.1 15.7,6.2 C15.9,6.3 35.2,18.1 41.8,22.1 L47.1,25.3" id="Shape"></path>
                <path d="M146.2,45.3 L132.7,45.3 C120.3,45.3 110.3,35.3 110.3,22.9 C110.3,10.5 120.3,0.5 132.7,0.5 L146.2,0.5" id="Shape"></path>
                <path d="M64.8,27.6 L53.3,27.6 C47.9,27.6 43.6,23.3 43.6,17.9 C43.6,12.5 47.9,8.2 53.3,8.2 L113.3,11.7" id="Shape"></path>
            </g>
        </g>
    </g>
</svg>