<?xml version="1.0" encoding="UTF-8"?>
<svg width="151px" height="136px" viewBox="0 0 151 136" version="1.1" xmlns="http://www.w3.org/2000/svg" xmlns:xlink="http://www.w3.org/1999/xlink">
    <!-- Generator: Sketch 51.2 (57519) - http://www.bohemiancoding.com/sketch -->
    <title>Cash</title>
    <desc>Created with Sketch.</desc>
    <defs></defs>
    <g id="Page-1" stroke="none" stroke-width="1" fill="none" fill-rule="evenodd">
        <g id="Cash" transform="translate(1.000000, 1.000000)">
            <g id="Group" transform="translate(114.000000, 71.000000)">
                <path d="M33.8,6 C33.8,3.2 26.3,0.9 17.1,0.9 C7.9,0.9 0.4,3.2 0.4,6 C0.4,6 0.4,6.1 0.4,6.1 L0.4,33.1 C0.5,34.2 1.7,35.3 3.8,36.1 C3.8,36.1 3.8,36.1 3.8,36.1 C4,36.2 4.1,36.2 4.3,36.3 C4.3,36.3 4.3,36.3 4.3,36.3 C4.5,36.4 4.6,36.4 4.8,36.5 C4.8,36.5 4.8,36.5 4.8,36.5 C5,36.6 5.1,36.6 5.3,36.7 C5.3,36.7 5.3,36.7 5.4,36.7 C5.6,36.8 5.7,36.8 5.9,36.8 C5.9,36.8 6,36.8 6,36.8 C6.2,36.8 6.3,36.9 6.5,36.9 C6.5,36.9 6.6,36.9 6.6,36.9 C6.8,36.9 6.9,37 7.1,37 C7.1,37 7.2,37 7.2,37 C7.4,37 7.5,37.1 7.7,37.1 C7.8,37.1 7.8,37.1 7.9,37.1 C8.1,37.1 8.2,37.2 8.4,37.2 C8.5,37.2 8.5,37.2 8.6,37.2 C8.8,37.2 8.9,37.3 9.1,37.3 C9.2,37.3 9.3,37.3 9.3,37.3 C9.5,37.3 9.6,37.4 9.8,37.4 C9.9,37.4 10,37.4 10.1,37.4 C10.3,37.4 10.4,37.4 10.6,37.5 C10.7,37.5 10.8,37.5 10.9,37.5 C11.1,37.5 11.2,37.5 11.4,37.6 C11.5,37.6 11.6,37.6 11.7,37.6 C11.8,37.6 12,37.6 12.1,37.6 C12.2,37.6 12.3,37.6 12.5,37.6 C12.6,37.6 12.8,37.6 12.9,37.6 C13,37.6 13.2,37.6 13.3,37.6 C13.4,37.6 13.6,37.6 13.7,37.6 C13.8,37.6 14,37.6 14.1,37.6 C14.2,37.6 14.4,37.6 14.5,37.6 C14.7,37.6 14.8,37.6 15,37.6 C15.1,37.6 15.2,37.6 15.4,37.6 C15.6,37.6 15.8,37.6 16,37.6 C16.1,37.6 16.2,37.6 16.3,37.6 C16.6,37.6 16.9,37.6 17.2,37.6 C17.5,37.6 17.8,37.6 18.1,37.6 C18.2,37.6 18.3,37.6 18.4,37.6 C18.6,37.6 18.8,37.6 19,37.6 C19.1,37.6 19.2,37.6 19.3,37.6 C19.5,37.6 19.6,37.6 19.8,37.6 C19.9,37.6 20.1,37.6 20.2,37.6 C20.3,37.6 20.5,37.6 20.6,37.6 C20.7,37.6 20.9,37.6 21,37.6 C21.1,37.6 21.3,37.6 21.4,37.6 C21.5,37.6 21.7,37.6 21.8,37.6 C21.9,37.6 22,37.6 22.2,37.6 C22.3,37.6 22.5,37.6 22.6,37.6 C22.7,37.6 22.8,37.6 22.9,37.6 C23.1,37.6 23.2,37.6 23.4,37.5 C23.5,37.5 23.6,37.5 23.7,37.5 C23.9,37.5 24,37.5 24.2,37.4 C24.3,37.4 24.4,37.4 24.5,37.4 C24.7,37.4 24.8,37.4 25,37.3 C25.1,37.3 25.2,37.3 25.2,37.3 C25.4,37.3 25.5,37.2 25.7,37.2 C25.8,37.2 25.8,37.2 25.9,37.2 C26.1,37.2 26.2,37.1 26.4,37.1 C26.5,37.1 26.5,37.1 26.6,37.1 C26.8,37.1 26.9,37 27.1,37 C27.1,37 27.2,37 27.2,37 C27.4,37 27.5,36.9 27.7,36.9 C27.7,36.9 27.8,36.9 27.8,36.9 C28,36.9 28.1,36.8 28.3,36.8 C28.3,36.8 28.4,36.8 28.4,36.8 C28.6,36.8 28.7,36.7 28.9,36.7 C28.9,36.7 28.9,36.7 29,36.7 C29.2,36.6 29.3,36.6 29.5,36.5 C29.5,36.5 29.5,36.5 29.6,36.5 C29.8,36.4 29.9,36.4 30.1,36.3 C30.1,36.3 30.1,36.3 30.1,36.3 C30.3,36.2 30.4,36.2 30.6,36.1 C30.6,36.1 30.6,36.1 30.6,36.1 C30.8,36 30.9,36 31.1,35.9 C31.1,35.9 31.1,35.9 31.1,35.9 C32.9,35.1 34,34.1 34,33.1 L34,6 L33.8,6 C33.8,6.1 33.8,6 33.8,6 Z" id="Shape" class="fill-neutral" fill-rule="nonzero"></path>
                <path d="M33.8,6.1 L33.8,33.1 C33.8,34.4 32,35.4 30.9,35.9 C26.9,37.7 20.7,38.3 14.9,38 C7.4,37.7 0.6,35.9 0.5,33.1 L0.5,6.1 C0.5,6.1 0.5,6 0.5,6 C0.5,3.2 8,0.9 17.2,0.9 C26.4,0.9 33.8,3.2 33.8,6.1 C33.8,6 33.8,6.1 33.8,6.1 Z" id="Shape" class="fill-primary-200" fill-rule="nonzero"></path>
                <path d="M9.9,16 C4.3,15.2 0.4,13.4 0.4,11.4" id="Shape" class="stroke-primary" stroke-width="3" stroke-linecap="round" stroke-linejoin="round"></path>
                <path d="M33.8,11.4 C33.8,14.2 26.3,16.5 17.1,16.5 C16.6,16.5 16.1,16.5 15.5,16.5" id="Shape" class="stroke-primary" stroke-width="3" stroke-linecap="round" stroke-linejoin="round"></path>
                <path d="M33.8,16.8 C33.8,19.6 26.3,21.9 17.1,21.9 C7.9,21.9 0.4,19.6 0.4,16.8" id="Shape" class="stroke-primary" stroke-width="3" stroke-linecap="round" stroke-linejoin="round"></path>
                <path d="M33.8,22.2 C33.8,25 26.3,27.3 17.1,27.3 C8,27.3 0.6,25.1 0.4,22.3" id="Shape" class="stroke-primary" stroke-width="3" stroke-linecap="round" stroke-linejoin="round"></path>
                <path d="M33.8,27.9 C33.4,30.6 26.1,32.8 17.1,32.8 C7.9,32.8 0.4,30.5 0.4,27.7" id="Shape" class="stroke-primary" stroke-width="3" stroke-linecap="round" stroke-linejoin="round"></path>
                <path d="M33.8,6 C33.8,3.2 26.3,0.9 17.1,0.9 C7.9,0.9 0.4,3.2 0.4,6 C0.4,6 0.4,6.1 0.4,6.1 L0.4,33.1 C0.6,36.3 9.3,37.6 12.5,37.9 C23.1,38.8 33.8,36.4 33.8,33.1 L33.8,6 C33.8,6.1 33.8,6 33.8,6 Z" id="Shape" class="stroke-primary" stroke-width="3" stroke-linecap="round" stroke-linejoin="round"></path>
                <ellipse id="Oval" class="fill-neutral" fill-rule="nonzero" cx="17.1" cy="6" rx="16.7" ry="5.1"></ellipse>
                <ellipse id="Oval" class="fill-primary-100" fill-rule="nonzero" cx="17.1" cy="6.6" rx="14.9" ry="4.6"></ellipse>
                <path d="M22.3,10.9 C22,10.9 21.7,11 21.4,11" id="Shape" class="stroke-primary" stroke-width="3" stroke-linecap="round" stroke-linejoin="round"></path>
                <path d="M17,11.1 C7.8,11.1 0.4,8.8 0.4,6 C0.4,3.2 7.9,0.9 17.1,0.9 C26.3,0.9 33.8,3.2 33.8,6 C33.8,7.9 30.6,9.5 25.8,10.4" id="Shape" class="stroke-primary" stroke-width="3" stroke-linecap="round" stroke-linejoin="round"></path>
            </g>
            <g id="Group" transform="translate(114.000000, 45.000000)">
                <path d="M33.8,5.1 C33.8,2.3 26.3,0 17.1,0 C7.9,0 0.4,2.3 0.4,5.1 C0.4,5.1 0.4,5.2 0.4,5.2 L0.4,32.2 C0.5,33.3 1.7,34.4 3.8,35.2 C3.8,35.2 3.8,35.2 3.8,35.2 C4,35.3 4.1,35.3 4.3,35.4 C4.3,35.4 4.3,35.4 4.3,35.4 C4.5,35.5 4.6,35.5 4.8,35.6 C4.8,35.6 4.8,35.6 4.8,35.6 C5,35.7 5.1,35.7 5.3,35.8 C5.3,35.8 5.3,35.8 5.4,35.8 C5.6,35.9 5.7,35.9 5.9,35.9 C5.9,35.9 6,35.9 6,35.9 C6.2,35.9 6.3,36 6.5,36 C6.5,36 6.6,36 6.6,36 C6.8,36 6.9,36.1 7.1,36.1 C7.1,36.1 7.2,36.1 7.2,36.1 C7.4,36.1 7.5,36.2 7.7,36.2 C7.8,36.2 7.8,36.2 7.9,36.2 C8.1,36.2 8.2,36.3 8.4,36.3 C8.5,36.3 8.5,36.3 8.6,36.3 C8.8,36.3 8.9,36.4 9.1,36.4 C9.2,36.4 9.3,36.4 9.3,36.4 C9.5,36.4 9.6,36.5 9.8,36.5 C9.9,36.5 10,36.5 10.1,36.5 C10.3,36.5 10.4,36.5 10.6,36.6 C10.7,36.6 10.8,36.6 10.9,36.6 C11.1,36.6 11.2,36.6 11.4,36.7 C11.5,36.7 11.6,36.7 11.7,36.7 C11.8,36.7 12,36.7 12.1,36.7 C12.2,36.7 12.3,36.7 12.5,36.7 C12.6,36.7 12.8,36.7 12.9,36.7 C13,36.7 13.2,36.7 13.3,36.7 C13.4,36.7 13.6,36.7 13.7,36.7 C13.8,36.7 14,36.7 14.1,36.7 C14.2,36.7 14.4,36.7 14.5,36.7 C14.7,36.7 14.8,36.7 15,36.7 C15.1,36.7 15.2,36.7 15.4,36.7 C15.6,36.7 15.8,36.7 16,36.7 C16.1,36.7 16.2,36.7 16.3,36.7 C16.6,36.7 16.9,36.7 17.2,36.7 C17.5,36.7 17.8,36.7 18.1,36.7 C18.2,36.7 18.3,36.7 18.4,36.7 C18.6,36.7 18.8,36.7 19,36.7 C19.1,36.7 19.2,36.7 19.3,36.7 C19.5,36.7 19.6,36.7 19.8,36.7 C19.9,36.7 20.1,36.7 20.2,36.7 C20.3,36.7 20.5,36.7 20.6,36.7 C20.7,36.7 20.9,36.7 21,36.7 C21.1,36.7 21.3,36.7 21.4,36.7 C21.5,36.7 21.7,36.7 21.8,36.7 C21.9,36.7 22,36.7 22.2,36.7 C22.3,36.7 22.5,36.7 22.6,36.7 C22.7,36.7 22.8,36.7 22.9,36.7 C23.1,36.7 23.2,36.7 23.4,36.6 C23.5,36.6 23.6,36.6 23.7,36.6 C23.9,36.6 24,36.6 24.2,36.5 C24.3,36.5 24.4,36.5 24.5,36.5 C24.7,36.5 24.8,36.5 25,36.4 C25.1,36.4 25.2,36.4 25.2,36.4 C25.4,36.4 25.5,36.3 25.7,36.3 C25.8,36.3 25.8,36.3 25.9,36.3 C26.1,36.3 26.2,36.2 26.4,36.2 C26.5,36.2 26.5,36.2 26.6,36.2 C26.8,36.2 26.9,36.1 27.1,36.1 C27.1,36.1 27.2,36.1 27.2,36.1 C27.4,36.1 27.5,36 27.7,36 C27.7,36 27.8,36 27.8,36 C28,36 28.1,35.9 28.3,35.9 C28.3,35.9 28.4,35.9 28.4,35.9 C28.6,35.9 28.7,35.8 28.9,35.8 C28.9,35.8 28.9,35.8 29,35.8 C29.2,35.7 29.3,35.7 29.5,35.6 C29.5,35.6 29.5,35.6 29.6,35.6 C29.8,35.5 29.9,35.5 30.1,35.4 C30.1,35.4 30.1,35.4 30.1,35.4 C30.3,35.3 30.4,35.3 30.6,35.2 C30.6,35.2 30.6,35.2 30.6,35.2 C30.8,35.1 30.9,35.1 31.1,35 C31.1,35 31.1,35 31.1,35 C32.9,34.2 34,33.2 34,32.2 L34,5.1 L33.8,5.1 C33.8,5.1 33.8,5.1 33.8,5.1 Z" id="Shape" class="fill-neutral" fill-rule="nonzero"></path>
                <path d="M33.8,5.2 L33.8,32.2 C33.8,33.5 32,34.5 30.9,35 C26.9,36.8 20.7,37.4 14.9,37.1 C7.4,36.8 0.6,35 0.5,32.2 L0.5,5.2 C0.5,5.2 0.5,5.1 0.5,5.1 C0.5,2.3 8,0 17.2,0 C26.4,0 33.8,2.2 33.8,5.2 C33.8,5.1 33.8,5.1 33.8,5.2 Z" id="Shape" class="fill-primary-200" fill-rule="nonzero"></path>
                <path d="M33.8,10.5 C33.8,13.3 26.3,15.6 17.1,15.6 C7.9,15.6 0.4,13.3 0.4,10.5" id="Shape" class="stroke-primary" stroke-width="3" stroke-linecap="round" stroke-linejoin="round"></path>
                <path d="M33.8,15.9 C33.8,18.7 26.3,21 17.1,21 C7.9,21 0.4,18.7 0.4,15.9" id="Shape" class="stroke-primary" stroke-width="3" stroke-linecap="round" stroke-linejoin="round"></path>
                <path d="M20.9,26.3 C19.7,26.4 18.4,26.4 17.1,26.4 C8,26.4 0.6,24.2 0.4,21.4" id="Shape" class="stroke-primary" stroke-width="3" stroke-linecap="round" stroke-linejoin="round"></path>
                <path d="M33.8,21.3 C33.8,23 31,24.5 26.8,25.5" id="Shape" class="stroke-primary" stroke-width="3" stroke-linecap="round" stroke-linejoin="round"></path>
                <path d="M33.8,26.9 C33.4,29.6 26.1,31.8 17.1,31.8 C7.9,31.8 0.4,29.5 0.4,26.7" id="Shape" class="stroke-primary" stroke-width="3" stroke-linecap="round" stroke-linejoin="round"></path>
                <path d="M33.8,5.1 C33.8,2.3 26.3,0 17.1,0 C7.9,0 0.4,2.3 0.4,5.1 C0.4,5.1 0.4,5.2 0.4,5.2 L0.4,32.2 C0.6,35.4 9.3,36.7 12.5,37 C23.1,37.9 33.8,35.5 33.8,32.2 L33.8,5.1 C33.8,5.1 33.8,5.1 33.8,5.1 Z" id="Shape" class="stroke-primary" stroke-width="3" stroke-linecap="round" stroke-linejoin="round"></path>
                <ellipse id="Oval" class="fill-neutral" fill-rule="nonzero" cx="17.1" cy="5.1" rx="16.7" ry="5.1"></ellipse>
                <ellipse id="Oval" class="fill-primary-100" fill-rule="nonzero" cx="17.1" cy="5.6" rx="14.9" ry="4.6"></ellipse>
                <path d="M22.3,9.9 C22,9.9 21.7,10 21.4,10" id="Shape" class="stroke-primary" stroke-width="3" stroke-linecap="round" stroke-linejoin="round"></path>
                <path d="M17,10.2 C7.8,10.2 0.4,7.9 0.4,5.1 C0.4,2.3 7.9,0 17.1,0 C26.3,0 33.8,2.3 33.8,5.1 C33.8,7 30.6,8.6 25.8,9.5" id="Shape" class="stroke-primary" stroke-width="3" stroke-linecap="round" stroke-linejoin="round"></path>
            </g>
            <g id="Group" transform="translate(45.000000, 114.000000)">
                <path d="M39.1,13.8 L39.1,5.9 C39.1,5.9 39.1,5.8 39.1,5.8 C39.1,2.6 30.6,0 20,0 C9.5,0 0.9,2.6 0.9,5.8 C0.9,5.8 0.9,5.9 0.9,5.9 L0.9,13.3" id="Shape" class="fill-neutral" fill-rule="nonzero"></path>
                <path d="M0.9,12.9 L0.9,5.9 C0.9,5.9 0.9,5.8 0.9,5.8 C0.9,2.6 9.4,0 20,0 C30.6,0 39.1,2.6 39.1,5.8 C39.1,5.8 39.1,5.9 39.1,5.9 L39.1,13.6 C39.1,13.6 29.3,18.7 17.5,17.6 C5.7,16.5 1.1,13 1.1,13" id="Shape" class="fill-primary-200" fill-rule="nonzero"></path>
                <path d="M39.1,12 C39.1,15.2 30.6,17.8 20,17.8 C9.4,17.8 0.9,15.2 0.9,12" id="Shape" class="stroke-primary" stroke-width="3" stroke-linecap="round" stroke-linejoin="round"></path>
                <path d="M39.1,12.2 L39.1,6 C39.1,6 39.1,5.9 39.1,5.9 C39.1,2.7 30.6,0.1 20,0.1 C9.5,0.1 0.9,2.7 0.9,5.9 C0.9,5.9 0.9,6 0.9,6 L0.9,12.2" id="Shape" class="stroke-primary" stroke-width="3" stroke-linecap="round" stroke-linejoin="round"></path>
                <ellipse id="Oval" class="fill-neutral" fill-rule="nonzero" cx="20" cy="5.8" rx="19.1" ry="5.8"></ellipse>
                <ellipse id="Oval" class="fill-primary-100" fill-rule="nonzero" cx="20" cy="6.5" rx="17" ry="5.2"></ellipse>
                <path d="M25.9,11.4 C25.6,11.4 25.2,11.5 24.9,11.5" id="Shape" class="stroke-primary" stroke-width="3" stroke-linecap="round" stroke-linejoin="round"></path>
                <path d="M19.9,11.7 C9.4,11.7 0.9,9.1 0.9,5.9 C0.9,2.7 9.4,0.1 20,0.1 C30.6,0.1 39.1,2.7 39.1,5.9 C39.1,8 35.4,9.9 29.9,10.9" id="Shape" class="stroke-primary" stroke-width="3" stroke-linecap="round" stroke-linejoin="round"></path>
            </g>
            <g id="Group" transform="translate(0.000000, 17.000000)">
                <g transform="translate(20.000000, 54.000000)">
                    <path d="M34.3,5.8 C34.3,3 26.8,0.7 17.6,0.7 C8.4,0.7 0.9,3 0.9,5.8 C0.9,5.8 0.9,5.9 0.9,5.9 L0.9,32.9 C1,34 2.2,35.1 4.3,35.9 C4.3,35.9 4.3,35.9 4.3,35.9 C4.5,36 4.6,36 4.8,36.1 C4.8,36.1 4.8,36.1 4.8,36.1 C5,36.2 5.1,36.2 5.3,36.3 C5.3,36.3 5.3,36.3 5.3,36.3 C5.5,36.4 5.6,36.4 5.8,36.5 C5.8,36.5 5.8,36.5 5.9,36.5 C6.1,36.6 6.2,36.6 6.4,36.6 C6.4,36.6 6.5,36.6 6.5,36.6 C6.7,36.6 6.8,36.7 7,36.7 C7,36.7 7.1,36.7 7.1,36.7 C7.3,36.7 7.4,36.8 7.6,36.8 C7.6,36.8 7.7,36.8 7.7,36.8 C7.9,36.8 8,36.9 8.2,36.9 C8.3,36.9 8.3,36.9 8.4,36.9 C8.6,36.9 8.7,37 8.9,37 C9,37 9,37 9.1,37 C9.3,37 9.4,37.1 9.6,37.1 C9.7,37.1 9.8,37.1 9.8,37.1 C10,37.1 10.1,37.2 10.3,37.2 C10.4,37.2 10.5,37.2 10.6,37.2 C10.8,37.2 10.9,37.2 11.1,37.3 C11.2,37.3 11.3,37.3 11.4,37.3 C11.6,37.3 11.7,37.3 11.9,37.4 C12,37.4 12.1,37.4 12.2,37.4 C12.3,37.4 12.5,37.4 12.6,37.4 C12.7,37.4 12.8,37.4 13,37.4 C13.1,37.4 13.3,37.4 13.4,37.4 C13.5,37.4 13.7,37.4 13.8,37.4 C13.9,37.4 14.1,37.4 14.2,37.4 C14.3,37.4 14.5,37.4 14.6,37.4 C14.7,37.4 14.9,37.4 15,37.4 C15.2,37.4 15.3,37.4 15.5,37.4 C15.6,37.4 15.7,37.4 15.9,37.4 C16.1,37.4 16.3,37.4 16.5,37.4 C16.6,37.4 16.7,37.4 16.8,37.4 C17.1,37.4 17.4,37.4 17.7,37.4 C18,37.4 18.3,37.4 18.6,37.4 C18.7,37.4 18.8,37.4 18.9,37.4 C19.1,37.4 19.3,37.4 19.5,37.4 C19.6,37.4 19.7,37.4 19.8,37.4 C20,37.4 20.1,37.4 20.3,37.4 C20.4,37.4 20.6,37.4 20.7,37.4 C20.8,37.4 21,37.4 21.1,37.4 C21.2,37.4 21.4,37.4 21.5,37.4 C21.6,37.4 21.8,37.4 21.9,37.4 C22,37.4 22.2,37.4 22.3,37.4 C22.4,37.4 22.5,37.4 22.7,37.4 C22.8,37.4 23,37.4 23.1,37.4 C23.2,37.4 23.3,37.4 23.4,37.4 C23.6,37.4 23.7,37.4 23.9,37.3 C24,37.3 24.1,37.3 24.2,37.3 C24.4,37.3 24.5,37.3 24.7,37.2 C24.8,37.2 24.9,37.2 25,37.2 C25.2,37.2 25.3,37.2 25.5,37.1 C25.6,37.1 25.7,37.1 25.7,37.1 C25.9,37.1 26,37 26.2,37 C26.3,37 26.3,37 26.4,37 C26.6,37 26.7,36.9 26.9,36.9 C27,36.9 27,36.9 27.1,36.9 C27.3,36.9 27.4,36.8 27.6,36.8 C27.6,36.8 27.7,36.8 27.7,36.8 C27.9,36.8 28,36.7 28.2,36.7 C28.2,36.7 28.3,36.7 28.3,36.7 C28.5,36.7 28.6,36.6 28.8,36.6 C28.8,36.6 28.9,36.6 28.9,36.6 C29.1,36.6 29.2,36.5 29.4,36.5 C29.4,36.5 29.4,36.5 29.5,36.5 C29.7,36.4 29.8,36.4 30,36.3 C30,36.3 30,36.3 30.1,36.3 C30.3,36.2 30.4,36.2 30.6,36.1 C30.6,36.1 30.6,36.1 30.6,36.1 C30.8,36 30.9,36 31.1,35.9 C31.1,35.9 31.1,35.9 31.1,35.9 C31.3,35.8 31.4,35.8 31.6,35.7 C31.6,35.7 31.6,35.7 31.6,35.7 C33.4,34.9 34.5,33.9 34.5,32.9 L34.5,5.8 L34.3,5.8 C34.3,5.9 34.3,5.9 34.3,5.8 Z" id="Shape" class="fill-neutral" fill-rule="nonzero"></path>
                    <path d="M34.3,5.9 L34.3,32.9 C34.3,34.2 32.5,35.2 31.4,35.7 C27.4,37.5 21.2,38.1 15.4,37.8 C7.9,37.5 1.1,35.7 1,32.9 L1,5.9 C1,5.9 1,5.8 1,5.8 C1,3 8.5,0.7 17.7,0.7 C26.9,0.7 34.3,3 34.3,5.9 C34.3,5.9 34.3,5.9 34.3,5.9 Z" id="Shape" class="fill-primary-200" fill-rule="nonzero"></path>
                    <path d="M34.3,11.2 C34.3,14 26.8,16.3 17.6,16.3 C8.4,16.3 0.9,14 0.9,11.2" id="Shape" class="stroke-primary" stroke-width="3" stroke-linecap="round" stroke-linejoin="round"></path>
                    <path d="M34.3,16.6 C34.3,19.4 26.8,21.7 17.6,21.7 C8.4,21.7 0.9,19.4 0.9,16.6" id="Shape" class="stroke-primary" stroke-width="3" stroke-linecap="round" stroke-linejoin="round"></path>
                    <path d="M21.4,27 C20.2,27.1 18.9,27.1 17.6,27.1 C8.5,27.1 1.1,24.9 0.9,22.1" id="Shape" class="stroke-primary" stroke-width="3" stroke-linecap="round" stroke-linejoin="round"></path>
                    <path d="M34.3,22.1 C34.3,23.8 31.5,25.3 27.3,26.3" id="Shape" class="stroke-primary" stroke-width="3" stroke-linecap="round" stroke-linejoin="round"></path>
                    <path d="M34.3,27.7 C33.9,30.4 26.6,32.6 17.6,32.6 C8.4,32.6 0.9,30.3 0.9,27.5" id="Shape" class="stroke-primary" stroke-width="3" stroke-linecap="round" stroke-linejoin="round"></path>
                    <path d="M34.3,5.8 C34.3,3 26.8,0.7 17.6,0.7 C8.4,0.7 0.9,3 0.9,5.8 C0.9,5.8 0.9,5.9 0.9,5.9 L0.9,32.9 C1.1,36.1 9.8,37.4 13,37.7 C23.6,38.6 34.3,36.2 34.3,32.9 L34.3,5.8 C34.3,5.9 34.3,5.9 34.3,5.8 Z" id="Shape" class="stroke-primary" stroke-width="3" stroke-linecap="round" stroke-linejoin="round"></path>
                    <ellipse id="Oval" class="fill-neutral" fill-rule="nonzero" cx="17.6" cy="5.8" rx="16.7" ry="5.1"></ellipse>
                    <ellipse id="Oval" class="fill-primary-100" fill-rule="nonzero" cx="17.6" cy="6.4" rx="14.9" ry="4.6"></ellipse>
                    <path d="M22.8,10.7 C22.5,10.7 22.2,10.8 21.9,10.8" id="Shape" class="stroke-primary" stroke-width="3" stroke-linecap="round" stroke-linejoin="round"></path>
                    <path d="M17.5,11 C8.3,11 0.9,8.7 0.9,5.9 C0.9,3.1 8.4,0.8 17.6,0.8 C26.8,0.8 34.3,3.1 34.3,5.9 C34.3,7.8 31.1,9.4 26.3,10.3" id="Shape" class="stroke-primary" stroke-width="3" stroke-linecap="round" stroke-linejoin="round"></path>
                </g>
                <g transform="translate(20.000000, 27.000000)">
                    <path d="M34.3,5.7 C34.3,2.9 26.8,0.6 17.6,0.6 C8.4,0.6 0.9,2.9 0.9,5.7 C0.9,5.7 0.9,5.8 0.9,5.8 L0.9,32.8 C1,33.9 2.2,35 4.3,35.8 C4.3,35.8 4.3,35.8 4.3,35.8 C4.5,35.9 4.6,35.9 4.8,36 C4.8,36 4.8,36 4.8,36 C5,36.1 5.1,36.1 5.3,36.2 C5.3,36.2 5.3,36.2 5.3,36.2 C5.5,36.3 5.6,36.3 5.8,36.4 C5.8,36.4 5.8,36.4 5.9,36.4 C6.1,36.5 6.2,36.5 6.4,36.5 C6.4,36.5 6.5,36.5 6.5,36.5 C6.7,36.5 6.8,36.6 7,36.6 C7,36.6 7.1,36.6 7.1,36.6 C7.3,36.6 7.4,36.7 7.6,36.7 C7.6,36.7 7.7,36.7 7.7,36.7 C7.9,36.7 8,36.8 8.2,36.8 C8.3,36.8 8.3,36.8 8.4,36.8 C8.6,36.8 8.7,36.9 8.9,36.9 C9,36.9 9,36.9 9.1,36.9 C9.3,36.9 9.4,37 9.6,37 C9.7,37 9.8,37 9.8,37 C10,37 10.1,37.1 10.3,37.1 C10.4,37.1 10.5,37.1 10.6,37.1 C10.8,37.1 10.9,37.1 11.1,37.2 C11.2,37.2 11.3,37.2 11.4,37.2 C11.6,37.2 11.7,37.2 11.9,37.3 C12,37.3 12.1,37.3 12.2,37.3 C12.3,37.3 12.5,37.3 12.6,37.3 C12.7,37.3 12.8,37.3 13,37.3 C13.1,37.3 13.3,37.3 13.4,37.3 C13.5,37.3 13.7,37.3 13.8,37.3 C13.9,37.3 14.1,37.3 14.2,37.3 C14.3,37.3 14.5,37.3 14.6,37.3 C14.7,37.3 14.9,37.3 15,37.3 C15.2,37.3 15.3,37.3 15.5,37.3 C15.6,37.3 15.7,37.3 15.9,37.3 C16.1,37.3 16.3,37.3 16.5,37.3 C16.6,37.3 16.7,37.3 16.8,37.3 C17.1,37.3 17.4,37.3 17.7,37.3 C18,37.3 18.3,37.3 18.6,37.3 C18.7,37.3 18.8,37.3 18.9,37.3 C19.1,37.3 19.3,37.3 19.5,37.3 C19.6,37.3 19.7,37.3 19.8,37.3 C20,37.3 20.1,37.3 20.3,37.3 C20.4,37.3 20.6,37.3 20.7,37.3 C20.8,37.3 21,37.3 21.1,37.3 C21.2,37.3 21.4,37.3 21.5,37.3 C21.6,37.3 21.8,37.3 21.9,37.3 C22,37.3 22.2,37.3 22.3,37.3 C22.4,37.3 22.5,37.3 22.7,37.3 C22.8,37.3 23,37.3 23.1,37.3 C23.2,37.3 23.3,37.3 23.4,37.3 C23.6,37.3 23.7,37.3 23.9,37.2 C24,37.2 24.1,37.2 24.2,37.2 C24.4,37.2 24.5,37.2 24.7,37.1 C24.8,37.1 24.9,37.1 25,37.1 C25.2,37.1 25.3,37.1 25.5,37 C25.6,37 25.7,37 25.7,37 C25.9,37 26,36.9 26.2,36.9 C26.3,36.9 26.3,36.9 26.4,36.9 C26.6,36.9 26.7,36.8 26.9,36.8 C27,36.8 27,36.8 27.1,36.8 C27.3,36.8 27.4,36.7 27.6,36.7 C27.6,36.7 27.7,36.7 27.7,36.7 C27.9,36.7 28,36.6 28.2,36.6 C28.2,36.6 28.3,36.6 28.3,36.6 C28.5,36.6 28.6,36.5 28.8,36.5 C28.8,36.5 28.9,36.5 28.9,36.5 C29.1,36.5 29.2,36.4 29.4,36.4 C29.4,36.4 29.4,36.4 29.5,36.4 C29.7,36.3 29.8,36.3 30,36.2 C30,36.2 30,36.2 30.1,36.2 C30.3,36.1 30.4,36.1 30.6,36 C30.6,36 30.6,36 30.6,36 C30.8,35.9 30.9,35.9 31.1,35.8 C31.1,35.8 31.1,35.8 31.1,35.8 C31.3,35.7 31.4,35.7 31.6,35.6 C31.6,35.6 31.6,35.6 31.6,35.6 C33.4,34.8 34.5,33.8 34.5,32.8 L34.5,5.7 L34.3,5.7 C34.3,5.8 34.3,5.8 34.3,5.7 Z" id="Shape" class="fill-neutral" fill-rule="nonzero"></path>
                    <path d="M34.3,5.8 L34.3,32.8 C34.3,34.1 32.5,35.1 31.4,35.6 C27.4,37.4 21.2,38 15.4,37.7 C7.9,37.4 1.1,35.6 1,32.8 L1,5.8 C1,5.8 1,5.7 1,5.7 C1,2.9 8.5,0.6 17.7,0.6 C26.9,0.6 34.3,2.9 34.3,5.8 C34.3,5.8 34.3,5.8 34.3,5.8 Z" id="Shape" class="fill-primary-200" fill-rule="nonzero"></path>
                    <path d="M10.4,15.8 C4.8,15 0.9,13.2 0.9,11.2" id="Shape" class="stroke-primary" stroke-width="3" stroke-linecap="round" stroke-linejoin="round"></path>
                    <path d="M34.3,11.1 C34.3,13.9 26.8,16.2 17.6,16.2 C17.1,16.2 16.6,16.2 16,16.2" id="Shape" class="stroke-primary" stroke-width="3" stroke-linecap="round" stroke-linejoin="round"></path>
                    <path d="M34.3,16.6 C34.3,19.4 26.8,21.7 17.6,21.7 C8.4,21.7 0.9,19.4 0.9,16.6" id="Shape" class="stroke-primary" stroke-width="3" stroke-linecap="round" stroke-linejoin="round"></path>
                    <path d="M34.3,22 C34.3,24.8 26.8,27.1 17.6,27.1 C8.5,27.1 1.1,24.9 0.9,22.1" id="Shape" class="stroke-primary" stroke-width="3" stroke-linecap="round" stroke-linejoin="round"></path>
                    <path d="M34.3,27.6 C33.9,30.3 26.6,32.5 17.6,32.5 C8.4,32.5 0.9,30.2 0.9,27.4" id="Shape" class="stroke-primary" stroke-width="3" stroke-linecap="round" stroke-linejoin="round"></path>
                    <path d="M34.3,5.7 C34.3,2.9 26.8,0.6 17.6,0.6 C8.4,0.6 0.9,2.9 0.9,5.7 C0.9,5.7 0.9,5.8 0.9,5.8 L0.9,32.8 C1.1,36 9.8,37.3 13,37.6 C23.6,38.5 34.3,36.1 34.3,32.8 L34.3,5.7 C34.3,5.8 34.3,5.8 34.3,5.7 Z" id="Shape" class="stroke-primary" stroke-width="3" stroke-linecap="round" stroke-linejoin="round"></path>
                    <ellipse id="Oval" class="fill-neutral" fill-rule="nonzero" cx="17.6" cy="5.7" rx="16.7" ry="5.1"></ellipse>
                    <ellipse id="Oval" class="fill-primary-100" fill-rule="nonzero" cx="17.6" cy="6.3" rx="14.9" ry="4.6"></ellipse>
                    <path d="M22.8,10.6 C22.5,10.6 22.2,10.7 21.9,10.7" id="Shape" class="stroke-primary" stroke-width="3" stroke-linecap="round" stroke-linejoin="round"></path>
                    <path d="M17.5,10.9 C8.3,10.9 0.9,8.6 0.9,5.8 C0.9,3 8.4,0.7 17.6,0.7 C26.8,0.7 34.3,3 34.3,5.8 C34.3,7.7 31.1,9.3 26.3,10.2" id="Shape" class="stroke-primary" stroke-width="3" stroke-linecap="round" stroke-linejoin="round"></path>
                </g>
                <g transform="translate(20.000000, 0.000000)">
                    <path d="M34.3,5.8 C34.3,3 26.8,0.7 17.6,0.7 C8.4,0.7 0.9,3 0.9,5.8 C0.9,5.8 0.9,5.9 0.9,5.9 L0.9,32.9 C1,34 2.2,35.1 4.3,35.9 C4.3,35.9 4.3,35.9 4.3,35.9 C4.5,36 4.6,36 4.8,36.1 C4.8,36.1 4.8,36.1 4.8,36.1 C5,36.2 5.1,36.2 5.3,36.3 C5.3,36.3 5.3,36.3 5.3,36.3 C5.5,36.4 5.6,36.4 5.8,36.5 C5.8,36.5 5.8,36.5 5.9,36.5 C6.1,36.6 6.2,36.6 6.4,36.6 C6.4,36.6 6.5,36.6 6.5,36.6 C6.7,36.6 6.8,36.7 7,36.7 C7,36.7 7.1,36.7 7.1,36.7 C7.3,36.7 7.4,36.8 7.6,36.8 C7.6,36.8 7.7,36.8 7.7,36.8 C7.9,36.8 8,36.9 8.2,36.9 C8.3,36.9 8.3,36.9 8.4,36.9 C8.6,36.9 8.7,37 8.9,37 C9,37 9,37 9.1,37 C9.3,37 9.4,37.1 9.6,37.1 C9.7,37.1 9.8,37.1 9.8,37.1 C10,37.1 10.1,37.2 10.3,37.2 C10.4,37.2 10.5,37.2 10.6,37.2 C10.8,37.2 10.9,37.2 11.1,37.3 C11.2,37.3 11.3,37.3 11.4,37.3 C11.6,37.3 11.7,37.3 11.9,37.4 C12,37.4 12.1,37.4 12.2,37.4 C12.3,37.4 12.5,37.4 12.6,37.4 C12.7,37.4 12.8,37.4 13,37.4 C13.1,37.4 13.3,37.4 13.4,37.4 C13.5,37.4 13.7,37.4 13.8,37.4 C13.9,37.4 14.1,37.4 14.2,37.4 C14.3,37.4 14.5,37.4 14.6,37.4 C14.7,37.4 14.9,37.4 15,37.4 C15.2,37.4 15.3,37.4 15.5,37.4 C15.6,37.4 15.7,37.4 15.9,37.4 C16.1,37.4 16.3,37.4 16.5,37.4 C16.6,37.4 16.7,37.4 16.8,37.4 C17.1,37.4 17.4,37.4 17.7,37.4 C18,37.4 18.3,37.4 18.6,37.4 C18.7,37.4 18.8,37.4 18.9,37.4 C19.1,37.4 19.3,37.4 19.5,37.4 C19.6,37.4 19.7,37.4 19.8,37.4 C20,37.4 20.1,37.4 20.3,37.4 C20.4,37.4 20.6,37.4 20.7,37.4 C20.8,37.4 21,37.4 21.1,37.4 C21.2,37.4 21.4,37.4 21.5,37.4 C21.6,37.4 21.8,37.4 21.9,37.4 C22,37.4 22.2,37.4 22.3,37.4 C22.4,37.4 22.5,37.4 22.7,37.4 C22.8,37.4 23,37.4 23.1,37.4 C23.2,37.4 23.3,37.4 23.4,37.4 C23.6,37.4 23.7,37.4 23.9,37.3 C24,37.3 24.1,37.3 24.2,37.3 C24.4,37.3 24.5,37.3 24.7,37.2 C24.8,37.2 24.9,37.2 25,37.2 C25.2,37.2 25.3,37.2 25.5,37.1 C25.6,37.1 25.7,37.1 25.7,37.1 C25.9,37.1 26,37 26.2,37 C26.3,37 26.3,37 26.4,37 C26.6,37 26.7,36.9 26.9,36.9 C27,36.9 27,36.9 27.1,36.9 C27.3,36.9 27.4,36.8 27.6,36.8 C27.6,36.8 27.7,36.8 27.7,36.8 C27.9,36.8 28,36.7 28.2,36.7 C28.2,36.7 28.3,36.7 28.3,36.7 C28.5,36.7 28.6,36.6 28.8,36.6 C28.8,36.6 28.9,36.6 28.9,36.6 C29.1,36.6 29.2,36.5 29.4,36.5 C29.4,36.5 29.4,36.5 29.5,36.5 C29.7,36.4 29.8,36.4 30,36.3 C30,36.3 30,36.3 30.1,36.3 C30.3,36.2 30.4,36.2 30.6,36.1 C30.6,36.1 30.6,36.1 30.6,36.1 C30.8,36 30.9,36 31.1,35.9 C31.1,35.9 31.1,35.9 31.1,35.9 C31.3,35.8 31.4,35.8 31.6,35.7 C31.6,35.7 31.6,35.7 31.6,35.7 C33.4,34.9 34.5,33.9 34.5,32.9 L34.5,5.8 L34.3,5.8 C34.3,5.9 34.3,5.8 34.3,5.8 Z" id="Shape" class="fill-neutral" fill-rule="nonzero"></path>
                    <path d="M34.3,5.9 L34.3,32.9 C34.3,34.2 32.5,35.2 31.4,35.7 C27.4,37.5 21.2,38.1 15.4,37.8 C7.9,37.5 1.1,35.7 1,32.9 L1,5.9 C1,5.9 1,5.8 1,5.8 C1,3 8.5,0.7 17.7,0.7 C26.9,0.7 34.3,3 34.3,5.9 C34.3,5.8 34.3,5.9 34.3,5.9 Z" id="Shape" class="fill-primary-200" fill-rule="nonzero"></path>
                    <path d="M34.3,11.2 C34.3,14 26.8,16.3 17.6,16.3 C8.4,16.3 0.9,14 0.9,11.2" id="Shape" class="stroke-primary" stroke-width="3" stroke-linecap="round" stroke-linejoin="round"></path>
                    <path d="M34.3,16.6 C34.3,19.4 26.8,21.7 17.6,21.7 C8.4,21.7 0.9,19.4 0.9,16.6" id="Shape" class="stroke-primary" stroke-width="3" stroke-linecap="round" stroke-linejoin="round"></path>
                    <path d="M21.4,27 C20.2,27.1 18.9,27.1 17.6,27.1 C8.5,27.1 1.1,24.9 0.9,22.1" id="Shape" class="stroke-primary" stroke-width="3" stroke-linecap="round" stroke-linejoin="round"></path>
                    <path d="M34.3,22 C34.3,23.7 31.5,25.2 27.3,26.2" id="Shape" class="stroke-primary" stroke-width="3" stroke-linecap="round" stroke-linejoin="round"></path>
                    <path d="M34.3,27.7 C33.9,30.4 26.6,32.6 17.6,32.6 C8.4,32.6 0.9,30.3 0.9,27.5" id="Shape" class="stroke-primary" stroke-width="3" stroke-linecap="round" stroke-linejoin="round"></path>
                    <path d="M34.3,5.8 C34.3,3 26.8,0.7 17.6,0.7 C8.4,0.7 0.9,3 0.9,5.8 C0.9,5.8 0.9,5.9 0.9,5.9 L0.9,32.9 C1.1,36.1 9.8,37.4 13,37.7 C23.6,38.6 34.3,36.2 34.3,32.9 L34.3,5.8 C34.3,5.9 34.3,5.8 34.3,5.8 Z" id="Shape" class="stroke-primary" stroke-width="3" stroke-linecap="round" stroke-linejoin="round"></path>
                    <ellipse id="Oval" class="fill-neutral" fill-rule="nonzero" cx="17.6" cy="5.8" rx="16.7" ry="5.1"></ellipse>
                    <ellipse id="Oval" class="fill-primary-100" fill-rule="nonzero" cx="17.6" cy="6.4" rx="14.9" ry="4.6"></ellipse>
                    <path d="M22.8,10.7 C22.5,10.7 22.2,10.8 21.9,10.8" id="Shape" class="stroke-primary" stroke-width="3" stroke-linecap="round" stroke-linejoin="round"></path>
                    <path d="M17.5,10.9 C8.3,10.9 0.9,8.6 0.9,5.8 C0.9,3 8.4,0.7 17.6,0.7 C26.8,0.7 34.3,3 34.3,5.8 C34.3,7.7 31.1,9.3 26.3,10.2" id="Shape" class="stroke-primary" stroke-width="3" stroke-linecap="round" stroke-linejoin="round"></path>
                </g>
                <g transform="translate(0.000000, 58.000000)">
                    <path d="M34,5.7 C34,2.9 26.5,0.6 17.3,0.6 C8.1,0.6 0.6,2.9 0.6,5.7 C0.6,5.7 0.6,5.8 0.6,5.8 L0.6,32.8 C0.7,33.9 1.9,35 4,35.8 C4,35.8 4,35.8 4,35.8 C4.2,35.9 4.3,35.9 4.5,36 C4.5,36 4.5,36 4.5,36 C4.7,36.1 4.8,36.1 5,36.2 C5,36.2 5,36.2 5,36.2 C5.2,36.3 5.3,36.3 5.5,36.4 C5.5,36.4 5.5,36.4 5.6,36.4 C5.8,36.4 5.9,36.5 6.1,36.5 C6.1,36.5 6.2,36.5 6.2,36.5 C6.4,36.5 6.5,36.6 6.7,36.6 C6.7,36.6 6.8,36.6 6.8,36.6 C7,36.6 7.1,36.7 7.3,36.7 C7.3,36.7 7.4,36.7 7.4,36.7 C7.6,36.7 7.7,36.8 7.9,36.8 C8,36.8 8,36.8 8.1,36.8 C8.3,36.8 8.4,36.9 8.6,36.9 C8.7,36.9 8.7,36.9 8.8,36.9 C9,36.9 9.1,37 9.3,37 C9.4,37 9.5,37 9.5,37 C9.7,37 9.8,37.1 10,37.1 C10.1,37.1 10.2,37.1 10.3,37.1 C10.5,37.1 10.6,37.1 10.8,37.2 C10.9,37.2 11,37.2 11.1,37.2 C11.3,37.2 11.4,37.2 11.6,37.3 C11.7,37.3 11.8,37.3 11.9,37.3 C12,37.3 12.2,37.3 12.3,37.3 C12.4,37.3 12.5,37.3 12.7,37.3 C12.8,37.3 13,37.3 13.1,37.3 C13.2,37.3 13.4,37.3 13.5,37.3 C13.6,37.3 13.8,37.3 13.9,37.3 C14,37.3 14.2,37.3 14.3,37.3 C14.4,37.3 14.6,37.3 14.7,37.3 C14.9,37.3 15,37.3 15.2,37.3 C15.3,37.3 15.4,37.3 15.6,37.3 C15.8,37.3 16,37.3 16.2,37.3 C16.3,37.3 16.4,37.3 16.5,37.3 C16.8,37.3 17.1,37.3 17.4,37.3 C17.7,37.3 18,37.3 18.3,37.3 C18.4,37.3 18.5,37.3 18.6,37.3 C18.8,37.3 19,37.3 19.2,37.3 C19.3,37.3 19.4,37.3 19.5,37.3 C19.7,37.3 19.8,37.3 20,37.3 C20.1,37.3 20.3,37.3 20.4,37.3 C20.5,37.3 20.7,37.3 20.8,37.3 C20.9,37.3 21.1,37.3 21.2,37.3 C21.3,37.3 21.5,37.3 21.6,37.3 C21.7,37.3 21.9,37.3 22,37.3 C22.1,37.3 22.2,37.3 22.4,37.3 C22.5,37.3 22.7,37.3 22.8,37.3 C22.9,37.3 23,37.3 23.1,37.3 C23.3,37.3 23.4,37.3 23.6,37.2 C23.7,37.2 23.8,37.2 23.9,37.2 C24.1,37.2 24.2,37.2 24.4,37.1 C24.5,37.1 24.6,37.1 24.7,37.1 C24.9,37.1 25,37.1 25.2,37 C25.3,37 25.4,37 25.4,37 C25.6,37 25.7,36.9 25.9,36.9 C26,36.9 26,36.9 26.1,36.9 C26.3,36.9 26.4,36.8 26.6,36.8 C26.7,36.8 26.7,36.8 26.8,36.8 C27,36.8 27.1,36.7 27.3,36.7 C27.3,36.7 27.4,36.7 27.4,36.7 C27.6,36.7 27.7,36.6 27.9,36.6 C27.9,36.6 28,36.6 28,36.6 C28.2,36.6 28.3,36.5 28.5,36.5 C28.5,36.5 28.6,36.5 28.6,36.5 C28.8,36.5 28.9,36.4 29.1,36.4 C29.1,36.4 29.1,36.4 29.2,36.4 C29.4,36.3 29.5,36.3 29.7,36.2 C29.7,36.2 29.7,36.2 29.8,36.2 C30,36.1 30.1,36.1 30.3,36 C30.3,36 30.3,36 30.3,36 C30.5,35.9 30.6,35.9 30.8,35.8 C30.8,35.8 30.8,35.8 30.8,35.8 C31,35.7 31.1,35.7 31.3,35.6 C31.3,35.6 31.3,35.6 31.3,35.6 C33.1,34.8 34.2,33.8 34.2,32.8 L34.2,5.7 L34,5.7 C33.9,5.7 34,5.7 34,5.7 Z" id="Shape" class="fill-neutral" fill-rule="nonzero"></path>
                    <path d="M33.9,5.8 L33.9,32.8 C33.9,34.1 32.1,35.1 31,35.6 C27,37.4 20.8,38 15,37.7 C7.5,37.4 0.7,35.6 0.6,32.8 L0.6,5.8 C0.6,5.8 0.6,5.7 0.6,5.7 C0.6,2.9 8.1,0.6 17.3,0.6 C26.5,0.6 34,2.8 33.9,5.8 C34,5.7 33.9,5.7 33.9,5.8 Z" id="Shape" class="fill-primary-200" fill-rule="nonzero"></path>
                    <path d="M34,11.1 C34,13.9 26.5,16.2 17.3,16.2 C8.1,16.2 0.6,13.9 0.6,11.1" id="Shape" class="stroke-primary" stroke-width="3" stroke-linecap="round" stroke-linejoin="round"></path>
                    <path d="M34,16.5 C34,19.3 26.5,21.6 17.3,21.6 C8.1,21.6 0.6,19.3 0.6,16.5" id="Shape" class="stroke-primary" stroke-width="3" stroke-linecap="round" stroke-linejoin="round"></path>
                    <path d="M2.7,24.4 C1.4,23.7 0.6,22.9 0.6,22" id="Shape" class="stroke-primary" stroke-width="3" stroke-linecap="round" stroke-linejoin="round"></path>
                    <path d="M34,21.9 C34,24.7 26.5,27 17.3,27 C14.1,27 11.1,26.7 8.5,26.2" id="Shape" class="stroke-primary" stroke-width="3" stroke-linecap="round" stroke-linejoin="round"></path>
                    <path d="M33.9,27.5 C33.5,30.2 26.2,32.4 17.2,32.4 C8,32.4 0.5,30.1 0.5,27.3" id="Shape" class="stroke-primary" stroke-width="3" stroke-linecap="round" stroke-linejoin="round"></path>
                    <path d="M34,5.7 C34,2.9 26.5,0.6 17.3,0.6 C8.1,0.6 0.6,2.9 0.6,5.7 C0.6,5.7 0.6,5.8 0.6,5.8 L0.6,32.8 C0.8,36 9.5,37.3 12.7,37.6 C23.3,38.5 34,36.1 34,32.8 L34,5.7 C33.9,5.7 34,5.7 34,5.7 Z" id="Shape" class="stroke-primary" stroke-width="3" stroke-linecap="round" stroke-linejoin="round"></path>
                    <ellipse id="Oval" class="fill-neutral" fill-rule="nonzero" cx="17.3" cy="5.7" rx="16.7" ry="5.1"></ellipse>
                    <ellipse id="Oval" class="fill-primary-100" fill-rule="nonzero" cx="17.3" cy="6.2" rx="14.9" ry="4.6"></ellipse>
                    <path d="M22.5,10.5 C22.2,10.5 21.9,10.6 21.6,10.6" id="Shape" class="stroke-primary" stroke-width="3" stroke-linecap="round" stroke-linejoin="round"></path>
                    <path d="M17.2,10.8 C8,10.8 0.6,8.5 0.6,5.7 C0.6,2.9 8.1,0.6 17.3,0.6 C26.5,0.6 34,2.9 34,5.7 C34,7.6 30.8,9.2 26,10.1" id="Shape" class="stroke-primary" stroke-width="3" stroke-linecap="round" stroke-linejoin="round"></path>
                </g>
                <g transform="translate(0.000000, 42.000000)">
                    <path d="M34,5.2 C34,2.4 26.5,0.1 17.3,0.1 C8.1,0.1 0.6,2.4 0.6,5.2 C0.6,5.2 0.6,5.3 0.6,5.3 L0.6,32.3 C0.7,33.4 1.9,34.5 4,35.3 C4,35.3 4,35.3 4,35.3 C4.2,35.4 4.3,35.4 4.5,35.5 C4.5,35.5 4.5,35.5 4.5,35.5 C4.7,35.6 4.8,35.6 5,35.7 C5,35.7 5,35.7 5,35.7 C5.2,35.8 5.3,35.8 5.5,35.9 C5.5,35.9 5.5,35.9 5.6,35.9 C5.8,35.9 5.9,36 6.1,36 C6.1,36 6.2,36 6.2,36 C6.4,36 6.5,36.1 6.7,36.1 C6.7,36.1 6.8,36.1 6.8,36.1 C7,36.1 7.1,36.2 7.3,36.2 C7.3,36.2 7.4,36.2 7.4,36.2 C7.6,36.2 7.7,36.3 7.9,36.3 C8,36.3 8,36.3 8.1,36.3 C8.3,36.3 8.4,36.4 8.6,36.4 C8.7,36.4 8.7,36.4 8.8,36.4 C9,36.4 9.1,36.5 9.3,36.5 C9.4,36.5 9.5,36.5 9.5,36.5 C9.7,36.5 9.8,36.6 10,36.6 C10.1,36.6 10.2,36.6 10.3,36.6 C10.5,36.6 10.6,36.6 10.8,36.7 C10.9,36.7 11,36.7 11.1,36.7 C11.3,36.7 11.4,36.7 11.6,36.8 C11.7,36.8 11.8,36.8 11.9,36.8 C12,36.8 12.2,36.8 12.3,36.8 C12.4,36.8 12.5,36.8 12.7,36.8 C12.8,36.8 13,36.8 13.1,36.8 C13.2,36.8 13.4,36.8 13.5,36.8 C13.6,36.8 13.8,36.8 13.9,36.8 C14,36.8 14.2,36.8 14.3,36.8 C14.4,36.8 14.6,36.8 14.7,36.8 C14.9,36.8 15,36.8 15.2,36.8 C15.3,36.8 15.4,36.8 15.6,36.8 C15.8,36.8 16,36.8 16.2,36.8 C16.3,36.8 16.4,36.8 16.5,36.8 C16.8,36.8 17.1,36.8 17.4,36.8 C17.7,36.8 18,36.8 18.3,36.8 C18.4,36.8 18.5,36.8 18.6,36.8 C18.8,36.8 19,36.8 19.2,36.8 C19.3,36.8 19.4,36.8 19.5,36.8 C19.7,36.8 19.8,36.8 20,36.8 C20.1,36.8 20.3,36.8 20.4,36.8 C20.5,36.8 20.7,36.8 20.8,36.8 C20.9,36.8 21.1,36.8 21.2,36.8 C21.3,36.8 21.5,36.8 21.6,36.8 C21.7,36.8 21.9,36.8 22,36.8 C22.1,36.8 22.2,36.8 22.4,36.8 C22.5,36.8 22.7,36.8 22.8,36.8 C22.9,36.8 23,36.8 23.1,36.8 C23.3,36.8 23.4,36.8 23.6,36.7 C23.7,36.7 23.8,36.7 23.9,36.7 C24.1,36.7 24.2,36.7 24.4,36.6 C24.5,36.6 24.6,36.6 24.7,36.6 C24.9,36.6 25,36.6 25.2,36.5 C25.3,36.5 25.4,36.5 25.4,36.5 C25.6,36.5 25.7,36.4 25.9,36.4 C26,36.4 26,36.4 26.1,36.4 C26.3,36.4 26.4,36.3 26.6,36.3 C26.7,36.3 26.7,36.3 26.8,36.3 C27,36.3 27.1,36.2 27.3,36.2 C27.3,36.2 27.4,36.2 27.4,36.2 C27.6,36.2 27.7,36.1 27.9,36.1 C27.9,36.1 28,36.1 28,36.1 C28.2,36.1 28.3,36 28.5,36 C28.5,36 28.6,36 28.6,36 C28.8,36 28.9,35.9 29.1,35.9 C29.1,35.9 29.1,35.9 29.2,35.9 C29.4,35.8 29.5,35.8 29.7,35.7 C29.7,35.7 29.7,35.7 29.8,35.7 C30,35.6 30.1,35.6 30.3,35.5 C30.3,35.5 30.3,35.5 30.3,35.5 C30.5,35.4 30.6,35.4 30.8,35.3 C30.8,35.3 30.8,35.3 30.8,35.3 C31,35.2 31.1,35.2 31.3,35.1 C31.3,35.1 31.3,35.1 31.3,35.1 C33.1,34.3 34.2,33.3 34.2,32.3 L34.2,5.2 L34,5.2 C33.9,5.3 34,5.2 34,5.2 Z" id="Shape" class="fill-neutral" fill-rule="nonzero"></path>
                    <path d="M33.9,5.3 L33.9,32.3 C33.9,33.6 32.1,34.6 31,35.1 C27,36.9 20.8,37.5 15,37.2 C7.5,36.9 0.7,35.1 0.6,32.3 L0.6,5.3 C0.6,5.3 0.6,5.2 0.6,5.2 C0.6,2.4 8.1,0.1 17.3,0.1 C26.5,0.1 34,2.4 33.9,5.3 C34,5.2 33.9,5.3 33.9,5.3 Z" id="Shape" class="fill-primary-200" fill-rule="nonzero"></path>
                    <path d="M34,10.6 C34,13.4 26.5,15.7 17.3,15.7 C8.1,15.7 0.6,13.4 0.6,10.6" id="Shape" class="stroke-primary" stroke-width="3" stroke-linecap="round" stroke-linejoin="round"></path>
                    <path d="M34,16 C34,18.8 26.5,21.1 17.3,21.1 C8.1,21.1 0.6,18.8 0.6,16" id="Shape" class="stroke-primary" stroke-width="3" stroke-linecap="round" stroke-linejoin="round"></path>
                    <path d="M2.7,23.9 C1.4,23.2 0.6,22.4 0.6,21.5" id="Shape" class="stroke-primary" stroke-width="3" stroke-linecap="round" stroke-linejoin="round"></path>
                    <path d="M34,21.4 C34,24.2 26.5,26.5 17.3,26.5 C14.1,26.5 11.1,26.2 8.5,25.7" id="Shape" class="stroke-primary" stroke-width="3" stroke-linecap="round" stroke-linejoin="round"></path>
                    <path d="M33.9,27 C33.5,29.7 26.2,31.9 17.2,31.9 C8,31.9 0.5,29.6 0.5,26.8" id="Shape" class="stroke-primary" stroke-width="3" stroke-linecap="round" stroke-linejoin="round"></path>
                    <path d="M34,5.2 C34,2.4 26.5,0.1 17.3,0.1 C8.1,0.1 0.6,2.4 0.6,5.2 C0.6,5.2 0.6,5.3 0.6,5.3 L0.6,32.3 C0.8,35.5 9.5,36.8 12.7,37.1 C23.3,38 34,35.6 34,32.3 L34,5.2 C33.9,5.3 34,5.2 34,5.2 Z" id="Shape" class="stroke-primary" stroke-width="3" stroke-linecap="round" stroke-linejoin="round"></path>
                    <ellipse id="Oval" class="fill-neutral" fill-rule="nonzero" cx="17.3" cy="5.2" rx="16.7" ry="5.1"></ellipse>
                    <ellipse id="Oval" class="fill-primary-100" fill-rule="nonzero" cx="17.3" cy="5.8" rx="14.9" ry="4.6"></ellipse>
                    <path d="M22.5,10 C22.2,10 21.9,10.1 21.6,10.1" id="Shape" class="stroke-primary" stroke-width="3" stroke-linecap="round" stroke-linejoin="round"></path>
                    <path d="M17.2,10.3 C8,10.3 0.6,8 0.6,5.2 C0.6,2.4 8.1,0.1 17.3,0.1 C26.5,0.1 34,2.4 34,5.2 C34,7.1 30.8,8.7 26,9.6" id="Shape" class="stroke-primary" stroke-width="3" stroke-linecap="round" stroke-linejoin="round"></path>
                </g>
            </g>
            <g id="Group" transform="translate(41.000000, 0.000000)">
                <path d="M53.2,32.9 C46.3,22.5 31,22.5 24,32.9 C14.5,47.3 0.1,62.2 0.1,80.5 C0.1,101.7 17.3,114.1 38.5,114.1 C59.7,114.1 76.9,101.7 76.9,80.5 C77.1,62.7 62.5,47 53.2,32.9 Z" id="Shape" class="fill-neutral" fill-rule="nonzero"></path>
                <path d="M77.1,80.5 C77.1,101.7 61,114.1 41.3,114.1 C28.1,114.1 16.5,108.6 10.3,98.6 C7.2,93.6 5.5,87.6 5.5,80.6 C5.5,62.3 18.8,47.4 27.8,33 C34.2,22.6 48.5,22.6 55,33 C61.3,43.3 70.3,54.4 74.7,66.6 C76.1,71.1 77.1,75.7 77.1,80.5 Z" id="Shape" class="fill-primary-100" fill-rule="nonzero"></path>
                <path d="M77.1,80.5 C77.1,101.7 61,114.1 41.3,114.1 C33.4,114.1 26.2,112.1 20.3,108.5 C16.9,106.4 18.8,101.2 22.7,101.7 C25,102 27.4,102.1 29.9,102.1 C52.7,102.1 71.5,89.1 74.6,66.5 C76.1,71.1 77.1,75.7 77.1,80.5 Z" id="Shape" class="fill-primary-200" fill-rule="nonzero"></path>
                <path d="M19.2,110.1 C24.9,112.7 31.5,114.1 38.6,114.1 C59.8,114.1 77,101.7 77,80.5 C77,62.7 62.4,47 53.1,32.9 C46.2,22.5 30.9,22.5 23.9,32.9 C19.9,39 15,45.1 10.8,51.5" id="Shape" class="stroke-primary" stroke-width="3" stroke-linecap="round" stroke-linejoin="round"></path>
                <path d="M6,59.7 C2.5,66.2 0.2,73.1 0.2,80.6 C0.2,90.3 3.8,98.1 9.7,103.8" id="Shape" class="stroke-primary" stroke-width="3" stroke-linecap="round" stroke-linejoin="round"></path>
                <path d="M27.1,29.2 C19.7,20.4 9.9,4.2 9.9,4.2 C25,-7.8 32,15.2 64.7,4.2 C64.7,4.2 50.8,29.7 50.3,29.2 C49.9,28.8 27.1,29.2 27.1,29.2 Z" id="Shape" class="fill-neutral" fill-rule="nonzero"></path>
                <path d="M30.3,29.2 C25.7,24.2 21.1,16.8 18.5,12.4 C17.9,11.4 17.8,10.2 18.1,9 C18.5,7.9 19.3,7 20.3,6.6 C31.3,2.2 37,16.8 61.2,9.2 L50.5,29 L30.3,29.2 Z" id="Shape" fill="#A3CDFE" fill-rule="nonzero"></path>
                <path d="M35.9,29.1 C35.7,29.1 35.5,29.1 35.4,29.1" id="Shape" class="stroke-primary" stroke-width="3" stroke-linecap="round" stroke-linejoin="round"></path>
                <path d="M27.5,2.6 C35.7,5.6 46,10.5 64.8,4.2 C64.8,4.2 50.9,29.7 50.4,29.2 C50.3,29.1 48.7,29 46.5,29" id="Shape" class="stroke-primary" stroke-width="3" stroke-linecap="round" stroke-linejoin="round"></path>
                <path d="M19.8,0.7 C19.9,0.7 20.1,0.7 20.2,0.7" id="Shape" class="stroke-primary" stroke-width="3" stroke-linecap="round" stroke-linejoin="round"></path>
                <path d="M32,29.2 C29.1,29.2 27.1,29.3 27.1,29.3 C19.7,20.5 9.9,4.3 9.9,4.3 C12.1,2.5 14.2,1.5 16.2,1" id="Shape" class="stroke-primary" stroke-width="3" stroke-linecap="round" stroke-linejoin="round"></path>
                <path d="M52.2,29.4 C57.3,23.3 60.4,20.2 72.7,34.5 C85,48.8 85,38.6 85,38.6" id="Shape" class="stroke-primary" stroke-width="3" stroke-linecap="round" stroke-linejoin="round"></path>
                <path d="M64.5,39.6 C64.5,32.4 59.4,21.2 51.2,29.4" id="Shape" class="stroke-primary" stroke-width="3" stroke-linecap="round" stroke-linejoin="round"></path>
                <g transform="translate(26.000000, 46.000000)" fill-rule="nonzero" id="Shape">
                    <path d="M13.4,49.1 C11.7,49.1 10.2,47.7 10.2,45.9 L10.2,43.5 C8.1,43.3 6.1,42.8 4.4,42 C2.8,41.2 2,39.4 2.6,37.8 C3.1,36.4 4.4,35.5 5.8,35.5 C6.3,35.5 6.8,35.6 7.2,35.8 C8.4,36.3 10.2,37 12.5,37 C15.4,37 17.4,35.5 17.4,33.2 C17.4,31.7 16.8,30 12.3,28.2 C7.5,26.3 2.5,23.5 2.5,17.5 C2.5,12.7 5.6,8.9 10.6,7.6 L10.6,5.1 C10.6,3.4 12,1.9 13.8,1.9 C15.6,1.9 17,3.3 17,5.1 L17,7.3 C18.6,7.5 20.1,7.8 21.4,8.4 C23.1,9.1 23.9,11 23.3,12.7 C22.8,14 21.6,14.9 20.1,14.9 C19.7,14.9 19.2,14.8 18.8,14.6 C17.4,14 15.9,13.8 14.4,13.8 C11.3,13.8 10.2,15.4 10.2,16.9 C10.2,18.5 11,19.6 15.9,21.6 C20.2,23.4 25.2,26.2 25.2,32.8 C25.2,37.8 21.8,41.8 16.7,43.2 L16.7,45.9 C16.6,47.7 15.2,49.1 13.4,49.1 Z" class="fill-neutral"></path>
                    <path d="M13.8,3.4 C14.7,3.4 15.5,4.1 15.5,5.1 L15.5,8.7 C17.7,8.8 19.5,9.2 20.9,9.8 C21.8,10.2 22.3,11.3 21.9,12.2 C21.6,13 20.9,13.4 20.1,13.4 C19.9,13.4 19.6,13.4 19.4,13.3 C18.2,12.8 16.5,12.3 14.4,12.3 C10.3,12.3 8.7,14.8 8.7,16.9 C8.7,19.7 10.7,21.1 15.4,23 C20.9,25.3 23.7,28.1 23.7,32.8 C23.7,37.1 20.7,41 15.2,41.9 L15.2,45.8 C15.2,46.7 14.5,47.5 13.5,47.5 L13.4,47.5 C12.5,47.5 11.7,46.8 11.7,45.8 L11.7,42 C9.3,42 6.9,41.4 5,40.5 C4.1,40.1 3.7,39.1 4,38.1 C4.3,37.3 5,36.9 5.8,36.9 C6.1,36.9 6.3,37 6.6,37.1 C8.3,37.9 10.4,38.4 12.5,38.4 C16.3,38.4 18.9,36.2 18.9,33.1 C18.9,30.1 16.8,28.3 12.8,26.7 C7.3,24.5 3.9,22.1 3.9,17.4 C3.9,12.9 7.1,9.5 12,8.7 L12,4.9 C12.1,4.2 12.9,3.4 13.8,3.4 Z M13.8,0.4 C11.2,0.4 9.1,2.5 9.1,5.1 L9.1,6.5 C4.1,8.2 1,12.4 1,17.5 C1,24.4 6.5,27.5 11.8,29.6 C16,31.3 16,32.5 16,33.2 C16,34.9 14.2,35.5 12.6,35.5 C10.6,35.5 8.9,34.9 7.9,34.5 C7.3,34.2 6.6,34.1 5.9,34.1 C3.8,34.1 2,35.4 1.3,37.3 C0.4,39.7 1.5,42.3 3.8,43.4 C5.3,44.1 7,44.6 8.8,44.9 L8.8,45.9 C8.8,48.5 10.9,50.6 13.5,50.6 L13.6,50.6 C16.2,50.6 18.3,48.5 18.3,45.9 L18.3,44.3 C23.5,42.5 26.8,38.2 26.8,32.8 C26.8,25.2 21,22 16.6,20.2 C11.8,18.2 11.8,17.5 11.8,16.8 C11.8,15.4 13.5,15.2 14.5,15.2 C15.9,15.2 17.2,15.4 18.4,15.9 C19,16.1 19.6,16.3 20.3,16.3 C22.4,16.3 24.1,15.1 24.9,13.1 C25.8,10.6 24.6,7.8 22.2,6.8 C21.1,6.4 19.9,6 18.7,5.8 L18.7,4.9 C18.4,2.5 16.3,0.4 13.8,0.4 Z" class="fill-primary"></path>
                </g>
            </g>
            <g id="Group" transform="translate(72.000000, 100.000000)">
                <path d="M30.4,33.8 L35.1,27.5 C35.1,27.5 35.2,27.4 35.2,27.4 C37.1,24.8 31.8,17.6 23.3,11.3 C14.8,5 6.4,2 4.5,4.6 C4.5,4.6 4.5,4.7 4.4,4.7 L-4.54747351e-13,10.7" id="Shape" class="fill-neutral" fill-rule="nonzero"></path>
                <path d="M0.3,10.3 L4.4,4.7 C4.4,4.7 4.4,4.6 4.5,4.6 C6.4,2 14.8,5 23.3,11.3 C31.8,17.6 37.1,24.8 35.2,27.4 C35.2,27.4 35.1,27.5 35.1,27.5 L30.5,33.7 C30.5,33.7 19.6,31.9 10.8,24.1 C2,16.3 0.3,10.6 0.3,10.6" id="Shape" class="fill-primary-200" fill-rule="nonzero"></path>
                <path d="M31.5,32.4 C29.6,35 21.2,32 12.7,25.7 C4.2,19.4 -1.1,12.2 0.8,9.6" id="Shape" class="stroke-primary" stroke-width="3" stroke-linecap="round" stroke-linejoin="round"></path>
                <path d="M31.4,32.5 L35.1,27.5 C35.1,27.5 35.2,27.4 35.2,27.4 C37.1,24.8 31.8,17.6 23.3,11.3 C14.8,5 6.4,2 4.5,4.6 C4.5,4.6 4.5,4.7 4.4,4.7 L0.7,9.7" id="Shape" class="stroke-primary" stroke-width="3" stroke-linecap="round" stroke-linejoin="round"></path>
                <ellipse id="Oval" class="fill-neutral" fill-rule="nonzero" transform="translate(19.856660, 16.149820) rotate(-53.473873) translate(-19.856660, -16.149820) " cx="19.85666" cy="16.14982" rx="5.8001044" ry="19.1003438"></ellipse>
                <ellipse id="Oval" class="fill-primary-100" fill-rule="nonzero" transform="translate(19.449480, 16.670460) rotate(-53.473873) translate(-19.449480, -16.670460) " cx="19.44948" cy="16.67046" rx="5.2000936" ry="17.000306"></ellipse>
                <path d="M21.3,24.1 C21,23.9 20.7,23.8 20.4,23.6" id="Shape" class="stroke-primary" stroke-width="3" stroke-linecap="round" stroke-linejoin="round"></path>
                <path d="M16.3,20.7 C7.9,14.4 2.6,7.3 4.5,4.7 C6.4,2.1 14.8,5.1 23.3,11.4 C31.8,17.7 37.1,24.9 35.2,27.5 C33.9,29.2 29.9,28.5 24.8,26" id="Shape" class="stroke-primary" stroke-width="3" stroke-linecap="round" stroke-linejoin="round"></path>
            </g>
            <g id="Group" transform="translate(101.000000, 88.000000)">
                <circle id="Oval" class="fill-neutral" fill-rule="nonzero" cx="15.4" cy="14.8" r="14.4"></circle>
                <circle id="Oval" fill="#C4E0FF" fill-rule="nonzero" cx="16.2" cy="15.6" r="13.6"></circle>
                <path d="M26.9,6.3 C28.7,8.7 29.7,11.6 29.7,14.9 C29.7,22.8 23.3,29.3 15.3,29.3 C7.3,29.3 0.9,22.9 0.9,14.9 C0.9,14.5 0.9,14.2 0.9,13.8" id="Shape" class="stroke-primary" stroke-width="3" stroke-linecap="round" stroke-linejoin="round"></path>
                <path d="M1.5,11.3 C3.1,5.1 8.7,0.5 15.4,0.5 C18.5,0.5 21.3,1.5 23.6,3.1" id="Shape" class="stroke-primary" stroke-width="3" stroke-linecap="round" stroke-linejoin="round"></path>
            </g>
        </g>
    </g>
</svg>