<?xml version="1.0" encoding="UTF-8"?>
<svg width="148px" height="130px" viewBox="0 0 148 130" version="1.1" xmlns="http://www.w3.org/2000/svg" xmlns:xlink="http://www.w3.org/1999/xlink">
    <!-- Generator: Sketch 51.2 (57519) - http://www.bohemiancoding.com/sketch -->
    <title>Cash_2</title>
    <desc>Created with Sketch.</desc>
    <defs></defs>
    <g id="Page-1" stroke="none" stroke-width="1" fill="none" fill-rule="evenodd">
        <g id="Cash_2" transform="translate(1.000000, 2.000000)">
            <g id="Group" transform="translate(0.000000, 44.000000)">
                <path d="M51,81.7 L142,29.2 C144.4,27.8 144.1,25.4 141.3,23.8 L102.9,1.6 C100.2,-2.22044605e-15 96,-0.2 93.6,1.2 L2.6,53.7 C0.2,55.1 0.5,57.5 3.3,59.1 L41.7,81.3 C44.4,82.9 48.6,83.1 51,81.7 Z" id="Shape" class="fill-neutral" fill-rule="nonzero"></path>
                <path d="M51,81.7 L138.9,30.9 C141.3,29.5 141,27.1 138.2,25.5 L102.5,4.9 C99.8,3.3 95.6,3.1 93.2,4.5 L5.3,55.3 C2.9,56.7 3.2,59.1 6,60.7 L41.7,81.3 C44.4,82.9 48.6,83.1 51,81.7 Z" id="Shape" class="fill-primary-300" fill-rule="nonzero"></path>
                <path d="M8.2,50.5 L3.6,53.2 C0.7,54.9 0.7,57.6 3.6,59.3 L41.5,81.2 C44.4,82.9 49.1,82.9 52,81.2 L141,29.8 C143.9,28.1 143.9,25.4 141,23.7 L110.6,6.1" id="Shape" class="stroke-primary" stroke-width="3" stroke-linecap="round" stroke-linejoin="round"></path>
                <path d="M13.1,47.7 L12.7,47.9" id="Shape" class="stroke-primary" stroke-width="3" stroke-linecap="round" stroke-linejoin="round"></path>
                <path d="M89.8,3.4 L22.5,42.3" id="Shape" class="stroke-primary" stroke-width="3" stroke-linecap="round" stroke-linejoin="round"></path>
            </g>
            <g id="Group" transform="translate(0.000000, 33.000000)">
                <path d="M51,81.8 L142,29.3 C144.4,27.9 144.1,25.5 141.3,23.9 L102.9,1.7 C100.2,0.1 96,-0.1 93.6,1.3 L2.6,53.8 C0.2,55.2 0.5,57.6 3.3,59.2 L41.7,81.4 C44.4,83 48.6,83.1 51,81.8 Z" id="Shape" class="fill-neutral" fill-rule="nonzero"></path>
                <path d="M51,81.8 L138.9,31 C141.3,29.6 141,27.2 138.2,25.6 L102.5,5 C99.8,3.4 95.6,3.2 93.2,4.6 L5.3,55.4 C2.9,56.8 3.2,59.2 6,60.8 L41.7,81.4 C44.4,83 48.6,83.1 51,81.8 Z" id="Shape" class="fill-primary-300" fill-rule="nonzero"></path>
                <path d="M8.2,50.6 L3.6,53.3 C0.7,55 0.7,57.7 3.6,59.4 L41.5,81.3 C44.4,83 49.1,83 52,81.3 L141,29.9 C143.9,28.2 143.9,25.5 141,23.8 L110.6,6.2" id="Shape" class="stroke-primary" stroke-width="3" stroke-linecap="round" stroke-linejoin="round"></path>
                <path d="M13.1,47.8 L12.7,48" id="Shape" class="stroke-primary" stroke-width="3" stroke-linecap="round" stroke-linejoin="round"></path>
                <path d="M89.8,3.5 L22.5,42.4" id="Shape" class="stroke-primary" stroke-width="3" stroke-linecap="round" stroke-linejoin="round"></path>
            </g>
            <g id="Group" transform="translate(0.000000, 22.000000)">
                <path d="M51,81.8 L142,29.3 C144.4,27.9 144.1,25.5 141.3,23.9 L102.9,1.7 C100.2,0.1 96,-0.1 93.6,1.3 L2.6,53.8 C0.2,55.2 0.5,57.6 3.3,59.2 L41.7,81.4 C44.4,83 48.6,83.2 51,81.8 Z" id="Shape" class="fill-neutral" fill-rule="nonzero"></path>
                <path d="M51,81.8 L138.9,31 C141.3,29.6 141,27.2 138.2,25.6 L102.5,5 C99.8,3.4 95.6,3.2 93.2,4.6 L5.3,55.4 C2.9,56.8 3.2,59.2 6,60.8 L41.7,81.4 C44.4,83 48.6,83.2 51,81.8 Z" id="Shape" class="fill-primary-300" fill-rule="nonzero"></path>
                <path d="M8.2,50.7 L3.6,53.4 C0.7,55.1 0.7,57.8 3.6,59.5 L41.5,81.4 C44.4,83.1 49.1,83.1 52,81.4 L141,30 C143.9,28.3 143.9,25.6 141,23.9 L110.6,6.3" id="Shape" class="stroke-primary" stroke-width="3" stroke-linecap="round" stroke-linejoin="round"></path>
                <path d="M13.1,47.8 L12.7,48.1" id="Shape" class="stroke-primary" stroke-width="3" stroke-linecap="round" stroke-linejoin="round"></path>
                <path d="M89.8,3.6 L22.5,42.4" id="Shape" class="stroke-primary" stroke-width="3" stroke-linecap="round" stroke-linejoin="round"></path>
            </g>
            <g id="Group" transform="translate(0.000000, 11.000000)">
                <path d="M51,81.9 L142,29.4 C144.4,28 144.1,25.6 141.3,24 L102.9,1.8 C100.2,0.2 96,-2.22044605e-15 93.6,1.4 L2.6,53.9 C0.2,55.3 0.5,57.7 3.3,59.3 L41.7,81.5 C44.4,83.1 48.6,83.3 51,81.9 Z" id="Shape" class="fill-neutral" fill-rule="nonzero"></path>
                <path d="M51,81.9 L138.9,31.1 C141.3,29.7 141,27.3 138.2,25.7 L102.5,5.1 C99.8,3.5 95.6,3.3 93.2,4.7 L5.3,55.5 C2.9,56.9 3.2,59.3 6,60.9 L41.7,81.5 C44.4,83.1 48.6,83.3 51,81.9 Z" id="Shape" class="fill-primary-300" fill-rule="nonzero"></path>
                <path d="M8.2,50.7 L3.6,53.4 C0.7,55.1 0.7,57.8 3.6,59.5 L41.5,81.4 C44.4,83.1 49.1,83.1 52,81.4 L141,30 C143.9,28.3 143.9,25.6 141,23.9 L110.6,6.3" id="Shape" class="stroke-primary" stroke-width="3" stroke-linecap="round" stroke-linejoin="round"></path>
                <path d="M13.1,47.9 L12.7,48.1" id="Shape" class="stroke-primary" stroke-width="3" stroke-linecap="round" stroke-linejoin="round"></path>
                <path d="M89.8,3.6 L22.5,42.5" id="Shape" class="stroke-primary" stroke-width="3" stroke-linecap="round" stroke-linejoin="round"></path>
            </g>
            <g id="Group">
                <g id="Shape">
                    <path d="M51,81.5 L142,29 C144.4,27.6 144.1,25.2 141.3,23.6 L102.9,1.4 C100.2,-0.2 96,-0.4 93.6,1 L2.6,53.5 C0.2,54.9 0.5,57.3 3.3,58.9 L41.7,81.1 C44.4,82.7 48.6,82.9 51,81.5 Z" class="fill-neutral" fill-rule="nonzero"></path>
                    <path d="M51.9,81.1 L139.8,30.3 C142.2,28.9 141.9,26.5 139.1,24.9 L103.4,4.3 C100.7,2.7 96.5,2.5 94.1,3.9 L6.2,54.7 C3.8,56.1 4.1,58.5 6.9,60.1 L42.6,80.7 C45.4,82.3 49.5,82.4 51.9,81.1 Z" class="fill-primary-100" fill-rule="nonzero"></path>
                    <path d="M8.2,50.4 L3.6,53.1 C0.7,54.8 0.7,57.5 3.6,59.2 L41.5,81.1 C44.4,82.8 49.1,82.8 52,81.1 L141,29.7 C143.9,28 143.9,25.3 141,23.6 L110.6,6" class="stroke-primary" stroke-width="3" stroke-linecap="round" stroke-linejoin="round"></path>
                    <path d="M13.1,47.5 L12.7,47.8" class="stroke-primary" stroke-width="3" stroke-linecap="round" stroke-linejoin="round"></path>
                    <path d="M89.8,3.3 L22.5,42.1" class="stroke-primary" stroke-width="3" stroke-linecap="round" stroke-linejoin="round"></path>
                </g>
                <path d="M51.5,74 C49,72.6 44.9,72.6 42.4,74 C39.2,72.1 19.2,60.6 15.8,58.7 C18.3,57.2 18.3,54.9 15.8,53.4 C23,49.2 65.2,24.9 83.8,14.2" id="Shape" class="stroke-primary" stroke-width="3" stroke-linecap="round" stroke-linejoin="round"></path>
                <path d="M91.5,9.7 C94,11.1 98.1,11.1 100.6,9.7 C103.9,11.6 124,23.2 127.2,25 C124.7,26.5 124.7,28.8 127.2,30.3" id="Shape" class="stroke-primary" stroke-width="3" stroke-linecap="round" stroke-linejoin="round"></path>
                <path d="M83.6,36.6 C83.2,36.3 82.7,36 82.2,35.7 C75,31.5 64,31.1 57.7,34.7 C54.9,36.3 53.4,38.5 53.4,40.8" id="Shape" class="stroke-primary" stroke-width="3" stroke-linecap="round" stroke-linejoin="round"></path>
                <path d="M54.8,45 C55.8,46.4 57.3,47.7 59.3,48.9 C66.5,53.1 77.5,53.5 83.8,49.9 C88,47.5 89.1,43.8 87.1,40.4" id="Shape" class="stroke-primary" stroke-width="3" stroke-linecap="round" stroke-linejoin="round"></path>
                <path d="M91.6,29.9 L98.1,26.1" id="Shape" class="stroke-primary" stroke-width="3" stroke-linecap="round" stroke-linejoin="round"></path>
                <path d="M48.6,54.7 L42.4,58.3" id="Shape" class="stroke-primary" stroke-width="3" stroke-linecap="round" stroke-linejoin="round"></path>
                <path d="M104.6,2.5 L102.7,1.4 C100.5,0.2 97.3,-0.1 94.7,0.7" id="Shape" class="stroke-primary" stroke-width="3" stroke-linecap="round" stroke-linejoin="round"></path>
            </g>
            <g id="Group" transform="translate(80.000000, 37.000000)">
                <g transform="translate(27.000000, 31.000000)">
                    <path d="M38.4,6.2 C38.4,3 29.9,0.4 19.3,0.4 C8.7,0.4 0.2,3 0.2,6.2 C0.2,6.2 0.2,6.3 0.2,6.3 L0.2,37.2 C0.3,38.5 1.7,39.7 4.1,40.6 C4.1,40.6 4.1,40.6 4.1,40.6 C4.3,40.7 4.5,40.7 4.7,40.8 C4.7,40.8 4.7,40.8 4.7,40.8 C4.9,40.9 5.1,40.9 5.3,41 C5.3,41 5.3,41 5.3,41 C5.5,41.1 5.7,41.1 5.9,41.2 C5.9,41.2 5.9,41.2 6,41.2 C6.2,41.3 6.4,41.3 6.6,41.4 C6.6,41.4 6.7,41.4 6.7,41.4 C6.9,41.5 7.1,41.5 7.3,41.6 C7.3,41.6 7.4,41.6 7.4,41.6 C7.6,41.6 7.8,41.7 8,41.7 C8.1,41.7 8.1,41.7 8.2,41.7 C8.4,41.7 8.6,41.8 8.8,41.8 C8.9,41.8 8.9,41.8 9,41.8 C9.2,41.8 9.4,41.9 9.6,41.9 C9.7,41.9 9.7,41.9 9.8,41.9 C10,41.9 10.2,42 10.4,42 C10.5,42 10.6,42 10.7,42 C10.9,42 11.1,42.1 11.3,42.1 C11.4,42.1 11.5,42.1 11.6,42.1 C11.8,42.1 12,42.2 12.1,42.2 C12.2,42.2 12.3,42.2 12.4,42.2 C12.6,42.2 12.8,42.2 12.9,42.3 C13,42.3 13.1,42.3 13.3,42.3 C13.5,42.3 13.6,42.3 13.8,42.4 C13.9,42.4 14.1,42.4 14.2,42.4 C14.4,42.4 14.5,42.4 14.7,42.4 C14.8,42.4 15,42.4 15.1,42.4 C15.3,42.4 15.4,42.4 15.6,42.4 C15.8,42.4 15.9,42.4 16.1,42.4 C16.2,42.4 16.4,42.4 16.5,42.4 C16.7,42.4 16.9,42.4 17,42.4 C17.1,42.4 17.3,42.4 17.4,42.4 C17.6,42.4 17.8,42.4 18,42.4 C18.1,42.4 18.2,42.4 18.3,42.4 C18.6,42.4 18.9,42.4 19.3,42.4 C19.6,42.4 20,42.4 20.3,42.4 C20.4,42.4 20.5,42.4 20.6,42.4 C20.8,42.4 21,42.4 21.2,42.4 C21.3,42.4 21.5,42.4 21.6,42.4 C21.8,42.4 22,42.4 22.2,42.4 C22.3,42.4 22.5,42.4 22.6,42.4 C22.8,42.4 22.9,42.4 23.1,42.4 C23.3,42.4 23.4,42.4 23.6,42.4 C23.7,42.4 23.9,42.4 24,42.4 C24.2,42.4 24.3,42.4 24.5,42.4 C24.6,42.4 24.8,42.4 24.9,42.4 C25.1,42.4 25.2,42.4 25.4,42.3 C25.5,42.3 25.7,42.3 25.8,42.3 C26,42.3 26.1,42.3 26.3,42.2 C26.4,42.2 26.5,42.2 26.6,42.2 C26.8,42.2 27,42.2 27.1,42.1 C27.2,42.1 27.3,42.1 27.4,42.1 C27.6,42.1 27.8,42 28,42 C28.1,42 28.2,42 28.3,42 C28.5,42 28.7,41.9 28.9,41.9 C29,41.9 29.1,41.9 29.1,41.9 C29.3,41.9 29.5,41.8 29.7,41.8 C29.8,41.8 29.8,41.8 29.9,41.8 C30.1,41.8 30.3,41.7 30.5,41.7 C30.6,41.7 30.6,41.7 30.7,41.7 C30.9,41.7 31.1,41.6 31.3,41.6 C31.3,41.6 31.4,41.6 31.4,41.6 C31.6,41.6 31.8,41.5 32,41.4 C32,41.4 32.1,41.4 32.1,41.4 C32.3,41.3 32.5,41.3 32.7,41.2 C32.7,41.2 32.8,41.2 32.8,41.2 C33,41.1 33.2,41.1 33.4,41 C33.4,41 33.4,41 33.5,41 C33.7,40.9 33.9,40.9 34.1,40.8 C34.1,40.8 34.1,40.8 34.1,40.8 C34.3,40.7 34.5,40.7 34.6,40.6 C34.6,40.6 34.6,40.6 34.6,40.6 C34.8,40.5 35,40.5 35.1,40.4 C35.1,40.4 35.1,40.4 35.1,40.4 C37.2,39.5 38.4,38.4 38.5,37.2 L38.5,6.3 C38.4,6.2 38.4,6.2 38.4,6.2 Z" id="Shape" class="fill-neutral" fill-rule="nonzero"></path>
                    <path d="M38.4,6.3 L38.4,37.2 C38.4,38.6 36.3,39.8 35,40.4 C30.5,42.4 23.4,43.1 16.7,42.8 C8.1,42.4 0.4,40.4 0.2,37.1 L0.2,6.2 C0.2,6.2 0.2,6.1 0.2,6.1 C0.2,2.9 8.7,0.3 19.3,0.3 C29.9,0.3 38.4,2.9 38.4,6.1 C38.4,6.2 38.4,6.2 38.4,6.3 Z" id="Shape" class="fill-primary-200" fill-rule="nonzero"></path>
                    <path d="M11,17.6 C4.6,16.7 0.2,14.7 0.2,12.3" id="Shape" class="stroke-primary" stroke-width="3" stroke-linecap="round" stroke-linejoin="round"></path>
                    <path d="M38.4,12.3 C38.4,15.5 29.9,18.1 19.3,18.1 C18.7,18.1 18.1,18.1 17.5,18.1" id="Shape" class="stroke-primary" stroke-width="3" stroke-linecap="round" stroke-linejoin="round"></path>
                    <path d="M38.4,18.5 C38.4,21.7 29.9,24.3 19.3,24.3 C8.8,24.3 0.2,21.7 0.2,18.5" id="Shape" class="stroke-primary" stroke-width="3" stroke-linecap="round" stroke-linejoin="round"></path>
                    <path d="M38.4,24.7 C38.4,27.9 29.9,30.5 19.3,30.5 C8.9,30.5 0.5,28 0.2,24.8" id="Shape" class="stroke-primary" stroke-width="3" stroke-linecap="round" stroke-linejoin="round"></path>
                    <path d="M38.4,31.1 C37.9,34.2 29.6,36.7 19.3,36.7 C8.8,36.7 0.2,34.1 0.2,30.9" id="Shape" class="stroke-primary" stroke-width="3" stroke-linecap="round" stroke-linejoin="round"></path>
                    <path d="M38.4,6.2 C38.4,3 29.9,0.4 19.3,0.4 C8.7,0.4 0.2,3 0.2,6.2 C0.2,6.2 0.2,6.3 0.2,6.3 L0.2,37.2 C0.4,40.9 10.3,42.4 14,42.7 C26.1,43.8 38.3,40.9 38.3,37.2 L38.3,6.3 C38.4,6.2 38.4,6.2 38.4,6.2 Z" id="Shape" class="stroke-primary" stroke-width="3" stroke-linecap="round" stroke-linejoin="round"></path>
                    <ellipse id="Oval" class="fill-neutral" fill-rule="nonzero" cx="19.3" cy="6.2" rx="19.1" ry="5.8"></ellipse>
                    <ellipse id="Oval" class="fill-primary-100" fill-rule="nonzero" cx="19.3" cy="6.8" rx="17" ry="5.2"></ellipse>
                    <path d="M25.3,11.7 C25,11.7 24.6,11.8 24.3,11.8" id="Shape" class="stroke-primary" stroke-width="3" stroke-linecap="round" stroke-linejoin="round"></path>
                    <path d="M19.2,12 C8.7,12 0.2,9.4 0.2,6.2 C0.2,3 8.7,0.4 19.3,0.4 C29.8,0.4 38.4,3 38.4,6.2 C38.4,8.3 34.7,10.2 29.2,11.2" id="Shape" class="stroke-primary" stroke-width="3" stroke-linecap="round" stroke-linejoin="round"></path>
                </g>
                <g transform="translate(27.000000, 0.000000)">
                    <path d="M38.4,6.3 C38.4,3.1 29.9,0.5 19.3,0.5 C8.7,0.5 0.2,3.1 0.2,6.3 C0.2,6.3 0.2,6.4 0.2,6.4 L0.2,37.3 C0.3,38.6 1.7,39.8 4.1,40.7 C4.1,40.7 4.1,40.7 4.1,40.7 C4.3,40.8 4.5,40.8 4.7,40.9 C4.7,40.9 4.7,40.9 4.7,40.9 C4.9,41 5.1,41 5.3,41.1 C5.3,41.1 5.3,41.1 5.3,41.1 C5.5,41.2 5.7,41.2 5.9,41.3 C5.9,41.3 5.9,41.3 6,41.3 C6.2,41.4 6.4,41.4 6.6,41.5 C6.6,41.5 6.7,41.5 6.7,41.5 C6.9,41.6 7.1,41.6 7.3,41.7 C7.3,41.7 7.4,41.7 7.4,41.7 C7.6,41.7 7.8,41.8 8,41.8 C8.1,41.8 8.1,41.8 8.2,41.8 C8.4,41.8 8.6,41.9 8.8,41.9 C8.9,41.9 8.9,41.9 9,41.9 C9.2,41.9 9.4,42 9.6,42 C9.7,42 9.7,42 9.8,42 C10,42 10.2,42.1 10.4,42.1 C10.5,42.1 10.6,42.1 10.7,42.1 C10.9,42.1 11.1,42.2 11.3,42.2 C11.4,42.2 11.5,42.2 11.6,42.2 C11.8,42.2 12,42.3 12.1,42.3 C12.2,42.3 12.3,42.3 12.4,42.3 C12.6,42.3 12.8,42.3 12.9,42.4 C13,42.4 13.1,42.4 13.3,42.4 C13.5,42.4 13.6,42.4 13.8,42.5 C13.9,42.5 14.1,42.5 14.2,42.5 C14.4,42.5 14.5,42.5 14.7,42.5 C14.8,42.5 15,42.5 15.1,42.5 C15.3,42.5 15.4,42.5 15.6,42.5 C15.8,42.5 15.9,42.5 16.1,42.5 C16.2,42.5 16.4,42.5 16.5,42.5 C16.7,42.5 16.9,42.5 17,42.5 C17.1,42.5 17.3,42.5 17.4,42.5 C17.6,42.5 17.8,42.5 18,42.5 C18.1,42.5 18.2,42.5 18.3,42.5 C18.6,42.5 18.9,42.5 19.3,42.5 C19.6,42.5 20,42.5 20.3,42.5 C20.4,42.5 20.5,42.5 20.6,42.5 C20.8,42.5 21,42.5 21.2,42.5 C21.3,42.5 21.5,42.5 21.6,42.5 C21.8,42.5 22,42.5 22.2,42.5 C22.3,42.5 22.5,42.5 22.6,42.5 C22.8,42.5 22.9,42.5 23.1,42.5 C23.3,42.5 23.4,42.5 23.6,42.5 C23.7,42.5 23.9,42.5 24,42.5 C24.2,42.5 24.3,42.5 24.5,42.5 C24.6,42.5 24.8,42.5 24.9,42.5 C25.1,42.5 25.2,42.5 25.4,42.4 C25.5,42.4 25.7,42.4 25.8,42.4 C26,42.4 26.1,42.4 26.3,42.3 C26.4,42.3 26.5,42.3 26.6,42.3 C26.8,42.3 27,42.3 27.1,42.2 C27.2,42.2 27.3,42.2 27.4,42.2 C27.6,42.2 27.8,42.1 28,42.1 C28.1,42.1 28.2,42.1 28.3,42.1 C28.5,42.1 28.7,42 28.9,42 C29,42 29.1,42 29.1,42 C29.3,42 29.5,41.9 29.7,41.9 C29.8,41.9 29.8,41.9 29.9,41.9 C30.1,41.9 30.3,41.8 30.5,41.8 C30.6,41.8 30.6,41.8 30.7,41.8 C30.9,41.8 31.1,41.7 31.3,41.7 C31.3,41.7 31.4,41.7 31.4,41.7 C31.6,41.7 31.8,41.6 32,41.5 C32,41.5 32.1,41.5 32.1,41.5 C32.3,41.4 32.5,41.4 32.7,41.3 C32.7,41.3 32.8,41.3 32.8,41.3 C33,41.2 33.2,41.2 33.4,41.1 C33.4,41.1 33.4,41.1 33.5,41.1 C33.7,41 33.9,41 34.1,40.9 C34.1,40.9 34.1,40.9 34.1,40.9 C34.3,40.8 34.5,40.8 34.6,40.7 C34.6,40.7 34.6,40.7 34.6,40.7 C34.8,40.6 35,40.6 35.1,40.5 C35.1,40.5 35.1,40.5 35.1,40.5 C37.2,39.6 38.4,38.5 38.5,37.3 L38.5,6.4 C38.4,6.4 38.4,6.4 38.4,6.3 Z" id="Shape" class="fill-neutral" fill-rule="nonzero"></path>
                    <path d="M38.4,6.5 L38.4,37.4 C38.4,38.8 36.3,40 35,40.6 C30.5,42.6 23.4,43.3 16.7,43 C8.1,42.6 0.4,40.6 0.2,37.3 L0.2,6.4 C0.2,6.4 0.2,6.3 0.2,6.3 C0.2,3.1 8.7,0.5 19.3,0.5 C29.9,0.5 38.4,3.1 38.4,6.3 C38.4,6.4 38.4,6.4 38.4,6.5 Z" id="Shape" class="fill-primary-200" fill-rule="nonzero"></path>
                    <path d="M38.4,12.5 C38.4,15.7 29.9,18.3 19.3,18.3 C8.8,18.3 0.2,15.7 0.2,12.5" id="Shape" class="stroke-primary" stroke-width="3" stroke-linecap="round" stroke-linejoin="round"></path>
                    <path d="M38.4,18.7 C38.4,21.9 29.9,24.5 19.3,24.5 C8.8,24.5 0.2,21.9 0.2,18.7" id="Shape" class="stroke-primary" stroke-width="3" stroke-linecap="round" stroke-linejoin="round"></path>
                    <path d="M23.6,30.6 C22.2,30.7 20.8,30.7 19.3,30.7 C8.9,30.7 0.5,28.2 0.2,25" id="Shape" class="stroke-primary" stroke-width="3" stroke-linecap="round" stroke-linejoin="round"></path>
                    <path d="M38.4,24.9 C38.4,26.9 35.2,28.6 30.4,29.7" id="Shape" class="stroke-primary" stroke-width="3" stroke-linecap="round" stroke-linejoin="round"></path>
                    <path d="M38.4,31.3 C37.9,34.4 29.6,36.9 19.3,36.9 C8.8,36.9 0.2,34.3 0.2,31.1" id="Shape" class="stroke-primary" stroke-width="3" stroke-linecap="round" stroke-linejoin="round"></path>
                    <path d="M38.4,6.3 C38.4,3.1 29.9,0.5 19.3,0.5 C8.7,0.5 0.2,3.1 0.2,6.3 C0.2,6.3 0.2,6.4 0.2,6.4 L0.2,37.3 C0.4,41 10.3,42.5 14,42.8 C26.1,43.9 38.3,41 38.3,37.3 L38.3,6.4 C38.4,6.4 38.4,6.4 38.4,6.3 Z" id="Shape" class="stroke-primary" stroke-width="3" stroke-linecap="round" stroke-linejoin="round"></path>
                    <ellipse id="Oval" class="fill-neutral" fill-rule="nonzero" cx="19.3" cy="6.3" rx="19.1" ry="5.8"></ellipse>
                    <ellipse id="Oval" class="fill-primary-100" fill-rule="nonzero" cx="19.3" cy="7" rx="17" ry="5.2"></ellipse>
                    <path d="M25.3,11.9 C25,11.9 24.6,12 24.3,12" id="Shape" class="stroke-primary" stroke-width="3" stroke-linecap="round" stroke-linejoin="round"></path>
                    <path d="M19.2,12.2 C8.7,12.2 0.2,9.6 0.2,6.4 C0.2,3.2 8.7,0.6 19.3,0.6 C29.8,0.6 38.4,3.2 38.4,6.4 C38.4,8.5 34.7,10.4 29.2,11.4" id="Shape" class="stroke-primary" stroke-width="3" stroke-linecap="round" stroke-linejoin="round"></path>
                </g>
                <g transform="translate(0.000000, 39.000000)">
                    <path d="M39.1,5.9 C39.1,2.7 30.6,0.1 20,0.1 C9.4,0.1 0.9,2.7 0.9,5.9 C0.9,5.9 0.9,6 0.9,6 L0.9,36.9 C1,38.2 2.4,39.4 4.8,40.3 C4.8,40.3 4.8,40.3 4.8,40.3 C5,40.4 5.2,40.4 5.4,40.5 C5.4,40.5 5.4,40.5 5.4,40.5 C5.6,40.6 5.8,40.6 6,40.7 C6,40.7 6,40.7 6,40.7 C6.2,40.8 6.4,40.8 6.6,40.9 C6.6,40.9 6.6,40.9 6.7,40.9 C6.9,41 7.1,41 7.3,41.1 C7.3,41.1 7.4,41.1 7.4,41.1 C7.6,41.2 7.8,41.2 8,41.3 C8,41.3 8.1,41.3 8.1,41.3 C8.3,41.3 8.5,41.4 8.7,41.4 C8.8,41.4 8.8,41.4 8.9,41.4 C9.1,41.4 9.3,41.5 9.5,41.5 C9.6,41.5 9.6,41.5 9.7,41.5 C9.9,41.5 10.1,41.6 10.3,41.6 C10.4,41.6 10.4,41.6 10.5,41.6 C10.7,41.6 10.9,41.7 11.1,41.7 C11.2,41.7 11.3,41.7 11.4,41.7 C11.6,41.7 11.8,41.8 12,41.8 C12.1,41.8 12.2,41.8 12.3,41.8 C12.5,41.8 12.7,41.9 12.8,41.9 C12.9,41.9 13,41.9 13.1,41.9 C13.3,41.9 13.5,41.9 13.6,42 C13.7,42 13.8,42 14,42 C14.2,42 14.3,42 14.5,42.1 C14.6,42.1 14.8,42.1 14.9,42.1 C15.1,42.1 15.2,42.1 15.4,42.1 C15.5,42.1 15.7,42.1 15.8,42.1 C16,42.1 16.1,42.1 16.3,42.1 C16.5,42.1 16.6,42.1 16.8,42.1 C16.9,42.1 17.1,42.1 17.2,42.1 C17.4,42.1 17.6,42.1 17.7,42.1 C17.8,42.1 18,42.1 18.1,42.1 C18.3,42.1 18.5,42.1 18.7,42.1 C18.8,42.1 18.9,42.1 19,42.1 C19.3,42.1 19.6,42.1 20,42.1 C20.3,42.1 20.7,42.1 21,42.1 C21.1,42.1 21.2,42.1 21.3,42.1 C21.5,42.1 21.7,42.1 21.9,42.1 C22,42.1 22.2,42.1 22.3,42.1 C22.5,42.1 22.7,42.1 22.9,42.1 C23,42.1 23.2,42.1 23.3,42.1 C23.5,42.1 23.6,42.1 23.8,42.1 C24,42.1 24.1,42.1 24.3,42.1 C24.4,42.1 24.6,42.1 24.7,42.1 C24.9,42.1 25,42.1 25.2,42.1 C25.3,42.1 25.5,42.1 25.6,42.1 C25.8,42.1 25.9,42.1 26.1,42 C26.2,42 26.4,42 26.5,42 C26.7,42 26.8,42 27,41.9 C27.1,41.9 27.2,41.9 27.3,41.9 C27.5,41.9 27.7,41.9 27.8,41.8 C27.9,41.8 28,41.8 28.1,41.8 C28.3,41.8 28.5,41.7 28.7,41.7 C28.8,41.7 28.9,41.7 29,41.7 C29.2,41.7 29.4,41.6 29.6,41.6 C29.7,41.6 29.8,41.6 29.8,41.6 C30,41.6 30.2,41.5 30.4,41.5 C30.5,41.5 30.5,41.5 30.6,41.5 C30.8,41.5 31,41.4 31.2,41.4 C31.3,41.4 31.3,41.4 31.4,41.4 C31.6,41.4 31.8,41.3 32,41.3 C32,41.3 32.1,41.3 32.1,41.3 C32.3,41.3 32.5,41.2 32.7,41.1 C32.7,41.1 32.8,41.1 32.8,41.1 C33,41 33.2,41 33.4,40.9 C33.4,40.9 33.5,40.9 33.5,40.9 C33.7,40.8 33.9,40.8 34.1,40.7 C34.1,40.7 34.1,40.7 34.2,40.7 C34.4,40.6 34.6,40.6 34.8,40.5 C34.8,40.5 34.8,40.5 34.8,40.5 C35,40.4 35.2,40.4 35.3,40.3 C35.3,40.3 35.3,40.3 35.3,40.3 C35.5,40.2 35.7,40.2 35.8,40.1 C35.8,40.1 35.8,40.1 35.8,40.1 C37.9,39.2 39.1,38.1 39.2,36.9 L39.2,6 C39.1,5.9 39.1,5.9 39.1,5.9 Z" id="Shape" class="fill-neutral" fill-rule="nonzero"></path>
                    <path d="M39.1,6 L39.1,36.9 C39.1,38.3 37,39.5 35.7,40.1 C31.2,42.1 24.1,42.8 17.4,42.5 C8.8,42.1 1.1,40.1 0.9,36.8 L0.9,6 C0.9,6 0.9,5.9 0.9,5.9 C0.9,2.7 9.4,0.1 20,0.1 C30.6,0.1 39.1,2.7 39.1,5.9 C39.1,5.9 39.1,5.9 39.1,6 Z" id="Shape" class="fill-primary-200" fill-rule="nonzero"></path>
                    <path d="M39.1,12 C39.1,15.2 30.6,17.8 20,17.8 C9.4,17.8 0.9,15.2 0.9,12" id="Shape" class="stroke-primary" stroke-width="3" stroke-linecap="round" stroke-linejoin="round"></path>
                    <path d="M39.1,18.2 C39.1,21.4 30.6,24 20,24 C9.5,24 0.9,21.4 0.9,18.2" id="Shape" class="stroke-primary" stroke-width="3" stroke-linecap="round" stroke-linejoin="round"></path>
                    <path d="M3.3,27.3 C1.8,26.5 0.9,25.6 0.8,24.6" id="Shape" class="stroke-primary" stroke-width="3" stroke-linecap="round" stroke-linejoin="round"></path>
                    <path d="M39.1,24.4 C39.1,27.6 30.6,30.2 20,30.2 C16.3,30.2 12.9,29.9 9.9,29.3" id="Shape" class="stroke-primary" stroke-width="3" stroke-linecap="round" stroke-linejoin="round"></path>
                    <path d="M39,30.8 C38.5,33.9 30.2,36.4 19.9,36.4 C9.4,36.4 0.8,33.8 0.8,30.6" id="Shape" class="stroke-primary" stroke-width="3" stroke-linecap="round" stroke-linejoin="round"></path>
                    <path d="M39.1,5.9 C39.1,2.7 30.6,0.1 20,0.1 C9.4,0.1 0.9,2.7 0.9,5.9 C0.9,5.9 0.9,6 0.9,6 L0.9,36.9 C1.1,40.6 11,42.1 14.7,42.4 C26.8,43.5 39,40.6 39,36.9 L39,6 C39.1,5.9 39.1,5.9 39.1,5.9 Z" id="Shape" class="stroke-primary" stroke-width="3" stroke-linecap="round" stroke-linejoin="round"></path>
                    <ellipse id="Oval" class="fill-neutral" fill-rule="nonzero" cx="20" cy="5.9" rx="19.1" ry="5.8"></ellipse>
                    <ellipse id="Oval" class="fill-primary-100" fill-rule="nonzero" cx="20" cy="6.5" rx="17" ry="5.2"></ellipse>
                    <path d="M26,11.4 C25.7,11.4 25.3,11.5 25,11.5" id="Shape" class="stroke-primary" stroke-width="3" stroke-linecap="round" stroke-linejoin="round"></path>
                    <path d="M19.9,11.7 C9.4,11.7 0.9,9.1 0.9,5.9 C0.9,2.7 9.4,0.1 20,0.1 C30.6,0.1 39.1,2.7 39.1,5.9 C39.1,8 35.4,9.9 29.9,10.9" id="Shape" class="stroke-primary" stroke-width="3" stroke-linecap="round" stroke-linejoin="round"></path>
                </g>
            </g>
        </g>
    </g>
</svg>