<?xml version="1.0" encoding="UTF-8"?>
<svg width="151px" height="148px" viewBox="0 0 151 148" version="1.1" xmlns="http://www.w3.org/2000/svg" xmlns:xlink="http://www.w3.org/1999/xlink">
    <!-- Generator: Sketch 51.2 (57519) - http://www.bohemiancoding.com/sketch -->
    <title>Certificate</title>
    <desc>Created with Sketch.</desc>
    <defs></defs>
    <g id="Page-1" stroke="none" stroke-width="1" fill="none" fill-rule="evenodd">
        <g id="Certificate" transform="translate(2.000000, 2.000000)">
            <path d="M104.2,135 L101.9,129.6 C101.2,128 99.3,127.2 97.7,127.9 L91.4,130.6 C89.4,131.4 87.3,129.5 88.1,127.4 L98.8,99.8 L119.4,107.7 L108.9,135 C108,137 105,137 104.2,135 Z" id="Shape" class="fill-neutral" fill-rule="nonzero"></path>
            <path d="M125.2,142.5 L127.6,137 C128.3,135.4 130.2,134.7 131.8,135.3 L138.1,137.8 C140.1,138.6 142.1,136.6 141.3,134.6 L124.9,92.1 L104.3,100 L120.6,142.2 C121.4,144.4 124.3,144.5 125.2,142.5 Z" id="Shape" class="fill-neutral" fill-rule="nonzero"></path>
            <path d="M104.2,135 L101.9,129.6 C101.2,128 99.3,127.2 97.7,127.9 L91.4,130.6 C89.4,131.4 87.3,129.5 88.1,127.4 L98.8,99.8 L119.4,107.7 L108.9,135 C108,137 105,137 104.2,135 Z" id="Shape" class="fill-primary-300" fill-rule="nonzero"></path>
            <path d="M125.2,142.5 L127.6,137 C128.3,135.4 130.2,134.7 131.8,135.3 L138.1,137.8 C140.1,138.6 142.1,136.6 141.3,134.6 L124.9,92.1 L104.3,100 L120.6,142.2 C121.4,144.4 124.3,144.5 125.2,142.5 Z" id="Shape" class="fill-primary-300" fill-rule="nonzero"></path>
            <path d="M94,112 L98.7,99.7 L119.3,107.6 L108.8,134.9 C108,137 105.1,137 104.2,135 L101.9,129.6 C101.2,128 99.3,127.2 97.7,127.9 L91.4,130.6 C89.4,131.4 87.3,129.5 88.1,127.4 L89.5,123.7" id="Shape" class="stroke-primary" stroke-width="3" stroke-linecap="round" stroke-linejoin="round"></path>
            <path d="M91.4,118.6 L92.1,116.8" id="Shape" class="stroke-primary" stroke-width="3" stroke-linecap="round" stroke-linejoin="round"></path>
            <path d="M115.2,128.3 L120.6,142.4 C121.4,144.5 124.3,144.5 125.2,142.5 L127.6,137 C128.3,135.4 130.2,134.7 131.8,135.3 L138.1,137.8 C140.1,138.6 142.1,136.6 141.3,134.6 L124.9,92.1 L104.3,100 L106.1,104.5" id="Shape" class="stroke-primary" stroke-width="3" stroke-linecap="round" stroke-linejoin="round"></path>
            <path d="M141.4,99.4 L6.1,99.4 C2.9,99.4 0.4,96.8 0.4,93.7 L0.4,5.7 C0.4,2.5 3,0 6.1,0 L141.4,0 C144.6,0 147.1,2.6 147.1,5.7 L147.1,93.7 C147.1,96.8 144.6,99.4 141.4,99.4 Z" id="Shape" class="fill-neutral" fill-rule="nonzero"></path>
            <path d="M141.4,99.4 L6.1,99.4 C2.9,99.4 0.4,96.8 0.4,93.7 L0.4,5.7 C0.4,2.5 3,0 6.1,0 L141.4,0 C144.6,0 147.1,2.6 147.1,5.7 L147.1,93.7 C147.1,96.8 144.6,99.4 141.4,99.4 Z" id="Shape" class="stroke-primary" stroke-width="3" stroke-linecap="round" stroke-linejoin="round"></path>
            <path d="M47,13.6 L100.5,13.6" id="Shape" class="stroke-primary" stroke-width="3" stroke-linecap="round" stroke-linejoin="round"></path>
            <path d="M58.8,22.3 L88.7,22.3" id="Shape" class="stroke-primary" stroke-width="3" stroke-linecap="round" stroke-linejoin="round"></path>
            <path d="M83.4,44.7 L101.5,44.7" id="Shape" class="stroke-primary-300" stroke-width="3" stroke-linecap="round" stroke-linejoin="round"></path>
            <path d="M12,44.7 L69.3,44.7" id="Shape" class="stroke-primary-300" stroke-width="3" stroke-linecap="round" stroke-linejoin="round"></path>
            <path d="M72.4,57.7 L80.1,57.7" id="Shape" class="stroke-primary-300" stroke-width="3" stroke-linecap="round" stroke-linejoin="round"></path>
            <path d="M28.1,57.7 L60.3,57.7" id="Shape" class="stroke-primary-300" stroke-width="3" stroke-linecap="round" stroke-linejoin="round"></path>
            <path d="M12,57.7 L16.4,57.7" id="Shape" class="stroke-primary-300" stroke-width="3" stroke-linecap="round" stroke-linejoin="round"></path>
            <path d="M14.9,85.6 C15.2,81.9 17.9,78.5 21.5,77.3 C25.1,76.1 29.2,77.3 31.7,80.2 C33,81.7 34.3,83.9 36.3,83.7 C38.5,83.4 39.2,80.6 40.6,78.9 C41.7,77.7 43.3,77.1 44.9,77.4 C46.5,77.7 47.9,78.8 48.5,80.2" id="Shape" class="stroke-primary" stroke-width="3" stroke-linecap="round" stroke-linejoin="round"></path>
            <path d="M137.4,94.7 C137.2,95.9 136.5,96.8 135.4,97.7 C134.7,98.3 134,98.8 133.3,99.4 C132.1,100.4 131.3,101.6 130.8,103.1 C130.5,103.9 130.2,104.7 129.9,105.5 C129.1,107.6 127.5,108.6 125.3,108.7 C124.4,108.7 123.6,108.8 122.7,108.8 C121.3,108.9 120,109.2 118.8,110 C117.7,110.7 116.7,111.4 115.6,112 C115.3,112.2 114.9,112.3 114.6,112.4 C113.5,112.7 112.4,112.6 111.3,112 C110.5,111.6 109.7,111.1 108.9,110.5 C107.9,109.8 106.9,109.3 105.8,109 C105,108.8 104.1,108.7 103.2,108.7 L103.1,108.7 C102.3,108.7 101.4,108.6 100.6,108.5 C99,108.3 97.9,107.4 97.2,106 C96.8,105.2 96.4,104.3 96.2,103.4 C95.6,101.4 94.4,99.9 92.8,98.7 C92.1,98.1 91.3,97.6 90.7,96.9 C89.4,95.7 89.1,94.2 89.5,92.5 C89.7,91.7 89.8,90.9 90.1,90.2 C90.8,88.3 90.8,86.4 90.1,84.4 C89.9,83.7 89.7,83 89.5,82.3 C88.9,80.1 89.6,78.3 91.3,76.9 C91.8,76.5 92.3,76 92.8,75.7 C94.4,74.6 95.5,73 96.1,71.2 C96.4,70.3 96.8,69.4 97.2,68.5 C98,66.9 99.4,66.1 101.2,66 C102.2,65.9 103.3,65.9 104.3,65.8 C106.1,65.8 107.6,65 109,64 C109.5,63.6 110.1,63.3 110.7,62.9 C112.6,61.7 114.5,61.7 116.4,62.9 C117.2,63.4 117.9,63.9 118.7,64.4 C120.1,65.3 121.5,65.7 123.2,65.8 C124.4,65.8 125.5,65.9 126.7,66.1 C128.1,66.3 129.2,67.2 129.8,68.5 C130.1,69.1 130.4,69.7 130.6,70.3 C131.3,72.9 132.9,74.9 135,76.4 C135.7,76.9 136.3,77.5 136.8,78.1 C137.6,78.9 137.8,79.8 137.8,81.4 C137.7,81.6 137.7,82 137.6,82.4 C137.5,83 137.3,83.6 137.1,84.3 C136.6,85.8 136.5,87.4 136.8,88.9 C136.9,89.4 137,89.8 137.2,90.3 C137.4,91 137.6,91.7 137.7,92.4 C137.5,93.2 137.5,94 137.4,94.7 Z" id="Shape" class="fill-neutral" fill-rule="nonzero"></path>
            <path d="M137.4,94.7 C137.2,95.9 136.5,96.8 135.4,97.7 C134.7,98.3 134,98.8 133.3,99.4 C132.1,100.4 131.3,101.6 130.8,103.1 C130.5,103.9 130.2,104.7 129.9,105.5 C129.1,107.6 127.5,108.6 125.3,108.7 C124.4,108.7 123.6,108.8 122.7,108.8 C121.3,108.9 120,109.2 118.8,110 C117.7,110.7 116.7,111.4 115.6,112 C115.3,112.2 114.9,112.3 114.6,112.4 C114.3,112.3 114,112.2 113.7,112 C113,111.6 112.2,111.2 111.6,110.7 C110,109.5 108.3,109 106.3,109 C106.2,109 106,109 105.9,109 C105.3,109 104.7,108.9 104,108.8 C103.7,108.8 103.5,108.7 103.2,108.6 C102.2,108.3 101.4,107.5 100.9,106.5 C100.5,105.7 100.2,105 100,104.2 C99.5,102.4 98.4,101.1 96.9,100 C96.2,99.5 95.6,99 95,98.4 C93.9,97.3 93.5,96 93.9,94.4 C94.1,93.7 94.2,93 94.4,92.3 C95,90.6 95,88.8 94.4,87.1 C94.2,86.5 94.1,85.8 93.9,85.1 C93.4,83.1 94,81.5 95.6,80.2 C96.1,79.8 96.5,79.4 97,79.1 C98.5,78.1 99.4,76.7 100,75 C100.3,74.2 100.6,73.3 101,72.5 C101.7,71 103,70.3 104.6,70.2 C105.5,70.1 106.5,70.1 107.4,70 C109,70 110.4,69.2 111.6,68.4 C112.1,68.1 112.6,67.7 113.1,67.4 C114.8,66.3 116.5,66.3 118.3,67.4 C119,67.9 119.7,68.3 120.4,68.8 C121.6,69.6 123,70 124.5,70 C125.6,70 126.6,70.1 127.7,70.3 C129,70.5 129.9,71.3 130.5,72.5 C130.8,73 131.1,73.6 131.2,74.2 C131.8,76.6 133.2,78.3 135.2,79.7 C135.8,80.1 136.3,80.7 136.8,81.2 C137.1,81.5 137.3,81.9 137.5,82.3 C137.4,82.9 137.2,83.5 137,84.2 C136.5,85.7 136.4,87.3 136.7,88.8 C136.6,89.9 136.7,91.1 137.1,92.2 C137.3,92.8 137.4,93.5 137.6,94.1 C137.3,94.4 137.3,94.6 137.4,94.7 Z" id="Shape" class="fill-primary-100" fill-rule="nonzero"></path>
            <path d="M97.1,68.3 C97.8,67.1 98.9,66.4 100.3,66.1" id="Shape" class="stroke-primary" stroke-width="3" stroke-linecap="round" stroke-linejoin="round"></path>
            <path d="M130.1,104.6 C129.4,107.3 127.7,108.6 125.2,108.7 C124.3,108.7 123.5,108.8 122.6,108.8 C121.2,108.9 119.9,109.2 118.7,110 C117.6,110.7 116.6,111.4 115.5,112 C114.1,112.8 112.6,112.8 111.2,112 C110.4,111.6 109.6,111.1 108.8,110.5 C107.1,109.2 105.1,108.7 103,108.7 C102.2,108.7 101.3,108.6 100.5,108.5 C98.9,108.3 97.8,107.4 97.1,106 C96.7,105.2 96.3,104.3 96.1,103.4 C95.5,101.4 94.3,100 92.7,98.7 C92,98.1 91.2,97.5 90.6,96.9 C89.3,95.7 89,94.2 89.4,92.5 C89.6,91.7 89.7,90.9 90,90.2 C90.7,88.3 90.7,86.4 90,84.4 C89.8,83.7 89.6,83 89.4,82.3 C88.8,80.1 89.5,78.3 91.2,76.9 C91.7,76.5 92.2,76 92.8,75.7 C93.9,75 94.7,74.1 95.3,73" id="Shape" class="stroke-primary" stroke-width="3" stroke-linecap="round" stroke-linejoin="round"></path>
            <path d="M106,65.5 C107,65.2 107.8,64.6 108.7,64.1 C109.2,63.7 109.8,63.4 110.4,63 C112.3,61.8 114.2,61.8 116.1,63 C116.9,63.5 117.7,64 118.4,64.5 C119.8,65.4 121.2,65.8 122.9,65.9 C124.1,65.9 125.2,66 126.4,66.2 C127.8,66.4 128.9,67.3 129.5,68.6 C129.8,69.2 130.1,69.8 130.3,70.4 C131,73 132.6,75 134.7,76.5 C135.4,77 136,77.6 136.5,78.2 C137.3,79 137.5,79.9 137.5,81.5 C137.4,82.1 137.2,83.3 136.8,84.4 C136.1,86.4 136.1,88.4 136.8,90.4 C137,91.1 137.2,91.8 137.3,92.5 C137.9,94.7 137.1,96.4 135.4,97.8 C134.5,98.5 133.6,99.2 132.7,99.9" id="Shape" class="stroke-primary" stroke-width="3" stroke-linecap="round" stroke-linejoin="round"></path>
            <circle id="Oval" class="fill-neutral" fill-rule="nonzero" cx="113.2" cy="87.4" r="12.4"></circle>
            <path d="M102.2,81.5 C102.3,81.3 102.4,81.2 102.5,81" id="Shape" class="stroke-primary" stroke-width="3" stroke-linecap="round" stroke-linejoin="round"></path>
            <path d="M124.6,82.4 C125.3,83.9 125.6,85.6 125.6,87.3 C125.6,94.2 120,99.7 113.2,99.7 C106.6,99.7 101.1,94.5 100.8,87.9" id="Shape" class="stroke-primary" stroke-width="3" stroke-linecap="round" stroke-linejoin="round"></path>
            <path d="M106.7,76.7 C108.6,75.6 110.8,74.9 113.2,74.9 C115.6,74.9 117.8,75.6 119.6,76.7" id="Shape" class="stroke-primary" stroke-width="3" stroke-linecap="round" stroke-linejoin="round"></path>
        </g>
    </g>
</svg>