<?xml version="1.0" encoding="UTF-8"?>
<svg width="149px" height="143px" viewBox="0 0 149 143" version="1.1" xmlns="http://www.w3.org/2000/svg" xmlns:xlink="http://www.w3.org/1999/xlink">
    <!-- Generator: Sketch 51.2 (57519) - http://www.bohemiancoding.com/sketch -->
    <title>Charger</title>
    <desc>Created with Sketch.</desc>
    <defs></defs>
    <g id="Page-1" stroke="none" stroke-width="1" fill="none" fill-rule="evenodd">
        <g id="Charger" transform="translate(2.000000, 2.000000)">
            <path d="M6.4,21.1 L6.4,3.3 C6.4,1.6 7.8,0.1 9.6,0.1 L32.7,0.1 C34.4,0.1 35.9,1.5 35.9,3.3 L35.9,21.2" id="Shape" class="fill-neutral" fill-rule="nonzero"></path>
            <path d="M118.7,34.5 L118.7,22.1 C118.7,20.8 119.7,19.8 121,19.8 L137.8,19.8 C139.1,19.8 140.1,20.8 140.1,22.1 L140.1,34.5" id="Shape" class="fill-neutral" fill-rule="nonzero"></path>
            <path d="M15.8,21.2 L17.5,21.2" id="Shape" class="fill-neutral" fill-rule="nonzero"></path>
            <path d="M17.5,21.2 L37.6,21.2 C40.1,21.2 42.1,23.2 42.1,25.7 L42.1,65.3 C42.1,67.8 40.1,69.8 37.6,69.8 L4.6,69.8 C2.1,69.8 0.1,67.8 0.1,65.3 L0.1,25.7 C0.1,23.2 2.1,21.2 4.6,21.2 L9.1,21.2" id="Shape" class="fill-neutral" fill-rule="nonzero"></path>
            <path d="M141.4,69.7 L117.5,69.7 C115.7,69.7 114.2,68.2 114.2,66.4 L114.2,37.7 C114.2,35.9 115.7,34.4 117.5,34.4 L141.4,34.4 C143.2,34.4 144.7,35.9 144.7,37.7 L144.7,66.4 C144.6,68.3 143.2,69.7 141.4,69.7 Z" id="Shape" class="fill-neutral" fill-rule="nonzero"></path>
            <path d="M38.1,69.8 L7.6,69.8 C5.3,69.8 3.5,68 3.5,65.7 L3.5,30.3 C3.5,28 5.3,26.2 7.6,26.2 L38.1,26.2 C40.4,26.2 42.2,28 42.2,30.3 L42.2,65.7 C42.2,68 40.3,69.8 38.1,69.8 Z" id="Shape" fill="#C1DDFE" fill-rule="nonzero"></path>
            <path d="M141.8,69.7 L120.8,69.7 C119.2,69.7 117.9,68.4 117.9,66.8 L117.9,41.7 C117.9,40.1 119.2,38.8 120.8,38.8 L141.8,38.8 C143.4,38.8 144.7,40.1 144.7,41.7 L144.7,66.8 C144.6,68.4 143.3,69.7 141.8,69.7 Z" id="Shape" fill="#C1DDFE" fill-rule="nonzero"></path>
            <circle id="Oval" class="stroke-primary" stroke-width="3.2" stroke-linecap="round" stroke-linejoin="round" cx="75.2" cy="102.2" r="36.9"></circle>
            <path d="M129.2,69.7 L129.2,85.3 C129.2,115.1 105,139.2 75.3,139.2 C45.5,139.2 21.4,115 21.4,85.3 L21.4,69.8" id="Shape" class="stroke-primary" stroke-width="3.2" stroke-linecap="round" stroke-linejoin="round"></path>
            <path d="M18.5,21.2 L37.6,21.2 C40.1,21.2 42.1,23.2 42.1,25.7 L42.1,65.3 C42.1,67.8 40.1,69.8 37.6,69.8 L4.6,69.8 C2.1,69.8 0.1,67.8 0.1,65.3 L0.1,25.7 C0.1,23.2 2.1,21.2 4.6,21.2 L8.1,21.2" id="Shape" class="stroke-primary" stroke-width="3.2" stroke-linecap="round" stroke-linejoin="round"></path>
            <path d="M13.6,21.2 L13.8,21.2" id="Shape" class="stroke-primary" stroke-width="3.2" stroke-linecap="round" stroke-linejoin="round"></path>
            <path d="M6.4,21.1 L6.4,3.3 C6.4,1.6 7.8,0.1 9.6,0.1 L32.7,0.1 C34.4,0.1 35.9,1.5 35.9,3.3 L35.9,21.2" id="Shape" class="stroke-primary" stroke-width="3.2" stroke-linecap="round" stroke-linejoin="round"></path>
            <path d="M141.4,69.7 L117.5,69.7 C115.7,69.7 114.2,68.2 114.2,66.4 L114.2,37.7 C114.2,35.9 115.7,34.4 117.5,34.4 L141.4,34.4 C143.2,34.4 144.7,35.9 144.7,37.7 L144.7,66.4 C144.6,68.3 143.2,69.7 141.4,69.7 Z" id="Shape" class="stroke-primary" stroke-width="3.2" stroke-linecap="round" stroke-linejoin="round"></path>
            <path d="M118.7,26.4 L118.7,22.1 C118.7,20.8 119.7,19.8 121,19.8 L137.8,19.8 C139.1,19.8 140.1,20.8 140.1,22.1 L140.1,34.5" id="Shape" class="stroke-primary" stroke-width="3.2" stroke-linecap="round" stroke-linejoin="round"></path>
            <path d="M86.9,99.7 L72.4,119.6 C71.9,120.3 70.7,119.9 70.8,119 L72.6,106.4 L65.2,106.4 C64.5,106.4 64,105.6 64.5,105 L66.2,102.7 L79,85.1 C79.5,84.4 80.7,84.8 80.6,85.8 L78.6,98.5 L86.1,98.4 C86.3,98.4 86.5,98.5 86.6,98.6 C87.1,98.7 87.2,99.2 86.9,99.7 Z" id="Shape" class="stroke-primary" stroke-width="3.2" stroke-linecap="round" stroke-linejoin="round"></path>
            <path d="M15.6,7.7 L15.6,14.3" id="Shape" class="stroke-primary" stroke-width="3.2" stroke-linecap="round" stroke-linejoin="round"></path>
            <path d="M26.4,7.7 L26.4,14.3" id="Shape" class="stroke-primary" stroke-width="3.2" stroke-linecap="round" stroke-linejoin="round"></path>
        </g>
    </g>
</svg>