<?xml version="1.0" encoding="UTF-8"?>
<svg width="125px" height="149px" viewBox="0 0 125 149" version="1.1" xmlns="http://www.w3.org/2000/svg" xmlns:xlink="http://www.w3.org/1999/xlink">
    <!-- Generator: Sketch 51.2 (57519) - http://www.bohemiancoding.com/sketch -->
    <title>Charts_1_</title>
    <desc>Created with Sketch.</desc>
    <defs></defs>
    <g id="Page-1" stroke="none" stroke-width="1" fill="none" fill-rule="evenodd">
        <g id="Charts_1_" transform="translate(1.000000, 1.000000)">
            <path d="M121.1,29.1 L108.5,3.5 C107.4,1.2 104.6,0.3 102.3,1.4 L76.7,14 C74.4,15.1 73.5,17.9 74.6,20.2 C75.7,22.5 78.5,23.4 80.8,22.3 L96.5,14.6 C80.1,56.9 26.7,82.4 4.3,87.7 C1.8,88.3 0.3,90.8 0.9,93.2 C1.4,95.3 3.3,96.8 5.4,96.8 C5.7,96.8 6.1,96.8 6.5,96.7 C31.5,90.8 87.6,64 105.3,17.7 L113,33.3 C113.8,34.9 115.4,35.9 117.1,35.9 C117.8,35.9 118.5,35.7 119.1,35.4 C121.3,34.2 122.3,31.4 121.1,29.1 Z" id="Shape" class="fill-neutral" fill-rule="nonzero"></path>
            <path d="M121.1,29.1 L108.5,3.5 C107.4,1.2 104.6,0.3 102.3,1.4 L76.7,14 C74.4,15.1 73.5,17.9 74.6,20.2 C75.7,22.5 78.5,23.4 80.8,22.3 L96.5,14.6 C80.1,56.9 26.7,82.4 4.3,87.7 C1.8,88.3 0.3,90.8 0.9,93.2 C1.4,95.3 3.3,96.8 5.4,96.8 C5.7,96.8 6.1,96.8 6.5,96.7 C31.5,90.8 87.6,64 105.3,17.7 L113,33.3 C113.8,34.9 115.4,35.9 117.1,35.9 C117.8,35.9 118.5,35.7 119.1,35.4 C121.3,34.2 122.3,31.4 121.1,29.1 Z" id="Shape" class="fill-primary-100" fill-rule="nonzero"></path>
            <path d="M24.3,145.9 L4.7,145.9 C2.9,145.9 1.4,144.4 1.4,142.6 L1.4,121 C1.4,119.2 2.9,117.7 4.7,117.7 L24.3,117.7 C26.1,117.7 27.6,119.2 27.6,121 L27.6,142.6 C27.7,144.4 26.2,145.9 24.3,145.9 Z" id="Shape" class="fill-neutral" fill-rule="nonzero"></path>
            <path d="M67.7,145.9 L48.1,145.9 C46.3,145.9 44.8,144.4 44.8,142.6 L44.8,95.7 C44.8,93.9 46.3,92.4 48.1,92.4 L67.7,92.4 C69.5,92.4 71,93.9 71,95.7 L71,142.6 C71,144.4 69.5,145.9 67.7,145.9 Z" id="Shape" class="fill-neutral" fill-rule="nonzero"></path>
            <path d="M111,145.9 L91.4,145.9 C89.6,145.9 88.1,144.4 88.1,142.6 L88.1,61.1 C88.1,59.3 89.6,57.8 91.4,57.8 L111,57.8 C112.8,57.8 114.3,59.3 114.3,61.1 L114.3,142.6 C114.4,144.4 112.9,145.9 111,145.9 Z" id="Shape" class="fill-neutral" fill-rule="nonzero"></path>
            <path d="M24.7,145.9 L7.5,145.9 C5.9,145.9 4.6,144.6 4.6,143 L4.6,124.3 C4.6,122.7 5.9,121.4 7.5,121.4 L24.7,121.4 C26.3,121.4 27.6,122.7 27.6,124.3 L27.6,143 C27.7,144.5 26.4,145.9 24.7,145.9 Z" id="Shape" class="fill-primary-500" fill-rule="nonzero"></path>
            <path d="M68,145.9 L51,145.9 C49.3,145.9 48,144.5 48,142.9 L48,99.4 C48,97.7 49.4,96.4 51,96.4 L68,96.4 C69.7,96.4 71,97.8 71,99.4 L71,142.9 C71,144.5 69.7,145.9 68,145.9 Z" id="Shape" class="fill-primary-500" fill-rule="nonzero"></path>
            <path d="M111.3,145.9 L94.4,145.9 C92.7,145.9 91.3,144.5 91.3,142.8 L91.3,64.6 C91.3,62.9 92.7,61.5 94.4,61.5 L111.3,61.5 C113,61.5 114.4,62.9 114.4,64.6 L114.4,142.8 C114.4,144.5 113,145.9 111.3,145.9 Z" id="Shape" class="fill-primary-500" fill-rule="nonzero"></path>
            <path d="M24.3,145.9 L4.7,145.9 C2.9,145.9 1.4,144.4 1.4,142.6 L1.4,121 C1.4,119.2 2.9,117.7 4.7,117.7 L24.3,117.7 C26.1,117.7 27.6,119.2 27.6,121 L27.6,142.6 C27.7,144.4 26.2,145.9 24.3,145.9 Z" id="Shape" class="stroke-primary" stroke-width="3.2" stroke-linecap="round" stroke-linejoin="round"></path>
            <path d="M44.8,126.1 L44.8,95.6 C44.8,93.8 46.3,92.3 48.1,92.3 L67.7,92.3 C69.5,92.3 71,93.8 71,95.6 L71,142.5 C71,144.3 69.5,145.8 67.7,145.8 L48.1,145.8 C46.3,145.8 44.8,144.3 44.8,142.5 L44.8,137.5" id="Shape" class="stroke-primary" stroke-width="3.2" stroke-linecap="round" stroke-linejoin="round"></path>
            <path d="M111.2,57.7 C112.9,57.8 114.3,59.3 114.3,61 L114.3,142.5 C114.3,144.3 112.8,145.8 111,145.8 L91.4,145.8 C89.6,145.8 88.1,144.3 88.1,142.5 L88.1,61 C88.1,59.2 89.6,57.7 91.4,57.7 L103.4,57.7" id="Shape" class="stroke-primary" stroke-width="3.2" stroke-linecap="round" stroke-linejoin="round"></path>
            <path d="M30.2,77.9 C27.4,79.3 24.6,80.5 21.9,81.6" id="Shape" class="stroke-primary" stroke-width="3.2" stroke-linecap="round" stroke-linejoin="round"></path>
            <path d="M57.8,61.4 C50.7,66.7 43.3,71.2 36.1,75" id="Shape" class="stroke-primary" stroke-width="3.2" stroke-linecap="round" stroke-linejoin="round"></path>
            <path d="M109.4,26.2 L112.8,33.2 C113.6,34.8 115.2,35.8 116.9,35.8 C117.6,35.8 118.3,35.6 118.9,35.3 C121.2,34.2 122.1,31.4 121,29.1 L108.4,3.5 C107.3,1.2 104.5,0.3 102.2,1.4 L76.6,14 C74.3,15.1 73.4,17.9 74.5,20.2 C75.6,22.5 78.4,23.4 80.7,22.3 L96.4,14.6 C90.1,30.8 78.3,44.6 65,55.7" id="Shape" class="stroke-primary" stroke-width="3.2" stroke-linecap="round" stroke-linejoin="round"></path>
            <path d="M12.4,85.3 C9.4,86.3 6.7,87.1 4.3,87.7 C1.8,88.3 0.3,90.8 0.9,93.2 C1.4,95.3 3.3,96.8 5.4,96.8 C5.7,96.8 6.1,96.8 6.5,96.7 C31.5,90.8 87.6,64 105.3,17.7 L107,21.2" id="Shape" class="stroke-primary" stroke-width="3.2" stroke-linecap="round" stroke-linejoin="round"></path>
        </g>
    </g>
</svg>