<?xml version="1.0" encoding="UTF-8"?>
<svg width="131px" height="149px" viewBox="0 0 131 149" version="1.1" xmlns="http://www.w3.org/2000/svg" xmlns:xlink="http://www.w3.org/1999/xlink">
    <!-- Generator: Sketch 51.2 (57519) - http://www.bohemiancoding.com/sketch -->
    <title>Chat</title>
    <desc>Created with Sketch.</desc>
    <defs></defs>
    <g id="Page-1" stroke="none" stroke-width="1" fill="none" fill-rule="evenodd">
        <g id="Chat" transform="translate(2.000000, 1.000000)">
            <path d="M126.6,80.4 C126.6,80.7 126.6,81.1 126.6,81.5 C126.5,96.2 126,116.3 126,146 C126,146 126,146 126,146 L96.1,127.8 L94.1,126.6 C89.6,123.8 84.1,123.1 78.9,124.4 C73.9,125.7 68.6,126.4 63.2,126.4 C58.6,126.4 54,125.9 49.7,125 C21.6,118.9 0.4,93.8 0.3,63.9 C0.2,29.1 28.3,0.8 63.1,0.8 C88.1,0.8 111.2,16.1 121,39.1 C125.8,50.2 126.7,60.2 126.6,80.4 Z" id="Shape" class="fill-neutral" fill-rule="nonzero"></path>
            <path d="M126.6,80.4 C126.6,80.7 126.6,81.1 126.6,81.5 L126.6,83.4 C126.6,97.3 126,116.5 126,146 L96.6,128.1 C96.4,128 96.3,127.9 96.1,127.8 L94.1,126.6 C89.6,123.8 84.1,123.1 78.9,124.4 C73.9,125.7 68.6,126.4 63.2,126.4 C58.6,126.4 54,125.9 49.7,125 C34.1,119.8 21.3,108.2 14.7,93.2 C11.5,86.1 9.8,78.2 9.7,70 C9.6,37.8 35.6,11.7 67.8,11.7 C90.9,11.7 112.3,25.9 121.3,47.2 C125.5,56.5 126.5,64.9 126.6,80.4 Z" id="Shape" fill="#D0E5FE" fill-rule="nonzero"></path>
            <path d="M126.6,80.4 C126.6,80.7 126.6,81.1 126.6,81.5 L126.6,83.4 C122.7,98 120.2,112.9 120.2,127.6 C120.2,127.6 96.5,113.1 84.5,105.9 C70.2,97.2 62.5,110.2 34.8,104.1 C27.5,101.7 20.7,98 14.7,93.2 C11.5,86.1 9.8,78.2 9.7,70 C9.6,37.8 35.6,11.7 67.8,11.7 C90.9,11.7 112.3,25.9 121.3,47.2 C125.5,56.5 126.5,64.9 126.6,80.4 Z" id="Shape" class="fill-primary-100" fill-rule="nonzero"></path>
            <path d="M126.1,130.9 C126.1,135.6 126.1,140.6 126.1,146 C126.1,146 126.1,146 126.1,146 L96.2,127.8 L94.2,126.6 C89.7,123.8 84.2,123.1 79,124.4 C74,125.7 68.7,126.4 63.3,126.4 C58.7,126.4 54.1,125.9 49.8,125 C21.7,118.9 0.5,93.8 0.4,63.9 C0.4,51.5 3.9,40 10,30.2" id="Shape" class="stroke-primary" stroke-width="3" stroke-linecap="round" stroke-linejoin="round"></path>
            <path d="M41.8,4.5 C48.5,2.1 55.7,0.8 63.2,0.8 C88.2,0.8 111.3,16.1 121.1,39.1 C125.8,50.2 126.7,60.2 126.7,80.4 C126.7,80.7 126.7,81.1 126.7,81.5 C126.7,90.4 126.4,101.2 126.3,114.8" id="Shape" class="stroke-primary" stroke-width="3" stroke-linecap="round" stroke-linejoin="round"></path>
            <path d="M29,10.9 C29.5,10.6 30,10.2 30.5,9.9" id="Shape" class="stroke-primary" stroke-width="3" stroke-linecap="round" stroke-linejoin="round"></path>
            <circle id="Oval" class="fill-neutral" fill-rule="nonzero" cx="32.8" cy="64.8" r="9.3"></circle>
            <circle id="Oval" class="fill-neutral" fill-rule="nonzero" cx="63.3" cy="64.8" r="9.3"></circle>
            <circle id="Oval" class="fill-neutral" fill-rule="nonzero" cx="93.8" cy="64.8" r="9.3"></circle>
            <path d="M32.8,74.1 C27.7,74.1 23.5,69.9 23.5,64.8 C23.5,63.6 23.7,62.5 24.1,61.5" id="Shape" class="stroke-primary" stroke-width="3" stroke-linecap="round" stroke-linejoin="round"></path>
            <path d="M29.7,56 C30.7,55.7 31.7,55.5 32.8,55.5 C37.9,55.5 42.1,59.7 42.1,64.8 C42.1,67.3 41.1,69.5 39.6,71.2" id="Shape" class="stroke-primary" stroke-width="3" stroke-linecap="round" stroke-linejoin="round"></path>
            <path d="M72.6,64.3 C72.6,64.5 72.6,64.6 72.6,64.8 C72.6,69.9 68.4,74.1 63.3,74.1 C58.2,74.1 54,69.9 54,64.8 C54,59.7 58.2,55.5 63.3,55.5 C64.2,55.5 65,55.6 65.8,55.8" id="Shape" class="stroke-primary" stroke-width="3" stroke-linecap="round" stroke-linejoin="round"></path>
            <path d="M87.1,58.4 C88.8,56.6 91.2,55.5 93.8,55.5 C98.9,55.5 103.1,59.7 103.1,64.8 C103.1,69.9 98.9,74.1 93.8,74.1 C88.7,74.1 84.5,69.9 84.5,64.8 C84.5,62.3 85.5,60.1 87.1,58.4" id="Shape" class="stroke-primary" stroke-width="3" stroke-linecap="round" stroke-linejoin="round"></path>
        </g>
    </g>
</svg>