<?xml version="1.0" encoding="UTF-8"?>
<svg width="100px" height="139px" viewBox="0 0 100 139" version="1.1" xmlns="http://www.w3.org/2000/svg" xmlns:xlink="http://www.w3.org/1999/xlink">
    <!-- Generator: Sketch 51.2 (57519) - http://www.bohemiancoding.com/sketch -->
    <title>Click</title>
    <desc>Created with Sketch.</desc>
    <defs></defs>
    <g id="Page-1" stroke="none" stroke-width="1" fill="none" fill-rule="evenodd">
        <g id="Click" transform="translate(2.000000, 2.000000)">
            <g id="Group" transform="translate(12.000000, 29.000000)">
                <path d="M83.7,41.8 C83.7,38 80.6,34.9 76.8,34.9 C73.4,34.9 70.5,37.4 70,40.7 L66.9,40.7 L66.9,35.4 C66.9,31.6 63.8,28.5 60,28.5 C56.2,28.5 53.1,31.6 53.1,35.4 L53.1,40.6 L50.3,40.6 L50.3,29.9 C50.3,25.8 47,22.5 42.9,22.5 C38.8,22.5 35.5,25.8 35.5,29.9 L35.5,40.5 L33,40.5 L33,8.9 C33,4.8 29.7,1.5 25.6,1.5 C21.5,1.5 18.2,4.8 18.2,8.9 L18.2,54.4 L18.2,58.1 L18.2,73.8 L15.5,73.8 L15.5,62.7 C15.5,54.5 8.8,47.8 0.6,47.8 L0.6,75.1 C0.6,76.7 1.1,78.1 1.9,79.4 C1.9,79.4 1.9,79.5 1.9,79.5 C4.7,83.8 20.1,97 27.2,103 C29.5,105 32.5,106 35.5,106 L65.8,106 C75.9,106 84,97.8 84,87.8 L84,41.8 L83.7,41.8 Z" id="Shape" class="fill-neutral" fill-rule="nonzero"></path>
                <path d="M83.7,40.9 L83.7,86.7 C83.7,96.8 75.5,104.9 65.5,104.9 L35.2,104.9 C32.1,104.9 29.2,103.8 26.9,101.9 C19.8,95.9 4.4,82.7 1.6,78.4 C1.6,78.4 1.6,78.3 1.6,78.3 C0.8,77.1 0.3,75.6 0.3,74 L0.3,46.7 C8.5,46.7 15.2,53.4 15.2,61.6 L15.2,72.7 L17.9,72.7 L17.9,7.8 C17.9,3.7 21.2,0.4 25.3,0.4 C29.4,0.4 32.7,3.7 32.7,7.8 L32.7,39.4 L35.2,39.4 L35.2,28.8 C35.2,24.7 38.5,21.4 42.6,21.4 C46.7,21.4 50,24.7 50,28.8 L50,39.5 L52.8,39.5 L52.8,34.3 C52.8,30.5 55.9,27.4 59.7,27.4 C63.5,27.4 66.6,30.5 66.6,34.3 L66.6,39.6 L69.7,39.6 C70.3,36.3 73.1,33.8 76.5,33.8 C80.6,34 83.7,37.1 83.7,40.9 Z" id="Shape" class="fill-neutral" fill-rule="nonzero"></path>
                <path d="M83.7,46.3 L83.7,86.8 C83.7,96.9 75.5,105 65.5,105 L35.2,105 C32.1,105 29.2,103.9 26.9,102 C19.8,96 4.4,82.8 1.6,78.5 C1.6,78.5 1.6,78.4 1.6,78.4 C0.8,77.2 0.3,75.7 0.3,74.1 L0.3,52.1 C8.5,52.1 15.2,58.8 15.2,67 L15.2,78.1 L17.9,78.1 L17.9,13.2 C17.9,9.1 21.2,5.8 25.3,5.8 C29.4,5.8 32.7,9.1 32.7,13.2 L32.7,44.8 L35.2,44.8 L35.2,34.2 C35.2,30.1 38.5,26.8 42.6,26.8 C46.7,26.8 50,30.1 50,34.2 L50,44.9 L52.8,44.9 L52.8,39.5 C52.9,35.7 55.9,32.7 59.7,32.7 C63.5,32.7 66.6,35.8 66.6,39.6 C66.6,39.6 66.6,39.6 66.6,39.6 L66.6,44.9 L69.7,44.9 C70.3,41.6 73.1,39.1 76.5,39.1 C80.6,39.3 83.7,42.4 83.7,46.3 Z" id="Shape" class="fill-primary-100" fill-rule="nonzero"></path>
                <path d="M83.7,41.7 C83.6,37.9 80.5,34.9 76.8,34.9 C73.4,34.9 70.5,37.4 70,40.7 L66.9,40.7 L66.9,35.4 C66.9,31.6 63.8,28.5 60,28.5 C56.2,28.5 53.1,31.6 53.1,35.4 L53.1,40.6 L50.3,40.6 L50.3,29.9 C50.3,25.8 47,22.5 42.9,22.5 C38.8,22.5 35.5,25.8 35.5,29.9 L35.5,40.5 L33,40.5 L33,8.9 C33,4.8 29.7,1.5 25.6,1.5 C21.5,1.5 18.2,4.8 18.2,8.9 L18.2,16.4" id="Shape" class="stroke-primary" stroke-width="3" stroke-linecap="round" stroke-linejoin="round"></path>
                <path d="M17.8,34.1 L17.8,54.2 L17.8,57.9 L17.8,73.6 L15.1,73.6 L15.1,62.5 C15.1,54.3 8.4,47.6 0.2,47.6 L0.2,74.9 C0.2,76.5 0.7,77.9 1.5,79.2 C1.5,79.2 1.5,79.3 1.5,79.3 C4.3,83.6 19.7,96.8 26.8,102.8 C29.1,104.8 32.1,105.8 35.1,105.8 L65.4,105.8 C75.5,105.8 83.6,97.6 83.6,87.6 L83.6,52.3" id="Shape" class="stroke-primary" stroke-width="3" stroke-linecap="round" stroke-linejoin="round"></path>
                <path d="M17.8,22.4 L17.8,23.2" id="Shape" class="stroke-primary" stroke-width="3" stroke-linecap="round" stroke-linejoin="round"></path>
            </g>
            <g id="Group" class="stroke-primary" stroke-linecap="round" stroke-linejoin="round" stroke-width="4">
                <path d="M35.8,0.3 L35.8,14.1" id="Shape"></path>
                <path d="M10.8,10.9 L20.6,20.6" id="Shape"></path>
                <path d="M0.7,36 L14.5,36" id="Shape"></path>
                <path d="M57.6,35.4 L71.4,35.4" id="Shape"></path>
                <path d="M11.2,60.9 L21,51.1" id="Shape"></path>
                <path d="M51.1,20.2 L60.9,10.5" id="Shape"></path>
            </g>
        </g>
    </g>
</svg>