<?xml version="1.0" encoding="UTF-8"?>
<svg width="150px" height="113px" viewBox="0 0 150 113" version="1.1" xmlns="http://www.w3.org/2000/svg" xmlns:xlink="http://www.w3.org/1999/xlink">
    <!-- Generator: Sketch 51.2 (57519) - http://www.bohemiancoding.com/sketch -->
    <title>Cloud_2</title>
    <desc>Created with Sketch.</desc>
    <defs></defs>
    <g id="Page-1" stroke="none" stroke-width="1" fill="none" fill-rule="evenodd">
        <g id="Cloud_2" transform="translate(1.000000, 2.000000)">
            <g id="Group">
                <path d="M127.2,87.9 C125.4,88.3 123.6,88.5 121.8,88.5 L105.1,88.8 L103.5,88.8 L65.6,89.5 L56.9,89.7 L28,90 C15.6,90 7.3,81.5 5.5,70.1 C5.2,68.6 5.1,67 5.1,65.3 C5.1,51.4 15.5,39.4 30.6,40.3 C34.6,27 50.6,21.4 63.4,27.6 C69.5,14.6 84.8,4.6 100.3,4.6 C115.6,4.6 128.3,13.4 134.2,26.1 C135.7,29.3 136.8,32.8 137.3,36.4 C137.3,36.6 137.4,36.8 137.4,37 C137.6,38.6 137.8,40.3 137.8,42 C137.8,42.1 137.8,42.3 137.8,42.4 C137.8,42.8 137.8,42.5 137.8,42.5 C137.8,42.5 137.8,42.6 137.8,42.7 C140.4,44.7 142.5,47.4 144.1,50.6 C146,54.4 147.2,58.8 147.3,63.1 C147.3,63.3 147.3,63.5 147.3,63.7 C147.2,75.5 138.7,85.5 127.2,87.9" id="Shape" class="fill-primary-200" fill-rule="nonzero"></path>
                <path d="M144.5,55.3 C144.5,69 133.1,80.1 119,80.1 L102.3,80.4 L100.7,80.4 L62.8,81.1 L54.1,81.3 L25.2,81.6 C16.1,81.6 9.2,77 5.4,70 C5.1,68.5 5,66.9 5,65.2 C5,51.3 15.4,39.3 30.5,40.2 C34.5,26.9 50.5,21.3 63.3,27.5 C69.4,14.5 84.7,4.5 100.2,4.5 C115.5,4.5 128.2,13.3 134.1,26 C134.6,28.6 135.5,27.6 135.5,30.4 C135.5,30.8 136.3,33 136.3,32.9 C136.3,32.9 136.3,33.6 136.3,33.7 C137.4,34.6 136.4,35.5 137.2,36.4 C137.3,37.8 137.6,39.3 137.6,42 C140,44 142.1,46.4 143.7,49.2 C143.8,49.6 143.9,50.1 144,50.5 C144.3,52.1 144.5,53.7 144.5,55.3 Z" id="Shape" class="fill-primary-100" fill-rule="nonzero"></path>
                <path d="M47.2,89.7 L48.5,89.7" id="Shape" class="stroke-primary" stroke-width="3" stroke-linecap="round" stroke-linejoin="round"></path>
                <path d="M74.8,7.6 C69.2,11.6 64.7,17.1 61.8,23.4 C58.6,21.8 55,20.9 51.2,20.9 C40.5,20.9 31,28 28.1,37.7 C27.6,37.7 28.6,37.7 28.1,37.7 C13.6,37.7 0.9,49.4 0.9,63.8 C0.9,78.2 12.6,90 27.1,90 L39.5,89.8" id="Shape" class="stroke-primary" stroke-width="3" stroke-linecap="round" stroke-linejoin="round"></path>
                <path d="M80,4.4 C79.9,4.5 79.8,4.5 79.6,4.6" id="Shape" class="stroke-primary" stroke-width="3" stroke-linecap="round" stroke-linejoin="round"></path>
                <path d="M123.7,88.2 C122.8,88.3 122,88.3 121.1,88.3 L96.1,88.8" id="Shape" class="stroke-primary" stroke-width="3" stroke-linecap="round" stroke-linejoin="round"></path>
                <path d="M89.1,1.2 C91.9,0.6 94.8,0.2 97.8,0.2 C118.5,0.2 135.5,16.1 137.2,36.4 C137.2,36.6 137.2,36.8 137.2,37 C137.3,37.9 137.3,38.9 137.3,39.8 C137.3,40.4 137.2,41.1 137.2,41.7 C137.3,41.8 137.4,41.9 137.6,42 C140,44 142.1,46.4 143.7,49.2 C145.9,53 147.2,57.5 147.2,62.2 C147.2,62.5 147.2,62.7 147.2,63 C146.9,72.1 142,80.1 134.7,84.5" id="Shape" class="stroke-primary" stroke-width="3" stroke-linecap="round" stroke-linejoin="round"></path>
                <path d="M28.1,37.8 C32.3,38 36.8,39.8 40.2,41.7" id="Shape" class="stroke-primary" stroke-width="3" stroke-linecap="round" stroke-linejoin="round"></path>
                <path d="M61.8,23.4 C63.8,24.2 65.8,25.6 67.2,26.9" id="Shape" class="stroke-primary" stroke-width="3" stroke-linecap="round" stroke-linejoin="round"></path>
            </g>
            <g id="Group" transform="translate(56.000000, 40.000000)">
                <path d="M16.2,68.2 L44.1,29.9 C44.9,28.7 44.1,27.1 42.7,27.1 L28.2,27.3 L32,2.7 C32.3,0.9 30,-9.08162434e-13 29,1.4 L1.1,39.8 C0.3,41 1.1,42.6 2.5,42.6 L16.8,42.5 L13.3,66.9 C12.9,68.7 15.2,69.6 16.2,68.2 Z" id="Shape" class="stroke-primary-400" class="fill-primary-400" fill-rule="nonzero"></path>
                <path d="M13.7,22.5 L13.3,23" id="Shape" class="stroke-primary" stroke-width="3" stroke-linecap="round" stroke-linejoin="round"></path>
                <path d="M27.6,31.1 L32,2.8 C32.3,1 30,0.1 29,1.5 L20.5,13.2" id="Shape" class="stroke-primary" stroke-width="3" stroke-linecap="round" stroke-linejoin="round"></path>
                <path d="M8.4,29.7 L1,39.9 C0.2,41.1 1,42.7 2.4,42.7 L16.7,42.6 L13.2,67 C12.9,68.7 15.2,69.7 16.2,68.2 L44.1,29.9 C44.9,28.7 44.1,27.1 42.7,27.1 L35.2,27.2" id="Shape" class="stroke-primary" stroke-width="3" stroke-linecap="round" stroke-linejoin="round"></path>
            </g>
        </g>
    </g>
</svg>