<?xml version="1.0" encoding="UTF-8"?>
<svg width="147px" height="110px" viewBox="0 0 147 110" version="1.1" xmlns="http://www.w3.org/2000/svg" xmlns:xlink="http://www.w3.org/1999/xlink">
    <!-- Generator: Sketch 51.2 (57519) - http://www.bohemiancoding.com/sketch -->
    <title>Code</title>
    <desc>Created with Sketch.</desc>
    <defs></defs>
    <g id="Page-1" stroke="none" stroke-width="1" fill="none" fill-rule="evenodd">
        <g id="Code" transform="translate(2.000000, 1.000000)">
            <path d="M137.6,97.2 L21.2,97.2 C18.4,97.2 16.1,94.9 16.1,92.1 L16.1,10.2 C16.1,7.4 18.4,5.1 21.2,5.1 L137.6,5.1 C140.4,5.1 142.7,7.4 142.7,10.2 L142.7,92.1 C142.7,94.9 140.4,97.2 137.6,97.2 Z" id="Shape" class="fill-primary-200" fill-rule="nonzero"></path>
            <path d="M12.8,5.6 C13.6,2.8 16.2,0.7 19.3,0.7 L136.6,0.7 C140.4,0.7 143.4,3.7 143.4,7.5 L143.4,89.8 C143.4,93.3 140.8,96.2 137.4,96.6" id="Shape" class="stroke-primary-400" stroke-width="3" stroke-linecap="round" stroke-linejoin="round"></path>
            <path d="M131.2,18 L131.2,99.9 C131.2,103.7 128.1,106.7 124.4,106.7 L7,106.7 C3.2,106.7 0.2,103.6 0.2,99.9 L0.2,10.8 L124,10.8 C128,10.8 131.2,14 131.2,18 Z" id="Shape" class="fill-neutral" fill-rule="nonzero"></path>
            <path d="M121.7,10.8 C126.9,10.8 131.2,15.1 131.2,20.3 L131.2,99.9 C131.2,103.7 128.3,106.7 124.7,106.7 L12.6,106.7 C9,106.7 6.1,103.6 6.1,99.9 L6.1,10.8 L121.7,10.8 Z" id="Shape" class="fill-primary-300" fill-rule="nonzero"></path>
            <path d="M87.2,28 L0.2,28 L0.2,17.6 C0.2,13.8 3.2,10.8 7,10.8 L124.3,10.8 C128.1,10.8 131.1,13.8 131.1,17.6 L131.1,28 L108.2,28" id="Shape" class="fill-neutral" fill-rule="nonzero"></path>
            <path d="M122.8,27.7 L130.2,27.7" id="Shape" class="stroke-primary" stroke-width="3" stroke-linecap="round" stroke-linejoin="round"></path>
            <path d="M113.2,27.7 L114.1,27.7" id="Shape" class="stroke-primary" stroke-width="3" stroke-linecap="round" stroke-linejoin="round"></path>
            <path d="M0.7,27.7 L79.5,27.7" id="Shape" class="stroke-primary" stroke-width="3" stroke-linecap="round" stroke-linejoin="round"></path>
            <circle id="Oval" class="fill-primary-300" fill-rule="nonzero" cx="11.8" cy="19.5" r="2.9"></circle>
            <circle id="Oval" class="fill-primary-200" fill-rule="nonzero" cx="21.5" cy="19.5" r="2.9"></circle>
            <circle id="Oval" class="fill-primary-200" fill-rule="nonzero" cx="31.2" cy="19.5" r="2.9"></circle>
            <polyline id="Shape" class="stroke-primary" stroke-width="3" stroke-linecap="round" stroke-linejoin="round" points="47.8 82.9 33.5 65.8 47.8 48.7"></polyline>
            <polyline id="Shape" class="stroke-primary" stroke-width="3" stroke-linecap="round" stroke-linejoin="round" points="83.9 82.9 98.2 65.8 83.9 48.7"></polyline>
            <path d="M72.1,48.3 L59.6,84.1" id="Shape" class="stroke-primary" stroke-width="3" stroke-linecap="round" stroke-linejoin="round"></path>
            <path d="M0.2,67.4 L0.2,66.3" id="Shape" class="stroke-primary" stroke-width="3" stroke-linecap="round" stroke-linejoin="round"></path>
            <path d="M0.2,60.6 L0.2,17.5 C0.2,13.7 3.2,10.7 7,10.7 L124.3,10.7 C128.1,10.7 131.1,13.7 131.1,17.5 L131.1,99.8 C131.1,103.6 128.1,106.6 124.3,106.6 L7,106.6 C3.2,106.6 0.2,103.6 0.2,99.8 L0.2,80.5" id="Shape" class="stroke-primary" stroke-width="3" stroke-linecap="round" stroke-linejoin="round"></path>
        </g>
    </g>
</svg>