<?xml version="1.0" encoding="UTF-8"?>
<svg width="149px" height="150px" viewBox="0 0 149 150" version="1.1" xmlns="http://www.w3.org/2000/svg" xmlns:xlink="http://www.w3.org/1999/xlink">
    <!-- Generator: Sketch 51.2 (57519) - http://www.bohemiancoding.com/sketch -->
    <title>Cog_Wheel</title>
    <desc>Created with Sketch.</desc>
    <defs></defs>
    <g id="Page-1" stroke="none" stroke-width="1" fill="none" fill-rule="evenodd">
        <g id="Cog_Wheel" transform="translate(1.000000, 2.000000)">
            <path d="M146.2,79.5 L146.2,66 C146.2,62.4 143.6,59.3 140,58.8 L134.4,58 C131.7,57.6 129.5,55.8 128.6,53.2 C127.9,51.3 127.2,49.5 126.3,47.7 C125.1,45.3 125.4,42.4 127,40.2 L130.4,35.6 C132.6,32.7 132.3,28.7 129.7,26.1 L120.1,16.5 C117.5,13.9 113.5,13.7 110.6,15.8 L106,19.2 C103.8,20.8 100.9,21.1 98.5,19.9 C96.7,19.1 94.9,18.3 93,17.6 C90.5,16.7 88.6,14.5 88.2,11.8 L87.4,6.2 C86.9,2.6 83.8,-1.8189894e-12 80.2,-1.8189894e-12 L66.7,-1.8189894e-12 C63.1,-1.8189894e-12 60,2.6 59.5,6.2 L58.7,11.8 C58.3,14.5 56.5,16.7 53.9,17.6 C52,18.3 50.2,19 48.4,19.9 C46,21.1 43.1,20.8 40.9,19.2 L36.3,15.8 C33.4,13.6 29.4,13.9 26.8,16.5 L17.2,26.1 C14.6,28.7 14.4,32.7 16.5,35.6 L19.9,40.2 C21.5,42.4 21.8,45.3 20.6,47.7 C19.8,49.5 19,51.3 18.3,53.2 C17.4,55.7 15.2,57.6 12.5,58 L6.9,58.8 C3.3,59.3 0.7,62.4 0.7,66 L0.7,79.5 C0.7,83.1 3.3,86.2 6.9,86.7 L12.5,87.5 C15.2,87.9 17.4,89.7 18.3,92.3 C19,94.2 19.7,96 20.6,97.8 C21.8,100.2 21.5,103.1 19.9,105.3 L16.5,109.9 C14.3,112.8 14.6,116.8 17.2,119.4 L26.8,129 C29.4,131.6 33.4,131.8 36.3,129.7 L40.9,126.3 C43.1,124.7 46,124.4 48.4,125.6 C50.2,126.4 52,127.2 53.9,127.9 C56.4,128.8 58.3,131 58.7,133.7 L59.5,139.3 C60,142.9 63.1,145.5 66.7,145.5 L80.2,145.5 C83.8,145.5 86.9,142.9 87.4,139.3 L88.2,133.7 C88.6,131 90.4,128.8 93,127.9 C94.9,127.2 96.7,126.5 98.5,125.6 C100.9,124.4 103.8,124.7 106,126.3 L110.6,129.7 C113.5,131.9 117.5,131.6 120.1,129 L129.7,119.4 C132.3,116.8 132.5,112.8 130.4,109.9 L127,105.3 C125.4,103.1 125.1,100.2 126.3,97.8 C127.1,96 127.9,94.2 128.6,92.3 C129.5,89.8 131.7,87.9 134.4,87.5 L140,86.7 C143.6,86.2 146.2,83.1 146.2,79.5 Z" id="Shape" class="fill-neutral" fill-rule="nonzero"></path>
            <path d="M146.2,79.5 L146.2,66 C146.2,62.4 143.6,59.3 140,58.8 L134.4,58 C131.7,57.6 129.5,55.8 128.6,53.2 C127.9,51.3 127.2,49.5 126.3,47.7 C125.1,45.3 125.4,42.4 127,40.2 L130.4,35.6 C132.6,32.7 132.3,28.7 129.7,26.1 L120.1,16.5 C117.5,13.9 113.5,13.7 110.6,15.8 L106,19.2 C103.8,20.8 100.9,21.1 98.5,19.9 C96.7,19.1 94.9,18.3 93,17.6 C90.5,16.7 88.6,14.5 88.2,11.8 L87.4,6.2 C86.9,2.6 83.8,-1.8189894e-12 80.2,-1.8189894e-12 L66.7,-1.8189894e-12 C63.1,-1.8189894e-12 60,2.6 59.5,6.2 L58.7,11.8 C58.3,14.5 56.5,16.7 53.9,17.6 C52,18.3 50.2,19 48.4,19.9 C46,21.1 43.1,20.8 40.9,19.2 L36.3,15.8 C33.4,13.6 29.4,13.9 26.8,16.5 L17.2,26.1 C14.6,28.7 14.4,32.7 16.5,35.6 L19.9,40.2 C21.5,42.4 21.8,45.3 20.6,47.7 C19.8,49.5 19,51.3 18.3,53.2 C17.4,55.7 15.2,57.6 12.5,58 L6.9,58.8 C3.3,59.3 0.7,62.4 0.7,66 L0.7,79.5 C0.7,83.1 3.3,86.2 6.9,86.7 L12.5,87.5 C15.2,87.9 17.4,89.7 18.3,92.3 C19,94.2 19.7,96 20.6,97.8 C21.8,100.2 21.5,103.1 19.9,105.3 L16.5,109.9 C14.3,112.8 14.6,116.8 17.2,119.4 L26.8,129 C29.4,131.6 33.4,131.8 36.3,129.7 L40.9,126.3 C43.1,124.7 46,124.4 48.4,125.6 C50.2,126.4 52,127.2 53.9,127.9 C56.4,128.8 58.3,131 58.7,133.7 L59.5,139.3 C60,142.9 63.1,145.5 66.7,145.5 L80.2,145.5 C83.8,145.5 86.9,142.9 87.4,139.3 L88.2,133.7 C88.6,131 90.4,128.8 93,127.9 C94.9,127.2 96.7,126.5 98.5,125.6 C100.9,124.4 103.8,124.7 106,126.3 L110.6,129.7 C113.5,131.9 117.5,131.6 120.1,129 L129.7,119.4 C132.3,116.8 132.5,112.8 130.4,109.9 L127,105.3 C125.4,103.1 125.1,100.2 126.3,97.8 C127.1,96 127.9,94.2 128.6,92.3 C129.5,89.8 131.7,87.9 134.4,87.5 L140,86.7 C143.6,86.2 146.2,83.1 146.2,79.5 Z" id="Shape" class="fill-neutral" fill-rule="nonzero"></path>
            <path d="M146.2,82.5 L146.2,66.4 C146.2,63 143.7,60 140.3,59.5 L134.9,58.7 C132.3,58.3 130.2,56.6 129.4,54.1 C128.8,52.3 128,53.8 127.2,52.1 C126.1,49.8 125.1,45.7 126.6,43.6 L128.2,37.2 C130.3,34.4 132.9,33.9 130.4,31.5 L121.3,22.4 C118.9,20 115,19.7 112.2,21.7 L107.8,25 C105.7,26.5 103,26.8 100.6,25.7 C98.9,24.9 97.1,24.2 95.4,23.5 C93,22.6 91.2,20.5 90.8,18 L90,12.6 C89.5,9.2 86.6,6.7 83.1,6.7 L70.2,6.7 C66.8,6.7 63.8,9.2 63.3,12.6 L62.5,18 C62.1,20.6 60.4,22.7 57.9,23.5 C56.1,24.1 54.4,24.9 52.7,25.7 C50.4,26.8 47.6,26.6 45.5,25 L41.1,21.7 C38.3,19.6 34.5,19.9 32,22.4 L22.9,31.5 C20.5,33.9 20.2,37.8 22.2,40.6 L25.5,45 C27,47.1 27.3,49.8 26.2,52.2 C25.4,53.9 24.7,55.7 24,57.4 C23.1,59.8 21,61.6 18.5,62 L13.1,62.8 C9.7,63.3 7.2,66.2 7.2,69.7 L7.2,85.8 C7.2,89.2 6.5,87.3 9.9,87.8 L15.3,88.6 C17.9,89 15.1,89.1 16,91.6 C16.6,93.4 17.4,91.9 18.2,93.6 C19.3,95.9 22.3,103.5 20.7,105.6 L17.4,110 C15.3,112.8 15.6,116.6 18.1,119.1 L28.8,129.9 C31.2,132.3 31.9,131 34.6,128.9 L42.2,125.6 C44.3,124.1 50.3,125.4 52.6,126.5 C54.3,127.3 52.8,126.4 54.6,127.1 C57,128 58.8,130.1 59.2,132.6 L60,138 C60.5,141.4 66.6,145.6 70.1,145.6 L83,145.6 C86.4,145.6 89.4,143.1 89.9,139.7 L90.7,134.3 C91.1,131.7 92.8,129.6 95.3,128.8 C97.1,128.2 98.8,127.4 100.5,126.6 C102.8,125.5 105.6,125.7 107.7,127.3 L112.1,130.6 C114.9,132.7 118.7,132.4 121.2,129.9 L130.3,120.8 C132.7,118.4 133,114.5 131,111.7 L127.7,107.3 C126.2,105.2 125.9,102.5 127,100.1 C127.8,98.4 128.5,96.6 129.2,94.9 C130.1,92.5 132.2,90.7 134.7,90.3 L140.1,89.5 C143.7,88.8 146.2,85.9 146.2,82.5 Z" id="Shape" class="fill-primary-200" fill-rule="nonzero"></path>
            <circle id="Oval" class="fill-neutral" fill-rule="nonzero" cx="73.6" cy="72.8" r="25.3"></circle>
            <path d="M71.2,47.5 C72,47.4 72.8,47.4 73.6,47.4 C87.6,47.4 98.9,58.7 98.9,72.7 C98.9,86.7 87.6,98 73.6,98 C59.6,98 48.3,86.7 48.3,72.7 C48.3,67 50.2,61.8 53.3,57.6" id="Shape" class="stroke-primary" stroke-width="2.9096" stroke-linecap="round" stroke-linejoin="round"></path>
            <path d="M59,52 C59.9,51.3 60.9,50.7 62,50.2" id="Shape" class="stroke-primary" stroke-width="2.9096" stroke-linecap="round" stroke-linejoin="round"></path>
            <path d="M106.1,19.3 C103.9,20.9 101,21.2 98.6,20 C96.8,19.2 95,18.4 93.1,17.7 C90.6,16.8 88.7,14.6 88.3,11.9 L87.5,6.3 C87,2.7 83.9,0.1 80.3,0.1 L66.8,0.1 C63.2,0.1 60.1,2.7 59.6,6.3 L58.8,11.9 C58.4,14.6 56.6,16.8 54,17.7 C52.1,18.4 50.3,19.1 48.5,20 C46.1,21.2 43.2,20.9 41,19.3 L36.4,15.9 C33.5,13.7 29.5,14 26.9,16.6 L17.3,26.2 C14.7,28.8 14.5,32.8 16.6,35.7 L20,40.3 C21.6,42.5 21.9,45.4 20.7,47.8 C19.9,49.6 19.1,51.4 18.4,53.3 C17.5,55.8 15.3,57.7 12.6,58.1 L7,58.9 C3.4,59.4 0.8,62.5 0.8,66.1 L0.8,79.6 C0.8,83.2 3.4,86.3 7,86.8 L12.6,87.6 C15.3,88 17.5,89.8 18.4,92.4 C19.1,94.3 19.8,96.1 20.7,97.9 C21.9,100.3 21.6,103.2 20,105.4 L16.6,110 C14.4,112.9 14.7,116.9 17.3,119.5 L26.9,129.1 C29.5,131.7 33.5,131.9 36.4,129.8 L41,126.4 C43.2,124.8 46.1,124.5 48.5,125.7 C50.3,126.5 52.1,127.3 54,128 C56.5,128.9 58.4,131.1 58.8,133.8 L59.6,139.4 C60.1,143 63.2,145.6 66.8,145.6 L80.3,145.6 C83.9,145.6 87,143 87.5,139.4 L88.3,133.8 C88.7,131.1 90.5,128.9 93.1,128 C95,127.3 96.8,126.6 98.6,125.7 C101,124.5 103.9,124.8 106.1,126.4 L110.7,129.8 C113.6,132 117.6,131.7 120.2,129.1 L129.8,119.5 C132.4,116.9 132.6,112.9 130.5,110 L127.1,105.4 C125.5,103.2 125.2,100.3 126.4,97.9 C127.2,96.1 128,94.3 128.7,92.4 C129.6,89.9 131.8,88 134.5,87.6 L140.1,86.8 C143.7,86.3 146.3,83.2 146.3,79.6 L146.3,66 C146.3,62.4 143.7,59.3 140.1,58.8 L134.5,58 C131.8,57.6 129.6,55.8 128.7,53.2 C128,51.3 127.3,49.5 126.4,47.7 C125.2,45.3 125.5,42.4 127.1,40.2 L130.5,35.6 C132.7,32.7 132.4,28.7 129.8,26.1 L120.2,16.5 C118.7,15 116.7,14.3 114.7,14.4" id="Shape" class="stroke-primary" stroke-width="2.9096" stroke-linecap="round" stroke-linejoin="round"></path>
            <path d="M37.2,49.1 C38.5,47.1 40,45.2 41.7,43.4" id="Shape" class="stroke-primary-300" stroke-width="2.9096" stroke-linecap="round" stroke-linejoin="round"></path>
            <path d="M32.2,88 C30.7,83.5 29.8,78.7 29.8,73.6 C29.8,70.2 30.2,66.9 30.9,63.7" id="Shape" class="stroke-primary-300" stroke-width="2.9096" stroke-linecap="round" stroke-linejoin="round"></path>
            <path d="M41.1,103.2 C39.9,101.8 38.7,100.3 37.6,98.8" id="Shape" class="stroke-primary-300" stroke-width="2.9096" stroke-linecap="round" stroke-linejoin="round"></path>
            <path d="M101.1,109.4 C93.7,115 84.4,118.3 74.4,118.3 C64,118.3 54.4,114.7 46.8,108.7" id="Shape" class="stroke-primary-300" stroke-width="2.9096" stroke-linecap="round" stroke-linejoin="round"></path>
            <path d="M64.3,30.2 C67.6,29.4 71,29 74.4,29 C88.3,29 100.7,35.3 108.9,45.3" id="Shape" class="stroke-primary-300" stroke-width="2.9096" stroke-linecap="round" stroke-linejoin="round"></path>
        </g>
    </g>
</svg>