<?xml version="1.0" encoding="UTF-8"?>
<svg width="150px" height="151px" viewBox="0 0 150 151" version="1.1" xmlns="http://www.w3.org/2000/svg" xmlns:xlink="http://www.w3.org/1999/xlink">
    <!-- Generator: Sketch 51.2 (57519) - http://www.bohemiancoding.com/sketch -->
    <title>Cog_Wheels</title>
    <desc>Created with Sketch.</desc>
    <defs></defs>
    <g id="Page-1" stroke="none" stroke-width="1" fill="none" fill-rule="evenodd">
        <g id="Cog_Wheels" transform="translate(2.000000, 1.000000)">
            <path d="M145.9,44.4 L145.9,36.9 C145.9,34.9 144.4,33.2 142.5,32.9 L139.4,32.4 C137.9,32.2 136.7,31.2 136.2,29.8 C135.8,28.8 135.4,27.8 134.9,26.8 C134.3,25.5 134.4,23.9 135.3,22.7 L137.2,20.2 C138.4,18.6 138.2,16.4 136.8,15 L131.5,9.7 C130.1,8.3 127.9,8.1 126.3,9.3 L123.8,11.2 C122.6,12.1 121,12.2 119.7,11.6 C118.7,11.1 117.7,10.7 116.7,10.3 C115.3,9.8 114.3,8.6 114.1,7.1 L113.6,4 C113.3,2 111.6,0.6 109.6,0.6 L102.1,0.6 C100.1,0.6 98.4,2.1 98.1,4 L97.6,7.1 C97.4,8.6 96.4,9.8 95,10.3 C94,10.7 93,11.1 92,11.6 C90.7,12.2 89.1,12.1 87.9,11.2 L85.4,9.3 C83.8,8.1 81.6,8.3 80.2,9.7 L74.9,15 C73.5,16.4 73.3,18.6 74.5,20.2 L76.4,22.7 C77.3,23.9 77.4,25.5 76.8,26.8 C76.3,27.8 75.9,28.8 75.5,29.8 C75,31.2 73.8,32.2 72.3,32.4 L69.2,32.9 C67.2,33.2 65.8,34.9 65.8,36.9 L65.8,44.4 C65.8,46.4 67.3,48.1 69.2,48.4 L72.3,48.9 C73.8,49.1 75,50.1 75.5,51.5 C75.9,52.5 76.3,53.5 76.8,54.5 C77.4,55.8 77.3,57.4 76.4,58.6 L74.5,61.1 C73.3,62.7 73.5,64.9 74.9,66.3 L80.2,71.6 C81.6,73 83.8,73.2 85.4,72 L87.9,70.1 C89.1,69.2 90.7,69.1 92,69.7 C93,70.2 94,70.6 95,71 C96.4,71.5 97.4,72.7 97.6,74.2 L98.1,77.3 C98.4,79.3 100.1,80.7 102.1,80.7 L109.6,80.7 C111.6,80.7 113.3,79.2 113.6,77.3 L114.1,74.2 C114.3,72.7 115.3,71.5 116.7,71 C117.7,70.6 118.7,70.2 119.7,69.7 C121,69.1 122.6,69.2 123.8,70.1 L126.3,72 C127.9,73.2 130.1,73 131.5,71.6 L136.8,66.3 C138.2,64.9 138.4,62.7 137.2,61.1 L135.3,58.6 C134.4,57.4 134.3,55.8 134.9,54.5 C135.4,53.5 135.8,52.5 136.2,51.5 C136.7,50.1 137.9,49.1 139.4,48.9 L142.5,48.4 C144.5,48.1 145.9,46.4 145.9,44.4 Z" id="Shape" class="fill-neutral" fill-rule="nonzero"></path>
            <path d="M113,85.8 L113,96.3 C113,99.1 110.9,101.5 108.2,101.9 L103.8,102.5 C101.7,102.8 100,104.2 99.3,106.2 C98.8,107.7 98.2,109.1 97.5,110.5 C97,111.5 96.9,112.6 97,113.7 C97.1,114.7 97.5,115.6 98.1,116.4 L100.7,120 C101.7,121.3 102,122.9 101.7,124.4 C101.5,125.5 101,126.6 100.1,127.4 L92.7,134.8 C91.8,135.7 90.8,136.2 89.7,136.4 C88.2,136.7 86.6,136.3 85.4,135.4 L81.8,132.8 C81,132.2 80.2,131.9 79.3,131.8 C78.2,131.6 77.1,131.8 76,132.3 C74.6,133 73.2,133.5 71.7,134.1 C69.7,134.8 68.3,136.5 68,138.6 L67.4,143 C67,145.8 64.6,147.8 61.8,147.8 L51.3,147.8 C49.7,147.8 48.2,147.1 47.1,145.9 C46.4,145.1 45.9,144.1 45.7,142.9 L45.1,138.5 C45,137.6 44.6,136.8 44.1,136 C44.1,136 44.1,136 44.1,136 C43.4,135.1 42.5,134.4 41.4,134 C40.7,133.8 40,133.5 39.3,133.2 C38.6,132.9 37.9,132.6 37.1,132.2 C35.2,131.3 33,131.5 31.3,132.8 L27.7,135.4 C25.5,137.1 22.3,136.8 20.3,134.9 L12.9,127.5 C11.9,126.5 11.3,125.1 11.3,123.8 C11.2,122.5 11.6,121.2 12.4,120.2 L15,116.6 C16.3,114.9 16.5,112.7 15.6,110.8 C14.9,109.4 14.4,108 13.8,106.5 C13.1,104.5 11.4,103.1 9.3,102.8 L4.9,102.2 C2.1,101.8 0.1,99.4 0.1,96.6 L0.1,86.1 C0.1,83.3 2.2,80.9 4.9,80.5 L9.3,79.9 C11.4,79.6 13.1,78.2 13.8,76.2 C14.3,74.7 14.9,73.3 15.6,71.9 C16.5,70 16.3,67.8 15,66.1 L12.4,62.5 C10.7,60.2 11,57.1 12.9,55.1 L20.3,47.7 C22.3,45.7 25.4,45.5 27.7,47.2 L31.3,49.8 C33,51.1 35.2,51.3 37.1,50.4 C38.5,49.7 39.9,49.2 41.4,48.6 C43.4,47.9 44.8,46.2 45.1,44.1 L45.7,39.7 C46.1,36.9 48.5,34.9 51.3,34.9 L61.8,34.9 C63.4,34.9 64.8,35.5 65.8,36.6 C65.8,36.8 65.7,37.1 65.7,37.3 L65.7,44.8 C65.7,46.8 67.2,48.5 69.1,48.8 L71.9,49.2 L72.2,49.2 C72.8,49.3 73.3,49.5 73.8,49.8 C74.5,50.3 75.1,51 75.4,51.8 C75.8,52.8 76.2,53.8 76.7,54.8 C77.3,56.2 77.2,57.7 76.3,58.9 L74.4,61.4 C73.2,63 73.4,65.2 74.8,66.6 L80.1,71.9 C81.5,73.3 83.7,73.5 85.3,72.3 L87.8,70.4 C89,69.5 90.6,69.4 91.9,70 C92.9,70.5 93.9,70.9 94.9,71.3 C95.9,71.7 96.7,72.4 97.2,73.3 C97.4,73.6 97.5,74 97.5,74.3 C97.5,74.3 97.5,74.4 97.5,74.4 L98,77.5 C98.3,79.5 100,80.9 102,80.9 L109.5,80.9 C109.6,80.9 109.7,80.9 109.8,80.9 C110.2,81.1 110.6,81.4 111,81.7 C112.3,82.7 113,84.2 113,85.8 Z" id="Shape" class="fill-neutral" fill-rule="nonzero"></path>
            <path d="M113,84.9 L113,98.1 C113,100 111.6,101.7 109.7,101.9 L105.3,102.5 C102.6,102.9 100.3,104.8 99.4,107.4 C98.9,108.8 98.3,110.2 97.7,111.5 C97.3,112.3 97.1,113 97,113.6 C96.2,118.3 100.8,121.2 101.7,124.2 C102.1,125.3 101.9,126.5 100.7,127.7 C92.7,135.7 92.6,136.3 90.5,136.3 C90.2,136.3 89.9,136.3 89.7,136.2 C89.2,136.1 88.7,135.9 88.2,135.5 L84.6,132.8 C83.3,131.8 81.8,131.3 80.2,131.3 C79.9,131.3 79.6,131.3 79.2,131.4 C78.4,131.5 77.6,131.7 76.9,132.1 C75.6,132.7 74.2,133.3 72.8,133.8 C64.5,136.8 70.4,147.4 63.4,147.4 L50.2,147.4 C48.8,147.4 47.6,146.7 46.9,145.5 C46.6,145.1 46.4,144.6 46.4,144.1 C46,141.2 45.9,138 43.9,135.7 C43.9,135.7 43.9,135.7 43.9,135.7 C43.2,134.9 42.2,134.2 40.9,133.8 C40.1,133.5 39.6,133.2 39.1,132.9 C38.7,132.7 38.3,132.4 37.7,132.1 C29.7,128.3 25.5,139.1 20.5,134.2 L13.6,128 L12.2,126.7 C11.1,125.6 10.8,124.5 11.1,123.3 C11.9,119.6 18.2,115.6 15.2,109.5 C14.6,108.2 14,106.8 13.5,105.4 C10.5,97.1 3.4,104.8 3.4,97.8 L3.4,87.3 C3.4,80.4 14.1,86.3 17,77.9 C19.5,70.8 21.7,71.2 15.3,62.6 C14.2,61.1 14.3,58.9 15.7,57.6 C23.7,49.6 23.8,49 25.9,49 C29.2,49 31.2,53.9 36.2,53.9 C38.7,53.9 39.2,53 43.5,51.5 C46.1,50.6 48,48.3 48.4,45.6 L49,41.2 C49.3,39.3 50.9,37.9 52.8,37.9 L61.1,37.9 L61.1,44.2 C61.1,48.4 64.2,52 68.3,52.6 L71.2,53 C71.6,54 72,55 72.4,56 L70.7,58.3 C68.2,61.6 68.6,66.4 71.5,69.3 L76.8,74.6 C78.4,76.2 80.5,77.1 82.8,77.1 C84.6,77.1 86.4,76.5 87.8,75.4 L90.1,73.7 C91.1,74.2 92.1,74.6 93.1,74.9 L93.5,77.8 C94.1,81.9 97.7,85 101.9,85 L109.4,85 C110.6,85 111.7,84.7 112.8,84.3 C113,84.7 113,84.8 113,84.9 Z" id="Shape" class="fill-primary-200" fill-rule="nonzero"></path>
            <path d="M145.9,44.4 L145.9,36.9 C145.9,34.9 144.4,33.2 142.5,32.9 L139.4,32.4 C137.9,32.2 136.7,31.2 136.2,29.8 C135.8,28.8 135.4,27.8 134.9,26.8 C134.3,25.5 134.4,23.9 135.3,22.7 L137.2,20.2 C138.4,18.6 138.2,16.4 136.8,15 L131.5,9.7 C130.1,8.3 127.9,8.1 126.3,9.3 L123.8,11.2 C122.6,12.1 121,12.2 119.7,11.6 C118.7,11.1 117.7,10.7 116.7,10.3 C115.3,9.8 114.3,8.6 114.1,7.1 L113.6,4 C113.3,2 111.6,0.6 109.6,0.6 L102.1,0.6 C100.1,0.6 98.4,2.1 98.1,4 L97.6,7.1 C97.4,8.6 96.4,9.8 95,10.3 C94,10.7 93,11.1 92,11.6 C90.7,12.2 89.1,12.1 87.9,11.2 L85.4,9.3 C83.8,8.1 81.6,8.3 80.2,9.7 L74.9,15 C73.5,16.4 73.3,18.6 74.5,20.2 L76.4,22.7 C77.3,23.9 77.4,25.5 76.8,26.8 C76.3,27.8 75.9,28.8 75.5,29.8 C75,31.2 73.8,32.2 72.3,32.4 L69.2,32.9 C67.2,33.2 65.8,34.9 65.8,36.9 L65.8,44.4 C65.8,46.4 67.3,48.1 69.2,48.4 L72.3,48.9 C73.8,49.1 75,50.1 75.5,51.5 C75.9,52.5 76.3,53.5 76.8,54.5 C77.4,55.8 77.3,57.4 76.4,58.6 L74.5,61.1 C73.3,62.7 73.5,64.9 74.9,66.3 L80.2,71.6 C81.6,73 83.8,73.2 85.4,72 L87.9,70.1 C89.1,69.2 90.7,69.1 92,69.7 C93,70.2 94,70.6 95,71 C96.4,71.5 97.4,72.7 97.6,74.2 L98.1,77.3 C98.4,79.3 100.1,80.7 102.1,80.7 L109.6,80.7 C111.6,80.7 113.3,79.2 113.6,77.3 L114.1,74.2 C114.3,72.7 115.3,71.5 116.7,71 C117.7,70.6 118.7,70.2 119.7,69.7 C121,69.1 122.6,69.2 123.8,70.1 L126.3,72 C127.9,73.2 130.1,73 131.5,71.6 L136.8,66.3 C138.2,64.9 138.4,62.7 137.2,61.1 L135.3,58.6 C134.4,57.4 134.3,55.8 134.9,54.5 C135.4,53.5 135.8,52.5 136.2,51.5 C136.7,50.1 137.9,49.1 139.4,48.9 L142.5,48.4 C144.5,48.1 145.9,46.4 145.9,44.4 Z" id="Shape" class="fill-neutral" fill-rule="nonzero"></path>
            <path d="M145.9,46 L145.9,37.1 C145.9,35.2 144.5,33.6 142.6,33.3 L139.6,32.9 C138.2,32.7 137,31.7 136.5,30.4 C136.1,29.4 135.7,30.2 135.3,29.3 C134.7,28 134.1,25.8 135,24.6 L135.9,21 C137,19.5 138.5,19.2 137.1,17.9 L132.1,12.9 C130.8,11.6 128.6,11.4 127.1,12.5 L124.7,14.3 C123.6,15.2 122,15.3 120.7,14.7 C119.8,14.3 118.8,13.9 117.8,13.5 C116.5,13 115.5,11.9 115.3,10.4 L114.9,7.4 C114.6,5.5 113,4.1 111.1,4.1 L104,4.1 C102.1,4.1 100.5,5.5 100.2,7.4 L99.8,10.4 C99.6,11.8 98.6,13 97.3,13.5 C96.3,13.9 95.3,14.3 94.4,14.7 C93.1,15.3 91.6,15.2 90.4,14.3 L88,12.5 C86.5,11.4 84.3,11.5 83,12.9 L78,17.9 C76.7,19.2 76.5,21.4 77.6,22.9 L79.4,25.3 C80.3,26.4 80.4,28 79.8,29.3 C79.4,30.2 79,31.2 78.6,32.2 C78.1,33.5 77,34.5 75.5,34.7 L72.5,35.1 C70.6,35.4 69.2,37 69.2,38.9 L69.2,47.8 C69.2,49.7 68.8,48.7 70.7,48.9 L73.7,49.3 C75.1,49.5 73.6,49.6 74.1,50.9 C74.5,51.9 74.9,51.1 75.3,52 C75.9,53.3 77.6,57.5 76.7,58.6 L74.9,61 C73.8,62.5 73.9,64.7 75.3,66 L81.2,71.9 C82.5,73.2 82.9,72.5 84.4,71.4 L88.6,69.6 C89.7,68.7 93,69.5 94.3,70.1 C95.2,70.5 94.4,70.1 95.4,70.4 C96.7,70.9 97.7,72 97.9,73.5 L98.3,76.5 C98.6,78.4 102,80.7 103.9,80.7 L111,80.7 C112.9,80.7 114.5,79.3 114.8,77.4 L115.2,74.4 C115.4,73 116.4,71.8 117.7,71.3 C118.7,70.9 119.7,70.5 120.6,70.1 C121.9,69.5 123.4,69.6 124.6,70.5 L127,72.3 C128.5,73.4 130.7,73.3 132,71.9 L137,66.9 C138.3,65.6 138.5,63.4 137.4,61.9 L135.6,59.5 C134.7,58.4 134.6,56.8 135.2,55.5 C135.6,54.6 136,53.6 136.4,52.6 C136.9,51.3 138,50.3 139.5,50.1 L142.5,49.7 C144.5,49.6 145.9,47.9 145.9,46 Z" id="Shape" class="fill-primary-300" fill-rule="nonzero"></path>
            <circle id="Oval" class="fill-neutral" fill-rule="nonzero" cx="105.8" cy="40.7" r="14"></circle>
            <path d="M104.5,26.8 C104.9,26.8 105.4,26.7 105.8,26.7 C113.5,26.7 119.8,33 119.8,40.7 C119.8,48.4 113.5,54.7 105.8,54.7 C98.1,54.7 91.8,48.4 91.8,40.7 C91.8,37.6 92.8,34.7 94.5,32.4" id="Shape" class="stroke-primary" stroke-width="2.6669" stroke-linecap="round" stroke-linejoin="round"></path>
            <path d="M97.8,29.2 C98.3,28.8 98.9,28.5 99.4,28.2" id="Shape" class="stroke-primary" stroke-width="2.6669" stroke-linecap="round" stroke-linejoin="round"></path>
            <path d="M123.8,11.2 C122.6,12.1 121,12.2 119.7,11.6 C118.7,11.1 117.7,10.7 116.7,10.3 C115.3,9.8 114.3,8.6 114.1,7.1 L113.6,4 C113.3,2 111.6,0.6 109.6,0.6 L102.1,0.6 C100.1,0.6 98.4,2.1 98.1,4 L97.6,7.1 C97.4,8.6 96.4,9.8 95,10.3 C94,10.7 93,11.1 92,11.6 C90.7,12.2 89.1,12.1 87.9,11.2 L85.4,9.3 C83.8,8.1 81.6,8.3 80.2,9.7 L74.9,15 C73.5,16.4 73.3,18.6 74.5,20.2 L76.4,22.7 C77.3,23.9 77.4,25.5 76.8,26.8 C76.3,27.8 75.9,28.8 75.5,29.8 C75,31.2 73.8,32.2 72.3,32.4 L69.2,32.9 C67.2,33.2 65.8,34.9 65.8,36.9 L65.8,44.4 C65.8,46.4 67.3,48.1 69.2,48.4 L72.3,48.9 C73.8,49.1 75,50.1 75.5,51.5 C75.9,52.5 76.3,53.5 76.8,54.5 C77.4,55.8 77.3,57.4 76.4,58.6 L74.5,61.1 C73.3,62.7 73.5,64.9 74.9,66.3 L80.2,71.6 C81.6,73 83.8,73.2 85.4,72 L87.9,70.1 C89.1,69.2 90.7,69.1 92,69.7 C93,70.2 94,70.6 95,71 C96.4,71.5 97.4,72.7 97.6,74.2 L98.1,77.3 C98.4,79.3 100.1,80.7 102.1,80.7 L109.6,80.7 C111.6,80.7 113.3,79.2 113.6,77.3 L114.1,74.2 C114.3,72.7 115.3,71.5 116.7,71 C117.7,70.6 118.7,70.2 119.7,69.7 C121,69.1 122.6,69.2 123.8,70.1 L126.3,72 C127.9,73.2 130.1,73 131.5,71.6 L136.8,66.3 C138.2,64.9 138.4,62.7 137.2,61.1 L135.3,58.6 C134.4,57.4 134.3,55.8 134.9,54.5 C135.4,53.5 135.8,52.5 136.2,51.5 C136.7,50.1 137.9,49.1 139.4,48.9 L142.5,48.4 C144.5,48.1 145.9,46.4 145.9,44.4 L145.9,36.9 C145.9,34.9 144.4,33.2 142.5,32.9 L139.4,32.4 C137.9,32.2 136.7,31.2 136.2,29.8 C135.8,28.8 135.4,27.8 134.9,26.8 C134.3,25.5 134.4,23.9 135.3,22.7 L137.2,20.2 C138.4,18.6 138.2,16.4 136.8,15 L131.5,9.7 C130.7,8.9 129.6,8.5 128.5,8.5" id="Shape" class="stroke-primary" stroke-width="2.6669" stroke-linecap="round" stroke-linejoin="round"></path>
            <path d="M42.7,77 C46.3,73.5 51.1,71.4 56.5,71.4 C67.4,71.4 76.2,80.2 76.2,91.1 C76.2,102 67.4,110.8 56.5,110.8 C45.6,110.8 36.8,102 36.8,91.1 C36.8,85.6 39,80.6 42.7,77" id="Shape" class="fill-neutral" fill-rule="nonzero"></path>
            <path d="M28.7,73.1 C29.2,72.4 29.7,71.7 30.2,71" id="Shape" class="stroke-primary-300" stroke-width="2.6669" stroke-linecap="round" stroke-linejoin="round"></path>
            <path d="M33.3,114.7 C27.2,108.7 23.4,100.3 23.4,91.1 C23.4,87 24.2,83 25.5,79.4" id="Shape" class="stroke-primary-300" stroke-width="2.6669" stroke-linecap="round" stroke-linejoin="round"></path>
            <path d="M45.2,122.2 C43.7,121.7 42.3,121 40.9,120.3" id="Shape" class="stroke-primary-300" stroke-width="2.6669" stroke-linecap="round" stroke-linejoin="round"></path>
            <path d="M88.2,100.5 C87.6,102.6 86.7,104.7 85.7,106.6" id="Shape" class="stroke-primary-300" stroke-width="2.6669" stroke-linecap="round" stroke-linejoin="round"></path>
            <path d="M53.3,58.2 C54.3,58.1 55.4,58.1 56.4,58.1 C59.7,58.1 62.9,58.6 65.9,59.5" id="Shape" class="stroke-primary-300" stroke-width="2.6669" stroke-linecap="round" stroke-linejoin="round"></path>
            <path d="M42,61.3 C42.1,61.2 42.2,61.2 42.3,61.1" id="Shape" class="stroke-primary-300" stroke-width="2.6669" stroke-linecap="round" stroke-linejoin="round"></path>
            <path d="M33.3,67.5 C35.8,65 38.8,62.9 42,61.4" id="Shape" class="stroke-primary-300" stroke-width="2.6669" stroke-linecap="round" stroke-linejoin="round"></path>
            <path d="M46.2,74.3 C46.3,74.2 46.4,74.2 46.5,74.1" id="Shape" class="stroke-primary" stroke-width="2.6669" stroke-linecap="round" stroke-linejoin="round"></path>
            <path d="M51.3,72.1 C52.9,71.7 54.7,71.4 56.4,71.4 C67.3,71.4 76.1,80.2 76.1,91.1 C76.1,102 67.3,110.8 56.4,110.8 C45.5,110.8 36.7,102 36.7,91.1 C36.7,87.5 37.7,84.1 39.3,81.2" id="Shape" class="stroke-primary" stroke-width="2.6669" stroke-linecap="round" stroke-linejoin="round"></path>
            <path d="M22.1,46.2 C23.9,45.5 26,45.7 27.6,46.9 L31.2,49.5 C32.9,50.8 35.1,51 37,50.1 C38.4,49.4 39.8,48.9 41.3,48.3 C43.3,47.6 44.7,45.9 45,43.8 L45.6,39.4 C46,36.6 48.4,34.6 51.2,34.6 L58.4,34.6" id="Shape" class="stroke-primary" stroke-width="2.6669" stroke-linecap="round" stroke-linejoin="round"></path>
            <path d="M16.5,51.2 L16.8,50.9" id="Shape" class="stroke-primary" stroke-width="2.6669" stroke-linecap="round" stroke-linejoin="round"></path>
            <path d="M102.2,103 C100.8,103.6 99.7,104.8 99.2,106.3 C98.7,107.8 98.1,109.2 97.4,110.6 C96.9,111.6 96.8,112.7 96.9,113.8 C97,114.8 97.4,115.7 98,116.5 L100.6,120.1 C101.6,121.4 101.9,123 101.6,124.5 C101.4,125.6 100.9,126.7 100,127.5 L92.6,134.9 C91.7,135.8 90.7,136.3 89.6,136.5 C88.1,136.8 86.5,136.4 85.3,135.5 L81.7,132.9 C80.9,132.3 80.1,132 79.2,131.9 C78.1,131.7 77,131.9 75.9,132.4 C74.5,133.1 73.1,133.6 71.6,134.2 C69.6,134.9 68.2,136.6 67.9,138.7 L67.3,143.1 C66.9,145.9 64.5,147.9 61.7,147.9 L51.2,147.9 C49.6,147.9 48.1,147.2 47,146 C46.3,145.2 45.8,144.2 45.6,143 L45,138.6 C44.9,137.7 44.5,136.9 44,136.1 C44,136.1 44,136.1 44,136.1 C43.3,135.2 42.4,134.5 41.3,134.1 C40.6,133.9 39.9,133.6 39.2,133.3 C38.5,133 37.8,132.7 37,132.3 C35.1,131.4 32.9,131.6 31.2,132.9 L27.6,135.5 C25.4,137.2 22.2,136.9 20.2,135 L12.8,127.6 C11.8,126.6 11.2,125.2 11.2,123.9 C11.1,122.6 11.5,121.3 12.3,120.3 L14.9,116.7 C16.2,115 16.4,112.8 15.5,110.9 C14.8,109.5 14.3,108.1 13.7,106.6 C13,104.6 11.3,103.2 9.2,102.9 L4.8,102.3 C2,101.9 0,99.5 0,96.7 L0,86.2 C0,83.4 2.1,81 4.8,80.6 L9.2,80 C11.3,79.7 13,78.3 13.7,76.3 C14.2,74.8 14.8,73.4 15.5,72 C16.4,70.1 16.2,67.9 14.9,66.2 L12.3,62.6 C10.9,60.7 10.8,58.1 12.1,56.2" id="Shape" class="stroke-primary" stroke-width="2.6669" stroke-linecap="round" stroke-linejoin="round"></path>
            <path d="M112.8,84.5 C112.9,84.9 113,85.4 113,85.9 L113,96.4 C113,99.1 111.2,101.3 108.6,101.9" id="Shape" class="stroke-primary" stroke-width="2.6669" stroke-linecap="round" stroke-linejoin="round"></path>
        </g>
    </g>
</svg>