<?xml version="1.0" encoding="UTF-8"?>
<svg width="140px" height="144px" viewBox="0 0 140 144" version="1.1" xmlns="http://www.w3.org/2000/svg" xmlns:xlink="http://www.w3.org/1999/xlink">
    <!-- Generator: Sketch 51.2 (57519) - http://www.bohemiancoding.com/sketch -->
    <title>Coins_2</title>
    <desc>Created with Sketch.</desc>
    <defs></defs>
    <g id="Page-1" stroke="none" stroke-width="1" fill="none" fill-rule="evenodd">
        <g id="Coins_2" transform="translate(-6.000000, -11.000000)">
            <path d="M82,27 L72,18 C61.2,8.5 41,13.7 26.7,29.7 C12.4,45.7 9.5,66.5 20.3,76.1 L30.2,84.9 C30.2,84.9 30.2,84.9 30.2,84.9 C41,94.5 61.3,89.3 75.6,73.3 C89.9,57.3 92.8,36.6 82,27 Z" id="Shape" class="fill-neutral" fill-rule="nonzero"></path>
            <path d="M64.4,115.7 L59.1,107.3 C53.3,98.4 37.9,98 24.5,106.5 C11.1,115 4.9,129.2 10.6,138.2 L15.8,146.4 C15.8,146.4 15.8,146.4 15.8,146.4 C21.5,155.4 37,155.8 50.4,147.3 C63.9,138.9 70.1,124.7 64.4,115.7 Z" id="Shape" class="fill-neutral" fill-rule="nonzero"></path>
            <path d="M123.6,136.6 L134.1,130.8 C145.2,124.5 146.8,106 137.5,89.4 C128.2,72.7 111.7,64.2 100.5,70.4 L90.2,76.1 C90.2,76.1 90.2,76.1 90.2,76.1 C79,82.3 77.4,100.9 86.7,117.6 C95.9,134.3 112.4,142.8 123.6,136.6 Z" id="Shape" class="fill-neutral" fill-rule="nonzero"></path>
            <path d="M82,27 L72,18 C61.2,8.5 41,13.7 26.7,29.7 C12.4,45.7 9.5,66.5 20.3,76.1 L30.2,84.9 C30.2,84.9 30.2,84.9 30.2,84.9 C41,94.5 61.3,89.3 75.6,73.3 C89.9,57.3 92.8,36.6 82,27 Z" id="Shape" class="fill-primary-500" fill-rule="nonzero"></path>
            <path d="M64.4,115.7 L59.1,107.3 C53.3,98.4 37.9,98 24.5,106.5 C11.1,115 4.9,129.2 10.6,138.2 L15.8,146.4 C15.8,146.4 15.8,146.4 15.8,146.4 C21.5,155.4 37,155.8 50.4,147.3 C63.9,138.9 70.1,124.7 64.4,115.7 Z" id="Shape" class="fill-primary-500" fill-rule="nonzero"></path>
            <path d="M123.6,136.6 L134.1,130.8 C145.2,124.5 146.8,106 137.5,89.4 C128.2,72.7 111.7,64.2 100.5,70.4 L90.2,76.1 C90.2,76.1 90.2,76.1 90.2,76.1 C79,82.3 77.4,100.9 86.7,117.6 C95.9,134.3 112.4,142.8 123.6,136.6 Z" id="Shape" class="fill-primary-500" fill-rule="nonzero"></path>
            <path d="M82,27 L72,18 C61.2,8.5 41,13.7 26.7,29.7 C12.4,45.7 9.5,66.5 20.3,76.1 L30.2,84.9 C30.2,84.9 30.2,84.9 30.2,84.9 C41,94.5 61.3,89.3 75.6,73.3 C89.9,57.3 92.8,36.6 82,27 Z" id="Shape" class="stroke-primary" stroke-width="3" stroke-linecap="round" stroke-linejoin="round"></path>
            <ellipse id="Oval" fill="#C4E0FF" fill-rule="nonzero" transform="translate(46.380370, 47.129310) rotate(-48.267021) translate(-46.380370, -47.129310) " cx="46.38037" cy="47.12931" rx="38.9023374" ry="26.1015683"></ellipse>
            <ellipse id="Oval" fill="#C4E0FF" fill-rule="nonzero" transform="translate(34.999960, 122.976940) rotate(-32.437796) translate(-34.999960, -122.976940) " cx="34.99996" cy="122.97694" rx="28.7008748" ry="19.3005883"></ellipse>
            <ellipse id="Oval" fill="#C4E0FF" fill-rule="nonzero" transform="translate(117.253100, 100.527450) rotate(-29.012866) translate(-117.253100, -100.527450) " cx="117.2531" cy="100.52745" rx="23.1997129" ry="34.4995731"></ellipse>
            <path d="M66.1,64.1 C66,64.2 65.9,64.4 65.7,64.5 C65.5,64.7 65.4,64.9 65.2,65.1" id="Shape" class="stroke-primary" stroke-width="3" stroke-linecap="round" stroke-linejoin="round"></path>
            <path d="M59,70.9 C45.6,81.7 29.5,84.3 20.4,76.1 C9.6,66.5 12.5,45.7 26.8,29.7 C41.1,13.7 61.4,8.5 72.2,18.1 C81.9,26.7 80.5,44.5 69.7,59.6" id="Shape" class="stroke-primary" stroke-width="3" stroke-linecap="round" stroke-linejoin="round"></path>
            <g id="Group" transform="translate(26.000000, 24.000000)" fill-rule="nonzero">
                <path d="M4.9,42.4 C4.1,42.4 3.3,42.1 2.8,41.6 C1.4,40.4 1.4,38.1 2.8,36.5 L4,35.2 C1.9,32.1 1.7,28.9 1.7,27.2 C1.8,25.5 3.1,23.8 4.8,23.5 C5.1,23.4 5.3,23.4 5.6,23.4 C6.4,23.4 7.2,23.7 7.7,24.2 C8.4,24.8 8.8,25.7 8.7,26.6 C8.7,28.1 9.1,30.3 11,32 C12,32.9 13.1,33.4 14.1,33.4 C15.6,33.4 16.8,32.4 17.6,31.5 C19.5,29.4 18.6,27.5 16.8,24.1 C14.7,20.1 11.8,14.6 17.3,8.4 C19.7,5.7 22.9,4.2 26.2,4.2 C27.7,4.2 29.2,4.5 30.6,5.2 L31.9,3.8 C32.7,2.9 33.7,2.5 34.8,2.5 C35.6,2.5 36.4,2.8 36.9,3.3 C38.3,4.5 38.3,6.8 36.9,8.4 L35.6,9.8 C36.9,12 37.3,14.3 37.3,15.9 C37.4,17.8 35.9,19.6 34,19.9 C33.8,19.9 33.6,20 33.4,20 C32.6,20 31.8,19.7 31.3,19.2 C30.6,18.6 30.3,17.8 30.2,16.9 C30.2,15.7 29.8,14.1 28.4,12.8 C27.5,12 26.6,11.6 25.6,11.6 C24.5,11.6 23.3,12.2 22.4,13.1 C20.5,15.2 21.4,17.1 23.3,20.5 C25.4,24.5 28.3,30 22.8,36.2 C20.2,39.1 16.9,40.8 13.6,40.8 C12,40.8 10.4,40.4 9,39.7 L7.7,41.1 C7,41.9 6,42.4 4.9,42.4 Z" id="Shape" class="fill-neutral"></path>
                <path d="M34.9,3.8 C35.3,3.8 35.7,3.9 36,4.2 C36.8,4.9 36.7,6.2 35.9,7.2 L33.8,9.5 C35.4,11.7 35.9,14.1 35.9,15.8 C35.9,16.9 35,18.1 33.8,18.3 C33.7,18.3 33.5,18.3 33.4,18.3 C32.9,18.3 32.6,18.2 32.3,17.9 C32,17.6 31.8,17.1 31.7,16.6 C31.7,15.2 31.2,13.1 29.4,11.5 C28.2,10.4 26.9,9.9 25.6,9.9 C23.9,9.9 22.4,10.7 21.3,11.9 C18.7,14.9 20.2,17.7 21.9,21 C24,25 26.4,29.6 21.6,35 C19.2,37.7 16.4,39.1 13.5,39.1 C11.8,39.1 10.1,38.6 8.5,37.6 L6.5,39.9 C6,40.5 5.3,40.7 4.7,40.7 C4.3,40.7 3.9,40.6 3.6,40.3 C2.8,39.6 2.9,38.3 3.7,37.3 L5.7,35.1 C3.2,32.2 2.9,28.8 3,27 C3,25.9 3.9,24.9 5,24.7 C5.2,24.7 5.3,24.6 5.5,24.6 C5.9,24.6 6.3,24.7 6.6,25 C7,25.3 7.2,25.8 7.1,26.3 C7.1,28.1 7.6,30.7 9.9,32.9 C11.2,34.1 12.6,34.7 14,34.7 C15.6,34.7 17.2,33.9 18.6,32.3 C21.2,29.3 19.7,26.5 18,23.2 C15.9,19.2 13.5,14.6 18.3,9.2 C20.5,6.8 23.3,5.5 26.1,5.5 C27.8,5.5 29.4,5.9 30.9,6.8 L33,4.5 C33.6,4.1 34.3,3.8 34.9,3.8 Z M34.9,0.8 C33.4,0.8 31.9,1.5 30.9,2.7 L30.3,3.3 C29,2.8 27.6,2.6 26.3,2.6 C22.6,2.6 18.9,4.3 16.3,7.3 C10,14.3 13.4,20.6 15.6,24.7 C17.6,28.4 17.7,29.3 16.7,30.4 C16.1,31 15.3,31.8 14.3,31.8 C13.5,31.8 12.7,31.3 12.2,30.8 C11,29.7 10.3,28.3 10.4,26.5 C10.4,25.1 9.8,23.8 8.9,22.9 C8,22.1 6.9,21.7 5.8,21.7 C5.4,21.7 5.1,21.7 4.7,21.8 C2.3,22.3 0.5,24.5 0.4,27 C0.3,28.8 0.6,31.8 2.3,34.9 L1.9,35.4 C2.2759572e-13,37.6 2.2759572e-13,40.8 2,42.6 C2.9,43.4 4,43.8 5.1,43.8 C6.6,43.8 8.1,43.1 9.1,41.9 L9.6,41.3 C11,41.8 12.4,42.1 13.8,42.1 C17.6,42.1 21.2,40.3 24.1,37 C30.4,30 27,23.7 24.8,19.6 C22.8,15.9 22.7,15 23.7,13.9 C24.3,13.2 25.1,12.9 25.8,12.9 C26.4,12.9 27,13.2 27.6,13.7 C28.4,14.4 28.9,15.4 28.9,16.7 C28.9,18 29.5,19.3 30.5,20.1 C31.3,20.9 32.5,21.3 33.6,21.3 C33.9,21.3 34.2,21.3 34.5,21.2 C37.2,20.7 39.1,18.3 39.1,15.7 C39,14.1 38.7,12 37.7,9.9 L38.3,9.2 C40.2,7 40.2,3.8 38.2,2 C37.2,1.2 36.1,0.8 34.9,0.8 Z" id="Shape" class="fill-primary"></path>
            </g>
            <path d="M64.4,115.7 L59.1,107.3 C53.3,98.4 37.9,98 24.5,106.5 C11.1,115 4.9,129.2 10.6,138.2 L15.8,146.4 C15.8,146.4 15.8,146.4 15.8,146.4 C21.5,155.4 37,155.8 50.4,147.3 C63.9,138.9 70.1,124.7 64.4,115.7 Z" id="Shape" class="stroke-primary" stroke-width="3" stroke-linecap="round" stroke-linejoin="round"></path>
            <path d="M58.9,124.5 C56.3,129.9 51.5,135.2 45.2,139.2 C31.8,147.7 16.3,147.3 10.6,138.3 C4.9,129.3 11.1,115.1 24.5,106.6 C37.9,98.1 53.3,98.5 59.1,107.4" id="Shape" class="stroke-primary" stroke-width="3" stroke-linecap="round" stroke-linejoin="round"></path>
            <g id="Group" transform="translate(16.000000, 108.000000)" fill-rule="nonzero">
                <path d="M12.8,26.8 C10.8,26.8 9,26.1 7.5,24.9 L6.6,25.5 C6,25.9 5.4,26 4.8,26 C3.8,26 2.9,25.5 2.4,24.7 C1.5,23.3 2,21.5 3.5,20.5 L4.4,20 C3.6,17.4 4.1,15.1 4.5,13.8 C4.9,12.5 6.3,11.5 7.7,11.5 C7.7,11.5 7.9,11.5 7.9,11.5 C8.8,11.6 9.7,12 10.1,12.8 C10.5,13.5 10.6,14.3 10.4,15.1 C10,16.6 10.2,17.9 10.9,19.1 C11.6,20.1 12.3,20.6 13.2,20.6 C13.8,20.6 14.5,20.4 15.2,19.9 C16.7,19 16.6,17.8 15.9,14.8 C15.2,11.4 14.2,6.8 19.6,3.3 C21.2,2.3 23,1.7 24.8,1.7 C26.7,1.7 28.6,2.3 30.1,3.5 L31.1,2.9 C31.7,2.5 32.3,2.4 32.9,2.4 C33.9,2.4 34.8,2.9 35.3,3.7 C36.2,5.1 35.7,6.9 34.2,7.9 L33.2,8.5 C33.6,10.3 33.4,12 33.1,13.1 C32.8,14.5 31.4,15.6 29.8,15.6 C29.7,15.6 29.6,15.6 29.5,15.6 C28.6,15.5 27.8,15.1 27.4,14.3 C27,13.7 26.9,12.9 27.1,12.1 C27.4,11 27.2,10 26.7,9.1 C26.1,8.2 25.4,7.8 24.5,7.8 C24,7.8 23.4,8 22.9,8.3 C21.4,9.2 21.5,10.4 22.2,13.4 C22.9,16.8 23.9,21.4 18.5,24.9 C16.6,26.2 14.7,26.8 12.8,26.8 Z" id="Shape" class="fill-neutral"></path>
                <path d="M24.8,3.3 C26.7,3.3 28.5,4 29.9,5.5 L31.8,4.3 C32.1,4.1 32.5,4 32.8,4 C33.3,4 33.7,4.2 34,4.6 C34.4,5.3 34.1,6.2 33.3,6.7 L31.4,7.9 C32.1,9.8 31.9,11.6 31.6,12.8 C31.4,13.6 30.6,14.2 29.8,14.2 C29.7,14.2 29.7,14.2 29.6,14.2 C29.1,14.2 28.8,13.9 28.6,13.6 C28.4,13.3 28.4,13 28.5,12.6 C28.8,11.6 28.9,10 27.9,8.5 C27,7 25.7,6.5 24.5,6.5 C23.6,6.5 22.8,6.8 22.1,7.2 C19.6,8.8 20.1,11.1 20.7,13.9 C21.4,17.2 22.2,20.9 17.6,23.8 C16,24.8 14.4,25.3 12.8,25.3 C10.9,25.3 9.1,24.5 7.7,23 L5.8,24.2 C5.5,24.4 5.1,24.5 4.8,24.5 C4.3,24.5 3.9,24.3 3.6,23.9 C3.2,23.2 3.5,22.3 4.3,21.8 L6.2,20.6 C5,18 5.5,15.5 5.9,14.3 C6.1,13.6 6.9,13 7.7,13 C7.7,13 7.8,13 7.8,13 C8.3,13 8.6,13.2 8.9,13.6 C9.1,13.9 9.1,14.3 9,14.6 C8.6,15.9 8.4,17.9 9.7,19.9 C10.6,21.4 11.9,22.1 13.3,22.1 C14.2,22.1 15.1,21.8 16.1,21.2 C18.6,19.6 18.1,17.3 17.5,14.5 C16.8,11.2 16,7.5 20.6,4.6 C21.9,3.8 23.4,3.3 24.8,3.3 Z M24.8,0.3 C22.7,0.3 20.7,0.9 18.8,2.1 C12.5,6.1 13.7,11.8 14.4,15.2 C15.1,18.2 14.9,18.4 14.3,18.7 C13.9,19 13.5,19.1 13.2,19.1 C12.8,19.1 12.5,18.8 12.1,18.3 C11.9,18 11.3,17 11.7,15.5 C12,14.3 11.9,13 11.2,12 C10.5,10.8 9.2,10.1 7.8,10 C7.7,10 7.6,10 7.5,10 C5.4,10 3.5,11.4 2.9,13.4 C2.5,14.6 2.1,16.8 2.5,19.3 C1.5,19.9 0.8,20.8 0.5,21.9 C0.1,23.1 0.3,24.5 0.9,25.5 C1.7,26.7 3.1,27.5 4.6,27.5 C5.5,27.5 6.4,27.2 7.2,26.7 L7.3,26.7 C8.9,27.7 10.7,28.3 12.6,28.3 C14.7,28.3 16.9,27.6 19,26.3 C25.3,22.3 24.1,16.6 23.4,13.2 C22.7,10.2 22.9,10 23.5,9.7 C23.8,9.5 24.1,9.4 24.3,9.4 C24.5,9.4 24.8,9.4 25.2,10 C25.3,10.2 25.7,10.8 25.4,11.8 C25.1,13 25.3,14.2 25.9,15.2 C26.6,16.3 27.8,17 29.1,17.2 C29.3,17.2 29.4,17.2 29.6,17.2 C31.8,17.2 33.8,15.7 34.3,13.6 C34.6,12.5 34.8,11 34.6,9.3 L34.7,9.2 C35.7,8.6 36.4,7.7 36.7,6.6 C37.1,5.4 36.9,4 36.3,3 C35.5,1.8 34.1,1 32.6,1 C31.7,1 30.8,1.3 30,1.8 L29.9,1.9 C28.6,0.8 26.7,0.3 24.8,0.3 Z" id="Shape" class="fill-primary"></path>
            </g>
            <path d="M125.8,75.3 C117.4,68.6 107.8,66.4 100.5,70.4 L90.2,76.1 C90.2,76.1 90.2,76.1 90.2,76.1 C79,82.3 77.4,100.9 86.7,117.6 C95.9,134.3 112.5,142.8 123.7,136.6 L134.1,130.8 C142.7,125.9 145.6,113.7 142.1,100.6" id="Shape" class="stroke-primary" stroke-width="3" stroke-linecap="round" stroke-linejoin="round"></path>
            <path d="M140.7,96.4 C146.1,111 143.6,125.5 133.9,130.9 C122.7,137.1 106.1,128.6 96.9,111.9 C87.6,95.2 89.2,76.7 100.4,70.4 C108.6,65.9 119.7,69.2 128.6,77.8" id="Shape" class="stroke-primary" stroke-width="3" stroke-linecap="round" stroke-linejoin="round"></path>
            <path d="M134.4,84.5 C135.1,85.4 135.7,86.4 136.3,87.4" id="Shape" class="stroke-primary" stroke-width="3" stroke-linecap="round" stroke-linejoin="round"></path>
            <g id="Group" transform="translate(102.000000, 78.000000)" fill-rule="nonzero">
                <path d="M25.8,43.4 C24.6,43.4 23.4,42.7 22.7,41.5 L21.9,40.1 C21.2,40.2 20.5,40.3 19.8,40.3 C18.6,40.3 17.4,40.1 16.2,39.7 C14.5,39.2 13.4,37.3 13.7,35.5 C13.9,34.5 14.4,33.7 15.2,33.2 C15.6,33 16.1,32.8 16.6,32.8 C16.9,32.8 17.3,32.9 17.6,33 C18.2,33.2 18.7,33.3 19.3,33.3 C20.1,33.3 20.8,33.1 21.5,32.7 C23.9,31.4 23.7,29.2 22.9,27.7 C22.2,26.4 21.3,25.9 19.7,25.9 C18.8,25.9 17.7,26.1 16.5,26.2 C15.2,26.4 13.8,26.6 12.3,26.6 C8.2,26.6 5.3,24.8 3.2,21 C0.6,16.3 1,11.4 4.3,8.1 L3.5,6.7 C3.1,5.9 2.9,5 3.1,4.2 C3.3,3.3 3.8,2.5 4.6,2.1 C5,1.9 5.5,1.7 6,1.7 C7.2,1.7 8.4,2.4 9.1,3.6 L9.8,4.9 C10.8,4.7 11.7,4.5 12.7,4.5 C14.6,4.5 16.2,5 17.2,5.3 C18.7,5.9 19.7,7.6 19.5,9.2 C19.4,10.2 18.8,11.1 18,11.6 C17.6,11.8 17.1,12 16.6,12 C16.2,12 15.9,11.9 15.5,11.8 C14.7,11.5 14,11.4 13.2,11.4 C12.2,11.4 11.2,11.7 10.3,12.2 C8,13.5 7.5,15.4 8.8,17.8 C9.5,19.1 10.4,19.6 12,19.6 C12.9,19.6 14,19.4 15.2,19.3 C16.6,19.1 17.9,18.9 19.4,18.9 C23.5,18.9 26.4,20.7 28.5,24.5 C30.9,28.7 30.3,33.7 27.3,36.9 L28.1,38.3 C29,40 28.6,42.1 27,43 C26.9,43.3 26.4,43.4 25.8,43.4 Z" id="Shape" class="fill-neutral"></path>
                <path d="M6.1,3.4 C6.8,3.4 7.5,3.8 7.9,4.5 L9.2,6.9 C10.5,6.4 11.7,6.2 12.8,6.2 C14.5,6.2 15.9,6.6 16.8,6.9 C17.7,7.2 18.3,8.3 18.2,9.2 C18.1,9.7 17.9,10.2 17.4,10.4 C17.2,10.5 16.9,10.6 16.7,10.6 C16.5,10.6 16.3,10.6 16.1,10.5 C15.3,10.2 14.4,10 13.3,10 C12.2,10 10.9,10.3 9.6,11 C6.6,12.7 5.8,15.5 7.5,18.6 C8.6,20.6 10.2,21.1 12,21.1 C13.1,21.1 14.2,20.9 15.4,20.7 C16.7,20.5 18,20.3 19.4,20.3 C22.2,20.3 25.1,21.2 27.2,25.1 C29.4,29.1 28.7,33.8 25.5,36.5 L26.8,38.9 C27.3,39.9 27.1,41.1 26.3,41.5 C26.1,41.6 25.8,41.7 25.6,41.7 C24.9,41.7 24.2,41.3 23.8,40.6 L22.5,38.2 C21.5,38.5 20.6,38.6 19.7,38.6 C18.5,38.6 17.4,38.4 16.5,38.1 C15.5,37.8 14.8,36.7 15,35.6 C15.1,35 15.4,34.6 15.8,34.4 C16,34.3 16.3,34.2 16.5,34.2 C16.7,34.2 16.8,34.2 17,34.3 C17.6,34.5 18.3,34.6 19.1,34.6 C20,34.6 21,34.4 22,33.8 C25.1,32.1 25.2,29 24,26.8 C22.9,24.8 21.3,24.3 19.5,24.3 C18.4,24.3 17.3,24.5 16.1,24.7 C14.8,24.9 13.5,25.1 12.1,25.1 C9.3,25.1 6.4,24.2 4.3,20.3 C1.8,15.8 2.5,11.3 6,8.4 L4.7,6 C4.2,5 4.4,3.8 5.2,3.4 C5.6,3.4 5.9,3.4 6.1,3.4 Z M6.1,0.4 C5.3,0.4 4.6,0.6 3.9,1 C1.6,2.3 0.9,5.3 2.2,7.7 L2.5,8.2 C-0.5,12 -0.8,17.1 1.9,22 C4.3,26.3 7.7,28.4 12.4,28.4 C14,28.4 15.5,28.2 16.8,28 C17.9,27.8 18.9,27.7 19.8,27.7 C21,27.7 21.3,28 21.7,28.7 C22,29.3 22.6,30.7 20.9,31.6 C20.4,31.9 19.9,32 19.4,32 C19,32 18.6,31.9 18.2,31.8 C17.7,31.7 17.3,31.6 16.8,31.6 C16,31.6 15.3,31.8 14.6,32.2 C13.4,32.9 12.6,34.1 12.3,35.5 C11.9,38 13.4,40.6 15.9,41.3 C17.2,41.7 18.6,41.9 19.9,41.9 C20.3,41.9 20.7,41.9 21.1,41.8 L21.4,42.3 C22.3,44 24,45 25.8,45 C26.6,45 27.3,44.8 28,44.4 C29.2,43.8 30,42.6 30.3,41.2 C30.5,40 30.3,38.8 29.7,37.7 L29.4,37.2 C32.2,33.5 32.6,28.4 30.1,23.9 C27.7,19.6 24.3,17.5 19.6,17.5 C18,17.5 16.5,17.7 15.2,17.9 C14.1,18.1 13.1,18.2 12.2,18.2 C11,18.2 10.7,17.9 10.3,17.2 C10,16.6 9.6,15.8 9.8,15.1 C10,14.4 10.6,14 11.2,13.7 C11.9,13.3 12.6,13.1 13.4,13.1 C14,13.1 14.6,13.2 15.1,13.4 C15.6,13.6 16.1,13.7 16.7,13.7 C17.5,13.7 18.2,13.5 18.9,13.1 C20.2,12.4 21,11.1 21.2,9.6 C21.5,7.3 20.1,4.9 17.9,4.1 C16.8,3.7 15,3.2 12.8,3.2 C12.1,3.2 11.4,3.3 10.6,3.4 L10.4,3.1 C9.6,1.4 7.9,0.4 6.1,0.4 Z" id="Shape" class="fill-primary"></path>
            </g>
        </g>
    </g>
</svg>