<?xml version="1.0" encoding="UTF-8"?>
<svg width="150px" height="126px" viewBox="0 0 150 126" version="1.1" xmlns="http://www.w3.org/2000/svg" xmlns:xlink="http://www.w3.org/1999/xlink">
    <!-- Generator: Sketch 51.2 (57519) - http://www.bohemiancoding.com/sketch -->
    <title>Coins</title>
    <desc>Created with Sketch.</desc>
    <defs></defs>
    <g id="Page-1" stroke="none" stroke-width="1" fill="none" fill-rule="evenodd">
        <g id="Coins" transform="translate(1.000000, 1.000000)">
            <path d="M147.1,15.5 C147.1,7.3 125.5,0.7 98.8,0.7 C72.1,0.7 50.5,7.3 50.5,15.5 C50.5,15.6 50.5,15.7 50.5,15.8 L50.5,93.9 C50.7,97.2 54.3,100.2 60.4,102.6 C60.4,102.6 60.4,102.6 60.4,102.6 C60.9,102.8 61.3,103 61.8,103.1 C61.8,103.1 61.9,103.1 61.9,103.1 C62.4,103.3 62.8,103.4 63.3,103.6 C63.3,103.6 63.4,103.6 63.4,103.6 C63.9,103.8 64.4,103.9 64.9,104.1 C65,104.1 65,104.1 65.1,104.2 C65.6,104.3 66.1,104.5 66.6,104.6 C66.7,104.6 66.8,104.6 66.8,104.7 C67.3,104.8 67.8,105 68.3,105.1 C68.4,105.1 68.5,105.1 68.6,105.2 C69.1,105.3 69.6,105.4 70.1,105.6 C70.2,105.6 70.4,105.7 70.5,105.7 C71,105.8 71.5,105.9 72,106 C72.2,106 72.3,106.1 72.5,106.1 C73,106.2 73.5,106.3 74,106.4 C74.2,106.4 74.4,106.5 74.6,106.5 C75.1,106.6 75.6,106.7 76,106.8 C76.2,106.8 76.4,106.9 76.7,106.9 C77.2,107 77.6,107 78.1,107.1 C78.3,107.1 78.6,107.2 78.8,107.2 C79.3,107.3 79.7,107.3 80.2,107.4 C80.5,107.4 80.8,107.5 81,107.5 C81.4,107.6 81.9,107.6 82.3,107.7 C82.6,107.7 82.9,107.8 83.2,107.8 C83.6,107.8 84.1,107.9 84.5,107.9 C84.8,107.9 85.2,108 85.5,108 C85.9,108 86.3,108.1 86.7,108.1 C87.1,108.1 87.4,108.2 87.8,108.2 C88.2,108.2 88.6,108.3 89,108.3 C89.4,108.3 89.8,108.3 90.2,108.4 C90.6,108.4 91,108.4 91.3,108.5 C91.8,108.5 92.2,108.5 92.7,108.6 C93,108.6 93.4,108.6 93.7,108.6 C94.2,108.6 94.8,108.6 95.3,108.6 C95.6,108.6 95.9,108.6 96.1,108.6 C96.9,108.6 97.7,108.6 98.6,108.6 C99.4,108.6 100.3,108.6 101.1,108.6 C101.4,108.6 101.6,108.6 101.9,108.6 C102.4,108.6 103,108.6 103.5,108.6 C103.8,108.6 104.2,108.6 104.5,108.6 C105,108.6 105.4,108.6 105.9,108.5 C106.3,108.5 106.7,108.5 107,108.4 C107.4,108.4 107.8,108.4 108.2,108.3 C108.6,108.3 109,108.2 109.4,108.2 C109.8,108.2 110.2,108.1 110.5,108.1 C110.9,108.1 111.3,108 111.7,108 C112,108 112.4,107.9 112.7,107.9 C113.1,107.9 113.5,107.8 114,107.8 C114.3,107.8 114.6,107.7 115,107.7 C115.4,107.7 115.9,107.6 116.3,107.5 C116.6,107.5 116.9,107.4 117.1,107.4 C117.6,107.3 118,107.3 118.5,107.2 C118.7,107.2 119,107.1 119.2,107.1 C119.7,107 120.1,107 120.6,106.9 C120.8,106.9 121.1,106.8 121.3,106.8 C121.8,106.7 122.2,106.6 122.7,106.6 C122.9,106.6 123.1,106.5 123.3,106.5 C123.8,106.4 124.3,106.3 124.8,106.2 C125,106.2 125.1,106.1 125.3,106.1 C125.8,106 126.3,105.9 126.8,105.8 C126.9,105.8 127.1,105.7 127.2,105.7 C127.7,105.6 128.2,105.5 128.7,105.4 C128.8,105.4 128.9,105.3 129,105.3 C129.5,105.2 130,105 130.5,104.9 C130.6,104.9 130.7,104.9 130.8,104.8 C131.3,104.7 131.8,104.5 132.3,104.4 C132.4,104.4 132.4,104.4 132.5,104.3 C133,104.2 133.5,104 133.9,103.8 C133.9,103.8 134,103.8 134.1,103.8 C134.6,103.6 135,103.5 135.5,103.3 C135.5,103.3 135.6,103.3 135.6,103.3 C136.1,103.1 136.5,103 137,102.8 C137,102.8 137,102.8 137.1,102.8 C137.6,102.6 138,102.4 138.4,102.2 C138.4,102.2 138.4,102.2 138.4,102.2 C143.6,99.9 146.7,97.1 146.9,94.1 L146.9,16 C147.1,15.6 147.1,15.6 147.1,15.5 Z" id="Shape" class="fill-neutral" fill-rule="nonzero"></path>
            <path d="M147.1,15.7 L147.1,93.8 C147.1,97.4 141.9,100.4 138.6,101.9 C127.2,107 109.1,108.8 92.4,108.1 C70.7,107.2 51.1,101.9 50.7,93.8 L50.7,15.7 C50.7,15.6 50.7,15.5 50.7,15.4 C50.7,7.2 72.3,0.6 99,0.6 C125.7,0.6 147.3,7.2 147.3,15.4 C147.1,15.6 147.1,15.6 147.1,15.7 Z" id="Shape" class="fill-primary-200" fill-rule="nonzero"></path>
            <path d="M101.9,80.1 C101.9,90.7 98.3,100.4 92.3,108.1 C70.6,107.2 51,101.9 50.6,93.8 L50.6,34.7 C52.5,34.5 54.3,34.4 56.2,34.4 C81.5,34.4 101.9,54.9 101.9,80.1 Z" id="Shape" fill="#8AC0FF" fill-rule="nonzero"></path>
            <path d="M147.1,31.1 C147.1,39.3 125.5,45.9 98.8,45.9 C72.1,45.9 50.5,39.3 50.5,31.1" id="Shape" class="stroke-primary" stroke-width="3" stroke-linecap="round" stroke-linejoin="round"></path>
            <path d="M147.1,46.7 C147.1,54.9 125.5,61.5 98.8,61.5 C72.2,61.5 50.6,54.9 50.5,46.7" id="Shape" class="stroke-primary" stroke-width="3" stroke-linecap="round" stroke-linejoin="round"></path>
            <path d="M147.1,62.3 C147.1,70.5 125.5,77.1 98.8,77.1 C72.6,77.1 51.2,70.7 50.6,62.7" id="Shape" class="stroke-primary" stroke-width="3" stroke-linecap="round" stroke-linejoin="round"></path>
            <path d="M147,78.6 C145.8,86.4 124.7,92.7 98.8,92.7 C72.1,92.7 50.5,86.1 50.5,77.9" id="Shape" class="stroke-primary" stroke-width="3" stroke-linecap="round" stroke-linejoin="round"></path>
            <path d="M147.1,15.5 C147.1,7.3 125.5,0.7 98.8,0.7 C72.1,0.7 50.5,7.3 50.5,15.5 C50.5,15.6 50.5,15.7 50.5,15.8 L50.5,93.9 C51.1,103.3 76.1,107 85.5,107.8 C116.2,110.5 147,103.3 147,93.9 L147,15.8 C147.1,15.6 147.1,15.6 147.1,15.5 Z" id="Shape" class="stroke-primary" stroke-width="3" stroke-linecap="round" stroke-linejoin="round"></path>
            <ellipse id="Oval" class="fill-neutral" fill-rule="nonzero" cx="98.8" cy="15.5" rx="48.3" ry="14.8"></ellipse>
            <ellipse id="Oval" class="fill-primary-100" fill-rule="nonzero" cx="98.8" cy="17.1" rx="42.9" ry="13.2"></ellipse>
            <path d="M113.9,29.5 C113.1,29.6 112.2,29.7 111.3,29.7" id="Shape" class="stroke-primary" stroke-width="3" stroke-linecap="round" stroke-linejoin="round"></path>
            <path d="M98.5,30.2 C72,30.2 50.5,23.6 50.5,15.4 C50.5,7.2 72.1,0.6 98.8,0.6 C125.5,0.6 147.1,7.2 147.1,15.4 C147.1,20.8 137.8,25.5 123.9,28" id="Shape" class="stroke-primary" stroke-width="3" stroke-linecap="round" stroke-linejoin="round"></path>
            <circle id="Oval" class="fill-neutral" fill-rule="nonzero" cx="46.6" cy="77.3" r="45.7"></circle>
            <path d="M9.9,78 C9.9,77.8 9.9,77.5 9.9,77.3 C9.9,73.1 10.6,69.2 11.9,65.4" id="Shape" class="stroke-primary-300" stroke-width="3" stroke-linecap="round" stroke-linejoin="round"></path>
            <path d="M17.1,99.2 C14.5,95.7 12.5,91.7 11.3,87.3" id="Shape" class="stroke-primary-300" stroke-width="3" stroke-linecap="round" stroke-linejoin="round"></path>
            <path d="M24.4,106.5 C23.6,105.9 22.8,105.3 22.1,104.6" id="Shape" class="stroke-primary-300" stroke-width="3" stroke-linecap="round" stroke-linejoin="round"></path>
            <path d="M80.2,92.1 C76.2,101.1 68.8,108.2 59.5,111.7" id="Shape" class="stroke-primary-300" stroke-width="3" stroke-linecap="round" stroke-linejoin="round"></path>
            <path d="M56.9,42.1 C69.2,45.7 78.8,55.5 82.1,67.9" id="Shape" class="stroke-primary-300" stroke-width="3" stroke-linecap="round" stroke-linejoin="round"></path>
            <path d="M45.4,100.3 L45.4,96.2 C42.8,96.2 40.2,95.5 38.2,94.6 C37.2,94.1 36.8,93 37.1,92 C37.5,90.9 38.8,90.3 39.9,90.8 C41.7,91.6 44,92.2 46.3,92.2 C50.4,92.2 53.2,89.8 53.2,86.5 C53.2,83.3 50.9,81.3 46.6,79.6 C40.7,77.3 37,74.6 37,69.6 C37,64.8 40.4,61.1 45.8,60.3 L45.8,56.2 C45.8,55.2 46.6,54.4 47.6,54.4 C48.6,54.4 49.4,55.2 49.4,56.2 L49.4,60 C51.8,60.1 53.7,60.6 55.2,61.2 C56.2,61.6 56.7,62.8 56.3,63.8 C55.9,64.9 54.7,65.4 53.6,65 C52.3,64.5 50.5,64 48.2,64 C43.7,64 42,66.7 42,69 C42,72 44.1,73.5 49.2,75.6 C55.2,78 58.2,81.1 58.2,86.2 C58.2,90.8 55,95.1 49,96.1 L49,100.3 C49,101.3 48.2,102.1 47.2,102.1 L47.1,102.1 C46.2,102.1 45.4,101.3 45.4,100.3 Z" id="Shape" class="fill-primary" fill-rule="nonzero"></path>
            <path d="M83.3,50.1 C88.9,57.7 92.3,67.1 92.3,77.3 C92.3,102.6 71.8,123 46.6,123 C21.3,123 0.9,102.5 0.9,77.3 C0.9,76.1 0.9,75 1,73.8" id="Shape" class="stroke-primary" stroke-width="3" stroke-linecap="round" stroke-linejoin="round"></path>
            <path d="M2.3,65.9 C7.4,46.1 25.3,31.5 46.6,31.5 C56.3,31.5 65.3,34.5 72.7,39.7" id="Shape" class="stroke-primary" stroke-width="3" stroke-linecap="round" stroke-linejoin="round"></path>
        </g>
    </g>
</svg>