<?xml version="1.0" encoding="UTF-8"?>
<svg width="150px" height="136px" viewBox="0 0 150 136" version="1.1" xmlns="http://www.w3.org/2000/svg" xmlns:xlink="http://www.w3.org/1999/xlink">
    <!-- Generator: Sketch 51.2 (57519) - http://www.bohemiancoding.com/sketch -->
    <title>Compose_Email</title>
    <desc>Created with Sketch.</desc>
    <defs></defs>
    <g id="Page-1" stroke="none" stroke-width="1" fill="none" fill-rule="evenodd">
        <g id="Compose_Email" transform="translate(1.000000, 1.000000)">
            <path d="M91.3,16 L80.3,5.7 C78.8,4.3 76.5,4.3 75,5.7 L64.1,15.9" id="Shape" class="fill-neutral" fill-rule="nonzero"></path>
            <path d="M87.2,16 L79.5,8.8 C78.4,7.8 76.8,7.8 75.8,8.8 L68.1,16" id="Shape" class="fill-primary-500" fill-rule="nonzero"></path>
            <path d="M39.3,39 L24.8,52.5 L24.8,112.9 C24.8,114.3 26,115.5 27.4,115.5 L127.8,115.5 C129.2,115.5 130.4,114.3 130.4,112.9 L130.4,52.5 L116,39" id="Shape" class="fill-neutral" fill-rule="nonzero"></path>
            <path d="M41.1,42.5 L25.3,57.4 L25.3,114.1 C25.3,115.5 26.4,115.6 27.8,115.6 L127.5,115.6 C128.9,115.6 130,114.5 130,113.1 L130,57.4 L114.2,42.5" id="Shape" class="fill-primary-500" fill-rule="nonzero"></path>
            <path d="M130,52.9 L130,113.1 C130,114.2 129.3,115.1 128.4,115.4 C128.1,115.5 127.8,115.6 127.5,115.6 L27.8,115.6 C26.4,115.6 25.3,115.5 25.3,114.1 L25.3,54.6 L28,54.9 L76.2,84.8 L126.8,54.5 L130,52.9 Z" id="Shape" class="fill-primary-200" fill-rule="nonzero"></path>
            <path d="M128.4,88.2 L128.4,115.4 C128.1,115.5 127.8,115.6 127.5,115.6 L97,115.6 C96.4,113.6 96.1,111.5 96.1,109.3 C96.1,96.6 106.4,86.3 119.1,86.3 C122.5,86.3 125.6,87 128.4,88.2 Z" id="Shape" class="fill-primary-300" fill-rule="nonzero"></path>
            <path d="M116,22.2 L116,61.3 L76.5,84.9 L39.4,61.6 L39.4,22.3 C39.4,18.8 42.2,16 45.7,16 L109.8,16 C113.1,15.9 116,18.8 116,22.2 Z" id="Shape" fill="#E3EFFF" fill-rule="nonzero"></path>
            <path d="M116,22.2 L116,55.3 L76.5,78.9 L39.4,55.6 L39.4,22.2 C39.4,18.7 42.2,15.9 45.7,15.9 L109.8,15.9 C113.1,15.9 116,18.8 116,22.2 Z" id="Shape" class="fill-neutral" fill-rule="nonzero"></path>
            <path d="M91.3,16 L80.3,5.7 C78.8,4.3 76.5,4.3 75,5.7 L64.1,15.9" id="Shape" class="stroke-primary" stroke-width="3" stroke-linecap="round" stroke-linejoin="round"></path>
            <path d="M39.3,39 L24.8,52.5 L24.8,112.9 C24.8,114.3 26,115.5 27.4,115.5 L127.8,115.5 C129.2,115.5 130.4,114.3 130.4,112.9 L130.4,52.5 L116,39" id="Shape" class="stroke-primary" stroke-width="3" stroke-linecap="round" stroke-linejoin="round"></path>
            <path d="M105,120.9 C102.6,117.3 101.2,112.9 101.2,108.3 C101.2,95.6 111.5,85.3 124.2,85.3 C136.9,85.3 147.2,95.6 147.2,108.3 C147.2,121 136.9,131.3 124.2,131.3 C116.2,131.3 109.1,127.2 105,120.9" id="Shape" class="fill-primary-500" fill-rule="nonzero"></path>
            <path d="M102.4,115.6 C102.3,115.4 102.3,115.2 102.2,115 C101.6,112.9 101.2,110.7 101.2,108.4 C101.2,103.3 102.9,98.6 105.7,94.7" id="Shape" class="stroke-primary" stroke-width="3" stroke-linecap="round" stroke-linejoin="round"></path>
            <path d="M120.8,85.6 C121.9,85.4 123,85.4 124.2,85.4 C136.9,85.4 147.2,95.7 147.2,108.4 C147.2,121.1 136.9,131.4 124.2,131.4 C117.1,131.4 110.7,128.2 106.5,123.1" id="Shape" class="stroke-primary" stroke-width="3" stroke-linecap="round" stroke-linejoin="round"></path>
            <path d="M111.1,89.5 C111.5,89.2 111.9,89 112.3,88.7" id="Shape" class="stroke-primary" stroke-width="3" stroke-linecap="round" stroke-linejoin="round"></path>
            <g id="Group" transform="translate(109.000000, 96.000000)" fill-rule="nonzero">
                <path d="M18.4,22.8 C17.4,22.8 16.5,22.4 15.8,21.7 C14.4,20.3 14.4,18 15.8,16.5 L16.3,16 L5.2,16 C3.2,16 1.5,14.4 1.5,12.3 C1.5,10.3 3.1,8.6 5.2,8.6 L16.3,8.6 L15.8,8.1 C15.1,7.4 14.7,6.5 14.7,5.5 C14.7,4.5 15.1,3.6 15.8,2.9 C16.5,2.2 17.4,1.8 18.4,1.8 C19.4,1.8 20.3,2.2 21,2.9 L27.8,9.7 C28.5,10.4 28.9,11.3 28.9,12.3 C28.9,13.3 28.5,14.2 27.8,14.9 L21,21.7 C20.3,22.4 19.3,22.8 18.4,22.8 Z" id="Shape" class="fill-neutral"></path>
                <path d="M18.4,3.4 C19,3.4 19.5,3.6 19.9,4 L26.7,10.8 C27.1,11.2 27.3,11.8 27.3,12.3 C27.3,12.8 27.1,13.4 26.7,13.8 L19.9,20.6 C19.5,21 18.9,21.2 18.4,21.2 C17.8,21.2 17.3,21 16.9,20.6 C16.1,19.8 16.1,18.4 16.9,17.5 L20,14.4 L5.3,14.4 C4.1,14.4 3.1,13.4 3.1,12.2 C3.1,11 4.1,10 5.3,10 L20,10 L16.9,6.9 C16.1,6.1 16.1,4.7 16.9,3.8 C17.3,3.6 17.8,3.4 18.4,3.4 Z M18.4,0.4 C17,0.4 15.7,0.9 14.8,1.9 C13.9,2.9 13.3,4.2 13.3,5.5 C13.3,6.1 13.4,6.6 13.6,7.1 L5.4,7.1 C2.6,7.1 0.2,9.4 0.2,12.3 C0.2,15.2 2.5,17.5 5.4,17.5 L13.6,17.5 C13.4,18 13.3,18.6 13.3,19.1 C13.3,20.5 13.8,21.8 14.8,22.7 C15.8,23.7 17.1,24.2 18.4,24.2 C19.8,24.2 21.1,23.7 22,22.7 L28.8,15.9 C29.8,14.9 30.3,13.6 30.3,12.3 C30.3,10.9 29.8,9.6 28.8,8.7 L22,1.9 C21,0.9 19.7,0.4 18.4,0.4 Z" id="Shape" class="fill-primary"></path>
            </g>
            <path d="M70,80.7 L24.9,52.6" id="Shape" class="stroke-primary" stroke-width="3" stroke-linecap="round" stroke-linejoin="round"></path>
            <path d="M52.6,99.6 L130.4,52.6" id="Shape" class="stroke-primary" stroke-width="3" stroke-linecap="round" stroke-linejoin="round"></path>
            <path d="M43.6,105 L46.3,103.3" id="Shape" class="stroke-primary" stroke-width="3" stroke-linecap="round" stroke-linejoin="round"></path>
            <path d="M64,16 L109.6,16 C113.1,16 115.9,18.8 115.9,22.3 L115.9,61.4" id="Shape" class="stroke-primary" stroke-width="3" stroke-linecap="round" stroke-linejoin="round"></path>
            <path d="M39.3,61.6 L39.3,22.3 C39.3,18.8 42.1,16 45.6,16 L55.4,16" id="Shape" class="stroke-primary" stroke-width="3" stroke-linecap="round" stroke-linejoin="round"></path>
            <path d="M114.3,9.1 L114.3,0.6" id="Shape" class="stroke-primary" stroke-width="3" stroke-linecap="round" stroke-linejoin="round"></path>
            <path d="M122.8,21.1 L131.3,21.1" id="Shape" class="stroke-primary" stroke-width="3" stroke-linecap="round" stroke-linejoin="round"></path>
            <path d="M120.6,13.9 L126.6,7.8" id="Shape" class="stroke-primary" stroke-width="3" stroke-linecap="round" stroke-linejoin="round"></path>
            <path d="M51.2,31.3 L102.3,31.3" id="Shape" class="stroke-primary" stroke-width="3" stroke-linecap="round" stroke-linejoin="round"></path>
            <path d="M51.2,44.9 L80.2,44.9" id="Shape" class="stroke-primary" stroke-width="3" stroke-linecap="round" stroke-linejoin="round"></path>
            <g id="Group" transform="translate(3.000000, 84.000000)" class="stroke-primary-300" stroke-linecap="round" stroke-linejoin="round" stroke-width="3">
                <path d="M0.7,0.6 L0.7,1.1" id="Shape"></path>
                <path d="M0.7,8.2 L0.7,42.8 C0.7,46.5 3.7,49.4 7.3,49.4 L56.6,49.4" id="Shape" stroke-dasharray="1.0191,7.1334"></path>
                <path d="M60.2,49.4 L60.7,49.4" id="Shape"></path>
            </g>
            <circle id="Oval" class="stroke-primary-300" stroke-width="3" class="fill-neutral" fill-rule="nonzero" stroke-linecap="round" stroke-linejoin="round" cx="3.7" cy="83.7" r="3.1"></circle>
        </g>
    </g>
</svg>