<?xml version="1.0" encoding="UTF-8"?>
<svg width="149px" height="131px" viewBox="0 0 149 131" version="1.1" xmlns="http://www.w3.org/2000/svg" xmlns:xlink="http://www.w3.org/1999/xlink">
    <!-- Generator: Sketch 51.2 (57519) - http://www.bohemiancoding.com/sketch -->
    <title>Coupon_3</title>
    <desc>Created with Sketch.</desc>
    <defs></defs>
    <g id="Page-1" stroke="none" stroke-width="1" fill="none" fill-rule="evenodd">
        <g id="Coupon_3" transform="translate(1.000000, 1.000000)">
            <path d="M141.4,55.3 L141.4,118.1 C141.4,121.3 139.2,123.9 136.4,123.9 L51.8,123.9 C48.3,123.9 45.6,121.1 45.6,117.6 L45.4,56.3 L85.5,55.3 L141.4,55.3 Z" id="Shape" class="fill-primary-100" fill-rule="nonzero"></path>
            <path d="M124.5,76 L69.3,48.2 L124.5,20.4 C125.6,19.9 125.5,18.3 124.3,17.9 L113.8,14.5 C107.8,12.6 101.3,13.1 95.7,15.9 L50.4,38.6 C50.3,38.6 44.5,35.6 40.4,33.6 C39,32.9 38.2,31.6 38,30.1 C37.9,29.4 38,28.7 38.3,28 C38.4,27.8 38.5,27.6 38.6,27.3 C42,18.3 38.3,7.7 29.4,3.1 C19.7,-2 7.7,1.8 2.7,11.6 C1.7,13.6 1.1,15.7 0.8,17.8 C-0.3,25.9 3.8,34 11.4,37.9 L31.5,48 L26.8,50.4 L11.4,58.1 C11.1,58.2 10.8,58.4 10.6,58.5 C1.5,63.6 -2,75 2.7,84.4 C7.6,94.1 19.3,98 29,93.1 C38.4,88.4 42.2,77.3 38.3,68 C37.4,65.9 38.3,63.5 40.3,62.5 C44.4,60.4 50.3,57.4 50.3,57.4 L54.1,59.3 L95.6,80.1 C101.2,82.9 107.7,83.4 113.7,81.5 L121.6,79 L124.2,78.2 C125.5,78.1 125.6,76.5 124.5,76 Z M27.9,24.4 C25.8,28.6 20.7,30.3 16.4,28.2 C12.2,26.1 10.5,20.9 12.6,16.7 C14.7,12.5 19.9,10.8 24.1,12.9 C28.3,15.1 30,20.2 27.9,24.4 Z M24.1,83.5 C19.9,85.6 14.8,83.9 12.6,79.7 C10.5,75.5 12.2,70.4 16.4,68.2 C20.6,66 25.7,67.8 27.9,72 C30,76.2 28.3,81.4 24.1,83.5 Z" id="Shape" class="fill-neutral" fill-rule="nonzero"></path>
            <g id="Group" transform="translate(38.000000, 47.000000)" class="stroke-primary" stroke-linecap="round" stroke-linejoin="round" stroke-width="3">
                <path d="M0.5,54.2 L0.5,60.2" id="Shape"></path>
                <path d="M0.5,72.6 L0.5,75 C0.5,78.3 2.9,81 5.8,81 L6.9,81 L102.4,81 C105.3,81 107.7,78.3 107.7,75 L107.7,9.3 L107.7,6.9 C107.7,3.6 105.3,0.9 102.4,0.9 L54.6,0.9" id="Shape" stroke-dasharray="12.3837,12.3837"></path>
                <path d="M48.4,0.9 L42.4,0.9" id="Shape"></path>
            </g>
            <path d="M40.4,62.7 C55.9,54.9 112.1,26.7 122.8,21.3 L114.9,18.8 C108.9,16.9 102.4,17.4 96.8,20.2 L12.5,62.5 C12.2,62.6 11.9,62.8 11.7,62.9 C4.6,66.9 0.9,74.8 1.9,82.6 C2.1,83.3 2.4,83.9 2.8,84.6 C7.8,94.5 20.1,98.4 29.9,92.9 C37.1,88.9 40.7,80.9 39.7,73.2 C39.6,73 39.5,72.8 39.4,72.5 C39.1,71.8 39,71.1 39.1,70.4 C38.9,69.7 38.7,69 38.4,68.3 C37.5,66.2 38.3,63.8 40.4,62.7 Z M28.8,76.4 C28.8,76.6 28.8,76.7 28.7,76.9 C28.7,77 28.7,77.2 28.6,77.3 C28.6,77.4 28.6,77.6 28.5,77.7 C28.4,78 28.3,78.4 28.2,78.7 C28.1,78.9 28.1,79 28,79.2 C27.5,80.3 26.8,81.3 25.9,82.1 C25.8,82.2 25.6,82.3 25.5,82.4 C25.4,82.5 25.2,82.6 25,82.8 C24.7,83 24.3,83.2 23.9,83.4 C23.6,83.6 23.3,83.7 23,83.8 C22.9,83.9 22.7,83.9 22.6,83.9 C22.4,84 22.2,84 22,84 C21.8,84 21.7,84.1 21.5,84.1 C21.4,84.1 21.2,84.2 21.1,84.2 C20.6,84.3 20.1,84.3 19.6,84.2 C19.5,84.2 19.4,84.2 19.3,84.2 C19.2,84.2 19,84.2 18.9,84.2 C18.8,84.2 18.6,84.2 18.5,84.1 C18.3,84.1 18.2,84 18,84 C17.9,84 17.7,83.9 17.6,83.9 C17.4,83.8 17.2,83.8 17,83.7 C16.8,83.6 16.7,83.6 16.5,83.5 C16.2,83.4 15.9,83.2 15.6,83 C15.2,82.8 14.9,82.5 14.5,82.2 C14.4,82.1 14.3,82 14.2,81.9 C14.1,81.8 13.9,81.6 13.8,81.5 C13.7,81.4 13.5,81.2 13.4,81.1 C13.2,80.9 13.1,80.7 12.9,80.4 C12.8,80.3 12.8,80.2 12.7,80.1 C12.7,80.1 12.7,80 12.6,80 C12.5,79.8 12.4,79.7 12.3,79.5 C12.2,79.4 12.2,79.3 12.1,79.2 C12,79.1 12,78.9 11.9,78.8 C11.8,78.6 11.7,78.3 11.7,78.1 C11.7,78 11.7,78 11.6,77.9 C11.6,77.8 11.5,77.6 11.5,77.5 C11.5,77.3 11.4,77.1 11.4,76.9 C11.3,76.3 11.3,75.6 11.3,75 C11.3,74.8 11.4,74.6 11.4,74.3 C11.4,74.1 11.5,73.9 11.5,73.6 C11.6,73.4 11.6,73.2 11.7,73 C11.8,72.8 11.8,72.6 11.9,72.4 C12,72.2 12.1,72 12.2,71.8 C12.4,71.4 12.6,71 12.9,70.7 C13.2,70.3 13.4,70 13.8,69.7 C14,69.5 14.1,69.4 14.3,69.2 C14.5,69.1 14.6,68.9 14.8,68.8 C14.8,68.8 14.9,68.7 14.9,68.7 C15.1,68.5 15.4,68.4 15.6,68.2 C15.9,68 16.2,67.9 16.5,67.8 C16.8,67.7 17.1,67.6 17.4,67.5 C17.4,67.5 17.4,67.5 17.5,67.5 C17.7,67.4 17.9,67.4 18,67.4 C18.2,67.3 18.4,67.3 18.6,67.3 C18.8,67.3 19,67.2 19.2,67.2 C19.2,67.2 19.2,67.2 19.3,67.2 C19.5,67.2 19.7,67.2 19.9,67.2 C20.2,67.2 20.4,67.2 20.7,67.2 C20.8,67.2 21,67.2 21.1,67.2 C21.2,67.2 21.4,67.2 21.5,67.3 C21.7,67.3 21.8,67.4 22,67.4 C22.1,67.4 22.3,67.5 22.4,67.5 C22.5,67.5 22.5,67.5 22.6,67.6 C22.7,67.6 22.9,67.7 23,67.7 C23.2,67.8 23.3,67.8 23.5,67.9 C23.7,68 23.8,68 24,68.1 C24.2,68.2 24.3,68.3 24.5,68.4 C25.1,68.8 25.6,69.2 26.1,69.7 C26.2,69.8 26.3,69.9 26.4,70 C26.6,70.2 26.8,70.5 27,70.8 C27.1,70.9 27.2,71 27.2,71.2 C27.3,71.3 27.3,71.4 27.4,71.5 C27.5,71.6 27.6,71.8 27.6,71.9 C27.6,72 27.7,72.1 27.7,72.2 C27.8,72.4 27.8,72.5 27.9,72.7 C28.1,73.1 28.2,73.5 28.3,73.9 C28.3,74 28.3,74.1 28.4,74.2 C28.4,74.3 28.5,74.5 28.5,74.6 C28.5,74.8 28.5,75 28.6,75.1 C28.6,75.3 28.6,75.5 28.6,75.7 C28.6,75.9 28.8,76.2 28.8,76.4 Z" id="Shape" class="fill-primary-300" fill-rule="nonzero"></path>
            <path d="M39.3,37.9 C37.3,36.9 36.4,34.4 37.3,32.4 C37.6,31.7 37.8,31 38,30.2 C38.3,29.3 38.4,28.4 38.6,27.5 C39.7,19.6 35.8,11.4 28.3,7.5 C18.6,2.4 6.6,6.3 1.7,16 C1.4,16.7 1.1,17.3 0.8,18 C-0.3,26.1 3.8,34.2 11.4,38.1 L31.5,48.2 L45.6,41.1 C43.8,40.1 41.4,38.9 39.3,37.9 Z M22.3,28.9 C22.1,28.9 21.9,29 21.7,29 L22.3,28.9 Z M21.8,29 C20,29.3 18.2,29.1 16.4,28.2 C12.2,26.1 10.5,20.9 12.6,16.7 C14.7,12.5 19.9,10.8 24.1,12.9 C28.3,15 30,20.2 27.9,24.4 C26.7,26.7 24.7,28.3 22.3,28.8 L21.8,29 Z M68.2,52.4 L54.2,59.6 L95.7,80.4 C101.3,83.2 107.8,83.7 113.8,81.8 L121.7,79.3 L68.2,52.4 Z" id="Shape" class="fill-primary-300" fill-rule="nonzero"></path>
            <path d="M4,64.9 C0.6,70 -0.3,76.6 1.9,82.6 C2.1,83.3 2.4,83.9 2.8,84.6 C7.8,94.5 20.1,98.4 29.9,92.9 C37.1,88.9 40.7,80.9 39.7,73.2 C39.6,72.3 39.4,71.4 39.1,70.5 C38.9,69.8 38.7,69.1 38.4,68.4 C37.5,66.3 38.4,63.9 40.4,62.8 C55.9,55 112.1,26.8 122.8,21.4 C123.9,20.8 124.6,20.5 124.6,20.5 C125.7,20 125.6,18.4 124.4,18 L113.9,14.6 C107.9,12.7 101.4,13.2 95.8,16 L11.5,58.3 C11.3,58.4 11.2,58.5 11,58.5 M16.1,68.4 C16.2,68.3 16.3,68.3 16.4,68.2 C16.5,68.1 16.7,68.1 16.9,68 C17.2,67.9 17.5,67.8 17.8,67.7 C17.8,67.7 17.8,67.7 17.9,67.7 C18.1,67.6 18.3,67.6 18.4,67.6 C18.6,67.5 18.8,67.5 19,67.5 C19.2,67.5 19.4,67.4 19.6,67.4 C19.6,67.4 19.6,67.4 19.7,67.4 C19.9,67.4 20.1,67.4 20.3,67.4 C20.6,67.4 20.8,67.4 21.1,67.4 C21.2,67.4 21.4,67.4 21.5,67.4 C21.6,67.4 21.8,67.4 21.9,67.5 C22.1,67.5 22.2,67.6 22.4,67.6 C22.5,67.6 22.7,67.7 22.8,67.7 C22.9,67.7 22.9,67.7 23,67.8 C23.1,67.8 23.3,67.9 23.4,67.9 C23.6,68 23.7,68 23.9,68.1 C24.1,68.2 24.2,68.2 24.4,68.3 C24.6,68.4 24.7,68.5 24.9,68.6 C25.5,69 26,69.4 26.5,69.9 C26.6,70 26.7,70.1 26.8,70.2 C27,70.4 27.2,70.7 27.4,71 C27.5,71.1 27.6,71.2 27.6,71.4 C27.7,71.5 27.7,71.6 27.8,71.7 C27.9,71.8 28,72 28,72.1 C28,72.2 28.1,72.3 28.1,72.4 C28.2,72.6 28.2,72.7 28.3,72.9 C28.5,73.3 28.6,73.7 28.7,74.1 C28.7,74.2 28.7,74.3 28.8,74.4 C28.8,74.5 28.9,74.7 28.9,74.8 C28.9,75 28.9,75.2 29,75.3 C29,75.5 29,75.7 29,75.9 C29,76.1 29,76.3 29,76.5 C29,76.7 29,76.8 28.9,77 C28.9,77.1 28.9,77.3 28.8,77.4 C28.8,77.5 28.8,77.7 28.7,77.8 C28.6,78.1 28.5,78.5 28.4,78.8 C28.3,79 28.3,79.1 28.2,79.3 C27.7,80.4 27,81.4 26.1,82.2 C26,82.3 25.9,82.4 25.7,82.5 C25.6,82.6 25.4,82.7 25.2,82.9 C24.9,83.1 24.5,83.3 24.1,83.5 C23.8,83.7 23.5,83.8 23.2,83.9 C22.9,84 22.6,84.1 22.2,84.2 C22,84.2 21.9,84.3 21.7,84.3 C21.6,84.3 21.4,84.4 21.3,84.4 C20.8,84.5 20.3,84.5 19.8,84.4 C19.7,84.4 19.6,84.4 19.5,84.4 C19.4,84.4 19.2,84.4 19.1,84.4 C19,84.4 18.8,84.4 18.7,84.3 C18.5,84.3 18.4,84.2 18.2,84.2 C18.1,84.2 17.9,84.1 17.8,84.1 C17.6,84 17.4,84 17.2,83.9 C17,83.8 16.9,83.8 16.7,83.7 C16.4,83.6 16.1,83.4 15.8,83.2 C15.4,83 15.1,82.7 14.7,82.4 C14.6,82.3 14.5,82.2 14.4,82.1 C14.3,82 14.1,81.8 14,81.7 C13.9,81.6 13.7,81.4 13.6,81.3 C13.4,81 13.1,80.7 12.9,80.4 C12.9,80.4 12.9,80.3 12.8,80.3 C12.7,80.1 12.6,80 12.5,79.8 C12.4,79.7 12.4,79.6 12.3,79.5 C12.2,79.4 12.2,79.2 12.1,79.1 C12,78.9 11.9,78.6 11.9,78.4 C11.9,78.3 11.9,78.3 11.8,78.2 C11.8,78.1 11.7,77.9 11.7,77.8 C11.6,77.6 11.6,77.4 11.6,77.2 C11.5,76.8 11.5,76.4 11.5,76" id="Shape" class="stroke-primary" stroke-width="3" stroke-linecap="round" stroke-linejoin="round"></path>
            <path d="M50.6,57.8 L95.7,80.5 C101.3,83.3 107.8,83.8 113.8,81.9 L124.3,78.5 C125.5,78.1 125.6,76.5 124.5,76 L78.8,53 M9.7,4.1 C6.8,5.9 4.4,8.5 2.8,11.8 C-1.9,21.2 1.6,32.6 10.7,37.7 C11.3,38 9.9,37.3 31.7,48.3 M16.1,1.4 C16,1.4 15.9,1.4 15.8,1.5 M41.3,34.2 C41,34 40.7,33.9 40.4,33.7 C38.4,32.7 37.5,30.3 38.4,28.1 C42.2,18.9 38.5,8 29.4,3.2 C26.9,1.9 24.2,1.2 21.5,1 M46,36.5 C46,36.5 45.9,36.5 45.9,36.4 M21.8,29 C21.7,29 21.6,29 21.5,29 M15.6,27.7 C12,25.4 10.7,20.6 12.7,16.7 C14.8,12.5 20,10.8 24.2,12.9 C28.4,15 30.1,20.2 28,24.4 C27.3,25.9 26.1,27.1 24.8,27.9" id="Shape" class="stroke-primary" stroke-width="3" stroke-linecap="round" stroke-linejoin="round"></path>
        </g>
    </g>
</svg>