<?xml version="1.0" encoding="UTF-8"?>
<svg width="146px" height="97px" viewBox="0 0 146 97" version="1.1" xmlns="http://www.w3.org/2000/svg" xmlns:xlink="http://www.w3.org/1999/xlink">
    <!-- Generator: Sketch 51.2 (57519) - http://www.bohemiancoding.com/sketch -->
    <title>Credit_Card</title>
    <desc>Created with Sketch.</desc>
    <defs></defs>
    <g id="Page-1" stroke="none" stroke-width="1" fill="none" fill-rule="evenodd">
        <g id="Credit_Card" transform="translate(2.000000, 2.000000)">
            <path d="M135,92.6 L7.2,92.6 C3.2,92.6 0,89.4 0,85.4 L0,7.2 C0,3.2 3.2,-2.27373675e-13 7.2,-2.27373675e-13 L135,-2.27373675e-13 C139,-2.27373675e-13 142.2,3.2 142.2,7.2 L142.2,85.4 C142.2,89.4 139,92.6 135,92.6 Z" id="Shape" class="fill-neutral" fill-rule="nonzero"></path>
            <path d="M142.2,12.2 L142.2,85.9 C142.2,89.6 139.2,92.6 135.5,92.6 L12.7,92.6 C9,92.6 6,89.6 6,85.9 L6,12.2 C6,8.5 9,5.4 12.7,5.4 L135.5,5.4 C139.2,5.4 142.2,8.4 142.2,12.2 Z" id="Shape" class="fill-primary-100" fill-rule="nonzero"></path>
            <rect id="Rectangle-path" fill="#87BDFF" fill-rule="nonzero" x="5.9" y="19.6" width="136.7" height="17.2"></rect>
            <path d="M0.1,45.6 L0.1,9.4 C0.1,4.3 4.2,0.2 9.3,0.2 L13,0.2" id="Shape" class="stroke-primary" stroke-width="3" stroke-linecap="round" stroke-linejoin="round"></path>
            <path d="M42.1,0.2 L132.9,0.2 C138,0.2 142.1,4.3 142.1,9.4 L142.1,83.4 C142.1,88.5 138,92.6 132.9,92.6 L9.3,92.6 C4.2,92.6 0.1,88.5 0.1,83.4 L0.1,61.4" id="Shape" class="stroke-primary" stroke-width="3" stroke-linecap="round" stroke-linejoin="round"></path>
            <path d="M22.5,0.2 L26.5,0.2" id="Shape" class="stroke-primary" stroke-width="3" stroke-linecap="round" stroke-linejoin="round"></path>
            <g id="Group" transform="translate(98.000000, 64.000000)">
                <circle id="Oval" fill="#87BDFF" fill-rule="nonzero" cx="23.4" cy="10.2" r="9.4"></circle>
                <path d="M16.4,16.2 C14.7,18.1 12.3,19.2 9.6,19.2 C4.5,19.2 0.4,15.1 0.4,10 C0.4,4.9 4.5,0.8 9.6,0.8 C10.8,0.8 11.9,1 12.9,1.4" id="Shape" class="stroke-primary" stroke-width="3" stroke-linecap="round" stroke-linejoin="round"></path>
                <path d="M31.8,13.4 C30.4,16.8 27.1,19.2 23.2,19.2 C18.1,19.2 14,15.1 14,10 C14,7 15.4,4.3 17.7,2.6" id="Shape" class="stroke-primary" stroke-width="3" stroke-linecap="round" stroke-linejoin="round"></path>
                <path d="M21.7,0.9 C22.2,0.8 22.7,0.8 23.2,0.8 C28,0.8 31.9,4.4 32.4,9" id="Shape" class="stroke-primary" stroke-width="3" stroke-linecap="round" stroke-linejoin="round"></path>
            </g>
            <path d="M68.3,64.2 L81.4,64.2" id="Shape" class="stroke-primary" stroke-width="3" stroke-linecap="round" stroke-linejoin="round"></path>
            <path d="M17.6,64.2 L61.3,64.2" id="Shape" class="stroke-primary" stroke-width="3" stroke-linecap="round" stroke-linejoin="round"></path>
            <path d="M17.6,74.3 L37.2,74.3" id="Shape" class="stroke-primary" stroke-width="3" stroke-linecap="round" stroke-linejoin="round"></path>
            <path d="M140.1,19.7 C112.5,19.7 29.1,19.7 6.5,19.7" id="Shape" class="stroke-primary" stroke-width="3" stroke-linecap="round" stroke-linejoin="round"></path>
            <path d="M16.2,36.4 C6.8,36.4 0.9,36.4 0.9,36.4" id="Shape" class="stroke-primary" stroke-width="3" stroke-linecap="round" stroke-linejoin="round"></path>
            <path d="M141.4,36.4 L140.1,36.4 C118.4,36.4 62.4,36.4 28.4,36.4" id="Shape" class="stroke-primary" stroke-width="3" stroke-linecap="round" stroke-linejoin="round"></path>
            <path d="M99.5,29.7 L141.3,29.7" id="Shape" class="stroke-primary" stroke-width="3" stroke-linecap="round" stroke-linejoin="round"></path>
            <path d="M83.1,29.7 L92.6,29.7" id="Shape" class="stroke-primary" stroke-width="3" stroke-linecap="round" stroke-linejoin="round"></path>
        </g>
    </g>
</svg>