<?xml version="1.0" encoding="UTF-8"?>
<svg width="115px" height="146px" viewBox="0 0 115 146" version="1.1" xmlns="http://www.w3.org/2000/svg" xmlns:xlink="http://www.w3.org/1999/xlink">
    <!-- Generator: Sketch 51.2 (57519) - http://www.bohemiancoding.com/sketch -->
    <title>Currency_Up</title>
    <desc>Created with Sketch.</desc>
    <defs></defs>
    <g id="Page-1" stroke="none" stroke-width="1" fill="none" fill-rule="evenodd">
        <g id="Currency_Up" transform="translate(2.000000, 2.000000)">
            <path d="M78.4,55.8 L78.4,31 L70,30.9 C68.7,30.9 67.9,29.4 68.7,28.3 L87.8,1.5 C88.8,0.1 91,0.1 92,1.5 L110.8,28.4 C111.6,29.5 110.8,31 109.4,31 L102.8,31 L102.8,89.2" id="Shape" class="fill-neutral" fill-rule="nonzero"></path>
            <path d="M78.4,55.8 L78.4,31 L70,30.9 C68.7,30.9 67.9,29.4 68.7,28.3 L87.8,1.5 C88.8,0.1 91,0.1 92,1.5 L110.8,28.4 C111.6,29.5 110.8,31 109.4,31 L102.8,31 L102.8,89.2" id="Shape" class="fill-primary-500" fill-rule="nonzero"></path>
            <path d="M102.9,60.1 L102.9,68" id="Shape" class="stroke-primary" stroke-width="3" stroke-linecap="round" stroke-linejoin="round"></path>
            <path d="M78.4,36.9 L78.4,30.9 L70,30.8 C68.7,30.8 67.9,29.3 68.7,28.2 L87.8,1.4 C88.8,0 91,0 92,1.4 L110.8,28.3 C111.6,29.4 110.8,30.9 109.4,30.9 L102.8,30.9 L102.8,52.5" id="Shape" class="stroke-primary" stroke-width="3" stroke-linecap="round" stroke-linejoin="round"></path>
            <g id="Group" transform="translate(0.000000, 39.000000)">
                <circle id="Oval" class="fill-neutral" fill-rule="nonzero" cx="51.5" cy="51.6" r="51.2"></circle>
                <circle id="Oval" fill="#C4E0FF" fill-rule="nonzero" cx="53.1" cy="53.2" r="49.6"></circle>
                <g transform="translate(36.000000, 23.000000)" fill-rule="nonzero" id="Shape">
                    <path d="M14.5,55.4 C12.6,55.4 11.1,53.9 11.1,52 L11.1,49.1 C8.7,48.9 6.2,48.3 4.2,47.3 C2.5,46.5 1.6,44.5 2.3,42.7 C2.8,41.2 4.2,40.2 5.8,40.2 C6.3,40.2 6.8,40.3 7.3,40.5 C8.7,41.1 10.9,41.9 13.5,41.9 C17,41.9 19.4,40.1 19.4,37.3 C19.4,35.5 18.7,33.5 13.3,31.3 C7.5,29 2.1,26 2.1,19.2 C2.1,13.7 5.7,9.4 11.5,8 L11.5,4.9 C11.5,3 13,1.5 14.9,1.5 C16.8,1.5 18.3,3 18.3,4.9 L18.3,7.6 C20.2,7.8 22,8.2 23.5,8.9 C25.3,9.6 26.2,11.7 25.5,13.6 C25,15 23.6,16 22.1,16 C21.6,16 21.1,15.9 20.7,15.7 C19.1,15 17.3,14.7 15.5,14.7 C11.8,14.7 10.4,16.7 10.4,18.5 C10.4,20.5 11.4,21.8 17.2,24.2 C22.1,26.2 27.7,29.5 27.7,36.9 C27.7,42.6 23.8,47.2 17.9,48.7 L17.9,52 C18,53.9 16.5,55.4 14.5,55.4 Z" class="fill-neutral"></path>
                    <path d="M15,3 C16.1,3 16.9,3.9 16.9,4.9 L16.9,9 C19.5,9.1 21.5,9.6 23.1,10.2 C24.2,10.6 24.7,11.9 24.3,13 C24,13.9 23.1,14.4 22.3,14.4 C22,14.4 21.7,14.3 21.5,14.2 C20.1,13.6 18.2,13.1 15.7,13.1 C10.9,13.1 9.1,16 9.1,18.4 C9.1,21.6 11.4,23.2 16.8,25.5 C23.2,28.1 26.4,31.3 26.4,36.8 C26.4,41.7 23,46.3 16.6,47.3 L16.6,51.8 C16.6,52.9 15.7,53.7 14.7,53.7 L14.6,53.7 C13.5,53.7 12.7,52.8 12.7,51.8 L12.7,47.5 C9.9,47.5 7.1,46.8 5,45.8 C4,45.3 3.5,44.1 3.9,43.1 C4.2,42.2 5.1,41.7 5.9,41.7 C6.2,41.7 6.5,41.8 6.8,41.9 C8.8,42.8 11.1,43.4 13.6,43.4 C18,43.4 21,40.9 21,37.3 C21,33.9 18.6,31.8 14,29.9 C7.7,27.4 3.8,24.6 3.8,19.2 C3.8,14.1 7.5,10.2 13.2,9.2 L13.2,4.9 C13,3.9 13.9,3 15,3 Z M15,0 C12.3,0 10.1,2.2 10.1,4.9 L10.1,6.9 C4.4,8.8 0.7,13.5 0.7,19.2 C0.7,26.9 6.8,30.4 12.8,32.7 C17.5,34.6 17.9,36.1 17.9,37.3 C17.9,39.6 15.5,40.4 13.5,40.4 C11.1,40.4 9.1,39.7 7.9,39.2 C7.2,38.9 6.5,38.7 5.7,38.7 C3.5,38.7 1.6,40.1 0.8,42.1 C-0.1,44.7 1,47.4 3.5,48.6 C5.3,49.4 7.4,50 9.5,50.4 L9.5,52 C9.5,54.7 11.7,56.9 14.4,56.9 L14.5,56.9 C17.2,56.9 19.4,54.7 19.4,52 L19.4,49.8 C25.3,47.9 29.2,43 29.2,36.9 C29.2,28.5 23.1,25 17.7,22.8 C12.3,20.6 11.9,19.6 11.9,18.5 C11.9,17 13.2,16.2 15.5,16.2 C17.2,16.2 18.7,16.5 20.1,17.1 C20.7,17.4 21.4,17.5 22.1,17.5 C24.3,17.5 26.2,16.2 26.9,14.2 C27.9,11.6 26.6,8.6 24.1,7.6 C22.8,7.1 21.3,6.7 19.8,6.4 L19.8,5 C19.9,2.3 17.7,0 15,0 Z" class="fill-primary"></path>
                </g>
                <path d="M13.5,55.9 C13.4,54.5 13.3,53.2 13.3,51.8 C13.3,30.9 30.3,13.9 51.2,13.9 C58.4,13.9 65.1,15.9 70.8,19.4" id="Shape" class="stroke-primary" stroke-width="3" stroke-linecap="round" stroke-linejoin="round"></path>
                <path d="M89,53.2 C88.2,73.4 71.6,89.6 51.1,89.6 C40.9,89.6 31.7,85.6 24.9,79.1" id="Shape" class="stroke-primary" stroke-width="3" stroke-linecap="round" stroke-linejoin="round"></path>
                <path d="M59.3,1 C83.9,4.8 102.7,26 102.7,51.6 C102.7,79.9 79.8,102.8 51.5,102.8 C23.2,102.8 0.3,79.9 0.3,51.6 C0.3,33.8 9.4,18.1 23.2,8.9" id="Shape" class="stroke-primary" stroke-width="3" stroke-linecap="round" stroke-linejoin="round"></path>
                <path d="M33.4,3.7 C35.1,3.1 36.8,2.5 38.5,2.1" id="Shape" class="stroke-primary" stroke-width="3" stroke-linecap="round" stroke-linejoin="round"></path>
            </g>
        </g>
    </g>
</svg>