<?xml version="1.0" encoding="UTF-8"?>
<svg width="147px" height="124px" viewBox="0 0 147 124" version="1.1" xmlns="http://www.w3.org/2000/svg" xmlns:xlink="http://www.w3.org/1999/xlink">
    <!-- Generator: Sketch 51.2 (57519) - http://www.bohemiancoding.com/sketch -->
    <title>Database</title>
    <desc>Created with Sketch.</desc>
    <defs></defs>
    <g id="Page-1" stroke="none" stroke-width="1" fill="none" fill-rule="evenodd">
        <g id="Database" transform="translate(1.000000, 2.000000)">
            <path d="M104.5,98.6 C126.4,98 143.8,90.8 143.8,82.1 C143.8,77.5 143.8,69.5 143.8,61.4 C143.8,61.4 143.8,61.4 143.8,61.4 C143.8,53.4 143.8,45.4 143.8,40.8 C143.8,32 126.5,24.9 104.5,24.3 C104.5,31.7 104.5,91.5 104.5,98.6 Z" id="Shape" class="fill-primary-200" fill-rule="nonzero"></path>
            <path d="M0.8,53.1 L0.8,21.9 C0.8,10 23.3,0.4 51,0.4 C78.7,0.4 101.2,10 101.2,21.9 L101.2,99.1 C101.2,111 78.7,120.6 51,120.6 C30.7,120.6 13.3,115.5 5.3,108.1 C2.4,105.4 0.7,102.3 0.7,99.1 L0.7,68.2" id="Shape" class="fill-neutral" fill-rule="nonzero"></path>
            <path d="M101.3,26.4 L101.3,99.1 C101.3,111 78.8,120.6 51.1,120.6 C30.8,120.6 13.4,115.5 5.4,108.1 L5.4,26.5 C5.4,15.2 26.9,6 53.4,6 C79.8,5.9 101.3,15.1 101.3,26.4 Z" id="Shape" class="fill-primary-300" fill-rule="nonzero"></path>
            <path d="M101.3,26.4 L101.3,27.4 C93.2,36.8 74.1,43.5 51.8,43.5 C32,43.5 14.8,38.3 5.5,30.6 L5.5,26.5 C5.5,15.2 27,6 53.5,6 C79.8,5.9 101.3,15.1 101.3,26.4 Z" id="Shape" class="fill-primary-100" fill-rule="nonzero"></path>
            <path d="M93.8,10.6 C98.6,13.9 101.3,17.8 101.3,21.9 C101.3,33.8 78.8,43.4 51.1,43.4 C36.5,43.4 23.3,40.7 14.1,36.5" id="Shape" class="stroke-primary" stroke-width="3" stroke-linecap="round" stroke-linejoin="round"></path>
            <path d="M84.8,6 C84.9,6 85.1,6.1 85.2,6.1" id="Shape" class="stroke-primary" stroke-width="3" stroke-linecap="round" stroke-linejoin="round"></path>
            <path d="M0.8,21.6 C1.1,9.8 23.5,0.3 51,0.3 C61.5,0.3 71.2,1.7 79.2,4" id="Shape" class="stroke-primary" stroke-width="3" stroke-linecap="round" stroke-linejoin="round"></path>
            <path d="M7.5,32.7 C6.5,31.9 5.6,31.2 4.8,30.4" id="Shape" class="stroke-primary" stroke-width="3" stroke-linecap="round" stroke-linejoin="round"></path>
            <path d="M101.3,72.1 C101.3,84 78.8,93.6 51.1,93.6 C23.4,93.6 0.9,84 0.9,72.1" id="Shape" class="stroke-primary" stroke-width="3" stroke-linecap="round" stroke-linejoin="round"></path>
            <path d="M44.5,68.4 C19.9,67 0.9,58 0.9,47.1" id="Shape" class="stroke-primary" stroke-width="3" stroke-linecap="round" stroke-linejoin="round"></path>
            <path d="M85.9,62.5 C78.1,65.7 67.9,67.9 56.6,68.4" id="Shape" class="stroke-primary" stroke-width="3" stroke-linecap="round" stroke-linejoin="round"></path>
            <path d="M101.3,47 C101.3,51.1 98.6,54.9 94,58.2" id="Shape" class="stroke-primary" stroke-width="3" stroke-linecap="round" stroke-linejoin="round"></path>
            <path d="M35.6,119.5 C40.5,120.2 45.7,120.5 51.1,120.5 C78.8,120.5 101.3,110.9 101.3,99 C101.3,88.1 101.3,43.6 101.3,26.3 C101.3,24.5 101.3,22.9 101.3,21.8" id="Shape" class="stroke-primary" stroke-width="3" stroke-linecap="round" stroke-linejoin="round"></path>
            <path d="M18.9,115.6 C20,116 21.1,116.4 22.3,116.7" id="Shape" class="stroke-primary" stroke-width="3" stroke-linecap="round" stroke-linejoin="round"></path>
            <path d="M0.8,66.9 L0.8,99 C0.8,102.2 2.4,105.3 5.4,108 C7.4,109.9 10,111.6 13.2,113.1" id="Shape" class="stroke-primary" stroke-width="3" stroke-linecap="round" stroke-linejoin="round"></path>
            <path d="M0.8,21.9 L0.8,46.4" id="Shape" class="stroke-primary" stroke-width="3" stroke-linecap="round" stroke-linejoin="round"></path>
            <path d="M140.1,30.4 C142.5,32.6 143.8,35.1 143.8,37.7 C143.8,46.9 127.1,54.5 105.9,55.1" id="Shape" class="stroke-primary-400" stroke-width="3" stroke-linecap="round" stroke-linejoin="round"></path>
            <path d="M134.8,26.7 C135.2,26.9 135.6,27.1 136,27.3" id="Shape" class="stroke-primary-400" stroke-width="3" stroke-linecap="round" stroke-linejoin="round"></path>
            <path d="M106,20.3 C114.9,20.6 123,22.1 129.4,24.4" id="Shape" class="stroke-primary-400" stroke-width="3" stroke-linecap="round" stroke-linejoin="round"></path>
            <path d="M106,76.8 C127.1,76.2 143.8,68.6 143.9,59.4 C143.9,59.4 143.9,59.4 143.9,59.4" id="Shape" class="stroke-primary-400" stroke-width="3" stroke-linecap="round" stroke-linejoin="round"></path>
            <path d="M143.8,38 C143.8,37.9 143.8,37.8 143.8,37.7" id="Shape" class="stroke-primary-400" stroke-width="3" stroke-linecap="round" stroke-linejoin="round"></path>
            <path d="M106,98.6 C127.1,98 143.9,90.4 143.9,81.2 C143.9,76.3 143.9,67.9 143.9,59.4 C143.9,59.4 143.9,59.4 143.9,59.4 C143.9,57.6 143.9,55.8 143.9,54 L143.9,50.1" id="Shape" class="stroke-primary-400" stroke-width="3" stroke-linecap="round" stroke-linejoin="round"></path>
            <ellipse id="Oval" class="fill-primary-500" fill-rule="nonzero" transform="translate(23.217540, 52.517080) rotate(-75.977653) translate(-23.217540, -52.517080) " cx="23.21754" cy="52.51708" rx="3.59999519" ry="6.29999159"></ellipse>
            <ellipse id="Oval" class="fill-primary-500" fill-rule="nonzero" transform="translate(23.197560, 77.633410) rotate(-75.977653) translate(-23.197560, -77.633410) " cx="23.19756" cy="77.63341" rx="3.59999519" ry="6.29999159"></ellipse>
            <ellipse id="Oval" class="fill-primary-500" fill-rule="nonzero" transform="translate(23.182140, 104.545380) rotate(-75.977653) translate(-23.182140, -104.545380) " cx="23.18214" cy="104.54538" rx="3.59999519" ry="6.29999159"></ellipse>
        </g>
    </g>
</svg>