<?xml version="1.0" encoding="UTF-8"?>
<svg width="151px" height="88px" viewBox="0 0 151 88" version="1.1" xmlns="http://www.w3.org/2000/svg" xmlns:xlink="http://www.w3.org/1999/xlink">
    <!-- Generator: Sketch 51.2 (57519) - http://www.bohemiancoding.com/sketch -->
    <title>Delivery_2</title>
    <desc>Created with Sketch.</desc>
    <defs></defs>
    <g id="Page-1" stroke="none" stroke-width="1" fill="none" fill-rule="evenodd">
        <g id="Delivery_2" transform="translate(1.000000, 1.000000)">
            <g id="Group" transform="translate(0.000000, 3.000000)">
                <path d="M91.1,41.2 L91.1,69.1 L14,69.1 L14,49.2 C14,49 14,48.7 14,48.5 C14.4,45.4 17,43 20.2,43 L29.8,43 L29.8,4.7 C29.8,2.5 31.6,0.7 33.8,0.7 L61.5,0.7 C62.9,0.7 64.2,1.4 64.9,2.6 L91.1,41.2 Z" id="Shape" class="fill-primary-200" fill-rule="nonzero"></path>
                <path d="M91.1,41.2 L91.1,48.5 L14,48.5 C14.4,45.4 17,43 20.2,43 L29.8,43 L29.8,4.7 C29.8,2.5 31.6,0.7 33.8,0.7 L61.5,0.7 C62.9,0.7 64.2,1.4 64.9,2.6 L91.1,41.2 Z" id="Shape" class="fill-primary-100" fill-rule="nonzero"></path>
                <path d="M38.5,69 L14,69 L14,49.1 C14,45.7 16.8,42.9 20.2,42.9 L29.8,42.9 L29.8,4.6 C29.8,2.4 31.6,0.6 33.8,0.6" id="Shape" class="stroke-primary" stroke-width="3" stroke-linecap="round" stroke-linejoin="round"></path>
                <path d="M57.4,0.7 L61.4,0.7 C62.8,0.7 64.1,1.4 64.8,2.6 L91.1,41.1 L91.1,69 L49.7,69" id="Shape" class="stroke-primary" stroke-width="3" stroke-linecap="round" stroke-linejoin="round"></path>
                <path d="M41.8,0.7 L46.2,0.7" id="Shape" class="stroke-primary" stroke-width="3" stroke-linecap="round" stroke-linejoin="round"></path>
                <g transform="translate(0.000000, 82.000000)" id="Shape" class="stroke-primary-300" stroke-linecap="round" stroke-linejoin="round" stroke-width="3">
                    <path d="M2.1,0.4 L0.9,0.4"></path>
                    <path d="M54.3,0.4 L9.5,0.4"></path>
                    <path d="M140.4,0.4 L60.1,0.4"></path>
                    <path d="M147.9,0.4 L145.8,0.4"></path>
                </g>
                <circle id="Oval" stroke-width="3" class="stroke-primary fill-primary-400" fill-rule="nonzero" stroke-linecap="round" stroke-linejoin="round" cx="76.6" cy="69.8" r="12"></circle>
                <circle id="Oval" stroke-width="3" class="stroke-primary fill-primary-400" fill-rule="nonzero" stroke-linecap="round" stroke-linejoin="round" cx="28.7" cy="69.8" r="12"></circle>
                <circle id="Oval" stroke-width="3" class="stroke-primary fill-primary-100" fill-rule="nonzero" stroke-linecap="round" stroke-linejoin="round" cx="28.7" cy="69.8" r="5.7"></circle>
                <circle id="Oval" stroke-width="3" class="stroke-primary fill-primary-100" fill-rule="nonzero" stroke-linecap="round" stroke-linejoin="round" cx="76.6" cy="69.8" r="5.7"></circle>
            </g>
            <polyline id="Shape" stroke-width="3" class="stroke-primary fill-neutral" fill-rule="nonzero" stroke-linecap="round" stroke-linejoin="round" points="75.6 36.8 81 44.6 38.1 45.3 38.1 11.8 58.8 11.8 70.7 29.4"></polyline>
            <polyline id="Shape" class="stroke-primary" stroke-width="3" stroke-linecap="round" stroke-linejoin="round" points="140.3 71.8 97.9 71.8 97.9 0.7"></polyline>
            <rect id="Rectangle-path" stroke-width="3" class="stroke-primary fill-primary-100" fill-rule="nonzero" stroke-linecap="round" stroke-linejoin="round" x="105.4" y="40.2" width="31" height="23.1"></rect>
            <rect id="Rectangle-path" stroke-width="3" class="stroke-primary fill-primary-100" fill-rule="nonzero" stroke-linecap="round" stroke-linejoin="round" x="105.4" y="9" width="31" height="23.1"></rect>
            <rect id="Rectangle-path" stroke-width="3" class="stroke-primary fill-neutral" fill-rule="nonzero" stroke-linecap="round" stroke-linejoin="round" x="117.9" y="9" width="5.3" height="7.9"></rect>
            <rect id="Rectangle-path" stroke-width="3" class="stroke-primary fill-neutral" fill-rule="nonzero" stroke-linecap="round" stroke-linejoin="round" x="118" y="40.2" width="5.3" height="7.9"></rect>
        </g>
    </g>
</svg>