<?xml version="1.0" encoding="UTF-8"?>
<svg width="150px" height="118px" viewBox="0 0 150 118" version="1.1" xmlns="http://www.w3.org/2000/svg" xmlns:xlink="http://www.w3.org/1999/xlink">
    <!-- Generator: Sketch 51.2 (57519) - http://www.bohemiancoding.com/sketch -->
    <title>Delivery_3</title>
    <desc>Created with Sketch.</desc>
    <defs></defs>
    <g id="Page-1" stroke="none" stroke-width="1" fill="none" fill-rule="evenodd">
        <g id="Delivery_3" transform="translate(2.000000, 2.000000)">
            <path d="M72.6,102.1 C70.8,102.1 69.1,100.9 68.7,99 L46.4,8.3 L38.4,8.3 C36.2,8.3 34.3,6.5 34.3,4.2 C34.3,1.9 36.1,0.1 38.4,0.1 L49.6,0.1 C51.5,0.1 53.1,1.4 53.5,3.2 L75.6,93.1 L141.1,77.9 C143.3,77.4 145.5,78.8 146,80.9 C146.5,83.1 145.1,85.3 143,85.8 L73.6,101.9 C73.2,102.1 72.9,102.1 72.6,102.1 Z" id="Shape" class="fill-neutral" fill-rule="nonzero"></path>
            <path d="M72.6,102.1 C70.8,102.1 69.1,100.9 68.7,99 L46.4,8.3 L38.4,8.3 C36.2,8.3 35.3,7.6 35.3,6.8 C35.3,5.1 36.6,4.3 38.8,4.3 L49.6,4.3 C51.5,4.3 53.1,5.6 53.5,7.4 L75.6,96.3 L141.1,81.1 C143.3,80.6 145.5,80.9 146,83.1 C146.5,85.3 145.1,85.4 143,85.9 L73.6,102 C73.2,102.1 72.9,102.1 72.6,102.1 Z" id="Shape" class="fill-primary-100" fill-rule="nonzero"></path>
            <path d="M41.2,8.3 L38.4,8.3 C36.2,8.3 34.3,6.5 34.3,4.2 C34.3,1.9 36.1,0.1 38.4,0.1 L49.6,0.1 C51.5,0.1 53.1,1.4 53.5,3.2 L59.8,28.9" id="Shape" class="stroke-primary" stroke-width="3" stroke-linecap="round" stroke-linejoin="round"></path>
            <path d="M70.5,72.4 L75.6,93.1 L141.1,77.9 C143.3,77.4 145.5,78.8 146,80.9 C146.5,83.1 145.1,85.3 143,85.8 L73.6,101.9 C73.3,102 73,102 72.7,102 C70.9,102 69.2,100.8 68.8,98.9 L46.5,8.2" id="Shape" class="stroke-primary" stroke-width="3" stroke-linecap="round" stroke-linejoin="round"></path>
            <path d="M62,37.6 L67.1,58.5" id="Shape" class="stroke-primary" stroke-width="3" stroke-linecap="round" stroke-linejoin="round"></path>
            <path d="M86.7,90.4 C87.9,92.6 88.5,95.2 88.5,97.9 C88.5,106.8 81.4,114 72.5,114 C63.6,114 56.5,106.8 56.5,97.9 C56.5,89 63.6,81.8 72.5,81.8 C76.1,81.8 79.3,83 82,84.9" id="Shape" class="fill-primary-400" fill-rule="nonzero"></path>
            <path d="M86.7,90.4 C87.9,92.6 88.5,95.2 88.5,97.9 C88.5,106.8 81.4,114 72.5,114 C63.6,114 56.5,106.8 56.5,97.9 C56.5,89 63.6,81.8 72.5,81.8 C76.1,81.8 79.3,83 82,84.9" id="Shape" class="stroke-primary" stroke-width="3" stroke-linecap="round" stroke-linejoin="round"></path>
            <circle id="Oval" stroke-width="3" class="stroke-primary fill-primary-100" fill-rule="nonzero" stroke-linecap="round" stroke-linejoin="round" cx="72.6" cy="97.9" r="8.9"></circle>
            <circle id="Oval" class="stroke-primary" stroke-width="3" stroke-linecap="round" stroke-linejoin="round" cx="72.6" cy="97.9" r="8.9"></circle>
            <path d="M5.2,25.4 L0.3,25.4" id="Shape" class="stroke-primary" stroke-width="3" stroke-linecap="round" stroke-linejoin="round"></path>
            <path d="M38.7,25.4 L13.8,25.4" id="Shape" class="stroke-primary" stroke-width="3" stroke-linecap="round" stroke-linejoin="round"></path>
            <path d="M40.2,39.5 L18.7,39.5" id="Shape" class="stroke-primary" stroke-width="3" stroke-linecap="round" stroke-linejoin="round"></path>
            <path d="M26.4,52.9 L13,52.9" id="Shape" class="stroke-primary" stroke-width="3" stroke-linecap="round" stroke-linejoin="round"></path>
            <path d="M43.1,52.9 L33.5,52.9" id="Shape" class="stroke-primary" stroke-width="3" stroke-linecap="round" stroke-linejoin="round"></path>
            <path d="M132.6,70.2 L89,80 C86.8,80.5 84.6,79.1 84.1,76.9 L74.3,33.3 C73.8,31.1 75.2,28.9 77.4,28.4 L121,18.6 C123.2,18.1 125.4,19.5 125.9,21.7 L135.7,65.3 C136.2,67.5 134.8,69.7 132.6,70.2 Z" id="Shape" class="fill-neutral" fill-rule="nonzero"></path>
            <path d="M130.3,70.7 L88.7,80 C86.6,80.5 84.6,79.2 84.1,77.1 L75.2,37.5 C74.7,35.4 76,33.4 78.1,32.9 L119.7,23.6 C121.8,23.1 123.8,24.4 124.3,26.5 L133.2,66.1 C133.7,68.2 132.4,70.2 130.3,70.7 Z" id="Shape" class="fill-primary-400" fill-rule="nonzero"></path>
            <path d="M132.6,70.2 L89,80 C86.8,80.5 84.6,79.1 84.1,76.9 L74.3,33.3 C73.8,31.1 75.2,28.9 77.4,28.4 L121,18.6 C123.2,18.1 125.4,19.5 125.9,21.7 L135.7,65.3 C136.2,67.5 134.8,69.7 132.6,70.2 Z" id="Shape" class="stroke-primary" stroke-width="3" stroke-linecap="round" stroke-linejoin="round"></path>
            <polyline id="Shape" class="fill-neutral" fill-rule="nonzero" points="109 27.7 111.4 38.3 94.6 42.1 90.8 25.3 107.6 21.5"></polyline>
            <polyline id="Shape" class="fill-primary-100" fill-rule="nonzero" points="109 27.7 111.4 38.3 94.6 42.1 90.8 25.3 107.6 21.5"></polyline>
            <polyline id="Shape" class="stroke-primary" stroke-width="3" stroke-linecap="round" stroke-linejoin="round" points="109 27.7 111.4 38.3 94.6 42.1 90.8 25.3 107.6 21.5"></polyline>
        </g>
    </g>
</svg>