<?xml version="1.0" encoding="UTF-8"?>
<svg width="149px" height="118px" viewBox="0 0 149 118" version="1.1" xmlns="http://www.w3.org/2000/svg" xmlns:xlink="http://www.w3.org/1999/xlink">
    <!-- Generator: Sketch 51.2 (57519) - http://www.bohemiancoding.com/sketch -->
    <title>Desktop_3</title>
    <desc>Created with Sketch.</desc>
    <defs></defs>
    <g id="Page-1" stroke="none" stroke-width="1" fill="none" fill-rule="evenodd">
        <g id="Desktop_3" transform="translate(2.000000, 1.000000)">
            <path d="M58.5,107.3 C61.3,103.6 61.8,98.1 61.9,93.6 L84.6,93.6 C84.7,98.2 85.2,103.6 88,107.3 L88.6,107.3 C90.2,107.3 91.4,108.6 91.4,110.1 L91.4,115 L53.6,115 L53.6,110.1 C53.6,108.5 54.9,107.3 56.4,107.3 L58.5,107.3 Z" id="Shape" fill="#C5E0FE" fill-rule="nonzero"></path>
            <polyline id="Shape" class="fill-neutral" fill-rule="nonzero" points="145.2 78.1 0.1 78.1 0.1 8.6 145.2 8.6"></polyline>
            <g id="Group">
                <path d="M145.2,10.1 L145.2,87.3 C145.2,90.7 142.4,93.5 138.9,93.5 L10.2,93.5 C6.7,93.5 3.9,90.7 3.9,87.3 L3.9,10.1 C3.9,9.6 4,9.1 4.1,8.6 C4.8,5.9 7.2,3.9 10.2,3.9 L138.9,3.9 C141.8,3.9 144.3,5.9 145,8.6 C145.1,9.1 145.2,9.6 145.2,10.1 Z" id="Shape" class="fill-primary-400" fill-rule="nonzero"></path>
                <path d="M145.2,8.6 L145.2,78.1 L4,78.1 L4,10.1 C4,9.6 4.1,9.1 4.2,8.6 L145.2,8.6 Z" id="Shape" class="fill-primary-100" fill-rule="nonzero"></path>
                <path d="M27.6,0.9 L138.7,0.9 C142.3,0.9 145.1,3.8 145.1,7.3 L145.1,87.1 C145.1,90.7 142.2,93.5 138.7,93.5 L6.5,93.5 C2.9,93.5 0.1,90.6 0.1,87.1 L0.1,7.3 C0.1,3.7 3,0.9 6.5,0.9 L16.4,0.9" id="Shape" class="stroke-primary" stroke-width="3" stroke-linecap="round" stroke-linejoin="round"></path>
                <path d="M22,0.9 L23,0.9" id="Shape" class="stroke-primary" stroke-width="3" fill="#58A3FF" fill-rule="nonzero" stroke-linecap="round" stroke-linejoin="round"></path>
                <path d="M42.2,8.6 L144.4,8.6" id="Shape" class="stroke-primary" stroke-width="3" fill="#58A3FF" fill-rule="nonzero" stroke-linecap="round" stroke-linejoin="round"></path>
                <path d="M7,8.6 L33.6,8.6" id="Shape" class="stroke-primary" stroke-width="3" fill="#58A3FF" fill-rule="nonzero" stroke-linecap="round" stroke-linejoin="round"></path>
                <path d="M130.3,78.1 L138.9,78.1" id="Shape" class="stroke-primary" stroke-width="3" fill="#58A3FF" fill-rule="nonzero" stroke-linecap="round" stroke-linejoin="round"></path>
                <path d="M33.6,78.1 L124.7,78.1" id="Shape" class="stroke-primary" stroke-width="3" fill="#58A3FF" fill-rule="nonzero" stroke-linecap="round" stroke-linejoin="round"></path>
                <path d="M0.5,78.1 L26.4,78.1" id="Shape" class="stroke-primary" stroke-width="3" fill="#58A3FF" fill-rule="nonzero" stroke-linecap="round" stroke-linejoin="round"></path>
                <circle id="Oval" class="stroke-primary" stroke-width="3" fill="#C5E0FE" fill-rule="nonzero" stroke-linecap="round" stroke-linejoin="round" cx="72.6" cy="86.3" r="3"></circle>
            </g>
            <g id="Group" transform="translate(53.000000, 93.000000)" class="stroke-primary" stroke-linecap="round" stroke-linejoin="round" stroke-width="3">
                <path d="M16.8,14.3 L35.8,14.3 C37.4,14.3 38.6,15.6 38.6,17.1 L38.6,22 L0.8,22 L0.8,17.1 C0.8,15.5 2.1,14.3 3.6,14.3 L9.2,14.3" id="Shape"></path>
                <path d="M31.7,0.6 C31.8,5.2 32.3,10.6 35.1,14.3" id="Shape"></path>
                <path d="M8.9,0.6 C8.8,5.2 8.3,10.6 5.5,14.3" id="Shape"></path>
            </g>
        </g>
    </g>
</svg>