<?xml version="1.0" encoding="UTF-8"?>
<svg width="151px" height="120px" viewBox="0 0 151 120" version="1.1" xmlns="http://www.w3.org/2000/svg" xmlns:xlink="http://www.w3.org/1999/xlink">
    <!-- Generator: Sketch 51.2 (57519) - http://www.bohemiancoding.com/sketch -->
    <title>Dollar_Bills</title>
    <desc>Created with Sketch.</desc>
    <defs></defs>
    <g id="Page-1" stroke="none" stroke-width="1" fill="none" fill-rule="evenodd">
        <g id="Dollar_Bills" transform="translate(2.000000, 2.000000)">
            <g id="Group">
                <g id="Shape">
                    <path d="M134.2,59.4 L28.9,96.6 C25.7,97.7 22.2,96.1 21,92.8 L5.4,48.8 C4.3,45.6 5.9,42.1 9.2,40.9 L114.5,3.7 C117.7,2.6 121.2,4.2 122.4,7.5 L138,51.5 C139.1,54.7 137.4,58.2 134.2,59.4 Z" class="fill-primary-200" fill-rule="nonzero"></path>
                    <path d="M134.2,59.4 L25.2,97.9 C22,99 18.5,97.4 17.3,94.1 L0.6,46.8 C-0.5,43.6 1.1,40.1 4.4,38.9 L113.4,0.4 C116.6,-0.7 120.1,0.9 121.3,4.2 L138,51.5 C139.1,54.7 137.4,58.2 134.2,59.4 Z" class="stroke-primary-400" stroke-width="3" stroke-linecap="round" stroke-linejoin="round"></path>
                </g>
                <path d="M32.2,86.8 C31.1,83.7 27.8,82.1 24.7,83.2 C23.3,79.1 14.6,54.7 13.2,50.8 C16.3,49.7 17.9,46.4 16.8,43.3 L108.4,10.9 C109.5,14 112.8,15.6 115.9,14.5 C117.3,18.4 125.9,42.8 127.4,46.9 C124.3,48 122.7,51.3 123.8,54.4 C115,57.5 63.9,75.6 41.5,83.5" id="Shape" class="stroke-primary-400" stroke-width="3" stroke-linecap="round" stroke-linejoin="round"></path>
                <path d="M58.2,55.2 C57.9,54.6 57.7,54 57.5,53.4 C54.4,44.6 58,35.3 65.7,32.6 C69.1,31.4 72.8,31.7 76.1,33.3" id="Shape" class="stroke-primary-400" stroke-width="3" stroke-linecap="round" stroke-linejoin="round"></path>
                <path d="M81.3,37.3 C82.9,39.1 84.2,41.2 85.1,43.7 C88.2,52.5 84.6,61.8 76.9,64.5 C71.8,66.3 66.1,64.7 62.1,60.7" id="Shape" class="stroke-primary-400" stroke-width="3" stroke-linecap="round" stroke-linejoin="round"></path>
                <path d="M45.5,57.3 L37.6,60" id="Shape" class="stroke-primary-400" stroke-width="3" stroke-linecap="round" stroke-linejoin="round"></path>
                <path d="M97.6,38.8 L105.1,36.2" id="Shape" class="stroke-primary-400" stroke-width="3" stroke-linecap="round" stroke-linejoin="round"></path>
            </g>
            <g id="Group" transform="translate(14.000000, 51.000000)">
                <path d="M127.1,64.9 L7.1,64.9 C3.7,64.9 0.9,62.1 0.9,58.7 L0.9,6.3 C0.9,2.9 3.7,0.1 7.1,0.1 L127.1,0.1 C130.5,0.1 133.3,2.9 133.3,6.3 L133.3,58.7 C133.3,62.2 130.5,64.9 127.1,64.9 Z" id="Shape" class="fill-neutral" fill-rule="nonzero"></path>
                <path d="M127.1,64.9 L11.1,64.9 C7.7,64.9 4.9,62.1 4.9,58.7 L4.9,10 C4.9,6.6 7.7,3.8 11.1,3.8 L127.1,3.8 C130.5,3.8 133.3,6.6 133.3,10 L133.3,58.7 C133.3,62.2 130.5,64.9 127.1,64.9 Z" id="Shape" class="fill-primary-300" fill-rule="nonzero"></path>
                <path d="M120.2,0.2 L126.3,0.2 C130.2,0.2 133.3,3.3 133.3,7.2 L133.3,57.9 C133.3,61.8 130.2,64.9 126.3,64.9 L7.9,64.9 C4,64.9 0.9,61.8 0.9,57.9 L0.9,17.2" id="Shape" class="stroke-primary" stroke-width="3" stroke-linecap="round" stroke-linejoin="round"></path>
                <path d="M113.6,0.2 L114.1,0.2" id="Shape" class="stroke-primary" stroke-width="3" stroke-linecap="round" stroke-linejoin="round"></path>
                <path d="M11.7,0.2 L101.2,0.2" id="Shape" class="stroke-primary" stroke-width="3" stroke-linecap="round" stroke-linejoin="round"></path>
            </g>
            <path d="M31.9,59.9 C31.9,63.3 29.2,66 25.8,66 C25.8,70.5 25.8,97.3 25.8,101.5 C29.2,101.5 31.9,104.2 31.9,107.6 L132.5,107.6 C132.5,104.2 135.2,101.5 138.6,101.5 C138.6,97.2 138.6,70.4 138.6,66 C135.2,66 132.5,63.3 132.5,59.9 C122.9,59.9 66.8,59.9 42.1,59.9" id="Shape" class="stroke-primary" stroke-width="3" stroke-linecap="round" stroke-linejoin="round"></path>
            <path d="M68.2,85.7 C68.1,85 68.1,84.4 68.1,83.7 C68.1,74 74.9,66.2 83.3,66.2 C87.1,66.2 90.5,67.8 93.2,70.4" id="Shape" class="stroke-primary" stroke-width="3" stroke-linecap="round" stroke-linejoin="round"></path>
            <path d="M97,76.2 C97.9,78.5 98.5,81 98.5,83.8 C98.5,93.5 91.7,101.3 83.3,101.3 C77.7,101.3 72.8,97.8 70.1,92.5" id="Shape" class="stroke-primary" stroke-width="3" stroke-linecap="round" stroke-linejoin="round"></path>
            <path d="M55.1,83.3 L46.4,83.3" id="Shape" class="stroke-primary" stroke-width="3" stroke-linecap="round" stroke-linejoin="round"></path>
            <path d="M112.3,83.3 L120.5,83.3" id="Shape" class="stroke-primary" stroke-width="3" stroke-linecap="round" stroke-linejoin="round"></path>
            <path d="M14.9,60.3 L14.9,57.7 C14.9,54.8 16.8,52.4 19.4,51.6" id="Shape" class="stroke-primary" stroke-width="3" stroke-linecap="round" stroke-linejoin="round"></path>
        </g>
    </g>
</svg>