<?xml version="1.0" encoding="UTF-8"?>
<svg width="122px" height="147px" viewBox="0 0 122 147" version="1.1" xmlns="http://www.w3.org/2000/svg" xmlns:xlink="http://www.w3.org/1999/xlink">
    <!-- Generator: Sketch 51.2 (57519) - http://www.bohemiancoding.com/sketch -->
    <title>Dress</title>
    <desc>Created with Sketch.</desc>
    <defs></defs>
    <g id="Page-1" stroke="none" stroke-width="1" fill="none" fill-rule="evenodd">
        <g id="Dress" transform="translate(1.000000, 2.000000)">
            <path d="M118.8,129.3 C93.1,148.3 92.1,143.4 79.7,140.4 C39.7,130.7 49.3,158.9 2.2,130.8 C0.6,129.9 0.4,128.9 1.4,127.2 C5.6,120 38.6,62.5 38.7,62.4 C39.8,60.5 40.9,58.3 41.6,56.3 C42.9,52.8 43.6,49 43.4,45.3 C43.1,35.7 42.2,34.4 40.3,32.5 C37,29.1 36.1,25.1 38.2,20.7 C44.8,6.9 40.8,0.4 44.7,0.5 C45.1,0.5 45.5,0.6 45.8,0.9 C46.1,1.2 46.3,1.9 46.3,2.1 C46.6,3.4 46.5,7.8 48.7,13.4 C50.3,17.8 51.9,17.1 55.6,20.3 C55.6,20.3 55.6,20.3 55.6,20.3 C55.6,20.3 55.6,20.3 55.6,20.3 C55.8,20.5 56.3,20.9 56.6,21.2 C56.6,21.2 56.6,21.2 56.6,21.2 C57.5,22.1 58.5,23.2 59.3,24.4 C64.9,15.9 70.5,20.9 72.4,2.2 C72.7,-0.3 76,-0.2 76.1,2.4 C76.3,6.9 76.9,9.4 77.7,12.6 C77.7,12.7 79.2,17.4 79.4,17.4 C79.4,17.4 79.4,17.5 79.5,17.5 C81.3,21.9 82.8,24.6 81,28.5 C78.7,33.7 76.6,31.4 76.2,44.9 C75.9,56 79.3,58.4 87.2,72.5 C98.8,93 118.7,129.1 118.8,129.3 Z" id="Shape" class="fill-neutral" fill-rule="nonzero"></path>
            <path d="M87.2,72.8 C79.2,58.6 75.9,56.2 76.2,45.1 C76.6,31.5 78.7,33.8 81,28.7 C81.8,26.9 82,25.2 81.5,23.2 C81.1,21.7 79.5,17.7 79.4,17.6 L77.3,2.4 C77.1,2.7 77,3.1 77,3.6 C77,4.7 76.8,6.2 76.5,7.7 C76.2,6.4 76,5.2 75.8,4.2 C73.7,15.8 71.8,17.6 64.9,22.6 C63.9,23.5 62,24.8 60.8,25.3 C60.5,25 60.1,24.5 59.7,24.1 C59.7,24.1 59.7,24.1 59.7,24.1 C58.6,22.8 56.9,21.4 55.6,20.5 C55.6,20.5 55.6,20.5 55.6,20.5 C55.6,20.5 55.6,20.5 55.6,20.5 C51.1,17.3 48.5,16.8 46.9,7.3 C45.8,21.2 36.9,25.4 44.8,33.6 C47.4,36.3 47.2,37.6 47.8,45.6 C48.3,52.4 46,58.7 42.6,64.5 C33.3,80.3 18.7,106.5 5.9,128.3 C4.9,130.1 5.1,131 6.7,132 C11.1,134.6 12.1,135.7 17.4,138 C17.5,138 18.3,138.4 18.5,138.5 C18.6,138.6 19.4,138.9 19.5,138.9 C19.6,139 20.4,139.3 20.5,139.3 C20.7,139.4 21.6,139.8 21.8,139.9 C22.3,140.1 22.2,140.1 22.5,140.2 C23,140.4 23,140.4 23.3,140.5 C23.4,140.5 23.7,140.7 23.8,140.7 C24.5,141 25.5,141.4 26.3,141.8 C27.4,142.2 28.5,142.6 29.6,143 C29.6,143 29.6,143 29.6,143 C31.8,143.3 33.7,143.5 35.8,143.6 C39.4,143.8 42.5,143 45.7,142 C52.7,140 60.6,135.8 79.7,140.4 C92.2,143.4 93.1,148.3 118.8,129.3 C118.1,128.1 99.3,93.9 87.2,72.8 Z" id="Shape" class="fill-primary-100" fill-rule="nonzero"></path>
            <g id="Group" class="stroke-primary" stroke-linecap="round" stroke-linejoin="round" stroke-width="3">
                <path d="M42.2,142.9 C42.1,142.9 42.1,142.9 42,142.9" id="Shape"></path>
                <path d="M36.4,143.5 C36.2,143.5 35.9,143.5 35.7,143.5 C35.3,143.5 35,143.4 34.6,143.4 C32.6,143.3 30.9,143.1 29.4,142.9 C29.4,142.9 29.4,142.9 29.4,142.9 C28.6,142.8 27.8,142.6 27.1,142.5 C26.9,142.5 26.7,142.4 26.4,142.3 C26.3,142.3 26.2,142.2 26,142.2 C25.5,142.1 25,141.9 24.6,141.8 C24.4,141.8 24.3,141.7 24.1,141.6 C23.9,141.6 23.8,141.5 23.6,141.4 C23,141.2 22.4,141 21.7,140.7 C21.5,140.6 21.4,140.6 21.2,140.5 C20.9,140.4 20.6,140.2 20.2,140.1 C20,140 19.9,140 19.7,139.9 C19,139.6 18.3,139.3 17.5,138.9 C16.6,138.5 15.6,138 14.5,137.5 C14.3,137.4 14,137.3 13.8,137.2 C13.6,137.1 13.3,137 13.1,136.9 C12.6,136.7 12.1,136.5 11.6,136.2 C8.3,134.7 5.2,132.6 2.1,130.7 C0.5,129.8 0.3,128.8 1.3,127.1 C14.1,105.3 28.7,79.1 38,63.3 C38.2,63 38.4,62.6 38.6,62.3 C39,61.6 39.3,61 39.7,60.3 C39.9,60 40,59.6 40.2,59.3 C40.4,59 40.5,58.6 40.7,58.3 C41,57.6 41.3,56.9 41.5,56.2 C42,54.9 42.4,53.6 42.7,52.3 C42.8,52.1 42.8,51.8 42.9,51.6 C43,51.3 43,51 43.1,50.7 C43.2,50.4 43.2,50 43.2,49.7 C43.3,48.6 43.4,47.5 43.4,46.4 C43.4,46.1 43.4,45.7 43.4,45.3 C43.4,45 43.4,44.8 43.4,44.5 C42.8,36.5 42.9,35.2 40.4,32.5 C37.1,29.1 36.2,25.1 38.3,20.7 C44.9,6.9 40.9,0.4 44.8,0.5 C44.9,0.5 45,0.5 45.1,0.5 C45.2,0.5 45.4,0.6 45.5,0.6 C45.6,0.6 45.7,0.7 45.7,0.7 C45.8,0.8 45.9,0.8 45.9,0.9 C46,1 46.1,1.2 46.2,1.4 C46.2,1.5 46.3,1.6 46.3,1.7 C46.3,1.8 46.3,1.9 46.4,2 C46.4,2 46.4,2 46.4,2.1 C46.4,2.2 46.4,2.4 46.5,2.5 C46.6,3.6 46.7,5.1 47,7 C47,7 47,7 47,7 C47.1,7.5 47.2,8.1 47.3,8.7 C47.4,9.1 47.5,9.4 47.6,9.8 C47.8,10.4 47.9,11 48.1,11.6 C48.2,11.9 48.3,12.1 48.4,12.4 C48.5,12.7 48.6,13 48.7,13.3 C48.8,13.6 48.9,13.9 49.1,14.2 C49.7,15.7 50.6,16.8 52,17.6 C52.1,17.7 52.2,17.7 52.3,17.8 C53.2,18.4 54.1,18.9 54.9,19.6 C55.2,19.8 55.4,20 55.7,20.2 C55.7,20.2 55.7,20.2 55.7,20.2 C55.7,20.2 55.7,20.2 55.7,20.2 C55.9,20.3 56,20.5 56.2,20.6 C56.4,20.7 56.5,20.9 56.7,21.1 C56.7,21.1 56.7,21.1 56.7,21.1 C56.9,21.3 57,21.4 57.2,21.6 C58,22.4 58.8,23.3 59.4,24.3 C59.5,24.1 59.6,24 59.7,23.8 C59.8,23.6 59.9,23.5 60.1,23.3 C60.3,23.1 60.4,22.9 60.6,22.7 C60.7,22.5 60.9,22.4 61,22.2 C61.1,22 61.3,21.9 61.5,21.7 C61.7,21.5 61.8,21.4 62,21.2 C62.2,21 62.3,20.9 62.5,20.8 C62.7,20.7 62.8,20.5 63,20.4 C64.5,19.1 66.1,18 67.7,16.8 C70.3,14.9 72.5,6.8 72.6,2.3 C72.6,2.2 72.6,2.1 72.6,2 C72.6,1.8 72.6,1.7 72.7,1.5 C72.7,1.4 72.7,1.4 72.8,1.3 C72.9,1 73,0.8 73.2,0.7 C73.9,9.09494702e-13 75,9.09494702e-13 75.7,0.7 C75.7,0.7 75.8,0.8 75.8,0.8 C75.8,0.8 75.9,0.9 75.9,1 C76,1.1 76,1.2 76.1,1.3 C76.2,1.6 76.3,1.9 76.3,2.2 C76.3,3 76.4,3.8 76.5,4.6 C76.6,5.4 76.7,6.1 76.8,6.8 C76.8,6.8 76.8,6.8 76.8,6.8 C77,8.3 77.3,9.6 77.6,10.8 C77.7,11.1 77.7,11.3 77.8,11.6 C77.9,11.9 78,12.2 78,12.4 C78,12.4 78,12.5 78,12.5 C78.2,13.2 78.4,13.9 78.6,14.5 C78.8,15.1 79,15.7 79.3,16.3 C79.4,16.6 79.5,16.9 79.6,17.1 C79.6,17.1 79.6,17.1 79.6,17.2 C79.6,17.2 79.6,17.2 79.6,17.2 C79.6,17.2 79.6,17.3 79.7,17.3 C80.6,19.4 81.4,21.2 81.8,22.8 C81.8,22.9 81.9,23.1 81.9,23.2 C81.9,23.3 82,23.5 82,23.6 C82,23.7 82,23.9 82.1,24 C82.1,24.1 82.1,24.2 82.1,24.4 C82.1,24.6 82.1,24.7 82.1,24.9 C82.1,26 81.9,27.1 81.3,28.4 C80.9,29.4 80.2,30.4 79.3,31.6 C76.4,35.5 76.6,40.1 76.5,44.8 C76.5,45.8 76.5,46.8 76.5,47.7 C76.5,48 76.5,48.2 76.5,48.5 C76.6,49.4 76.7,50.1 76.8,50.9 C76.8,51.1 76.9,51.4 76.9,51.6 C77,52.3 77.2,53 77.4,53.6 C77.5,53.8 77.5,54 77.6,54.2 C77.7,54.5 77.8,54.7 77.8,55 C77.9,55.2 77.9,55.3 78,55.4 C78.1,55.8 78.3,56.2 78.5,56.6 C78.6,56.8 78.7,57 78.7,57.2 C78.7,57.2 78.7,57.3 78.7,57.3 C78.8,57.6 79,57.9 79.1,58.2 C79.7,59.3 80.3,60.3 80.9,61.4 C81.1,61.7 81.3,62.1 81.5,62.4 C82.2,63.5 82.8,64.5 83.5,65.7 C84.6,67.6 85.9,69.9 87.3,72.4 C98.9,92.7 118.8,128.8 118.9,128.9 C117,130.3 115.3,131.8 113.4,132.9 C108.2,136 102.9,140.3 97.1,142 C95.1,142.6 93,142.9 90.9,142.8 C89.7,142.7 88.5,142.5 87.3,142.1 C84.6,141.2 82,140.5 79.7,140 C65,136.4 56.7,138.1 50.1,140.1" id="Shape"></path>
            </g>
            <path d="M69.6,35.6 C71,35.8 74.3,36.7 78.1,33.3" id="Shape" class="stroke-primary" stroke-width="3" stroke-linecap="round" stroke-linejoin="round"></path>
            <path d="M49.4,35.6 C48.1,35.8 45,36.6 41.4,33.7" id="Shape" class="stroke-primary" stroke-width="3" stroke-linecap="round" stroke-linejoin="round"></path>
            <path d="M46.8,52.4 C46.7,52.4 46.7,52.4 46.6,52.4" id="Shape" class="stroke-primary" stroke-width="3" stroke-linecap="round" stroke-linejoin="round"></path>
            <path d="M62.7,53.4 C59.1,53.5 55.4,53.4 51.9,53.1" id="Shape" class="stroke-primary" stroke-width="3" stroke-linecap="round" stroke-linejoin="round"></path>
            <path d="M75.8,51.7 C73.2,52.4 70.2,52.9 67,53.2" id="Shape" class="stroke-primary" stroke-width="3" stroke-linecap="round" stroke-linejoin="round"></path>
            <path d="M44.5,47.9 C53.5,49.9 66.7,49.9 76,47.6" id="Shape" class="stroke-primary" stroke-width="3" stroke-linecap="round" stroke-linejoin="round"></path>
            <circle id="Oval" class="fill-neutral" fill-rule="nonzero" cx="60.1" cy="51.8" r="3.4"></circle>
            <circle id="Oval" class="fill-primary-300" fill-rule="nonzero" cx="60.5" cy="52.2" r="2.9"></circle>
            <circle id="Oval" class="stroke-primary" stroke-width="3" stroke-linecap="round" stroke-linejoin="round" cx="60.1" cy="51.8" r="3.4"></circle>
        </g>
    </g>
</svg>