<?xml version="1.0" encoding="UTF-8"?>
<svg width="124px" height="132px" viewBox="0 0 124 132" version="1.1" xmlns="http://www.w3.org/2000/svg" xmlns:xlink="http://www.w3.org/1999/xlink">
    <!-- Generator: Sketch 51.2 (57519) - http://www.bohemiancoding.com/sketch -->
    <title>Dumbnell</title>
    <desc>Created with Sketch.</desc>
    <defs></defs>
    <g id="Page-1" stroke="none" stroke-width="1" fill="none" fill-rule="evenodd">
        <g id="Dumbnell" transform="translate(2.000000, 1.000000)">
            <polyline id="Shape" stroke-width="3" class="stroke-primary fill-primary-400" fill-rule="nonzero" stroke-linecap="round" stroke-linejoin="round" points="73.1 42.4 74.5 41 84.7 51.2 48.8 87 38.6 76.8 62.8 52.7"></polyline>
            <path d="M79,3.5 C75.4,7.4 75.7,13.6 79.7,17.6 L104.3,41.7 C108.3,45.6 114.4,45.6 118,41.8 C121.6,37.9 121.3,31.7 117.3,27.8 L92.7,3.7 C88.8,-0.3 82.6,-0.4 79,3.5 Z" id="Shape" class="fill-neutral" fill-rule="nonzero"></path>
            <path d="M53.9,9.2 C49.4,14 49.4,21.5 54,25.9 L98.3,69.4 C102.8,73.8 110.1,73.6 114.6,68.8 C119.1,64 119.1,56.5 114.5,52.1 L70.2,8.6 C65.7,4.1 58.4,4.4 53.9,9.2 Z" id="Shape" class="fill-neutral" fill-rule="nonzero"></path>
            <path d="M7.1,59.5 C2.6,64.3 2.7,71.7 7.2,76.2 L51.5,119.7 C56,124.1 63.3,123.9 67.8,119.1 C72.3,114.3 72.2,106.9 67.7,102.4 L23.4,58.9 C18.9,54.5 11.6,54.7 7.1,59.5 Z" id="Shape" class="fill-neutral" fill-rule="nonzero"></path>
            <path d="M2.9,86.6 C-0.7,90.5 -0.4,96.8 3.7,100.8 L28.7,125.3 C32.7,129.3 39,129.4 42.6,125.5 C46.2,121.6 45.9,115.3 41.8,111.3 L16.8,86.8 C12.7,82.8 6.5,82.7 2.9,86.6 Z" id="Shape" class="fill-neutral" fill-rule="nonzero"></path>
            <path d="M115.5,34.3 C115.2,33.9 114.8,33.5 114.4,33.1 L93.8,14 C90.9,11.3 86.6,10.9 83.6,12.9 C83.1,13.2 82.7,13.5 82.3,13.9 C79.3,16.9 79.5,21.9 82.8,25 L103.4,44.1 C106.7,47.2 111.9,47.2 114.9,44.2 C117.6,41.5 117.7,37.3 115.5,34.3 Z" id="Shape" fill="#BAD8FF" fill-rule="nonzero"></path>
            <path d="M114.4,33 L93.8,13.9 C90.9,11.2 86.6,10.8 83.6,12.8 C83.9,13.2 84.3,13.6 84.7,14 L105.3,33.1 C108.2,35.8 112.5,36.2 115.5,34.2 C115.1,33.8 114.8,33.4 114.4,33 Z" id="Shape" class="fill-primary-100" fill-rule="nonzero"></path>
            <path d="M114.1,55.8 C113.6,54.9 113,54 112.2,53.3 L73.8,16.1 C69.9,12.3 63.6,12.6 59.7,16.6 C58.9,17.4 58.3,18.3 57.9,19.2 C56,23.1 56.6,27.8 59.8,30.9 L98.2,68 C102.1,71.8 108.4,71.5 112.3,67.5 C115.4,64.2 116,59.5 114.1,55.8 Z" id="Shape" fill="#BAD8FF" fill-rule="nonzero"></path>
            <path d="M112.2,53.2 L73.8,16 C69.9,12.2 63.6,12.5 59.7,16.5 C58.9,17.3 58.3,18.2 57.9,19.1 C58.4,20 59,20.9 59.8,21.6 L98.2,58.7 C102.1,62.5 108.4,62.2 112.3,58.2 C113,57.4 113.7,56.5 114.1,55.6 C113.7,54.8 113,54 112.2,53.2 Z" id="Shape" class="fill-primary-100" fill-rule="nonzero"></path>
            <path d="M66.2,108.7 C65.8,108 65.3,107.4 64.8,106.9 L26.4,69 C22.5,65.1 16.2,65.4 12.3,69.5 C11.8,70 11.4,70.6 11,71.2 C8.5,75.3 9,80.6 12.4,84 L50.8,121.9 C54.7,125.7 61,125.5 64.9,121.4 C68.2,117.9 68.6,112.6 66.2,108.7 Z" id="Shape" fill="#BAD8FF" fill-rule="nonzero"></path>
            <path d="M64.8,106.9 L26.4,69 C22.5,65.1 16.2,65.4 12.3,69.5 C11.8,70 11.4,70.6 11,71.2 C11.4,71.8 11.9,72.5 12.4,73 L50.8,110.9 C54.7,114.7 61,114.5 64.9,110.4 C65.4,109.9 65.8,109.3 66.2,108.7 C65.9,108.1 65.4,107.4 64.8,106.9 Z" id="Shape" class="fill-primary-100" fill-rule="nonzero"></path>
            <path d="M38.5,116.9 C38.3,116.7 38.1,116.4 37.9,116.2 L18.5,96.1 C15.4,92.9 10.5,92.8 7.7,95.9 C4.9,99.1 5.1,104.3 8.3,107.5 L27.7,127.6 C30.8,130.8 35.7,130.9 38.5,127.8 C41.1,124.9 41,120.2 38.5,116.9 Z" id="Shape" fill="#BAD8FF" fill-rule="nonzero"></path>
            <path d="M37.9,116.2 L18.5,96.1 C15.4,92.9 10.5,92.8 7.7,95.9 C7.9,96.1 8.1,96.3 8.3,96.6 L27.7,116.7 C30.8,119.9 35.7,120 38.5,116.9 C38.3,116.7 38.1,116.4 37.9,116.2 Z" id="Shape" class="fill-primary-100" fill-rule="nonzero"></path>
            <path d="M79,3.5 C75.4,7.4 75.7,13.6 79.7,17.6 L104.3,41.7 C108.3,45.6 114.4,45.6 118,41.8 C121.6,37.9 121.3,31.7 117.3,27.8 L92.7,3.7 C88.8,-0.3 82.6,-0.4 79,3.5 Z" id="Shape" class="stroke-primary" stroke-width="3" stroke-linecap="round" stroke-linejoin="round"></path>
            <path d="M59.5,5.8 C59.1,5.9 58.7,6.1 58.3,6.2 M51.8,12.3 C49.6,16.8 50.4,22.3 54,25.9 L98.3,69.4 C102.8,73.8 110.1,73.6 114.6,68.8 C119.1,64 119.1,56.5 114.5,52.1 L70.2,8.6 C69.8,8.2 69.3,7.8 68.8,7.5" id="Shape" class="stroke-primary" stroke-width="3" stroke-linecap="round" stroke-linejoin="round"></path>
            <path d="M7.2,76.2 L51.5,119.7 C56,124.1 63.3,123.9 67.8,119.1 C72.3,114.3 72.2,106.9 67.7,102.4 L23.4,58.9 C19,54.5 11.8,54.7 7.4,59.2" id="Shape" class="stroke-primary" stroke-width="3" stroke-linecap="round" stroke-linejoin="round"></path>
            <path d="M2.9,86.6 C-0.7,90.5 -0.4,96.8 3.7,100.8 L28.7,125.3 C32.7,129.3 39,129.4 42.6,125.5 C46.2,121.6 45.9,115.3 41.8,111.3 L16.8,86.8 C12.7,82.8 6.5,82.7 2.9,86.6 Z" id="Shape" class="stroke-primary" stroke-width="3" stroke-linecap="round" stroke-linejoin="round"></path>
        </g>
    </g>
</svg>