<?xml version="1.0" encoding="UTF-8"?>
<svg width="128px" height="150px" viewBox="0 0 128 150" version="1.1" xmlns="http://www.w3.org/2000/svg" xmlns:xlink="http://www.w3.org/1999/xlink">
    <!-- Generator: Sketch 51.2 (57519) - http://www.bohemiancoding.com/sketch -->
    <title>Earth_2</title>
    <desc>Created with Sketch.</desc>
    <defs></defs>
    <g id="Page-1" stroke="none" stroke-width="1" fill="none" fill-rule="evenodd">
        <g id="Earth_2" transform="translate(1.000000, 1.000000)">
            <path d="M116.5,88.1 C111,102.4 100,113 86.9,118.5 C74.5,123.7 60.2,124.3 46.7,119 C33.2,113.7 23,103.7 17.3,91.6 C11.3,78.7 10.3,63.5 15.8,49.2 C21.2,35.2 31.8,24.7 44.6,19.2 C57.2,13.7 71.8,13 85.6,18.3 C99.4,23.6 109.8,34 115.4,46.5 C121.1,59.2 121.9,74.1 116.5,88.1 Z" id="Shape" class="fill-neutral" fill-rule="nonzero"></path>
            <path d="M115.8,90.1 C110.5,103.8 100,114 87.4,119.3 C75.5,124.3 61.7,124.8 48.7,119.8 C35.7,114.8 25.9,105.1 20.4,93.4 C17.6,87.4 15.9,80.9 15.5,74.2 C15.1,67.1 16.2,59.8 18.9,52.7 C24.1,39.2 34.3,29.2 46.6,23.8 C58.7,18.5 72.8,17.8 86,23 C99.1,28 108.9,37.8 114.4,49.6 C114.5,49.8 114.6,50 114.7,50.2 C120.2,62.3 121,76.6 115.8,90.1 Z" id="Shape" class="fill-primary-500" fill-rule="nonzero"></path>
            <path d="M111,71 C105.7,84.7 95.2,94.9 82.6,100.2 C70.7,105.2 56.9,105.7 43.9,100.7 C30.9,95.7 21.1,86 15.6,74.3 C15.6,74.2 15.5,74.2 15.5,74.1 C15.1,67 16.2,59.7 18.9,52.6 C24.1,39.1 34.3,29.1 46.6,23.7 C58.7,18.4 72.8,17.7 86,22.9 C99.1,27.9 108.9,37.7 114.4,49.5 C114.8,56.6 113.7,64 111,71 Z" id="Shape" class="fill-primary-300" fill-rule="nonzero"></path>
            <path d="M44.6,19.2 C57.2,13.7 71.8,13 85.6,18.3 C99.4,23.6 109.8,34 115.4,46.5 C121.1,59.2 121.9,74.1 116.5,88.1 C111,102.4 100,113 86.9,118.5 C74.5,123.7 60.2,124.3 46.7,119 C33.2,113.7 23,103.7 17.3,91.6 C11.3,78.7 10.3,63.5 15.8,49.2 C19.5,39.5 25.7,31.6 33.4,25.7" id="Shape" class="stroke-primary" stroke-width="2.8071" stroke-linecap="round" stroke-linejoin="round"></path>
            <path d="M38.4,22.4 C38.5,22.3 38.7,22.2 38.8,22.1" id="Shape" class="stroke-primary" stroke-width="2.8071" stroke-linecap="round" stroke-linejoin="round"></path>
            <path d="M14.9,28.1 C18.6,23.4 23,19.2 27.8,15.7" id="Shape" class="stroke-primary" stroke-width="2.8071" stroke-linecap="round" stroke-linejoin="round"></path>
            <path d="M42.6,129.7 C26.2,123.4 13.9,111.2 7,96.5 C-0.3,80.9 -1.5,62.5 5.2,45.2 C6.9,40.7 9.1,36.5 11.6,32.7" id="Shape" class="stroke-primary" stroke-width="2.8071" stroke-linecap="round" stroke-linejoin="round"></path>
            <path d="M125.3,96.5 C118.2,111.7 105.8,123 91.3,129 C78.6,134.3 64.3,135.6 50.3,132.1" id="Shape" class="stroke-primary" stroke-width="2.8071" stroke-linecap="round" stroke-linejoin="round"></path>
            <path d="M54.3,48.1 C64.6,27.9 77.4,15.2 85.6,18.3 C95.5,22.1 94.8,47.8 84.1,75.6 C73.4,103.4 56.7,122.9 46.8,119 C36.9,115.1 37.6,89.5 48.3,61.7 C49.1,59.5 50,57.4 50.9,55.3" id="Shape" class="stroke-primary" stroke-width="2.8071" stroke-linecap="round" stroke-linejoin="round"></path>
            <path d="M115.4,46.5 C102.8,52 88.2,52.7 74.4,47.4 C60.6,42.1 50.2,31.7 44.6,19.2 C57.2,13.7 71.8,13 85.6,18.3 C99.4,23.6 109.8,34.1 115.4,46.5 Z" id="Shape" class="stroke-primary" stroke-width="2.8071" stroke-linecap="round" stroke-linejoin="round"></path>
            <path d="M82.9,111.3 C84.4,113.6 85.8,116 86.9,118.5 C74.5,123.7 60.2,124.3 46.7,119 C33.2,113.7 23,103.7 17.3,91.6 C29.7,86.4 44,85.8 57.5,91.1 C64.7,93.9 70.9,98 76,103.1" id="Shape" class="stroke-primary" stroke-width="2.8071" stroke-linecap="round" stroke-linejoin="round"></path>
            <path d="M80.3,107.7 C80.4,107.8 80.5,107.9 80.5,108" id="Shape" class="stroke-primary" stroke-width="2.8071" stroke-linecap="round" stroke-linejoin="round"></path>
            <path d="M116.5,88.1 L15.8,49.3" id="Shape" class="stroke-primary" stroke-width="2.8071" stroke-linecap="round" stroke-linejoin="round"></path>
            <path d="M36,146.8 L92.5,0.3" id="Shape" class="stroke-primary" stroke-width="2.8071" stroke-linecap="round" stroke-linejoin="round"></path>
        </g>
    </g>
</svg>