<?xml version="1.0" encoding="UTF-8"?>
<svg width="122px" height="150px" viewBox="0 0 122 150" version="1.1" xmlns="http://www.w3.org/2000/svg" xmlns:xlink="http://www.w3.org/1999/xlink">
    <!-- Generator: Sketch 51.2 (57519) - http://www.bohemiancoding.com/sketch -->
    <title>Earth</title>
    <desc>Created with Sketch.</desc>
    <defs></defs>
    <g id="Page-1" stroke="none" stroke-width="1" fill="none" fill-rule="evenodd">
        <g id="Earth" transform="translate(1.000000, 2.000000)">
            <path d="M119,55.8 C119,64.7 116.8,73.1 112.9,80.4 C108.6,88.4 102.3,95.2 94.6,100.1 C86.5,105.2 76.9,108.2 66.6,108.2 C37.7,108.2 14.2,84.7 14.2,55.8 C14.2,32.4 29.6,12.6 50.8,5.8 C55.8,4.2 61.1,3.4 66.6,3.4 C74.9,3.4 82.8,5.3 89.8,8.8 C107.1,17.3 119,35.2 119,55.8 Z" id="Shape" class="fill-neutral" fill-rule="nonzero"></path>
            <path d="M119,57.7 C119,66.3 116.9,74.3 113.1,81.4 C109,89.1 102.9,95.7 95.5,100.3 C87.7,105.2 78.5,108.1 68.6,108.1 C49.7,108.1 33.3,97.7 24.7,82.4 C20.6,75.1 18.2,66.6 18.2,57.7 C18.2,35.2 33,16.1 53.4,9.6 C58.2,8.1 63.3,7.3 68.6,7.3 C76.6,7.3 84.2,9.2 90.9,12.5 C102.6,18.3 111.7,28.4 116.1,40.8 C116.1,40.8 116.1,40.8 116.1,40.8 C117.9,46.1 119,51.8 119,57.7 Z" id="Shape" class="fill-primary-500" fill-rule="nonzero"></path>
            <path d="M116,40.8 C116,40.8 116,40.8 116,40.8 C114.8,47 112.7,52.9 109.9,58.3 C104.9,67.7 97.4,75.7 88.4,81.4 C78.9,87.4 67.6,90.9 55.5,90.9 C44.2,90.9 33.6,87.9 24.5,82.5 C20.4,75.2 18,66.7 18,57.8 C18,35.3 32.8,16.2 53.2,9.7 C58,8.2 63.1,7.4 68.4,7.4 C76.4,7.4 84,9.3 90.7,12.6 C102.5,18.3 111.6,28.4 116,40.8 Z" id="Shape" class="fill-primary-300" fill-rule="nonzero"></path>
            <path d="M23.6,25.8 C30.1,16.4 39.6,9.3 50.8,5.8 C55.8,4.2 61.1,3.4 66.6,3.4 C74.9,3.4 82.8,5.3 89.8,8.8 C107.1,17.4 119,35.2 119,55.8 C119,64.7 116.8,73.1 112.9,80.4 C108.6,88.4 102.3,95.2 94.6,100.1 C86.5,105.2 76.9,108.2 66.6,108.2 C37.7,108.2 14.2,84.7 14.2,55.8 C14.2,51.9 14.6,48 15.5,44.4" id="Shape" class="stroke-primary" stroke-width="3" stroke-linecap="round" stroke-linejoin="round"></path>
            <path d="M17.9,36.3 C18,36.1 18,36 18.1,35.8" id="Shape" class="stroke-primary" stroke-width="3" stroke-linecap="round" stroke-linejoin="round"></path>
            <path d="M93.1,115.9 C85,119.5 76,121.5 66.6,121.5 C30.3,121.5 0.9,92.1 0.9,55.8 C0.9,32.3 13.3,11.6 31.9,0" id="Shape" class="stroke-primary" stroke-width="3" stroke-linecap="round" stroke-linejoin="round"></path>
            <path d="M66.7,133.7 L66.7,121.5" id="Shape" class="stroke-primary" stroke-width="3" stroke-linecap="round" stroke-linejoin="round"></path>
            <path d="M50.8,134.5 C49.3,135.3 48.1,136.6 47.6,138.3 L45,146 L87.4,146 L84.8,138.3 C83.9,135.5 81.3,133.7 78.4,133.7 L54,133.6 C52.9,133.6 50.8,134.5 50.8,134.5 Z" id="Shape" class="fill-primary-300" fill-rule="nonzero"></path>
            <path d="M47.1,139.7 L45,146 L87.4,146 L84.8,138.3 C83.9,135.5 81.3,133.7 78.4,133.7 L54,133.7" id="Shape" class="stroke-primary" stroke-width="3" stroke-linecap="round" stroke-linejoin="round"></path>
            <path d="M49.2,135.7 C49.1,135.8 49,135.9 48.9,136" id="Shape" class="stroke-primary" stroke-width="3" stroke-linecap="round" stroke-linejoin="round"></path>
            <path d="M77.8,53.7 C72.2,61.4 68.6,76.7 62.5,73.6 C56.4,70.5 52.8,58.3 53.3,47.5 C53.8,36.8 49.2,35.2 43.1,27.6 C37.8,20.9 39,19.7 50.8,5.8 C55.8,4.2 61.1,3.4 66.6,3.4 C74.9,3.4 82.8,5.3 89.8,8.8 C89.8,15.5 90.5,23.7 93.2,29.7 C97.3,38.9 83.5,46.1 77.8,53.7 Z" id="Shape" class="fill-primary-100" fill-rule="nonzero"></path>
            <path d="M48,33.2 C47.9,33.1 47.9,33.1 47.8,33" id="Shape" class="stroke-primary" stroke-width="3" stroke-linecap="round" stroke-linejoin="round"></path>
            <path d="M44.5,29.3 C44.1,28.8 43.6,28.2 43.1,27.6 C37.8,20.9 39,19.7 50.8,5.8 C55.8,4.2 61.1,3.4 66.6,3.4 C74.9,3.4 82.8,5.3 89.8,8.8 C89.8,15.5 90.5,23.7 93.2,29.7 C97.3,38.9 83.5,46.1 77.9,53.7 C72.3,61.4 68.7,76.7 62.6,73.6 C56.5,70.5 52.9,58.3 53.4,47.5 C53.5,44.4 53.3,42 52.6,40.1" id="Shape" class="stroke-primary" stroke-width="3" stroke-linecap="round" stroke-linejoin="round"></path>
            <path d="M112.7,80.7 C108.4,88.6 102.2,95.3 94.6,100.1 C84.6,93.9 80.4,88.3 85,82.4 C87.6,79 91.2,77 95.8,76.6" id="Shape" stroke-width="3" class="stroke-primary fill-primary-100" fill-rule="nonzero" stroke-linecap="round" stroke-linejoin="round"></path>
            <path d="M102.3,76.9 C104,77.2 105.9,77.7 107.8,78.4" id="Shape" stroke-width="3" class="stroke-primary fill-primary-100" fill-rule="nonzero" stroke-linecap="round" stroke-linejoin="round"></path>
        </g>
    </g>
</svg>