<?xml version="1.0" encoding="UTF-8"?>
<svg width="151px" height="77px" viewBox="0 0 151 77" version="1.1" xmlns="http://www.w3.org/2000/svg" xmlns:xlink="http://www.w3.org/1999/xlink">
    <!-- Generator: Sketch 51.2 (57519) - http://www.bohemiancoding.com/sketch -->
    <title>Email_2</title>
    <desc>Created with Sketch.</desc>
    <defs></defs>
    <g id="Page-1" stroke="none" stroke-width="1" fill="none" fill-rule="evenodd">
        <g id="Email_2" transform="translate(2.000000, 2.000000)">
            <path d="M147,9.2 L142.1,64.1 C142.1,68.9 138.2,72.8 133.4,72.8 L52.4,72.8 C50.7,72.8 49.1,72.3 47.8,71.4 C45.4,69.9 43.8,67.2 43.8,64.1 L48.7,9.2 C48.7,7.1 49.4,5.2 50.6,3.7 C52.2,1.7 54.6,0.5 57.3,0.5 L138.3,0.5 C141,0.5 143.4,1.8 145,3.7 C145.7,4.6 146.3,5.6 146.6,6.7 C146.9,7.5 147,8.4 147,9.2 Z" id="Shape" class="fill-neutral" fill-rule="nonzero"></path>
            <path d="M147,9.2 L142.2,62.1 L142,64.1 C142,68.9 138.1,72.8 133.3,72.8 L52.3,72.8 C50.6,72.8 49,72.3 47.7,71.4 C47.5,70.7 47.4,69.8 47.4,69 L47.9,63.2 L52.4,14.1 C52.4,12 53.1,10.1 54.3,8.6 C55.9,6.6 58.3,5.4 61,5.4 L142,5.4 C143.7,5.4 145.3,5.9 146.6,6.7 C146.9,7.5 147,8.4 147,9.2 Z" id="Shape" class="fill-primary-200" fill-rule="nonzero"></path>
            <path d="M147,9.2 L142.2,62.1 C140.6,64.3 138,65.8 135.1,65.8 L54.1,65.8 C52.4,65.8 50.8,65.3 49.5,64.4 C48.9,64 48.4,63.6 47.9,63.1 L52.4,14 C52.4,11.9 53.1,10 54.3,8.5 C55.9,6.5 58.3,5.3 61,5.3 L142,5.3 C143.7,5.3 145.3,5.8 146.6,6.6 C146.9,7.5 147,8.4 147,9.2 Z" id="Shape" class="fill-primary-100" fill-rule="nonzero"></path>
            <path d="M97.3,42 L96,43 C91.5,46.9 84.7,46.7 80.4,42.6 L50.6,6.2 C51,5.7 51.4,5.3 51.9,4.9 L87.8,38.8 C90.4,41.4 93.9,42.4 97.3,42 Z" id="Shape" class="fill-primary-200" fill-rule="nonzero"></path>
            <path d="M130.1,16.5 L103.4,39.2 C98.9,43.1 92.1,42.9 87.8,38.8 L50.6,3.7" id="Shape" class="stroke-primary" stroke-width="3.2" stroke-linecap="round" stroke-linejoin="round"></path>
            <path d="M137.4,10.3 L137.1,10.6" id="Shape" class="stroke-primary" stroke-width="3.2" stroke-linecap="round" stroke-linejoin="round"></path>
            <path d="M65.8,0.5 L77.7,0.5" id="Shape" class="stroke-primary" stroke-width="3.2" stroke-linecap="round" stroke-linejoin="round"></path>
            <path d="M87.7,0.5 L138.4,0.5 C141.1,0.5 143.5,1.8 145.1,3.7 C146.3,5.2 147,7.1 147,9.2 L142.1,64.1 C142.1,68.9 138.2,72.8 133.4,72.8 L52.4,72.8 C47.6,72.8 43.7,68.9 43.7,64.1 L48.6,9.2 C48.6,7.1 49.3,5.2 50.5,3.7 C51.9,1.9 54,0.7 56.4,0.5" id="Shape" class="stroke-primary" stroke-width="3.2" stroke-linecap="round" stroke-linejoin="round"></path>
            <path d="M2.3,15 L0.3,15" id="Shape" class="stroke-primary" stroke-width="3.2" stroke-linecap="round" stroke-linejoin="round"></path>
            <path d="M38.3,15 L9.1,15" id="Shape" class="stroke-primary" stroke-width="3.2" stroke-linecap="round" stroke-linejoin="round"></path>
            <path d="M18.7,29 L8,29" id="Shape" class="stroke-primary" stroke-width="3.2" stroke-linecap="round" stroke-linejoin="round"></path>
            <path d="M37.1,29 L28.4,29" id="Shape" class="stroke-primary" stroke-width="3.2" stroke-linecap="round" stroke-linejoin="round"></path>
            <path d="M35.6,42.4 L18.2,42.4" id="Shape" class="stroke-primary" stroke-width="3.2" stroke-linecap="round" stroke-linejoin="round"></path>
            <polygon id="Shape" class="stroke-primary" stroke-width="3.2" stroke-linecap="round" stroke-linejoin="round" points="129.1 56.7 116.5 56.8 118.2 44.2 130.8 44.1"></polygon>
            <path d="M106.1,47.9 C109.6,43.9 112.9,52.1 119.7,47.3" id="Shape" class="stroke-primary" stroke-width="3.2" stroke-linecap="round" stroke-linejoin="round"></path>
            <path d="M106.3,53.5 C109.7,49.6 113.2,57.7 119.9,52.9" id="Shape" class="stroke-primary" stroke-width="3.2" stroke-linecap="round" stroke-linejoin="round"></path>
        </g>
    </g>
</svg>