<?xml version="1.0" encoding="UTF-8"?>
<svg width="152px" height="139px" viewBox="0 0 152 139" version="1.1" xmlns="http://www.w3.org/2000/svg" xmlns:xlink="http://www.w3.org/1999/xlink">
    <!-- Generator: Sketch 51.2 (57519) - http://www.bohemiancoding.com/sketch -->
    <title>Email</title>
    <desc>Created with Sketch.</desc>
    <defs></defs>
    <g id="Page-1" stroke="none" stroke-width="1" fill="none" fill-rule="evenodd">
        <g id="Email" transform="translate(1.000000, 2.000000)">
            <path d="M37.2,55.1 C34.6,56.4 34.8,60.2 37.6,61.1 L71.8,72.8 L72.8,102.3 C72.9,103.9 74.9,104.5 75.8,103.2 L91.1,81.9 C91.2,82 91.3,82 91.3,82.1 L123.3,101.3 C125.2,102.5 127.7,101.4 128.2,99.2 L148.6,-9.09494702e-13 L37.2,55.1 Z" id="Shape" class="fill-neutral" fill-rule="nonzero"></path>
            <path d="M148.6,0.1 L148.5,0.4 L148.2,1.9 L128.2,99.3 C127.7,101.5 125.2,102.6 123.3,101.4 L91.3,82.2 C91.3,82.2 91.2,82.2 91.2,82.1 C91.1,82.1 91.1,82 91.1,82 L79.2,98.7 C78.3,100 76.2,99.4 76.2,97.8 L75.2,69.7 L75.1,68.2 L52.2,59.9 C49.4,59 49.2,55.2 51.8,53.9 L148.6,0.1 Z" id="Shape" class="fill-primary-100" fill-rule="nonzero"></path>
            <path d="M148.6,0.4 L148.3,1.9 L89.3,77.9 L91.3,82.1 C91.2,82.1 91.2,82 91.2,82 L79.3,98.7 C78.4,100 76.3,99.4 76.3,97.8 L75.3,69.7 L148.6,0.4 Z" id="Shape" class="fill-primary-300" fill-rule="nonzero"></path>
            <g id="Group" stroke-linecap="round" stroke-linejoin="round" stroke-width="3">
                <path d="M75.9,36 L148.6,0.1 L128.2,99.3 C127.7,101.5 125.3,102.6 123.3,101.4 L91.3,82.2 C89.4,81.1 89,78.6 90.3,76.9 L148.6,0.1" id="Shape" class="stroke-primary"></path>
                <path d="M61.6,43 L61.7,43" id="Shape" class="stroke-primary"></path>
                <path d="M86.5,88.5 L75.8,103.3 C74.9,104.6 72.8,104 72.8,102.4 L71.8,72.9 L37.6,61.2 C34.9,60.3 34.6,56.5 37.2,55.2 L55.8,46" id="Shape" class="stroke-primary"></path>
                <path d="M93.9,51.9 L148.7,0.1" id="Shape" class="stroke-primary"></path>
                <path d="M75.9,68.9 L87.5,57.9" id="Shape" class="stroke-primary"></path>
                <path d="M2.8,106.1 L0.7,107.8" id="Shape" class="stroke-primary-300"></path>
                <path d="M27.4,86.2 L11.6,99" id="Shape" class="stroke-primary-300"></path>
                <path d="M42.5,73.9 L34.8,80.2" id="Shape" class="stroke-primary-300"></path>
                <path d="M36.6,100.8 L31.2,105.5" id="Shape" class="stroke-primary-300"></path>
                <path d="M56,84.1 L40.9,97.1" id="Shape" class="stroke-primary-300"></path>
                <path d="M93.4,129.9 L88.8,135.4" id="Shape" class="stroke-primary-300"></path>
                <path d="M109.1,111.1 L96.7,125.9" id="Shape" class="stroke-primary-300"></path>
                <path d="M101.2,106.6 L94.9,114.2" id="Shape" class="stroke-primary-300"></path>
            </g>
        </g>
    </g>
</svg>