<?xml version="1.0" encoding="UTF-8"?>
<svg width="149px" height="149px" viewBox="0 0 149 149" version="1.1" xmlns="http://www.w3.org/2000/svg" xmlns:xlink="http://www.w3.org/1999/xlink">
    <!-- Generator: Sketch 51.2 (57519) - http://www.bohemiancoding.com/sketch -->
    <title>Enterprise_2</title>
    <desc>Created with Sketch.</desc>
    <defs></defs>
    <g id="Page-1" stroke="none" stroke-width="1" fill="none" fill-rule="evenodd">
        <g id="Enterprise_2" transform="translate(1.000000, 1.000000)">
            <g id="Group" transform="translate(0.000000, 145.000000)" class="stroke-primary-300" stroke-linecap="round" stroke-linejoin="round" stroke-width="2.4092">
                <path d="M1.3,0.9 L0.4,0.9" id="Shape"></path>
                <path d="M27.8,0.9 L5,0.9" id="Shape"></path>
                <path d="M32.7,0.9 L31.8,0.9" id="Shape"></path>
                <path d="M107.9,0.9 L37.7,0.9" id="Shape"></path>
                <path d="M141.7,0.9 L111.9,0.9" id="Shape"></path>
                <path d="M146.8,0.9 L145.4,0.9" id="Shape"></path>
            </g>
            <rect id="Rectangle-path" class="fill-neutral" fill-rule="nonzero" x="28.5" y="24" width="66.4" height="121.5"></rect>
            <rect id="Rectangle-path" class="fill-primary-300" fill-rule="nonzero" x="32.9" y="29.1" width="61.9" height="116.4"></rect>
            <path d="M28.5,48.7 L28.5,48.2" id="Shape" class="stroke-primary" stroke-width="2.4092" stroke-linecap="round" stroke-linejoin="round"></path>
            <polyline id="Shape" class="stroke-primary" stroke-width="2.4092" stroke-linecap="round" stroke-linejoin="round" points="28.5 41.8 28.5 24 94.8 24 94.8 145.5 28.5 145.5 28.5 67.3"></polyline>
            <rect id="Rectangle-path" class="fill-neutral" fill-rule="nonzero" x="94.8" y="46.4" width="26.7" height="99.1"></rect>
            <rect id="Rectangle-path" class="fill-primary-500" fill-rule="nonzero" x="94.8" y="50.8" width="26.7" height="94.8"></rect>
            <rect id="Rectangle-path" class="stroke-primary" stroke-width="2.4092" stroke-linecap="round" stroke-linejoin="round" x="94.8" y="46.4" width="26.7" height="99.1"></rect>
            <rect id="Rectangle-path" class="fill-neutral" fill-rule="nonzero" x="53.5" y="118" width="16.4" height="27.6"></rect>
            <path d="M69.8,124.9 L69.8,124.4" id="Shape" class="stroke-primary" stroke-width="2.4092" stroke-linecap="round" stroke-linejoin="round"></path>
            <polyline id="Shape" class="stroke-primary" stroke-width="2.4092" stroke-linecap="round" stroke-linejoin="round" points="69.8 118.8 69.8 118 53.5 118 53.5 145.5 69.8 145.5 69.8 135"></polyline>
            <polyline id="Shape" class="stroke-primary" stroke-width="2.4092" stroke-linecap="round" stroke-linejoin="round" points="38 41.4 38 35.2 49.4 35.2 49.4 46.7 38 46.7 38 45.9"></polyline>
            <rect id="Rectangle-path" class="stroke-primary" stroke-width="2.4092" stroke-linecap="round" stroke-linejoin="round" x="56.2" y="35.2" width="11.5" height="11.5"></rect>
            <rect id="Rectangle-path" class="stroke-primary" stroke-width="2.4092" stroke-linecap="round" stroke-linejoin="round" x="74.3" y="35.2" width="11.5" height="11.5"></rect>
            <rect id="Rectangle-path" class="stroke-primary" stroke-width="2.4092" stroke-linecap="round" stroke-linejoin="round" x="38" y="54.2" width="11.5" height="11.5"></rect>
            <polyline id="Shape" class="stroke-primary" stroke-width="2.4092" stroke-linecap="round" stroke-linejoin="round" points="67.6 61.2 67.6 65.6 56.2 65.6 56.2 54.2 67.6 54.2 67.6 56"></polyline>
            <rect id="Rectangle-path" class="stroke-primary" stroke-width="2.4092" stroke-linecap="round" stroke-linejoin="round" x="74.3" y="54.2" width="11.5" height="11.5"></rect>
            <rect id="Rectangle-path" class="stroke-primary" stroke-width="2.4092" stroke-linecap="round" stroke-linejoin="round" x="38" y="73.1" width="11.5" height="11.5"></rect>
            <rect id="Rectangle-path" class="stroke-primary" stroke-width="2.4092" stroke-linecap="round" stroke-linejoin="round" x="56.2" y="73.1" width="11.5" height="11.5"></rect>
            <rect id="Rectangle-path" class="stroke-primary" stroke-width="2.4092" stroke-linecap="round" stroke-linejoin="round" x="74.3" y="73.1" width="11.5" height="11.5"></rect>
            <rect id="Rectangle-path" class="stroke-primary" stroke-width="2.4092" stroke-linecap="round" stroke-linejoin="round" x="38" y="92.1" width="11.5" height="11.5"></rect>
            <rect id="Rectangle-path" class="stroke-primary" stroke-width="2.4092" stroke-linecap="round" stroke-linejoin="round" x="56.2" y="92.1" width="11.5" height="11.5"></rect>
            <path d="M79.6,92.1 L79.7,92.1" id="Shape" class="stroke-primary" stroke-width="2.4092" stroke-linecap="round" stroke-linejoin="round"></path>
            <polyline id="Shape" class="stroke-primary" stroke-width="2.4092" stroke-linecap="round" stroke-linejoin="round" points="84.1 92.1 85.8 92.1 85.8 103.6 74.3 103.6 74.3 92.1 76.3 92.1"></polyline>
            <polyline id="Shape" class="stroke-primary" stroke-width="2.4092" stroke-linecap="round" stroke-linejoin="round" points="112.3 54.2 113.4 54.2 113.4 65.6 101.9 65.6 101.9 54.2 107 54.2"></polyline>
            <rect id="Rectangle-path" class="stroke-primary" stroke-width="2.4092" stroke-linecap="round" stroke-linejoin="round" x="101.9" y="73.1" width="11.5" height="11.5"></rect>
            <rect id="Rectangle-path" class="stroke-primary" stroke-width="2.4092" stroke-linecap="round" stroke-linejoin="round" x="101.9" y="92.1" width="11.5" height="11.5"></rect>
            <rect id="Rectangle-path" class="stroke-primary" stroke-width="2.4092" stroke-linecap="round" stroke-linejoin="round" x="101.9" y="111.1" width="11.5" height="11.5"></rect>
            <path d="M81.8,0.2 L81.8,22.5" id="Shape" class="stroke-primary" stroke-width="2.4092" stroke-linecap="round" stroke-linejoin="round"></path>
            <path d="M89.5,12.7 L89.5,23" id="Shape" class="stroke-primary" stroke-width="2.4092" stroke-linecap="round" stroke-linejoin="round"></path>
            <g id="Group" transform="translate(13.000000, 6.000000)" class="stroke-primary-300" stroke-linecap="round" stroke-linejoin="round" stroke-width="2.4092">
                <path d="M0.8,46.5 L0.8,46.1" id="Shape"></path>
                <path d="M0.8,40.3 L0.8,6.9 C0.8,3.5 3.6,0.7 7,0.7 L53.8,0.7" id="Shape" stroke-dasharray="0.8290999999999999,5.8036"></path>
                <path d="M56.8,0.6 L57.2,0.6" id="Shape"></path>
            </g>
            <circle id="Oval" class="stroke-primary-300" stroke-width="2.4092" class="fill-neutral" fill-rule="nonzero" stroke-linecap="round" stroke-linejoin="round" cx="13.8" cy="53.3" r="2.9"></circle>
            <path d="M143.8,20.8 C143.8,21.7 143.6,22.5 143.1,23.2 C142.3,24.2 141.1,24.9 139.8,24.9 L121.3,24.9 C120.7,24.9 120.2,24.8 119.7,24.6 C118.5,23.8 117.8,22.4 117.8,20.8 C117.8,20.6 117.8,20.4 117.8,20.2 C118,18.3 119.3,16.8 121,16.4 C121,16.3 121,16.2 121,16.1 C121,12.7 123.6,9.9 126.8,9.9 C128.9,9.9 130.7,11.1 131.7,12.8 C132.5,12.2 133.5,11.9 134.5,11.9 C137,11.9 139.1,13.7 139.6,16.2 C141.3,16.2 142.7,17.3 143.4,18.8 C143.6,19.5 143.8,20.1 143.8,20.8 Z" id="Shape" class="stroke-primary-300" stroke-width="2.4092" stroke-linecap="round" stroke-linejoin="round"></path>
            <path d="M114.4,16.6 L109.4,16.6 C109,16.6 108.6,16.5 108.3,16.4 C107.5,15.8 106.9,14.8 106.9,13.7 C106.9,13.6 106.9,13.4 106.9,13.3 C107.1,11.9 108,10.9 109.2,10.5 C109.2,10.4 109.2,10.4 109.2,10.3 C109.2,7.8 111.1,5.8 113.4,5.8 C114.9,5.8 116.2,6.6 116.9,7.9 C117.5,7.5 118.2,7.3 118.9,7.3 C119.7,7.3 120.4,7.6 121,8" id="Shape" class="stroke-primary-300" stroke-width="2.4092" stroke-linecap="round" stroke-linejoin="round"></path>
        </g>
    </g>
</svg>