<?xml version="1.0" encoding="UTF-8"?>
<svg width="151px" height="144px" viewBox="0 0 151 144" version="1.1" xmlns="http://www.w3.org/2000/svg" xmlns:xlink="http://www.w3.org/1999/xlink">
    <!-- Generator: Sketch 51.2 (57519) - http://www.bohemiancoding.com/sketch -->
    <title>Exchange</title>
    <desc>Created with Sketch.</desc>
    <defs></defs>
    <g id="Page-1" stroke="none" stroke-width="1" fill="none" fill-rule="evenodd">
        <g id="Exchange" transform="translate(2.000000, 2.000000)">
            <g id="Group" transform="translate(0.000000, 65.000000)">
                <g>
                    <circle id="Oval" class="fill-neutral" fill-rule="nonzero" cx="29.6" cy="30" r="29.6"></circle>
                    <circle id="Oval" fill="#C4E0FF" fill-rule="nonzero" cx="31.2" cy="31.6" r="28"></circle>
                    <path d="M5.8,30.5 C5.8,30.3 5.8,30.2 5.8,30 C5.8,27.3 6.2,24.7 7.1,22.3" id="Shape" class="stroke-primary-300" stroke-width="3" stroke-linecap="round" stroke-linejoin="round"></path>
                    <path d="M10.2,43.8 C9.6,42.9 9,41.9 8.5,41" id="Shape" class="stroke-primary-300" stroke-width="3" stroke-linecap="round" stroke-linejoin="round"></path>
                    <path d="M15.2,49 C14.7,48.6 14.2,48.2 13.7,47.8" id="Shape" class="stroke-primary-300" stroke-width="3" stroke-linecap="round" stroke-linejoin="round"></path>
                    <path d="M51.4,39.6 C48.8,45.4 44,50 38,52.3" id="Shape" class="stroke-primary-300" stroke-width="3" stroke-linecap="round" stroke-linejoin="round"></path>
                    <path d="M36.3,7.2 C44.3,9.5 50.5,15.9 52.6,23.9" id="Shape" class="stroke-primary-300" stroke-width="3" stroke-linecap="round" stroke-linejoin="round"></path>
                    <path d="M53.4,12.4 C57.1,17.3 59.2,23.4 59.2,30 C59.2,46.4 45.9,59.6 29.6,59.6 C13.2,59.6 4.54747351e-13,46.3 4.54747351e-13,30 C4.54747351e-13,29.2 4.54747351e-13,28.5 0.1,27.7" id="Shape" class="stroke-primary" stroke-width="3" stroke-linecap="round" stroke-linejoin="round"></path>
                    <path d="M0.9,22.7 C4.2,9.9 15.8,0.4 29.6,0.4 C35.9,0.4 41.7,2.4 46.5,5.7" id="Shape" class="stroke-primary" stroke-width="3" stroke-linecap="round" stroke-linejoin="round"></path>
                </g>
                <g transform="translate(16.000000, 12.000000)" fill-rule="nonzero" id="Shape">
                    <path d="M13.3,35.7 C11.5,35.7 10,34.2 10,32.4 L10,31.8 C7.9,31.4 5.7,30.5 3.8,29.4 C2.6,28.6 1.9,27.4 1.9,26 C1.9,23.8 3.6,22.1 5.8,22.1 C6.5,22.1 7.3,22.4 8,22.8 C8.8,23.3 9.5,23.7 10.2,24 L10.2,21.6 C6.3,20.4 2.7,18.3 2.7,13 C2.7,8.8 5.6,5.7 10.2,4.8 C10.6,3.4 11.9,2.4 13.4,2.4 C15,2.4 16.3,3.5 16.6,4.9 C18.2,5.2 19.7,5.8 21,6.5 C22.3,7.3 23,8.5 23,9.9 C23,12.1 21.3,13.7 19.1,13.7 C18.4,13.7 17.8,13.5 17.2,13.2 C17,13.1 16.7,13 16.5,12.8 L16.5,14.8 C20.3,16 24.1,18.1 24.1,23.5 C24.1,27.6 21.2,30.8 16.7,31.7 L16.7,32.3 C16.6,34.2 15.1,35.7 13.3,35.7 Z" class="fill-neutral"></path>
                    <path d="M13.3,3.8 C14.3,3.8 15.1,4.6 15.1,5.6 L15.1,6.1 C17,6.4 18.7,6.9 20.2,7.8 C20.9,8.2 21.5,8.9 21.5,9.9 C21.5,11.2 20.4,12.2 19.1,12.2 C18.7,12.2 18.3,12.1 17.9,11.9 C16.9,11.4 15.9,11 15,10.7 L15,16 C20.3,17.4 22.6,19.6 22.6,23.5 C22.6,27.4 19.6,29.9 15.2,30.4 L15.2,32.3 C15.2,33.3 14.4,34.1 13.4,34.1 C12.4,34.1 11.6,33.3 11.6,32.3 L11.6,30.4 C9.1,30.1 6.8,29.2 4.7,27.9 C4,27.4 3.5,26.7 3.5,25.8 C3.5,24.4 4.6,23.4 5.9,23.4 C6.4,23.4 6.8,23.6 7.3,23.9 C8.8,24.8 10.2,25.5 11.8,25.9 L11.8,20.3 C6.8,18.9 4.3,17 4.3,12.8 C4.3,8.9 7.2,6.4 11.7,5.9 L11.7,5.5 C11.5,4.6 12.3,3.8 13.3,3.8 Z M11.6,15.1 L11.6,10.4 C9.9,10.6 9.2,11.5 9.2,12.6 C9.2,13.7 9.7,14.4 11.6,15.1 Z M14.9,26.1 C16.5,25.9 17.4,25.1 17.4,23.8 C17.4,22.6 16.8,21.9 14.9,21.2 L14.9,26.1 Z M13.3,0.8 C11.4,0.8 9.8,1.9 9,3.4 C4.2,4.7 1.1,8.3 1.1,12.9 C1.1,16.6 2.7,19 4.8,20.6 C2.2,21 0.4,23.2 0.4,25.9 C0.4,27.8 1.4,29.5 3,30.6 C4.7,31.7 6.6,32.5 8.5,33 C8.8,35.4 10.8,37.2 13.3,37.2 C15.8,37.2 17.8,35.4 18.1,33 C22.7,31.6 25.6,28.1 25.6,23.6 C25.6,19.2 23.3,16.6 20.6,15.1 C22.9,14.5 24.5,12.4 24.5,9.9 C24.5,7.9 23.5,6.2 21.7,5.2 C20.4,4.5 19.1,4 17.7,3.6 C16.9,1.9 15.2,0.8 13.3,0.8 Z" class="fill-primary"></path>
                </g>
            </g>
            <g id="Group" transform="translate(88.000000, 16.000000)">
                <g>
                    <circle id="Oval" class="fill-neutral" fill-rule="nonzero" cx="29.8" cy="29.6" r="29.1"></circle>
                    <circle id="Oval" fill="#C4E0FF" fill-rule="nonzero" cx="31.3" cy="31.2" r="27.5"></circle>
                    <path d="M6.4,30.1 C6.4,30 6.4,29.8 6.4,29.7 C6.4,27.1 6.8,24.5 7.6,22.2" id="Shape" class="stroke-primary-300" stroke-width="3" stroke-linecap="round" stroke-linejoin="round"></path>
                    <path d="M10.4,42.6 C9.7,41.6 9.1,40.6 8.6,39.5" id="Shape" class="stroke-primary-300" stroke-width="3" stroke-linecap="round" stroke-linejoin="round"></path>
                    <path d="M15.6,48.2 C15.1,47.8 14.6,47.4 14.1,47" id="Shape" class="stroke-primary-300" stroke-width="3" stroke-linecap="round" stroke-linejoin="round"></path>
                    <path d="M51.1,39.1 C48.6,44.8 43.8,49.3 37.9,51.5" id="Shape" class="stroke-primary-300" stroke-width="3" stroke-linecap="round" stroke-linejoin="round"></path>
                    <path d="M36.3,7.2 C44.1,9.5 50.2,15.7 52.3,23.6" id="Shape" class="stroke-primary-300" stroke-width="3" stroke-linecap="round" stroke-linejoin="round"></path>
                    <path d="M53.1,12.3 C56.7,17.1 58.8,23.1 58.8,29.6 C58.8,45.7 45.8,58.7 29.7,58.7 C13.6,58.7 0.6,45.7 0.6,29.6 C0.6,28.9 0.6,28.1 0.7,27.4" id="Shape" class="stroke-primary" stroke-width="3" stroke-linecap="round" stroke-linejoin="round"></path>
                    <path d="M1.6,22.4 C4.8,9.8 16.2,0.6 29.8,0.6 C36,0.6 41.7,2.5 46.4,5.8" id="Shape" class="stroke-primary" stroke-width="3" stroke-linecap="round" stroke-linejoin="round"></path>
                </g>
                <g transform="translate(13.000000, 13.000000)" fill-rule="nonzero" id="Shape">
                    <path d="M17.6,30.9 C12.2,30.9 8,27.9 6.1,22.8 L5.6,22.8 C3.8,22.8 2.3,21.3 2.3,19.5 C2.3,18.2 3.1,17 4.2,16.5 C3.1,16 2.3,14.9 2.3,13.5 C2.3,11.7 3.8,10.2 5.6,10.2 L6.3,10.2 C8.2,5.2 12.4,2.3 17.6,2.3 C21.2,2.3 23.9,3.4 26.4,6 C27.1,6.7 27.5,7.8 27.5,8.9 C27.5,11.1 25.7,12.9 23.4,12.9 C22.4,12.9 21.5,12.6 20.8,12 C21,12.5 21.2,13 21.2,13.5 C21.2,14.8 20.4,15.9 19.3,16.5 C20.4,17 21.2,18.2 21.2,19.5 C21.2,21.3 19.7,22.8 17.9,22.8 L16.3,22.8 C16.7,23 17.2,23 17.7,23 C18.9,23 19.6,22.6 20.7,21.4 C21.5,20.5 22.5,20 23.7,20 C25.9,20 27.6,21.8 27.6,23.9 C27.6,24.9 27.2,25.8 26.8,26.4 C24.2,29.5 21.3,30.9 17.6,30.9 Z M17.8,10.3 C18.1,10.3 18.3,10.3 18.6,10.4 C18.2,10.3 17.8,10.2 17.4,10.2 C17.1,10.2 16.8,10.2 16.6,10.3 L17.8,10.3 Z" class="fill-neutral"></path>
                    <path d="M17.5,3.9 C21.2,3.9 23.3,5.2 25.2,7.1 C25.6,7.5 25.9,8.1 25.9,8.9 C25.9,10.3 24.7,11.4 23.3,11.4 C22.4,11.4 21.8,11 21.4,10.6 C20.3,9.3 19.1,8.6 17.4,8.6 C15.3,8.6 13.8,9.8 12.9,11.7 L17.8,11.7 C18.8,11.7 19.6,12.5 19.6,13.5 C19.6,14.5 18.8,15.3 17.8,15.3 L12.1,15.3 C12.1,15.7 12.1,16.1 12.1,16.5 C12.1,16.9 12.1,17.3 12.1,17.7 L17.8,17.7 C18.8,17.7 19.6,18.5 19.6,19.5 C19.6,20.5 18.8,21.3 17.8,21.3 L12.8,21.3 C13.7,23.4 15.3,24.5 17.6,24.5 C19.4,24.5 20.5,23.8 21.7,22.4 C22.1,21.9 22.7,21.6 23.5,21.6 C24.8,21.6 25.9,22.7 25.9,24 C25.9,24.6 25.6,25.2 25.4,25.5 C23.5,27.9 21.1,29.3 17.6,29.3 C12.2,29.3 8.6,26.1 7.2,21.2 L5.6,21.2 C4.6,21.2 3.8,20.4 3.8,19.4 C3.8,18.4 4.6,17.6 5.6,17.6 L6.7,17.6 C6.7,17.2 6.7,16.9 6.7,16.5 C6.7,16.1 6.7,15.6 6.7,15.2 L5.6,15.2 C4.6,15.2 3.8,14.4 3.8,13.4 C3.8,12.4 4.6,11.6 5.6,11.6 L7.3,11.6 C8.7,7.2 12.3,3.9 17.5,3.9 Z M17.5,0.9 C12,0.9 7.5,3.8 5.2,8.8 C2.7,9 0.7,11.1 0.7,13.6 C0.7,14.7 1.1,15.7 1.7,16.6 C1,17.4 0.7,18.5 0.7,19.6 C0.7,22.1 2.6,24.1 5,24.3 C7.3,29.4 11.8,32.4 17.5,32.4 C21.6,32.4 24.9,30.8 27.7,27.5 C27.7,27.5 27.7,27.5 27.8,27.4 C28.5,26.5 29,25.2 29,24 C29,21 26.6,18.6 23.6,18.6 C23.3,18.6 22.9,18.6 22.6,18.7 C22.5,17.9 22.1,17.2 21.6,16.6 C22.1,16 22.4,15.3 22.6,14.5 C22.9,14.5 23.1,14.6 23.4,14.6 C26.5,14.6 29,12.1 29,9.1 C29,7.7 28.4,6.2 27.4,5.2 C24.6,2.2 21.5,0.9 17.5,0.9 Z" class="fill-primary"></path>
                </g>
            </g>
            <g id="Group" transform="translate(14.000000, 0.000000)" class="fill-primary-300" fill-rule="nonzero" class="stroke-primary" stroke-linecap="round" stroke-linejoin="round" stroke-width="3">
                <path d="M59.4,19.1 C58,20.5 58,22.7 59.4,24 C60.1,24.7 61,25 61.9,25 C62.8,25 63.7,24.7 64.4,24 L73.3,15.1 C74,14.4 74.3,13.6 74.3,12.6 C74.3,11.8 74,11 73.5,10.4 C73.5,10.4 73.5,10.4 73.5,10.4 C73.4,10.3 73.4,10.2 73.3,10.2 L64.4,1.3 C63,-0.1 60.8,-0.1 59.5,1.3 C58.1,2.7 58.1,4.9 59.5,6.2 L62.3,9 C51.8,9.5 41.1,12.6 31.4,17.8 C18.2,24.9 7.5,35.7 1.3,48 C0.4,49.7 1.1,51.8 2.9,52.7 C3.4,52.9 3.9,53.1 4.5,53.1 C5.8,53.1 7,52.4 7.6,51.2 C13.1,40.1 22.7,30.5 34.7,24 C43.5,19.2 53.2,16.5 62.6,16 L59.4,19.1 Z" id="Shape"></path>
                <path d="M116.1,87.9 C114.4,87 112.3,87.7 111.4,89.5 C105.9,100.6 96.3,110.2 84.3,116.7 C75.5,121.5 65.8,124.2 56.4,124.7 L59.5,121.6 C60.9,120.2 60.9,118 59.5,116.7 C58.1,115.3 55.9,115.3 54.6,116.7 L45.7,125.6 C45.6,125.7 45.6,125.8 45.5,125.8 C45.5,125.8 45.5,125.8 45.5,125.8 C45,126.4 44.7,127.2 44.7,128 C44.7,128.8 45,129.6 45.5,130.2 C45.5,130.2 45.5,130.2 45.5,130.2 C45.6,130.3 45.6,130.4 45.7,130.4 L54.6,139.3 C55.3,140 56.2,140.3 57.1,140.3 C58,140.3 58.9,140 59.6,139.3 C61,137.9 61,135.7 59.6,134.4 L56.8,131.6 C67.3,131.1 78,128 87.7,122.8 C100.9,115.7 111.6,104.9 117.8,92.6 C118.5,90.9 117.8,88.8 116.1,87.9 Z" id="Shape"></path>
            </g>
        </g>
    </g>
</svg>