<?xml version="1.0" encoding="UTF-8"?>
<svg width="149px" height="125px" viewBox="0 0 149 125" version="1.1" xmlns="http://www.w3.org/2000/svg" xmlns:xlink="http://www.w3.org/1999/xlink">
    <!-- Generator: Sketch 51.2 (57519) - http://www.bohemiancoding.com/sketch -->
    <title>File_2</title>
    <desc>Created with Sketch.</desc>
    <defs></defs>
    <g id="Page-1" stroke="none" stroke-width="1" fill="none" fill-rule="evenodd">
        <g id="File_2" transform="translate(2.000000, 2.000000)">
            <path d="M116.8,16 L75.7,16 L75.7,0.4 L129.6,0.4 C129.7,0.4 129.8,0.4 129.9,0.4 C138.3,0.6 145.1,7.5 145.1,16 L127.3,16" id="Shape" class="stroke-primary" stroke-width="3" fill="#A8D1FF" fill-rule="nonzero" stroke-linecap="round" stroke-linejoin="round"></path>
            <path d="M118.9,4.2 L118.9,105.2 C118.9,113.8 111.9,120.8 103.3,120.8 L27.8,120.8 L27.8,12.2 C28,9 29.2,6.2 31.3,4 C33.5,1.7 36.7,0.3 40.1,0.3 L116.1,0.3 C117.7,0.9 118.9,2.5 118.9,4.2 Z" id="Shape" class="fill-neutral" fill-rule="nonzero"></path>
            <path d="M131,0.4 C127.8,0.6 124.9,1.9 122.8,4 C122.6,4.2 122.4,4.4 122.2,4.7 C120.3,6.9 119,9.7 119,12.8 L119,105.2 C119,113.8 112,120.8 103.4,120.8 L27.9,120.8 L27.9,12.2 C28.1,9 29.3,6.2 31.4,4 C33.6,1.7 36.8,0.3 40.2,0.3 L116.3,0.3 C116.3,0.3 116.3,0.3 116.3,0.3 L130.8,0.3 C130.8,0.4 130.9,0.4 131,0.4 Z" id="Shape" class="fill-neutral" fill-rule="nonzero"></path>
            <path d="M122.1,4.7 C120.2,6.9 118.9,9.7 118.9,12.8 L118.9,13.9 C118.7,14.7 118.6,15.6 118.6,16.5 L118.6,104.1 C118.6,112.3 112,118.9 103.8,118.9 L32.2,118.9 L32.2,15.9 C32.5,9.1 37.9,4.7 43.9,4.7 L116,4.7 C116,4.7 116,4.7 116,4.7 L122.1,4.7 Z" id="Shape" class="fill-primary-100" fill-rule="nonzero"></path>
            <path d="M62,0.4 L115.1,0.4 C115.1,0.4 115.1,0.4 115.1,0.4 L129.6,0.4 C129.7,0.4 129.8,0.4 129.9,0.4 C126.7,0.6 123.8,1.9 121.7,4 C119.4,6.3 117.8,9.4 117.8,12.8 L117.8,87.5" id="Shape" class="stroke-primary" stroke-width="3" stroke-linecap="round" stroke-linejoin="round"></path>
            <path d="M51.3,0.4 L51.5,0.4" id="Shape" class="stroke-primary" stroke-width="3" stroke-linecap="round" stroke-linejoin="round"></path>
            <path d="M117.8,100.4 L117.8,105.2 C117.8,113.8 110.8,120.8 102.2,120.8 L26.7,120.8 L26.7,12.2 C26.9,9 28.1,6.2 30.2,4 C32.4,1.7 35.6,0.3 39,0.3 L44.4,0.3" id="Shape" class="stroke-primary" stroke-width="3" stroke-linecap="round" stroke-linejoin="round"></path>
            <path d="M26.7,109.4 L26.7,120.9 L102.2,120.9 C110.8,120.9 117.8,113.9 117.8,105.3 L117.8,103.4" id="Shape" class="stroke-primary" stroke-width="3" stroke-linecap="round" stroke-linejoin="round"></path>
            <path d="M70.2,108.6 L90.2,108.6 C90.2,112 91.6,115 93.8,117.2 C96,119.4 99.1,120.8 102.4,120.8 L12.4,120.8 C9,120.8 6,119.4 3.8,117.2 C1.6,115 0.2,111.9 0.2,108.6 L59.4,108.6 C59.4,108.6 70.3,108.7 70.2,108.6 Z" id="Shape" class="fill-neutral" fill-rule="nonzero"></path>
            <path d="M70.2,108.6 L90.2,108.6 C90.2,112 91.6,115 93.8,117.2 C96,119.4 99.1,120.8 102.4,120.8 L12.4,120.8 C9,120.8 6,119.4 3.8,117.2 C1.6,115 0.2,111.9 0.2,108.6 L59.4,108.6 C59.4,108.6 70.3,108.7 70.2,108.6 Z" id="Shape" fill="#A8D1FF" fill-rule="nonzero"></path>
            <path d="M47.2,108.6 L59.3,108.6 C59.3,108.6 70.3,108.7 70.2,108.6 L90.2,108.6 C90.2,112 91.6,115 93.8,117.2 C96,119.4 99.1,120.8 102.4,120.8 L12.4,120.8 C9,120.8 6,119.4 3.8,117.2 C1.6,115 0.2,111.9 0.2,108.6 L26.7,108.6" id="Shape" class="stroke-primary" stroke-width="3" stroke-linecap="round" stroke-linejoin="round"></path>
            <path d="M36.6,108.6 L37.9,108.6" id="Shape" class="stroke-primary" stroke-width="3" stroke-linecap="round" stroke-linejoin="round"></path>
            <path d="M81.2,20.1 L102.9,20.1" id="Shape" class="stroke-primary-300" stroke-width="3" stroke-linecap="round" stroke-linejoin="round"></path>
            <path d="M42.7,20.1 L71,20.1" id="Shape" class="stroke-primary-300" stroke-width="3" stroke-linecap="round" stroke-linejoin="round"></path>
            <path d="M61,34.2 L89.1,34.2" id="Shape" class="stroke-primary-300" stroke-width="3" stroke-linecap="round" stroke-linejoin="round"></path>
            <path d="M42.7,34.2 L51.9,34.2" id="Shape" class="stroke-primary-300" stroke-width="3" stroke-linecap="round" stroke-linejoin="round"></path>
            <path d="M85.5,48.3 L102.9,48.3" id="Shape" class="stroke-primary-300" stroke-width="3" stroke-linecap="round" stroke-linejoin="round"></path>
            <path d="M42.7,48.3 L77.3,48.3" id="Shape" class="stroke-primary-300" stroke-width="3" stroke-linecap="round" stroke-linejoin="round"></path>
            <path d="M70.1,62.4 L89.1,62.4" id="Shape" class="stroke-primary-300" stroke-width="3" stroke-linecap="round" stroke-linejoin="round"></path>
            <path d="M42.7,62.4 L61.9,62.4" id="Shape" class="stroke-primary-300" stroke-width="3" stroke-linecap="round" stroke-linejoin="round"></path>
            <path d="M89.6,76.5 L102.9,76.5" id="Shape" class="stroke-primary-300" stroke-width="3" stroke-linecap="round" stroke-linejoin="round"></path>
            <path d="M58.7,76.5 L81,76.5" id="Shape" class="stroke-primary-300" stroke-width="3" stroke-linecap="round" stroke-linejoin="round"></path>
            <path d="M42.7,76.5 L50.5,76.5" id="Shape" class="stroke-primary-300" stroke-width="3" stroke-linecap="round" stroke-linejoin="round"></path>
            <path d="M75.9,90.6 L89.1,90.6" id="Shape" class="stroke-primary-300" stroke-width="3" stroke-linecap="round" stroke-linejoin="round"></path>
            <path d="M42.7,90.6 L67.2,90.6" id="Shape" class="stroke-primary-300" stroke-width="3" stroke-linecap="round" stroke-linejoin="round"></path>
        </g>
    </g>
</svg>