<?xml version="1.0" encoding="UTF-8"?>
<svg width="154px" height="144px" viewBox="0 0 154 144" version="1.1" xmlns="http://www.w3.org/2000/svg" xmlns:xlink="http://www.w3.org/1999/xlink">
    <!-- Generator: Sketch 51.2 (57519) - http://www.bohemiancoding.com/sketch -->
    <title>Fit</title>
    <desc>Created with Sketch.</desc>
    <defs></defs>
    <g id="Page-1" stroke="none" stroke-width="1" fill="none" fill-rule="evenodd">
        <g id="Fit" transform="translate(2.000000, 2.000000)">
            <path d="M150.1,0.2 L0.3,0.2 C4.8,12.5 7,18.9 12.7,21.1 L12.8,21.1 C24.7,102.5 27.5,96.2 21.8,114.8 C20.2,120.1 18.5,124.3 19.3,129.3 C30.9,133.2 62.5,146.9 112.7,135.2 C136.8,129.6 133.2,128.7 127.6,108.8 C124.9,99.5 127.1,93.6 137.7,21.1 L137.8,21.1 C138,21 137.8,21.1 138.2,21 L138,21 C143.5,18.6 145.7,12.3 150.1,0.2 Z" id="Shape" class="fill-neutral" fill-rule="nonzero"></path>
            <path d="M137.9,22.3 L138.1,22.3 C137.7,22.4 137.8,22.3 137.7,22.4 L137.6,22.4 C128.1,94.9 126.2,100.8 128.6,110.1 C133.7,130 136.9,130.9 115.3,136.5 C98.8,140.8 84.5,141.7 72.5,140.9 C60.7,140.1 51.2,137.7 44,135.2 C43.9,135.2 43.8,135.1 43.7,135.1 C36.1,132.5 31.8,124.2 34,116.3 C34,116.2 34,116.2 34,116.1 C39.1,97.5 36.6,103.7 25.9,22.4 C25.5,22.2 25.1,22 24.7,21.8 C24.1,21.4 23.5,20.9 22.9,20.3 C22.8,20.2 22.8,20.1 22.7,20.1 C16.4,13.1 21.7,1.6 31.1,1.6 L148.8,1.6 C144.8,13.7 142.8,20 137.9,22.3 Z" id="Shape" fill="#BAD8FF" fill-rule="nonzero"></path>
            <path d="M120.9,21.1 L121.1,21.1 C120.7,21.2 120.9,21.1 120.7,21.2 L120.6,21.2 C111,94.2 109.1,100.2 111.5,109.6 C116.6,129.7 119.9,130.5 98.1,136.2 C88.5,138.7 79.6,140.1 71.5,140.6 C60.3,139.8 51.1,137.6 43.9,135.3 C43.8,135.3 43.7,135.2 43.6,135.2 C43.2,135.1 42.9,135 42.5,134.8 C34.8,132.2 30.4,123.8 32.6,115.8 C32.6,115.7 32.6,115.7 32.6,115.6 C37.7,96.9 35.2,103.1 24.6,21.8 C24.6,21.6 24.5,21.4 24.5,21.2 L24.4,21.2 C23.7,20.9 23.1,20.6 22.5,20.1 C16.2,13.1 21.5,1.6 30.9,1.6 L124.2,1.6 C127.7,1.6 130.1,5 129,8.3 C126.6,15.3 124.6,19.3 120.9,21.1 Z" id="Shape" class="fill-primary-100" fill-rule="nonzero"></path>
            <path d="M75,49.6 L75,110.9" id="Shape" class="stroke-primary" stroke-width="3" stroke-linecap="round" stroke-linejoin="round"></path>
            <path d="M53.5,104.2 C57.9,106.2 68.3,108.2 75.3,105.5" id="Shape" class="stroke-primary" stroke-width="3" stroke-linecap="round" stroke-linejoin="round"></path>
            <path d="M53.5,84.8 C57.9,86.8 68.3,88.8 75.3,86.1" id="Shape" class="stroke-primary" stroke-width="3" stroke-linecap="round" stroke-linejoin="round"></path>
            <path d="M54.3,66 C59,67.9 68.7,69.5 75.3,67" id="Shape" class="stroke-primary" stroke-width="3" stroke-linecap="round" stroke-linejoin="round"></path>
            <path d="M98.1,104.2 C93.7,106.2 83.3,108.2 76.3,105.5" id="Shape" class="stroke-primary" stroke-width="3" stroke-linecap="round" stroke-linejoin="round"></path>
            <path d="M98.1,84.8 C93.7,86.8 83.3,88.8 76.3,86.1" id="Shape" class="stroke-primary" stroke-width="3" stroke-linecap="round" stroke-linejoin="round"></path>
            <path d="M97.3,66 C92.6,67.9 82.9,69.5 76.3,67" id="Shape" class="stroke-primary" stroke-width="3" stroke-linecap="round" stroke-linejoin="round"></path>
            <path d="M46.2,47.7 C45.8,48.7 45.4,49.9 45,51.2 C42.8,59.6 39.4,66.5 35.5,70.5" id="Shape" class="stroke-primary" stroke-width="3" stroke-linecap="round" stroke-linejoin="round"></path>
            <path d="M67.8,39.2 C61.2,39.2 55.8,39 51.7,41.2" id="Shape" class="stroke-primary" stroke-width="3" stroke-linecap="round" stroke-linejoin="round"></path>
            <path d="M83.5,39.2 C94.9,39.2 102.9,38.5 106.3,51.3 C108.5,59.8 112,66.9 115.9,70.8" id="Shape" class="stroke-primary" stroke-width="3" stroke-linecap="round" stroke-linejoin="round"></path>
            <path d="M13.6,21.9 C15.9,37.9 18.3,53.9 20.6,70 C21.8,78 22.9,86 24.1,94 C25.4,102.1 24,107.1 21.7,114.7 C20.1,120 18.4,124.2 19.2,129.2" id="Shape" class="stroke-primary" stroke-width="3" stroke-linecap="round" stroke-linejoin="round"></path>
            <path d="M150.1,0.2 C145.6,12.5 143.4,18.9 137.7,21.1" id="Shape" class="stroke-primary" stroke-width="3" stroke-linecap="round" stroke-linejoin="round"></path>
            <path d="M138.2,20.9 C137,21.1 135.2,21.5 131.4,21.7 C121,22.4 90.1,22.4 90.1,22.4" id="Shape" class="stroke-primary" stroke-width="3" stroke-linecap="round" stroke-linejoin="round"></path>
            <path d="M0.3,0.2 C4.8,12.5 7,18.9 12.7,21.1" id="Shape" class="stroke-primary" stroke-width="3" stroke-linecap="round" stroke-linejoin="round"></path>
            <path d="M60,22.4 C60.2,22.4 60.3,22.4 60.3,22.4" id="Shape" class="stroke-primary" stroke-width="3" stroke-linecap="round" stroke-linejoin="round"></path>
            <path d="M13.4,21.2 C14.7,21.6 18.1,22.3 24.7,22.3 C30.3,22.3 44.9,22.3 52.8,22.4" id="Shape" class="stroke-primary" stroke-width="3" stroke-linecap="round" stroke-linejoin="round"></path>
            <path d="M28.3,132.4 C28.2,132.4 28,132.3 27.9,132.3" id="Shape" class="stroke-primary" stroke-width="3" stroke-linecap="round" stroke-linejoin="round"></path>
            <path d="M137.3,21.9 C126.6,95.4 124.8,99.3 127.5,108.7 C133.2,128.6 136.8,129.5 112.6,135.1 C88,140.9 59.5,141.7 34.5,134.4" id="Shape" class="stroke-primary" stroke-width="3" stroke-linecap="round" stroke-linejoin="round"></path>
            <circle id="Oval" class="fill-primary" fill-rule="nonzero" cx="75.3" cy="122.9" r="3.7"></circle>
        </g>
    </g>
</svg>