<?xml version="1.0" encoding="UTF-8"?>
<svg width="146px" height="149px" viewBox="0 0 146 149" version="1.1" xmlns="http://www.w3.org/2000/svg" xmlns:xlink="http://www.w3.org/1999/xlink">
    <!-- Generator: Sketch 51.2 (57519) - http://www.bohemiancoding.com/sketch -->
    <title>Fit_5</title>
    <desc>Created with Sketch.</desc>
    <defs></defs>
    <g id="Page-1" stroke="none" stroke-width="1" fill="none" fill-rule="evenodd">
        <g id="Fit_5" transform="translate(1.000000, 1.000000)">
            <path d="M90.3,145.9 C85.5,139 89.3,129.2 89.1,116.2 C89,107.7 86,93.4 86.1,87.8 C86.2,80.2 87.8,73 88.3,65.4 C89.1,54.8 89.3,44 90,33.4 C90.8,20.9 97.3,16.9 97.5,0.4 L31.6,0.4 C35.4,13.8 34.6,25.7 23.5,41.4 C5,67.7 -5.9,95 4.5,113.2 C11.4,125.4 20.8,135.9 28.9,145.3 L90.3,145.9 Z" id="Shape" class="fill-neutral" fill-rule="nonzero"></path>
            <path d="M97.1,7.3 C95.7,18.4 91.5,22.8 90.9,33.4 C90.3,44 90.1,54.8 89.4,65.4 C89.2,68.4 88.9,71.4 88.5,74.4 C88.1,77.8 87.7,81.2 87.5,84.6 C87.4,85.7 87.4,86.7 87.4,87.8 C87.3,93.4 89.9,107.7 90,116.2 C90.1,125.4 88.5,133.1 89,139.1 C89.1,139.7 89,140.4 88.9,140.9 C88.8,141.2 88.8,141.5 88.7,141.7 C87.9,144 85.7,145.7 83,145.7 L41.3,145.3 C38.6,145.3 36.1,144 34.5,141.9 C28,133.4 21,123.9 15.6,113.2 C10,102 11.4,87.4 17.1,71.7 C19.4,65.3 22.5,58.7 26.1,52.1 C28,48.5 30.1,44.9 32.4,41.3 C38.2,32 40.8,24 41.2,16.3 C41.7,7.3 49,0.3 58,0.3 L91.1,0.3 C94.7,0.5 97.6,3.7 97.1,7.3 Z" id="Shape" class="fill-primary-100" fill-rule="nonzero"></path>
            <path d="M97.1,7.3 C95.7,18.4 91.5,22.8 90.9,33.4 C90.3,44 90.1,54.8 89.4,65.4 C88.9,73 87.6,80.2 87.4,87.8 C87.3,93.4 89.9,107.7 90,116.2 C90.1,125.4 88.5,133.1 89,139.1 C89.1,139.7 89,140.4 88.9,140.9 C82.5,131.4 76.5,121.6 70.9,111.6 C66.1,103.1 67.6,101.1 70.8,92.5 C85.4,53.2 72.9,29.9 87.8,0.3 L91.1,0.3 C94.7,0.5 97.6,3.7 97.1,7.3 Z" id="Shape" fill="#BAD8FF" fill-rule="nonzero"></path>
            <path d="M88.5,74.4 C88.3,76.1 88.1,77.8 87.9,79.5 C87.8,80.3 87.7,81.1 87.7,81.9 C87.6,82.8 87.6,83.7 87.5,84.6 C82.6,91.5 77.7,98.4 72.7,105.3 C71.8,106.6 70.7,107.9 69.2,108.1 C69.1,108.1 69.1,108.1 69,108.1 C66.9,108.3 65.3,106.2 64.1,104.5 C55.5,91.9 43.5,81.6 29.7,75.1 C25.7,73.2 21.3,71.6 16.9,71.8 C19.2,65.4 22.3,58.8 25.9,52.2 C37.2,59.9 48.5,67.6 59.8,75.3 C63.4,77.8 67.1,80.2 71.3,81.3 C72.2,81.5 73.2,81.7 74.2,81.7 C77.6,81.9 81.1,80.9 83.4,78.4 C85,76.8 86.5,74.3 88.5,74.4 Z" id="Shape" class="fill-primary-400" fill-rule="nonzero"></path>
            <path d="M88.5,74.4 C88.3,76.1 88.1,77.8 87.9,79.5 C87.8,80.3 87.7,81.1 87.7,81.9 C87.6,82.8 87.6,83.7 87.5,84.6 C82.6,91.5 77.7,98.4 72.7,105.3 C71.8,106.6 70.7,107.9 69.2,108.1 C69.1,108.1 69.1,108.1 69,108.1 C66.5,102.4 68.1,99.8 70.7,92.6 C72.1,88.8 73.3,85.2 74.2,81.7 C77.6,81.9 81.1,80.9 83.4,78.4 C85,76.8 86.5,74.3 88.5,74.4 Z" id="Shape" class="fill-primary-600" fill-rule="nonzero"></path>
            <path d="M28.4,33.8 C27.1,36.3 25.5,38.8 23.6,41.5 C5.1,67.8 -5.8,95.1 4.6,113.3 C11.5,125.5 20.9,136 29,145.4" id="Shape" class="stroke-primary" stroke-width="3" stroke-linecap="round" stroke-linejoin="round"></path>
            <path d="M31.5,26.6 C31.5,26.7 31.4,26.9 31.4,27" id="Shape" class="stroke-primary" stroke-width="3" stroke-linecap="round" stroke-linejoin="round"></path>
            <path d="M31.7,0.5 C33.6,7.2 34.4,13.5 33.3,20.1" id="Shape" class="stroke-primary" stroke-width="3" stroke-linecap="round" stroke-linejoin="round"></path>
            <path d="M97.6,0.5 C97.3,17 90.9,20.9 90.1,33.5 C89.4,44.1 89.2,54.9 88.4,65.5 C87.8,73.1 86.3,80.3 86.2,87.9 C86,101.8 91.6,102.8 88.1,141.4" id="Shape" class="stroke-primary" stroke-width="3" stroke-linecap="round" stroke-linejoin="round"></path>
            <path d="M3.9,78.5 C10,69.4 18.6,70.1 26.3,73.4 C58.8,87.5 70.7,112.3 90.4,145.7" id="Shape" class="stroke-primary" stroke-width="3" stroke-linecap="round" stroke-linejoin="round"></path>
            <path d="M26.1,52.3 C36.8,61.8 49.7,69.8 62.1,76.5 C70.8,81.2 78.4,86.5 87.3,74.7" id="Shape" class="stroke-primary" stroke-width="3" stroke-linecap="round" stroke-linejoin="round"></path>
            <path d="M86.1,86.2 C83.8,90.5 80.6,93.5 77.7,97.4 C74.7,101.4 72,106 68.1,109.1" id="Shape" class="stroke-primary" stroke-width="3" stroke-linecap="round" stroke-linejoin="round"></path>
            <path d="M79.7,55 C78,60.7 78.8,58.3 78.8,58.3" id="Shape" class="stroke-primary" stroke-width="3" stroke-linecap="round" stroke-linejoin="round"></path>
            <path d="M101.7,16.8 C105,31.9 110.7,48.2 105.9,64.1 C103.4,72.4 97.3,78.1 94.5,81.7 L90.9,86.3" id="Shape" class="stroke-primary" stroke-width="3" stroke-linecap="round" stroke-linejoin="round" stroke-dasharray="6,11"></path>
            <polyline id="Shape" class="stroke-primary" stroke-width="3" stroke-linecap="round" stroke-linejoin="round" points="143.5 54.7 121.9 54.7 130.9 45.6"></polyline>
            <path d="M121.9,54.9 L130.9,63.9" id="Shape" class="stroke-primary" stroke-width="3" stroke-linecap="round" stroke-linejoin="round"></path>
        </g>
    </g>
</svg>