<?xml version="1.0" encoding="UTF-8"?>
<svg width="119px" height="150px" viewBox="0 0 119 150" version="1.1" xmlns="http://www.w3.org/2000/svg" xmlns:xlink="http://www.w3.org/1999/xlink">
    <!-- Generator: Sketch 51.2 (57519) - http://www.bohemiancoding.com/sketch -->
    <title>Fit_4</title>
    <desc>Created with Sketch.</desc>
    <defs></defs>
    <g id="Page-1" stroke="none" stroke-width="1" fill="none" fill-rule="evenodd">
        <g id="Fit_4" transform="translate(1.000000, 2.000000)">
            <path d="M93.7,95.5 C94.3,111.1 102.5,122 114.6,145.8 L1.4,145.8 C13.5,121.9 21.7,111 22.3,95.5 C22.9,79.9 20.8,60.7 13.8,52.2 L12.2,50.3 L12.5,50.3 C5.4,47.5 0.5,41.5 0.4,33 C0.2,21.2 8.8,11.5 11.8,0.5 L29.2,0.5 C30.8,0.5 32.2,1.6 32.6,3.2 C35.2,14 45,22 56.6,22 C68.2,22 77.9,14 80.6,3.2 C81,1.6 82.4,0.5 84,0.5 L104.4,0.5 C107.4,11.5 116,21.2 115.8,33 C115.7,41.5 110.7,47.6 103.7,50.3 L104,50.3 L102.4,52.2 C95.2,60.8 93.1,79.9 93.7,95.5 Z" id="Shape" class="fill-neutral" fill-rule="nonzero"></path>
            <path d="M111.4,139 C114.1,144.6 118.4,145.9 103.3,146.1 C93.3,146.2 74.7,145.8 41.4,145.8 C38,145.8 19.9,148 19,131.8 C18.5,123.7 25.5,118.5 28.5,103.3 C30.3,94.1 29.4,77.6 27.3,67.6 C26.7,64.8 26,62.1 25,59.5 C24.7,58.7 24.4,58 24.1,57.2 C24.1,57.1 24,57 24,56.9 C23.4,55.5 22.7,54.4 22.1,53.5 C17.7,46.9 14.2,50.2 10.5,41 C7.3,33.2 9.8,24.8 13.1,17.4 C16.4,9.9 17.8,5.9 23.1,3 C24.7,2.1 26.4,1.6 28.2,1.3 C39.5,-0.3 28.8,22.1 52.7,25.2 C66.4,27 77,20.2 83.3,10.9 C87.6,4.5 89.3,1.3 97.6,1.3 C99.3,1.3 105.1,1 105.5,2.5 C108.1,12.5 114.5,24.7 114.8,26.1 C115.1,27.2 115.3,28.3 115.5,29.4 C116.4,35.7 115.2,41.9 110.8,46.6 C110.7,46.7 110.7,46.7 110.6,46.8 C110,47.4 109.4,47.9 108.8,48.4 C104,52.1 106.6,48.5 103.2,53 C103.1,53.2 102.9,53.4 102.8,53.6 C102,54.7 101.3,56 100.7,57.3 C96.6,66.1 95.5,79.5 95.4,88.2 C94.9,108.2 98.4,112.5 111.4,139 Z" id="Shape" class="fill-primary-100" fill-rule="nonzero"></path>
            <path d="M95.3,88.3 C95.4,80.4 96.4,68.6 99.6,59.8 C99.8,59.2 100,58.7 100.2,58.2 C100.3,58 100.3,57.8 100.4,57.7 C101.2,55.9 102.1,54.3 103.2,52.9 L104.7,51 L104.4,51 C110,48.6 114.2,43.8 115.3,37.1 C115.3,36.9 115.3,36.8 115.2,36.6 C113.4,46 105.1,51.7 95.1,52 C85.1,52.3 60.1,52 60.1,52 L55.9,52 C55.9,52 30.9,52.3 20.9,52 L20.8,52 L21.5,52.9 C22.4,54 23.2,55.3 23.9,56.8 C25,59 27.1,60.4 29.6,60.4 C41,60.5 56,60.3 56,60.3 L60.2,60.3 C60.2,60.3 69.3,60.4 78.7,60.4 C87.9,63.4 87.5,67.8 81.3,85.3 C73.5,107.3 73.7,137.2 101.5,145.6 C102.1,145.8 102.8,146 103.4,146.1 C118.5,145.9 114.2,144.5 111.5,139 C98.4,112.5 94.9,108.2 95.3,88.3 Z" id="Shape" fill="#BAD8FF" fill-rule="nonzero"></path>
            <path d="M110.7,46.7 C110.6,46.8 110.6,46.8 110.5,46.9 C109.9,47.5 109.3,48 108.7,48.5 C103.9,52.2 106.5,48.6 103.1,53.1 C103,53.3 102.8,53.5 102.7,53.7 L22,53.7 C19.4,49.8 17.1,49.3 14.9,47.7 C13,46.3 14.3,43.4 16.6,43.8 C46.4,49.4 92.6,45.6 101.9,37.5 C108.3,31.9 107.8,23.4 108.9,12.8 C111.6,19.5 114.5,25.3 114.7,26.2 C115,27.3 115.2,28.4 115.4,29.5 C116.3,35.7 115.1,42 110.7,46.7 Z" id="Shape" fill="#BAD8FF" fill-rule="nonzero"></path>
            <path d="M20.7,52 C20.7,52 20.8,52 20.8,52 C30.8,52.3 55.8,52 55.8,52 L60,52 C60,52 85,52.3 95,52 C105,51.7 113.3,46.1 115.1,36.6" id="Shape" class="stroke-primary" stroke-width="3" stroke-linecap="round" stroke-linejoin="round"></path>
            <path d="M1.4,145.9 C13.5,122 21.7,111.2 22.3,95.5 C22.7,85 21.9,72.9 19.2,63.5" id="Shape" class="stroke-primary" stroke-width="3" stroke-linecap="round" stroke-linejoin="round"></path>
            <path d="M114.6,145.9 C102.5,122 94.3,111.2 93.7,95.5 C93.1,79.9 95.2,60.8 102.2,52.2 L103.8,50.3" id="Shape" class="stroke-primary" stroke-width="3" stroke-linecap="round" stroke-linejoin="round"></path>
            <path d="M11.6,0.7 C11.6,0.6 11.7,0.5 11.7,0.4" id="Shape" class="stroke-primary" stroke-width="3" stroke-linecap="round" stroke-linejoin="round"></path>
            <path d="M104.3,0.4 C107.3,11.4 115.9,21.1 115.7,32.9 C115.5,44.5 106.4,51.6 95.2,51.9 C85.2,52.2 60.2,51.9 60.2,51.9 L56,51.9 C56,51.9 31,52.2 21,51.9 C9.8,51.6 0.6,44.5 0.5,32.9 C0.4,23.9 5.3,16.2 9,8.2" id="Shape" class="stroke-primary" stroke-width="3" stroke-linecap="round" stroke-linejoin="round"></path>
            <circle id="Oval" class="stroke-primary" stroke-width="3" stroke-linecap="round" stroke-linejoin="round" cx="56.3" cy="118.1" r="4"></circle>
            <path d="M42.4,17.5 C37.5,14.1 33.9,9 32.4,3" id="Shape" class="stroke-primary" stroke-width="3" stroke-linecap="round" stroke-linejoin="round"></path>
            <path d="M50.3,21.1 C50.1,21 49.8,21 49.6,20.9" id="Shape" class="stroke-primary" stroke-width="3" stroke-linecap="round" stroke-linejoin="round"></path>
            <path d="M80.5,3.1 C78.1,12.7 70.1,20.2 60.2,21.7" id="Shape" class="stroke-primary" stroke-width="3" stroke-linecap="round" stroke-linejoin="round"></path>
            <circle id="Oval" class="stroke-primary" stroke-width="3" cx="56.3" cy="118.1" r="4"></circle>
        </g>
    </g>
</svg>