<?xml version="1.0" encoding="UTF-8"?>
<svg width="148px" height="130px" viewBox="0 0 148 130" version="1.1" xmlns="http://www.w3.org/2000/svg" xmlns:xlink="http://www.w3.org/1999/xlink">
    <!-- Generator: Sketch 51.2 (57519) - http://www.bohemiancoding.com/sketch -->
    <title>Folders</title>
    <desc>Created with Sketch.</desc>
    <defs></defs>
    <g id="Page-1" stroke="none" stroke-width="1" fill="none" fill-rule="evenodd">
        <g id="Folders" transform="translate(2.000000, 1.000000)">
            <g id="Group" transform="translate(0.000000, 4.000000)">
                <path d="M35.5,122.6 L3.4,122.6 C1.7,122.6 0.3,121.2 0.3,119.5 L0.3,3.9 C0.3,2.2 1.7,0.8 3.4,0.8 L35.5,0.8 C37.2,0.8 38.6,2.2 38.6,3.9 L38.6,119.5 C38.6,121.2 37.2,122.6 35.5,122.6 Z" id="Shape" class="fill-neutral" fill-rule="nonzero"></path>
                <path d="M38.1,7.8 L38.1,119.8 C38.1,121.4 36.8,122.7 35.2,122.7 L7.9,122.7 C6.3,122.7 5,121.4 5,119.8 L5,7.8 C5,6.2 6.3,4.9 7.9,4.9 L35.2,4.9 C36.8,4.9 38.1,6.2 38.1,7.8 Z" id="Shape" class="fill-primary-200" fill-rule="nonzero"></path>
                <path d="M38.1,7.8 L38.1,112.4 C38.1,114 36.8,115.3 35.2,115.3 L7.9,115.3 C6.3,115.3 5,114 5,112.4 L5,7.8 C5,6.2 6.3,4.9 7.9,4.9 L35.2,4.9 C36.8,4.9 38.1,6.2 38.1,7.8 Z" id="Shape" class="fill-primary-100" fill-rule="nonzero"></path>
                <path d="M23.9,0.8 L35.5,0.8 C37.2,0.8 38.6,2.2 38.6,3.9 L38.6,119.5 C38.6,121.2 37.2,122.6 35.5,122.6 L3.4,122.6 C1.7,122.6 0.3,121.2 0.3,119.5 L0.3,3.9 C0.3,2.2 1.7,0.8 3.4,0.8 L5.8,0.8" id="Shape" class="stroke-primary" stroke-width="3.0654" stroke-linecap="round" stroke-linejoin="round"></path>
                <path d="M12.9,0.8 L13.9,0.8" id="Shape" class="stroke-primary" stroke-width="3.0654" stroke-linecap="round" stroke-linejoin="round"></path>
                <path d="M27.2,22.9 C27.2,27.2 23.7,30.7 19.4,30.7 C16.9,30.7 14.7,29.5 13.3,27.7 C12.3,26.4 11.6,24.7 11.6,22.9 C11.6,18.6 15.1,15.1 19.4,15.1 C23.4,15.1 26.8,18.2 27.1,22.1 C27.2,22.4 27.2,22.6 27.2,22.9 Z" id="Shape" fill="#8FC3FF" fill-rule="nonzero"></path>
                <path d="M27.2,22.9 C27.2,27.2 23.7,30.7 19.4,30.7 C16.9,30.7 14.7,29.5 13.3,27.7 C13.3,27.5 13.3,27.2 13.3,27 C13.3,22.7 16.8,19.2 21.1,19.2 C23.6,19.2 25.8,20.4 27.2,22.2 C27.2,22.4 27.2,22.6 27.2,22.9 Z" id="Shape" class="fill-primary-200" fill-rule="nonzero"></path>
                <path d="M18.1,30.5 C14.4,29.9 11.7,26.7 11.7,22.8 C11.7,18.5 15.2,15 19.5,15 C23.2,15 26.4,17.7 27.1,21.2" id="Shape" class="stroke-primary" stroke-width="3.0654" stroke-linecap="round" stroke-linejoin="round"></path>
                <path d="M26.2,26.7 C25.6,27.8 24.7,28.7 23.7,29.4" id="Shape" class="stroke-primary" stroke-width="3.0654" stroke-linecap="round" stroke-linejoin="round"></path>
                <path d="M24,78.9 L28.8,78.9" id="Shape" class="stroke-primary" stroke-width="3.0654" stroke-linecap="round" stroke-linejoin="round"></path>
                <path d="M10,78.9 L19.9,78.9" id="Shape" class="stroke-primary" stroke-width="3.0654" stroke-linecap="round" stroke-linejoin="round"></path>
                <path d="M10,88.7 L28.8,88.7" id="Shape" class="stroke-primary" stroke-width="3.0654" stroke-linecap="round" stroke-linejoin="round"></path>
                <path d="M18.1,98.5 L28.8,98.5" id="Shape" class="stroke-primary" stroke-width="3.0654" stroke-linecap="round" stroke-linejoin="round"></path>
                <path d="M10,98.5 L13.6,98.5" id="Shape" class="stroke-primary" stroke-width="3.0654" stroke-linecap="round" stroke-linejoin="round"></path>
                <path d="M10,108.3 L28.8,108.3" id="Shape" class="stroke-primary" stroke-width="3.0654" stroke-linecap="round" stroke-linejoin="round"></path>
            </g>
            <g id="Group" transform="translate(43.000000, 4.000000)">
                <path d="M35.3,122.6 L3.2,122.6 C1.5,122.6 0.1,121.2 0.1,119.5 L0.1,3.9 C0.1,2.2 1.5,0.8 3.2,0.8 L35.3,0.8 C37,0.8 38.4,2.2 38.4,3.9 L38.4,119.5 C38.4,121.2 37,122.6 35.3,122.6 Z" id="Shape" class="fill-neutral" fill-rule="nonzero"></path>
                <path d="M37.9,7.8 L37.9,119.8 C37.9,121.4 36.6,122.7 35,122.7 L7.7,122.7 C6.1,122.7 4.8,121.4 4.8,119.8 L4.8,7.8 C4.8,6.2 6.1,4.9 7.7,4.9 L35,4.9 C36.6,4.9 37.9,6.2 37.9,7.8 Z" id="Shape" class="fill-primary-200" fill-rule="nonzero"></path>
                <path d="M37.9,7.8 L37.9,112.4 C37.9,114 36.6,115.3 35,115.3 L7.7,115.3 C6.1,115.3 4.8,114 4.8,112.4 L4.8,7.8 C4.8,6.2 6.1,4.9 7.7,4.9 L35,4.9 C36.6,4.9 37.9,6.2 37.9,7.8 Z" id="Shape" class="fill-primary-100" fill-rule="nonzero"></path>
                <path d="M0,32 L0,3.9 C0,2.2 1.4,0.8 3.1,0.8 L5.5,0.8" id="Shape" class="stroke-primary" stroke-width="3.0654" stroke-linecap="round" stroke-linejoin="round"></path>
                <path d="M0,94.6 L0,41.3" id="Shape" class="stroke-primary" stroke-width="3.0654" stroke-linecap="round" stroke-linejoin="round"></path>
                <path d="M23.7,0.8 L35.3,0.8 C37,0.8 38.4,2.2 38.4,3.9 L38.4,119.5 C38.4,121.2 37,122.6 35.3,122.6 L3.2,122.6 C1.5,122.6 0.1,121.2 0.1,119.5 L0.1,104.4" id="Shape" class="stroke-primary" stroke-width="3.0654" stroke-linecap="round" stroke-linejoin="round"></path>
                <path d="M3.1,0.8 L17.8,0.8" id="Shape" class="stroke-primary" stroke-width="3.0654" stroke-linecap="round" stroke-linejoin="round"></path>
                <path d="M27,22.9 C27,27.2 23.5,30.7 19.2,30.7 C16.7,30.7 14.5,29.5 13.1,27.7 C12.1,26.4 11.4,24.7 11.4,22.9 C11.4,18.6 14.9,15.1 19.2,15.1 C23.2,15.1 26.6,18.2 26.9,22.1 C26.9,22.4 27,22.6 27,22.9 Z" id="Shape" fill="#8FC3FF" fill-rule="nonzero"></path>
                <path d="M27,22.9 C27,27.2 23.5,30.7 19.2,30.7 C16.7,30.7 14.5,29.5 13.1,27.7 C13.1,27.5 13.1,27.2 13.1,27 C13.1,22.7 16.6,19.2 20.9,19.2 C23.4,19.2 25.6,20.4 27,22.2 C26.9,22.4 27,22.6 27,22.9 Z" id="Shape" class="fill-primary-200" fill-rule="nonzero"></path>
                <circle id="Oval" class="stroke-primary" stroke-width="3.0654" stroke-linecap="round" stroke-linejoin="round" cx="19.2" cy="22.9" r="7.8"></circle>
                <path d="M23.8,78.9 L28.6,78.9" id="Shape" class="stroke-primary" stroke-width="3.0654" stroke-linecap="round" stroke-linejoin="round"></path>
                <path d="M9.8,78.9 L19.7,78.9" id="Shape" class="stroke-primary" stroke-width="3.0654" stroke-linecap="round" stroke-linejoin="round"></path>
                <path d="M9.8,88.7 L28.6,88.7" id="Shape" class="stroke-primary" stroke-width="3.0654" stroke-linecap="round" stroke-linejoin="round"></path>
                <path d="M17.9,98.5 L28.6,98.5" id="Shape" class="stroke-primary" stroke-width="3.0654" stroke-linecap="round" stroke-linejoin="round"></path>
                <path d="M9.8,98.5 L13.4,98.5" id="Shape" class="stroke-primary" stroke-width="3.0654" stroke-linecap="round" stroke-linejoin="round"></path>
                <path d="M9.8,108.3 L28.6,108.3" id="Shape" class="stroke-primary" stroke-width="3.0654" stroke-linecap="round" stroke-linejoin="round"></path>
            </g>
            <g id="Group" transform="translate(83.000000, 0.000000)">
                <path d="M58.8,120.3 L27.3,126.6 C25.6,126.9 23.9,125.8 23.6,124.1 L0.9,10.8 C0.6,9.1 1.7,7.4 3.4,7.1 L34.9,0.8 C36.6,0.5 38.3,1.6 38.6,3.3 L61.3,116.6 C61.6,118.3 60.5,119.9 58.8,120.3 Z" id="Shape" class="fill-neutral" fill-rule="nonzero"></path>
                <path d="M38.7,7.1 L60.7,116.9 C61,118.5 60,120 58.5,120.3 L31.7,125.7 C30.1,126 28.6,125 28.3,123.5 L6.3,13.7 C6,12.1 7,10.6 8.5,10.3 L35.3,4.9 C36.9,4.6 38.4,5.6 38.7,7.1 Z" id="Shape" class="fill-primary-200" fill-rule="nonzero"></path>
                <path d="M38.7,7.1 L59.3,109.7 C59.6,111.3 58.6,112.8 57.1,113.1 L30.3,118.5 C28.7,118.8 27.2,117.8 26.9,116.3 L6.3,13.7 C6,12.1 7,10.6 8.5,10.3 L35.3,4.9 C36.9,4.6 38.4,5.6 38.7,7.1 Z" id="Shape" class="fill-primary-100" fill-rule="nonzero"></path>
                <path d="M59.4,107.3 L61.3,116.6 C61.6,118.3 60.5,120 58.8,120.3 L27.3,126.6 C25.6,126.9 23.9,125.8 23.6,124.1 L0.9,10.8 C0.6,9.1 1.7,7.4 3.4,7.1 L5.8,6.6" id="Shape" class="stroke-primary" stroke-width="3.0654" stroke-linecap="round" stroke-linejoin="round"></path>
                <path d="M57.3,97.1 L57.7,99.2" id="Shape" class="stroke-primary" stroke-width="3.0654" stroke-linecap="round" stroke-linejoin="round"></path>
                <path d="M33.6,1.1 L34.8,0.9 C36.5,0.6 38.2,1.7 38.5,3.4 L54.9,85.2" id="Shape" class="stroke-primary" stroke-width="3.0654" stroke-linecap="round" stroke-linejoin="round"></path>
                <path d="M4.9,6.8 L22.2,3.4" id="Shape" class="stroke-primary" stroke-width="3.0654" stroke-linecap="round" stroke-linejoin="round"></path>
                <path d="M31,24.1 C31.8,28.3 29.1,32.4 24.9,33.2 C22.5,33.7 20.1,33 18.3,31.5 C17,30.4 16.1,28.9 15.7,27.1 C14.9,22.9 17.6,18.8 21.8,18 C25.8,17.2 29.6,19.6 30.8,23.4 C30.9,23.6 30.9,23.9 31,24.1 Z" id="Shape" fill="#8FC3FF" fill-rule="nonzero"></path>
                <path d="M31,24.1 C31.8,28.3 29.1,32.4 24.9,33.2 C22.5,33.7 20.1,33 18.3,31.5 C18.2,31.3 18.2,31 18.1,30.8 C17.3,26.6 20,22.5 24.2,21.7 C26.6,21.2 29,21.9 30.8,23.4 C30.9,23.6 30.9,23.9 31,24.1 Z" id="Shape" class="fill-primary-200" fill-rule="nonzero"></path>
                <path d="M27.2,32.4 C26.5,32.8 25.8,33.1 25,33.2 C20.8,34 16.7,31.3 15.9,27.1 C15.1,22.9 17.8,18.8 22,18 C26.2,17.2 30.3,19.9 31.1,24.1 C31.2,24.8 31.3,25.6 31.2,26.3" id="Shape" class="stroke-primary" stroke-width="3.0654" stroke-linecap="round" stroke-linejoin="round"></path>
                <path d="M38.9,79.7 L43.6,78.7" id="Shape" class="stroke-primary" stroke-width="3.0654" stroke-linecap="round" stroke-linejoin="round"></path>
                <path d="M25.2,82.4 L34.9,80.5" id="Shape" class="stroke-primary" stroke-width="3.0654" stroke-linecap="round" stroke-linejoin="round"></path>
                <path d="M27.1,92 L45.6,88.3" id="Shape" class="stroke-primary" stroke-width="3.0654" stroke-linecap="round" stroke-linejoin="round"></path>
                <path d="M37,100.1 L47.5,98" id="Shape" class="stroke-primary" stroke-width="3.0654" stroke-linecap="round" stroke-linejoin="round"></path>
                <path d="M29,101.7 L32.5,100.9" id="Shape" class="stroke-primary" stroke-width="3.0654" stroke-linecap="round" stroke-linejoin="round"></path>
                <path d="M31,111.3 L49.4,107.6" id="Shape" class="stroke-primary" stroke-width="3.0654" stroke-linecap="round" stroke-linejoin="round"></path>
            </g>
        </g>
    </g>
</svg>