<?xml version="1.0" encoding="UTF-8"?>
<svg width="150px" height="111px" viewBox="0 0 150 111" version="1.1" xmlns="http://www.w3.org/2000/svg" xmlns:xlink="http://www.w3.org/1999/xlink">
    <!-- Generator: Sketch 51.2 (57519) - http://www.bohemiancoding.com/sketch -->
    <title>Game_Controller</title>
    <desc>Created with Sketch.</desc>
    <defs></defs>
    <g id="Page-1" stroke="none" stroke-width="1" fill="none" fill-rule="evenodd">
        <g id="Game_Controller" transform="translate(2.000000, 2.000000)">
            <path d="M83.6,10.2 L93.3,10.2 C98.8,4 106.8,0 115.8,0 C126.6,0 136.1,5.7 141.4,14.3 C144.2,18.8 145.8,24.2 145.8,29.9 C145.8,36.6 143.6,42.7 139.9,47.7 L141.1,87.9 C141.2,88.5 141.2,89.2 141.2,89.8 C141.2,96.9 136.7,103.3 129.8,105.6 C123.8,107.6 117.5,106 113.2,101.9 C111.5,100.3 110.1,98.3 109.2,96 L100.8,74.5 L98.3,68 C96.6,73 91.9,76.7 86.3,76.7 C83.2,76.7 80.3,75.6 78.1,73.7 C77.6,73.3 77,72.8 76.6,72.2 C75.5,70.9 74.6,69.4 74.1,67.7 L72.3,67.7 C70.7,72.9 65.9,76.7 60.2,76.7 C57.1,76.7 54.3,75.6 52.1,73.7 C51.9,73.6 51.8,73.5 51.6,73.3 C50.2,72 49,70.3 48.3,68.4 L37.2,96.7 C34.6,103.2 28.4,107.1 21.8,107.1 C20,107.1 18.3,106.8 16.5,106.2 C14.1,105.4 12.1,104.1 10.4,102.5 C6.7,99 4.7,93.8 5.3,88.5 L6.5,48.3 C2.8,43.3 0.6,37.2 0.6,30.5 C0.6,13.9 14,0.5 30.6,0.5 C39.2,0.5 46.9,4.1 52.4,9.9 L83.6,9.9" id="Shape" class="fill-neutral" fill-rule="nonzero"></path>
            <path d="M141.1,88 C141.2,88.6 141.2,89.3 141.2,89.9 C141.2,97 136.7,103.4 129.8,105.7 C123.8,107.7 117.5,106.1 113.2,102 C113,101.5 112.7,101.1 112.6,100.6 L101.6,72.7 C101.4,73.4 101.1,74 100.8,74.6 L98.3,68.1 C96.6,73.1 91.9,76.8 86.3,76.8 C83.2,76.8 80.3,75.7 78.1,73.8 C77.9,73.3 77.7,72.8 77.5,72.3 L76.6,72.3 C75.5,71 74.6,69.5 74.1,67.8 L72.3,67.8 C70.7,73 65.9,76.8 60.2,76.8 C57.1,76.8 54.3,75.7 52.1,73.8 C52,73.6 51.9,73.3 51.8,73 L51.7,73.4 C50.3,72.1 49.1,70.4 48.4,68.5 L37.3,96.8 C34.7,103.3 28.5,107.2 21.9,107.2 C20.1,107.2 18.4,106.9 16.6,106.3 C14.2,105.5 12.2,104.2 10.5,102.6 C9.1,99.8 8.4,96.5 8.8,93.1 L10,52.9 C6.3,47.9 4.1,41.8 4.1,35.1 C4.1,18.5 17.5,5.1 34.1,5.1 C42.7,5.1 50.4,8.7 55.9,14.5 L96.9,14.5 C102.4,8.3 110.4,4.3 119.4,4.3 C128.2,4.3 136.1,8.1 141.6,14.1 C144.4,18.6 146,24 146,29.7 C146,36.4 143.8,42.5 140.1,47.5 L141.1,88 Z" id="Shape" class="fill-primary-100" fill-rule="nonzero"></path>
            <path d="M142.1,44.6 C138.5,57.1 127,66.3 113.3,66.3 C105.5,66.3 98.3,63.3 93,58.4 L97.1,54.3 C102.2,58.3 108.6,60.7 115.6,60.7 C127.1,60.7 137.1,54.2 142.1,44.6 Z" id="Shape" class="fill-primary-200" fill-rule="nonzero"></path>
            <path d="M3.2,44.6 C6.8,57.1 18.3,66.3 32,66.3 C39.8,66.3 47,63.3 52.3,58.4 L48.2,54.3 C43.1,58.3 36.7,60.7 29.7,60.7 C18.2,60.7 8.2,54.2 3.2,44.6 Z" id="Shape" class="fill-primary-200" fill-rule="nonzero"></path>
            <path d="M139.9,47.8 L141.1,88 C142,95.8 137.3,103.2 129.9,105.7 C121.6,108.5 112.5,104.3 109.2,96.1 L92,52.3" id="Shape" class="stroke-primary" stroke-width="3" stroke-linecap="round" stroke-linejoin="round"></path>
            <circle id="Oval" class="stroke-primary" stroke-width="3" stroke-linecap="round" stroke-linejoin="round" cx="115.8" cy="30" r="30"></circle>
            <path d="M6.4,48.6 L5.2,88.8 C4.3,96.6 9,104 16.4,106.5 C24.7,109.3 33.8,105.1 37.1,96.9 L54.3,53.1" id="Shape" class="stroke-primary" stroke-width="3" stroke-linecap="round" stroke-linejoin="round"></path>
            <path d="M19,3.1 C19.2,3 19.4,2.9 19.6,2.9" id="Shape" class="stroke-primary" stroke-width="3" stroke-linecap="round" stroke-linejoin="round"></path>
            <path d="M24.5,1.4 C26.4,1 28.4,0.8 30.4,0.8 C46.9,0.8 60.4,14.2 60.4,30.8 C60.4,47.4 47,60.8 30.4,60.8 C13.8,60.8 0.4,47.4 0.4,30.8 C0.4,21.4 4.7,13 11.5,7.5" id="Shape" class="stroke-primary" stroke-width="3" stroke-linecap="round" stroke-linejoin="round"></path>
            <path d="M97.8,24.9 C98.4,24.7 99,24.6 99.6,24.6 C103,24.6 105.7,27.4 105.7,30.7 C105.7,34 102.9,36.8 99.6,36.8 C96.3,36.8 93.5,34 93.5,30.7 C93.5,30.5 93.5,30.3 93.5,30.1" id="Shape" class="stroke-primary" stroke-width="3" stroke-linecap="round" stroke-linejoin="round"></path>
            <path d="M124.2,30.8 C124.2,27.4 127,24.7 130.3,24.7 C130.8,24.7 131.4,24.8 131.8,24.9" id="Shape" class="stroke-primary" stroke-width="3" stroke-linecap="round" stroke-linejoin="round"></path>
            <path d="M136.4,29.4 C136.5,29.8 136.5,30.3 136.5,30.7 C136.5,34.1 133.7,36.8 130.4,36.8 C129.5,36.8 128.7,36.6 128,36.3" id="Shape" class="stroke-primary" stroke-width="3" stroke-linecap="round" stroke-linejoin="round"></path>
            <circle id="Oval" class="stroke-primary" stroke-width="3" stroke-linecap="round" stroke-linejoin="round" cx="115" cy="15.4" r="6.1"></circle>
            <circle id="Oval" class="stroke-primary" stroke-width="3" stroke-linecap="round" stroke-linejoin="round" cx="115" cy="46.1" r="6.1"></circle>
            <polyline id="Shape" class="stroke-primary" stroke-width="3" stroke-linecap="round" stroke-linejoin="round" points="20.8 35.4 16.7 35.4 16.7 26.1 25.9 26.1 25.9 16.9 35.1 16.9 35.1 26.1"></polyline>
            <polyline id="Shape" class="stroke-primary" stroke-width="3" stroke-linecap="round" stroke-linejoin="round" points="40 26.1 44.3 26.1 44.3 35.4 35.1 35.4 35.1 44.6 25.9 44.6 25.9 35.4"></polyline>
            <path d="M70.4,21.5 L79.7,21.5" id="Shape" class="stroke-primary" stroke-width="3" stroke-linecap="round" stroke-linejoin="round"></path>
            <path d="M84.3,10 L84.8,10" id="Shape" class="stroke-primary" stroke-width="3" stroke-linecap="round" stroke-linejoin="round"></path>
            <path d="M52.1,10 L78.2,10" id="Shape" class="stroke-primary" stroke-width="3" stroke-linecap="round" stroke-linejoin="round"></path>
            <circle id="Oval" class="fill-neutral" fill-rule="nonzero" cx="86.2" cy="64.2" r="12.7"></circle>
            <circle id="Oval" class="fill-neutral" fill-rule="nonzero" cx="60.1" cy="64.2" r="12.7"></circle>
            <circle id="Oval" class="fill-primary-400" fill-rule="nonzero" cx="88.1" cy="66.1" r="10.7"></circle>
            <circle id="Oval" class="fill-primary-400" fill-rule="nonzero" cx="62" cy="66.1" r="10.7"></circle>
            <path d="M78.9,53.8 C81,52.4 83.5,51.5 86.2,51.5 C93.2,51.5 98.9,57.2 98.9,64.2 C98.9,71.2 93.2,76.9 86.2,76.9 C79.2,76.9 73.5,71.2 73.5,64.2" id="Shape" class="stroke-primary" stroke-width="3" stroke-linecap="round" stroke-linejoin="round"></path>
            <path d="M66.3,75.8 C64.7,76.5 63,76.9 61.2,76.9 C54.2,76.9 48.5,71.2 48.5,64.2 C48.5,57.2 54.2,51.5 61.2,51.5 C68.1,51.5 73.4,57 73.5,63.9" id="Shape" class="stroke-primary" stroke-width="3" stroke-linecap="round" stroke-linejoin="round"></path>
        </g>
    </g>
</svg>