<?xml version="1.0" encoding="UTF-8"?>
<svg width="106px" height="136px" viewBox="0 0 106 136" version="1.1" xmlns="http://www.w3.org/2000/svg" xmlns:xlink="http://www.w3.org/1999/xlink">
    <!-- Generator: Sketch 51.2 (57519) - http://www.bohemiancoding.com/sketch -->
    <title>Glove</title>
    <desc>Created with Sketch.</desc>
    <defs></defs>
    <g id="Page-1" stroke="none" stroke-width="1" fill="none" fill-rule="evenodd">
        <g id="Glove" transform="translate(1.000000, 2.000000)">
            <path d="M95,117.4 C95,121.5 94.3,125.5 86.7,128 C79.1,130.5 64,131.4 64,131.4 L57,125.3 L50.7,132.7 C50.7,132.7 40.1,132.3 31.1,130.4 C22.1,128.6 20.5,124.8 19.4,117.4 C18.5,111.4 19.2,105.2 20.1,98.1 C20.3,96.4 20.5,94.7 20.7,93 C20.7,92.7 20.8,92.4 20.8,92.1 L55.8,99.5 L88.6,91.6 C89.5,94.1 90.2,96.4 90.9,98.5 C94,108 95,114.1 95,117.4 Z" id="Shape" class="fill-primary-400" fill-rule="nonzero"></path>
            <path d="M91,98.5 C88.5,99.9 85.5,101.2 82.1,102.4 C67.7,107.3 49.7,111.8 33.3,104.4 C28.4,102.2 24,100.2 20.1,98.1 C20.3,96.4 20.5,94.7 20.7,93 C20.7,92.7 20.8,92.4 20.8,92.1 L55.8,99.5 L88.6,91.6 C89.6,94.1 90.4,96.4 91,98.5 Z" id="Shape" class="fill-primary-600" fill-rule="nonzero"></path>
            <path d="M100.7,49.1 C103.3,44.8 103.6,39.3 103.4,33.1 C103,20.3 102.3,14.4 90.6,6.8 C78.9,-0.8 54.6,0.5 54.6,0.5 C39.4,0.7 6.7,-1.1 9.4,32.5 C8.4,33.1 7.6,33.9 6.7,34.9 C0.9,41.6 -0.3,47.3 2.2,66.2 C4.7,85.1 15.5,89.4 31.9,96.8 C48.3,104.2 66.3,99.7 80.7,94.8 C95.1,89.9 101.4,82.9 101.4,74.8 C101.4,66.7 100.7,64 100.7,50.1 C100.7,49.7 100.7,49.4 100.7,49.1 Z" id="Shape" class="fill-neutral" fill-rule="nonzero"></path>
            <path d="M100.9,53.5 L100.9,54.3 C100.9,57.4 100.9,59.9 101,62 C101.2,68.6 101.5,71.4 101.5,77 C101.5,84.4 95.7,90.8 82.3,95.3 C69,99.8 52.3,104 37.1,97.2 C27,92.7 19.3,89.5 14.5,82.8 C12,79.4 10.4,75 9.6,69.2 C7.3,51.9 8.3,46.7 13.8,40.5 C14.3,39.9 14.8,39.4 15.4,39 C26.1,36.1 55.3,36.8 61.1,44.9 C67.4,53.8 63.1,43.5 63.1,43.5 C63.1,43.5 64.9,37.3 54.8,34.8 C44.7,32.3 25.2,27.9 16.6,30 C17.7,22.5 21.3,17.7 26.1,14.6 C29.8,12.2 34.3,10.8 38.9,10 C45.9,8.8 53.2,8.9 58.3,8.9 C58.3,8.9 80.8,7.7 91.6,14.7 C95.8,17.4 98.4,19.9 100.1,22.5 C102.8,26.8 103.2,31.6 103.4,38.8 C103.5,42.8 103.4,46.4 102.6,49.5 C102.2,50.9 101.6,52.2 100.9,53.5 Z" id="Shape" fill="#BAD8FF" fill-rule="nonzero"></path>
            <path d="M103.2,36 C103.2,52.5 97.8,52.4 97.8,61.3 C97.8,70.2 90.8,77.8 74.8,83.3 C58.8,88.8 38.9,93.7 20.6,85.5 C18.4,84.5 16.3,83.6 14.4,82.7 C11.9,79.3 10.3,74.9 9.5,69.1 C7.2,51.8 8.2,46.6 13.7,40.4 C14.2,39.8 14.7,39.3 15.3,38.9 C26,36 55.2,36.7 61,44.8 C67.3,53.7 63,43.4 63,43.4 C63,43.4 64.8,37.2 54.7,34.7 C44.6,32.2 25.1,27.8 16.5,29.9 C17.6,22.4 21.2,17.6 26,14.5 C29.7,12.1 34.2,10.7 38.8,9.9 C45.8,8.7 53.1,8.8 58.2,8.8 C58.2,8.8 80.7,7.6 91.5,14.6 C95.7,17.3 98.3,19.8 100,22.4 C102.3,25.7 104.1,28.8 103.2,36 Z" id="Shape" class="fill-primary-100" fill-rule="nonzero"></path>
            <path d="M62.1,59 C62.1,59 62.1,59.1 62,59.2 C61.9,59.1 62.1,59 62.1,59 Z" id="Shape" fill="#BAD8FF" fill-rule="nonzero"></path>
            <path d="M100.9,53.4 L100.9,54.2 C100.9,57.3 100.9,59.8 101,61.9 C101,61.9 100.9,61.9 100.9,61.9 C76.8,72 64.2,65 64.2,65 C64.2,65 62.2,70.8 47.8,72.9 C30.9,75.4 23.4,69.5 24.4,64.5 C24.4,64.5 26.1,66.1 32.8,67.7 C39,69.2 42.7,68.3 51.3,67.5 C59.3,66.8 61.7,60.3 62.1,59.2 C62.4,59.3 63.9,59.6 69.4,59.9 C78.4,60.3 92,58.2 99.6,51.8 C100.7,50.9 101.7,50.1 102.5,49.4 C102.1,50.9 101.6,52.2 100.9,53.4 Z" id="Shape" fill="#BAD8FF" fill-rule="nonzero"></path>
            <path d="M41.2,0.8 C46.2,0.5 50.9,0.5 54.6,0.5 C54.6,0.5 78.9,-0.8 90.6,6.8 C102.3,14.4 103,20.3 103.4,33.1 C103.8,45.9 102.1,55.4 82.9,58.5 C69,60.8 63.9,59.8 62.2,59" id="Shape" class="stroke-primary" stroke-width="3" stroke-linecap="round" stroke-linejoin="round"></path>
            <path d="M28.4,2.9 C28.6,2.8 28.8,2.8 29.1,2.7" id="Shape" class="stroke-primary" stroke-width="3" stroke-linecap="round" stroke-linejoin="round"></path>
            <path d="M9.3,32.5 C8.1,17.8 13.7,9.9 21.7,5.6" id="Shape" class="stroke-primary" stroke-width="3" stroke-linecap="round" stroke-linejoin="round"></path>
            <path d="M59.2,37.6 C62,40.2 63.7,44 63.8,49.7 C64,67.5 47.8,68.4 41.8,68.6 C36.9,68.8 31.9,69 25.1,64.2" id="Shape" class="stroke-primary" stroke-width="3" stroke-linecap="round" stroke-linejoin="round"></path>
            <path d="M100.7,49.1 C100.7,49.4 100.7,49.7 100.7,50 C100.7,63.9 101.4,66.6 101.4,74.7 C101.4,82.8 95.1,89.8 80.7,94.7 C66.3,99.6 48.3,104.1 31.9,96.7 C15.5,89.3 4.7,85 2.2,66.1 C-0.3,47.2 0.9,41.6 6.7,34.8 C12.5,28.1 21.1,29.6 34.1,31 C39.2,31.5 44.8,31.8 49.8,33" id="Shape" class="stroke-primary" stroke-width="3" stroke-linecap="round" stroke-linejoin="round"></path>
            <path d="M57,125.2 L57.5,104.6" id="Shape" class="stroke-primary" stroke-width="3" stroke-linecap="round" stroke-linejoin="round"></path>
            <path d="M19.6,102.7 C19,107.9 18.8,112.7 19.5,117.3 C20.6,124.7 22.2,128.5 31.2,130.3 C40.2,132.1 50.8,132.5 50.8,132.5 L52.6,130.3" id="Shape" class="stroke-primary" stroke-width="3" stroke-linecap="round" stroke-linejoin="round"></path>
            <path d="M88.7,91.6 C93.4,105.1 95,113.3 95,117.4 C95,121.5 94.3,125.5 86.7,128 C79.1,130.5 64,131.4 64,131.4 L57,125.3" id="Shape" class="stroke-primary" stroke-width="3" stroke-linecap="round" stroke-linejoin="round"></path>
            <path d="M47.5,109.9 L61.3,117.7" id="Shape" class="stroke-primary" stroke-width="3" stroke-linecap="round" stroke-linejoin="round"></path>
            <path d="M67.1,109.9 L53.3,117.7" id="Shape" class="stroke-primary" stroke-width="3" stroke-linecap="round" stroke-linejoin="round"></path>
        </g>
    </g>
</svg>