<?xml version="1.0" encoding="UTF-8"?>
<svg width="150px" height="99px" viewBox="0 0 150 99" version="1.1" xmlns="http://www.w3.org/2000/svg" xmlns:xlink="http://www.w3.org/1999/xlink">
    <!-- Generator: Sketch 51.2 (57519) - http://www.bohemiancoding.com/sketch -->
    <title>Group</title>
    <desc>Created with Sketch.</desc>
    <defs></defs>
    <g id="Page-1" stroke="none" stroke-width="1" fill="none" fill-rule="evenodd">
        <g id="Group" transform="translate(2.000000, 2.000000)">
            <g transform="translate(90.000000, 21.000000)" id="Shape">
                <path d="M56.7,56.8 L0.4,56.8 C1.1,50.7 0.7,50.3 6.8,47.8 L8,47.3 C10.2,46.4 13.2,45.3 17.2,43.6 C18.6,43 19.6,41.6 19.6,40.1 L19.6,32.6 C19.5,32.4 19.3,32.2 19.2,32 C19.1,31.9 19,31.8 19,31.6 C18.9,31.5 18.9,31.4 18.8,31.3 C18.6,31 18.5,30.7 18.4,30.3 C18.4,30.2 18.3,30.1 18.3,29.9 C18.3,29.8 18.2,29.6 18.2,29.5 C18.2,29.3 18.1,29.1 18.1,28.9 L17.5,28.6 C15.6,29.1 15.7,27 15.2,23.1 C15,21.5 15.2,21.1 16,20.9 L16.6,20.1 C12.9,11.7 14.8,6.5 18.4,4.6 C17.2,1.9 17.1,1 17.1,1 C17.1,1 24.9,2.3 27.5,1.8 C30.9,1.1 36.1,1.9 38,6.4 C41.2,7.7 42.5,9.7 42.8,11.9 C42.8,12.1 42.9,12.4 42.9,12.7 C43,16.1 41.2,19.6 40.9,20.9 C40.9,20.9 41,20.9 41,21 C41.2,21.1 41.3,21.2 41.4,21.4 C41.4,21.4 41.4,21.5 41.5,21.5 C41.5,21.5 41.5,21.5 41.5,21.5 C41.5,21.5 41.5,21.6 41.5,21.7 C41.6,22 41.6,22.5 41.5,23.1 C41.4,23.5 41.4,23.9 41.4,24.3 C41.3,25 41.3,25.6 41.2,26.2 C41.2,26.5 41.1,26.7 41.1,26.9 C41.1,27.1 41,27.3 41,27.4 C40.9,27.7 40.8,28 40.6,28.2 C40.6,28.2 40.6,28.3 40.5,28.3 C40.3,28.6 39.9,28.7 39.4,28.6 C39.4,28.6 39.3,28.6 39.3,28.6 L38.9,29.4 L37.6,31.6 C37.6,31.7 37.6,31.8 37.5,31.9 C37.4,32.2 37.4,32.3 37.4,32.9 C37.4,33.7 37.4,35.5 37.4,40.1 C37.4,41.7 38.3,43.1 39.8,43.6 C40.1,43.7 40.4,43.9 40.8,44 C40.8,44 40.8,44 40.8,44 C41,44.1 41.1,44.1 41.3,44.2 C41.6,44.3 42,44.5 42.3,44.6 C42.3,44.6 42.3,44.6 42.3,44.6 C46.4,46.3 49.3,47.3 51.3,48.2 C51.4,48.2 51.4,48.2 51.5,48.3 C52.1,48.5 52.5,48.8 53,49 C53.7,49.4 54.3,49.7 54.7,50.1 C54.7,50.1 54.8,50.2 54.8,50.2 C54.8,50.2 54.9,50.3 54.9,50.3 C55.2,50.6 55.5,51 55.7,51.4 C55.8,51.5 55.8,51.7 55.9,51.8 C55.9,51.9 56,52.1 56,52.2 C56,52.4 56.1,52.6 56.1,52.8 C56.1,53 56.2,53.3 56.2,53.5 C56.2,53.6 56.2,53.7 56.3,53.9 C56.3,54 56.3,54.1 56.3,54.2 C56.3,54.3 56.3,54.5 56.3,54.7 C56.3,54.9 56.4,55.1 56.4,55.3 C56.4,55.4 56.4,55.6 56.4,55.7 C56.4,55.7 56.4,55.8 56.4,55.8 C56.4,55.9 56.4,56 56.4,56.1 C56.6,56.3 56.6,56.6 56.7,56.8 Z" class="fill-neutral" fill-rule="nonzero"></path>
                <path d="M56.7,56.8 L7.5,56.8 C8.1,51.3 7.8,50.9 13.1,48.6 L14.1,48.2 C16.1,47.4 18.7,46.4 22.2,44.9 C23.5,44.4 24.3,43.1 24.3,41.7 L24.3,34.9 C23.5,34 23.1,32.8 23,31.5 L22.4,31.2 C20.7,31.6 20.8,29.8 20.4,26.2 C20.2,24.7 20.4,24.4 21.1,24.2 L21.6,23.5 C18.4,15.9 20,11.1 23.2,9.5 C22.1,7.1 22.1,6.2 22.1,6.2 C22.1,6.2 28.9,7.4 31.2,6.9 C34.2,6.3 38.7,7 40.4,11.1 C41.5,11.5 42.3,12.1 42.9,12.7 C43,16.1 41.2,19.6 40.9,20.9 C40.9,20.9 41,20.9 41,21 C41.2,21.1 41.3,21.2 41.4,21.4 C41.4,21.4 41.4,21.5 41.5,21.5 C41.5,21.5 41.5,21.5 41.5,21.5 C41.5,21.5 41.5,21.6 41.5,21.7 C41.6,22 41.6,22.5 41.5,23.1 C41.4,23.5 41.4,23.9 41.4,24.3 C41.3,25 41.3,25.6 41.2,26.2 C41.2,26.5 41.1,26.7 41.1,26.9 C41.1,27.1 41,27.3 41,27.4 C41,27.5 41,27.5 41,27.6 C40.9,27.9 40.8,28.1 40.7,28.2 C40.7,28.2 40.7,28.3 40.6,28.3 C40.4,28.6 40,28.7 39.5,28.6 C39.5,28.6 39.4,28.6 39.4,28.6 L39,29.4 C38.7,30.3 38.3,31.2 37.7,31.9 C37.6,32.2 37.6,32.3 37.6,32.9 L37.6,40.1 C37.6,41.7 38.5,43.1 40,43.6 C40.3,43.7 40.6,43.9 41,44 C41,44 41,44 41,44 C41.3,44.3 41.7,44.6 42.1,44.8 C42.1,44.8 42.1,44.8 42.2,44.8 C42.2,44.8 42.2,44.8 42.2,44.8 C53.7,49.7 55.7,49.6 56.4,52.8 C56.4,53 56.5,53.3 56.5,53.5 C56.5,53.6 56.5,53.7 56.6,53.9 C56.6,54 56.6,54.1 56.6,54.2 C56.6,54.4 56.6,54.6 56.7,54.8 C56.7,55 56.7,55.1 56.8,55.3 C56.8,55.4 56.8,55.6 56.8,55.7 C56.8,55.7 56.8,55.8 56.8,55.8 C56.8,55.9 56.8,56 56.8,56.1 C56.6,56.3 56.6,56.6 56.7,56.8 Z" class="fill-primary-100" fill-rule="nonzero"></path>
                <path d="M6.9,47.8 C7.3,47.6 7.7,47.5 8.1,47.3"></path>
                <g transform="translate(8.000000, 11.000000)" class="stroke-primary" stroke-linecap="round" stroke-linejoin="round" stroke-width="3">
                    <path d="M0.5,36.2 C3.6,35 7,33.6 9.3,32.6 C10.7,32 11.7,30.6 11.7,29.1 L11.7,21.6"></path>
                    <path d="M32.1,9.6 C32.2,9.3 32.2,8.7 32.2,8.1 C32.2,8.1 32,2.3 24,2 C15.9,1.7 15.2,3.1 12.6,0.8 C13.8,2.6 12.7,6.7 10.2,9.2"></path>
                    <path d="M31.1,17.1 C31.1,17.5 31,17.9 30.9,18.3 C30.6,19.2 30.2,20.1 29.6,20.8 C29.3,21.1 29,21.4 28.7,21.7 L23.2,26.6 C21.8,27.7 19.8,27.7 18.5,26.5 L16.4,25 L12.7,22.4 C12.4,22.1 12.1,21.8 11.8,21.5 C11.8,21.5 11.8,21.5 11.8,21.5 C11.7,21.3 11.5,21.1 11.4,20.9 C11.3,20.8 11.2,20.7 11.2,20.5 C11.1,20.4 11.1,20.3 11,20.2 C10.8,19.9 10.7,19.6 10.6,19.2 C10.6,19.1 10.5,19 10.5,18.8 C10.5,18.7 10.4,18.5 10.4,18.4 C10.4,18.2 10.3,18 10.3,17.8"></path>
                    <path d="M8.6,9.6 C7.4,10 7,10 7.2,12 C7.4,14 7.5,15.3 7.8,16.6 C8.1,17.9 9.4,17.5 9.4,17.5"></path>
                    <path d="M29.4,21 L29.4,21.8 L29.4,29 C29.4,30.6 30.3,32 31.8,32.5 C32.1,32.6 32.4,32.8 32.8,32.9 C32.8,32.9 32.8,32.9 32.8,32.9 C33,33 33.1,33 33.3,33.1 C33.6,33.2 34,33.4 34.3,33.5 C34.3,33.5 34.3,33.5 34.3,33.5 C37.2,34.7 40.7,36.1 43.3,37.1 C43.4,37.1 43.4,37.1 43.5,37.2 C45,37.8 45.9,38.3 46.6,38.9 C46.6,38.9 46.7,39 46.7,39 C46.7,39 46.8,39.1 46.8,39.1 C47.1,39.4 47.4,39.8 47.6,40.2 C47.7,40.3 47.7,40.5 47.8,40.6 C47.8,40.7 47.9,40.9 47.9,41 C48.1,41.5 48.1,42.1 48.2,42.7 C48.2,42.8 48.2,42.9 48.2,43 C48.2,43.2 48.2,43.4 48.3,43.6 C48.3,43.8 48.3,43.9 48.4,44.1 C48.4,44.2 48.4,44.4 48.4,44.5 C48.4,44.6 48.4,44.8 48.4,44.9 C48.4,45.1 48.4,45.3 48.5,45.5"></path>
                    <path d="M31.3,17.5 C31.3,17.5 31.3,17.5 31.4,17.5 C31.4,17.5 31.4,17.5 31.4,17.5 C31.6,17.5 32.1,17.5 32.5,17.2 C32.5,17.2 32.6,17.2 32.6,17.1 C32.7,17 32.9,16.8 32.9,16.5 C32.9,16.4 32.9,16.4 32.9,16.3 C32.9,16.1 33,15.9 33,15.8 C33,15.6 33.1,15.3 33.1,15.1 C33.2,14.5 33.2,13.9 33.3,13.2 C33.3,12.8 33.4,12.4 33.4,12 C33.5,11.3 33.5,10.9 33.4,10.6 C33.4,10.5 33.4,10.5 33.4,10.4 C33.4,10.4 33.4,10.4 33.4,10.4 C33.4,10.3 33.4,10.3 33.3,10.3 C33.2,10.1 33.1,10 32.9,9.9 C32.9,9.9 32.8,9.9 32.8,9.8 C32.6,9.7 32.3,9.7 32.1,9.6"></path>
                </g>
                <path d="M16.8,20.5 C12.8,11.8 14.7,6.4 18.4,4.5 C17.2,1.9 17.1,0.9 17.1,0.9 C17.1,0.9 24.9,2.2 27.5,1.7 C30.9,1 36.1,1.8 38.1,6.3 C40.8,7.4 45.6,10.2 41.1,20" class="stroke-primary" stroke-width="3" stroke-linecap="round" stroke-linejoin="round"></path>
            </g>
            <g transform="translate(0.000000, 23.000000)" id="Shape">
                <path d="M0,53.6 C0,53.6 41.2,53.6 45.6,53.6 C45.6,47.7 41.3,39.1 32.5,39.1 C28.1,39.1 27.7,38.8 27.7,38.8 L27.7,33.7 C30.9,31 33.6,27.9 34.4,23.8 C36.4,23.4 37.7,21.5 37.5,19.5 C37.4,18.6 36.8,17.8 36.8,16.9 C36.8,14.3 36.8,11.9 35.1,8.8 C32.6,4 27.6,0.9 21.9,0.9 C20.8,0.9 19.6,1 18.5,1.3 C16.1,1.9 13.8,3 12,4.6 C10.1,6.3 8.6,8.5 7.8,10.9 C7,13.3 6.8,15.9 7.2,18.4 C7.3,18.8 7.4,18.8 7.1,19.2 C6.6,19.9 6.1,21 6.5,22.4 C7.3,24.5 8.8,24.3 10.2,25.5 C10.1,25.6 10,25.6 10,25.6 L8.4,26.1 C-1.1,29.1 -2.1,39.2 7.6,41 L5.9,41.4 C2.1,44.3 0,49.4 0,53.6 Z" class="fill-neutral" fill-rule="nonzero"></path>
                <path d="M9.7,53.6 L45.6,53.6 C45.6,48 41.8,39.7 34,39.7 C30.1,39.7 29.7,39.4 29.7,39.4 L29.7,34.5 C32.6,31.9 35,28.9 35.7,25.1 C37.5,24.7 38.6,22.9 38.4,21 C38.3,20.1 37.8,19.4 37.8,18.5 C37.8,16 37.8,13.7 36.3,10.7 C34,6.1 29.6,3.1 24.5,3.1 C23.5,3.1 22.5,3.2 21.5,3.5 C19.4,4 17.4,5.1 15.7,6.7 C14,8.3 12.7,10.4 12,12.8 C11.3,15.1 11.1,17.6 11.5,20 C11.6,20.4 11.7,20.4 11.4,20.7 C10.9,21.3 10.5,22.4 10.9,23.8 C11.6,25.9 12.9,25.6 14.2,26.8 C14.1,26.8 14.1,26.9 14,26.9 L12.5,27.4 C4.1,30.3 3.1,39.9 11.8,41.7 L10.3,42.1 C8.3,43.7 6.9,46.1 6,48.6 C5,51 7,53.6 9.7,53.6 Z" class="fill-primary-100" fill-rule="nonzero"></path>
                <g class="stroke-primary" stroke-linecap="round" stroke-linejoin="round" stroke-width="3">
                    <path d="M12.6,4.6 L15.2,8.5 C18.6,13.5 28.7,18.6 36.1,14.7 L36.6,14.5"></path>
                    <path d="M7.4,18.9 L8,18.6 C10.9,16.4 13.6,15.2 14.7,12.2"></path>
                    <path d="M0.9,32.9 C0.3,35.4 1.2,38 3.9,39.7 C6.2,41.2 8.9,41 11.5,41.8 C12.6,42.1 13.7,42.6 14.2,43.7 C14.9,45.3 14.1,47.3 13.4,48.8 C24.5,48.3 19,39.2 16,37.3 C12.9,35.3 8.5,33.6 13.2,30"></path>
                    <path d="M9.9,25.6 L8.3,26.1 C4.1,27.4 1.5,30.2 0.8,33"></path>
                    <path d="M42.5,44.5 C40.3,41.4 37,39.1 32.8,39.1 C28,39.1 27.6,38.8 27.6,38.8 L27.6,33.7"></path>
                    <path d="M17.9,38.8 L17.9,34.5"></path>
                    <path d="M0,53.6 C0,49.4 2.1,44.3 5.9,41.4 L6.4,41"></path>
                    <path d="M26.9,34.3 C24.9,35.7 22.5,36.6 20.1,35.6 C18.7,35 17.5,34 16.2,33.1 C12.8,30.7 12.1,27.8 10.8,26 C9.4,24.2 7.4,24.8 6.6,22.4 C6.1,21 6.6,19.9 7.2,19.2 C7.5,18.8 7.4,18.9 7.3,18.4 C7,15.9 7.1,13.3 7.9,10.9 C8.7,8.5 10.1,6.3 12.1,4.6 C12.7,4.1 13.3,3.7 13.9,3.2"></path>
                    <path d="M13.7,3.2 C16.1,1.6 19,0.8 21.8,0.8 C27.5,0.8 32.5,4 35,8.7 C36.7,11.9 36.7,14.3 36.7,16.8 C36.7,17.7 37.3,18.5 37.4,19.4 C37.6,21.4 36.3,23.3 34.3,23.7 C33.7,26.9 31.9,29.5 29.6,31.7 C29,32.3 28.3,33 27.6,33.5"></path>
                </g>
            </g>
            <g transform="translate(22.000000, 0.000000)" id="Shape">
                <path d="M95.8,95.2 L0,95.2 C1.2,84.9 0.5,84.1 11,79.8 L13,79 C16.8,77.5 21.9,75.5 28.7,72.7 C31.1,71.7 32.7,69.3 32.7,66.7 L32.7,54 C32.5,53.8 32.3,53.5 32.2,53.3 C32.1,53.1 31.9,52.9 31.8,52.7 C31.6,52.4 31.5,52.1 31.3,51.8 C31.1,51.3 30.8,50.8 30.7,50.2 C30.6,49.9 30.5,49.7 30.5,49.4 C30.5,49.4 30.5,49.4 30.5,49.4 C30.4,49.1 30.4,48.8 30.3,48.6 C30.2,48.3 30.2,48 30.2,47.7 L29.1,47.2 C25.8,48 26.1,44.5 25.3,37.8 C25,35 25.4,34.4 26.6,34 L27.6,32.6 C21.3,18.3 24.5,9.4 30.7,6.3 C28.6,1.8 28.5,0.2 28.5,0.2 C28.5,0.2 41.7,2.4 46.3,1.5 C51.6,0.5 59.6,1.5 63.4,7.7 C63.7,8.2 64,8.8 64.3,9.4 C64.7,9.6 65.1,9.7 65.4,9.9 C68.5,11.4 70.4,13.3 71.4,15.4 C71.9,16.5 72.2,17.6 72.4,18.8 C73.2,24.9 69.6,31.7 69.1,34.1 C69.1,34.1 69.1,34.1 69.1,34.1 C69.2,34.1 69.3,34.2 69.3,34.2 C69.4,34.2 69.4,34.3 69.5,34.3 C69.6,34.4 69.8,34.5 69.9,34.7 C69.9,34.8 70,34.8 70,34.9 C70,35 70.1,35.1 70.1,35.1 C70.1,35.2 70.2,35.4 70.2,35.5 C70.2,35.5 70.2,35.5 70.2,35.6 C70.3,35.9 70.3,36.4 70.2,36.9 C70.2,37.2 70.2,37.5 70.1,37.8 C70,38.7 69.9,39.5 69.8,40.2 C69.7,41.7 69.5,42.9 69.3,44 C69.3,44.2 69.2,44.5 69.2,44.8 C69,45.6 68.8,46.3 68.5,46.7 C68.5,46.8 68.4,46.8 68.4,46.8 C68,47.3 67.3,47.5 66.4,47.3 C66.4,47.3 66.4,47.3 66.4,47.3 C66.4,47.3 66.3,47.3 66.3,47.3 L65.6,48.5 L63.4,52.4 C63.4,52.6 63.3,52.8 63.3,53 C63,54.2 63.1,54 63.1,66.9 C63.1,69.5 64.7,71.9 67.1,72.9 C67.1,72.9 67.2,72.9 67.2,72.9 C67.2,72.9 67.2,72.9 67.2,72.9 C70.5,74.3 73.5,75.5 76,76.5 C76.3,76.6 76.6,76.7 76.9,76.8 C89.7,81.8 93.1,82.8 94.5,86.8 C94.5,86.8 94.5,86.9 94.5,86.9 C94.5,87 94.6,87.2 94.6,87.3 C94.8,87.9 94.9,88.5 95,89.2 C95.1,89.6 95.1,90 95.2,90.4 C95.2,90.8 95.3,91.2 95.3,91.6 C95.4,92.1 95.4,92.7 95.5,93.4 C95.5,93.4 95.5,93.4 95.5,93.5 C95.7,94 95.8,94.5 95.8,95.2 Z" class="fill-neutral" fill-rule="nonzero"></path>
                <path d="M95.8,95.2 L15.6,95.2 C10.7,95.2 7.2,90.3 9.3,86.1 C10.4,83.8 12.6,82.6 17.8,80.4 L19.7,79.6 C23.2,78.1 27.9,76.3 34.1,73.6 C36.3,72.6 37.8,70.3 37.8,67.8 L37.8,55.5 C36.5,53.8 35.6,51.7 35.4,49.4 L34.4,48.9 C31.4,49.6 31.6,46.3 30.9,39.8 C30.6,37.1 31,36.6 32.1,36.1 L33.1,34.8 C27.3,21.1 30.2,12.5 35.9,9.4 C34,5 33.9,3.5 33.9,3.5 C33.9,3.5 46.1,5.6 50.2,4.8 C54.1,4 59.5,4.5 63.3,7.7 C64,8.3 64.7,9 65.3,9.9 C65.9,10.7 66.3,11.5 66.7,12.5 C68.7,13.3 70.2,14.3 71.3,15.4 C71.8,16.5 72.1,17.6 72.3,18.8 C73.1,24.9 69.5,31.7 69,34.1 C69,34.1 69,34.1 69,34.1 C69.1,34.1 69.2,34.2 69.2,34.2 C69.3,34.2 69.3,34.3 69.4,34.3 C69.5,34.4 69.7,34.5 69.8,34.7 C69.8,34.8 69.9,34.8 69.9,34.9 C69.9,35 70,35.1 70,35.1 C70,35.2 70.1,35.4 70.1,35.5 C70.1,35.5 70.1,35.5 70.1,35.6 C70.2,35.9 70.2,36.4 70.1,36.9 C70.1,37.2 70.1,37.5 70,37.8 C69.9,38.7 69.8,39.5 69.7,40.2 C69.6,41.7 69.4,42.9 69.2,44 C69.2,44.2 69.1,44.5 69.1,44.8 C69.1,45.1 69,45.4 68.9,45.7 C68.8,46.1 68.6,46.5 68.4,46.7 C68.4,46.8 68.3,46.8 68.3,46.8 C67.9,47.3 67.2,47.5 66.3,47.3 C66.3,47.3 66.3,47.3 66.3,47.3 C66.2,47.3 66.2,47.3 66.2,47.3 L65.5,48.5 C65,50.1 64.3,51.6 63.2,52.9 C62.9,54.1 63,53.9 63,66.8 C63,69.4 64.6,71.8 67,72.8 C67,72.8 67.1,72.8 67.1,72.8 C67.1,72.8 67.1,72.8 67.1,72.8 C70.4,74.2 73.4,75.4 75.9,76.4 C76.2,76.5 76.5,76.6 76.8,76.7 C89.5,82 93,82.9 94.4,86.7 C94.4,86.7 94.4,86.8 94.4,86.8 C94.4,86.9 94.5,87.1 94.5,87.2 C94.7,87.8 94.8,88.5 95,89.3 C95.1,89.7 95.1,90.1 95.2,90.5 C95.2,90.9 95.3,91.2 95.3,91.6 C95.4,92.1 95.4,92.7 95.5,93.3 C95.5,93.3 95.5,93.3 95.5,93.4 C95.7,94 95.8,94.5 95.8,95.2 Z" class="fill-primary-100" fill-rule="nonzero"></path>
                <path d="M11,79.8 C11.6,79.5 12.3,79.3 13,79" class="fill-neutral" fill-rule="nonzero"></path>
                <g transform="translate(0.000000, 18.000000)" class="stroke-primary" stroke-linecap="round" stroke-linejoin="round" stroke-width="3">
                    <path d="M15.8,60 C20.5,58.1 25.4,56.1 28.8,54.7 C31.2,53.7 32.8,51.3 32.8,48.7 L32.8,36"></path>
                    <path d="M7.9,63 C8,62.9 8.2,62.9 8.3,62.8"></path>
                    <path d="M0,77.2 C0.4,73.8 0.5,71.3 1.1,69.3"></path>
                    <path d="M67.7,15.5 C67.8,15 67.9,13.9 67.8,12.9 C67.8,12.9 67.5,3.1 53.8,2.6 C40.1,2.1 38.7,4.5 34.5,0.6 C35.8,2.6 35.5,6.2 33.9,9.7"></path>
                    <path d="M66,28.3 C65.9,29 65.8,29.7 65.6,30.3 C65.1,31.9 64.4,33.4 63.3,34.7 C62.8,35.3 62.3,35.8 61.8,36.2 L52.5,44.6 C50.1,46.5 46.7,46.4 44.4,44.5 L38,40 L34.5,37.5 C33.9,37 33.4,36.5 32.9,35.9 C32.7,35.7 32.6,35.4 32.4,35.2 C32.3,35 32.1,34.8 32,34.6 C31.8,34.3 31.7,34 31.5,33.7 C31.3,33.2 31,32.7 30.9,32.1 C30.8,31.8 30.7,31.6 30.7,31.3 C30.7,31.3 30.7,31.3 30.7,31.3 C30.6,31 30.6,30.7 30.5,30.5 C30.4,30.2 30.4,29.9 30.4,29.6"></path>
                    <path d="M27.6,15.6 C25.6,16.2 24.8,16.2 25.2,19.7 C25.6,23.2 25.7,25.4 26.3,27.5 C26.8,29.6 29.1,29.1 29.1,29.1"></path>
                    <path d="M95.8,77.2 C94.8,69 95.5,65.9 86.8,62.7 C80.9,60.5 72.1,56.9 67,54.8 C64.6,53.8 63,51.4 63,48.8 L63,46.8"></path>
                    <path d="M66.3,29.1 C66.3,29.1 66.4,29.1 66.4,29.1 C66.4,29.1 66.4,29.1 66.4,29.1 C66.8,29.2 67.7,29.2 68.4,28.6 C68.4,28.6 68.5,28.5 68.5,28.5 C68.7,28.3 68.9,27.9 69,27.5 C69.1,27.2 69.1,26.9 69.2,26.6 C69.3,26.4 69.3,26.1 69.3,25.8 C69.5,24.7 69.6,23.5 69.8,22 C69.9,21.3 70,20.5 70.1,19.6 C70.1,19.3 70.2,19 70.2,18.7 C70.2,18.2 70.2,17.7 70.2,17.4 C70.2,17.4 70.2,17.4 70.2,17.3 C70.2,17.1 70.1,17 70.1,16.9 C70.1,16.8 70,16.7 70,16.7 C70,16.6 69.9,16.6 69.9,16.5 C69.8,16.4 69.7,16.2 69.5,16.1 C69.4,16.1 69.4,16 69.3,16 C69.2,16 69.1,15.9 69.1,15.9 C69.1,15.9 69.1,15.9 69.1,15.9 C68.8,15.8 68.3,15.6 67.8,15.5"></path>
                </g>
                <path d="M28,33.4 C21.2,18.6 24.3,9.4 30.7,6.2 C28.6,1.7 28.5,0.1 28.5,0.1 C28.5,0.1 41.7,2.3 46.3,1.4 C52.1,0.3 60.9,1.6 64.3,9.3 C68.9,11.1 77.1,15.9 69.4,32.6" class="stroke-primary" stroke-width="3" stroke-linecap="round" stroke-linejoin="round"></path>
            </g>
        </g>
    </g>
</svg>