<?xml version="1.0" encoding="UTF-8"?>
<svg width="149px" height="127px" viewBox="0 0 149 127" version="1.1" xmlns="http://www.w3.org/2000/svg" xmlns:xlink="http://www.w3.org/1999/xlink">
    <!-- Generator: Sketch 51.2 (57519) - http://www.bohemiancoding.com/sketch -->
    <title>Group_2</title>
    <desc>Created with Sketch.</desc>
    <defs></defs>
    <g id="Page-1" stroke="none" stroke-width="1" fill="none" fill-rule="evenodd">
        <g id="Group_2" transform="translate(1.000000, 2.000000)">
            <g id="Group" transform="translate(26.000000, 34.000000)" class="stroke-primary-300" stroke-linecap="round" stroke-linejoin="round" stroke-width="3">
                <path d="M20.2,15.6 L19.8,15.3" id="Shape"></path>
                <path d="M14.2,10.9 L4.1,2.9" id="Shape" stroke-dasharray="1.0307,7.2147"></path>
                <path d="M1.2,0.6 L0.8,0.3" id="Shape"></path>
            </g>
            <g id="Group" transform="translate(91.000000, 82.000000)" class="stroke-primary-300" stroke-linecap="round" stroke-linejoin="round" stroke-width="3">
                <path d="M0,0.5 L0.4,0.7" id="Shape"></path>
                <path d="M6.8,4.8 L32.9,21.1" id="Shape" stroke-dasharray="1.079,7.5529"></path>
                <path d="M36.1,23.1 L36.5,23.4" id="Shape"></path>
            </g>
            <g id="Group" transform="translate(88.000000, 30.000000)" class="stroke-primary-300" stroke-linecap="round" stroke-linejoin="round" stroke-width="3">
                <path d="M0.5,19.9 L0.8,19.5" id="Shape"></path>
                <path d="M5.2,15.3 L17.9,3.1" id="Shape" stroke-dasharray="0.8619,6.0332"></path>
                <path d="M20.1,1 L20.5,0.7" id="Shape"></path>
            </g>
            <circle id="Oval" class="fill-neutral" fill-rule="nonzero" cx="67.7" cy="66.7" r="31.4"></circle>
            <circle id="Oval" class="fill-neutral" fill-rule="nonzero" cx="120" cy="19.1" r="19.1"></circle>
            <circle id="Oval" class="fill-neutral" fill-rule="nonzero" cx="129.9" cy="107.2" r="16"></circle>
            <circle id="Oval" class="fill-neutral" fill-rule="nonzero" cx="16.2" cy="26.2" r="15.7"></circle>
            <circle id="Oval" class="stroke-primary-300 fill-primary-300" fill-rule="nonzero" cx="69.6" cy="68.5" r="29.5"></circle>
            <circle id="Oval" fill="#CEE4FE" fill-rule="nonzero" cx="122.2" cy="21.3" r="17"></circle>
            <circle id="Oval" fill="#CEE4FE" fill-rule="nonzero" cx="131.8" cy="109.1" r="14.1"></circle>
            <circle id="Oval" fill="#CEE4FE" fill-rule="nonzero" cx="17.9" cy="28" r="13.9"></circle>
            <path d="M57.8,36.9 C58,36.8 58.3,36.7 58.5,36.7" id="Shape" class="stroke-primary" stroke-width="2.8071" stroke-linecap="round" stroke-linejoin="round"></path>
            <path d="M67.7,98 C50.4,98 36.3,84 36.3,66.6 C36.3,54.2 43.4,43.6 53.8,38.4" id="Shape" class="stroke-primary" stroke-width="2.8071" stroke-linecap="round" stroke-linejoin="round"></path>
            <path d="M68.6,35.3 C85.5,35.8 99.1,49.6 99.1,66.7 C99.1,80.8 89.9,92.6 77.1,96.6" id="Shape" class="stroke-primary" stroke-width="2.8071" stroke-linecap="round" stroke-linejoin="round"></path>
            <path d="M125.4,37.4 C123.7,37.9 121.8,38.2 120,38.2 C109.4,38.2 100.9,29.6 100.9,19.1 C100.9,14.3 102.7,9.8 105.7,6.5" id="Shape" class="stroke-primary" stroke-width="2.8071" stroke-linecap="round" stroke-linejoin="round"></path>
            <path d="M113.5,1.1 C115.5,0.4 117.7,0 120,0 C130.6,0 139.1,8.6 139.1,19.1 C139.1,23.9 137.3,28.3 134.4,31.6" id="Shape" class="stroke-primary" stroke-width="2.8071" stroke-linecap="round" stroke-linejoin="round"></path>
            <path d="M136.8,121.7 C134.7,122.7 132.4,123.2 129.9,123.2 C121.1,123.2 113.9,116 113.9,107.2 C113.9,100.9 117.5,95.5 122.7,92.9" id="Shape" class="stroke-primary" stroke-width="2.8071" stroke-linecap="round" stroke-linejoin="round"></path>
            <path d="M131.4,91.3 C139.6,92 146,98.9 146,107.2 C146,110 145.3,112.6 144,114.9" id="Shape" class="stroke-primary" stroke-width="2.8071" stroke-linecap="round" stroke-linejoin="round"></path>
            <path d="M10.5,11.6 C10.7,11.5 10.8,11.5 11,11.4" id="Shape" class="stroke-primary" stroke-width="2.8071" stroke-linecap="round" stroke-linejoin="round"></path>
            <path d="M16.2,10.5 C24.8,10.5 31.9,17.5 31.9,26.2 C31.9,34.8 24.9,41.9 16.2,41.9 C7.5,41.9 0.5,34.9 0.5,26.2 C0.5,22.7 1.6,19.5 3.6,16.9" id="Shape" class="stroke-primary" stroke-width="2.8071" stroke-linecap="round" stroke-linejoin="round"></path>
            <g id="Group" transform="translate(53.000000, 50.000000)">
                <path d="M6.8,12.7 C8.2,15.4 11.1,17.3 14.4,17.3 C19.2,17.3 23,13.4 23,8.7 C23,4 19.1,0.1 14.4,0.1 C9.6,0.1 5.8,4 5.8,8.7 C5.8,10.1 6.1,11.5 6.8,12.7" id="Shape" class="fill-neutral" fill-rule="nonzero"></path>
                <path d="M24,18.6 C28,21.6 30.9,25.6 30.9,30.2 C30.9,31.6 29.5,31.6 29.5,31.6 L18.8,31.6 L12.3,31.6 L1.6,31.6 C1.6,31.6 0.2,31.6 0.2,30.2 C0.2,24.2 4.9,19.4 10.6,16.3" id="Shape" class="fill-neutral" fill-rule="nonzero"></path>
                <path d="M10.4,16.3 C11.6,16.9 13,17.3 14.4,17.3 C19.2,17.3 23,13.4 23,8.7 C23,4 19.1,0.1 14.4,0.1 C9.6,0.1 5.8,4 5.8,8.7 C5.8,9.7 6,10.6 6.3,11.5" id="Shape" class="stroke-primary" stroke-width="3" stroke-linecap="round" stroke-linejoin="round"></path>
                <path d="M24,18.6 C28,21.6 30.9,25.6 30.9,30.2 C30.9,31.6 29.5,31.6 29.5,31.6 L18.8,31.6 L12.3,31.6 L1.6,31.6 C1.6,31.6 0.2,31.6 0.2,30.2 C0.2,24.2 4.9,19.4 10.6,16.3" id="Shape" class="stroke-primary" stroke-width="3" stroke-linecap="round" stroke-linejoin="round"></path>
            </g>
            <g id="Group" transform="translate(8.000000, 17.000000)">
                <path d="M4.2,6.9 C5,8.3 6.4,9.3 8.2,9.3 C10.7,9.3 12.7,7.3 12.7,4.8 C12.7,2.3 10.7,0.3 8.2,0.3 C5.7,0.3 3.7,2.3 3.7,4.8 C3.7,5.5 3.9,6.2 4.2,6.9" id="Shape" class="fill-neutral" fill-rule="nonzero"></path>
                <path d="M13.2,9.9 C15.3,11.5 16.8,13.5 16.8,15.9 C16.8,16.6 16.1,16.6 16.1,16.6 L10.5,16.6 L7.1,16.6 L1.5,16.6 C1.5,16.6 0.8,16.6 0.8,15.9 C0.8,12.8 3.3,10.3 6.2,8.7" id="Shape" class="fill-neutral" fill-rule="nonzero"></path>
                <path d="M6.1,8.7 C6.7,9 7.4,9.2 8.2,9.2 C10.7,9.2 12.7,7.2 12.7,4.7 C12.7,2.2 10.7,0.2 8.2,0.2 C5.7,0.2 3.7,2.2 3.7,4.7" id="Shape" class="stroke-primary" stroke-width="3" stroke-linecap="round" stroke-linejoin="round"></path>
                <path d="M15.1,11.7 C16.1,12.9 16.7,14.3 16.7,15.9 C16.7,16.6 16,16.6 16,16.6 L10.4,16.6 L7,16.6 L1.4,16.6 C1.4,16.6 0.7,16.6 0.7,15.9 C0.7,12.8 3.2,10.3 6.1,8.7" id="Shape" class="stroke-primary" stroke-width="3" stroke-linecap="round" stroke-linejoin="round"></path>
            </g>
            <g id="Group" transform="translate(122.000000, 99.000000)">
                <path d="M3.9,6.7 C4.7,8.1 6.1,9.1 7.9,9.1 C10.4,9.1 12.4,7.1 12.4,4.6 C12.4,2.1 10.4,0.1 7.9,0.1 C5.4,0.1 3.4,2.1 3.4,4.6 C3.4,5.4 3.5,6.1 3.9,6.7" id="Shape" class="fill-neutral" fill-rule="nonzero"></path>
                <path d="M12.8,9.8 C14.9,11.4 16.4,13.4 16.4,15.8 C16.4,16.5 15.7,16.5 15.7,16.5 L10.1,16.5 L6.7,16.5 L1.1,16.5 C1.1,16.5 0.4,16.5 0.4,15.8 C0.4,12.7 2.9,10.2 5.8,8.6" id="Shape" class="fill-neutral" fill-rule="nonzero"></path>
                <path d="M5.8,8.6 C6.4,8.9 7.1,9.1 7.9,9.1 C10.4,9.1 12.4,7.1 12.4,4.6 C12.4,2.1 10.4,0.1 7.9,0.1 C5.4,0.1 3.4,2.1 3.4,4.6" id="Shape" class="stroke-primary" stroke-width="3" stroke-linecap="round" stroke-linejoin="round"></path>
                <path d="M14.7,11.6 C15.7,12.8 16.3,14.2 16.3,15.8 C16.3,16.5 15.6,16.5 15.6,16.5 L10,16.5 L6.6,16.5 L1,16.5 C1,16.5 0.3,16.5 0.3,15.8 C0.3,12.7 2.8,10.2 5.7,8.6" id="Shape" class="stroke-primary" stroke-width="3" stroke-linecap="round" stroke-linejoin="round"></path>
            </g>
            <g id="Group" transform="translate(110.000000, 8.000000)">
                <path d="M5,8.3 C5.9,10 7.6,11.1 9.6,11.1 C12.5,11.1 14.9,8.7 14.9,5.8 C14.9,2.9 12.5,0.5 9.6,0.5 C6.7,0.5 4.3,2.9 4.3,5.8 C4.4,6.8 4.6,7.6 5,8.3" id="Shape" class="fill-neutral" fill-rule="nonzero"></path>
                <path d="M15.5,11.9 C17.9,13.7 19.7,16.1 19.7,19 C19.7,19.9 18.8,19.9 18.8,19.9 L12.3,19.9 L8.3,19.9 L1.8,19.9 C1.8,19.9 0.9,19.9 0.9,19 C0.9,15.4 3.8,12.4 7.2,10.5" id="Shape" class="fill-neutral" fill-rule="nonzero"></path>
                <path d="M7.2,10.5 C7.9,10.9 8.8,11.1 9.6,11.1 C12.5,11.1 14.9,8.7 14.9,5.8 C14.9,2.9 12.5,0.5 9.6,0.5 C7,0.5 4.9,2.4 4.4,4.8" id="Shape" class="stroke-primary" stroke-width="3" stroke-linecap="round" stroke-linejoin="round"></path>
                <path d="M17.2,13.4 C18.7,15 19.7,16.9 19.7,19 C19.7,19.9 18.8,19.9 18.8,19.9 L12.3,19.9 L8.3,19.9 L1.8,19.9 C1.8,19.9 0.9,19.9 0.9,19 C0.9,15.4 3.8,12.4 7.2,10.5" id="Shape" class="stroke-primary" stroke-width="3" stroke-linecap="round" stroke-linejoin="round"></path>
            </g>
        </g>
    </g>
</svg>
