<?xml version="1.0" encoding="UTF-8"?>
<svg width="124px" height="104px" viewBox="0 0 124 104" version="1.1" xmlns="http://www.w3.org/2000/svg" xmlns:xlink="http://www.w3.org/1999/xlink">
    <!-- Generator: Sketch 51.2 (57519) - http://www.bohemiancoding.com/sketch -->
    <title>Heart</title>
    <desc>Created with Sketch.</desc>
    <defs></defs>
    <g id="Page-1" stroke="none" stroke-width="1" fill="none" fill-rule="evenodd">
        <g id="Heart" transform="translate(1.000000, 1.000000)">
            <path d="M116.1,17.3 C104.4,-2.7 75.8,-5.4 60.8,13.3 C45.8,-5.3 17.2,-2.7 5.4,17.3 C-4.6,34.3 2.6,50 15.4,65.1 L15.3,65.1 C28.4,80.7 46.9,94.3 55.7,99.8 C57.2,100.7 58.9,101.2 60.5,101.2 C62.3,101.3 64.1,100.8 65.7,99.8 C74.5,94.3 93,80.7 106.1,65.1 L106,65.1 C118.8,50.1 126.2,34.4 116.1,17.3 Z" id="Shape" class="fill-neutral" fill-rule="nonzero"></path>
            <path d="M117.8,34 C117.2,30.7 115.9,27.3 113.8,23.8 C102.6,5.4 75.4,2.8 61.1,20.1 C46.8,2.9 19.6,5.3 8.4,23.8 C2.3,33.8 2.9,43.4 7.3,52.6 C9.8,57.8 13.5,62.9 17.9,68 L17.8,68 C30.3,82.4 47.9,95 56.3,100.1 C57.7,101 59.3,101.4 60.9,101.4 C62.6,101.5 64.4,101 65.9,100.1 C74.3,95 91.9,82.4 104.4,68 C113.7,57.2 120,45.9 117.8,34 Z" id="Shape" fill="#BAD8FF" fill-rule="nonzero"></path>
            <path d="M117.8,34 C117.2,30.7 115.9,27.3 113.8,23.8 C102.6,5.4 75.4,2.8 61.1,20.1 C46.8,2.9 19.6,5.3 8.4,23.8 C2.3,33.8 2.9,43.4 7.3,52.6 C22.1,67.2 39.4,79.4 48.4,84.8 C50.2,85.9 52.3,86.5 54.4,86.5 C56.6,86.6 58.9,86 60.8,84.8 C71.7,78.2 94.5,61.9 110.6,43.3 L110.5,43.2 C113.1,40.2 115.6,37.1 117.8,34 Z" id="Shape" class="fill-primary-100" fill-rule="nonzero"></path>
            <path d="M52.9,42.3 L61.6,66.2 L73.2,36 L78.6,45.1 L83.3,35.6 C83.3,35.6 91.7,44.7 92.4,44.7 C93.1,44.7 106.1,38.7 106.1,38.7 L120.3,38.5 L120.6,37.4 C120.7,36.5 120.8,35.5 120.8,34.6 C120.8,16 105.7,0.9 87.1,0.9 C76.5,0.9 67,5.8 60.8,13.5 C54.6,5.8 45.1,0.9 34.5,0.9 C22.1,0.9 11.3,7.6 5.4,17.5" id="Shape" class="stroke-primary" stroke-width="3" stroke-linecap="round" stroke-linejoin="round"></path>
            <path d="M100.7,71.4 C88.3,84.4 73.5,95.2 65.9,100 C62.8,101.9 58.9,101.9 55.8,100 C42.4,91.6 6.5,64.1 1.4,40 L1.7,40 L10.1,40 L19.4,31.6 L32.9,59.3 L46.9,26 L48.8,31.3" id="Shape" class="stroke-primary" stroke-width="3" stroke-linecap="round" stroke-linejoin="round"></path>
        </g>
    </g>
</svg>