<?xml version="1.0" encoding="UTF-8"?>
<svg width="113px" height="151px" viewBox="0 0 113 151" version="1.1" xmlns="http://www.w3.org/2000/svg" xmlns:xlink="http://www.w3.org/1999/xlink">
    <!-- Generator: Sketch 51.2 (57519) - http://www.bohemiancoding.com/sketch -->
    <title>ID_2</title>
    <desc>Created with Sketch.</desc>
    <defs></defs>
    <g id="Page-1" stroke="none" stroke-width="1" fill="none" fill-rule="evenodd">
        <g id="ID_2" transform="translate(1.000000, 2.000000)">
            <path d="M9.9,147 L83.3,147 C88.3,147 92.3,143 92.3,138 L92.3,28.8 C92.3,23.8 88.3,19.8 83.3,19.8 L9.9,19.8 C4.9,19.8 0.9,23.8 0.9,28.8 L0.9,138 C0.9,143 4.9,147 9.9,147 Z" id="Shape" class="fill-neutral" fill-rule="nonzero"></path>
            <path d="M15.2,147 L83.9,147 C88.6,147 92.4,143.2 92.4,138.5 L92.4,35 C92.4,30.3 88.6,26.5 83.9,26.5 L15.2,26.5 C10.5,26.5 6.7,30.3 6.7,35 L6.7,138.5 C6.7,143.2 10.5,147 15.2,147 Z" id="Shape" class="fill-primary-100" fill-rule="nonzero"></path>
            <path d="M90.3,9.9 L90.3,0" id="Shape" class="stroke-primary" stroke-width="3" stroke-linecap="round" stroke-linejoin="round"></path>
            <path d="M100.3,23.8 L110.2,23.8" id="Shape" class="stroke-primary" stroke-width="3" stroke-linecap="round" stroke-linejoin="round"></path>
            <path d="M97.8,15.4 L104.8,8.4" id="Shape" class="stroke-primary" stroke-width="3" stroke-linecap="round" stroke-linejoin="round"></path>
            <path d="M83.7,147 C88.5,146.8 92.3,142.8 92.3,138 L92.3,28.8 C92.3,23.8 88.3,19.8 83.3,19.8 L9.9,19.8 C4.9,19.8 0.9,23.8 0.9,28.8 L0.9,40" id="Shape" class="stroke-primary" stroke-width="3" stroke-linecap="round" stroke-linejoin="round"></path>
            <path d="M0.9,61.1 L0.9,138 C0.9,143 4.9,147 9.9,147 L68.5,147" id="Shape" class="stroke-primary" stroke-width="3" stroke-linecap="round" stroke-linejoin="round"></path>
            <path d="M0.9,47.7 L0.9,48.6" id="Shape" class="stroke-primary" stroke-width="3" stroke-linecap="round" stroke-linejoin="round"></path>
            <path d="M36.1,53.3 C38.1,57.1 42.1,59.6 46.6,59.6 C53.2,59.6 58.5,54.3 58.5,47.7 C58.5,41.1 53.2,35.8 46.6,35.8 C40,35.8 34.7,41.1 34.7,47.7 C34.7,49.7 35.2,51.6 36.1,53.3" id="Shape" class="fill-neutral" fill-rule="nonzero"></path>
            <circle id="Oval" class="fill-primary-300" fill-rule="nonzero" cx="48.5" cy="49.6" r="10"></circle>
            <path d="M59.9,61.4 C65.4,65.6 69.4,71 69.4,77.5 C69.4,79.5 67.4,79.5 67.4,79.5 L52.6,79.5 L43.5,79.5 L28.7,79.5 C28.7,79.5 26.7,79.5 26.7,77.5 C26.7,69.3 33.3,62.6 41.1,58.3" id="Shape" class="fill-neutral" fill-rule="nonzero"></path>
            <path d="M45.2,61.3 C38,63.8 32.9,70.7 32.9,77.8 C32.9,79.5 34.6,79.5 34.6,79.5 L47.3,79.5 L55,79.5 L67.7,79.5 C67.7,79.5 69.4,79.5 69.4,77.8 C69.4,72.3 66.9,67.3 62.4,63.4 C61,62.2 59.6,61.1 57.8,60.4 C53.9,58.9 49.5,59.9 45.7,61.2 C45.5,61.2 45.3,61.2 45.2,61.3 Z" id="Shape" class="fill-primary-300" fill-rule="nonzero"></path>
            <path d="M41.1,58.2 C42.8,59.1 44.6,59.6 46.6,59.6 C53.2,59.6 58.5,54.3 58.5,47.7 C58.5,41.1 53.2,35.8 46.6,35.8 C40,35.8 34.7,41.1 34.7,47.7 C34.7,49.1 34.9,50.4 35.3,51.6" id="Shape" class="stroke-primary" stroke-width="3" stroke-linecap="round" stroke-linejoin="round"></path>
            <path d="M59.9,61.4 C65.4,65.6 69.4,71 69.4,77.5 C69.4,79.5 67.4,79.5 67.4,79.5 L52.6,79.5 L43.5,79.5 L28.7,79.5 C28.7,79.5 26.7,79.5 26.7,77.5 C26.7,69.3 33.3,62.6 41.1,58.3" id="Shape" class="stroke-primary" stroke-width="3" stroke-linecap="round" stroke-linejoin="round"></path>
            <path d="M21.1,95.5 L74.2,95.5" id="Shape" class="stroke-primary" stroke-width="3" stroke-linecap="round" stroke-linejoin="round"></path>
            <path d="M21.1,111 L74.2,111" id="Shape" class="stroke-primary" stroke-width="3" stroke-linecap="round" stroke-linejoin="round"></path>
            <path d="M21.1,126.4 L47.7,126.4" id="Shape" class="stroke-primary" stroke-width="3" stroke-linecap="round" stroke-linejoin="round"></path>
        </g>
    </g>
</svg>