<?xml version="1.0" encoding="UTF-8"?>
<svg width="135px" height="149px" viewBox="0 0 135 149" version="1.1" xmlns="http://www.w3.org/2000/svg" xmlns:xlink="http://www.w3.org/1999/xlink">
    <!-- Generator: Sketch 51.2 (57519) - http://www.bohemiancoding.com/sketch -->
    <title>Influence</title>
    <desc>Created with Sketch.</desc>
    <defs></defs>
    <g id="Page-1" stroke="none" stroke-width="1" fill="none" fill-rule="evenodd">
        <g id="Influence" transform="translate(2.000000, 2.000000)">
            <path d="M127,0.6 L79.5,0.6 C39.7,0.6 6.7,32.5 6.4,72.3 C6.3,82.9 8.5,93 12.6,102.1 C23.8,127.4 49.2,145 78.6,145 L127,145 C129.4,145 131.3,143.1 131.3,140.7 L131.3,114.7 C131.3,112.3 129.4,110.4 127,110.4 L80.1,110.4 C65,110.4 51.8,101.7 45.6,88.9 C43.3,84.2 42,78.9 41.9,73.3 C41.5,52.2 58.5,35 79.5,35 L127,35 C129.4,35 131.3,33.1 131.3,30.7 L131.3,4.7 C131.3,2.5 129.3,0.6 127,0.6 Z" id="Shape" class="fill-neutral" fill-rule="nonzero"></path>
            <path d="M79.5,35.1 L127,35.1 C129.4,35.1 131.3,33.2 131.3,30.8 L131.3,6.1 C130.6,5.7 129.9,5.4 129,5.4 L81.5,5.4 C41.7,5.4 8.7,37.3 8.4,77.1 C8.3,85.8 9.8,94.2 12.6,101.9 C23.8,127.2 49.2,144.8 78.6,144.8 L127,144.8 C129.4,144.8 131.3,142.9 131.3,140.5 L131.3,115.8 C130.6,115.4 129.9,115.1 129,115.1 L82.1,115.1 C65.1,115.1 50.5,104.1 45.6,88.7 C43.3,84 42,78.7 41.9,73.1 C41.5,52.3 58.4,35.1 79.5,35.1 Z" id="Shape" class="fill-primary-300" fill-rule="nonzero"></path>
            <path d="M60.1,3.2 C59.6,3.3 59.2,3.5 58.7,3.6 M49.7,6.9 C24.5,18.1 6.6,43 6.4,72.3 C6.1,112.4 38.5,145.1 78.6,145.1 L127,145.1 C129.4,145.1 131.3,143.2 131.3,140.8 L131.3,114.8 C131.3,112.4 129.4,110.5 127,110.5 L80.1,110.5 C59.5,110.5 42.2,94.1 41.8,73.5 C41.4,52.4 58.4,35.2 79.4,35.2 L126.9,35.2 C129.3,35.2 131.2,33.3 131.2,30.9 L131.2,4.9 C131.2,2.5 129.3,0.6 126.9,0.6 L79.4,0.6 C75.1,0.6 70.8,1 66.7,1.7" id="Shape" class="stroke-primary" stroke-width="3.2" stroke-linecap="round" stroke-linejoin="round"></path>
            <path d="M131.3,4.8 L131.3,30.8 C131.3,33.2 129.4,35.1 127,35.1 L109,35.1 L109,0.5 L127,0.5 C129.3,0.6 131.3,2.5 131.3,4.8 Z" id="Shape" class="fill-neutral" fill-rule="nonzero"></path>
            <path d="M127,145 L109,145 L109,110.4 L127,110.4 C129.4,110.4 131.3,112.3 131.3,114.7 L131.3,140.7 C131.3,143.1 129.3,145 127,145 Z" id="Shape" class="fill-neutral" fill-rule="nonzero"></path>
            <path d="M108.9,16.1 L108.9,0.5 L126.9,0.5 C129.3,0.5 131.2,2.4 131.2,4.8 L131.2,30.8 C131.2,33.2 129.3,35.1 126.9,35.1 L108.9,35.1 L108.9,25.6" id="Shape" class="stroke-primary" stroke-width="3.2" stroke-linecap="round" stroke-linejoin="round"></path>
            <path d="M108.9,118.1 L108.9,116.8" id="Shape" class="stroke-primary" stroke-width="3.2" stroke-linecap="round" stroke-linejoin="round"></path>
            <path d="M109.1,110.4 L127,110.4 C129.4,110.4 131.3,112.3 131.3,114.7 L131.3,140.7 C131.3,143.1 129.4,145 127,145 L109,145 L109,124.7" id="Shape" class="stroke-primary" stroke-width="3.2" stroke-linecap="round" stroke-linejoin="round"></path>
            <path d="M77.3,99.6 C77.3,104.3 73.9,108.3 69.3,109 C68.8,109.1 68.3,109.1 67.7,109.1 C67.7,109.1 67.6,109.1 67.6,109.1 C67.5,109.1 67.4,109.1 67.3,109.1 C67.2,109.1 67.1,109.1 67.1,109.1 C57.8,108.6 47.4,108.1 32.4,106.8 L34.3,108.7 L43.8,118.2 C45.4,119.8 46.3,122 46.3,124.1 C46.3,126.2 45.5,128.4 43.8,130 C42.3,131.5 40.5,132.3 38.6,132.4 C36.2,132.6 33.8,131.8 32,130 L2.6,100.6 C1,99 2.27373675e-13,96.7 2.27373675e-13,94.4 L2.27373675e-13,53 C2.27373675e-13,52.7 2.27373675e-13,52.4 0.1,52 C0.4,49.2 2.1,46.6 4.6,45.3 C7.8,43.6 10.7,40.7 21,39.9 C22.8,39.8 24.8,39.7 27.1,39.7 L62,39.7 C64.3,39.7 66.4,40.6 67.9,42.2 C69.4,43.7 70.4,45.8 70.4,48.1 C70.4,51.4 68.5,54.2 65.7,55.6 C64.6,56.1 63.3,56.5 62,56.5 L65.2,56.5 C67.5,56.5 69.6,57.4 71.1,59 C72.6,60.5 73.6,62.6 73.6,64.9 C73.6,68.5 71.4,71.5 68.2,72.7 C67.3,73 66.3,73.2 65.2,73.2 L68,73.2 C70.3,73.2 72.4,74.1 73.9,75.7 C75.4,77.2 76.4,79.3 76.4,81.6 C76.4,85.5 73.8,88.8 70.2,89.7 C69.5,89.9 68.8,90 68,90 C68,90 64.2,89.9 67.7,90 C68.4,90 69,90.1 69.6,90.2 C74.1,91.2 77.3,95 77.3,99.6 Z" id="Shape" class="fill-neutral" fill-rule="nonzero"></path>
            <path d="M73.3,101.5 C73.3,104.6 71.7,107.4 69.3,109.1 C68.8,109.2 68.3,109.2 67.7,109.2 C67.7,109.2 67.6,109.2 67.6,109.2 C67.5,109.2 67.4,109.2 67.3,109.2 C67.2,109.2 67.1,109.2 67.1,109.2 C57.8,108.7 47.4,108.2 32.4,106.9 L34.3,108.8 C32.9,108.7 31.5,108.6 30,108.4 L41.1,119.5 C42.7,121.1 43.5,123.1 43.5,125.2 C43.5,127.3 42.7,129.3 41.1,130.9 C40.4,131.6 39.5,132.2 38.6,132.6 C36.2,132.8 33.8,132 32,130.2 L2.6,100.8 C1,99.2 2.27373675e-13,96.9 2.27373675e-13,94.6 L2.27373675e-13,53.2 C2.27373675e-13,52.9 2.27373675e-13,52.6 0.1,52.2 C0.9,51 1.9,49.9 3.3,49.2 C6.4,47.6 9.2,44.8 19.1,44 C20.8,43.9 22.8,43.8 25,43.8 L58.7,43.8 C60.9,43.8 62.9,44.7 64.4,46.2 C65.9,47.7 66.8,49.7 66.8,51.9 C66.8,53.3 66.4,54.6 65.8,55.7 C65.6,56 65.5,56.3 65.3,56.6 C63.8,58.6 61.4,60 58.7,60 L61.8,60 C64,60 66,60.9 67.5,62.4 C69,63.9 69.9,65.9 69.9,68.1 C69.9,69.9 69.3,71.5 68.3,72.9 C68.2,73.1 68,73.3 67.9,73.4 C66.4,75.1 64.3,76.2 61.8,76.2 L64.5,76.2 C66.7,76.2 68.7,77.1 70.2,78.6 C71.7,80.1 72.6,82.1 72.6,84.3 C72.6,86.5 71.7,88.5 70.3,89.9 C70.1,90.1 69.9,90.2 69.8,90.4 C68.4,91.6 66.6,92.3 64.5,92.3 C64.5,92.3 60.8,92.2 64.2,92.3 C69.2,92.3 73.3,96.4 73.3,101.5 Z" id="Shape" class="fill-primary-100" fill-rule="nonzero"></path>
            <path d="M59.9,39.8 L62,39.8 C64.3,39.8 66.4,40.7 67.9,42.3 C69.4,43.8 70.4,45.9 70.4,48.2 C70.4,52.8 66.6,56.6 62,56.6 L65.3,56.6 C67.6,56.6 69.7,57.5 71.2,59.1 C72.7,60.6 73.7,62.7 73.7,65 C73.7,69.6 69.9,73.4 65.3,73.4 L68.1,73.4 C70.4,73.4 72.5,74.3 74,75.9 C75.5,77.4 76.5,79.5 76.5,81.8 C76.5,86.4 72.7,90.2 68.1,90.2 C68.1,90.2 64.3,90.1 67.8,90.2 C73.1,90.2 77.3,94.5 77.3,99.7 C77.3,105 73,109.2 67.8,109.2 C67.8,109.2 67.7,109.2 67.7,109.2 C67.6,109.2 67.5,109.2 67.4,109.2 C67.3,109.2 67.2,109.2 67.2,109.2 C57.8,108.7 47.5,108.2 32.5,106.9 L44,118.4 C45.6,120 46.5,122.2 46.5,124.3 C46.5,126.4 45.7,128.6 44,130.2 C40.7,133.5 35.4,133.5 32.1,130.2 L2.7,100.7 C1.1,99.1 0.1,96.8 0.1,94.5 L0.1,53.1 C0.1,49.9 1.9,46.9 4.7,45.4 C7.9,43.7 10.8,40.8 21.1,40 C22.9,39.9 24.9,39.8 27.2,39.8 L48.7,39.8" id="Shape" class="stroke-primary" stroke-width="3.2" stroke-linecap="round" stroke-linejoin="round"></path>
        </g>
    </g>
</svg>