<?xml version="1.0" encoding="UTF-8"?>
<svg width="150px" height="127px" viewBox="0 0 150 127" version="1.1" xmlns="http://www.w3.org/2000/svg" xmlns:xlink="http://www.w3.org/1999/xlink">
    <!-- Generator: Sketch 51.2 (57519) - http://www.bohemiancoding.com/sketch -->
    <title>Insert_coin</title>
    <desc>Created with Sketch.</desc>
    <defs></defs>
    <g id="Page-1" stroke="none" stroke-width="1" fill="none" fill-rule="evenodd">
        <g id="Insert_coin" transform="translate(1.000000, 1.000000)">
            <path d="M147.1,5.4 L147.1,109.8 C147.1,112.4 145,114.6 142.3,114.6 L124.6,114.6 C122,114.6 119.8,112.5 119.8,109.8 L119.8,5.4 C119.8,2.8 121.9,0.6 124.6,0.6 L142.3,0.6 C145,0.6 147.1,2.8 147.1,5.4 Z" id="Shape" class="fill-neutral" fill-rule="nonzero"></path>
            <path d="M147.1,5.4 L147.1,109.8 C147.1,112.4 145,114.6 142.3,114.6 L124.6,114.6 C122,114.6 119.8,112.5 119.8,109.8 L119.8,5.4 C119.8,2.8 121.9,0.6 124.6,0.6 L142.3,0.6 C145,0.6 147.1,2.8 147.1,5.4 Z" id="Shape" fill="#59A3FF" fill-rule="nonzero"></path>
            <path d="M147.1,12.3 L147.1,109.8 C147.1,112.4 145,114.6 142.3,114.6 L126.6,114.6 L126.6,17.1 C126.6,14.5 128.7,12.3 131.4,12.3 L147.1,12.3 Z" id="Shape" class="fill-primary-500" fill-rule="nonzero"></path>
            <path d="M147.1,27.4 L147.1,94.7 C140.8,99.2 133.7,101.7 126.7,102.3 C124.4,102.5 122.1,102.5 119.9,102.3 C100.3,100.8 82.3,85.8 80.6,63.3 C80.6,63.3 80.5,61.7 80.5,60 C80.5,35.9 99.3,19.4 119.9,17.8 C122.2,17.6 124.4,17.6 126.7,17.8 C133.7,18.7 140.8,22.9 147.1,27.4 Z" id="Shape" class="fill-neutral" fill-rule="nonzero"></path>
            <path d="M92.2,62.3 C92.2,61.8 92.2,61.3 92.2,60.8 C92.2,52.3 95.6,44.6 101.1,39.1" id="Shape" class="stroke-primary-300" stroke-width="3" stroke-linecap="round" stroke-linejoin="round"></path>
            <path d="M109.3,93.3 C102.8,90.5 97.3,85.9 93.4,80" id="Shape" class="stroke-primary-300" stroke-width="3" stroke-linecap="round" stroke-linejoin="round"></path>
            <path d="M128.7,90.6 C126.6,91.1 124.3,91.4 122.1,91.4 C121.7,91.4 121.4,91.4 121,91.4 C120.6,91.4 120.1,91.4 119.7,91.3" id="Shape" class="stroke-primary-300" stroke-width="3" stroke-linecap="round" stroke-linejoin="round"></path>
            <path d="M140.6,84.7 C138.6,86.3 136.5,87.6 134.1,88.7" id="Shape" class="stroke-primary-300" stroke-width="3" stroke-linecap="round" stroke-linejoin="round"></path>
            <path d="M117,30.8 C118.6,30.5 120.3,30.4 122,30.4 C128.7,30.4 134.9,32.7 139.9,36.5" id="Shape" class="stroke-primary-300" stroke-width="3" stroke-linecap="round" stroke-linejoin="round"></path>
            <path d="M109,33.4 C109.3,33.2 109.7,33.1 110.1,32.9" id="Shape" class="stroke-primary-300" stroke-width="3" stroke-linecap="round" stroke-linejoin="round"></path>
            <g id="Group" transform="translate(0.000000, 35.000000)">
                <path d="M85.9,1.7 C82.1,8.2 80,15.8 80,23.8 C80,24.5 80,25.3 80.1,26 L77,26.4 C74.3,26.8 71.7,27.9 69.7,29.7 C69.6,29.8 69.4,30 69.3,30.1 C69.2,30.2 69,30.4 68.9,30.5 L61.7,38 C60.6,39.1 60.5,40.8 61.3,42.1 L68.3,52.8 C69,53.9 70.1,54.4 71.3,54.4 C71.6,54.4 71.9,54.4 72.1,54.3 C72.2,54.3 72.4,54.2 72.5,54.2 C72.6,54.2 72.8,54.1 72.9,54 L73.3,53.8 L77.6,51.6 L86.8,46.9 L94.3,43.1 C94.5,43 94.8,42.9 95,42.8 C95.1,42.7 95.3,42.7 95.4,42.6 C95.6,42.5 95.8,42.5 95.9,42.4 C96.2,42.3 96.5,42.2 96.7,42.1 C96.9,42 97.2,42 97.4,41.9 C97.4,41.9 97.5,41.9 97.5,41.9 C97.5,41.9 97.6,41.9 97.6,41.9 C97.8,41.9 97.9,41.8 98.1,41.8 C98.1,41.8 98.1,41.8 98.1,41.8 C100.3,41.5 102.6,41.7 104.6,42.5 C105.2,42.7 105.7,43 106.3,43.3 C106.7,43.5 107.1,43.7 107.4,44 C108.1,44.4 108.7,45 109.3,45.5 C110.4,46.6 111.4,47.9 112.1,49.5 C113.2,51.9 112.7,54.6 111.1,56.5 C110.6,57 110.1,57.5 109.4,57.9 L102.3,62.1 L89.5,69.6 L64.8,84.2 C60.8,86.5 56.4,87.8 51.8,88 L38.8,88.4 L32.2,88.6 C31.1,88.6 30.1,88.2 29.2,87.5 C24.6,83.5 8.9,69.9 1.9,64 C0.8,63.1 0.2,61.7 0.4,60.3 C0.4,60.2 0.4,60.1 0.4,60 C0.4,59.9 0.4,59.7 0.5,59.6 C0.5,59.5 0.5,59.4 0.6,59.4 C0.6,59.3 0.6,59.3 0.7,59.2 C0.7,59.1 0.8,59 0.8,58.9 C1,58.6 1.2,58.3 1.4,58 L6.4,52.1 L12.5,44.9 L12.8,44.5 L16.9,39.7 L43,9.1 C46.4,5.1 51.3,2.6 56.6,2.3 L85.3,0.3" id="Shape" class="fill-neutral" fill-rule="nonzero"></path>
                <path d="M109.6,58.1 C81.2,74.8 101.8,62.7 65.1,84.4 C61.1,86.7 56.7,88 52.1,88.2 L39.1,88.6 C38.6,88.4 38.2,88.2 37.8,87.8 C33.2,83.8 17.5,70.2 10.5,64.3 C8.6,62.8 8.4,60 10,58.1 L51.6,9.3 C55,5.3 59.9,2.8 65.2,2.5 L86.7,1 C82,8.7 79.9,17.5 80.3,26.1 C71.2,27.4 72,27.6 61.8,38.2 C60.7,39.3 60.6,41 61.4,42.3 C71,56.9 68.9,56.4 77.7,51.9 C78.3,51.9 78.9,51.8 79.5,51.5 L79.9,51.3 L87.1,47.6 L97.7,42.2 C97.7,42.2 97.7,42.2 97.7,42.2 C97.7,42.2 98.1,42.1 98.3,42.1 C100,41.2 108.9,42 112.4,49.7 C113.7,52.8 112.5,56.4 109.6,58.1 Z" id="Shape" class="fill-primary-100" fill-rule="nonzero"></path>
                <path d="M0.6,60.6 C0.6,59.7 1,58.7 1.6,57.9 L6.6,52.1" id="Shape" class="stroke-primary" stroke-width="3" stroke-linecap="round" stroke-linejoin="round"></path>
                <path d="M32.4,88.6 L39,88.4 L52,88 C56.6,87.9 61.1,86.6 65,84.2 L89.7,69.6 L102.5,62.1 L109.6,57.9 C110.2,57.5 110.8,57 111.3,56.5 C112.9,54.6 113.4,51.9 112.3,49.5 C111.6,48 110.7,46.6 109.5,45.5 C108.9,44.9 108.3,44.4 107.6,44 C107.2,43.7 106.9,43.5 106.5,43.3 C106,43 105.4,42.7 104.8,42.5 C102.7,41.7 100.5,41.5 98.3,41.8 C98.3,41.8 98.3,41.8 98.3,41.8 C98.1,41.8 98,41.8 97.8,41.9 C97.8,41.9 97.7,41.9 97.7,41.9 C97.7,41.9 97.7,41.9 97.7,41.9 C97.7,41.9 97.6,41.9 97.6,41.9 C97.3,41.9 97.1,42 96.9,42.1 C96.6,42.2 96.3,42.3 96.1,42.4 C95.9,42.5 95.7,42.5 95.6,42.6 C95.5,42.6 95.3,42.7 95.2,42.8 C95,42.9 94.7,43 94.5,43.1 L87,46.9 L77.8,51.6 L73.5,53.8 L73.1,54 C73,54.1 72.8,54.1 72.7,54.2 C72.6,54.2 72.4,54.3 72.3,54.3 C72,54.4 71.8,54.4 71.5,54.4 C70.3,54.4 69.2,53.8 68.5,52.8 L61.5,42.1 C60.7,40.8 60.8,39.1 61.9,38 L69.1,30.5 C69.2,30.4 69.4,30.2 69.5,30.1 C69.6,30 69.8,29.8 69.9,29.7 C72,27.9 74.5,26.7 77.2,26.4 L80.3,26" id="Shape" class="stroke-primary" stroke-width="3" stroke-linecap="round" stroke-linejoin="round"></path>
                <path d="M87.6,0.1 L56.8,2.2 C51.6,2.6 46.7,5 43.2,9 L17.1,39.6" id="Shape" class="stroke-primary" stroke-width="3" stroke-linecap="round" stroke-linejoin="round"></path>
                <path d="M12.7,44.9 L13,44.6" id="Shape" class="stroke-primary" stroke-width="3" stroke-linecap="round" stroke-linejoin="round"></path>
            </g>
            <path d="M102.5,97.3 C103.3,97.8 104.2,98.2 105,98.6 C105.4,98.8 105.8,99 106.2,99.1 C106.6,99.3 107,99.4 107.3,99.6 C108.1,100 109,100.3 109.9,100.6 C110.1,100.7 110.3,100.7 110.6,100.8 C111.5,101.1 112.5,101.4 113.5,101.6 C114.1,101.7 114.6,101.9 115.2,102 C115.6,102.1 115.9,102.1 116.3,102.2 C116.7,102.3 117,102.3 117.4,102.4 C117.8,102.4 118.1,102.5 118.5,102.6 C118.9,102.6 119.3,102.7 119.8,102.7 C120.3,102.7 120.7,102.8 121.2,102.8 C121.7,102.8 122.3,102.9 122.8,102.9 C123.2,102.9 123.7,102.9 124.1,102.9 C124.6,102.9 125.1,102.9 125.6,102.9 C133.5,102.6 140.9,100.3 147.2,96.4" id="Shape" class="stroke-primary" stroke-width="3" stroke-linecap="round" stroke-linejoin="round"></path>
            <path d="M91.8,30 C79.8,42.5 76.1,62.4 86.4,78.9 C87,79.8 87.4,80.7 87.9,81.6" id="Shape" class="stroke-primary" stroke-width="3" stroke-linecap="round" stroke-linejoin="round"></path>
            <path d="M98.1,24.7 C97.9,24.8 97.8,24.9 97.6,25" id="Shape" class="stroke-primary" stroke-width="3" stroke-linecap="round" stroke-linejoin="round"></path>
            <path d="M146.7,27.7 C139.7,21.6 130.5,17.9 120.4,17.9 C116.5,17.9 112.9,18.4 109.4,19.4" id="Shape" class="stroke-primary" stroke-width="3" stroke-linecap="round" stroke-linejoin="round"></path>
            <path d="M119.9,11.2 L119.9,5.4 C119.9,2.8 122,0.6 124.7,0.6 L142.4,0.6 C145,0.6 147.2,2.7 147.2,5.4 L147.2,12.3 L147.2,25.6 L147.2,94.7 L147.2,109.7 C147.2,112.3 145.1,114.5 142.4,114.5 L126.7,114.5 L124.6,114.5 C122,114.5 119.8,112.4 119.8,109.7" id="Shape" class="stroke-primary" stroke-width="3" stroke-linecap="round" stroke-linejoin="round"></path>
            <path d="M121,78.6 L121,75.1 C118.8,75.1 116.5,74.5 114.7,73.7 C113.9,73.3 113.5,72.4 113.8,71.5 C114.1,70.5 115.2,70.1 116.2,70.5 C117.8,71.2 119.7,71.7 121.7,71.7 C125.3,71.7 127.7,69.6 127.7,66.8 C127.7,64 125.7,62.3 122,60.8 C116.9,58.8 113.7,56.5 113.7,52.1 C113.7,47.9 116.7,44.8 121.3,44 L121.3,40.5 C121.3,39.6 122,38.9 122.9,38.9 C123.8,38.9 124.5,39.6 124.5,40.5 L124.5,43.8 C126.6,43.9 128.2,44.3 129.5,44.8 C130.4,45.2 130.8,46.2 130.5,47 C130.1,47.9 129.1,48.4 128.2,48 C127.1,47.5 125.5,47.1 123.5,47.1 C119.6,47.1 118.2,49.4 118.2,51.4 C118.2,54 120.1,55.3 124.4,57.1 C129.6,59.2 132.2,61.8 132.2,66.3 C132.2,70.3 129.4,74 124.3,74.8 L124.3,78.5 C124.3,79.4 123.6,80.1 122.7,80.1 L122.6,80.1 C121.7,80.1 121,79.5 121,78.6 Z" id="Shape" class="fill-primary" fill-rule="nonzero"></path>
        </g>
    </g>
</svg>