<?xml version="1.0" encoding="UTF-8"?>
<svg width="107px" height="150px" viewBox="0 0 107 150" version="1.1" xmlns="http://www.w3.org/2000/svg" xmlns:xlink="http://www.w3.org/1999/xlink">
    <!-- Generator: Sketch 51.2 (57519) - http://www.bohemiancoding.com/sketch -->
    <title>Key</title>
    <desc>Created with Sketch.</desc>
    <defs></defs>
    <g id="Page-1" stroke="none" stroke-width="1" fill="none" fill-rule="evenodd">
        <g id="Key" transform="translate(1.000000, 2.000000)">
            <path d="M46.1,66.7 C59.7,62.1 69.4,49.3 69.4,34.2 C69.4,15.3 54.1,0 35.2,0 C16.3,0 1,15.3 1,34.2 C1,49.1 10.5,61.8 23.8,66.5 L23.8,73.4 C23.8,76 24.7,78.6 26.2,80.7 L30,85.7 C30.6,86.5 30.5,87.6 29.7,88.3 L24.3,92.9 C24,93.2 23.8,93.5 23.8,93.9 C23.8,94.4 24,94.8 24.4,95 L25.8,95.9 L25.8,100.5 C25.8,101.8 26.5,102.9 27.5,103.6 C28.5,104.2 28.7,105.6 27.9,106.4 L24.6,110.2 C24,110.9 23.7,111.7 23.7,112.6 L23.7,115.7 C23.7,116.7 24.1,117.7 24.8,118.4 L27.6,121.1 C28.3,121.8 28.4,122.9 27.8,123.7 L24.5,127.7 C24,128.4 23.7,129.2 23.7,130 L23.7,132.8 C23.7,134.7 24.5,136.6 25.8,137.9 L33.6,145.3 C34.6,146.3 36.3,146 37,144.8 L45,130.6 C45.6,129.5 45.9,128.3 45.9,127.1 L45.9,74.3 L46.1,66.7 Z M35.2,10 C39.7,10 43.3,13.6 43.3,18.1 C43.3,22.6 39.7,26.2 35.2,26.2 C30.7,26.2 27.1,22.6 27.1,18.1 C27.1,13.6 30.7,10 35.2,10 Z" id="Shape" class="fill-neutral" fill-rule="nonzero"></path>
            <path d="M35.4,6.6 C18,6.6 3.9,20.9 3.9,38.5 C3.9,52.4 12.7,62.5 24.9,66.9 L24.9,73.3 C24.9,75.7 25.7,80.7 27.1,82.6 L30.6,87.3 C31.2,88.1 31,89.1 30.3,89.7 L25.3,94 C25,94.2 24.9,94.6 24.9,95 C24.9,95.4 25.1,95.8 25.5,96.1 L26.8,96.9 L26.8,101.1 C26.8,102.3 27.4,103.4 28.4,104 C29.3,104.6 29.5,105.8 28.8,106.7 L25.7,110.3 C25.2,110.9 24.9,111.7 24.9,112.6 L24.9,115.5 C24.9,116.4 25.3,117.3 25.9,118 L28.5,120.5 C29.1,121.1 29.2,122.2 28.6,122.9 L25.6,129.1 C25.1,129.7 24.8,130.5 24.8,131.3 L24.8,133.9 C24.8,135.7 25.5,137.4 26.8,138.7 L34,145.6 C35,146.5 36.5,146.3 37.2,145.1 L45.4,131.9 C46,130.9 46.2,129.8 46.2,128.6 L46.2,67 C56.1,63.6 63.3,56.5 65.8,46.6 C66.5,44.1 66.8,41.4 66.8,38.5 C66.9,20.9 52.8,6.6 35.4,6.6 Z M35.2,25.3 C30.7,25.3 27.1,21.7 27.1,17.2 C27.1,12.7 30.7,9.1 35.2,9.1 C39.7,9.1 43.3,12.7 43.3,17.2 C43.3,21.7 39.7,25.3 35.2,25.3 Z" id="Shape" class="fill-primary-100" fill-rule="nonzero"></path>
            <path d="M65.9,46.6 C63.4,56.5 56.2,63.7 46.3,67 L46.3,99.6 C40.4,94 36.8,86.1 36.8,77.3 C36.7,60.9 49.6,47.4 65.9,46.6 Z" id="Shape" fill="#A6CFFF" fill-rule="nonzero"></path>
            <path d="M44.1,132.6 L45.2,130.7 C45.8,129.6 46.1,128.4 46.1,127.2 L46.1,74.4 M14.1,7.2 C6.1,13.5 0.9,23.2 0.9,34.2 C0.9,49.1 10.4,61.8 23.7,66.5 L23.7,73.4 C23.7,76 24.6,78.6 26.1,80.7 L29.9,85.7 C30.5,86.5 30.4,87.6 29.6,88.3 L24.2,92.9 C23.9,93.2 23.7,93.5 23.7,93.9 C23.7,94.4 23.9,94.8 24.3,95 L25.7,95.9 L25.7,100.5 C25.7,101.8 26.4,102.9 27.4,103.6 C28.4,104.2 28.6,105.6 27.8,106.4 L24.5,110.2 C23.9,110.9 23.6,111.7 23.6,112.6 L23.6,115.7 C23.6,116.7 24,117.7 24.7,118.4 L27.5,121.1 C28.2,121.8 28.3,122.9 27.7,123.7 L24.4,127.7 C23.9,128.4 23.6,129.2 23.6,130 L23.6,132.8 C23.6,134.7 24.4,136.6 25.7,137.9 L33.5,145.3 C34.5,146.3 36.2,146 36.9,144.8 L40.2,139 M21.7,2.8 C21.3,3 21,3.1 20.6,3.3 M46.1,66.7 C59.7,62.1 69.4,49.3 69.4,34.2 C69.4,15.7 54.7,0.6 36.3,0 M42.1,22.3 C40.7,24.6 38.1,26.1 35.2,26.1 C30.7,26.1 27.1,22.5 27.1,18 C27.1,17.4 27.2,16.8 27.3,16.2 M30.3,11.6 C31.7,10.6 33.4,9.9 35.2,9.9 C39.7,9.9 43.3,13.5 43.3,18 C43.3,19.6 42.9,21 42.1,22.2" id="Shape" class="stroke-primary" stroke-width="3" stroke-linecap="round" stroke-linejoin="round"></path>
            <path d="M22.7,66.1 C25,67 27.4,67.6 29.8,68" id="Shape" class="stroke-primary" stroke-width="3" stroke-linecap="round" stroke-linejoin="round"></path>
            <path d="M37.1,128.9 L37.1,130.6" id="Shape" class="stroke-primary" stroke-width="3" stroke-linecap="round" stroke-linejoin="round"></path>
            <path d="M37.1,98.8 L37.1,113.2" id="Shape" class="stroke-primary" stroke-width="3" stroke-linecap="round" stroke-linejoin="round"></path>
            <path d="M37.1,68.5 L37.1,92" id="Shape" class="stroke-primary" stroke-width="3" stroke-linecap="round" stroke-linejoin="round"></path>
            <path d="M44.6,57.7 C41.6,58.9 38.4,59.5 35,59.5 C31.5,59.5 28.1,58.8 25,57.5" id="Shape" class="stroke-primary-300" stroke-width="3" stroke-linecap="round" stroke-linejoin="round"></path>
            <path d="M55.6,49.7 C55.3,50.1 54.9,50.5 54.6,50.9" id="Shape" class="stroke-primary-300" stroke-width="3" stroke-linecap="round" stroke-linejoin="round"></path>
            <path d="M59,22.3 C60.5,25.6 61.3,29.3 61.3,33.2 C61.3,37.9 60.1,42.2 58,46" id="Shape" class="stroke-primary-300" stroke-width="3" stroke-linecap="round" stroke-linejoin="round"></path>
            <path d="M8.6,33.2 C8.6,27.1 10.6,21.6 14.1,17.1" id="Shape" class="stroke-primary-300" stroke-width="3" stroke-linecap="round" stroke-linejoin="round"></path>
            <path d="M15,50.4 C14.5,49.8 14,49.2 13.5,48.5" id="Shape" class="stroke-primary-300" stroke-width="3" stroke-linecap="round" stroke-linejoin="round"></path>
            <g id="Group" transform="translate(42.000000, 37.000000)">
                <circle id="Oval" class="stroke-primary-400" class="fill-primary-400" fill-rule="nonzero" cx="31" cy="31.7" r="30.8"></circle>
                <path d="M21.2,60.9 C9,56.8 0.2,45.3 0.2,31.7 C0.2,14.7 14,0.9 31,0.9 C32.7,0.9 34.3,1 35.9,1.3" id="Shape" class="stroke-primary" stroke-width="3" stroke-linecap="round" stroke-linejoin="round"></path>
                <path d="M57.8,16.4 C60.4,20.9 61.8,26.1 61.8,31.7 C61.8,48.7 48,62.5 31,62.5 C30.8,62.5 30.6,62.5 30.3,62.5" id="Shape" class="stroke-primary" stroke-width="3" stroke-linecap="round" stroke-linejoin="round"></path>
                <path d="M44.1,3.8 C45.9,4.6 47.5,5.6 49.1,6.8" id="Shape" class="stroke-primary" stroke-width="3" stroke-linecap="round" stroke-linejoin="round"></path>
                <path d="M28.1,43.8 C27,43.8 25.9,43.4 25.2,42.6 L16.6,34 C15,32.4 15,29.8 16.6,28.1 C18.2,26.5 20.8,26.5 22.5,28.1 L28.2,33.8 L41.2,20.8 C42.8,19.2 45.4,19.2 47.1,20.8 C48.7,22.4 48.7,25 47.1,26.7 L31.1,42.7 C30.2,43.3 29.2,43.8 28.1,43.8 Z" id="Shape" stroke-width="3" class="stroke-primary fill-neutral" fill-rule="nonzero" stroke-linecap="round" stroke-linejoin="round"></path>
            </g>
        </g>
    </g>
</svg>