<?xml version="1.0" encoding="UTF-8"?>
<svg width="149px" height="132px" viewBox="0 0 149 132" version="1.1" xmlns="http://www.w3.org/2000/svg" xmlns:xlink="http://www.w3.org/1999/xlink">
    <!-- Generator: Sketch 51.2 (57519) - http://www.bohemiancoding.com/sketch -->
    <title>Keys</title>
    <desc>Created with Sketch.</desc>
    <defs></defs>
    <g id="Page-1" stroke="none" stroke-width="1" fill="none" fill-rule="evenodd">
        <g id="Keys" transform="translate(2.000000, 1.000000)">
            <g id="Group" transform="translate(25.000000, 14.000000)">
                <path d="M119.5,33.4 L107.7,25.9 C106.8,25.3 105.8,25 104.7,24.9 L59.3,22.6 L52.7,22.3 C51.2,17.1 48.4,12.4 44.5,8.8 C39.6,4.1 33.1,1.2 25.8,0.8 C15.3,0.3 5.7,5.3 0.1,13.4 C3.2,11.7 6.5,10.5 9.9,9.8 C11.7,9.4 13.5,9.2 15.3,9.1 C24.8,8.7 34.5,12.1 41.7,19.4 C47.6,25.3 51,32.9 51.8,40.6 C51.8,40.6 51.8,40.7 51.8,40.7 C51.7,41 51.6,41.2 51.5,41.5 L51.9,41.5 L57.5,41.8 C59.7,41.9 61.9,41.3 63.8,40.1 C63.8,40.1 63.8,40.1 63.8,40.1 L68.3,37.1 C68.6,36.9 69,36.8 69.4,36.8 C69.8,36.8 70.3,37.1 70.5,37.4 L74.2,42.3 C74.4,42.6 74.7,42.8 75.1,42.8 C75.5,42.8 75.9,42.6 76.1,42.3 L76.5,41.8 L77,41.1 L77.2,41.1 L80.9,41.3 C82,41.3 83,40.8 83.7,39.9 C84.3,39.1 85.4,39 86.2,39.6 L89.4,42.6 C90,43.1 90.7,43.4 91.4,43.5 L94.1,43.6 C95,43.6 95.8,43.3 96.4,42.7 L98.9,40.4 C99.5,39.8 100.5,39.8 101.1,40.4 L104.4,43.4 C104.9,43.9 105.7,44.2 106.4,44.2 L108.8,44.3 C110.5,44.4 112.1,43.8 113.3,42.7 L120,36.3 C120.4,35.9 120.6,35.4 120.6,34.9 C120.6,34.9 120.6,34.9 120.6,34.9 C120.4,34.4 120.1,33.8 119.5,33.4 Z" id="Shape" class="fill-neutral" fill-rule="nonzero"></path>
                <path d="M119.6,33.4 L108.6,25.8 C107.8,25.3 106.8,25 105.8,24.9 L59.1,22.5 L53,22.2 C51.4,16.7 48.6,12.1 44.5,8.8 C40.4,5.5 35.4,3.5 29.3,3.2 C21.9,2.8 15,5.4 9.8,9.8 C11.6,9.4 13.4,9.2 15.2,9.1 C24.7,8.7 34.4,12.1 41.6,19.4 C47.5,25.3 50.9,32.9 51.7,40.6 C51.7,40.6 51.7,40.6 51.7,40.5 L57.2,40.8 C58.8,40.9 61.5,40.6 63.6,40 C64.3,39.8 64.9,39.5 65.3,39.3 L69.2,36.7 L69.5,36.5 C70.2,36.1 71.1,36.2 71.6,36.9 L75,41.4 C75.2,41.7 75.5,41.8 75.8,41.8 C76,41.8 76.1,41.8 76.3,41.7 C76.5,41.6 76.6,41.5 76.8,41.3 L77,41 L77.6,40.2 L81.2,40.4 C82.2,40.5 83.2,40 83.8,39.2 C84.3,38.4 85.4,38.3 86.1,39 L89.1,41.8 C89.6,42.3 90.3,42.6 91,42.6 L93.5,42.7 C94.3,42.7 95.1,42.5 95.7,41.9 L98,39.8 C98.6,39.3 99.5,39.3 100.1,39.8 L105.3,42.6 C105.8,43.1 106.5,43.3 107.1,43.4 L109.4,43.5 C110.9,43.6 112.4,43 113.6,42 L119.8,36.1 C120.1,35.8 120.3,35.4 120.3,35 C120.3,35 120.3,35 120.3,35 C120.5,34.4 120.2,33.7 119.6,33.4 Z" id="Shape" class="stroke-primary-400" class="fill-primary-400" fill-rule="nonzero"></path>
                <path d="M0.1,13.3 C5.7,5.2 15.3,0.2 25.8,0.7 C33.1,1.1 39.6,4.1 44.5,8.7 C48.4,12.3 51.2,17 52.7,22.2 M95,24.5 L104.7,25 C105.8,25.1 106.8,25.4 107.7,26 L119.5,33.5 C120.1,33.9 120.4,34.5 120.4,35.1 C120.4,35.1 120.4,35.1 120.4,35.1 C120.4,35.6 120.2,36.1 119.8,36.5 L113.1,42.9 C111.9,44 110.3,44.6 108.6,44.5 L106.2,44.4 C105.5,44.4 104.8,44.1 104.2,43.6 L100.9,40.6 C100.3,40 99.3,40 98.7,40.6 L96.2,42.9 C95.6,43.5 94.7,43.8 93.9,43.8 L91.2,43.7 C90.4,43.7 89.7,43.3 89.2,42.8 L86,39.8 C85.3,39.1 84.1,39.2 83.5,40.1 C82.9,41 81.8,41.5 80.7,41.5 L77,41.3 L76.8,41.3 L76.3,42 L75.9,42.5 C75.7,42.8 75.3,43 74.9,43 C74.6,43 74.2,42.8 74,42.5 L70.3,37.6 C70,37.2 69.6,37 69.2,37 C68.8,37 68.5,37.1 68.1,37.3 L63.6,40.3 C63.6,40.3 63.6,40.3 63.6,40.3 C61.7,41.5 59.5,42.2 57.3,42 L52.1,41.7 M59.3,22.6 L83.8,23.9" id="Shape" class="stroke-primary" stroke-width="3" stroke-linecap="round" stroke-linejoin="round"></path>
                <path d="M105.8,32.8 L107.2,32.8" id="Shape" class="stroke-primary" stroke-width="3" stroke-linecap="round" stroke-linejoin="round"></path>
                <path d="M79.9,31.4 L92.3,32.1" id="Shape" class="stroke-primary" stroke-width="3" stroke-linecap="round" stroke-linejoin="round"></path>
                <path d="M53.8,30.1 L74.1,31.1" id="Shape" class="stroke-primary" stroke-width="3" stroke-linecap="round" stroke-linejoin="round"></path>
            </g>
            <path d="M105.1,128.8 L107.9,128.7 C109.1,128.7 110,127.5 109.7,126.3 L105.9,112.8 C105.6,111.8 105.1,110.8 104.3,110.1 L72.1,77.9 L105.1,128.8 Z M67.5,73.3 C73,62.3 71.1,48.5 61.9,39.3 C50.4,27.8 31.7,27.8 20.2,39.3 C8.7,50.8 8.7,69.5 20.2,81 C29.3,90.1 42.8,92 53.8,86.8 L58,91 C59.6,92.6 61.7,93.6 63.9,93.9 L69.3,94.7 C70.2,94.8 70.8,95.6 70.7,96.5 L70.2,102.6 C70.2,102.9 70.3,103.3 70.5,103.5 C70.8,103.8 71.2,103.9 71.6,103.8 L73,103.5 L75.8,106.3 C76.6,107.1 77.7,107.4 78.7,107.1 C79.7,106.9 80.6,107.6 80.7,108.6 L81,113 C81.1,113.8 81.4,114.5 81.9,115 L83.8,116.9 C84.4,117.5 85.2,117.8 86.1,117.8 L89.5,117.7 C90.3,117.7 91.1,118.3 91.2,119.2 L91.6,123.6 C91.7,124.3 92,125 92.5,125.5 L94.2,127.2 C95.4,128.4 97,129 98.6,129 L100.4,128.9 L67.5,73.3 Z M26.3,45.4 C29,42.7 33.4,42.7 36.1,45.4 C38.8,48.1 38.8,52.5 36.1,55.2 C33.4,57.9 29,57.9 26.3,55.2 C23.6,52.5 23.6,48.1 26.3,45.4 Z" id="Shape" class="fill-neutral" fill-rule="nonzero"></path>
            <path d="M67.8,73.3 C72.8,63.1 71.5,51.9 63,43.4 C52.3,32.7 35,32.6 24.4,43.1 C13.8,53.7 13.9,71 24.7,81.7 C33.2,90.2 44.7,91 54.8,86.2 L58.7,90.1 C60.2,91.6 63.7,94.1 65.7,94.4 L70.7,95.1 C71.5,95.2 72.1,95.9 72,96.7 L71.6,102.3 C71.6,102.6 71.7,102.9 71.9,103.2 C72.2,103.5 72.5,103.6 72.9,103.5 L74.2,103.2 L76.8,105.8 C77.5,106.5 78.6,106.8 79.5,106.6 C80.4,106.4 81.3,107 81.4,108 L81.7,112.1 C81.8,112.8 82.1,113.5 82.6,114 L84.4,115.8 C85,116.4 85.7,116.7 86.5,116.7 L89.6,116.7 C90.4,116.7 91.1,117.3 91.1,118.1 L93.1,123.7 C93.2,124.4 93.5,125 94,125.5 L95.6,127.1 C96.7,128.2 98.2,128.8 99.7,128.8 L108.3,128.6 C109.4,128.6 110.2,127.5 109.9,126.4 L106.8,113.4 C106.5,112.5 106,111.6 105.3,110.9 L72.2,77.8 L67.8,73.3 Z M25.8,44.8 C28.5,42.1 32.9,42.1 35.6,44.8 C38.3,47.5 38.3,51.9 35.6,54.6 C32.9,57.3 28.5,57.3 25.8,54.6 C23.1,52 23.1,47.6 25.8,44.8 Z" id="Shape" class="fill-primary-100" fill-rule="nonzero"></path>
            <path d="M105.1,128.8 L107.9,128.7 C109.1,128.7 110,127.5 109.7,126.3 L105.9,112.8 C105.6,111.8 105.1,110.8 104.3,110.1 L72.1,77.9 M20.3,39.3 C8.8,50.8 8.8,69.5 20.3,81 C29.4,90.1 42.9,92 53.9,86.8 L58.1,91 C59.7,92.6 61.8,93.6 64,93.9 L69.4,94.7 C70.3,94.8 70.9,95.6 70.8,96.5 L70.3,102.6 C70.3,102.9 70.4,103.3 70.6,103.5 C70.9,103.8 71.3,103.9 71.7,103.8 L73.1,103.5 L75.9,106.3 C76.7,107.1 77.8,107.4 78.8,107.1 C79.8,106.9 80.7,107.6 80.8,108.6 L81.1,113 C81.2,113.8 81.5,114.5 82,115 L83.9,116.9 C84.5,117.5 85.3,117.8 86.2,117.8 L89.6,117.7 C90.4,117.7 91.2,118.3 91.3,119.2 L91.7,123.6 C91.8,124.3 92.1,125 92.6,125.5 L94.3,127.2 C95.2,128.1 96.3,128.7 97.5,128.9 M24.7,35.6 C24.6,35.6 24.6,35.7 24.5,35.7 M67.5,73.3 C73,62.3 71.1,48.5 61.9,39.3 C54.8,32.2 45.1,29.5 35.9,31.1 M36.7,45.9 C38.9,48.6 38.8,52.7 36.2,55.2 C33.5,57.9 29.1,57.9 26.4,55.2 C23.7,52.5 23.7,48.1 26.4,45.4 C27.2,44.6 28.2,44 29.2,43.7" id="Shape" class="stroke-primary" stroke-width="3" stroke-linecap="round" stroke-linejoin="round"></path>
            <path d="M52.9,87.2 C54.8,86.4 56.7,85.3 58.4,84" id="Shape" class="stroke-primary" stroke-width="3" stroke-linecap="round" stroke-linejoin="round"></path>
            <path d="M99.9,116.6 L100.9,117.6" id="Shape" class="stroke-primary" stroke-width="3" stroke-linecap="round" stroke-linejoin="round"></path>
            <path d="M81.6,98.3 L90.4,107.1" id="Shape" class="stroke-primary" stroke-width="3" stroke-linecap="round" stroke-linejoin="round"></path>
            <path d="M63.1,79.8 L77.5,94.2" id="Shape" class="stroke-primary" stroke-width="3" stroke-linecap="round" stroke-linejoin="round"></path>
            <path d="M61.1,68.7 C60,71.2 58.4,73.6 56.3,75.6 C54.1,77.8 51.7,79.4 49,80.5" id="Shape" class="stroke-primary-300" stroke-width="3" stroke-linecap="round" stroke-linejoin="round"></path>
            <path d="M62.9,57.1 C62.9,57.5 63,58 63,58.4" id="Shape" class="stroke-primary-300" stroke-width="3" stroke-linecap="round" stroke-linejoin="round"></path>
            <path d="M48.4,38.4 C51.3,39.5 54.1,41.2 56.4,43.6 C59.2,46.4 61.2,49.8 62.2,53.4" id="Shape" class="stroke-primary-300" stroke-width="3" stroke-linecap="round" stroke-linejoin="round"></path>
            <path d="M24.3,75.7 C20.6,72 18.5,67.4 17.8,62.6" id="Shape" class="stroke-primary-300" stroke-width="3" stroke-linecap="round" stroke-linejoin="round"></path>
            <path d="M38.7,82.3 C38,82.3 37.3,82.2 36.6,82.1" id="Shape" class="stroke-primary-300" stroke-width="3" stroke-linecap="round" stroke-linejoin="round"></path>
            <path d="M37.7,49.8 C28.1,54.6 16,53 8,44.9 C-2.1,34.8 -2.1,18.5 8,8.4 C18.1,-1.7 34.4,-1.7 44.5,8.4 C46.1,10 47.4,11.7 48.5,13.6" id="Shape" class="stroke-primary" stroke-width="3" stroke-linecap="round" stroke-linejoin="round"></path>
        </g>
    </g>
</svg>