<?xml version="1.0" encoding="UTF-8"?>
<svg width="120px" height="151px" viewBox="0 0 120 151" version="1.1" xmlns="http://www.w3.org/2000/svg" xmlns:xlink="http://www.w3.org/1999/xlink">
    <!-- Generator: Sketch 51.2 (57519) - http://www.bohemiancoding.com/sketch -->
    <title>Like</title>
    <desc>Created with Sketch.</desc>
    <defs></defs>
    <g id="Page-1" stroke="none" stroke-width="1" fill="none" fill-rule="evenodd">
        <g id="Like" transform="translate(1.000000, 1.000000)">
            <path d="M80.3,30.7 L80.3,25.5" id="Shape" stroke-width="3" class="stroke-primary fill-neutral" fill-rule="nonzero" stroke-linecap="round" stroke-linejoin="round"></path>
            <path d="M80.3,35.5 L80.3,35.4" id="Shape" stroke-width="3" class="stroke-primary fill-neutral" fill-rule="nonzero" stroke-linecap="round" stroke-linejoin="round"></path>
            <g id="Group" transform="translate(2.000000, 21.000000)">
                <g transform="translate(0.000000, 126.000000)" id="Shape" class="stroke-primary-300" stroke-linecap="round" stroke-linejoin="round" stroke-width="3">
                    <path d="M1,0.3 L0.1,0.3"></path>
                    <path d="M91,0.6 L6.4,0.4"></path>
                    <path d="M109.1,0.7 L95.3,0.6"></path>
                    <path d="M114.6,0.8 L113.1,0.7"></path>
                </g>
                <path d="M78.4,125.7 L28.9,125.5 C23.9,125.5 19.9,121.4 19.9,116.5 L20.3,9.5 C20.3,4.5 24.4,0.5 29.3,0.5 L78.8,0.7 C83.8,0.7 87.8,4.8 87.8,9.7 L87.4,116.7 C87.4,121.7 83.3,125.7 78.4,125.7 Z" id="Shape" class="fill-neutral" fill-rule="nonzero"></path>
                <path d="M87.8,9.8 L87.4,116.8 C87.4,121.8 83.3,125.8 78.4,125.8 L28.9,125.6 C23.9,125.6 19.9,121.5 19.9,116.6 L20.3,9.6 C20.3,4.6 24.4,0.6 29.3,0.6 L78.8,0.8 C83.8,0.8 87.8,4.8 87.8,9.8 Z" id="Shape" class="fill-primary-200" fill-rule="nonzero"></path>
                <rect id="Rectangle-path" class="fill-neutral" fill-rule="nonzero" transform="translate(53.901805, 61.039939) rotate(-89.809057) translate(-53.901805, -61.039939) " x="3.60152566" y="27.3397519" width="100.600559" height="67.4003743"></rect>
                <g transform="translate(28.000000, 25.000000)" fill-rule="nonzero">
                    <path d="M44.7,74.2 L6.7,74.2 C4.5,74.2 2.7,72.4 2.7,70.2 L2.7,10.4 C2.7,8.2 4.5,4.6 6.7,4.6 L44.7,4.6 C46.9,4.6 48.7,8.1 48.7,10.4 L48.7,70.2 C48.7,72.4 46.9,74.2 44.7,74.2 Z" id="Shape" class="fill-primary-200"></path>
                    <path d="M0.9,11.9 L0.9,3.9 C0.9,2 2.4,0.5 4.3,0.5 L47,0.5 C48.9,0.5 50.4,2 50.4,3.9 L50.4,66.7 C50.4,68.6 48.9,70.1 47,70.1 L4.3,70.1 C2.4,70.1 0.9,68.6 0.9,66.7 L0.9,27" id="Shape" class="stroke-primary-300" stroke-width="3" class="fill-neutral" stroke-linecap="round" stroke-linejoin="round"></path>
                    <path d="M0.9,17.7 L0.9,17" id="Shape" class="stroke-primary-300" stroke-width="3" class="fill-neutral" stroke-linecap="round" stroke-linejoin="round"></path>
                    <circle id="Oval" class="stroke-primary-300" stroke-width="3" class="fill-neutral" stroke-linecap="round" stroke-linejoin="round" cx="25.7" cy="23.9" r="8.2"></circle>
                    <path d="M14.6,45.2 L36.8,45.2" id="Shape" class="stroke-primary-300" stroke-width="3" class="fill-neutral" stroke-linecap="round" stroke-linejoin="round"></path>
                    <path d="M21.3,52.6 L30.1,52.6" id="Shape" class="stroke-primary-300" stroke-width="3" class="fill-neutral" stroke-linecap="round" stroke-linejoin="round"></path>
                </g>
                <path d="M20.2,47.8 L20.3,9.6 C20.3,4.6 24.4,0.6 29.3,0.6 L78.8,0.8 C83.8,0.8 87.8,4.9 87.8,9.8 L87.4,116.8 C87.4,121.8 83.3,125.8 78.4,125.8 L28.9,125.6 C23.9,125.6 19.9,121.5 19.9,116.6 L20.1,62" id="Shape" class="stroke-primary" stroke-width="3" stroke-linecap="round" stroke-linejoin="round"></path>
                <path d="M20.2,40.3 L20.2,40" id="Shape" class="stroke-primary" stroke-width="3" stroke-linecap="round" stroke-linejoin="round"></path>
                <circle id="Oval" class="stroke-primary" stroke-width="3.00001666" stroke-linecap="round" stroke-linejoin="round" transform="translate(54.297638, 118.264997) rotate(-89.809057) translate(-54.297638, -118.264997) " cx="54.297638" cy="118.264997" r="3.00001666"></circle>
                <path d="M80.4,11.2 L87.1,11.2" id="Shape" class="stroke-primary" stroke-width="3" stroke-linecap="round" stroke-linejoin="round"></path>
                <path d="M26.6,11 L75.1,11.2" id="Shape" class="stroke-primary" stroke-width="3" stroke-linecap="round" stroke-linejoin="round"></path>
                <path d="M71.6,110.9 L20.6,110.8" id="Shape" class="stroke-primary" stroke-width="3" stroke-linecap="round" stroke-linejoin="round"></path>
                <path d="M86.8,111 L77.2,111" id="Shape" class="stroke-primary" stroke-width="3" stroke-linecap="round" stroke-linejoin="round"></path>
                <path d="M51.5,5.9 L59.4,5.9" id="Shape" class="stroke-primary" stroke-width="3" stroke-linecap="round" stroke-linejoin="round"></path>
                <path d="M46.4,5.9 L46.9,5.9" id="Shape" class="stroke-primary" stroke-width="3" stroke-linecap="round" stroke-linejoin="round"></path>
            </g>
            <path d="M11.1,63.5 C4.5,56.8 0.5,47.7 0.5,37.6 C0.5,17.2 17,0.7 37.4,0.7 C42.2,0.7 46.8,1.6 51,3.3" id="Shape" class="stroke-primary-300" stroke-width="3" stroke-linecap="round" stroke-linejoin="round" stroke-dasharray="1,7"></path>
            <circle id="Oval" class="stroke-primary-300" stroke-width="3" class="fill-neutral" fill-rule="nonzero" stroke-linecap="round" stroke-linejoin="round" cx="8.2" cy="14.7" r="4.9"></circle>
            <path d="M72.8,6.3 C77.1,3.5 82.2,1.9 87.6,1.9 C102.5,1.9 114.7,14 114.7,29 C114.7,43.9 102.6,56.1 87.6,56.1 C72.7,56.1 60.5,44 60.5,29 C60.5,19.4 65.4,11.1 72.8,6.3" id="Shape" class="fill-primary-500" fill-rule="nonzero"></path>
            <path d="M79.1,3.2 C79.3,3.1 79.6,3.1 79.8,3 C82.3,2.3 84.9,1.9 87.6,1.9 C93.6,1.9 99.2,3.9 103.7,7.2" id="Shape" class="stroke-primary" stroke-width="3" stroke-linecap="round" stroke-linejoin="round"></path>
            <path d="M114.4,24.9 C114.6,26.2 114.7,27.5 114.7,28.9 C114.7,43.8 102.6,56 87.6,56 C72.7,56 60.5,43.9 60.5,28.9 C60.5,20.5 64.3,13 70.3,8.1" id="Shape" class="stroke-primary" stroke-width="3" stroke-linecap="round" stroke-linejoin="round"></path>
            <path d="M109.8,13.4 C110.1,13.8 110.4,14.3 110.7,14.8" id="Shape" class="stroke-primary" stroke-width="3" stroke-linecap="round" stroke-linejoin="round"></path>
            <path d="M97.4,36.8 C94.6,38.9 91.6,40.8 88.7,42.8 C88.5,42.9 88.1,43 87.9,42.9 C80.1,38 71.3,33 73.7,23 C74.9,18.3 79.6,16 84,18 C85,18.4 86,19.1 86.9,19.8 C88,20.6 88.3,20.6 89.3,19.8 C94.9,15.1 101.7,17.6 102.8,23.8 C103.7,28.7 102,33.3 97.4,36.8 Z" id="Shape" stroke-width="3" class="stroke-primary fill-neutral" fill-rule="nonzero" stroke-linecap="round" stroke-linejoin="round"></path>
            <path d="M87.5,20 L87.7,20.1 C88.9,21 89.8,21.9 91.2,23.7" id="Shape" stroke-width="3" class="stroke-primary fill-neutral" fill-rule="nonzero" stroke-linecap="round" stroke-linejoin="round"></path>
        </g>
    </g>
</svg>