<?xml version="1.0" encoding="UTF-8"?>
<svg width="151px" height="106px" viewBox="0 0 151 106" version="1.1" xmlns="http://www.w3.org/2000/svg" xmlns:xlink="http://www.w3.org/1999/xlink">
    <!-- Generator: Sketch 51.2 (57519) - http://www.bohemiancoding.com/sketch -->
    <title>Like_1_</title>
    <desc>Created with Sketch.</desc>
    <defs></defs>
    <g id="Page-1" stroke="none" stroke-width="1" fill="none" fill-rule="evenodd">
        <g id="Like_1_" transform="translate(2.000000, 1.000000)">
            <g id="Group" transform="translate(0.000000, 102.000000)" class="stroke-primary-300" stroke-linecap="round" stroke-linejoin="round" stroke-width="2.5329">
                <path d="M1.2,0.8 L0.2,0.8" id="Shape"></path>
                <path d="M20.1,0.8 L5.3,0.8" id="Shape"></path>
                <path d="M25.5,0.8 L24.5,0.8" id="Shape"></path>
                <path d="M108.4,0.8 L31,0.8" id="Shape"></path>
                <path d="M141.7,0.8 L112.8,0.8" id="Shape"></path>
                <path d="M147.4,0.8 L145.8,0.8" id="Shape"></path>
            </g>
            <g id="Group" transform="translate(25.000000, 15.000000)">
                <g fill-rule="nonzero" id="Shape">
                    <path d="M87.2,46.4 C98.7,42.3 94.9,30.3 85.5,30.3 C76.6,30.3 68.5,30.3 56.8,30.3 C60.6,17.4 58.6,-2 49.3,0.9 C47,1.6 45.7,3.3 45.3,5.8 C44.3,12 44.2,24.8 24.4,38.8 C23.9,39.1 24,38.4 24,36.1 C24,33.4 22.3,32.5 19.6,32.5 C3,32.4 0.9,31.5 0.9,36.3 C0.9,52 0.9,67.7 0.9,83.4 C0.9,88.2 3.1,87.3 19.6,87.2 C25.6,87.2 21.8,81.6 24.4,82.9 C32.4,86.8 34.5,86 76.7,85.9 C77.5,85.9 78.4,85.8 79.2,85.7 C85.1,84.6 89.1,77.2 82.8,72.8 C82.7,72.8 82.7,72.6 82.6,72.5 C85.9,72.1 88.5,70.9 89.4,67.4 C90.3,63.9 88.5,61.6 85.6,59.7 C89.9,59 91.8,57.7 92.4,54.6 C93.2,50.3 90.4,48.2 87.2,46.4 Z" class="fill-neutral"></path>
                    <path d="M88.3,56.7 C87.7,59.4 85.9,60.6 81.8,61.2 C84.6,62.8 86.3,64.8 85.5,67.9 C84.6,71 82.1,72.1 79,72.4 C79.1,72.5 79.1,72.6 79.2,72.7 C81.1,74 82.1,75.5 82.2,77.1 C82.5,80.3 79.6,83.4 75.8,84 C75,84.1 74.2,84.2 73.4,84.2 C34.1,84.3 31.1,85 24,81.8 C23.8,81.7 23.6,81.6 23.4,81.6 C20.9,80.5 24.6,85.4 18.8,85.4 C13,85.4 9,85.5 6.3,85.5 C1.8,85.4 0.9,84.7 0.9,82.1 C0.9,68.3 0.9,54.6 0.9,40.8 C0.9,36.6 2.9,37.4 18.8,37.5 C21.4,37.5 23,38.3 23,40.7 C23,42.7 23,43.3 23.4,43.1 C23.6,43 23.7,42.9 23.9,42.8 C42.3,30.7 42.4,19.6 43.4,14.2 C43.8,12 45,10.5 47.2,9.9 C56.1,7.3 58,24.3 54.4,35.7 C65.6,35.7 73.3,35.7 81.9,35.7 C90.9,35.7 94.5,46.3 83.5,49.8 C86.4,51.2 89.1,53 88.3,56.7 Z" class="fill-primary-100"></path>
                    <path d="M75.6,84.1 C74.8,84.2 74,84.3 73.2,84.3 C33.9,84.4 30.9,85.1 23.8,81.9 C23.6,81.8 23.4,81.7 23.2,81.7 C20.7,80.6 24.4,85.5 18.6,85.5 C12.8,85.5 8.8,85.6 6.1,85.6 C6.1,76.4 8.7,61.3 18.4,69.7 C30.7,80.3 71.6,78.9 82,77.2 C82.3,80.3 79.4,83.4 75.6,84.1 Z" class="fill-primary-200"></path>
                    <path d="M23.8,42.8 L23.8,82.7 C23.6,82.6 23.1,83.8 22.9,83.7 C20.4,82.6 24.4,86.3 18.6,86.3 C2.9,86.4 0.8,87.2 0.8,82.9 L0.8,80 C0.8,67 0.8,53.9 0.8,40.9 C0.8,36.6 2.8,37.5 18.7,37.5 C21.3,37.5 22.9,38.4 22.9,40.7 C22.9,42.7 22.9,43.4 23.3,43.1 C23.4,43 23.6,42.9 23.8,42.8 Z" class="fill-primary-500"></path>
                    <path d="M23.8,80 L23.8,82.7 C23.6,82.6 23.1,83.8 22.9,83.7 C20.4,82.6 24.4,86.3 18.6,86.3 C2.9,86.4 0.8,87.2 0.8,82.9 L0.8,80 C2.1,80.7 3.6,81.1 5.1,81.1 L19.4,81.1 C21,81.1 22.5,80.7 23.8,80 Z" fill="#4A9BFF"></path>
                    <path d="M23.9,53.4 L23.9,38.9" class="fill-neutral"></path>
                </g>
                <g id="Shape" class="stroke-primary" stroke-linecap="round" stroke-linejoin="round" stroke-width="2.5329">
                    <path d="M36.5,27.8 C36.5,27.9 36.4,27.9 36.3,28"></path>
                    <path d="M28.8,84.7 C34.8,86.4 43,85.9 76.6,85.8 C77.4,85.8 78.3,85.7 79.1,85.6 C85,84.5 89,77.1 82.7,72.7 C82.6,72.7 82.6,72.5 82.5,72.4 C85.8,72 88.4,70.8 89.3,67.3 C90.2,63.8 88.4,61.5 85.5,59.6 C89.8,58.9 91.7,57.6 92.3,54.5 C93.1,50.3 90.3,48.2 87.1,46.4 C98.6,42.3 94.8,30.3 85.4,30.3 C76.5,30.3 68.4,30.3 56.7,30.3 C60.5,17.4 58.5,-2 49.2,0.9 C46.9,1.6 45.6,3.3 45.2,5.8 C44.7,8.8 44.4,13.2 42.1,18.6"></path>
                    <path d="M33.4,31.3 C31,33.8 28,36.3 24.3,38.9 C23.8,39.2 23.9,38.5 23.9,36.2 C23.9,33.5 22.2,32.6 19.5,32.6 C2.9,32.5 0.8,31.6 0.8,36.4 C0.8,52.1 0.8,67.8 0.8,83.5 C0.8,88.3 3,87.4 19.5,87.3 C23.9,87.3 23,84.2 23.3,83.1"></path>
                    <path d="M23.9,46.6 L23.9,38.9" class="fill-neutral" fill-rule="nonzero"></path>
                    <path d="M23.9,53.6 L23.9,53.2" class="fill-neutral" fill-rule="nonzero"></path>
                </g>
                <circle id="Oval" class="fill-neutral" fill-rule="nonzero" cx="12.3" cy="45.8" r="3.5"></circle>
            </g>
            <path d="M22.1,83.8 L23.6,83.8" id="Shape" stroke="#A3CCFF" stroke-width="2.1108" stroke-linecap="round" stroke-linejoin="round"></path>
            <path d="M8,83.8 L16.5,83.8" id="Shape" stroke="#A3CCFF" stroke-width="2.1108" stroke-linecap="round" stroke-linejoin="round"></path>
            <path d="M6.3,91.7 L18.2,91.7" id="Shape" stroke="#A3CCFF" stroke-width="2.1108" stroke-linecap="round" stroke-linejoin="round"></path>
            <path d="M119.5,84.7 L128,84.7" id="Shape" stroke="#A3CCFF" stroke-width="2.1108" stroke-linecap="round" stroke-linejoin="round"></path>
            <path d="M117.8,92.6 L129.7,92.6" id="Shape" stroke="#A3CCFF" stroke-width="2.1108" stroke-linecap="round" stroke-linejoin="round"></path>
            <g id="Group" transform="translate(95.000000, 14.000000)" stroke="#A3CCFF" stroke-linecap="round" stroke-linejoin="round" stroke-width="2.1108">
                <path d="M8.1,0 L5.9,2.2" id="Shape"></path>
                <path d="M2.4,5.7 L0.2,7.9" id="Shape"></path>
                <path d="M0.2,0 L2.4,2.2" id="Shape"></path>
                <path d="M5.9,5.7 L8.1,7.9" id="Shape"></path>
            </g>
            <g id="Group" transform="translate(32.000000, 27.000000)" stroke="#A3CCFF" stroke-linecap="round" stroke-linejoin="round" stroke-width="2.1108">
                <path d="M6.1,0.4 L4.4,2.1" id="Shape"></path>
                <path d="M1.7,4.8 L0,6.5" id="Shape"></path>
                <path d="M0,0.4 L1.7,2.1" id="Shape"></path>
                <path d="M4.4,4.8 L6.1,6.5" id="Shape"></path>
            </g>
            <g id="Group" transform="translate(136.000000, 48.000000)" stroke="#A3CCFF" stroke-linecap="round" stroke-linejoin="round" stroke-width="2.1108">
                <path d="M7.4,0.5 L5.5,2.3" id="Shape"></path>
                <path d="M2.6,5.2 L0.7,7.1" id="Shape"></path>
                <path d="M0.7,0.5 L2.6,2.3" id="Shape"></path>
                <path d="M5.5,5.2 L7.4,7.1" id="Shape"></path>
            </g>
            <circle id="Oval" stroke="#A3CCFF" stroke-width="2.11083177" stroke-linecap="round" stroke-linejoin="round" transform="translate(127.401460, 20.689820) rotate(-51.691849) translate(-127.401460, -20.689820) " cx="127.40146" cy="20.68982" r="2.1000316"></circle>
            <circle id="Oval" stroke="#A3CCFF" stroke-width="2.11083177" stroke-linecap="round" stroke-linejoin="round" transform="translate(46.894520, 2.991840) rotate(-51.691849) translate(-46.894520, -2.991840) " cx="46.89452" cy="2.99184" r="2.1000316"></circle>
        </g>
    </g>
</svg>