<?xml version="1.0" encoding="UTF-8"?>
<svg width="154px" height="106px" viewBox="0 0 154 106" version="1.1" xmlns="http://www.w3.org/2000/svg" xmlns:xlink="http://www.w3.org/1999/xlink">
    <!-- Generator: Sketch 51.2 (57519) - http://www.bohemiancoding.com/sketch -->
    <title>Like_UI</title>
    <desc>Created with Sketch.</desc>
    <defs></defs>
    <g id="Page-1" stroke="none" stroke-width="1" fill="none" fill-rule="evenodd">
        <g id="Like_UI" transform="translate(2.000000, 1.000000)">
            <g id="Group" transform="translate(3.000000, 102.000000)" class="stroke-primary-300" stroke-linecap="round" stroke-linejoin="round" stroke-width="3">
                <path d="M1,0.6 L0,0.6" id="Shape"></path>
                <path d="M21.5,0.6 L4.9,0.6" id="Shape"></path>
                <path d="M26.6,0.6 L25.7,0.6" id="Shape"></path>
                <path d="M104.8,0.6 L31.8,0.6" id="Shape"></path>
                <path d="M136.9,0.6 L108.9,0.6" id="Shape"></path>
                <path d="M142.2,0.6 L140.7,0.6" id="Shape"></path>
                <path d="M146.7,0.6 L146.4,0.6" id="Shape"></path>
            </g>
            <g id="Group" transform="translate(2.000000, 10.000000)" class="stroke-primary-300" stroke-linecap="round" stroke-linejoin="round" stroke-width="3">
                <path d="M0.9,26.5 L0.9,26" id="Shape"></path>
                <path d="M0.9,19.1 L0.9,6 C0.9,3 3.3,0.6 6.3,0.6 L68,0.6" id="Shape" stroke-dasharray="0.9856,6.8989"></path>
                <path d="M71.4,0.6 L71.9,0.6" id="Shape"></path>
            </g>
            <circle id="Oval" class="stroke-primary-300" stroke-width="3" class="fill-neutral" fill-rule="nonzero" stroke-linecap="round" stroke-linejoin="round" cx="2.9" cy="37.3" r="2.5"></circle>
            <circle id="Oval" class="stroke-primary-300" stroke-width="3" class="fill-neutral" fill-rule="nonzero" stroke-linecap="round" stroke-linejoin="round" cx="75.6" cy="10.7" r="2.5"></circle>
            <path d="M141.2,51 C146.5,45.6 149.8,38.3 149.8,30.1 C149.8,13.7 136.5,0.4 120.1,0.4 C116.2,0.4 112.5,1.1 109.1,2.5" id="Shape" class="stroke-primary-300" stroke-width="3" stroke-linecap="round" stroke-linejoin="round" stroke-dasharray="1,7"></path>
            <circle id="Oval" class="stroke-primary-300" stroke-width="3" class="fill-neutral" fill-rule="nonzero" stroke-linecap="round" stroke-linejoin="round" cx="143.5" cy="11.6" r="3.9"></circle>
            <g id="Group" transform="translate(15.000000, 26.000000)">
                <path d="M115,69 L115,72 C115,74.7 112.7,76.9 109.8,76.9 L5.4,76.9 C2.5,76.9 0.2,74.7 0.2,72 L0.2,69 L47.4,69 C47.8,70.1 48.9,70.9 50.2,70.9 L65,70.9 C66.3,70.9 67.4,70.1 67.8,69 L115,69 Z" id="Shape" class="fill-neutral" fill-rule="nonzero"></path>
                <path d="M109.1,69 L6.1,69 L6.1,4.3 C6.1,1.9 8,0 10.4,0 L104.9,0 C107.3,0 109.2,1.9 109.2,4.3 L109.2,69 L109.1,69 Z" id="Shape" class="fill-neutral" fill-rule="nonzero"></path>
                <path d="M109.1,69 L8.7,69 L8.7,4.8 C8.7,3.3 9.9,2.1 11.4,2.1 L105,2.1 C107.3,2.1 109.1,4 109.1,6.2 L109.1,69 Z" id="Shape" class="fill-primary-100" fill-rule="nonzero"></path>
                <polyline id="Shape" class="stroke-primary" stroke-width="3" stroke-linecap="round" stroke-linejoin="round" points="44 69 6.1 69 6.1 35.4"></polyline>
                <path d="M6.1,19.4 L6.1,4.3 C6.1,1.9 8,-9.09494702e-13 10.4,-9.09494702e-13 L104.9,-9.09494702e-13 C107.3,-9.09494702e-13 109.2,1.9 109.2,4.3 L109.2,69 L81.9,69" id="Shape" class="stroke-primary" stroke-width="3" stroke-linecap="round" stroke-linejoin="round"></path>
                <path d="M6.1,26.4 L6.1,25.9" id="Shape" class="stroke-primary" stroke-width="3" stroke-linecap="round" stroke-linejoin="round"></path>
                <path d="M115,71.4 L115,73.5 C115,75.4 112.7,77 110,77 L8.1,77 C5.3,77 3.1,75.4 3.1,73.5 L3.1,71.4 L46.4,71.4 C46.8,72.2 47.9,72.7 49.1,72.7 L66.3,72.7 C67.6,72.7 68.6,72.1 69,71.4 L115,71.4 Z" id="Shape" class="fill-primary-300" fill-rule="nonzero"></path>
                <path d="M11,5.4 L104,5.4" id="Shape" class="fill-neutral" fill-rule="nonzero"></path>
                <rect id="Rectangle-path" class="fill-neutral" fill-rule="nonzero" x="11" y="5.4" width="93" height="63.9"></rect>
                <g transform="translate(15.000000, 11.000000)" fill-rule="nonzero">
                    <path d="M3.6,33.9 C3.5,33.9 3.5,33.9 3.4,33.9 C3.8,34.2 4.2,34.4 4.8,34.4 L23.5,34.4 C24,34.4 24.5,34.2 24.9,33.9 C24.8,33.9 24.8,33.9 24.7,33.9 L3.6,33.9 Z" id="Shape" class="fill-primary-200"></path>
                    <path d="M3.4,13.8 L3.4,30.8 C3.4,30.9 3.5,31 3.6,31 L24.6,31 C24.7,31 24.8,30.9 24.8,30.8 L24.8,3.3 C24.8,3.2 24.7,3.1 24.6,3.1 L3.6,3.1 C3.5,3.1 3.4,3.2 3.4,3.3 L3.4,6.4 C3.4,6.9 3.1,7.4 2.7,7.7 C3.1,8 3.4,8.4 3.4,9 L3.4,9.3 C3.4,10.1 2.7,10.8 1.9,10.8 L1.9,12.4 C2.7,12.3 3.4,13 3.4,13.8 Z M16.3,27.9 L12,27.9 C11.2,27.9 10.5,27.2 10.5,26.4 C10.5,25.6 11.2,24.9 12,24.9 L16.3,24.9 C17.1,24.9 17.8,25.6 17.8,26.4 C17.8,27.2 17.1,27.9 16.3,27.9 Z M19.5,24.3 L8.6,24.3 C7.8,24.3 7.1,23.6 7.1,22.8 C7.1,22 7.8,21.3 8.6,21.3 L19.5,21.3 C20.3,21.3 21,22 21,22.8 C21,23.6 20.4,24.3 19.5,24.3 Z M19.6,12.3 C19.6,15.4 17.1,17.8 14.1,17.8 C11.1,17.8 8.6,15.3 8.6,12.3 C8.6,9.3 11.1,6.8 14.1,6.8 C17.1,6.8 19.6,9.2 19.6,12.3 Z" id="Shape" class="fill-neutral"></path>
                    <path d="M2.7,7.6 C3.1,7.3 3.4,6.9 3.4,6.3 L3.4,3.2 C3.4,3.1 3.5,3 3.6,3 L24.6,3 C24.7,3 24.8,3.1 24.8,3.2 L24.8,30.7 C24.8,30.8 24.7,30.9 24.6,30.9 L3.6,30.9 C3.5,30.9 3.4,30.8 3.4,30.7 L3.4,13.7 C3.4,12.9 2.7,12.2 1.9,12.2 C1.1,12.2 0.4,12.9 0.4,13.7 L0.4,30.7 C0.4,32.4 1.7,33.8 3.4,33.9 C3.5,33.9 3.5,33.9 3.6,33.9 L24.6,33.9 C24.7,33.9 24.7,33.9 24.8,33.9 C26.5,33.8 27.8,32.4 27.8,30.7 L27.8,3.2 C27.8,1.4 26.4,0 24.6,0 L3.6,0 C1.8,0 0.4,1.4 0.4,3.2 L0.4,6.3 C0.4,6.8 0.7,7.3 1.1,7.6 C1.3,7.4 1.6,7.4 1.9,7.4 C2.2,7.4 2.5,7.5 2.7,7.6 Z" id="Shape" class="fill-primary-300"></path>
                    <path d="M3.4,9.2 L3.4,8.9 C3.4,8.4 3.1,7.9 2.7,7.6 C2.5,7.4 2.2,7.4 1.9,7.4 C1.6,7.4 1.3,7.5 1.1,7.6 C0.7,7.9 0.4,8.3 0.4,8.9 L0.4,9.2 C0.4,10 1.1,10.7 1.9,10.7 C2.7,10.7 3.4,10 3.4,9.2 Z" id="Shape" class="fill-primary-300"></path>
                    <circle id="Oval" class="fill-neutral" cx="14.1" cy="12.3" r="2.5"></circle>
                    <path d="M8.5,12.3 C8.5,15.4 11,17.8 14,17.8 C17,17.8 19.5,15.3 19.5,12.3 C19.5,9.3 17,6.8 14,6.8 C11,6.8 8.5,9.2 8.5,12.3 Z M16.6,12.3 C16.6,13.7 15.5,14.8 14.1,14.8 C12.7,14.8 11.6,13.7 11.6,12.3 C11.6,10.9 12.7,9.8 14.1,9.8 C15.5,9.8 16.6,10.9 16.6,12.3 Z" id="Shape" class="fill-primary-300"></path>
                    <path d="M19.5,21.3 L8.6,21.3 C7.8,21.3 7.1,22 7.1,22.8 C7.1,23.6 7.8,24.3 8.6,24.3 L19.5,24.3 C20.3,24.3 21,23.6 21,22.8 C21,22 20.4,21.3 19.5,21.3 Z" id="Shape" class="fill-primary-300"></path>
                    <path d="M16.3,24.9 L12,24.9 C11.2,24.9 10.5,25.6 10.5,26.4 C10.5,27.2 11.2,27.9 12,27.9 L16.3,27.9 C17.1,27.9 17.8,27.2 17.8,26.4 C17.8,25.6 17.1,24.9 16.3,24.9 Z" id="Shape" class="fill-primary-300"></path>
                    <path d="M32.4,33.9 C32.3,33.9 32.3,33.9 32.2,33.9 C32.6,34.2 33,34.4 33.6,34.4 L52.3,34.4 C52.8,34.4 53.3,34.2 53.7,33.9 C53.6,33.9 53.6,33.9 53.5,33.9 L32.4,33.9 Z" id="Shape" class="fill-primary-200"></path>
                    <path d="M32.2,13.8 L32.2,30.8 C32.2,30.9 32.3,31 32.4,31 L53.4,31 C53.5,31 53.6,30.9 53.6,30.8 L53.6,3.3 C53.6,3.2 53.5,3.1 53.4,3.1 L32.4,3.1 C32.3,3.1 32.2,3.2 32.2,3.3 L32.2,6.4 C32.2,6.9 31.9,7.4 31.5,7.7 C31.9,8 32.2,8.4 32.2,9 L32.2,9.3 C32.2,10.1 31.5,10.8 30.7,10.8 L30.7,12.4 C31.6,12.3 32.2,13 32.2,13.8 Z M45.1,27.9 L40.8,27.9 C40,27.9 39.3,27.2 39.3,26.4 C39.3,25.6 40,24.9 40.8,24.9 L45.1,24.9 C45.9,24.9 46.6,25.6 46.6,26.4 C46.6,27.2 45.9,27.9 45.1,27.9 Z M48.4,24.3 L37.5,24.3 C36.7,24.3 36,23.6 36,22.8 C36,22 36.7,21.3 37.5,21.3 L48.4,21.3 C49.2,21.3 49.9,22 49.9,22.8 C49.9,23.6 49.2,24.3 48.4,24.3 Z M48.5,12.3 C48.5,15.4 46,17.8 43,17.8 C40,17.8 37.5,15.3 37.5,12.3 C37.5,9.3 40,6.8 43,6.8 C46,6.8 48.5,9.2 48.5,12.3 Z" id="Shape" class="fill-neutral"></path>
                    <path d="M31.6,7.6 C32,7.3 32.3,6.9 32.3,6.3 L32.3,3.2 C32.3,3.1 32.4,3 32.5,3 L53.5,3 C53.6,3 53.7,3.1 53.7,3.2 L53.7,30.7 C53.7,30.8 53.6,30.9 53.5,30.9 L32.5,30.9 C32.4,30.9 32.3,30.8 32.3,30.7 L32.3,13.7 C32.3,12.9 31.6,12.2 30.8,12.2 C30,12.2 29.3,12.9 29.3,13.7 L29.3,30.7 C29.3,32.4 30.6,33.8 32.3,33.9 C32.4,33.9 32.4,33.9 32.5,33.9 L53.5,33.9 C53.6,33.9 53.6,33.9 53.7,33.9 C55.4,33.8 56.7,32.4 56.7,30.7 L56.7,3.2 C56.7,1.4 55.3,0 53.5,0 L32.5,0 C30.7,0 29.3,1.4 29.3,3.2 L29.3,6.3 C29.3,6.8 29.6,7.3 30,7.6 C30.2,7.4 30.5,7.4 30.8,7.4 C31.1,7.4 31.3,7.5 31.6,7.6 Z" id="Shape" class="fill-primary-300"></path>
                    <path d="M32.2,9.2 L32.2,8.9 C32.2,8.4 31.9,7.9 31.5,7.6 C31.3,7.4 31,7.4 30.7,7.4 C30.4,7.4 30.1,7.5 29.9,7.6 C29.5,7.9 29.2,8.3 29.2,8.9 L29.2,9.2 C29.2,10 29.9,10.7 30.7,10.7 C31.5,10.7 32.2,10 32.2,9.2 Z" id="Shape" class="fill-primary-300"></path>
                    <circle id="Oval" class="fill-neutral" cx="42.9" cy="12.3" r="2.5"></circle>
                    <path d="M37.4,12.3 C37.4,15.4 39.9,17.8 42.9,17.8 C45.9,17.8 48.4,15.3 48.4,12.3 C48.4,9.3 45.9,6.8 42.9,6.8 C39.9,6.8 37.4,9.2 37.4,12.3 Z M42.9,14.8 C41.5,14.8 40.4,13.7 40.4,12.3 C40.4,10.9 41.5,9.8 42.9,9.8 C44.3,9.8 45.4,10.9 45.4,12.3 C45.4,13.7 44.3,14.8 42.9,14.8 Z" id="Shape" class="fill-primary-300"></path>
                    <path d="M48.4,21.3 L37.5,21.3 C36.7,21.3 36,22 36,22.8 C36,23.6 36.7,24.3 37.5,24.3 L48.4,24.3 C49.2,24.3 49.9,23.6 49.9,22.8 C49.9,22 49.2,21.3 48.4,21.3 Z" id="Shape" class="fill-primary-300"></path>
                    <path d="M45.1,24.9 L40.8,24.9 C40,24.9 39.3,25.6 39.3,26.4 C39.3,27.2 40,27.9 40.8,27.9 L45.1,27.9 C45.9,27.9 46.6,27.2 46.6,26.4 C46.6,25.6 45.9,24.9 45.1,24.9 Z" id="Shape" class="fill-primary-300"></path>
                    <path d="M60.7,33.9 C60.6,33.9 60.6,33.9 60.5,33.9 C60.9,34.2 61.3,34.4 61.9,34.4 L80.6,34.4 C81.1,34.4 81.6,34.2 82,33.9 C81.9,33.9 81.9,33.9 81.8,33.9 L60.7,33.9 Z" id="Shape" class="fill-primary-200"></path>
                    <path d="M60.5,13.8 L60.5,30.8 C60.5,30.9 60.6,31 60.7,31 L81.7,31 C81.8,31 81.9,30.9 81.9,30.8 L81.9,3.3 C81.9,3.2 81.8,3.1 81.7,3.1 L60.7,3.1 C60.6,3.1 60.5,3.2 60.5,3.3 L60.5,6.4 C60.5,6.9 60.2,7.4 59.8,7.7 C60.2,8 60.5,8.4 60.5,9 L60.5,9.3 C60.5,10.1 59.8,10.8 59,10.8 L59,12.4 C59.8,12.3 60.5,13 60.5,13.8 Z M73.4,27.9 L69,27.9 C68.2,27.9 67.5,27.2 67.5,26.4 C67.5,25.6 68.2,24.9 69,24.9 L73.3,24.9 C74.1,24.9 74.8,25.6 74.8,26.4 C74.8,27.2 74.2,27.9 73.4,27.9 Z M76.7,24.3 L65.8,24.3 C65,24.3 64.3,23.6 64.3,22.8 C64.3,22 65,21.3 65.8,21.3 L76.7,21.3 C77.5,21.3 78.2,22 78.2,22.8 C78.2,23.6 77.5,24.3 76.7,24.3 Z M76.7,12.3 C76.7,15.4 74.2,17.8 71.2,17.8 C68.2,17.8 65.7,15.3 65.7,12.3 C65.7,9.3 68.2,6.8 71.2,6.8 C74.2,6.8 76.7,9.2 76.7,12.3 Z" id="Shape" class="fill-neutral"></path>
                    <path d="M81.7,0.1 L60.7,0.1 C58.9,0.1 57.5,1.5 57.5,3.3 L57.5,6.4 C57.5,6.9 57.8,7.4 58.2,7.7 C58.4,7.5 58.7,7.5 59,7.5 C59.3,7.5 59.6,7.6 59.8,7.7 C60.2,7.4 60.5,7 60.5,6.4 L60.5,3.3 C60.5,3.2 60.6,3.1 60.7,3.1 L81.7,3.1 C81.8,3.1 81.9,3.2 81.9,3.3 L81.9,30.8 C81.9,30.9 81.8,31 81.7,31 L60.7,31 C60.6,31 60.5,30.9 60.5,30.8 L60.5,13.8 C60.5,13 59.8,12.3 59,12.3 C58.2,12.3 57.5,13 57.5,13.8 L57.5,30.8 C57.5,32.5 58.8,33.9 60.5,34 C60.6,34 60.6,34 60.7,34 L81.7,34 C81.8,34 81.8,34 81.9,34 C83.6,33.9 84.9,32.5 84.9,30.8 L84.9,3.3 C84.9,1.5 83.5,0.1 81.7,0.1 Z" id="Shape" class="fill-primary-300"></path>
                    <path d="M60.5,9.2 L60.5,8.9 C60.5,8.4 60.2,7.9 59.8,7.6 C59.6,7.4 59.3,7.4 59,7.4 C58.7,7.4 58.4,7.5 58.2,7.6 C57.8,7.9 57.5,8.3 57.5,8.9 L57.5,9.2 C57.5,10 58.2,10.7 59,10.7 C59.8,10.7 60.5,10 60.5,9.2 Z" id="Shape" class="fill-primary-300"></path>
                    <circle id="Oval" class="fill-neutral" cx="71.2" cy="12.3" r="2.5"></circle>
                    <path d="M65.7,12.3 C65.7,15.4 68.2,17.8 71.2,17.8 C74.2,17.8 76.7,15.3 76.7,12.3 C76.7,9.3 74.2,6.8 71.2,6.8 C68.2,6.8 65.7,9.2 65.7,12.3 Z M71.2,14.8 C69.8,14.8 68.7,13.7 68.7,12.3 C68.7,10.9 69.8,9.8 71.2,9.8 C72.6,9.8 73.7,10.9 73.7,12.3 C73.7,13.7 72.6,14.8 71.2,14.8 Z" id="Shape" class="fill-primary-300"></path>
                    <path d="M76.7,21.3 L65.8,21.3 C65,21.3 64.3,22 64.3,22.8 C64.3,23.6 65,24.3 65.8,24.3 L76.7,24.3 C77.5,24.3 78.2,23.6 78.2,22.8 C78.2,22 77.5,21.3 76.7,21.3 Z" id="Shape" class="fill-primary-300"></path>
                    <path d="M73.4,24.9 L69,24.9 C68.2,24.9 67.5,25.6 67.5,26.4 C67.5,27.2 68.2,27.9 69,27.9 L73.3,27.9 C74.1,27.9 74.8,27.2 74.8,26.4 C74.8,25.6 74.2,24.9 73.4,24.9 Z" id="Shape" class="fill-primary-300"></path>
                    <path d="M24.8,40.4 C24.8,40.3 24.7,40.2 24.6,40.2 L3.6,40.2 C3.5,40.2 3.4,40.3 3.4,40.4 L3.4,43.5 C3.4,44 3.1,44.5 2.7,44.8 C3.1,45.1 3.4,45.5 3.4,46.1 L3.4,46.4 C3.4,47.2 2.7,47.9 1.9,47.9 L1.9,49.5 C2.7,49.5 3.4,50.2 3.4,51 L3.4,57.3 L24.8,57.3 L24.8,40.4 Z M14.1,54.9 C11,54.9 8.6,52.4 8.6,49.4 C8.6,46.4 11.1,43.9 14.1,43.9 C17.1,43.9 19.6,46.4 19.6,49.4 C19.6,52.4 17.1,54.9 14.1,54.9 Z" id="Shape" class="fill-neutral"></path>
                    <path d="M27.8,40.4 C27.8,38.6 26.4,37.2 24.6,37.2 L3.6,37.2 C1.8,37.2 0.4,38.6 0.4,40.4 L0.4,43.5 C0.4,44 0.7,44.5 1.1,44.8 C1.3,44.6 1.6,44.6 1.9,44.6 C2.2,44.6 2.5,44.7 2.7,44.8 C3.1,44.5 3.4,44.1 3.4,43.5 L3.4,40.4 C3.4,40.3 3.5,40.2 3.6,40.2 L24.6,40.2 C24.7,40.2 24.8,40.3 24.8,40.4 L24.8,57.2 L27.8,57.2 L27.8,40.4 Z" id="Shape" class="fill-primary-300"></path>
                    <path d="M1.9,49.4 C1.1,49.4 0.4,50.1 0.4,50.9 L0.4,57.2 L3.4,57.2 L3.4,50.9 C3.4,50 2.7,49.4 1.9,49.4 Z" id="Shape" class="fill-primary-300"></path>
                    <path d="M3.4,46.3 L3.4,46 C3.4,45.5 3.1,45 2.7,44.7 C2.5,44.5 2.2,44.5 1.9,44.5 C1.6,44.5 1.3,44.6 1.1,44.7 C0.7,45 0.4,45.4 0.4,46 L0.4,46.3 C0.4,47.1 1.1,47.8 1.9,47.8 C2.7,47.8 3.4,47.1 3.4,46.3 Z" id="Shape" class="fill-primary-300"></path>
                    <circle id="Oval" class="fill-neutral" cx="14.1" cy="49.4" r="2.5"></circle>
                    <path d="M14.1,43.8 C11,43.8 8.6,46.3 8.6,49.3 C8.6,52.3 11.1,54.8 14.1,54.8 C17.1,54.8 19.6,52.3 19.6,49.3 C19.6,46.3 17.1,43.8 14.1,43.8 Z M14.1,51.9 C12.7,51.9 11.6,50.8 11.6,49.4 C11.6,48 12.7,46.9 14.1,46.9 C15.5,46.9 16.6,48 16.6,49.4 C16.6,50.8 15.5,51.9 14.1,51.9 Z" id="Shape" class="fill-primary-300"></path>
                    <path d="M53.6,40.4 C53.6,40.3 53.5,40.2 53.4,40.2 L32.4,40.2 C32.3,40.2 32.2,40.3 32.2,40.4 L32.2,43.5 C32.2,44 31.9,44.5 31.5,44.8 C31.9,45.1 32.2,45.5 32.2,46.1 L32.2,46.4 C32.2,47.2 31.5,47.9 30.7,47.9 L30.7,49.5 C31.5,49.5 32.2,50.2 32.2,51 L32.2,57.3 L53.6,57.3 L53.6,40.4 Z M42.9,54.9 C39.8,54.9 37.4,52.4 37.4,49.4 C37.4,46.4 39.9,43.9 42.9,43.9 C45.9,43.9 48.4,46.4 48.4,49.4 C48.4,52.4 46,54.9 42.9,54.9 Z" id="Shape" class="fill-neutral"></path>
                    <path d="M56.6,40.4 C56.6,38.6 55.2,37.2 53.4,37.2 L32.4,37.2 C30.6,37.2 29.2,38.6 29.2,40.4 L29.2,43.5 C29.2,44 29.5,44.5 29.9,44.8 C30.1,44.6 30.4,44.6 30.7,44.6 C31,44.6 31.3,44.7 31.5,44.8 C31.9,44.5 32.2,44.1 32.2,43.5 L32.2,40.4 C32.2,40.3 32.3,40.2 32.4,40.2 L53.4,40.2 C53.5,40.2 53.6,40.3 53.6,40.4 L53.6,57.2 L56.6,57.2 L56.6,40.4 Z" id="Shape" class="fill-primary-300"></path>
                    <path d="M30.7,49.4 C29.9,49.4 29.2,50.1 29.2,50.9 L29.2,57.2 L32.2,57.2 L32.2,50.9 C32.2,50 31.6,49.4 30.7,49.4 Z" id="Shape" class="fill-primary-300"></path>
                    <path d="M32.2,46.3 L32.2,46 C32.2,45.5 31.9,45 31.5,44.7 C31.3,44.5 31,44.5 30.7,44.5 C30.4,44.5 30.1,44.6 29.9,44.7 C29.5,45 29.2,45.4 29.2,46 L29.2,46.3 C29.2,47.1 29.9,47.8 30.7,47.8 C31.5,47.8 32.2,47.1 32.2,46.3 Z" id="Shape" class="fill-primary-300"></path>
                    <circle id="Oval" class="fill-neutral" cx="42.9" cy="49.4" r="2.5"></circle>
                    <path d="M42.9,43.8 C39.8,43.8 37.4,46.3 37.4,49.3 C37.4,52.3 39.9,54.8 42.9,54.8 C45.9,54.8 48.4,52.3 48.4,49.3 C48.4,46.3 46,43.8 42.9,43.8 Z M42.9,51.9 C41.5,51.9 40.4,50.8 40.4,49.4 C40.4,48 41.5,46.9 42.9,46.9 C44.3,46.9 45.4,48 45.4,49.4 C45.4,50.8 44.3,51.9 42.9,51.9 Z" id="Shape" class="fill-primary-300"></path>
                    <path d="M81.9,40.4 C81.9,40.3 81.8,40.2 81.7,40.2 L60.7,40.2 C60.6,40.2 60.5,40.3 60.5,40.4 L60.5,43.5 C60.5,44 60.2,44.5 59.8,44.8 C60.2,45.1 60.5,45.5 60.5,46.1 L60.5,46.4 C60.5,47.2 59.8,47.9 59,47.9 L59,49.5 C59.8,49.5 60.5,50.2 60.5,51 L60.5,57.3 L81.9,57.3 L81.9,40.4 Z M71.2,54.9 C68.1,54.9 65.7,52.4 65.7,49.4 C65.7,46.4 68.2,43.9 71.2,43.9 C74.2,43.9 76.7,46.4 76.7,49.4 C76.7,52.4 74.3,54.9 71.2,54.9 Z" id="Shape" class="fill-neutral"></path>
                    <path d="M84.9,40.4 C84.9,38.6 83.5,37.2 81.7,37.2 L60.7,37.2 C58.9,37.2 57.5,38.6 57.5,40.4 L57.5,43.5 C57.5,44 57.8,44.5 58.2,44.8 C58.4,44.6 58.7,44.6 59,44.6 C59.3,44.6 59.6,44.7 59.8,44.8 C60.2,44.5 60.5,44.1 60.5,43.5 L60.5,40.4 C60.5,40.3 60.6,40.2 60.7,40.2 L81.7,40.2 C81.8,40.2 81.9,40.3 81.9,40.4 L81.9,57.2 L84.9,57.2 L84.9,40.4 Z" id="Shape" class="fill-primary-300"></path>
                    <path d="M59,49.4 C58.2,49.4 57.5,50.1 57.5,50.9 L57.5,57.2 L60.5,57.2 L60.5,50.9 C60.5,50 59.8,49.4 59,49.4 Z" id="Shape" class="fill-primary-300"></path>
                    <path d="M60.5,46.3 L60.5,46 C60.5,45.5 60.2,45 59.8,44.7 C59.6,44.5 59.3,44.5 59,44.5 C58.7,44.5 58.4,44.6 58.2,44.7 C57.8,45 57.5,45.4 57.5,46 L57.5,46.3 C57.5,47.1 58.2,47.8 59,47.8 C59.8,47.8 60.5,47.1 60.5,46.3 Z" id="Shape" class="fill-primary-300"></path>
                    <circle id="Oval" class="fill-neutral" cx="71.2" cy="49.4" r="2.5"></circle>
                    <path d="M71.2,43.8 C68.1,43.8 65.7,46.3 65.7,49.3 C65.7,52.3 68.2,54.8 71.2,54.8 C74.2,54.8 76.7,52.3 76.7,49.3 C76.7,46.3 74.3,43.8 71.2,43.8 Z M71.2,51.9 C69.8,51.9 68.7,50.8 68.7,49.4 C68.7,48 69.8,46.9 71.2,46.9 C72.6,46.9 73.7,48 73.7,49.4 C73.7,50.8 72.6,51.9 71.2,51.9 Z" id="Shape" class="fill-primary-300"></path>
                </g>
                <polyline id="Shape" class="stroke-primary" stroke-width="3" stroke-linecap="round" stroke-linejoin="round" points="41.8 69 11 69 11 5.4 104 5.4 104 20.1"></polyline>
                <path d="M76,69 L75.5,69" id="Shape" class="stroke-primary" stroke-width="3" stroke-linecap="round" stroke-linejoin="round"></path>
                <path d="M104,69 L79.8,69" id="Shape" class="stroke-primary" stroke-width="3" stroke-linecap="round" stroke-linejoin="round"></path>
                <path d="M104,27 L104,69" id="Shape" class="stroke-primary" stroke-width="3" stroke-linecap="round" stroke-linejoin="round"></path>
                <path d="M104,69 L115,69 L115,72 C115,74.7 112.7,76.9 109.8,76.9 L5.4,76.9 C2.5,76.9 0.2,74.7 0.2,72 L0.2,69 L47.4,69 C47.8,70.1 48.9,70.9 50.2,70.9 L65,70.9 C65.9,70.9 66.8,70.5 67.3,69.8" id="Shape" class="stroke-primary" stroke-width="3" stroke-linecap="round" stroke-linejoin="round"></path>
            </g>
            <path d="M104.2,14.6 C107.6,12.3 111.8,11 116.2,11 C128.3,11 138,20.8 138,32.8 C138,44.9 128.2,54.6 116.2,54.6 C104.2,54.6 94.4,44.8 94.4,32.8 C94.3,25.2 98.3,18.5 104.2,14.6" id="Shape" class="fill-primary-500" fill-rule="nonzero"></path>
            <path d="M128.6,32.3 C131.9,31.1 130.8,27.6 128.1,27.6 C125.5,27.6 123.2,27.6 119.8,27.6 C120.9,23.8 120.3,18.2 117.6,19.1 C116.9,19.3 116.6,19.8 116.4,20.5 C116.1,22.3 116.1,26 110.3,30.1 C110.2,30.2 110.2,30 110.2,29.3 C110.2,28.5 109.7,28.2 108.9,28.2 C104.1,28.2 103.5,27.9 103.5,29.3 C103.5,33.9 103.5,38.4 103.5,43 C103.5,44.4 104.1,44.1 108.9,44.1 C110.6,44.1 109.5,42.5 110.3,42.8 C112.6,43.9 113.2,43.7 125.5,43.7 C125.7,43.7 126,43.7 126.2,43.6 C127.9,43.3 129.1,41.1 127.3,39.9 C127.3,39.9 127.3,39.9 127.3,39.8 C128.3,39.7 129,39.3 129.3,38.3 C129.6,37.3 129,36.6 128.2,36.1 C129.5,35.9 130,35.5 130.2,34.6 C130.4,33.4 129.6,32.8 128.6,32.3 Z" id="Shape" stroke-width="3" class="stroke-primary fill-neutral" fill-rule="nonzero" stroke-linecap="round" stroke-linejoin="round"></path>
            <path d="M110.3,34.3 L110.3,30.1" id="Shape" stroke-width="3" class="stroke-primary fill-neutral" fill-rule="nonzero" stroke-linecap="round" stroke-linejoin="round"></path>
            <path d="M110.3,38.2 L110.3,38.1" id="Shape" stroke-width="3" class="stroke-primary fill-neutral" fill-rule="nonzero" stroke-linecap="round" stroke-linejoin="round"></path>
            <path d="M109.3,12.1 C109.5,12 109.7,12 109.9,11.9 C111.9,11.3 114,11 116.2,11 C121.1,11 125.5,12.6 129.2,15.3" id="Shape" class="stroke-primary" stroke-width="3" stroke-linecap="round" stroke-linejoin="round"></path>
            <path d="M137.8,29.6 C138,30.7 138,31.7 138,32.8 C138,44.9 128.2,54.6 116.2,54.6 C104.2,54.6 94.4,44.8 94.4,32.8 C94.4,26 97.5,20 102.3,16" id="Shape" class="stroke-primary" stroke-width="3" stroke-linecap="round" stroke-linejoin="round"></path>
            <path d="M134.1,20.4 C134.3,20.8 134.6,21.1 134.8,21.5" id="Shape" class="stroke-primary" stroke-width="3" stroke-linecap="round" stroke-linejoin="round"></path>
        </g>
    </g>
</svg>