<?xml version="1.0" encoding="UTF-8"?>
<svg width="105px" height="134px" viewBox="0 0 105 134" version="1.1" xmlns="http://www.w3.org/2000/svg" xmlns:xlink="http://www.w3.org/1999/xlink">
    <!-- Generator: Sketch 51.2 (57519) - http://www.bohemiancoding.com/sketch -->
    <title>Location</title>
    <desc>Created with Sketch.</desc>
    <defs></defs>
    <g id="Page-1" stroke="none" stroke-width="1" fill="none" fill-rule="evenodd">
        <g id="Location" transform="translate(2.000000, 1.000000)">
            <path d="M32.8,43 C32.8,32.9 41,24.7 51.1,24.7 C61.2,24.7 69.4,32.9 69.4,43 C69.4,53.1 61.2,61.3 51.1,61.3 C41,61.3 32.8,53.1 32.8,43 Z M51.1,0.7 C26.9,0.7 7.2,20.4 7.2,44.6 C7.2,62.2 30.4,87.5 43.1,99.9 C45.9,102.6 49.7,103.7 53.2,103 C53.5,103 53.7,102.9 54,102.8 C54.1,102.8 54.2,102.8 54.3,102.7 C56,102.2 57.7,101.2 59.1,99.9 C69.7,89.5 87.6,70.3 93.2,53.9 C94,51.5 94.6,49.1 94.8,46.8 C94.9,46 94.9,45.3 94.9,44.5 C95,20.4 75.3,0.7 51.1,0.7 Z" id="Shape" class="fill-neutral" fill-rule="nonzero"></path>
            <path d="M73,42.2 C75.3,56.5 63.1,68.7 48.9,66.4 C36.6,64.4 28.5,51.7 32.5,39.4 C39.2,18.2 69.5,21 73,42.2 Z M93.2,37.9 C93,37.3 92.8,36.6 92.6,36 C92.4,35.4 92.1,34.8 91.9,34.2 C87.3,23.5 78.2,15.2 67,11.7 C66.5,11.6 66,11.4 65.5,11.3 C62.1,10.4 58.6,9.9 55,9.9 C50.4,9.9 45.9,10.7 41.7,12.2 C41.5,12.2 41.4,12.3 41.3,12.3 C29.8,16.5 20.8,25.8 17,37.5 C16.8,38 16.7,38.4 16.6,38.9 L16.3,40 C15.5,43 15.1,46.1 15.1,49.4 C15.1,49.6 15.1,49.7 15.1,49.9 C15.1,52.1 15.5,54.3 16.2,56.7 C16.2,56.8 16.3,57 16.3,57.1 C17.3,60.4 18.9,63.8 20.8,67.3 C21.3,68.2 21.8,69 22.4,69.9 C22.4,71.4 34.1,86.8 47.8,100.3 C48.5,101 49.2,101.5 49.9,101.9 C51.1,102.6 52.2,103 53.4,103 C53.7,103 53.9,102.9 54.2,102.8 C54.3,102.8 54.4,102.8 54.5,102.7 C56.4,102.4 58.2,101.2 60,99.4 C82.5,77.3 90.7,63.2 93.4,53.9 C94.2,51.5 94.8,49.1 95,46.8 C94.7,43.8 94.1,40.8 93.2,37.9 Z" id="Shape" class="fill-primary-100" fill-rule="nonzero"></path>
            <path d="M72.5,39.7 C72.6,40 72.7,40.3 72.8,40.6 C72.9,40.8 72.9,41.1 72.9,41.3 C73,41.6 73,41.9 73.1,42.1 C75.4,56.4 63.2,68.6 49,66.3 C39.5,64.8 31.6,56.4 31.6,45.6 C31.5,21.3 65.7,17.1 72.5,39.7 Z M93.2,37.9 C93,37.3 92.8,36.6 92.6,36 C92.4,35.4 92.1,34.8 91.9,34.2 C87,22.3 77.6,14.8 67,11.7 C66.5,11.6 66,11.4 65.5,11.3 C57.7,9.3 49.3,9.6 41.7,12.2 C41.5,12.2 41.4,12.3 41.3,12.3 C30.4,16.1 21.1,24.5 17,37.5 C16.8,38 16.7,38.4 16.6,38.9 L16.3,40 C15.4,43.4 15,46.5 15.1,49.4 C15.1,51.9 15.5,54.3 16.2,56.7 C16.2,56.8 16.3,57 16.3,57.1 C17.3,60.4 18.8,63.7 20.8,67.3 C21.3,68.2 21.8,69 22.4,69.9 C22.4,71.4 34.1,86.8 47.8,100.3 C48.5,101 49.2,101.5 49.9,101.9 C51.3,102.8 52.8,103 54.2,102.8 C54.3,102.8 54.4,102.8 54.5,102.7 C56.4,102.4 58.2,101.2 60,99.4 C82.5,77.3 90.7,63.2 93.4,53.9 C95.8,45 93.2,40.6 93.2,37.9 Z" id="Shape" fill="#BAD8FF" fill-rule="nonzero"></path>
            <path d="M93.2,37.9 C81.3,-0.1 27.2,1 16.5,38.8 C13.1,50.7 15.5,58.9 22.2,69.8 C22.2,70.5 37.6,86.1 38.1,86.6 C43.5,91.9 52.1,91.9 57.5,86.6 C68.1,76.2 84.8,58.4 94.1,41.4 C93.7,39.6 93.2,37.9 93.2,37.9 Z M39.2,29.3 C49.9,20.8 67.8,24.4 72.4,39.7 C72.5,40 72.6,40.3 72.7,40.6 C72.8,40.8 72.8,41.1 72.8,41.3 C72.9,41.6 72.9,41.9 73,42.1 C75.3,56.4 63.1,68.6 48.9,66.3 C36.5,64.3 28.5,51.4 32.5,39.3 C33.9,35 36.3,31.7 39.2,29.3 Z" id="Shape" class="fill-primary-100" fill-rule="nonzero"></path>
            <path d="M28.4,7 C28.3,7.1 28.2,7.1 28.1,7.2 M69.4,89.2 C81.4,76 95,58.1 95,44.6 C95,20.3 75.3,0.7 51.1,0.7 C46.7,0.7 42.5,1.3 38.5,2.5 M22,11.7 C12.9,19.7 7.2,31.5 7.2,44.6 C7.2,62.2 30.4,87.5 43.1,99.9 C47.6,104.3 54.7,104.3 59.1,99.9 C59.4,99.6 59.7,99.3 60.1,98.9 M46.8,60.8 C38.8,58.9 32.8,51.6 32.8,43 C32.8,37.3 35.4,32.2 39.6,28.8 M55.3,60.8 C55.2,60.8 55.2,60.8 55.1,60.8 M46.5,25.2 C48,24.8 49.5,24.6 51.1,24.6 C61.2,24.6 69.4,32.8 69.4,42.9 C69.4,47.3 67.9,51.3 65.3,54.5" id="Shape" class="stroke-primary" stroke-width="3" stroke-linecap="round" stroke-linejoin="round"></path>
            <path d="M71.7,101.7 C97,108.1 83,121.4 50.7,121.4 C20.8,121.4 7,110.2 24.1,103.5" id="Shape" class="stroke-primary-300" stroke-width="3" stroke-linecap="round" stroke-linejoin="round"></path>
            <path d="M22.3,94.9 C22.3,94.9 22.4,94.9 22.4,94.9" id="Shape" class="stroke-primary-300" stroke-width="3" stroke-linecap="round" stroke-linejoin="round"></path>
            <path d="M11.5,98.7 C12.2,98.4 12.9,98.1 13.7,97.8" id="Shape" class="stroke-primary-300" stroke-width="3" stroke-linecap="round" stroke-linejoin="round"></path>
            <path d="M73.2,128.9 C66.6,130.2 59.1,130.9 50.7,130.9 C15,130.9 -5.1,118 1.3,106.7" id="Shape" class="stroke-primary-300" stroke-width="3" stroke-linecap="round" stroke-linejoin="round"></path>
            <path d="M81.9,95.7 C106.8,103.3 106.1,116.4 88.6,124.3" id="Shape" class="stroke-primary-300" stroke-width="3" stroke-linecap="round" stroke-linejoin="round"></path>
        </g>
    </g>
</svg>