<?xml version="1.0" encoding="UTF-8"?>
<svg width="149px" height="123px" viewBox="0 0 149 123" version="1.1" xmlns="http://www.w3.org/2000/svg" xmlns:xlink="http://www.w3.org/1999/xlink">
    <!-- Generator: Sketch 51.2 (57519) - http://www.bohemiancoding.com/sketch -->
    <title>Map</title>
    <desc>Created with Sketch.</desc>
    <defs></defs>
    <g id="Page-1" stroke="none" stroke-width="1" fill="none" fill-rule="evenodd">
        <g id="Map" transform="translate(1.000000, 2.000000)">
            <path d="M131.2,118.8 L16.2,118.8 C7.8,118.8 0.9,112 0.9,103.5 L0.9,27.2 L146.401089,27.2 L146.4,103.5 C146.5,112 139.7,118.8 131.2,118.8 Z" id="Shape" class="fill-neutral" fill-rule="nonzero"></path>
            <path d="M146.5,33.9 L146.5,104.6 C146.5,112.5 139.7,118.9 131.2,118.9 L16.2,118.9 C7.8,118.9 0.9,112.5 0.9,104.6 L0.9,33.9" id="Shape" class="fill-primary-100" fill-rule="nonzero"></path>
            <path d="M137.3,91.4 C130.1,101.8 123.4,101.6 121.4,93.1 C120.8,90.4 121.5,80.9 133.8,85.4 L137.3,91.4 Z" id="Shape" class="stroke-primary" stroke-width="3" fill="#A8D1FF" fill-rule="nonzero" stroke-linecap="round" stroke-linejoin="round"></path>
            <path d="M137.3,75.1 C137.3,75.1 123.4,75.1 121.2,68.4 C119.4,63.1 117.6,66.3 117,67.8 C116.8,68.3 116.5,68.6 116.1,68.9 C114.3,70 109.7,72.5 107.9,70.7 C105.7,68.5 101.2,61.8 99,59.6 C97.3,57.9 86.9,58.8 81.8,59.3 C80.2,59.5 79,58.1 79.2,56.5 C79.8,51.7 81.9,49.6 82.9,48.8 C83.2,48.6 83.5,48.4 83.9,48.3 C86,47.9 94.8,46.2 96.8,46.2 C99,46.2 101.3,39.5 103.5,39.5 C105.7,39.5 114.6,41.7 116.9,39.5 C119.3,37.1 126.8,34.5 137.4,35.4 L137.4,75.1 L137.3,75.1 Z" id="Shape" class="stroke-primary" stroke-width="3" fill="#A8D1FF" fill-rule="nonzero" stroke-linecap="round" stroke-linejoin="round"></path>
            <path d="M12.4,27.1 L0.9,27.1 L0.9,103.2 C0.9,111.9 7.9,118.9 16.6,118.9 L18.6,118.9 L128.8,118.9 L130.8,118.9 C139.5,118.9 146.5,111.9 146.5,103.2 L146.5,27.1 L135,27.1" id="Shape" class="stroke-primary" stroke-width="3" stroke-linecap="round" stroke-linejoin="round"></path>
            <path d="M13.2,70.9 L13.2,91 C9.8,91 6.7,92.4 4.5,94.6 C2.3,96.8 0.9,99.9 0.9,103.3 L0.9,12.6 C0.9,9.2 2.3,6.1 4.5,3.9 C6.7,1.7 9.8,0.3 13.2,0.3 L13.2,59.9 C13.2,60 13.1,71 13.2,70.9 Z" id="Shape" class="fill-neutral" fill-rule="nonzero"></path>
            <path d="M13.2,70.9 L13.2,91 C9.8,91 6.7,92.4 4.5,94.6 C2.3,96.8 0.9,99.9 0.9,103.3 L0.9,12.6 C0.9,9.2 2.3,6.1 4.5,3.9 C6.7,1.7 9.8,0.3 13.2,0.3 L13.2,59.9 C13.2,60 13.1,71 13.2,70.9 Z" id="Shape" fill="#A8D1FF" fill-rule="nonzero"></path>
            <path d="M13.2,47.7 L13.2,59.9 C13.2,59.9 13.1,71 13.2,70.8 L13.2,90.9 C9.8,90.9 6.7,92.3 4.5,94.5 C2.3,96.7 0.9,99.8 0.9,103.2 L0.9,12.5 C0.9,9.1 2.3,6 4.5,3.8 C6.7,1.6 9.8,0.2 13.2,0.2 L13.2,26.9" id="Shape" class="stroke-primary" stroke-width="3" stroke-linecap="round" stroke-linejoin="round"></path>
            <path d="M13.2,37.1 L13.2,38.4" id="Shape" class="stroke-primary" stroke-width="3" stroke-linecap="round" stroke-linejoin="round"></path>
            <polyline id="Shape" class="stroke-primary" stroke-width="3" stroke-linecap="round" stroke-linejoin="round" points="110.6 27.1 71.8 27.1 65 27.1 13.2 27.1"></polyline>
            <path d="M116.2,27.1 L117.1,27.1" id="Shape" class="stroke-primary" stroke-width="3" stroke-linecap="round" stroke-linejoin="round"></path>
            <path d="M134.1,70.9 L134.1,91 C137.5,91 140.6,92.4 142.8,94.6 C145,96.8 146.4,99.9 146.4,103.3 L146.4,12.6 C146.4,9.2 145,6.1 142.8,3.9 C140.6,1.7 137.5,0.3 134.1,0.3 L134.1,59.9 C134.1,60 134.2,71 134.1,70.9 Z" id="Shape" class="fill-neutral" fill-rule="nonzero"></path>
            <path d="M134.1,70.9 L134.1,91 C137.5,91 140.6,92.4 142.8,94.6 C145,96.8 146.4,99.9 146.4,103.3 L146.4,12.6 C146.4,9.2 145,6.1 142.8,3.9 C140.6,1.7 137.5,0.3 134.1,0.3 L134.1,59.9 C134.1,60 134.2,71 134.1,70.9 Z" id="Shape" fill="#A8D1FF" fill-rule="nonzero"></path>
            <path d="M134.1,47.7 L134.1,59.9 C134.1,59.9 134.2,71 134.1,70.8 L134.1,90.9 C137.5,90.9 140.6,92.3 142.8,94.5 C145,96.7 146.4,99.8 146.4,103.2 L146.4,12.5 C146.4,9.1 145,6 142.8,3.8 C140.6,1.6 137.5,0.2 134.1,0.2 L134.1,26.9" id="Shape" class="stroke-primary" stroke-width="3" stroke-linecap="round" stroke-linejoin="round"></path>
            <path d="M134.1,37.1 L134.1,38.4" id="Shape" class="stroke-primary" stroke-width="3" stroke-linecap="round" stroke-linejoin="round"></path>
            <path d="M61.1,55.7 C60.9,51.9 60,48.9 59.4,47.4 C59.1,46.6 58.4,46 57.6,45.9 C54.6,45.3 47.3,43.9 45.5,43.9 C43.3,43.9 41,30.5 32.1,35 C23.2,39.5 21,41.7 23.2,48.4 C25.4,55.1 29.9,50.6 29.9,55.1 C29.9,59.6 27.7,64 29.9,66.2 C31.7,68 37.6,69.7 40,72.6 C40.9,73.6 42.4,73.8 43.5,72.9 C46.3,70.5 47.8,69.8 47.8,66.2 C47.8,61.7 52.3,61.7 56.7,59.5 L59.8,58 C60.6,57.5 61.1,56.7 61.1,55.7 Z" id="Shape" class="stroke-primary" stroke-width="3" fill="#A8D1FF" fill-rule="nonzero" stroke-linecap="round" stroke-linejoin="round"></path>
            <path d="M48.4,77.1 C48,77.2 47.6,77.4 47.3,77.7 L43.3,81.7 C43.3,81.7 41.1,83.9 41.1,86.2 C41.1,88.2 44.7,93.8 45.4,94.9 C45.5,95 45.6,95.2 45.6,95.4 C46.1,96.6 48.1,102.2 48.3,106.6 C48.4,108.5 50.6,109.5 52.1,108.4 C56.2,105.4 58.8,100.7 58.8,97.4 C58.8,92.9 58.8,90.7 61,90.7 C63.2,90.7 67.7,86.2 65.5,81.8 C63.7,78.3 59.2,76.1 57.3,75.4 C56.8,75.2 56.3,75.2 55.8,75.3 L48.4,77.1 Z" id="Shape" class="stroke-primary" stroke-width="3" fill="#A8D1FF" fill-rule="nonzero" stroke-linecap="round" stroke-linejoin="round"></path>
            <path d="M81.2,75.1 L81.2,76.2 L81.2,82.1 C81.2,83.2 81.9,84.1 83,84.4 C86.1,85.2 92.4,87.3 92.4,90.7 L92.4,101.5 C92.4,102.9 93.7,104.1 95.1,103.9 C99.1,103.4 106.4,101.6 108,95.2 C110.2,86.3 110.2,84.1 108,79.6 C106,75.6 98.8,71.7 97.2,70.9 C97,70.8 96.8,70.7 96.5,70.7 C94.6,70.3 85.7,69 83.5,70.8 C81.6,72 81.1,73.2 81.2,75.1 Z" id="Shape" class="stroke-primary" stroke-width="3" fill="#A8D1FF" fill-rule="nonzero" stroke-linecap="round" stroke-linejoin="round"></path>
        </g>
    </g>
</svg>