<?xml version="1.0" encoding="UTF-8"?>
<svg width="150px" height="92px" viewBox="0 0 150 92" version="1.1" xmlns="http://www.w3.org/2000/svg" xmlns:xlink="http://www.w3.org/1999/xlink">
    <!-- Generator: Sketch 51.2 (57519) - http://www.bohemiancoding.com/sketch -->
    <title>Marketing</title>
    <desc>Created with Sketch.</desc>
    <defs></defs>
    <g id="Page-1" stroke="none" stroke-width="1" fill="none" fill-rule="evenodd">
        <g id="Marketing" transform="translate(1.000000, 1.000000)">
            <path d="M45.6,68.9 L37.5,69.7 L36.4,65.8 L32,50.1 L47.5,56.3 L49.2,62.4 L49.4,63.2 C50.2,66 48.4,68.6 45.6,68.9 Z" id="Shape" class="fill-primary-500" fill-rule="nonzero"></path>
            <path d="M45.6,68.9 L37.5,69.7 L36.4,65.8 C38.5,66.5 44.2,67.8 46.6,66.1 C47.9,65.2 48.7,63.6 49.2,62.4 L49.4,63.2 C50.2,66 48.4,68.6 45.6,68.9 Z" id="Shape" fill="#4D9CFF" fill-rule="nonzero"></path>
            <path d="M45.6,68.9 L37.5,69.7 L36.4,65.8 L32,50.1 L47.5,56.3 L49.2,62.4 L49.4,63.2 C50.2,66 48.4,68.6 45.6,68.9 Z" id="Shape" class="stroke-primary" stroke-width="2.5377" stroke-linecap="round" stroke-linejoin="round"></path>
            <path d="M46.9,89.1 L40.2,88.9 C36.1,88.8 32.6,86 31.4,82.1 L25,60.5 L23.4,55 L23,54.6 L36.8,54.7 L39.8,65.7 L41.2,70.9 L50.3,82.3 C52.6,85 50.5,89.2 46.9,89.1 Z" id="Shape" class="fill-primary-200" fill-rule="nonzero"></path>
            <path d="M39.8,65.3 C39,64.2 38.1,63 37.1,61.9 C34.7,59.3 32.3,59.1 25,60.2 L23.4,54.7 L23,54.3 L36.8,54.4 L39.8,65.3 Z" id="Shape" fill="#8FC1FF" fill-rule="nonzero"></path>
            <path d="M45.3,75.5 L41.3,70.5 L36.8,54.4 L23,54.3 L23.4,54.7 L31.4,81.8 C32.6,85.7 36.1,88.4 40.2,88.6 L46.9,88.8 C49.8,88.9 51.7,86.3 51.2,83.8" id="Shape" class="stroke-primary" stroke-width="2.5377" stroke-linecap="round" stroke-linejoin="round"></path>
            <path d="M32.8,26.5 C47.8,25.7 58.2,22.7 72.9,11.7 C75.4,9.8 77.9,7.9 80.1,5.5 C82.2,3.3 84.7,0.6 88,0.6 C96.3,0.6 103.1,18.7 103.1,41 C103.1,41.2 103.1,41.5 103.1,41.7 L103.1,42 C102.8,68.6 93.1,87.5 83.5,79.5 C75.3,73 67.7,63.8 57.8,60.7 C49.4,58.1 40.4,57.4 31.7,56.8 C26.9,56.5 22.1,56.3 17.4,56.3 C5.7,56.3 1.2,48.6 0.8,42.4 C0.8,42.1 0.8,41.8 0.8,41.5 C0.8,33.3 7.4,26.7 15.6,26.7 C19.1,26.7 22.3,26.7 25.3,26.6" id="Shape" class="fill-neutral" fill-rule="nonzero"></path>
            <path d="M103.1,41.8 L103.1,42.1 C103.1,42.8 103.1,43.5 103.1,44.1 C103.1,45.8 103,47.5 102.8,49.1 C102.4,54.4 101.6,59.3 100.5,63.5 C100.5,63.5 100.5,63.5 100.5,63.5 C100.4,63.8 100.4,64 100.3,64.3 C99.8,66.1 99.3,67.8 98.7,69.4 C98.6,69.6 98.5,69.8 98.4,70.1 C98.3,70.3 98.2,70.5 98.1,70.7 C96.9,73.7 95.5,76.2 93.9,77.9 C93.8,78 93.7,78.1 93.6,78.2 C93.4,78.4 93.2,78.6 93,78.8 C92.9,78.9 92.8,79 92.8,79 C92.8,79 92.8,79 92.8,79 C90.4,81.2 87.7,81.8 85,80.3 C84.9,80.2 84.7,80.1 84.6,80.1 C84.4,80 84.2,79.9 84.1,79.7 C84,79.6 83.9,79.6 83.9,79.5 C83.8,79.4 83.6,79.3 83.5,79.2 C75.3,72.7 67.7,63.5 57.8,60.5 C49.4,57.9 40.4,57.2 31.7,56.6 C26.9,56.3 22.1,56.1 17.4,56.1 C5.7,56.1 1.2,48.4 0.8,42.2 C1.2,34.8 7.7,28.9 15.5,28.9 C41.3,28.9 53.2,28.5 72.9,14.5 C74.7,13.2 76.4,12 78,10.6 C78.7,10 79.4,9.3 80.1,8.7 C82.2,6.6 84.7,4 88,4 C96.2,4.2 102.9,20.9 103.1,41.8 Z" id="Shape" class="fill-primary-100" fill-rule="nonzero"></path>
            <path d="M103.1,41.8 L103.1,42.1 C103.1,42.8 103.1,43.5 103.1,44.1 C103.1,45.8 103,47.5 102.8,49.1 C102.4,54.4 101.6,59.2 100.5,63.5 C100.5,63.5 100.5,63.5 100.5,63.5 C100.4,63.8 100.4,64 100.3,64.3 C99.8,66.1 99.3,67.8 98.7,69.4 C98.6,69.6 98.5,69.8 98.4,70.1 C98.3,70.3 98.2,70.5 98.1,70.7 C96.9,73.7 95.5,76.2 93.9,77.9 C93.8,78 93.7,78.1 93.6,78.2 C93.4,78.4 93.2,78.6 93,78.8 C92.9,78.9 92.8,79 92.8,79 C92.8,79 92.8,79 92.8,79 C91.3,80.4 89.7,81.1 88,81.1 C86.8,81.1 85.7,80.7 84.6,80.1 C84.4,80 84.2,79.9 84.1,79.7 C84,79.6 83.9,79.6 83.9,79.5 C83.8,79.4 83.6,79.3 83.5,79.2 C78.8,75.2 75.1,65.2 73.6,52.6 C73.2,48.9 72.9,44.9 72.9,40.7 C72.9,36.7 73.1,32.8 73.5,29.2 C74.3,21.8 75.9,15.3 78,10.4 C78.7,9.8 79.4,9.1 80.1,8.5 C82.2,6.4 84.7,3.8 88,3.8 C96.2,4.2 102.9,20.9 103.1,41.8 Z" id="Shape" class="fill-primary-200" fill-rule="nonzero"></path>
            <path d="M28.2,26.7 C28.3,26.7 28.4,26.7 28.5,26.7" id="Shape" class="stroke-primary" stroke-width="2.5377" stroke-linecap="round" stroke-linejoin="round"></path>
            <path d="M12.8,56 C4.4,54.3 1.1,47.8 0.7,42.5 C0.7,42.2 0.7,41.9 0.7,41.6 C0.7,33.4 7.3,26.8 15.5,26.8 C18.7,26.8 21.7,26.8 24.5,26.8" id="Shape" class="stroke-primary" stroke-width="2.5377" stroke-linecap="round" stroke-linejoin="round"></path>
            <path d="M38.7,26.1 C50.7,24.8 60.2,21.3 72.9,11.8 C75.4,9.9 77.9,8 80.1,5.6 C82.2,3.4 84.7,0.7 88,0.7 C96.3,0.7 103.1,18.8 103.1,41.1 C103.1,41.3 103.1,41.6 103.1,41.8 L103.1,42.1 C102.8,68.7 93.1,87.6 83.5,79.6 C75.3,73.1 67.7,63.9 57.8,60.8 C49.4,58.2 40.4,57.5 31.7,56.9 C27.5,56.6 23.3,56.4 19.1,56.4" id="Shape" class="stroke-primary" stroke-width="2.5377" stroke-linecap="round" stroke-linejoin="round"></path>
            <path d="M76.2,15.8 C79,6.6 83.2,0.7 88,0.7 C96.3,0.7 103.1,18.8 103.1,41.1 C103.1,63.4 96.3,81.5 88,81.5 C81.2,81.5 75.4,69.5 73.6,53 C73.2,49.3 72.9,45.3 72.9,41.1 C72.9,37.3 73.1,33.5 73.5,30" id="Shape" class="stroke-primary" stroke-width="2.5377" stroke-linecap="round" stroke-linejoin="round"></path>
            <path d="M85.2,41.3 C85.2,47.8 80,53 73.5,53 C73.1,49.3 72.8,45.3 72.8,41.1 C72.8,37.1 73,33.2 73.4,29.6 L73.5,29.6 C80,29.6 85.2,34.8 85.2,41.3 Z" id="Shape" class="fill-neutral" fill-rule="nonzero"></path>
            <path d="M85.2,42.3 C85.2,48.2 80,52.9 73.5,52.9 C73.1,49.5 72.8,45.9 72.8,42.1 C72.8,38.5 73,34.9 73.4,31.6 L73.5,31.6 C80,31.6 85.2,36.4 85.2,42.3 Z" id="Shape" class="fill-primary-500" fill-rule="nonzero"></path>
            <path d="M73.5,52.9 C73.1,49.2 72.8,45.2 72.8,41 C72.8,37 73,33.1 73.4,29.5 L73.5,29.5 C74.6,29.5 75.7,29.7 76.8,30" id="Shape" class="stroke-primary" stroke-width="2.5377" stroke-linecap="round" stroke-linejoin="round"></path>
            <path d="M82.4,33.6 C84.2,35.6 85.2,38.3 85.2,41.2 C85.2,45.3 83.1,48.8 80,50.9" id="Shape" class="stroke-primary" stroke-width="2.5377" stroke-linecap="round" stroke-linejoin="round"></path>
            <path d="M23.4,56.5 C21.5,52.5 20.4,47.7 20.4,42.6 C20.4,36.6 21.9,31.1 24.4,26.8" id="Shape" class="stroke-primary" stroke-width="2.5377" stroke-linecap="round" stroke-linejoin="round"></path>
            <path d="M35.3,51.1 C35.2,51.4 35.1,51.6 34.9,51.8" id="Shape"></path>
            <path d="M124.9,17.7 L128.4,16.1" id="Shape" class="stroke-primary" stroke-width="2.5377" stroke-linecap="round" stroke-linejoin="round"></path>
            <path d="M110.1,24.6 L120.9,19.6" id="Shape" class="stroke-primary" stroke-width="2.5377" stroke-linecap="round" stroke-linejoin="round"></path>
            <path d="M125.3,41 L147.1,40.1" id="Shape" class="stroke-primary" stroke-width="2.5377" stroke-linecap="round" stroke-linejoin="round"></path>
            <path d="M112.2,41.5 L119.1,41.2" id="Shape" class="stroke-primary" stroke-width="2.5377" stroke-linecap="round" stroke-linejoin="round"></path>
            <path d="M133.1,72.4 L136.2,74.3" id="Shape" class="stroke-primary" stroke-width="2.5377" stroke-linecap="round" stroke-linejoin="round"></path>
            <path d="M108.7,57.4 L125.5,67.8" id="Shape" class="stroke-primary" stroke-width="2.5377" stroke-linecap="round" stroke-linejoin="round"></path>
        </g>
    </g>
</svg>