<?xml version="1.0" encoding="UTF-8"?>
<svg width="137px" height="85px" viewBox="0 0 137 85" version="1.1" xmlns="http://www.w3.org/2000/svg" xmlns:xlink="http://www.w3.org/1999/xlink">
    <!-- Generator: Sketch 51.2 (57519) - http://www.bohemiancoding.com/sketch -->
    <title>Meat</title>
    <desc>Created with Sketch.</desc>
    <defs></defs>
    <g id="Page-1" stroke="none" stroke-width="1" fill="none" fill-rule="evenodd">
        <g id="Meat" transform="translate(1.000000, 2.000000)">
            <g id="Group" class="fill-neutral" fill-rule="nonzero">
                <path d="M0.7,28.4 L0.7,53.1 C0.7,62.1 7.8,69.9 16.8,70.6 C22.7,71 32.7,67.9 58.2,77.6 C63.8,79.7 70.1,80.4 76.1,80.9 C92.5,82.2 109.2,80.3 122.8,70.4 C128.2,66.4 133.6,61.1 133.9,53.9 L133.9,26.3" id="Shape"></path>
                <path d="M21.3,7.9 C21.1,7.9 20.9,8 20.7,8" id="Shape"></path>
                <path d="M20.7,8.1 C11.9,10.1 3.5,14 1.1,24.6 C-1.4,35.9 6.8,47.4 19.8,46.3 C34.2,45.1 48.1,49.5 58.1,53.3 C68.1,57.1 99.7,59.9 115,50.9 C130.3,41.9 134.5,36.5 133.6,26.1 C132.4,12.5 121.2,5.3 108.7,2.9 C83.8,-1.8 58.6,0.9 33.9,5.6" id="Shape"></path>
                <path d="M47.8,35.3 L73.5,16.6" id="Shape"></path>
                <path d="M27.3,28.8 L37.7,21.2" id="Shape"></path>
                <ellipse id="Oval" cx="96.2" cy="28.9" rx="10.7" ry="6.2"></ellipse>
            </g>
            <g id="Group" transform="translate(5.000000, 6.000000)">
                <path d="M0.4,25.6 L0.4,47.1 C0.4,56.1 7.3,63.9 15.9,64.6 C21.6,65 31.3,61.9 55.8,71.6 C61.2,73.7 67.3,74.4 73,74.9 C88.9,76.2 104.9,74.3 118.1,64.4 C123.4,60.4 128.5,55.1 128.8,47.9 L128.8,20.3" id="Shape" fill="#BAD8FF" fill-rule="nonzero"></path>
                <path d="M94.7,50.1 C100.8,49.3 106.4,47.9 110.7,45.5 C125.5,37.5 129.5,32.6 128.6,23.2 C127.4,11 116.7,4.6 104.6,2.5 C80.4,-1.7 55.8,0.7 31.9,5.1 C20.7,7.1 4.4,7.8 0.9,22 C1.07247544e-13,25.5 0.1,35 1.3,36.1 C5.8,40.6 10.8,42 19,41.4 C32.9,40.3 46.2,44.2 55.9,47.7 C60.9,49.5 71.5,51 82.6,50.9" id="Shape" class="fill-primary-100" fill-rule="nonzero"></path>
                <path d="M42.8,29.3 L68.5,10.6" id="Shape" class="fill-primary-400" fill-rule="nonzero"></path>
                <path d="M22.3,22.8 L32.7,15.2" id="Shape" class="fill-primary-400" fill-rule="nonzero"></path>
                <ellipse id="Oval" cx="91.2" cy="22.9" rx="10.7" ry="6.2"></ellipse>
            </g>
            <g id="Group">
                <path d="M0.6,29.4 L0.7,53.1 C0.7,62.1 7.8,69.9 16.8,70.6 C22.7,71 32.7,67.9 58.2,77.6 C63.8,79.7 70.1,80.4 76.1,80.9 C92.5,82.2 109.2,80.3 122.8,70.4 C128.2,66.4 133.6,61.1 133.9,53.9 L133.8,27.7" id="Shape" class="stroke-primary" stroke-width="3" stroke-linecap="round" stroke-linejoin="round"></path>
                <path d="M23.8,7.4 C23.7,7.4 23.6,7.4 23.5,7.5" id="Shape" class="stroke-primary" stroke-width="3" stroke-linecap="round" stroke-linejoin="round"></path>
                <path d="M108.7,53.7 C111,52.9 113.1,52 115,50.9 C130.3,41.9 134.5,36.5 133.6,26.1 C132.4,12.5 121.2,5.3 108.7,2.9 C84.4,-1.7 59.7,0.7 35.5,5.3" id="Shape" class="stroke-primary" stroke-width="3" stroke-linecap="round" stroke-linejoin="round"></path>
                <path d="M17.3,9 C9.8,11.3 3.2,15.3 1.1,24.6 C-1.4,35.9 6.8,47.4 19.8,46.3 C34.2,45.1 48.1,49.5 58.1,53.3 C64.5,55.8 79.8,57.8 94,56.5" id="Shape" class="stroke-primary" stroke-width="3" stroke-linecap="round" stroke-linejoin="round"></path>
                <path d="M71.5,18.1 L73.5,16.6" id="Shape" class="stroke-primary" stroke-width="3" stroke-linecap="round" stroke-linejoin="round"></path>
                <path d="M47.8,35.3 L64,23.6" id="Shape" class="stroke-primary" stroke-width="3" stroke-linecap="round" stroke-linejoin="round"></path>
                <path d="M27.3,28.8 L37.7,21.2" id="Shape" class="stroke-primary" stroke-width="3" stroke-linecap="round" stroke-linejoin="round"></path>
                <path d="M89.4,22.5 C89.5,22.5 89.6,22.4 89.7,22.4" id="Shape" class="stroke-primary" stroke-width="3" stroke-linecap="round" stroke-linejoin="round"></path>
                <ellipse id="Oval" class="fill-primary-400" fill-rule="nonzero" cx="98.4" cy="30.1" rx="10.8" ry="6.3"></ellipse>
                <path d="M97.2,21.3 C103.9,21.6 109.2,24.8 109.2,28.8 C109.2,33 103.4,36.3 96.2,36.3 C89,36.3 83.2,32.9 83.2,28.8 C83.2,28.2 83.3,27.5 83.6,26.9" id="Shape" class="stroke-primary" stroke-width="3" stroke-linecap="round" stroke-linejoin="round"></path>
            </g>
        </g>
    </g>
</svg>