<?xml version="1.0" encoding="UTF-8"?>
<svg width="82px" height="148px" viewBox="0 0 82 148" version="1.1" xmlns="http://www.w3.org/2000/svg" xmlns:xlink="http://www.w3.org/1999/xlink">
    <!-- Generator: Sketch 51.2 (57519) - http://www.bohemiancoding.com/sketch -->
    <title>Mobile_Phone</title>
    <desc>Created with Sketch.</desc>
    <defs></defs>
    <g id="Page-1" stroke="none" stroke-width="1" fill="none" fill-rule="evenodd">
        <g id="Mobile_Phone" transform="translate(2.000000, 1.000000)">
            <path d="M67.4,144.9 L10.4,144.9 C4.7,144.9 0,140.3 0,134.5 L0,11.2 C0,5.5 4.6,0.8 10.4,0.8 L67.4,0.8 C73.1,0.8 77.8,5.4 77.8,11.2 L77.8,134.5 C77.8,140.3 73.1,144.9 67.4,144.9 Z" id="Shape" class="fill-neutral" fill-rule="nonzero"></path>
            <path d="M77.8,11.3 L77.8,134.6 C77.8,140.3 73.2,145 67.4,145 L10.4,145 C4.7,145 -2.27373675e-13,140.4 -2.27373675e-13,134.6 L-2.27373675e-13,11.3 C-2.27373675e-13,5.6 4.6,0.9 10.4,0.9 L67.4,0.9 C73.1,0.9 77.8,5.6 77.8,11.3 Z" id="Shape" class="fill-primary-200" fill-rule="nonzero"></path>
            <rect id="Rectangle-path" class="fill-neutral" fill-rule="nonzero" x="0.1" y="12.4" width="77.7" height="116"></rect>
            <path d="M0.1,55.3 L0.1,11.2 C0.1,5.5 4.7,0.8 10.5,0.8 L67.5,0.8 C73.2,0.8 77.9,5.4 77.9,11.2 L77.9,134.5 C77.9,140.2 73.3,144.9 67.5,144.9 L10.5,144.9 C4.8,144.9 0.1,140.3 0.1,134.5 L0.1,71.5" id="Shape" class="stroke-primary" stroke-width="3" stroke-linecap="round" stroke-linejoin="round"></path>
            <path d="M0.1,46.7 L0.1,46.3" id="Shape" class="stroke-primary" stroke-width="3" stroke-linecap="round" stroke-linejoin="round"></path>
            <circle id="Oval" class="stroke-primary" stroke-width="3" stroke-linecap="round" stroke-linejoin="round" cx="39.6" cy="136.4" r="3.5"></circle>
            <path d="M69.3,12.9 L77.1,12.9" id="Shape" class="stroke-primary" stroke-width="3" stroke-linecap="round" stroke-linejoin="round"></path>
            <path d="M7.4,12.9 L63.2,12.9" id="Shape" class="stroke-primary" stroke-width="3" stroke-linecap="round" stroke-linejoin="round"></path>
            <path d="M59.5,127.9 L0.8,127.9" id="Shape" class="stroke-primary" stroke-width="3" stroke-linecap="round" stroke-linejoin="round"></path>
            <path d="M77.1,127.9 L66,127.9" id="Shape" class="stroke-primary" stroke-width="3" stroke-linecap="round" stroke-linejoin="round"></path>
            <path d="M36,6.9 L45.1,6.9" id="Shape" class="stroke-primary" stroke-width="3" stroke-linecap="round" stroke-linejoin="round"></path>
            <path d="M30.1,6.9 L30.7,6.9" id="Shape" class="stroke-primary" stroke-width="3" stroke-linecap="round" stroke-linejoin="round"></path>
        </g>
    </g>
</svg>