<?xml version="1.0" encoding="UTF-8"?>
<svg width="114px" height="147px" viewBox="0 0 114 147" version="1.1" xmlns="http://www.w3.org/2000/svg" xmlns:xlink="http://www.w3.org/1999/xlink">
    <!-- Generator: Sketch 51.2 (57519) - http://www.bohemiancoding.com/sketch -->
    <title>Money_Bag</title>
    <desc>Created with Sketch.</desc>
    <defs></defs>
    <g id="Page-1" stroke="none" stroke-width="1" fill="none" fill-rule="evenodd">
        <g id="Money_Bag" transform="translate(1.000000, 1.000000)">
            <g id="Group" transform="translate(0.000000, 143.000000)" class="stroke-primary-300" stroke-linecap="round" stroke-linejoin="round" stroke-width="3">
                <path d="M1.6,0.8 L0.5,0.8" id="Shape"></path>
                <path d="M108.9,0.8 L7.5,0.8" id="Shape"></path>
            </g>
            <path d="M71.4,41.7 C62.7,28.5 43.3,28.5 34.5,41.7 C22.4,59.9 4.3,78.7 4.3,101.9 C4.3,128.8 26.1,144.4 52.9,144.4 C79.8,144.4 101.5,128.8 101.5,101.9 C101.6,79.4 83.2,59.5 71.4,41.7 Z" id="Shape" class="fill-neutral" fill-rule="nonzero"></path>
            <path d="M101.6,101.9 C101.6,128.8 81.3,144.4 56.2,144.4 C39.4,144.4 24.8,137.4 17,124.7 C13.1,118.4 10.9,110.8 10.9,101.9 C10.9,78.7 27.8,59.9 39.1,41.7 C47.3,28.5 65.3,28.5 73.5,41.7 C81.5,54.7 92.8,68.8 98.4,84.3 C100.4,90 101.6,95.9 101.6,101.9 Z" id="Shape" class="fill-primary-100" fill-rule="nonzero"></path>
            <path d="M101.6,101.9 C101.6,128.8 81.3,144.4 56.2,144.4 C46.2,144.4 37,141.9 29.6,137.3 C25.3,134.6 27.7,128.1 32.7,128.7 C35.7,129.1 38.7,129.3 41.8,129.3 C70.6,129.3 94.4,112.9 98.3,84.3 C100.4,90 101.6,95.9 101.6,101.9 Z" id="Shape" class="fill-primary-200" fill-rule="nonzero"></path>
            <path d="M28.4,139.4 C35.6,142.7 44,144.5 53,144.5 C79.9,144.5 101.6,128.9 101.6,102 C101.6,79.5 83.2,59.6 71.4,41.8 C62.7,28.6 43.3,28.6 34.5,41.8 C29.4,49.5 23.3,57.2 17.9,65.4" id="Shape" class="stroke-primary" stroke-width="3" stroke-linecap="round" stroke-linejoin="round"></path>
            <path d="M11.8,75.5 C7.4,83.7 4.4,92.5 4.4,101.9 C4.4,114.2 8.9,124.1 16.4,131.3" id="Shape" class="stroke-primary" stroke-width="3" stroke-linecap="round" stroke-linejoin="round"></path>
            <path d="M38.4,37 C29,25.8 16.7,5.4 16.7,5.4 C35.8,-9.8 44.7,19.3 86,5.4 C86,5.4 68.4,37.7 67.8,37 C67.2,36.3 38.4,37 38.4,37 Z" id="Shape" class="fill-neutral" fill-rule="nonzero"></path>
            <path d="M42.4,37 C36.6,30.7 30.8,21.3 27.5,15.8 C26.7,14.5 26.6,13 27,11.6 C27.5,10.2 28.5,9 29.8,8.5 C43.7,2.9 50.9,21.4 81.6,11.8 L68.1,36.8 L42.4,37 Z" id="Shape" fill="#A3CDFE" fill-rule="nonzero"></path>
            <path d="M49.5,36.8 C49.3,36.8 49,36.8 48.8,36.8" id="Shape" class="stroke-primary" stroke-width="3" stroke-linecap="round" stroke-linejoin="round"></path>
            <path d="M38.9,3.3 C49.3,7.1 62.3,13.3 86,5.3 C86,5.3 68.4,37.6 67.8,36.9 C67.7,36.7 65.7,36.7 62.8,36.6" id="Shape" class="stroke-primary" stroke-width="3" stroke-linecap="round" stroke-linejoin="round"></path>
            <path d="M29.2,0.9 C29.4,0.9 29.5,0.9 29.7,0.9" id="Shape" class="stroke-primary" stroke-width="3" stroke-linecap="round" stroke-linejoin="round"></path>
            <path d="M44.6,36.9 C41,37 38.4,37 38.4,37 C29,25.8 16.7,5.4 16.7,5.4 C19.5,3.1 22.2,1.9 24.7,1.3" id="Shape" class="stroke-primary" stroke-width="3" stroke-linecap="round" stroke-linejoin="round"></path>
            <path d="M70.1,37.2 C76.6,29.4 80.5,25.5 96,43.7 C111.5,61.8 111.5,48.9 111.5,48.9" id="Shape" class="stroke-primary" stroke-width="3" stroke-linecap="round" stroke-linejoin="round"></path>
            <path d="M85.7,50.1 C85.7,41 79.2,26.8 68.9,37.2" id="Shape" class="stroke-primary" stroke-width="3" stroke-linecap="round" stroke-linejoin="round"></path>
            <g id="Group" transform="translate(38.000000, 59.000000)" fill-rule="nonzero">
                <path d="M16,61 C14,61 12.4,59.4 12.4,57.4 L12.4,54.1 C9.7,53.9 7,53.2 4.8,52.1 C3,51.2 2.1,49.2 2.8,47.2 C3.4,45.6 4.8,44.6 6.5,44.6 C7.1,44.6 7.6,44.7 8.1,45 C9.6,45.7 12,46.5 15,46.5 C18.9,46.5 21.6,44.4 21.6,41.3 C21.6,38.5 19.6,36.5 14.8,34.6 C8.5,32.1 2.6,28.8 2.6,21.4 C2.6,15.4 6.6,10.7 12.9,9.2 L12.9,5.7 C12.9,3.7 14.5,2.1 16.5,2.1 C18.5,2.1 20.1,3.7 20.1,5.7 L20.1,8.8 C22.2,9 24.2,9.5 26,10.2 C27.9,11 28.9,13.2 28.1,15.2 C27.5,16.7 26.1,17.7 24.5,17.7 C24,17.7 23.5,17.6 23,17.4 C21.2,16.7 19.3,16.3 17.2,16.3 C13,16.3 11.5,18.5 11.5,20.7 C11.5,23.2 13.2,24.7 19,27.1 C27,30.4 30.5,34.5 30.5,40.9 C30.5,47.1 26.2,52.1 19.7,53.7 L19.7,57.4 C19.6,59.3 18,61 16,61 Z" id="Shape" class="fill-neutral"></path>
                <path d="M16.4,3.6 C17.6,3.6 18.5,4.5 18.5,5.7 L18.5,10.2 C21.3,10.3 23.5,10.8 25.3,11.6 C26.5,12.1 27,13.5 26.6,14.7 C26.2,15.7 25.3,16.2 24.4,16.2 C24.1,16.2 23.8,16.1 23.5,16 C22,15.4 19.9,14.8 17.2,14.8 C12,14.8 10,17.9 10,20.7 C10,24.2 12.5,26 18.4,28.5 C25.4,31.4 29,34.9 29,41 C29,46.4 25.3,51.4 18.2,52.6 L18.2,57.6 C18.2,58.8 17.3,59.7 16.1,59.7 L16,59.7 C14.8,59.7 13.9,58.8 13.9,57.6 L13.9,52.8 C10.9,52.7 7.8,52 5.4,50.9 C4.3,50.4 3.7,49.1 4.1,47.9 C4.5,46.9 5.4,46.3 6.3,46.3 C6.6,46.3 7,46.4 7.3,46.5 C9.5,47.5 12.1,48.2 14.8,48.2 C19.6,48.2 22.9,45.4 22.9,41.5 C22.9,37.8 20.2,35.4 15.2,33.4 C8.3,30.7 4,27.5 4,21.6 C4,15.9 8,11.7 14.3,10.6 L14.3,5.8 C14.3,4.5 15.3,3.6 16.4,3.6 Z M16.4,0.6 C13.6,0.6 11.3,2.9 11.3,5.7 L11.3,8.1 C5.1,10.1 1,15.2 1,21.4 C1,29.7 7.6,33.4 14.1,36 C19.4,38.2 19.9,39.9 19.9,41.3 C19.9,44 17.2,45 14.8,45 C12.1,45 9.9,44.2 8.5,43.6 C7.8,43.3 7,43.1 6.3,43.1 C4,43.1 2,44.5 1.2,46.7 C0.2,49.4 1.4,52.3 4,53.5 C6,54.4 8.4,55.1 10.8,55.4 L10.8,57.4 C10.8,60.2 13.1,62.5 15.9,62.5 L16,62.5 C18.8,62.5 21.1,60.2 21.1,57.4 L21.1,54.8 C27.6,52.8 31.9,47.4 31.9,40.9 C31.9,31.9 25.3,28 19.5,25.7 C13.4,23.2 12.9,22.1 12.9,20.7 C12.9,19.8 13.3,17.8 17.1,17.8 C19,17.8 20.7,18.1 22.3,18.8 C23,19.1 23.7,19.2 24.4,19.2 C26.7,19.2 28.6,17.8 29.4,15.7 C30.4,13 29.1,9.9 26.4,8.8 C24.9,8.2 23.2,7.7 21.5,7.5 L21.5,5.7 C21.6,2.9 19.3,0.6 16.4,0.6 Z" id="Shape" class="fill-primary"></path>
            </g>
        </g>
    </g>
</svg>