<?xml version="1.0" encoding="UTF-8"?>
<svg width="80px" height="144px" viewBox="0 0 80 144" version="1.1" xmlns="http://www.w3.org/2000/svg" xmlns:xlink="http://www.w3.org/1999/xlink">
    <!-- Generator: Sketch 51.2 (57519) - http://www.bohemiancoding.com/sketch -->
    <title>Mony_Bag_2</title>
    <desc>Created with Sketch.</desc>
    <defs></defs>
    <g id="Page-1" stroke="none" stroke-width="1" fill="none" fill-rule="evenodd">
        <g id="Mony_Bag_2" transform="translate(1.000000, 1.000000)">
            <path d="M37.1,22 C32.7,15.3 26.9,3.2 26.9,3.2 C35.9,-5.9 40.2,11.5 59.7,3.2 C59.7,3.2 52.1,20.7 51.2,22.1" id="Shape" class="fill-neutral" fill-rule="nonzero"></path>
            <path d="M40.1,22.1 C36.2,16.9 31.3,7.6 31.3,7.6 C39.2,0.6 42.8,14 59.9,7.6 C59.9,7.6 53.3,21.1 52.5,22.2" id="Shape" class="fill-primary-500" fill-rule="nonzero"></path>
            <path d="M25.5,59.9 C16.7,73.8 3.3,87.9 3.3,105.4 C3.3,127.9 19.7,141 39.9,141 C60.1,141 76.5,127.9 76.5,105.4 C76.5,88.4 63.6,73.9 54.9,60.1" id="Shape" class="fill-neutral" fill-rule="nonzero"></path>
            <path d="M28.5,59.9 C20.2,73.1 7.6,86.6 7.6,103.2 C7.6,124.6 23,137 42.1,137 C61.1,137 76.6,124.5 76.6,103.2 C76.6,87 64.5,73.2 56.3,60.2" id="Shape" class="fill-primary-500" fill-rule="nonzero"></path>
            <g id="Group" transform="translate(3.000000, 59.000000)" class="stroke-primary" stroke-linecap="round" stroke-linejoin="round" stroke-width="3">
                <path d="M9.9,19.4 C4.6,27.7 0.4,36.5 0.4,46.4 C0.4,68.9 16.8,82 37,82 C57.2,82 73.6,68.9 73.6,46.4 C73.6,29.4 60.7,14.9 52,1.1" id="Shape"></path>
                <path d="M14.9,12 C14.6,12.5 14.2,13 13.9,13.4" id="Shape"></path>
                <path d="M22.5,0.9 C21.7,2.2 20.9,3.4 20,4.7" id="Shape"></path>
            </g>
            <g id="Group" transform="translate(29.000000, 75.000000)" fill-rule="nonzero">
                <path d="M12.4,47 C10.7,47 9.3,45.6 9.3,43.9 L9.3,41.7 C7.3,41.5 5.4,41 3.8,40.2 C2.2,39.5 1.5,37.7 2.1,36.1 C2.6,34.8 3.8,33.9 5.2,33.9 C5.7,33.9 6.1,34 6.6,34.2 C7.7,34.7 9.5,35.3 11.6,35.3 C14.4,35.3 16.2,33.9 16.2,31.8 C16.2,30.4 15.6,28.8 11.3,27.1 C6.6,25.3 1.9,22.6 1.9,16.8 C1.9,12.2 4.9,8.5 9.7,7.3 L9.7,4.9 C9.7,3.2 11.1,1.8 12.8,1.8 C14.5,1.8 15.9,3.2 15.9,4.9 L15.9,6.9 C17.4,7.1 18.8,7.4 20.1,7.9 C21.7,8.6 22.5,10.5 21.9,12.1 C21.4,13.4 20.2,14.2 18.8,14.2 C18.4,14.2 17.9,14.1 17.5,13.9 C16.2,13.4 14.8,13.1 13.3,13.1 C10.4,13.1 9.3,14.6 9.3,16 C9.3,17.5 10.1,18.5 14.8,20.5 C18.9,22.2 23.7,24.9 23.7,31.3 C23.7,36.1 20.5,40 15.6,41.3 L15.6,43.8 C15.6,45.7 14.2,47 12.4,47 Z" id="Shape" class="fill-neutral"></path>
                <path d="M12.8,3.3 C13.7,3.3 14.4,4 14.4,4.9 L14.4,8.3 C16.5,8.4 18.2,8.8 19.5,9.3 C20.4,9.7 20.8,10.7 20.5,11.6 C20.2,12.3 19.5,12.8 18.8,12.8 C18.6,12.8 18.3,12.8 18.1,12.7 C16.9,12.2 15.3,11.8 13.3,11.8 C9.3,11.8 7.8,14.2 7.8,16.2 C7.8,18.9 9.7,20.2 14.2,22.1 C19.5,24.3 22.2,26.9 22.2,31.5 C22.2,35.6 19.4,39.4 14.1,40.2 L14.1,44 C14.1,44.9 13.4,45.6 12.5,45.6 L12.4,45.6 C11.5,45.6 10.8,44.9 10.8,44 L10.8,40.4 C8.5,40.4 6.2,39.8 4.4,39 C3.5,38.6 3.1,37.6 3.5,36.7 C3.8,36 4.5,35.5 5.2,35.5 C5.5,35.5 5.7,35.6 6,35.7 C7.6,36.4 9.6,37 11.7,37 C15.4,37 17.8,34.9 17.8,32 C17.8,29.2 15.8,27.4 12,25.9 C6.8,23.8 3.5,21.5 3.5,17 C3.5,12.7 6.5,9.5 11.3,8.7 L11.3,5.1 C11.2,4 11.9,3.3 12.8,3.3 Z M12.8,0.3 C10.3,0.3 8.2,2.4 8.2,4.9 L8.2,6.2 C3.5,7.9 0.4,11.9 0.4,16.8 C0.4,23.6 6,26.6 10.8,28.5 C14.7,30.1 14.7,31.2 14.7,31.8 C14.7,33.3 13,33.8 11.6,33.8 C9.7,33.8 8.2,33.3 7.2,32.8 C6.6,32.5 5.9,32.4 5.2,32.4 C3.2,32.4 1.4,33.7 0.7,35.6 C-0.2,38 0.9,40.6 3.2,41.6 C4.6,42.3 6.2,42.7 7.9,43 L7.9,43.9 C7.9,46.4 10,48.5 12.5,48.5 L12.6,48.5 C15.1,48.5 17.2,46.4 17.2,43.9 L17.2,42.5 C22.1,40.8 25.3,36.6 25.3,31.4 C25.3,24.1 19.7,20.9 15.5,19.2 C11,17.3 11,16.7 11,16.1 C11,14.9 12.5,14.7 13.5,14.7 C14.8,14.7 16,14.9 17.2,15.4 C17.8,15.6 18.4,15.8 19,15.8 C21,15.8 22.8,14.6 23.5,12.7 C24.4,10.3 23.2,7.5 20.9,6.6 C19.9,6.2 18.8,5.9 17.6,5.7 L17.6,5 C17.4,2.4 15.3,0.3 12.8,0.3 Z" id="Shape" class="fill-primary"></path>
            </g>
            <path d="M37.1,22 C32.7,15.3 26.9,3.2 26.9,3.2 C35.9,-5.9 40.2,11.5 59.7,3.2 C59.7,3.2 52.1,20.7 51.2,22.1" id="Shape" class="stroke-primary" stroke-width="3" stroke-linecap="round" stroke-linejoin="round"></path>
            <g id="Group" transform="translate(0.000000, 15.000000)">
                <path d="M13.3,9 C2.1,9 0.7,8.3 0.7,11.5 C0.7,20.9 0.7,30.3 0.7,39.7 L0.7,43.3 C0.7,46.5 2.2,45.9 13.3,45.9 C16.6,45.9 16.2,42.9 16.3,42.9 L16.3,11.2 C16.2,9.5 15,9 13.3,9 Z M8.5,15.5 C9.8,15.5 10.9,16.6 10.9,17.9 C10.9,19.2 9.8,20.3 8.5,20.3 C7.2,20.3 6.1,19.2 6.1,17.9 C6.1,16.5 7.2,15.5 8.5,15.5 Z" id="Shape" fill="#C4E0FF" fill-rule="nonzero"></path>
                <path d="M33.4,0.9 L32.3,1.3 C25.3,3.8 20.5,10.5 16.6,13.3 C16.3,13.5 16.3,13 16.3,11.5 C16.3,11.4 16.3,11.3 16.3,11.2 C16.2,9.7 15,9.1 13.3,9.1 C2.1,9.1 0.7,8.4 0.7,11.6 C0.7,21 0.7,30.4 0.7,39.8 L0.7,43.4 C0.7,46.6 2.2,46 13.3,46 C17.1,46 16.2,43 16.3,43 C16.4,43 16.5,43.1 16.6,43.1 C22,45.7 27.1,45.2 55.5,45.1 C56.1,45.1 56.6,45.1 57.2,45 C61,44.3 63.6,39.7 60.1,36.7 C60,36.6 59.8,36.5 59.7,36.4 C59.7,36.4 59.6,36.3 59.6,36.2 C59.8,36.2 60,36.1 60.2,36.1 C60.7,36 61.2,35.9 61.6,35.7 C62.8,35.2 63.7,34.3 64.2,32.7 C64.8,30.3 63.6,28.8 61.6,27.5 C64.5,27.1 65.8,26.1 66.2,24 C66.8,21.2 64.9,19.8 62.7,18.5 C70.4,15.8 67.9,7.7 61.5,7.7 C57.1,7.7 51,7.7 44.9,7.7 L37.6,7.7 L33.4,0.9 Z M8.5,15.5 C9.8,15.5 10.9,16.6 10.9,17.9 C10.9,19.2 9.8,20.3 8.5,20.3 C7.2,20.3 6.1,19.2 6.1,17.9 C6.1,16.5 7.2,15.5 8.5,15.5 Z" id="Shape" class="stroke-primary" stroke-width="3" stroke-linecap="round" stroke-linejoin="round"></path>
                <path d="M16.3,34.3 L16.3,11.1 C16.2,9.6 15,9 13.3,9 C2.1,9 0.7,8.3 0.7,11.5 C0.7,20.9 0.7,30.3 0.7,39.7 L0.7,43.3 C0.7,46.5 2.2,45.9 13.3,45.9 C16.6,45.9 16.2,42.9 16.3,42.9 L16.3,34.3 Z M8.5,15.5 C9.8,15.5 10.9,16.6 10.9,17.9 C10.9,19.2 9.8,20.3 8.5,20.3 C7.2,20.3 6.1,19.2 6.1,17.9 C6.1,16.5 7.2,15.5 8.5,15.5 Z" id="Shape" class="stroke-primary" stroke-width="3" stroke-linecap="round" stroke-linejoin="round"></path>
            </g>
        </g>
    </g>
</svg>