<?xml version="1.0" encoding="UTF-8"?>
<svg width="146px" height="132px" viewBox="0 0 146 132" version="1.1" xmlns="http://www.w3.org/2000/svg" xmlns:xlink="http://www.w3.org/1999/xlink">
    <!-- Generator: Sketch 51.2 (57519) - http://www.bohemiancoding.com/sketch -->
    <title>News</title>
    <desc>Created with Sketch.</desc>
    <defs></defs>
    <g id="Page-1" stroke="none" stroke-width="1" fill="none" fill-rule="evenodd">
        <g id="News" transform="translate(1.000000, 2.000000)">
            <path d="M22,128.2 C10.2,128.2 0.7,118.7 0.7,106.9 L0.7,25.9 L43.3,25.9 L43.3,106.9 C43.3,118.7 33.7,128.2 22,128.2 Z" id="Shape" class="fill-neutral" fill-rule="nonzero"></path>
            <path d="M5.7,25.7 L43.2,25.7 L43.2,107.3 C43.2,118.8 33.8,128.2 22.3,128.2 L22.1,128.2 C10.6,128.2 1.2,118.8 1.2,107.3 L1.2,25.7 L5.7,25.7" id="Shape" class="fill-primary-100" fill-rule="nonzero"></path>
            <path d="M9.2,25.9 L43.3,25.9 L43.3,106.9 C43.3,118.7 33.8,128.2 22,128.2 C10.2,128.2 0.7,118.7 0.7,106.9 L0.7,25.9" id="Shape" class="stroke-primary" stroke-width="3" stroke-linecap="round" stroke-linejoin="round"></path>
            <g id="Group" transform="translate(8.000000, 0.000000)">
                <g transform="translate(12.000000, 0.000000)" id="Shape">
                    <path d="M13.3,0.4 L13,21.2 L24.8,113.6 L10.3,128.8 L95.8,128.9 C102.5,128.9 107.9,123.5 107.9,116.8 L107.9,0.5 L13.3,0.5 L13.3,0.4 Z" class="fill-neutral" fill-rule="nonzero"></path>
                    <path d="M27.1,2.3 L13,2.3 L13,26.7 L0.8,115.3 L95.7,115.3 C102.4,115.3 107.8,110.1 107.8,103.7 L107.8,2.4 L27.1,2.4 L27.1,2.3 Z" class="fill-primary-100" fill-rule="nonzero"></path>
                    <path d="M29.9,0.4 L29.3,0.4" class="stroke-primary" stroke-width="3" stroke-linecap="round" stroke-linejoin="round"></path>
                    <path d="M22.9,0.4 L13,0.4 L13,25.8 L0.8,115.3 L95.7,115.3 C102.4,115.3 107.8,109.9 107.8,103.2 L107.8,0.3 L43.7,0.3" class="stroke-primary" stroke-width="3" stroke-linecap="round" stroke-linejoin="round"></path>
                </g>
                <g transform="translate(0.000000, 12.000000)" id="Shape">
                    <path d="M12.9,103.3 C6.2,103.3 0.8,97.9 0.8,91.2 L0.8,0.2 L25,0.2 L25,91.2 C25,97.9 19.6,103.3 12.9,103.3 Z" class="fill-neutral" fill-rule="nonzero"></path>
                    <path d="M21.3,0.3 L25,0.3 L25,91.5 C25,98 19.7,103.3 13.2,103.3 L12.9,103.3 C6.4,103.3 1.1,98 1.1,91.5 L1.1,0.3 L21.3,0.3" fill="#C4E0FF" fill-rule="nonzero"></path>
                    <path d="M25,88.3 L25,88.7" class="stroke-primary" stroke-width="3" stroke-linecap="round" stroke-linejoin="round"></path>
                    <path d="M25,0.3 L25,74.3" class="stroke-primary" stroke-width="3" stroke-linecap="round" stroke-linejoin="round"></path>
                    <path d="M24.6,94.1 C23.3,99.4 18.5,103.3 12.9,103.3 C6.2,103.3 0.8,97.9 0.8,91.2 L0.8,0.2 L15.2,0.2" class="stroke-primary" stroke-width="3" stroke-linecap="round" stroke-linejoin="round"></path>
                </g>
            </g>
            <g id="Group" transform="translate(21.000000, 13.000000)">
                <path d="M122.4,0.7 L122.4,93.9 C122.4,105.1 113.7,114.3 102.7,115.2 C102.2,115.2 101.6,115.3 101.1,115.3 L22.3,115.3 L22.3,0.8 L122.4,0.8 L122.4,0.7 Z" id="Shape" class="fill-neutral" fill-rule="nonzero"></path>
                <path d="M0.8,115.2 C0.9,115.2 0.9,115.2 1,115.2 L0.8,115.2 Z" id="Shape" class="fill-primary-100" fill-rule="nonzero"></path>
                <path d="M121.4,5.2 L121.4,95.7 C121.4,106.5 112.7,115.4 101.7,116.2 C101.2,116.2 100.6,116.3 100.1,116.3 L4.54747351e-13,116.3 C9.4,116.3 17.4,110.2 20.2,101.8 C20.9,99.7 21.3,97.4 21.3,95 L21.3,5.2 L121.4,5.2 Z" id="Shape" class="fill-primary-100" fill-rule="nonzero"></path>
                <path d="M122.4,4.1 L122.4,80.1 C122.4,90.9 113.7,99.8 102.7,100.6 C102.2,100.6 101.6,100.7 101.1,100.7 L21.2,100.7 C21.9,98.6 22.3,96.3 22.3,93.9 L22.3,4.1 L122.4,4.1 Z" id="Shape" class="fill-neutral" fill-rule="nonzero"></path>
                <path d="M0.8,115.2 C0.9,115.2 0.9,115.2 1,115.2 L0.8,115.2 Z" id="Shape" class="stroke-primary" stroke-width="3" stroke-linecap="round" stroke-linejoin="round"></path>
                <path d="M22.3,7.6 L22.3,0.7 L122.4,0.7 L122.4,93.9 C122.4,105.1 113.7,114.3 102.7,115.2 C102.2,115.2 101.6,115.3 101.1,115.3 L1,115.3 C12.8,115.3 22.3,105.8 22.3,94 L22.3,18.6" id="Shape" class="stroke-primary" stroke-width="3" stroke-linecap="round" stroke-linejoin="round"></path>
            </g>
            <path d="M124.2,33.2 L129.9,33.2" id="Shape" class="stroke-primary" stroke-width="3" stroke-linecap="round" stroke-linejoin="round"></path>
            <path d="M88.7,33.2 L117.6,33.2" id="Shape" class="stroke-primary" stroke-width="3" stroke-linecap="round" stroke-linejoin="round"></path>
            <path d="M57.2,33.2 L68.3,33.2" id="Shape" class="stroke-primary" stroke-width="3" stroke-linecap="round" stroke-linejoin="round"></path>
            <path d="M112.7,46.2 L130.4,46.2" id="Shape" class="stroke-primary" stroke-width="3" stroke-linecap="round" stroke-linejoin="round"></path>
            <path d="M57.7,46.2 L101.3,46.2" id="Shape" class="stroke-primary" stroke-width="3" stroke-linecap="round" stroke-linejoin="round"></path>
            <path d="M106.5,63.8 L130.4,63.8" id="Shape" class="stroke-primary" stroke-width="3" stroke-linecap="round" stroke-linejoin="round"></path>
            <path d="M116.3,76.3 L130.4,76.3" id="Shape" class="stroke-primary" stroke-width="3" stroke-linecap="round" stroke-linejoin="round"></path>
            <path d="M106.5,76.3 L111.4,76.3" id="Shape" class="stroke-primary" stroke-width="3" stroke-linecap="round" stroke-linejoin="round"></path>
            <path d="M106.5,88.8 L130.4,88.8" id="Shape" class="stroke-primary" stroke-width="3" stroke-linecap="round" stroke-linejoin="round"></path>
            <path d="M106.8,105.4 L116.1,105.4" id="Shape" class="stroke-primary" stroke-width="3" stroke-linecap="round" stroke-linejoin="round"></path>
            <path d="M57.9,105.4 L99.5,105.4" id="Shape" class="stroke-primary" stroke-width="3" stroke-linecap="round" stroke-linejoin="round"></path>
            <rect id="Rectangle-path" class="fill-neutral" fill-rule="nonzero" x="57.7" y="63.8" width="35.3" height="24.9"></rect>
            <rect id="Rectangle-path" class="fill-primary-500" fill-rule="nonzero" x="62.4" y="67.5" width="30.6" height="21.3"></rect>
            <rect id="Rectangle-path" class="stroke-primary" stroke-width="3" stroke-linecap="round" stroke-linejoin="round" x="57.7" y="63.8" width="35.3" height="24.9"></rect>
        </g>
    </g>
</svg>