<?xml version="1.0" encoding="UTF-8"?>
<svg width="147px" height="149px" viewBox="0 0 147 149" version="1.1" xmlns="http://www.w3.org/2000/svg" xmlns:xlink="http://www.w3.org/1999/xlink">
    <!-- Generator: Sketch 51.2 (57519) - http://www.bohemiancoding.com/sketch -->
    <title>Notification_2</title>
    <desc>Created with Sketch.</desc>
    <defs></defs>
    <g id="Page-1" stroke="none" stroke-width="1" fill="none" fill-rule="evenodd">
        <g id="Notification_2" transform="translate(2.000000, 2.000000)">
            <g id="Group" transform="translate(7.000000, 21.000000)">
                <circle id="Oval" class="fill-neutral" fill-rule="nonzero" transform="translate(30.134940, 90.186000) rotate(-45.000000) translate(-30.134940, -90.186000) " cx="30.13494" cy="90.186" r="11.4998897"></circle>
                <circle id="Oval" class="fill-primary-300" fill-rule="nonzero" transform="translate(30.134940, 90.186000) rotate(-45.000000) translate(-30.134940, -90.186000) " cx="30.13494" cy="90.186" r="11.4998897"></circle>
                <path d="M34.2,101 C30.1,102.5 25.4,101.6 22.1,98.3 C18.8,95 17.9,90 19.5,85.9" id="Shape" class="stroke-primary" stroke-width="3.1478" stroke-linecap="round" stroke-linejoin="round"></path>
                <path d="M70.6,117.5 C67.3,120.6 62.1,120.4 58.9,117.2 L3.1,61.4 C1.5,59.8 0.7,57.7 0.7,55.6 C0.7,53.3 1.6,51 3.5,49.4 C6.8,46.5 11.8,46.8 14.9,49.9 C16.3,51.3 18.6,51.3 20,49.9 L47.5,22.4 C61.5,8.4 84.3,8.1 98.3,22.1 C105.3,29.1 108.8,38.2 108.8,47.4 C108.8,56.6 105.3,65.7 98.3,72.7 L70.5,100.5 C69.1,101.9 69.1,104.2 70.5,105.6 L70.6,105.7 C72.2,107.3 73,109.4 73,111.6 C73.2,113.7 72.3,115.8 70.6,117.5 Z" id="Shape" class="fill-neutral" fill-rule="nonzero"></path>
                <circle id="Oval" class="fill-neutral" fill-rule="nonzero" transform="translate(107.344940, 12.991260) rotate(-45.000000) translate(-107.344940, -12.991260) " cx="107.34494" cy="12.99126" r="8.49991848"></circle>
                <path d="M70.3,117.8 C67.2,120.7 62.3,120.6 59.3,117.5 L6.6,64.8 C5.1,63.3 4.3,61.3 4.3,59.3 C4.3,57.1 5.2,55 6.9,53.5 C10,50.8 14.7,51.1 17.6,54 C18.3,54.7 19.1,55 20,55 C20.9,55 21.8,54.7 22.4,54 L48.3,28.1 C61.5,14.9 82.9,14.7 96.2,28 C102.8,34.6 106.1,43.2 106.1,51.8 C106.1,53 106,54.2 105.9,55.4 C105.1,62.8 101.9,69.9 96.3,75.5 L70.2,101.6 C68.9,102.9 68.9,105.1 70.2,106.4 L70.3,106.5 C71.8,108 72.6,110 72.6,112 C72.7,114.2 71.9,116.3 70.3,117.8 Z" id="Shape" class="fill-primary-100" fill-rule="nonzero"></path>
                <path d="M70.3,117.8 C67.2,120.7 62.3,120.6 59.3,117.5 L39.8,98.4 C40.9,98.1 44.7,97.1 45.9,96.4 C53.8,91.2 46.5,82.1 41.4,76.9 C61.9,91.2 93.4,73.8 106,55.4 C105.2,62.8 102,69.9 96.4,75.5 L70.3,101.6 C69,102.9 69,105.1 70.3,106.4 L70.4,106.5 C71.9,108 72.7,110 72.7,112 C72.7,114.2 71.9,116.3 70.3,117.8 Z" id="Shape" class="fill-primary-200" fill-rule="nonzero"></path>
                <ellipse id="Oval" class="fill-primary-100" fill-rule="nonzero" transform="translate(106.635950, 15.735810) rotate(-45.000000) translate(-106.635950, -15.735810) " cx="106.63595" cy="15.73581" rx="5.99994246" ry="7.09993191"></ellipse>
                <path d="M45.5,103.8 L3.1,61.4 C1.5,59.8 0.7,57.7 0.7,55.6 C0.7,53.3 1.6,51 3.5,49.4 C6.8,46.5 11.8,46.8 14.9,49.9 C16.3,51.3 18.6,51.3 20,49.9 L47.5,22.4 C52.7,17.2 59.1,13.9 65.9,12.5" id="Shape" class="stroke-primary" stroke-width="3.1478" stroke-linecap="round" stroke-linejoin="round"></path>
                <path d="M81.5,12.6 C87.7,14.1 93.6,17.2 98.4,22 C105.4,29 108.9,38.1 108.9,47.3 C108.9,56.5 105.4,65.6 98.4,72.6 L70.6,100.4 C69.2,101.8 69.2,104.1 70.6,105.5 L70.7,105.6 C72.3,107.2 73.1,109.3 73.1,111.5 C73.1,113.7 72.3,115.8 70.5,117.5 C67.2,120.6 62,120.4 58.8,117.2" id="Shape" class="stroke-primary" stroke-width="3.1478" stroke-linecap="round" stroke-linejoin="round"></path>
                <path d="M73.3,11.6 C73.4,11.6 73.5,11.6 73.7,11.6" id="Shape" class="stroke-primary" stroke-width="3.1478" stroke-linecap="round" stroke-linejoin="round"></path>
                <path d="M108.6,21.5 C106.1,21.8 103.4,21 101.4,19.1 C98.2,15.9 98.1,10.8 101,7.4" id="Shape" class="stroke-primary" stroke-width="3.1478" stroke-linecap="round" stroke-linejoin="round"></path>
                <path d="M106,4.6 C108.6,4.2 111.4,5 113.4,7 C116.7,10.3 116.7,15.5 113.6,18.9" id="Shape" class="stroke-primary" stroke-width="3.1478" stroke-linecap="round" stroke-linejoin="round"></path>
                <path d="M40.8,75.6 L70.7,105.6" id="Shape" class="stroke-primary" stroke-width="3.1478" stroke-linecap="round" stroke-linejoin="round"></path>
                <path d="M29.4,64.3 L35.3,70.1" id="Shape" class="stroke-primary" stroke-width="3.1478" stroke-linecap="round" stroke-linejoin="round"></path>
                <path d="M24.2,59.1 L24.7,59.5" id="Shape" class="stroke-primary" stroke-width="3.1478" stroke-linecap="round" stroke-linejoin="round"></path>
            </g>
            <path d="M128.2,98.1 C126.5,105.6 122.7,112.8 116.9,118.6 C111.1,124.4 103.9,128.2 96.4,129.9" id="Shape" class="stroke-primary-300" stroke-width="3.1478" stroke-linecap="round" stroke-linejoin="round"></path>
            <path d="M19.7,35.6 C21.4,32.8 23.5,30.2 25.9,27.7 C31.7,21.9 38.9,18.1 46.4,16.4" id="Shape" class="stroke-primary-300" stroke-width="3.1478" stroke-linecap="round" stroke-linejoin="round"></path>
            <path d="M14.6,48.2 C15.2,45.6 16,43.1 17.1,40.6" id="Shape" class="stroke-primary-300" stroke-width="3.1478" stroke-linecap="round" stroke-linejoin="round"></path>
            <path d="M103.9,143.9 C102.5,144.3 101.2,144.7 99.8,145" id="Shape" class="stroke-primary-300" stroke-width="3.1478" stroke-linecap="round" stroke-linejoin="round"></path>
            <path d="M130.8,126.3 C129.8,127.4 128.8,128.5 127.7,129.6 C122.5,134.8 116.5,138.8 110.1,141.6" id="Shape" class="stroke-primary-300" stroke-width="3.1478" stroke-linecap="round" stroke-linejoin="round"></path>
            <path d="M143.2,101.5 C141.9,107.3 139.7,112.9 136.6,118.1" id="Shape" class="stroke-primary-300" stroke-width="3.1478" stroke-linecap="round" stroke-linejoin="round"></path>
            <path d="M41,1.2 C41.9,0.9 42.9,0.7 43.8,0.5" id="Shape" class="stroke-primary-300" stroke-width="3.1478" stroke-linecap="round" stroke-linejoin="round"></path>
            <path d="M0.3,44 C2.6,33.7 7.8,24 15.8,16 C21.4,10.4 28,6.1 35,3.3" id="Shape" class="stroke-primary-300" stroke-width="3.1478" stroke-linecap="round" stroke-linejoin="round"></path>
        </g>
    </g>
</svg>