<?xml version="1.0" encoding="UTF-8"?>
<svg width="119px" height="125px" viewBox="0 0 119 125" version="1.1" xmlns="http://www.w3.org/2000/svg" xmlns:xlink="http://www.w3.org/1999/xlink">
    <!-- Generator: Sketch 51.2 (57519) - http://www.bohemiancoding.com/sketch -->
    <title>Old_School_Phone</title>
    <desc>Created with Sketch.</desc>
    <defs></defs>
    <g id="Page-1" stroke="none" stroke-width="1" fill="none" fill-rule="evenodd">
        <g id="Old_School_Phone" transform="translate(1.000000, 1.000000)">
            <path d="M66.5,45.1 L50.4,45.1 C47.7,45.1 45.4,47.3 45.4,50.1 L45.4,54.1 C45.4,56.8 47.6,59.1 50.4,59.1 L66.5,59.1 C69.2,59.1 71.5,56.9 71.5,54.1 L71.5,50.1 C71.5,47.3 69.3,45.1 66.5,45.1 Z" id="Shape" class="stroke-primary" stroke-width="3.2" class="fill-primary-400" fill-rule="nonzero" stroke-linecap="round" stroke-linejoin="round"></path>
            <path d="M109.8,122.4 L7.2,122.4 C3.8,122.4 1.1,119.7 1.1,116.3 L1.1,91.3 C1.1,89.3 1.7,87.4 2.8,85.7 L21.2,58.8 C22.2,57.3 24,56.4 25.8,56.4 L91.2,56.4 C93.1,56.4 94.8,57.3 95.8,58.8 L114.1,85.7 C115.2,87.3 115.8,89.3 115.8,91.2 L115.8,116.3 C115.9,119.7 113.1,122.4 109.8,122.4 Z" id="Shape" class="fill-neutral" fill-rule="nonzero"></path>
            <path d="M115.9,93.6 L115.9,116.8 C115.9,119.9 113.2,122.5 109.8,122.5 L7.2,122.5 C3.8,122.5 1.1,120 1.1,116.8 L1.1,93.7 C1.1,91.8 1.7,90 2.8,88.5 L3,88.3 L21.3,63.4 C22.3,62 24.1,61.1 25.9,61.1 L91.3,61.1 C93.2,61.1 94.9,62 95.9,63.4 L114,88.2 L114.2,88.4 C115.3,89.9 115.9,91.7 115.9,93.6 Z" id="Shape" class="fill-primary-100" fill-rule="nonzero"></path>
            <path d="M114.9,93.6 L114.9,116.8 C114.9,119.9 112.2,122.5 108.8,122.5 L6.2,122.5 C2.8,122.5 0.1,120 0.1,116.8 L0.1,93.7 C0.1,91.8 0.7,90 1.8,88.5 L2,88.3 L113,88.3 L113.2,88.5 C114.3,89.9 114.9,91.7 114.9,93.6 Z" id="Shape" fill="#C1DDFE" fill-rule="nonzero"></path>
            <g id="Group" transform="translate(5.000000, 0.000000)">
                <path d="M76.4,4.3 C79.7,5.3 83,6.5 86.3,7.9 C90.8,9.8 95.1,12.3 99,15.3 C103.9,19.1 106.3,24.2 106.7,30.3 C106.8,32.4 106.8,34.6 106.8,36.7 C106.7,42.5 102.5,47.3 96.7,47.7 C92,48 87.3,48 82.6,47.7 C77,47.3 72.8,42.9 72.4,37.2 C72.3,35.5 72.3,33.8 72.3,32.1 C72.3,28.4 70.5,26.4 66.9,25.7 C58,24.1 49.1,24.3 40.3,25.8 C37,26.3 35.3,28.4 35.3,31.8 C35.3,33.5 35.3,35.2 35.3,36.9 C35.2,42.8 30.7,47.6 24.8,47.8 C20.5,48 16.2,48 11.9,47.9 C6.1,47.7 1.5,43.4 1,37.6 C0.6,32.5 0.3,27.3 2.7,22.6 C3.7,20.6 5,18.8 5.8,17.6 C10.7,13.3 15.4,10.4 20.5,8.1 C39,0.1 57.7,-1.3 76.4,4.3" id="Shape" class="fill-primary-200" fill-rule="nonzero"></path>
                <path d="M2,34.3 C1.7,30.9 1.5,27.5 2.2,24.1 C2.2,24.1 2.2,24 2.2,24 C2.3,23.5 2.4,23.1 2.5,22.7 C2.5,22.7 2.5,22.7 2.5,22.7 C2.7,22.3 2.9,22 3.1,21.6 C3.8,20.3 4.6,19.2 5.2,18.3 C5.3,18.1 5.4,17.9 5.5,17.8 C5.7,17.7 5.8,17.5 6,17.4 C9.2,14.6 12.4,12.4 15.6,10.6 C16,10.4 16.3,10.2 16.7,10 C16.7,10 16.8,9.9 16.9,9.9 C17.3,9.7 17.7,9.5 18.1,9.3 C18.8,9 19.5,8.7 20.1,8.4 C41.7,-1 63.5,-1.2 85.3,8.2 C86,8.5 86.6,8.8 87.3,9.1 C87.9,9.4 88.6,9.7 89.2,10.1 C89.7,10.4 90.2,10.6 90.7,10.9 C90.9,11 91.2,11.2 91.4,11.3 C91.9,11.6 92.3,11.8 92.8,12.1 C92.9,12.1 92.9,12.2 93,12.2 C93.5,12.5 93.9,12.9 94.4,13.2 C95.1,13.7 95.7,14.2 96.2,14.8 C96.9,15.5 97.6,16.3 98.2,17.1 C98.3,17.2 98.4,17.4 98.5,17.5 C98.6,17.7 98.7,17.8 98.9,18 C98.9,18.1 99,18.1 99,18.2 C99.1,18.4 99.2,18.5 99.3,18.7 C99.4,18.8 99.4,18.9 99.5,19.1 C99.6,19.3 99.7,19.4 99.8,19.6 C99.9,19.8 100,20 100.1,20.2 C100.3,20.6 100.4,21 100.6,21.4 C100.7,21.5 100.7,21.7 100.7,21.8 C100.8,22 100.8,22.1 100.9,22.3 C101,22.5 101,22.7 101.1,22.9 C101.2,23.2 101.2,23.4 101.3,23.7 C101.3,23.8 101.4,23.9 101.4,24.1 C101.4,24.3 101.5,24.5 101.5,24.7 C101.6,25.2 101.7,25.7 101.7,26.3 C101.7,26.7 101.8,27 101.8,27.4 C101.9,29.4 101.9,31.4 101.9,33.4 C101.8,38.9 97.8,43.4 92.4,43.8 C92,43.8 91.6,43.9 91.1,43.9 C86.8,44.1 81.3,43.8 77.7,43.6 C77.5,43.6 77.3,43.6 77.1,43.6 C75.8,43.2 74.5,42.6 73.5,41.8 C73.1,41.5 72.8,41.2 72.5,40.9 C72.1,39.8 71.8,38.7 71.7,37.4 C71.6,35.7 71.6,34 71.6,32.3 C71.6,32.2 71.6,32 71.6,31.9 C71.6,31.9 71.6,31.9 71.6,31.9 C71.6,31.2 71.5,30.5 71.3,29.9 C70.9,28.7 70.2,27.7 69.2,27.1 C69.1,26.9 69.1,26.7 69,26.5 C68.3,24.7 66.8,23.7 64.4,23.3 C56,21.8 47.7,22 39.3,23.4 C36.2,23.9 34.6,25.9 34.6,29 C34.6,30.6 34.6,32.2 34.6,33.8 C34.5,38.8 31,42.9 26.3,43.9 C26,44 25.8,44 25.5,44 C25.2,44 25,44.1 24.7,44.1 C20.6,44.3 16.6,44.3 12.5,44.2 C12.3,44.2 12.2,44.2 12,44.2 C11.9,44.2 11.8,44.2 11.7,44.2 C11.6,44.2 11.4,44.2 11.3,44.1 C10.4,44 9.6,43.7 8.8,43.4 C8.7,43.3 8.5,43.3 8.4,43.2 C8.3,43.2 8.1,43.1 8,43 C7.7,42.8 7.3,42.6 7,42.4 C6.9,42.4 6.9,42.3 6.8,42.3 C6.7,42.2 6.6,42.1 6.5,42 C6.3,41.9 6.2,41.7 6,41.6 C5.8,41.5 5.7,41.3 5.5,41.2 C5.4,41.1 5.3,41 5.2,40.9 C5.1,40.8 5,40.7 4.9,40.6 C3.1,38.8 2.2,36.7 2,34.3 Z" id="Shape" class="fill-primary-400" fill-rule="nonzero"></path>
                <path d="M2,34.3 C1.7,30.9 1.3,27.4 2.2,24.1 C2.2,24.1 2.2,24 2.2,24 C2.4,23.2 2.8,22.3 3.1,21.5 C3.7,20.3 4.4,19.2 5.2,18.2 C5.4,17.9 5.7,17.6 6,17.3 C6.5,16.8 7,16.3 7.6,15.8 C10.1,13.8 12.8,12 15.7,10.5 C16.1,10.3 16.4,10.1 16.8,9.9 C16.8,9.9 16.9,9.8 17,9.8 C17.4,9.6 17.8,9.4 18.2,9.2 C18.9,8.9 19.6,8.6 20.2,8.3 C41.8,-1.1 63.6,-1.3 85.4,8.1 C86.1,8.4 86.7,8.7 87.4,9 C88,9.3 88.7,9.6 89.3,10 C89.8,10.3 90.3,10.5 90.8,10.8 C91,10.9 91.3,11.1 91.5,11.2 C92,11.5 92.4,11.7 92.9,12 C93,12 93,12.1 93.1,12.1 C93.6,12.4 94,12.8 94.5,13.1 C95.2,13.6 95.8,14.1 96.3,14.7 C97,15.4 97.7,16.2 98.3,17 C98.4,17.1 98.5,17.3 98.6,17.4 C98.7,17.6 98.8,17.7 99,17.9 C99,18 99.1,18 99.1,18.1 C99.2,18.3 99.3,18.4 99.4,18.6 C99.5,18.7 99.5,18.8 99.6,19 C99.7,19.2 99.8,19.3 99.9,19.5 C100,19.7 100.1,19.9 100.2,20.1 C100.4,20.5 100.5,20.9 100.7,21.3 C100.8,21.4 100.8,21.6 100.8,21.7 C100.9,21.9 100.9,22 101,22.2 C101.1,22.4 101.1,22.6 101.2,22.8 C101.3,23.1 101.3,23.3 101.4,23.6 C101.4,23.7 101.5,23.8 101.5,24 C101.5,24.2 101.6,24.4 101.6,24.6 C101.7,25.1 101.8,25.6 101.8,26.2 C101.8,26.6 101.9,26.9 101.9,27.3 C102,29.3 102,31.3 102,33.3 C101.9,38.8 97.9,43.3 92.5,43.7 C92.1,43.7 91.7,43.8 91.2,43.8 C86.9,44 81.4,43.7 77.8,43.5 C77.5,42.6 77.3,41.7 77.2,40.8 C77.1,39.2 77.1,37.6 77.1,36 C77.1,35.2 77,34.5 76.8,33.8 C76.2,31.7 76.3,32.6 73.7,32.2 C73.3,32.1 72.8,32 72.4,32 C72.1,32 71.9,31.9 71.6,31.9 C71.5,31.9 71.4,31.9 71.3,31.9 C71.3,31.1 71.3,30.5 71.3,29.9 C71.3,29.8 71.3,29.6 71.3,29.5 C71.3,29.3 71.3,29.2 71.3,29 C71.2,28.7 71.2,28.3 71.1,27.9 C70.6,26.1 70.6,26.5 69,26.4 C68.7,26.4 68.4,26.3 68,26.3 C59.6,24.8 49.4,24.1 41.1,25.5 C38,26 36,26 36,29.1 C36,30.7 36,32.3 36,33.9 C35.9,38.9 31.4,42.9 26.4,43.9 C26.1,44 25.9,44 25.6,44 C25.3,44 25.1,44.1 24.8,44.1 C20.7,44.3 16.7,44.3 12.6,44.2 C12.4,44.2 12.3,44.2 12.1,44.2 C12,44.2 11.9,44.2 11.8,44.2 C11.7,44.2 11.5,44.2 11.4,44.1 C10.5,44 9.7,43.7 8.9,43.4 C8.8,43.3 8.6,43.3 8.5,43.2 C8.4,43.2 8.2,43.1 8.1,43 C7.8,42.8 7.4,42.6 7.1,42.4 C7,42.4 7,42.3 6.9,42.3 C6.8,42.2 6.7,42.1 6.6,42 C6.4,41.9 6.3,41.7 6.1,41.6 C5.9,41.5 5.8,41.3 5.6,41.2 C5.5,41.1 5.4,41 5.3,40.9 C5.2,40.8 5.1,40.7 5,40.6 C3.1,38.8 2.2,36.7 2,34.3 Z" id="Shape" class="fill-neutral" fill-rule="nonzero"></path>
                <path d="M8.5,43.2 C8.1,42.3 7.9,41.3 7.8,40.2 C7.5,36.8 7.1,33.2 8,29.9 C8.9,26.7 10.8,23.9 13.4,21.8 C16.2,19.5 19.4,17.6 22.6,15.9 C23.7,15.3 24.8,14.8 26,14.3 C47.6,4.9 69.4,4.7 91.2,14.1 C93.9,15.2 96.4,16.6 98.9,18.1 C98.9,18.1 98.9,18.1 99,18.1 C99.1,18.3 99.2,18.4 99.3,18.6 C99.4,18.7 99.4,18.8 99.5,19 C99.6,19.2 99.7,19.3 99.8,19.5 C99.9,19.7 100,19.9 100.1,20.1 C100.3,20.5 100.4,20.9 100.6,21.3 C100.7,21.4 100.7,21.6 100.7,21.7 C100.8,21.9 100.8,22 100.9,22.2 C101,22.4 101,22.6 101.1,22.8 C101.2,23.1 101.2,23.3 101.3,23.6 C101.3,23.7 101.4,23.8 101.4,24 C101.4,24.2 101.5,24.4 101.5,24.6 C101.6,25.1 101.7,25.6 101.7,26.2 C101.7,26.6 101.8,26.9 101.8,27.3 C101.9,29.3 101.9,31.3 101.9,33.3 C101.8,38.8 97.8,43.3 92.4,43.7 C92,43.7 91.6,43.8 91.1,43.8 C86.8,44 81.3,43.7 77.7,43.5 C77.5,43.5 77.3,43.5 77.1,43.5 C75.5,43.4 74.4,43.3 73.9,43.2 C73.7,42.7 73.6,42.2 73.5,41.7 C72.9,38.6 73.6,35.6 72.9,33.4 C72.7,32.6 72.5,32.2 72.3,32 C72.1,31.7 71.8,31.8 71.5,31.8 C71.4,31.8 71.3,31.8 71.2,31.8 C71.2,31 71.2,30.4 71.2,29.8 C71.2,29.7 71.2,29.5 71.2,29.4 C71.2,29.2 71.2,29.1 71.2,28.9 C71.1,28.6 71.1,28.2 71,27.8 C70.5,26 70.5,26.4 68.9,26.3 C68.6,26.3 68.3,26.2 67.9,26.2 C59.5,24.7 49.3,24 41,25.4 C37.9,25.9 35.9,25.9 35.9,29 C35.9,30.6 35.9,32.2 35.9,33.8 C35.8,38.8 31.3,42.8 26.3,43.8 C26,43.9 25.8,43.9 25.5,43.9 C25.2,43.9 25,44 24.7,44 C20.6,44.2 16.6,44.2 12.5,44.1 C12.3,44.1 12.2,44.1 12,44.1 C11.9,44.1 11.8,44.1 11.7,44.1 C11.6,44.1 11.4,44.1 11.3,44 C10.1,43.8 9.3,43.5 8.5,43.2 Z" id="Shape" class="fill-primary-100" fill-rule="nonzero"></path>
                <path d="M88.5,47.9 C88.4,47.9 88.4,47.9 88.3,47.9" id="Shape" class="stroke-primary" stroke-width="3.2" stroke-linecap="round" stroke-linejoin="round"></path>
                <path d="M77.2,4.6 C80.2,5.5 83.3,6.6 86.4,7.9 C90.9,9.8 95.2,12.3 99.1,15.3 C104,19.1 106.4,24.2 106.8,30.3 C106.9,32.4 106.9,34.6 106.9,36.7 C106.8,42.5 102.6,47.3 96.8,47.7 C95.9,47.8 95,47.8 94.1,47.8" id="Shape" class="stroke-primary" stroke-width="3.2" stroke-linecap="round" stroke-linejoin="round"></path>
                <path d="M36.4,2.8 C46.7,0.6 58.9,0.2 71.9,3.2" id="Shape" class="stroke-primary" stroke-width="3.2" stroke-linecap="round" stroke-linejoin="round"></path>
                <path d="M82.6,47.7 C77,47.3 72.8,42.9 72.4,37.2 C72.3,35.5 72.3,33.8 72.3,32.1 C72.3,28.4 70.5,26.4 66.9,25.7 C58,24.1 49.1,24.3 40.3,25.8 C37,26.3 35.3,28.4 35.3,31.8 C35.3,33.5 35.3,35.2 35.3,36.9 C35.2,42.8 30.7,47.6 24.8,47.8 C20.5,48 16.2,48 11.9,47.9 C6.1,47.7 1.5,43.4 1,37.6 C0.4,30.1 0.2,24.3 6,17.8 C10.1,13.2 18.8,7.7 30.5,4.2" id="Shape" class="stroke-primary" stroke-width="3.2" stroke-linecap="round" stroke-linejoin="round"></path>
                <path d="M91.4,37.1 L106.8,37.4" id="Shape" class="stroke-primary" stroke-width="3.2" stroke-linecap="round" stroke-linejoin="round"></path>
                <path d="M82.2,36.9 L85.2,37" id="Shape" class="stroke-primary" stroke-width="3.2" stroke-linecap="round" stroke-linejoin="round"></path>
                <path d="M10.5,36.8 L35.1,37.2" id="Shape" class="stroke-primary" stroke-width="3.2" stroke-linecap="round" stroke-linejoin="round"></path>
            </g>
            <path d="M82.2,56.3 L91.3,56.3 C93.2,56.3 94.9,57.2 95.9,58.7 L114.2,85.6 C115.3,87.2 115.9,89.2 115.9,91.1 L115.9,116.2 C115.9,119.6 113.2,122.3 109.8,122.3 L7.2,122.3 C3.8,122.3 1.1,119.6 1.1,116.2 L1.1,91.2 C1.1,89.2 1.7,87.3 2.8,85.6 L4.8,82.7" id="Shape" class="stroke-primary" stroke-width="3.2" stroke-linecap="round" stroke-linejoin="round"></path>
            <path d="M17.8,63.8 L21.3,58.7 C22.3,57.2 24.1,56.3 25.9,56.3 L71.4,56.3" id="Shape" class="stroke-primary" stroke-width="3.2" stroke-linecap="round" stroke-linejoin="round"></path>
            <path d="M9,76.8 L10.1,75.1" id="Shape" class="stroke-primary" stroke-width="3.2" stroke-linecap="round" stroke-linejoin="round"></path>
            <circle id="Oval" class="fill-neutral" fill-rule="nonzero" cx="58.8" cy="89.7" r="23.4"></circle>
            <circle id="Oval" class="fill-primary-400" fill-rule="nonzero" cx="59.6" cy="90.5" r="20.8"></circle>
            <path d="M50.5,67.8 C53.1,66.8 55.9,66.3 58.8,66.3 C71.7,66.3 82.2,76.8 82.2,89.7 C82.2,102.6 71.7,113.1 58.8,113.1 C45.9,113.1 35.4,102.6 35.4,89.7 C35.4,83.3 38,77.4 42.2,73.2" id="Shape" class="stroke-primary" stroke-width="3.2" stroke-linecap="round" stroke-linejoin="round"></path>
            <circle id="Oval" class="fill-neutral" fill-rule="nonzero" cx="58.8" cy="89.7" r="13"></circle>
            <circle id="Oval" class="fill-primary-100" fill-rule="nonzero" cx="60.2" cy="91.7" r="11"></circle>
            <circle id="Oval" class="stroke-primary" stroke-width="3.2" stroke-linecap="round" stroke-linejoin="round" cx="58.8" cy="89.7" r="13"></circle>
        </g>
    </g>
</svg>