<?xml version="1.0" encoding="UTF-8"?>
<svg width="151px" height="124px" viewBox="0 0 151 124" version="1.1" xmlns="http://www.w3.org/2000/svg" xmlns:xlink="http://www.w3.org/1999/xlink">
    <!-- Generator: Sketch 51.2 (57519) - http://www.bohemiancoding.com/sketch -->
    <title>Online_Store</title>
    <desc>Created with Sketch.</desc>
    <defs></defs>
    <g id="Page-1" stroke="none" stroke-width="1" fill="none" fill-rule="evenodd">
        <g id="Online_Store" transform="translate(2.000000, 2.000000)">
            <g id="Group">
                <path d="M146.9,8.3 L146.9,112.3 C146.9,116.5 143.5,119.9 139.3,119.9 L7.9,119.9 C3.7,119.9 0.3,116.5 0.3,112.3 L0.3,7.4 C0.3,3.5 3.5,0.3 7.4,0.3 L138.8,0.3 C143.3,0.2 146.9,3.8 146.9,8.3 Z" id="Shape" class="fill-neutral" fill-rule="nonzero"></path>
                <path d="M97.6,19.5 L0.2,19.5 L0.2,7.8 C0.2,3.6 3.6,0.2 7.8,0.2 L139.2,0.2 C143.4,0.2 146.8,3.6 146.8,7.8 L146.8,19.5 L121.2,19.5" id="Shape" class="fill-neutral" fill-rule="nonzero"></path>
                <path d="M146.9,8.3 L146.9,19.1 L0.3,19.1 L0.3,9 C0.3,4.1 4.3,0.1 9.2,0.1 L138.9,0.1 C143.3,0.2 146.9,3.8 146.9,8.3 Z" id="Shape" class="fill-primary-200" fill-rule="nonzero"></path>
                <path d="M137.5,19.2 L145.8,19.2" id="Shape" class="stroke-primary" stroke-width="3" stroke-linecap="round" stroke-linejoin="round"></path>
                <path d="M126.8,19.2 L127.7,19.2" id="Shape" class="stroke-primary" stroke-width="3" stroke-linecap="round" stroke-linejoin="round"></path>
                <path d="M0.8,19.2 L89.1,19.2" id="Shape" class="stroke-primary" stroke-width="3" stroke-linecap="round" stroke-linejoin="round"></path>
                <circle id="Oval" fill="#E45745" fill-rule="nonzero" cx="13.3" cy="10" r="3.3"></circle>
                <circle id="Oval" fill="#F5A623" fill-rule="nonzero" cx="24.1" cy="10" r="3.3"></circle>
                <circle id="Oval" fill="#FFD792" fill-rule="nonzero" cx="35" cy="10" r="3.3"></circle>
                <path d="M0.3,63.6 L0.3,62.4" id="Shape" class="stroke-primary" stroke-width="3" stroke-linecap="round" stroke-linejoin="round"></path>
                <path d="M0.3,56.1 L0.3,7.9 C0.3,3.7 3.7,0.3 7.9,0.3 L139.3,0.3 C143.5,0.3 146.9,3.7 146.9,7.9 L146.9,112.3 C146.9,116.5 143.5,119.9 139.3,119.9 L7.9,119.9 C3.7,119.9 0.3,116.5 0.3,112.3 L0.3,78.5" id="Shape" class="stroke-primary" stroke-width="3" stroke-linecap="round" stroke-linejoin="round"></path>
            </g>
            <g id="Group" transform="translate(12.000000, 28.000000)">
                <g>
                    <rect id="Rectangle-path" class="stroke-primary-300" stroke-width="3" stroke-linecap="round" stroke-linejoin="round" x="0.5" y="0.3" width="33.5" height="37.8"></rect>
                    <circle id="Oval" class="fill-primary-300" fill-rule="nonzero" cx="17.2" cy="13.1" r="7.4"></circle>
                    <path d="M7,25 L26.8,25" id="Shape" class="stroke-primary-300" stroke-width="3" stroke-linecap="round" stroke-linejoin="round"></path>
                </g>
                <path d="M11.4,30.3 L22.4,30.3" id="Shape" class="stroke-primary-300" stroke-width="3" stroke-linecap="round" stroke-linejoin="round"></path>
            </g>
            <g id="Group" transform="translate(53.000000, 28.000000)">
                <g>
                    <rect id="Rectangle-path" class="stroke-primary-300" stroke-width="3" stroke-linecap="round" stroke-linejoin="round" x="0.6" y="0.3" width="33.5" height="37.8"></rect>
                    <circle id="Oval" class="fill-primary-300" fill-rule="nonzero" cx="17.3" cy="13.1" r="7.4"></circle>
                    <path d="M7.2,25 L27,25" id="Shape" class="stroke-primary-300" stroke-width="3" stroke-linecap="round" stroke-linejoin="round"></path>
                </g>
                <path d="M11.6,30.3 L22.6,30.3" id="Shape" class="stroke-primary-300" stroke-width="3" stroke-linecap="round" stroke-linejoin="round"></path>
            </g>
            <rect id="Rectangle-path" class="stroke-primary-300" stroke-width="3" stroke-linecap="round" stroke-linejoin="round" x="99.3" y="28.3" width="38.7" height="57.1"></rect>
            <path d="M135.8,109.1 L101.6,109.1 C100.4,109.1 99.4,108.1 99.4,106.9 L99.4,94.7 C99.4,93.5 100.4,92.5 101.6,92.5 L135.8,92.5 C137,92.5 138,93.5 138,94.7 L138,106.9 C138,108.1 137,109.1 135.8,109.1 Z" id="Shape" stroke-width="3" class="stroke-primary fill-primary-500" fill-rule="nonzero" stroke-linecap="round" stroke-linejoin="round"></path>
            <g id="Group" transform="translate(12.000000, 72.000000)">
                <g>
                    <rect id="Rectangle-path" class="stroke-primary-300" stroke-width="3" stroke-linecap="round" stroke-linejoin="round" x="0.5" y="0.3" width="33.5" height="37.8"></rect>
                    <circle id="Oval" class="fill-primary-300" fill-rule="nonzero" cx="17.2" cy="13.1" r="7.4"></circle>
                    <path d="M7,25 L26.8,25" id="Shape" class="stroke-primary-300" stroke-width="3" stroke-linecap="round" stroke-linejoin="round"></path>
                </g>
                <path d="M11.4,30.2 L22.4,30.2" id="Shape" class="stroke-primary-300" stroke-width="3" stroke-linecap="round" stroke-linejoin="round"></path>
            </g>
            <g id="Group" transform="translate(53.000000, 72.000000)">
                <g>
                    <rect id="Rectangle-path" class="stroke-primary-300" stroke-width="3" stroke-linecap="round" stroke-linejoin="round" x="0.6" y="0.3" width="33.5" height="37.8"></rect>
                    <circle id="Oval" class="fill-primary-300" fill-rule="nonzero" cx="17.3" cy="13.1" r="7.4"></circle>
                    <path d="M7.2,25 L27,25" id="Shape" class="stroke-primary-300" stroke-width="3" stroke-linecap="round" stroke-linejoin="round"></path>
                </g>
                <path d="M11.6,30.2 L22.6,30.2" id="Shape" class="stroke-primary-300" stroke-width="3" stroke-linecap="round" stroke-linejoin="round"></path>
            </g>
            <g id="Group" transform="translate(104.000000, 36.000000)">
                <path d="M9.2,10.6 L2.2,10.6 C1.3,10.6 0.6,9.9 0.6,9 L0.6,2 C0.6,1.1 1.3,0.4 2.2,0.4 L9.2,0.4 C10.1,0.4 10.8,1.1 10.8,2 L10.8,9 C10.9,9.9 10.1,10.6 9.2,10.6 Z" id="Shape" class="fill-primary-300" fill-rule="nonzero"></path>
                <path d="M15.3,2.7 L26.9,2.7" id="Shape" class="stroke-primary-300" stroke-width="3" stroke-linecap="round" stroke-linejoin="round"></path>
                <path d="M15.3,8.2 L20.9,8.2" id="Shape" class="stroke-primary-300" stroke-width="3" stroke-linecap="round" stroke-linejoin="round"></path>
            </g>
            <g id="Group" transform="translate(104.000000, 52.000000)">
                <path d="M9.2,10.5 L2.2,10.5 C1.3,10.5 0.6,9.8 0.6,8.9 L0.6,1.9 C0.6,1 1.3,0.3 2.2,0.3 L9.2,0.3 C10.1,0.3 10.8,1 10.8,1.9 L10.8,8.9 C10.9,9.8 10.1,10.5 9.2,10.5 Z" id="Shape" class="fill-primary-300" fill-rule="nonzero"></path>
                <path d="M15.3,2.6 L26.9,2.6" id="Shape" class="stroke-primary-300" stroke-width="3" stroke-linecap="round" stroke-linejoin="round"></path>
                <path d="M15.3,8.1 L20.9,8.1" id="Shape" class="stroke-primary-300" stroke-width="3" stroke-linecap="round" stroke-linejoin="round"></path>
            </g>
            <g id="Group" transform="translate(104.000000, 68.000000)">
                <path d="M9.2,10.4 L2.2,10.4 C1.3,10.4 0.6,9.7 0.6,8.8 L0.6,1.8 C0.6,0.9 1.3,0.2 2.2,0.2 L9.2,0.2 C10.1,0.2 10.8,0.9 10.8,1.8 L10.8,8.8 C10.9,9.7 10.1,10.4 9.2,10.4 Z" id="Shape" class="fill-primary-300" fill-rule="nonzero"></path>
                <path d="M15.3,2.5 L26.9,2.5" id="Shape" class="stroke-primary-300" stroke-width="3" stroke-linecap="round" stroke-linejoin="round"></path>
                <path d="M15.3,8 L20.9,8" id="Shape" class="stroke-primary-300" stroke-width="3" stroke-linecap="round" stroke-linejoin="round"></path>
            </g>
            <path d="M129.1,101.7 L125.5,105.3 C125.1,105.7 124.3,105.7 123.9,105.3 C123.5,104.9 123.5,104.1 123.9,103.7 L125.6,102 L110.6,102 C110,102 109.5,101.5 109.5,100.9 C109.5,100.3 110,99.8 110.6,99.8 L125.6,99.8 L123.9,98.1 C123.5,97.7 123.5,96.9 123.9,96.5 C124.1,96.3 124.4,96.2 124.7,96.2 C125,96.2 125.3,96.3 125.5,96.5 L129.1,100.1 C129.3,100.3 129.4,100.6 129.4,100.9 C129.4,101.2 129.3,101.5 129.1,101.7 Z" id="Shape" class="fill-neutral" fill-rule="nonzero"></path>
        </g>
    </g>
</svg>