<?xml version="1.0" encoding="UTF-8"?>
<svg width="150px" height="144px" viewBox="0 0 150 144" version="1.1" xmlns="http://www.w3.org/2000/svg" xmlns:xlink="http://www.w3.org/1999/xlink">
    <!-- Generator: Sketch 51.2 (57519) - http://www.bohemiancoding.com/sketch -->
    <title>Open</title>
    <desc>Created with Sketch.</desc>
    <defs></defs>
    <g id="Page-1" stroke="none" stroke-width="1" fill="none" fill-rule="evenodd">
        <g id="Open" transform="translate(2.000000, 2.000000)">
            <path d="M139,110.6 L23.7,139.4 C18.7,140.6 13.7,137.6 12.4,132.6 L0.6,85.4 C-0.6,80.4 2.4,75.4 7.4,74.1 L122.7,45.3 C127.7,44.1 132.7,47.1 134,52.1 L145.8,99.3 C147.1,104.3 144,109.4 139,110.6 Z" id="Shape" class="fill-neutral" fill-rule="nonzero"></path>
            <path d="M139.6,110.5 L27.6,138.5 C22.9,139.7 18.2,136.8 17,132.1 L6.3,89.5 C5.1,84.8 8,80.1 12.7,78.9 L124.7,50.9 C129.4,49.7 134.1,52.6 135.3,57.3 L146,99.9 C147.1,104.6 144.3,109.3 139.6,110.5 Z" id="Shape" class="fill-primary-200" fill-rule="nonzero"></path>
            <path d="M106.8,118.7 L23.8,139.4 C18.8,140.6 13.8,137.6 12.5,132.6 L0.7,85.4 C-0.5,80.4 2.5,75.4 7.5,74.1 L25.5,69.6" id="Shape" class="stroke-primary" stroke-width="3" stroke-linecap="round" stroke-linejoin="round"></path>
            <path d="M117.3,116.1 L116.3,116.3" id="Shape" class="stroke-primary" stroke-width="3" stroke-linecap="round" stroke-linejoin="round"></path>
            <path d="M35.5,67.2 L122.8,45.4 C127.8,44.2 132.8,47.2 134.1,52.2 L145.9,99.4 C147.1,104.4 144.1,109.4 139.1,110.7 L126.2,113.9" id="Shape" class="stroke-primary" stroke-width="3" stroke-linecap="round" stroke-linejoin="round"></path>
            <path d="M19.3,71.3 L47.3,15.7 C45.7,14.6 44.5,12.9 43.9,10.8 C42.8,6.3 45.5,1.7 50,0.6 C54.5,-0.5 59.1,2.2 60.2,6.7 C60.7,8.6 60.5,10.6 59.7,12.2 L110.9,48.3" id="Shape" class="stroke-primary" stroke-width="3" stroke-linecap="round" stroke-linejoin="round"></path>
            <g id="Group" transform="translate(27.000000, 71.000000)" class="fill-neutral" fill-rule="nonzero">
                <path d="M15.5,42.8 C8.6,44.5 2,40.5 0.5,34.3 C-1.1,28.1 2.9,21.5 9.8,19.7 C16.7,17.9 23.3,22 24.8,28.2 C26.4,34.4 22.4,41.1 15.5,42.8 Z M14.2,37.5 C17.6,36.6 19.6,33.3 18.7,29.8 C17.8,26.2 14.5,24.2 11.1,25.1 C7.7,26 5.7,29.3 6.6,32.8 C7.5,36.4 10.8,38.3 14.2,37.5 Z" id="Shape"></path>
                <path d="M35.6,13.9 C40.4,12.7 44.5,15.1 45.6,19.5 C46.7,23.9 44.2,27.9 39.4,29.2 L35.5,30.2 L37.1,36.7 L31.2,38.2 L25.8,16.4 L35.6,13.9 Z M33.1,20.2 L34.3,24.9 L37.9,24 C39.3,23.6 40.1,22.3 39.8,21 C39.5,19.8 38.1,18.9 36.7,19.3 L33.1,20.2 Z" id="Shape"></path>
                <polygon id="Shape" points="68.8 23.5 70 28.5 52.9 32.8 47.5 11 64.3 6.8 65.5 11.8 54.6 14.5 55.5 17.9 63.9 15.8 65.1 20.5 56.7 22.6 57.6 26.3"></polygon>
                <polygon id="Shape" points="88.7 0.6 94.1 22.4 89 23.7 76.6 13.9 79.6 26 73.7 27.5 68.3 5.7 73.4 4.4 85.8 14.2 82.8 2.1"></polygon>
            </g>
            <g id="Group" transform="translate(24.000000, 68.000000)" class="fill-primary" fill-rule="nonzero">
                <path d="M16,22.3 C21.6,22.3 26.5,25.9 27.8,31.2 C29.4,37.4 25.4,44 18.5,45.8 C17.4,46.1 16.3,46.2 15.3,46.2 C9.7,46.2 4.8,42.6 3.5,37.3 C1.9,31.1 5.9,24.5 12.8,22.7 C13.9,22.5 14.9,22.3 16,22.3 Z M15.6,40.7 C16.1,40.7 16.7,40.6 17.2,40.5 C20.6,39.6 22.6,36.3 21.7,32.8 C20.9,29.8 18.5,27.9 15.7,27.9 C15.2,27.9 14.6,28 14.1,28.1 C10.7,29 8.7,32.3 9.6,35.8 C10.3,38.8 12.8,40.7 15.6,40.7 Z M16,19.3 C14.7,19.3 13.4,19.5 12.1,19.8 C8.1,20.8 4.7,23.3 2.5,26.7 C0.3,30.1 -0.3,34.1 0.7,38 C2.3,44.6 8.4,49.2 15.4,49.2 C16.7,49.2 18,49 19.3,48.7 C27.6,46.6 32.7,38.5 30.7,30.5 C29.1,23.9 23,19.3 16,19.3 Z M15.6,37.7 C14.1,37.7 12.9,36.7 12.5,35.1 C12.3,34.1 12.4,33.2 12.8,32.5 C13.2,31.8 13.9,31.3 14.8,31 C15.1,30.9 15.4,30.9 15.7,30.9 C17.2,30.9 18.4,31.9 18.8,33.5 C19.3,35.5 18.3,37.1 16.5,37.6 C16.2,37.6 15.9,37.7 15.6,37.7 Z" id="Shape"></path>
                <path d="M41,16.6 C44.7,16.6 47.7,18.9 48.6,22.5 C49.7,26.9 47.2,30.9 42.4,32.2 L38.5,33.2 L40.1,39.7 L34.2,41.2 L28.8,19.4 L38.6,16.9 C39.5,16.7 40.3,16.6 41,16.6 Z M37.2,27.9 L40.8,27 C42.2,26.6 43,25.3 42.7,24 C42.4,23 41.4,22.2 40.3,22.2 C40.1,22.2 39.9,22.2 39.6,22.3 L36,23.2 L37.2,27.9 Z M41,13.6 C41,13.6 41,13.6 41,13.6 C40,13.6 38.9,13.7 37.9,14 L28.1,16.5 C26.5,16.9 25.5,18.5 25.9,20.1 L31.3,41.9 C31.6,43.3 32.9,44.2 34.2,44.2 C34.4,44.2 34.7,44.2 34.9,44.1 L40.8,42.6 C41.6,42.4 42.2,41.9 42.6,41.2 C43,40.5 43.1,39.7 42.9,38.9 L42,35.3 L43,35.1 C49.4,33.5 52.9,27.9 51.4,21.8 C50.3,16.8 46.2,13.6 41,13.6 Z" id="Shape"></path>
                <path d="M67.3,9.8 L68.5,14.8 L57.6,17.5 L58.5,20.9 L66.9,18.8 L68.1,23.5 L59.7,25.6 L60.6,29.3 L71.8,26.5 L73,31.5 L55.9,35.8 L50.5,14 L67.3,9.8 Z M67.3,6.8 C67.1,6.8 66.8,6.8 66.6,6.9 L49.8,11.1 C48.2,11.5 47.2,13.1 47.6,14.7 L53,36.5 C53.3,37.9 54.6,38.8 55.9,38.8 C56.1,38.8 56.4,38.8 56.6,38.7 L73.7,34.4 C74.5,34.2 75.1,33.7 75.5,33 C75.9,32.3 76,31.5 75.8,30.7 L74.6,25.7 C74.4,24.9 73.9,24.3 73.2,23.9 C72.7,23.6 72.2,23.5 71.7,23.5 C71.5,23.5 71.2,23.5 71,23.6 C71,23.3 71,23 70.9,22.7 L69.7,18 C69.7,17.8 69.6,17.6 69.5,17.5 C70.9,17 71.7,15.5 71.3,14 L70.1,9 C69.9,8.2 69.4,7.6 68.7,7.2 C68.4,6.9 67.8,6.8 67.3,6.8 Z" id="Shape"></path>
                <path d="M91.7,3.6 L97.1,25.4 L92,26.7 L79.6,16.9 L82.6,29 L76.7,30.5 L71.3,8.7 L76.4,7.4 L88.8,17.2 L85.8,5.1 L91.7,3.6 Z M91.7,0.6 C91.5,0.6 91.2,0.6 91,0.7 L85.1,2.2 C83.5,2.6 82.5,4.2 82.9,5.8 L83.8,9.4 L78.3,5.1 C77.8,4.7 77.1,4.5 76.4,4.5 C76.2,4.5 75.9,4.5 75.7,4.6 L70.6,5.9 C69.8,6.1 69.2,6.6 68.8,7.3 C68.4,8 68.3,8.8 68.5,9.6 L73.9,31.4 C74.2,32.8 75.5,33.7 76.8,33.7 C77,33.7 77.3,33.7 77.5,33.6 L83.4,32.1 C84.2,31.9 84.8,31.4 85.2,30.7 C85.6,30 85.7,29.2 85.5,28.4 L84.6,24.8 L90.1,29.1 C90.6,29.5 91.3,29.7 92,29.7 C92.2,29.7 92.5,29.7 92.7,29.6 L97.8,28.3 C98.6,28.1 99.2,27.6 99.6,26.9 C100,26.2 100.1,25.4 99.9,24.6 L94.5,2.8 C94.3,2 93.8,1.4 93.1,1 C92.8,0.8 92.3,0.6 91.7,0.6 Z" id="Shape"></path>
            </g>
            <circle id="Oval" class="fill-primary" fill-rule="nonzero" transform="translate(51.595230, 8.184930) rotate(-14.034854) translate(-51.595230, -8.184930) " cx="51.59523" cy="8.18493" r="2.99985039"></circle>
        </g>
    </g>
</svg>