<?xml version="1.0" encoding="UTF-8"?>
<svg width="143px" height="149px" viewBox="0 0 143 149" version="1.1" xmlns="http://www.w3.org/2000/svg" xmlns:xlink="http://www.w3.org/1999/xlink">
    <!-- Generator: Sketch 51.2 (57519) - http://www.bohemiancoding.com/sketch -->
    <title>Open_gift</title>
    <desc>Created with Sketch.</desc>
    <defs></defs>
    <g id="Page-1" stroke="none" stroke-width="1" fill="none" fill-rule="evenodd">
        <g id="Open_gift" transform="translate(2.000000, 1.000000)">
            <g id="Group">
                <path d="M31.3,73.8 L123.9,73.8 L123.9,139.3 C123.9,143 120.9,146.1 117.1,146.1 L33.7,146.1 C30,146.1 26.9,143.1 26.9,139.3 L26.9,77.8" id="Shape" class="fill-neutral" fill-rule="nonzero"></path>
                <path d="M79.5,2 L88,10.5 C89.7,12.2 89.7,15 88,16.7 L16.2,88.5 C14.5,90.2 11.7,90.2 10,88.5 L1.5,80 C-0.2,78.3 -0.2,75.5 1.5,73.8 L73.3,2 C75,0.3 77.8,0.3 79.5,2 Z" id="Shape" class="fill-neutral" fill-rule="nonzero"></path>
                <path d="M31.3,78.2 L123.9,78.2 L123.9,139.7 C123.9,143.2 120.9,146.1 117.1,146.1 L33.7,146.1 C30,146.1 26.9,143.3 26.9,139.7 L26.9,82" id="Shape" class="fill-primary-300" fill-rule="nonzero"></path>
                <path d="M78.9,6.6 L85.9,13.6 C87.3,15 87.1,17.5 85.5,19.2 L16.1,88.6 C14.4,90.3 12,90.4 10.5,89 L3.5,82 C2.1,80.6 2.3,78.1 3.9,76.4 L73.3,7 C75,5.3 77.5,5.1 78.9,6.6 Z" id="Shape" class="fill-primary-300" fill-rule="nonzero"></path>
                <path d="M110.6,73.8 L123.9,73.8 L123.9,139.3 C123.9,143 120.9,146.1 117.1,146.1 L33.7,146.1 C30,146.1 26.9,143.1 26.9,139.3 L26.9,77.8" id="Shape" class="stroke-primary" stroke-width="3" stroke-linecap="round" stroke-linejoin="round"></path>
                <path d="M104.8,73.8 L106,73.8" id="Shape" class="stroke-primary" stroke-width="3" stroke-linecap="round" stroke-linejoin="round"></path>
                <path d="M31.3,73.8 L95,73.8" id="Shape" class="stroke-primary" stroke-width="3" stroke-linecap="round" stroke-linejoin="round"></path>
                <rect id="Rectangle-path" class="fill-neutral" fill-rule="nonzero" x="67" y="73.8" width="16.4" height="72.3"></rect>
                <polyline id="Shape" class="stroke-primary" stroke-width="3" stroke-linecap="round" stroke-linejoin="round" points="67 96.5 67 73.8 83.4 73.8 83.4 146.1 67 146.1 67 140.1"></polyline>
                <path d="M67,133.3 L67,108" id="Shape" class="stroke-primary" stroke-width="3" stroke-linecap="round" stroke-linejoin="round"></path>
                <path d="M66.4,8.9 L73.3,2 C75,0.3 77.8,0.3 79.5,2 L88,10.5 C89.7,12.2 89.7,15 88,16.7 L16.2,88.5 C14.5,90.2 11.7,90.2 10,88.5 L1.5,80 C-0.2,78.3 -0.2,75.5 1.5,73.8 L56.2,19.1" id="Shape" class="stroke-primary" stroke-width="3" stroke-linecap="round" stroke-linejoin="round"></path>
                <path d="M62.2,13.1 L62.8,12.5" id="Shape" class="stroke-primary" stroke-width="3" stroke-linecap="round" stroke-linejoin="round"></path>
                <polygon id="Shape" class="fill-neutral" fill-rule="nonzero" points="57.6 46.9 43 32.3 31.4 43.9 46.1 58.5"></polygon>
                <polygon id="Shape" class="stroke-primary" stroke-width="3" stroke-linecap="round" stroke-linejoin="round" points="57.6 46.9 43 32.3 31.4 43.9 46.1 58.5"></polygon>
                <path d="M35.9,39.4 L27.2,48.1 C21,54.3 11,54.3 4.9,48.1 C-1.3,41.9 -1.3,31.9 4.9,25.8 C11.1,19.6 21.1,19.6 27.2,25.8 L35.9,34.5 C37.3,35.8 37.3,38 35.9,39.4 Z M9.9,30.7 C6.5,34.1 6.5,39.7 9.9,43.1 C13.3,46.5 18.9,46.5 22.3,43.1 L28.5,36.9 L22.3,30.7 C18.9,27.3 13.3,27.3 9.9,30.7 Z" id="Shape" class="stroke-primary" stroke-width="3" stroke-linecap="round" stroke-linejoin="round"></path>
                <path d="M48.1,27.3 L40.8,34.6 C39.4,36 37.2,36 35.8,34.6 L28.5,27.3 C23.1,21.9 23.1,13.2 28.5,7.8 C33.9,2.4 42.6,2.4 48,7.8 C53.4,13.2 53.4,21.9 48.1,27.3 Z M38.3,27.1 L43.1,22.3 C45.7,19.7 45.7,15.4 43.1,12.7 C40.5,10.1 36.2,10.1 33.5,12.7 C30.9,15.3 30.9,19.6 33.5,22.3 L33.9,22.7 L38.3,27.1 Z" id="Shape" class="stroke-primary" stroke-width="3" stroke-linecap="round" stroke-linejoin="round"></path>
            </g>
            <path d="M126.7,31.5 C124.1,31.5 122,29.4 122,26.8 C122,24.2 124.1,22.1 126.7,22.1 C129.3,22.1 131.4,24.2 131.4,26.8 C131.4,29.4 129.3,31.5 126.7,31.5 Z M126.7,26.2 C126.4,26.2 126.1,26.4 126.1,26.8 C126.1,27.1 126.3,27.4 126.7,27.4 C127,27.4 127.3,27.2 127.3,26.8 C127.2,26.5 127,26.2 126.7,26.2 Z" id="Shape" class="stroke-primary" stroke-width="3" stroke-linecap="round" stroke-linejoin="round"></path>
            <path d="M106.7,47.6 C104.1,47.6 102,45.5 102,42.9 C102,40.3 104.1,38.2 106.7,38.2 C109.3,38.2 111.4,40.3 111.4,42.9 C111.4,45.5 109.3,47.6 106.7,47.6 Z M106.7,42.3 C106.4,42.3 106.1,42.5 106.1,42.9 C106.1,43.2 106.3,43.5 106.7,43.5 C107,43.5 107.3,43.3 107.3,42.9 C107.3,42.6 107,42.3 106.7,42.3 Z" id="Shape" class="stroke-primary" stroke-width="3" stroke-linecap="round" stroke-linejoin="round"></path>
            <path d="M102.3,22.1 C102.3,22.1 102.2,22.1 102.2,22.1 C101.1,22 100.2,21.1 100.3,19.9 C100.4,18.7 100.9,17.7 101.8,16.9 C102.7,16.1 104,15.8 105.4,15.9 L106.2,16 C106.5,16 106.6,16 106.6,15.9 C106.6,15.9 106.6,15.7 106.5,15.5 L106.2,14.8 C105.5,13.2 105.7,11.5 106.6,10.3 C107.5,9.1 109.1,8.4 110.8,8.6 L111.6,8.7 C111.9,8.7 112,8.7 112,8.6 C112,8.6 112,8.4 111.9,8.2 L111.6,7.5 C110.9,5.9 111.1,4.2 112,2.9 C112.9,1.6 114.5,1 116.2,1.2 C117.3,1.3 118.2,2.3 118,3.5 C117.9,4.6 116.9,5.5 115.7,5.3 C115.4,5.3 115.3,5.3 115.3,5.4 C115.3,5.4 115.3,5.6 115.4,5.8 L115.7,6.5 C116.4,8.1 116.2,9.8 115.3,11.1 C114.4,12.4 112.8,13 111.1,12.8 L110.3,12.7 C110,12.7 109.9,12.7 109.9,12.8 C109.9,12.8 109.9,13 110,13.2 L110.3,13.9 C111,15.5 110.8,17.2 109.9,18.4 C109,19.7 107.4,20.3 105.7,20.1 L104.9,20 C104.6,20 104.5,20 104.5,20.1 C104.3,21.3 103.3,22.1 102.3,22.1 Z" id="Shape" class="stroke-primary" stroke-width="3" stroke-linecap="round" stroke-linejoin="round"></path>
            <path d="M78.7,67.7 C77.6,67.7 76.7,66.9 76.6,65.8 C76.5,64.7 77.4,63.7 78.5,63.6 C78.7,63.6 78.8,63.5 78.8,63.5 C78.8,63.5 78.8,63.4 78.6,63.2 L78.2,62.6 C77.3,61.2 77.1,59.6 77.8,58.2 C78.5,56.8 79.9,56 81.6,55.8 L82.4,55.7 C82.6,55.7 82.7,55.6 82.7,55.6 C82.7,55.6 82.7,55.5 82.5,55.3 L82.1,54.7 C81.2,53.3 81,51.7 81.7,50.3 C82.4,48.9 83.8,48.1 85.5,47.9 L86.3,47.9 C86.5,47.9 86.6,47.8 86.6,47.8 C86.5,46.7 87.3,45.7 88.4,45.5 C89.5,45.4 90.5,46.2 90.7,47.3 C90.8,48.4 90.5,49.5 89.8,50.4 C89,51.3 87.9,51.9 86.6,52 L85.8,52 C85.6,52 85.5,52.1 85.5,52.1 C85.5,52.1 85.5,52.2 85.7,52.4 L86.1,53 C87,54.4 87.2,56 86.5,57.4 C85.8,58.8 84.4,59.6 82.7,59.8 L81.9,59.8 C81.7,59.8 81.6,59.9 81.6,59.9 C81.6,59.9 81.6,60 81.8,60.2 L82.2,60.8 C83.1,62.2 83.3,63.8 82.6,65.2 C81.9,66.6 80.5,67.4 78.8,67.6 C78.8,67.7 78.8,67.7 78.7,67.7 Z" id="Shape" class="stroke-primary" stroke-width="3" stroke-linecap="round" stroke-linejoin="round"></path>
            <path d="M120.6,62.3 C119.8,62.3 119,62.1 118.2,61.6 C117.2,61 116.9,59.8 117.4,58.8 C118,57.8 119.2,57.5 120.2,58 C120.4,58.1 120.5,58.1 120.5,58.1 C120.5,58.1 120.5,58 120.5,57.8 L120.5,57 C120.5,55.3 121.3,53.9 122.6,53.1 C123.9,52.3 125.6,52.4 127,53.2 L127.7,53.6 C127.9,53.7 128,53.7 128,53.7 C128,53.7 128,53.6 128,53.4 L128,52.6 C128,50.9 128.8,49.5 130.1,48.7 C131.4,47.9 133.1,48 134.5,48.8 L135.2,49.2 C135.4,49.3 135.5,49.3 135.5,49.3 C136,48.3 137.2,47.9 138.3,48.4 C139.3,48.9 139.7,50.2 139.2,51.2 C138.7,52.2 137.8,53 136.7,53.3 C135.5,53.6 134.3,53.5 133.1,52.8 L132.4,52.4 C132.2,52.3 132.1,52.3 132.1,52.3 C132.1,52.3 132.1,52.4 132.1,52.6 L132.1,53.4 C132.1,55.1 131.3,56.5 130,57.3 C128.7,58.1 127,58 125.6,57.2 L124.9,56.8 C124.7,56.7 124.6,56.7 124.6,56.7 C124.6,56.7 124.6,56.8 124.6,57 L124.6,57.8 C124.6,59.5 123.8,60.9 122.5,61.7 C122,62.1 121.3,62.3 120.6,62.3 Z" id="Shape" class="stroke-primary" stroke-width="3" stroke-linecap="round" stroke-linejoin="round"></path>
        </g>
    </g>
</svg>