<?xml version="1.0" encoding="UTF-8"?>
<svg width="148px" height="148px" viewBox="0 0 148 148" version="1.1" xmlns="http://www.w3.org/2000/svg" xmlns:xlink="http://www.w3.org/1999/xlink">
    <!-- Generator: Sketch 51.2 (57519) - http://www.bohemiancoding.com/sketch -->
    <title>Open_24-7_2</title>
    <desc>Created with Sketch.</desc>
    <defs></defs>
    <g id="Page-1" stroke="none" stroke-width="1" fill="none" fill-rule="evenodd">
        <g id="Open_24-7_2" transform="translate(2.000000, 2.000000)">
            <g id="Group">
                <path d="M142.9,64.9 C134.2,-19.9 6.8,-20.1 1.1,64.2 C-1.8,87.9 8,109.3 22.8,123.7 C22.8,123.7 22.9,123.8 22.9,123.8 C23,123.9 26.5,127.1 26.7,127.1 C27.9,128.1 29.4,129.3 30.7,130.2 C30.7,130.2 30.7,130.2 30.8,130.2 C44.2,139.7 60.6,144.7 78.7,143.1 C81.9,142.8 84.1,139.9 83.5,136.8 L82.6,131.8 C82.1,129.1 79.6,127.2 76.9,127.5 C73.6,127.8 70,127.7 69.4,127.6 C69.4,127.6 69.3,127.6 69.3,127.6 C50.3,127.1 29.8,114.5 21.2,94.2 C21.2,94.2 21.2,94.1 21.1,94.1 C20.8,93.5 19.6,90.2 19.3,89.3 C6.6,50.7 38.9,12.4 77.8,16.8 C77.8,16.8 77.9,16.8 77.9,16.8 C87.8,17.7 96.3,22 96.3,22 C107.6,27.6 116,36.3 120.5,44.7 C121.8,46 132.7,66.2 124.9,89.5 C137.9,93.7 134.8,92.7 139.9,94.3 C142.9,84.5 143.7,75.2 142.9,64.9 Z" id="Shape" class="fill-neutral" fill-rule="nonzero"></path>
                <path d="M64.2,1.2 C64.1,1.2 64.1,1.2 64,1.2 C28.5,5.1 2.3,34.5 0.7,68.3 C0.7,68.3 -2.5,94.2 19.3,120.3 C19.6,120.7 26,127.2 26.5,127.2 C27.7,128.2 29.2,129.4 30.5,130.3 C30.5,130.3 30.5,130.3 30.6,130.3 C44.2,139.9 59.8,144.2 75.5,143.4 C81.1,143.1 84.5,137.2 82.2,132.3 C79.3,126 72.8,128.2 69.1,127.7 C69.1,127.7 69,127.7 69,127.7 C57.6,127.4 43.4,122 33.8,112.6 C33.6,112.4 31,109.9 30.9,109.6 C30,109.1 23.9,101.2 20.9,94.3 C4.3,61.2 31,14.9 73.8,16.7 C74,16.7 77.5,16.9 77.6,17 C95.8,18.6 112.5,30.7 120.2,44.9 C121.9,46.6 130.4,63.8 126.4,83.1 C125.6,87 128,90.8 131.7,92 C136.2,93.4 140.9,90.7 141.8,86 C151.7,35.7 108.3,-4 64.2,1.2 Z" id="Shape" fill="#BAD8FF" fill-rule="nonzero"></path>
                <path d="M64.2,1.2 C64.1,1.2 64.1,1.2 64,1.2 C28.5,5.1 2.3,34.5 0.7,68.3 C0.7,68.3 0.2,90.8 19.3,113.7 C19.6,114.1 26,120.6 26.5,120.6 C27.7,121.6 29.2,122.8 30.5,123.7 C30.5,123.7 30.5,123.7 30.6,123.7 C44.2,133.3 59.8,137.6 75.5,136.8 C78.5,136.7 81,134.8 82.2,132.2 C79.3,125.9 72.8,128.1 69.1,127.6 C69.1,127.6 69,127.6 69,127.6 C57.6,127.3 43.4,121.9 33.8,112.5 C33.6,112.3 31,109.8 30.9,109.5 C30,109 23.9,101.1 20.9,94.2 C17,86.4 15.5,77.9 16,69.4 C14.1,39.9 38.4,8.6 73.8,10 C74,10 77.5,10.2 77.6,10.3 C95.8,11.9 112.5,24 120.2,38.2 C121.5,39.5 130.4,56.1 126.4,76.4 C126.1,77.9 126.3,79.4 126.8,80.7 C129.7,88 140.4,87.1 141.9,79.4 C150,38 109.8,-4.2 64.2,1.2 Z" id="Shape" class="fill-primary-100" fill-rule="nonzero"></path>
                <path d="M21.3,21.9 C20.7,22.5 20.2,23.1 19.6,23.6 M123.3,50.8 C126,57.6 129,69.5 126.4,82.9 C125.6,86.8 128,90.6 131.7,91.8 C136.2,93.2 140.9,90.5 141.9,85.8 C154,24.1 86,-21.1 34.1,11.5 M10.9,35.1 C-3.8,59.2 -4.2,92.1 19.3,120.2 C19.5,120.4 22.6,123.6 22.8,123.7 C22.9,123.8 26.4,127 26.6,127 C27.8,128 29.3,129.2 30.6,130.1 C30.6,130.1 30.6,130.1 30.7,130.1 C44.3,139.7 59.9,144 75.6,143.2 C80.3,143 83.8,138.5 82.9,133.9 C82.2,130 78.7,127.3 74.8,127.5 C72.2,127.6 69.8,127.6 69.3,127.5 C69.3,127.5 69.2,127.5 69.2,127.5 C57.8,127.2 43.6,121.8 34,112.4 C33.8,112.2 31.2,109.7 31.1,109.4 C30.2,108.9 24.1,101 21.1,94.1 C21.1,94.1 21.1,94 21,94 C4.5,61 31.2,14.7 74,16.5 C74.2,16.5 77.7,16.7 77.8,16.8 C87.8,17.7 96.2,22 96.2,22 C102.9,25.3 108.7,29.8 113.2,34.7" id="Shape" class="stroke-primary" stroke-width="3.6426" stroke-linecap="round" stroke-linejoin="round"></path>
                <circle id="Oval" class="fill-neutral" fill-rule="nonzero" cx="71.7" cy="73.6" r="10.8"></circle>
                <circle id="Oval" fill="#80B8FF" fill-rule="nonzero" cx="74.7" cy="76.6" r="7.9"></circle>
                <circle id="Oval" class="stroke-primary" stroke-width="3.6426" stroke-linecap="round" stroke-linejoin="round" cx="71.7" cy="73.6" r="10.8"></circle>
                <path d="M78.6,65.2 L88.8,52.3" id="Shape" class="stroke-primary" stroke-width="3.6426" stroke-linecap="round" stroke-linejoin="round"></path>
                <path d="M70.9,28 L70.9,32.7" id="Shape" class="stroke-primary" stroke-width="3.6426" stroke-linecap="round" stroke-linejoin="round"></path>
                <path d="M70.9,112.8 L70.9,117.5" id="Shape" class="stroke-primary" stroke-width="3.6426" stroke-linecap="round" stroke-linejoin="round"></path>
                <path d="M26.2,72.8 L30.9,72.8" id="Shape" class="stroke-primary" stroke-width="3.6426" stroke-linecap="round" stroke-linejoin="round"></path>
                <path d="M110.9,72.8 L115.6,72.8" id="Shape" class="stroke-primary" stroke-width="3.6426" stroke-linecap="round" stroke-linejoin="round"></path>
            </g>
            <path d="M63.8,66.2 L37.5,44.3" id="Shape" class="stroke-primary" stroke-width="3.6426" stroke-linecap="round" stroke-linejoin="round"></path>
            <g id="Group" transform="translate(87.000000, 98.000000)" fill-rule="nonzero">
                <g id="Shape">
                    <path d="M7.5,34.1 C4.6,34.1 2.5,32.2 2.5,29.5 C2.5,26.8 3.6,26 8.7,21.8 C9.8,20.9 11.1,19.9 12.6,18.6 C15.9,15.9 16.8,14.7 16.8,13.2 C16.8,12 16.1,11.2 14.9,11.2 C14.3,11.2 13,11.4 11.4,13.1 C10.6,14 9.4,14.5 8.1,14.5 C6.3,14.5 4.8,13.5 4,11.9 C3.2,10.3 3.5,8.4 4.7,7 C7.5,3.7 10.7,2.3 15.1,2.3 C21.9,2.3 26.4,6.4 26.4,12.6 C26.4,18.2 23.5,20.9 17.8,25.3 L22.5,25.3 C25.3,25.3 26.8,27.6 26.8,29.7 C26.8,30.8 26.4,31.9 25.7,32.6 C24.9,33.5 23.7,34 22.4,34 L7.5,34 L7.5,34.1 Z" fill="#BAD8FF"></path>
                    <path d="M15.2,4 C21,4 24.8,7.4 24.8,12.6 C24.8,18.5 21.3,20.5 12.9,27 L22.6,27 C26.1,27 26.2,32.3 22.6,32.3 L7.4,32.3 C5.5,32.3 4.1,31.2 4.1,29.4 C4.1,27.1 5.1,26.8 13.6,19.8 C17.1,17 18.4,15.4 18.4,13.1 C18.4,10.9 16.9,9.5 14.8,9.5 C13.4,9.5 11.7,10.2 10.1,12 C9.7,12.4 9,12.9 8,12.9 C5.6,12.9 4.3,10.1 5.9,8.2 C8.3,5.5 10.9,4 15.2,4 Z M15.2,0.6 C10.3,0.6 6.6,2.3 3.5,5.9 C1.9,7.8 1.5,10.4 2.5,12.6 C3.5,14.8 5.7,16.2 8.1,16.2 C9.9,16.2 11.5,15.5 12.7,14.2 C13.6,13.2 14.4,12.9 14.9,12.9 C15,12.9 15,12.9 15.1,12.9 C15.1,12.9 15.1,13 15.1,13.1 C15.1,13.8 14.8,14.5 11.5,17.2 C10,18.5 8.7,19.5 7.6,20.4 C2.3,24.7 0.7,25.9 0.7,29.4 C0.7,33.1 3.5,35.7 7.4,35.7 L22.6,35.7 C26,35.7 28.6,33.1 28.6,29.7 C28.6,28.2 28.1,26.7 27.1,25.6 C26,24.3 24.4,23.6 22.6,23.6 C26.2,20.4 28.1,17.5 28.1,12.6 C28.2,5.6 22.8,0.6 15.2,0.6 Z" class="fill-primary"></path>
                </g>
                <g transform="translate(23.000000, 0.000000)" id="Shape">
                    <path d="M21.2,34.3 C18.6,34.3 16.6,32.3 16.6,29.7 L16.6,28 L6.8,28 C4.9,28 3.3,27 2.5,25.4 C1.6,23.5 2.1,21.2 3.9,19.1 C6.6,15.9 8.8,13.4 10.5,11.3 C17.9,2.6 18.1,2.3 21.1,2.3 C23.7,2.3 25.7,4.4 25.7,6.9 L25.7,19.7 C28.3,19.8 29.7,21.9 29.7,23.9 C29.7,25 29.3,26 28.6,26.7 C27.9,27.5 26.8,28 25.7,28 L25.7,29.7 C25.8,32.2 23.7,34.3 21.2,34.3 Z M16.6,19.7 L16.6,17.3 L14.5,19.7 L16.6,19.7 Z" fill="#BAD8FF"></path>
                    <path d="M21.2,4 C22.8,4 24.2,5.3 24.2,6.9 L24.2,21.3 L25.7,21.3 C29,21.3 29.1,26.3 25.7,26.3 L24.2,26.3 L24.2,29.7 C24.2,31.3 22.9,32.6 21.2,32.6 C19.6,32.6 18.3,31.3 18.3,29.7 L18.3,26.3 L6.8,26.3 C4.3,26.3 2.4,23.5 5.2,20.1 C18.9,4.2 18.4,4 21.2,4 Z M10.8,21.3 L18.2,21.3 L18.2,12.6 L10.8,21.3 Z M21.2,0.6 C17.5,0.6 16.8,1.3 9.3,10.2 C7.6,12.2 5.4,14.8 2.7,17.9 C-0.5,21.6 0.5,24.9 1,26.1 C2,28.3 4.3,29.7 6.8,29.7 L14.9,29.7 C14.9,33.2 17.7,36 21.2,36 C24.7,36 27.5,33.2 27.5,29.7 L27.5,29.4 C29.9,28.6 31.5,26.5 31.5,23.8 C31.5,21.1 29.9,19 27.5,18.2 L27.5,6.8 C27.5,3.4 24.7,0.6 21.2,0.6 Z" class="fill-primary"></path>
                </g>
            </g>
        </g>
    </g>
</svg>