<?xml version="1.0" encoding="UTF-8"?>
<svg width="146px" height="148px" viewBox="0 0 146 148" version="1.1" xmlns="http://www.w3.org/2000/svg" xmlns:xlink="http://www.w3.org/1999/xlink">
    <!-- Generator: Sketch 51.2 (57519) - http://www.bohemiancoding.com/sketch -->
    <title>Open_24-7</title>
    <desc>Created with Sketch.</desc>
    <defs></defs>
    <g id="Page-1" stroke="none" stroke-width="1" fill="none" fill-rule="evenodd">
        <g id="Open_24-7" transform="translate(1.000000, 1.000000)">
            <path d="M15,106 C12.6,102.6 10.3,99.1 8.2,95.3 C5.3,90.2 3.1,84.7 1.7,79 C-0.1,71.8 1.4,65.2 5.5,59.2 C6.9,57.1 8.6,55.1 10.2,53.1 C14.6,47.7 22.2,46.2 28,50.1 C32.7,53.2 37.2,56.7 41.4,60.4 C46.5,64.9 47.1,72.2 43.4,77.8 C42.3,79.5 40.9,81.1 39.7,82.7 C37,86.3 37.1,89.4 40.1,92.7 C47.4,100.7 56,107 65.5,112.1 C69,114 72.2,113.3 74.7,110.1 C76,108.5 77.2,106.8 78.5,105.3 C83,99.8 90.9,98.6 96.7,102.7 C100.9,105.7 105.1,108.8 109.1,112.1 C114.5,116.6 115.6,124 111.8,129.8 C108.4,134.9 104.8,140.1 99,142.8 C96.5,144 93.9,144.7 92.3,145.3 C84.4,145.8 77.8,145.1 71.2,143.4 C47.5,137.6 28.7,125.1 15,106" id="Shape" class="fill-neutral" fill-rule="nonzero"></path>
            <path d="M108.2,132.4 C105.9,135.8 103.6,139.2 100.5,141.9 C100.5,141.9 100.4,142 100.4,142 C100,142.4 99.5,142.7 99.1,143 C99.1,143 99.1,143 99.1,143 C98.6,143.2 98.2,143.4 97.7,143.6 C96.1,144.3 94.5,144.8 93.3,145.2 C93,145.3 92.8,145.4 92.6,145.5 C92.4,145.5 92.1,145.5 91.9,145.5 C86.7,145.8 82.1,145.5 77.7,144.8 C77.2,144.7 76.7,144.6 76.2,144.5 C76.1,144.5 76.1,144.5 76,144.5 C75.5,144.4 74.9,144.3 74.4,144.2 C73.5,144 72.6,143.8 71.8,143.6 C44.2,136.7 23.3,120.8 9.5,95.9 C9.1,95.1 8.7,94.4 8.3,93.6 C7.9,92.8 7.5,92 7.2,91.3 C6.9,90.7 6.6,90 6.4,89.4 C6.3,89.1 6.1,88.8 6,88.5 C5.7,87.9 5.5,87.3 5.3,86.7 C5.3,86.6 5.2,86.6 5.2,86.5 C5,85.8 4.8,85.2 4.7,84.5 C4.4,83.5 4.3,82.6 4.1,81.7 C3.9,80.5 3.9,79.3 3.9,78 C3.9,77.8 3.9,77.6 3.9,77.4 C3.9,77.1 3.9,76.9 4,76.6 C4,76.5 4,76.5 4,76.4 C4,76.2 4.1,75.9 4.1,75.7 C4.1,75.5 4.1,75.4 4.2,75.2 C4.2,75 4.3,74.8 4.3,74.5 C4.4,74.2 4.4,74 4.5,73.7 C4.6,73.2 4.8,72.7 4.9,72.2 C4.9,72 5,71.9 5.1,71.7 C5.2,71.5 5.2,71.3 5.3,71.1 C5.4,70.9 5.5,70.6 5.6,70.4 C5.7,70.1 5.9,69.8 6,69.5 C6.1,69.4 6.1,69.2 6.2,69.1 C6.3,68.9 6.4,68.6 6.6,68.4 C6.9,67.8 7.2,67.3 7.5,66.7 C7.7,66.3 8,65.9 8.2,65.6 C9.6,63.6 11.1,61.7 12.6,59.8 C16.8,54.7 23.9,53.3 29.4,57 C29.8,57.3 30.2,57.6 30.7,57.9 C34.9,60.9 39.9,65.1 43.2,68.1 C43.4,68.3 43.6,68.4 43.8,68.6 C44.8,69.9 45.5,71.4 45.9,73 C46,73.5 46.1,74.1 46.2,74.6 C45.8,75.9 45.2,77.2 44.4,78.5 C43.3,80.2 42,81.8 40.7,83.4 C40.6,83.5 40.5,83.7 40.4,83.8 C40.4,83.8 40.4,83.8 40.4,83.8 C39.9,84.5 39.5,85.2 39.2,85.9 C38.6,87.4 38.6,88.8 39.1,90.2 C39,90.5 38.9,90.7 38.8,91 C38.2,93.2 38.8,95.3 40.8,97.4 C47.7,105 55.8,110.9 64.8,115.7 C68.1,117.5 71.1,116.8 73.5,113.8 C74.7,112.3 75.9,110.7 77.1,109.2 C80.9,104.6 87.3,103.2 92.5,105.7 C92.8,105.8 93.1,106 93.3,106.2 C93.6,106.4 93.9,106.6 94.1,106.7 C98.1,109.5 102,112.5 105.8,115.6 C106,115.7 106.1,115.9 106.3,116 C106.4,116.1 106.5,116.2 106.6,116.3 C106.7,116.4 106.8,116.5 106.9,116.6 C107.6,117.4 108.3,118.2 108.8,119.1 C108.9,119.3 109,119.4 109.1,119.6 C109.2,119.7 109.3,119.9 109.3,120.1 C109.5,120.5 109.7,120.9 109.8,121.4 C109.8,121.5 109.9,121.6 109.9,121.7 C110,121.9 110,122 110,122.2 C110.1,122.5 110.1,122.7 110.2,123 L110.2,123.1 C110.3,123.4 110.3,123.6 110.3,123.9 C110.3,124.1 110.3,124.2 110.3,124.4 C110.3,124.6 110.3,124.7 110.3,124.9 C110.5,127.3 109.8,130 108.2,132.4 Z" id="Shape" class="fill-primary-400" fill-rule="nonzero"></path>
            <path d="M108.2,132.4 C106,135.8 103.8,139.4 100.5,141.9 C100.5,141.9 100.4,142 100.4,142 C99.5,142.6 98.6,143.2 97.7,143.6 C96.3,144.3 94.8,144.8 93.3,145.2 C92.8,145.3 92.4,145.4 91.9,145.5 C91,145.6 90.2,145.7 89.3,145.8 C85.5,145.9 81.5,145.5 77.7,144.9 C77.2,144.8 76.7,144.7 76.2,144.6 C76.1,144.6 76.1,144.6 76,144.6 C75.5,144.5 74.9,144.4 74.4,144.3 C73.5,144.1 72.6,143.9 71.8,143.7 C44.2,136.8 23.3,120.9 9.5,96 C9.1,95.2 8.7,94.5 8.3,93.7 C7.9,92.9 7.5,92.1 7.2,91.4 C6.9,90.8 6.6,90.1 6.4,89.5 C6.3,89.2 6.1,88.9 6,88.6 C5.7,88 5.5,87.4 5.3,86.8 C5.3,86.7 5.2,86.7 5.2,86.6 C5,85.9 4.8,85.3 4.7,84.6 C4.4,83.6 4.3,82.7 4.1,81.8 C3.9,80.6 3.9,79.4 3.9,78.1 C3.9,77.9 3.9,77.7 3.9,77.5 C3.9,77.2 3.9,77 4,76.7 C4,76.6 4,76.6 4,76.5 C4,76.3 4.1,76 4.1,75.8 C4.1,75.6 4.1,75.5 4.2,75.3 C4.2,75.1 4.3,74.9 4.3,74.6 C4.4,74.3 4.4,74.1 4.5,73.8 C4.6,73.3 4.8,72.8 4.9,72.3 C4.9,72.1 5,72 5.1,71.8 C5.2,71.6 5.2,71.4 5.3,71.2 C5.4,71 5.5,70.7 5.6,70.5 C5.7,70.2 5.9,69.9 6,69.6 C6.1,69.5 6.1,69.3 6.2,69.2 C6.3,69 6.4,68.7 6.6,68.5 C6.9,67.9 7.2,67.4 7.5,66.8 C7.7,66.4 8,66 8.2,65.7 C9.6,63.7 11.1,61.8 12.6,59.9 C16.8,54.8 23.9,53.4 29.4,57.1 C29.8,57.4 30.2,57.7 30.7,58 C34.9,61 39.9,65.2 43.2,68.2 C42.8,69.2 42.3,70.2 41.7,71.2 C40.6,72.8 39.4,74.3 38.2,75.8 C37.6,76.6 37.2,77.3 36.9,78.1 C35.9,80.6 36.5,79.6 38.6,81.9 C39,82.3 39.3,82.7 39.7,83.1 C39.9,83.3 40.2,83.6 40.4,83.8 C40.5,83.9 40.6,84 40.7,84.1 C40.1,84.8 39.6,85.4 39.2,86 C39.1,86.1 39,86.3 38.9,86.4 C38.8,86.6 38.7,86.7 38.6,86.9 C38.4,87.3 38.2,87.6 38,88.1 C37.1,90.2 37.4,89.8 38.8,91.1 C39.1,91.3 39.4,91.6 39.7,92 C46.6,99.6 55.8,107.7 64.8,112.5 C68.1,114.3 70,115.8 72.4,112.8 C73.6,111.3 74.8,109.7 76,108.2 C79.8,103.6 87.1,103 92.5,105.8 C92.8,105.9 93.1,106.1 93.3,106.3 C93.6,106.5 93.9,106.7 94.1,106.8 C98.1,109.6 102,112.6 105.8,115.7 C106,115.8 106.1,116 106.3,116.1 C106.4,116.2 106.5,116.3 106.6,116.4 C106.7,116.5 106.8,116.6 106.9,116.7 C107.6,117.5 108.3,118.3 108.8,119.2 C108.9,119.4 109,119.5 109.1,119.7 C109.2,119.8 109.3,120 109.3,120.2 C109.5,120.6 109.7,121 109.8,121.5 C109.8,121.6 109.9,121.7 109.9,121.8 C110,122 110,122.1 110,122.3 C110.1,122.6 110.1,122.8 110.2,123.1 L110.2,123.2 C110.3,123.5 110.3,123.7 110.3,124 C110.3,124.2 110.3,124.3 110.3,124.5 C110.3,124.7 110.3,124.8 110.3,125 C110.5,127.3 109.8,130 108.2,132.4 Z" id="Shape" class="fill-primary-200" fill-rule="nonzero"></path>
            <path d="M108.7,119.2 C108.3,120.3 107.8,121.4 107.1,122.5 C104.8,125.9 102.6,129.6 99.2,132.1 C96,134.4 92,135.7 88,135.8 C83.7,135.9 79.2,135.4 74.9,134.6 C73.4,134.3 71.9,134 70.5,133.6 C42.9,126.7 22,110.8 8.2,85.9 C6.5,82.9 5.1,79.7 3.8,76.5 C3.8,76.5 3.8,76.4 3.8,76.4 C3.8,76.2 3.9,75.9 3.9,75.7 C3.9,75.5 3.9,75.4 4,75.2 C4,75 4.1,74.8 4.1,74.5 C4.2,74.2 4.2,74 4.3,73.7 C4.4,73.2 4.6,72.7 4.7,72.2 C4.7,72 4.8,71.9 4.9,71.7 C5,71.5 5,71.3 5.1,71.1 C5.2,70.9 5.3,70.6 5.4,70.4 C5.5,70.1 5.7,69.8 5.8,69.5 C5.9,69.4 5.9,69.2 6,69.1 C6.1,68.9 6.2,68.6 6.4,68.4 C6.7,67.8 7,67.3 7.3,66.7 C7.5,66.3 7.8,65.9 8,65.6 C9.4,63.6 10.9,61.7 12.4,59.8 C16.6,54.7 23.7,53.3 29.2,57 C29.6,57.3 30,57.6 30.5,57.9 C34.7,60.9 39.7,65.1 43,68.1 C43.2,68.3 43.4,68.4 43.6,68.6 C45,69.9 46,70.8 46.4,71.2 C46.2,71.8 45.9,72.4 45.6,72.9 C43.9,76.3 41,78.6 39.9,81.2 C39.5,82.1 39.4,82.6 39.4,82.9 C39.4,83.3 39.7,83.4 40.1,83.6 C40.2,83.7 40.3,83.7 40.4,83.8 C39.8,84.5 39.3,85.1 38.9,85.7 C38.8,85.8 38.7,86 38.6,86.1 C38.5,86.3 38.4,86.4 38.3,86.6 C38.1,87 37.9,87.3 37.7,87.8 C36.8,89.9 37.1,89.5 38.5,90.8 C38.8,91 39.1,91.3 39.4,91.7 C46.3,99.3 55.5,107.4 64.5,112.2 C67.8,114 69.7,115.5 72.1,112.5 C73.3,111 74.5,109.4 75.7,107.9 C79.5,103.3 86.8,102.7 92.2,105.5 C92.5,105.6 92.8,105.8 93,106 C93.3,106.2 93.6,106.4 93.8,106.5 C97.8,109.3 101.7,112.3 105.5,115.4 C105.7,115.5 105.8,115.7 106,115.8 C106.1,115.9 106.2,116 106.3,116.1 C106.4,116.2 106.5,116.3 106.6,116.4 C107.5,117.4 108.2,118.3 108.7,119.2 Z" id="Shape" class="fill-primary-100" fill-rule="nonzero"></path>
            <path d="M36,55.9 C36.1,55.9 36.1,56 36.2,56" id="Shape" class="stroke-primary" stroke-width="3" stroke-linecap="round" stroke-linejoin="round"></path>
            <path d="M14.5,105.3 C12.3,102.2 10.2,98.9 8.2,95.4 C5.3,90.3 3.1,84.8 1.7,79.1 C-0.1,71.9 1.4,65.3 5.5,59.3 C6.9,57.2 8.6,55.2 10.2,53.2 C14.6,47.8 22.2,46.3 28,50.2 C28.9,50.8 29.8,51.4 30.7,52.1" id="Shape" class="stroke-primary" stroke-width="3" stroke-linecap="round" stroke-linejoin="round"></path>
            <path d="M52.1,136.9 C40.6,131.4 28.7,122.9 18.6,110.5" id="Shape" class="stroke-primary" stroke-width="3" stroke-linecap="round" stroke-linejoin="round"></path>
            <path d="M41.4,60.4 C46.5,64.9 47.1,72.2 43.4,77.8 C42.3,79.5 40.9,81.1 39.7,82.7 C37,86.3 37.1,89.4 40.1,92.7 C47.4,100.7 56,107 65.5,112.1 C69,114 72.2,113.3 74.7,110.1 C76,108.5 77.2,106.8 78.5,105.3 C83,99.8 90.9,98.6 96.7,102.7 C100.9,105.7 105.1,108.8 109.1,112.1 C114.5,116.6 115.6,124 111.8,129.8 C106.8,137.3 102.6,143 92.3,144.9 C85,146.2 72.5,145.1 58.8,139.7" id="Shape" class="stroke-primary" stroke-width="3" stroke-linecap="round" stroke-linejoin="round"></path>
            <path d="M25.2,64 L10.7,52.5" id="Shape" class="stroke-primary" stroke-width="3" stroke-linecap="round" stroke-linejoin="round"></path>
            <path d="M33.8,71 L31,68.7" id="Shape" class="stroke-primary" stroke-width="3" stroke-linecap="round" stroke-linejoin="round"></path>
            <path d="M102,123.7 L78.9,105.3" id="Shape" class="stroke-primary" stroke-width="3" stroke-linecap="round" stroke-linejoin="round"></path>
            <path d="M110,9.3 C129.6,20.7 142.9,42 142.9,66.3 C142.9,83 136.7,98.2 126.5,109.8" id="Shape" class="stroke-primary" stroke-width="3" stroke-linecap="round" stroke-linejoin="round"></path>
            <path d="M77,0.5 C77.4,0.5 77.8,0.5 78.1,0.5" id="Shape" class="stroke-primary" stroke-width="3" stroke-linecap="round" stroke-linejoin="round"></path>
            <path d="M25.1,25.7 C34.5,13.7 48.1,5 63.6,1.8" id="Shape" class="stroke-primary" stroke-width="3" stroke-linecap="round" stroke-linejoin="round"></path>
            <path d="M130.3,79 C129.1,84.2 127.1,89.1 124.5,93.6" id="Shape" class="stroke-primary" stroke-width="3" stroke-linecap="round" stroke-linejoin="round"></path>
            <path d="M130.5,54.5 C131.1,57 131.4,59.7 131.6,62.3" id="Shape" class="stroke-primary" stroke-width="3" stroke-linecap="round" stroke-linejoin="round"></path>
            <path d="M80.9,11.7 C101.4,13.1 118.9,25.9 126.9,43.8" id="Shape" class="stroke-primary" stroke-width="3" stroke-linecap="round" stroke-linejoin="round"></path>
            <path d="M39.5,26.4 C47.1,19.3 56.7,14.3 67.3,12.4" id="Shape" class="stroke-primary" stroke-width="3" stroke-linecap="round" stroke-linejoin="round"></path>
            <path d="M61.4,71.2 C60.1,71.2 59.2,70.5 59.2,69.3 C59.2,68.5 59.6,67.8 60.3,67.2 L68.6,60.2 C72.1,57.2 73.8,55.4 73.8,52.7 C73.8,50 71.9,48.1 69.1,48.1 C67,48.1 65.4,49 63.5,51.2 C63.1,51.6 62.7,51.8 62.1,51.8 C61.1,51.8 60.3,51 60.3,50 C60.3,49.6 60.5,49.1 60.8,48.8 C63.2,45.8 65.7,44.6 69.4,44.6 C74.5,44.6 77.9,47.7 77.9,52.3 C77.9,56.5 75.7,58.7 71,62.5 L64.7,67.8 L76.6,67.8 C77.6,67.8 78.3,68.5 78.3,69.5 C78.3,70.5 77.6,71.2 76.6,71.2 L61.4,71.2 Z" id="Shape" class="fill-primary" fill-rule="nonzero"></path>
            <path d="M98.1,71.4 C97,71.4 96.2,70.6 96.2,69.5 L96.2,65.1 L83.8,65.1 C82.7,65.1 81.9,64.3 81.9,63.2 C81.9,62.4 82.2,61.7 82.8,60.9 L95.4,45.9 C96.2,44.9 96.8,44.5 98,44.5 C99.1,44.5 99.9,45.3 99.9,46.4 L99.9,61.9 L102.3,61.9 C103.2,61.9 103.9,62.6 103.9,63.5 C103.9,64.4 103.2,65 102.3,65 L100,65 L100,69.4 C100,70.6 99.1,71.4 98.1,71.4 Z M86.2,62.1 L96.2,62.1 L96.2,50.1 L86.2,62.1 Z" id="Shape" class="fill-primary" fill-rule="nonzero"></path>
        </g>
    </g>
</svg>