<?xml version="1.0" encoding="UTF-8"?>
<svg width="110px" height="149px" viewBox="0 0 110 149" version="1.1" xmlns="http://www.w3.org/2000/svg" xmlns:xlink="http://www.w3.org/1999/xlink">
    <!-- Generator: Sketch 51.2 (57519) - http://www.bohemiancoding.com/sketch -->
    <title>Package_sent_2</title>
    <desc>Created with Sketch.</desc>
    <defs></defs>
    <g id="Page-1" stroke="none" stroke-width="1" fill="none" fill-rule="evenodd">
        <g id="Package_sent_2" transform="translate(1.000000, 1.000000)">
            <g id="Group" class="fill-neutral" fill-rule="nonzero">
                <path d="M79.3,6.7 C92.3,13.2 102.4,24.6 107.3,38.5 C105,37.9 102.6,37.6 100.1,37.6 C91.5,37.6 83.7,41.3 78.7,47.2 C78.6,47.3 78.8,47.1 78.7,47.2 C78.7,47 78.7,47.4 78.7,47.2 C73.6,39.6 64.5,34.3 54.2,34.3 C43.1,34.3 33.4,40.2 28.6,48.7 C28.5,48.8 28.7,48.6 28.6,48.7 C28.6,48.5 28.6,48.9 28.6,48.7 C23.7,42.1 15.5,37.6 6.3,37.6 C4.4,37.6 2.6,37.8 0.8,38.1 C8.4,17.1 28,1.9 51.4,0.8 L51.5,0.8 C52.3,0.8 53.2,0.7 54,0.7 C61.5,0.7 68.6,2.2 75.2,4.8" id="Shape"></path>
                <path d="M78.7,47.2 C73.6,39.6 64.5,34.3 54.2,34.3 C43.1,34.3 33.4,40.2 28.6,48.7 C28.5,48.8 28.7,48.6 28.6,48.7 C28.6,48.5 28.6,48.9 28.6,48.7 C29.5,22.2 42.6,0.8 51.4,0.8 L51.5,0.8 C60.1,0.8 75.5,20.5 78.7,47.2 Z" id="Shape"></path>
                <path d="M78.7,47.2 C78.6,47.2 78.7,47.1 78.7,47.2 C78.7,47 78.7,47.3 78.7,47.2 C78.8,47.3 78.6,47 78.7,47.2 Z" id="Shape"></path>
                <path d="M28.5,48.7 C28.5,48.8 28.6,48.6 28.5,48.7 C28.6,48.5 28.5,48.9 28.5,48.7 C28.6,48.8 28.5,48.6 28.5,48.7 Z" id="Shape"></path>
            </g>
            <g id="Group" transform="translate(5.000000, 5.000000)" class="fill-primary-100" fill-rule="nonzero">
                <path d="M50.7,0.8 C49.9,0.8 49.1,0.8 48.3,0.9 L48.2,0.9 C48,0.9 47.8,0.9 47.5,0.9 C25.5,2.1 7.1,14.9 0,33.6 C1.7,33.3 3.5,32.9 5.3,33.1 C13.2,34.3 17.5,37.9 22.8,43.1 C22.8,43.1 22.8,43.1 22.8,43.1 C22.8,43.1 22.8,43.2 22.8,43.1 C22.8,43.1 22.8,43.1 22.8,43.1 C27.4,35.4 37,30.1 47.6,30.1 C57.4,30.1 67.8,36.2 72.7,43 C72.7,43 72.7,43 72.7,43 C72.7,43.1 72.7,43 72.7,43 C72.7,43 72.7,43 72.7,43 C77.4,37.7 86.5,34 94.7,34 C97.1,34 99.4,34.3 101.6,34.8 C94.1,15 74.1,0.8 50.7,0.8 Z" id="Shape"></path>
            </g>
            <g id="Group" transform="translate(31.000000, 99.000000)">
                <path d="M47.2,2.8 L47.2,44.6 C47.2,46.1 46,47.3 44.5,47.3 L2.7,47.3 C1.2,47.3 0,46.1 0,44.6 L0,2.8 C0,1.3 1.2,0.1 2.7,0.1 L44.5,0.1 C46,0.1 47.2,1.3 47.2,2.8 Z" id="Shape" class="fill-neutral" fill-rule="nonzero"></path>
                <path d="M47.2,4.3 L47.2,44.7 C47.2,46.1 46.1,47.3 44.7,47.3 L5.1,47.3 C3.7,47.3 2.6,46.1 2.6,44.7 L2.6,4.3 C2.6,2.9 3.7,1.7 5.1,1.7 L44.7,1.7 C46,1.7 47.2,2.8 47.2,4.3 Z" id="Shape" class="fill-primary-300" fill-rule="nonzero"></path>
                <path d="M15.8,0.1 L44.5,0.1 C46,0.1 47.2,1.3 47.2,2.8 L47.2,44.6 C47.2,46.1 46,47.3 44.5,47.3 L2.7,47.3 C1.2,47.3 0,46.1 0,44.6 L0,2.8 C0,1.6 0.8,0.6 1.8,0.3" id="Shape" class="stroke-primary" stroke-width="3" stroke-linecap="round" stroke-linejoin="round"></path>
                <path d="M11,0.1 L11.4,0.1" id="Shape" class="stroke-primary" stroke-width="3" stroke-linecap="round" stroke-linejoin="round"></path>
                <polyline id="Shape" stroke-width="3" class="stroke-primary fill-primary-100" fill-rule="nonzero" stroke-linecap="round" stroke-linejoin="round" points="18.1 0.1 29.2 0.1 29.2 13.1 26.1 15.8 21.6 13.1 18 15.8 18 6.3"></polyline>
            </g>
            <g id="Group" class="stroke-primary" stroke-linecap="round" stroke-linejoin="round" stroke-width="3">
                <path d="M80.9,7.6 C93.1,14.2 102.6,25.2 107.3,38.5 C105,37.9 102.6,37.6 100.1,37.6 C91.5,37.6 83.7,41.3 78.7,47.2 C78.6,47.3 78.8,47.1 78.7,47.2 C78.7,47 78.7,47.4 78.7,47.2 C73.6,39.6 64.5,34.3 54.2,34.3 C43.1,34.3 33.4,40.2 28.6,48.7 C28.5,48.8 28.7,48.6 28.6,48.7 C28.6,48.5 28.6,48.9 28.6,48.7 C23.7,42.1 15.5,37.6 6.3,37.6 C4.4,37.6 2.6,37.8 0.8,38.1 C8.4,17.1 28,1.9 51.4,0.8 L51.5,0.8 C52.3,0.8 53.2,0.7 54,0.7 C61.9,0.7 69.5,2.3 76.3,5.3" id="Shape"></path>
                <path d="M33.2,23.6 C38,9.9 45.6,0.8 51.4,0.8 L51.5,0.8 C60.2,0.8 75.6,20.4 78.8,47.1 C73.7,39.5 64.6,34.2 54.3,34.2 C43.2,34.2 33.5,40.1 28.7,48.6 C28.6,48.7 28.8,48.5 28.7,48.6 C28.7,48.4 28.7,48.8 28.7,48.6 C28.9,41.8 30,35.3 31.5,29.5" id="Shape"></path>
                <path d="M78.7,47.2 C78.6,47.2 78.7,47.1 78.7,47.2 C78.7,47 78.7,47.3 78.7,47.2 C78.8,47.3 78.6,47 78.7,47.2 Z" id="Shape"></path>
                <path d="M28.5,48.7 C28.5,48.8 28.6,48.6 28.5,48.7 C28.6,48.5 28.5,48.9 28.5,48.7 C28.6,48.8 28.5,48.6 28.5,48.7 Z" id="Shape"></path>
            </g>
            <polyline id="Shape" class="stroke-primary" stroke-width="3" stroke-linecap="round" stroke-linejoin="round" points="71.8 78.7 54 99.1 1.3 38.3"></polyline>
            <path d="M107.1,38.4 L75.6,74.4" id="Shape" class="stroke-primary" stroke-width="3" stroke-linecap="round" stroke-linejoin="round"></path>
            <path d="M32.3,55.8 L28.5,48.3" id="Shape" class="stroke-primary" stroke-width="3" stroke-linecap="round" stroke-linejoin="round"></path>
            <path d="M34.3,59.8 L34.2,59.6" id="Shape" class="stroke-primary" stroke-width="3" stroke-linecap="round" stroke-linejoin="round"></path>
            <polyline id="Shape" class="stroke-primary" stroke-width="3" stroke-linecap="round" stroke-linejoin="round" points="78.7 47 54 99.1 36.8 64.8"></polyline>
        </g>
    </g>
</svg>