<?xml version="1.0" encoding="UTF-8"?>
<svg width="153px" height="124px" viewBox="0 0 153 124" version="1.1" xmlns="http://www.w3.org/2000/svg" xmlns:xlink="http://www.w3.org/1999/xlink">
    <!-- Generator: Sketch 51.2 (57519) - http://www.bohemiancoding.com/sketch -->
    <title>Package_Received</title>
    <desc>Created with Sketch.</desc>
    <defs></defs>
    <g id="Page-1" stroke="none" stroke-width="1" fill="none" fill-rule="evenodd">
        <g id="Package_Received" transform="translate(2.000000, 2.000000)">
            <g id="Group" transform="translate(42.000000, 0.000000)">
                <path d="M75.6,4.6 L75.6,71.2 C75.6,73.6 73.7,75.5 71.3,75.5 L4.7,75.5 C2.3,75.5 0.4,73.6 0.4,71.2 L0.4,4.6 C0.4,2.2 2.3,0.3 4.7,0.3 L71.3,0.3 C73.6,0.3 75.6,2.2 75.6,4.6 Z" id="Shape" class="fill-neutral" fill-rule="nonzero"></path>
                <path d="M75.6,6.9 L75.6,71.3 C75.6,73.6 73.8,75.4 71.6,75.4 L8.5,75.4 C6.3,75.4 4.5,73.6 4.5,71.3 L4.5,6.9 C4.5,4.6 6.3,2.8 8.5,2.8 L71.6,2.8 C73.7,2.8 75.6,4.6 75.6,6.9 Z" id="Shape" class="fill-primary-300" fill-rule="nonzero"></path>
                <path d="M22.6,0.3 L71.3,0.3 C73.7,0.3 75.6,2.2 75.6,4.6 L75.6,71.2 C75.6,73.6 73.7,75.5 71.3,75.5 L4.7,75.5 C2.3,75.5 0.4,73.6 0.4,71.2 L0.4,4.6 C0.4,2.2 2.3,0.3 4.7,0.3 L10.2,0.3" id="Shape" class="stroke-primary" stroke-width="3" stroke-linecap="round" stroke-linejoin="round"></path>
                <path d="M14,0.3 L14.4,0.3" id="Shape" class="stroke-primary" stroke-width="3" stroke-linecap="round" stroke-linejoin="round"></path>
                <polyline id="Shape" stroke-width="3" class="stroke-primary fill-primary-100" fill-rule="nonzero" stroke-linecap="round" stroke-linejoin="round" points="29.2 0.3 46.9 0.3 46.9 21.1 41.9 25.4 34.7 21.1 29 25.4 29 5.1"></polyline>
            </g>
            <path d="M114.3,86.6 L65.3,86.6 C60.7,86.6 57,82.9 57,78.3 C57,73.7 60.7,70 65.3,70 L118.5,73.1" id="Shape" class="fill-neutral" fill-rule="nonzero"></path>
            <path d="M115.4,91.6 L111.9,92.8 L110.1,93.4 L108.3,94 L106.5,94.6 L73.4,105.9 C70.8,106.8 68,106.8 65.3,105.9 L48.4,100.2 C47.3,99.8 46.3,99.3 45.4,98.6 L24.2,82.3 C24,82.2 23.9,82.1 23.7,82 C23.6,81.9 23.5,81.8 23.3,81.7 C23.2,81.6 23.1,81.5 23,81.4 C22.9,81.3 22.8,81.2 22.7,81.1 C22.6,81 22.5,80.9 22.4,80.8 C22.3,80.7 22.3,80.7 22.3,80.6 C22.1,80.4 22,80.2 21.9,80.1 C21.8,80 21.8,79.9 21.7,79.8 C21.6,79.7 21.6,79.6 21.5,79.5 C21.2,79 20.9,78.4 20.7,77.8 C20.6,77.6 20.6,77.5 20.6,77.3 C20.6,77.2 20.5,77 20.5,76.9 C20.5,76.9 20.5,76.9 20.5,76.9 C20.4,76.4 20.3,75.8 20.3,75.3 C20.3,73.8 20.7,72.3 21.5,70.9 C23.9,67 29,65.8 33,68.2 L57,82.8 L57.1,82.9 L57.3,83 L57.7,83.2 L60,84.6 L79,87 L82.8,87.5 L115.4,91.6 Z" id="Shape" class="fill-neutral" fill-rule="nonzero"></path>
            <path d="M80.9,88.9 L111.9,92.8 L110.1,93.4 L108.3,94 L106.5,94.6 L73.4,105.9 C70.8,106.8 68,106.8 65.3,105.9 L48.4,100.2 C47.3,99.8 46.3,99.3 45.4,98.6 L24.2,82.3 C24,82.2 23.9,82.1 23.7,82 C23.6,81.9 23.5,81.8 23.3,81.7 C23.2,81.6 23.1,81.5 23,81.4 C22.9,81.3 22.8,81.2 22.7,81.1 C22.6,81 22.5,80.9 22.4,80.8 C22.3,80.7 22.3,80.7 22.3,80.6 C22.1,80.4 22,80.2 21.9,80.1 C21.8,80 21.8,79.9 21.7,79.8 C21.6,79.7 21.6,79.6 21.5,79.5 C21.2,79 20.9,78.4 20.7,77.8 C20.6,77.6 20.6,77.5 20.6,77.3 C20.6,77.1 20.7,76.9 20.8,76.7 C20.9,76.5 20.9,76.3 21,76.1 C21.1,76 21.1,75.9 21.2,75.7 C21.3,75.6 21.3,75.5 21.4,75.3 C21.5,75.2 21.5,75 21.6,74.9 C24,71 29.1,69.8 33.1,72.2 L60,88.6 C59.4,88.1 58.8,87.5 58.4,86.8 C58.1,86.4 57.9,86 57.7,85.6 C57.5,85.3 57.4,84.9 57.3,84.5 L57.7,84.7 L58.4,85.1 L60,86.1 C59,85.3 58.2,84.3 57.7,83.1 C57.4,82.4 57.2,81.7 57.1,81 C57.7,77 61.1,73.9 65.3,73.9 L111.8,76.6 L79,87 L75.3,88.2 L77.2,88.4 L79.1,88.6 L80.9,88.9 Z" id="Shape" class="fill-primary-100" fill-rule="nonzero"></path>
            <path d="M20.4,77.3 C20.4,77.4 20.4,77.6 20.4,77.7 C20.4,77.7 20.4,77.7 20.4,77.7 C20.4,77.8 20.4,78 20.4,78.1 C20.4,77.9 20.4,77.6 20.4,77.3 Z" id="Shape" class="fill-primary-100" fill-rule="nonzero"></path>
            <path d="M79,89.5 L110.1,93.4 L108.3,94 L106.5,94.6 L73.4,105.9 C70.8,106.8 68,106.8 65.3,105.9 L48.4,100.2 C47.3,99.8 46.3,99.3 45.4,98.6 L24.2,82.3 C24,82.2 23.9,82.1 23.7,82 C23.6,81.9 23.5,81.8 23.3,81.7 C23.2,81.6 23.1,81.5 23,81.4 C22.9,81.3 22.8,81.2 22.7,81.1 C22.6,81 22.5,80.9 22.4,80.8 C22.3,80.7 22.3,80.7 22.3,80.6 C22.1,80.4 22,80.2 21.9,80.1 C21.8,80 21.8,79.9 21.7,79.8 C21.6,79.7 21.6,79.6 21.5,79.5 C21.2,79 20.9,78.4 20.7,77.8 C20.6,77.6 20.6,77.5 20.6,77.3 C20.6,77.1 20.7,76.9 20.8,76.7 C20.9,76.5 20.9,76.3 21,76.1 C21.1,76 21.1,75.9 21.2,75.7 C21.3,75.6 21.3,75.5 21.4,75.3 C21.5,75.2 21.5,75 21.6,74.9 C24,71 29.1,69.8 33.1,72.2 L60,88.6 C59.4,88.1 58.8,87.5 58.4,86.8 C58.1,86.4 57.9,86 57.7,85.6 L58.4,86 L60,87 C59.4,86.5 58.8,85.9 58.4,85.2 C57.9,84.5 57.6,83.7 57.3,82.9 C57.2,82.4 57.1,81.9 57,81.4 C57,81.3 57,81.1 57,81 C57,80.9 57,80.7 57,80.6 C57,80.4 57,80.3 57,80.1 C57,80.2 57,80.4 57,80.5 C57,80.5 57,80.5 57,80.5 C57,80.6 57,80.8 57.1,80.9 C57.7,76.9 61.1,73.8 65.3,73.8 L111.8,76.5 L79,87 L75.3,88.2 L77.2,88.4 L75.3,89 L77.2,89.2 L79,89.5 Z" id="Shape" class="fill-primary-100" fill-rule="nonzero"></path>
            <path d="M114.7,91.9 L73.5,105.9 C70.9,106.8 68.1,106.8 65.4,105.9 L48.5,100.2 C47.4,99.8 46.4,99.3 45.5,98.6 L24.3,82.3 C24.1,82.2 24,82.1 23.8,82 C23.7,81.9 23.6,81.8 23.4,81.7 C23.3,81.6 23.2,81.5 23.1,81.4 C23,81.3 22.9,81.2 22.8,81.1 C22.7,81 22.6,80.9 22.5,80.8 C22.4,80.7 22.4,80.7 22.4,80.6 C22.2,80.4 22.1,80.2 22,80.1 C21.9,80 21.9,79.9 21.8,79.8 C21.7,79.7 21.7,79.6 21.6,79.5 C21.3,79 21,78.4 20.8,77.8 C20.7,77.6 20.7,77.5 20.7,77.3 C20.7,77.1 20.8,76.9 20.9,76.7 C21,76.5 21,76.3 21.1,76.1 C21.2,76 21.2,75.9 21.3,75.7 C21.4,75.6 21.4,75.5 21.5,75.3 C21.6,75.2 21.6,75 21.7,74.9 C24.1,71 29.2,69.8 33.2,72.2 L60.1,88.6 C59.5,88.1 58.9,87.5 58.5,86.8 C58.2,86.4 58,86 57.8,85.6 C57.6,85.3 57.5,84.9 57.4,84.5 C57.4,84.5 57.4,84.5 57.4,84.5 C57.2,83.9 57.1,83.3 57.1,82.7 C57.1,82.5 57.1,82.4 57.1,82.2 C57.1,82 57.1,81.9 57.1,81.7 C57.1,81.6 57.1,81.4 57.1,81.3 C57.1,81.2 57.1,81 57.2,80.9 C57.8,76.9 61.2,73.8 65.4,73.8 L115.6,76.9" id="Shape" class="fill-primary-100" fill-rule="nonzero"></path>
            <g id="Group" transform="translate(0.000000, 119.000000)" class="stroke-primary-300" stroke-linecap="round" stroke-linejoin="round" stroke-width="3">
                <path d="M1.4,0.8 L0.4,0.8" id="Shape"></path>
                <path d="M29.4,0.8 L5.4,0.8" id="Shape"></path>
                <path d="M34.5,0.8 L33.6,0.8" id="Shape"></path>
                <path d="M114,0.8 L39.8,0.8" id="Shape"></path>
                <path d="M148.7,0.8 L118.2,0.8" id="Shape"></path>
            </g>
            <path d="M145.1,104.3 L133.5,104.3 C122.9,104.3 114.3,95.7 114.3,85.1 C114.3,74.5 122.9,65.9 133.5,65.9 L145.1,65.9" id="Shape" class="stroke-primary" stroke-width="3" stroke-linecap="round" stroke-linejoin="round"></path>
            <path d="M131.6,71.5 C132.2,71.4 132.9,71.3 133.6,71.2" id="Shape" class="stroke-primary" stroke-width="3" stroke-linecap="round" stroke-linejoin="round"></path>
            <path d="M121,87.9 C120.8,87 120.7,86.1 120.7,85.1 C120.7,79.6 123.8,74.9 128.4,72.7" id="Shape" class="stroke-primary" stroke-width="3" stroke-linecap="round" stroke-linejoin="round"></path>
            <path d="M75.2,86.6 L65.3,86.6 C60.7,86.6 57,82.9 57,78.3 C57,73.7 60.7,70 65.3,70 L118.5,73.1" id="Shape" class="stroke-primary" stroke-width="3" stroke-linecap="round" stroke-linejoin="round"></path>
            <path d="M83.8,86.6 L81.5,86.6" id="Shape" class="stroke-primary" stroke-width="3" stroke-linecap="round" stroke-linejoin="round"></path>
            <path d="M60,84.6 L57.7,83.2 L57.3,83 L57.1,82.9 L57,82.8 L33,68.2 C29.1,65.8 24,67 21.5,70.9 C20.7,72.3 20.3,73.8 20.3,75.3 C20.3,75.9 20.4,76.4 20.5,76.9 C20.5,76.9 20.5,76.9 20.5,76.9 C20.5,77 20.6,77.2 20.6,77.3 C20.6,77.5 20.7,77.6 20.7,77.8 C20.9,78.4 21.2,79 21.5,79.5 C21.6,79.6 21.6,79.7 21.7,79.8 C21.8,79.9 21.8,80 21.9,80.1 C22,80.3 22.2,80.5 22.3,80.6 C22.3,80.7 22.4,80.7 22.4,80.8 C22.5,80.9 22.6,81 22.7,81.1 C22.8,81.2 22.9,81.3 23,81.4 C23.1,81.5 23.2,81.6 23.3,81.7 C23.4,81.8 23.5,81.9 23.7,82 C23.8,82.1 24,82.2 24.2,82.3 L45.4,98.6 C46.3,99.3 47.3,99.8 48.4,100.2 L65.3,105.9 C67.9,106.8 70.8,106.8 73.4,105.9 L106.5,94.6 L108.3,94 L110.1,93.4 L111.9,92.8" id="Shape" class="stroke-primary" stroke-width="3" stroke-linecap="round" stroke-linejoin="round"></path>
        </g>
    </g>
</svg>