<?xml version="1.0" encoding="UTF-8"?>
<svg width="151px" height="141px" viewBox="0 0 151 141" version="1.1" xmlns="http://www.w3.org/2000/svg" xmlns:xlink="http://www.w3.org/1999/xlink">
    <!-- Generator: Sketch 51.2 (57519) - http://www.bohemiancoding.com/sketch -->
    <title>Paper_Clip</title>
    <desc>Created with Sketch.</desc>
    <defs></defs>
    <g id="Page-1" stroke="none" stroke-width="1" fill="none" fill-rule="evenodd">
        <g id="Paper_Clip" transform="translate(2.000000, 2.000000)">
            <path d="M0.5,110.7 C0.5,106.6 0.2,102.4 0.6,98.3 C1.1,92 4,86.7 8.5,82.2 C28.6,62.2 48.6,42.2 68.6,22.2 C74.4,16.4 80.3,10.5 86.1,4.7 C86.7,4.1 87.4,3.4 88.2,3 C90.1,2 91.9,2.2 93.4,3.7 C94.9,5.2 95,7.1 94,8.9 C93.5,9.8 92.7,10.6 91.9,11.3 C66.3,36.9 40.8,62.5 15.2,87.9 C11.1,92 9.1,96.5 9.2,102.2 C9.3,108.1 9.2,113.9 9.2,119.8 C9.2,124.8 12,127.7 17,127.7 C22.9,127.7 28.9,127.7 34.8,127.7 C40.5,127.8 45.1,125.7 49.1,121.6 C77.3,93.3 105.5,65 133.8,36.8 C139.6,31 139.6,25.7 133.7,19.9 C130.9,17.1 128.1,14.2 125.2,11.6 C121,7.8 115.5,7.8 111.4,11.8 C90.1,33.1 68.8,54.4 47.5,75.7 C46.6,76.6 45.8,78.1 45.7,79.3 C45.4,82.8 45.4,86.4 45.6,89.9 C45.6,90.5 46.8,91.5 47.4,91.6 C50.8,91.8 53.2,91.9 56.5,91.5 C58.2,91.3 60.1,90.2 61.3,89 C81.7,68.7 102.1,48.3 122.4,27.9 C123.1,27.2 123.8,26.5 124.6,26 C126.5,24.8 128.9,25.2 130.2,26.8 C131.6,28.5 131.7,30.4 130.4,32.3 C129.9,33 129.3,33.6 128.7,34.1 C108.3,54.5 87.9,74.8 67.6,95.2 C64.2,98.6 60.3,100.6 55.6,100.6 C52.1,100.6 49.5,100.8 46,100.5 C40.6,100.1 36.9,96.2 36.6,90.8 C36.4,87 36.5,83.2 36.6,79.4 C36.7,75.5 38.3,72.2 41.1,69.5 C62.3,48.2 83.5,26.9 104.8,5.8 C112.7,-2.1 124.4,-1.8 132.2,6.2 C134.9,8.9 137.6,11.6 140.2,14.3 C148.8,23 148.9,34.1 140.2,42.8 C120.4,62.6 100.6,82.4 80.8,102.1 C72.2,110.7 63.5,119.1 55.1,127.9 C49.5,133.7 42.7,136.5 34.8,136.6 C28.7,136.7 22.6,136.7 16.5,136.6 C6.6,136.4 0.1,129.6 -4.54747351e-13,119.7 C-4.54747351e-13,116.6 -4.54747351e-13,113.6 -4.54747351e-13,110.5 C0.4,110.7 0.5,110.7 0.5,110.7 Z" id="Shape" class="fill-neutral" fill-rule="nonzero"></path>
            <path d="M140.5,43 C120.7,62.8 100.9,82.6 81.1,102.3 C79.6,103.8 78.1,105.3 76.6,106.8 C69.5,113.9 62.4,120.9 55.4,128.1 C49.8,133.9 43,136.7 35.1,136.8 C29,136.9 22.9,136.9 16.8,136.8 C15.5,136.8 14.2,136.6 13,136.4 C7.3,135.2 3.1,131.5 1.3,126.2 L1.3,120.5 L1.5,120.5 C1.5,115.5 1.2,110.4 1.6,105.5 C2.2,97.8 5.7,91.4 11.2,86 C14.2,83 17.2,80 20.3,77 C41.7,55.7 63,34.3 84.4,13 C87.4,10 90.4,7 93.4,4 C93.4,4 93.4,4 93.5,4.1 C95,5.6 95.1,7.5 94.1,9.3 C93.6,10.2 92.8,11 92,11.7 C68.9,34.8 45.8,58 22.6,81 C20.1,83.4 17.7,85.9 15.2,88.3 C11.1,92.4 9.1,96.9 9.2,102.6 C9.3,108.5 9.2,114.3 9.2,120.2 C9.2,123.2 10.2,125.5 12.1,126.8 C13.4,127.7 15,128.1 16.9,128.2 C22.8,128.2 28.8,128.2 34.7,128.2 C40.4,128.3 45,126.2 49,122.1 C53.4,117.6 57.8,113.2 62.3,108.8 C86,84.9 109.9,61.2 133.7,37.3 C135,36 135.9,34.8 136.7,33.6 C136.7,33.6 136.7,33.6 136.7,33.6 C139.2,29.2 138.2,25 133.7,20.5 C130.9,17.7 128.1,14.8 125.2,12.2 C125.2,12.2 125.1,12.1 125.1,12.1 C120.9,8.3 115.4,8.4 111.4,12.4 C90.1,33.7 68.8,55 47.5,76.3 C47.3,76.5 47.1,76.8 46.9,77 C46.3,77.9 45.8,78.9 45.7,79.9 C45.5,83 45.4,86.1 45.5,89.1 C45.5,89.6 45.5,90 45.5,90.5 C45.5,91.1 46.7,92.1 47.3,92.2 C49.4,92.3 51.1,92.4 52.8,92.4 C56.4,98 63.7,93 63.7,93 L129.7,26.9 C129.9,27 130,27.2 130.1,27.3 C131.5,29 131.6,30.9 130.3,32.8 C129.8,33.5 129.2,34.1 128.6,34.6 C108.2,55 87.8,75.3 67.5,95.7 C66.7,96.6 65.8,97.3 64.9,98 C62.2,100 59.1,101.1 55.5,101.1 C52.1,101.1 49.7,101.2 46.4,101 C46.2,101 46.1,101 45.9,101 C42.2,100.7 41.2,101 39.6,98.1 C39.5,90.8 39.4,86.4 40,82.1 C41.1,74.1 43.5,73.3 48.2,68.9 C52,65.3 98.5,19 117,0.5 C118.3,0.4 119.5,0.5 120.8,0.7 C124.5,1.3 128,2.9 131.1,5.7 C131.4,6 131.8,6.3 132.1,6.6 C134.8,9.3 137.5,12 140.1,14.7 C143,17.6 144.9,20.8 145.9,24 C148.2,30.4 146.3,37.3 140.5,43 Z" id="Shape" class="fill-primary-300" fill-rule="nonzero"></path>
            <path d="M69.5,81.3 C87.2,63.7 104.9,46 122.5,28.3 C123.2,27.6 123.9,26.9 124.7,26.4 C126.6,25.2 129,25.6 130.3,27.2 C131.7,28.9 131.8,30.8 130.5,32.7 C130,33.4 129.4,34 128.8,34.5 C108.4,54.9 88,75.2 67.7,95.6 C64.3,99 60.4,101 55.7,101 C52.2,101 49.6,101.2 46.1,100.9 C40.7,100.5 37,96.6 36.7,91.2 C36.5,87.4 36.6,83.6 36.7,79.8 C36.8,75.9 38.4,72.6 41.2,69.9 C62.4,48.6 83.6,27.3 104.9,6.2 C112.8,-1.7 124.5,-1.4 132.3,6.6 C135,9.3 137.7,12 140.3,14.7 C148.9,23.4 149,34.5 140.3,43.2 C120.5,63 100.7,82.8 80.9,102.5 C72.3,111.1 63.6,119.5 55.2,128.3 C49.6,134.1 42.8,136.9 34.9,137 C28.8,137.1 22.7,137.1 16.6,137 C10.3,136.9 4.5,133.8 1.8,128 C-0.2,123.6 0.2,120.5 0.3,102.9 C0.3,97.9 0.3,90.5 8.3,82.5 C16.9,74 25.4,65.5 33.9,56.9" id="Shape" class="stroke-primary" stroke-width="3" stroke-linecap="round" stroke-linejoin="round"></path>
            <path d="M123.8,10.8 C119.8,8.2 115.1,8.6 111.5,12.2 C90.2,33.5 68.9,54.8 47.6,76.1 C46.7,77 45.9,78.5 45.8,79.7 C45.5,83.2 45.5,86.8 45.7,90.3 C45.7,90.9 46.9,91.9 47.5,92 C50.9,92.2 53.3,92.3 56.6,91.9 C58.3,91.7 60.2,90.6 61.4,89.4 C61.9,88.9 62.5,88.4 63,87.8" id="Shape" class="stroke-primary" stroke-width="3" stroke-linecap="round" stroke-linejoin="round"></path>
            <path d="M76.3,94.7 C95.5,75.5 114.7,56.3 133.8,37.1 C139.6,31.3 139.6,26 133.7,20.2 C132.8,19.3 131.8,18.3 130.9,17.4" id="Shape" class="stroke-primary" stroke-width="3" stroke-linecap="round" stroke-linejoin="round"></path>
            <path d="M56.2,114.9 L56.8,114.2" id="Shape" class="stroke-primary" stroke-width="3" stroke-linecap="round" stroke-linejoin="round"></path>
            <path d="M60.7,30.2 C63.3,27.6 66,24.9 68.6,22.3 C74.4,16.5 80.3,10.6 86.1,4.8 C86.7,4.2 87.4,3.5 88.2,3.1 C90.1,2.1 91.9,2.3 93.4,3.8 C94.9,5.3 95,7.2 94,9 C93.5,9.9 92.7,10.7 91.9,11.4 C66.3,37 40.8,62.6 15.2,88 C11.1,92.1 9.1,96.6 9.2,102.3 C9.3,108.2 9.2,114 9.2,119.9 C9.2,124.9 12,127.8 17,127.8 C22.9,127.8 28.9,127.8 34.8,127.8 C40.5,127.9 45.1,125.8 49.1,121.7 C49.8,121 50.4,120.4 51.1,119.7" id="Shape" class="stroke-primary" stroke-width="3" stroke-linecap="round" stroke-linejoin="round"></path>
            <path d="M43.2,47.7 C45.2,45.7 47.2,43.7 49.2,41.7" id="Shape" class="stroke-primary" stroke-width="3" stroke-linecap="round" stroke-linejoin="round"></path>
        </g>
    </g>
</svg>