<?xml version="1.0" encoding="UTF-8"?>
<svg width="151px" height="125px" viewBox="0 0 151 125" version="1.1" xmlns="http://www.w3.org/2000/svg" xmlns:xlink="http://www.w3.org/1999/xlink">
    <!-- Generator: Sketch 51.2 (57519) - http://www.bohemiancoding.com/sketch -->
    <title>Partnership</title>
    <desc>Created with Sketch.</desc>
    <defs></defs>
    <g id="Page-1" stroke="none" stroke-width="1" fill="none" fill-rule="evenodd">
        <g id="Partnership" transform="translate(1.000000, 1.000000)">
            <path d="M88.2,44 C87.9,44 87.6,44 87.2,44" id="Shape" class="fill-neutral" fill-rule="nonzero"></path>
            <path d="M87.1,44 C86.5,44 85.7,44 84.8,44 C78.2,44 75.1,46.3 73.5,47.9 L71.8,49.6 L71.7,49.1 L70.5,47.9 C67.4,44.8 62.3,44.8 59.2,47.9 L58.9,48.2 C57.6,49.5 55.5,49.5 54.2,48.2 L47.3,41.3 L21.2,67.4 L68.3,114.5 L71.5,114 L77.6,120.1 C79.9,122.4 83.5,122.4 85.8,120.1 C88.1,117.8 88.1,114.2 85.8,111.9 L86.5,112.6 C88.8,114.9 92.4,114.9 94.7,112.6 L95.1,112.2 C97.4,109.9 97.4,106.3 95.1,104 L95.2,104.1 C97.5,106.4 101.1,106.4 103.4,104.1 L103.8,103.7 C106.1,101.4 106.1,97.8 103.8,95.5 L100.8,92.5 C103.1,94.8 106.7,94.8 109,92.5 L109.4,92.1 C111.7,89.8 111.7,86.2 109.4,83.9 L107.3,81.8 L124.5,64.6 L103.6,43.7 L98,43.7" id="Shape" class="fill-neutral" fill-rule="nonzero"></path>
            <path d="M110.1,85.2 C112.2,87.4 110.6,91.6 108.5,93.8 L108.1,94.2 C105.9,96.3 102.5,96.3 100.3,94.2 L103.2,97.1 C105.3,99.2 105.3,102.7 103.2,104.9 L102.8,105.3 C100.7,107.4 97.2,107.4 95,105.3 C97,107.5 97,110.8 94.9,112.9 L94.5,113.3 C92.4,115.4 88.9,115.4 86.7,113.3 L86.1,112.7 C88.2,114.8 88.2,118.3 86.1,120.5 C84,122.6 80.5,122.6 78.3,120.5 L72.5,114.7 L69.4,115.1 L24.7,70.4 L49.5,45.6 L56,52.1 C57.2,53.3 59.2,53.3 60.4,52.1 L60.7,51.8 C63.7,48.8 68.5,48.8 71.4,51.8 L72.6,53 L72.7,53.4 L74.3,51.8 C75.8,50.2 78.8,48.1 85,48.1 C90,48.1 90,48.1 90,48.1 L103,48.1 L122.8,67.9 L108.2,83.4 L110.1,85.2 Z" id="Shape" class="fill-primary-100" fill-rule="nonzero"></path>
            <path d="M106.7,81.9 L86.2,61.4 C87.8,59.8 90.3,59.8 91.9,61.4 L109.5,79 L106.7,81.9 Z" id="Shape" fill="#BAD8FF" fill-rule="nonzero"></path>
            <path d="M78.2,60.1 L68.2,70.1 L68.6,70.5 C69.8,71.7 71.8,71.7 73,70.5 L83.3,60.2 L83.2,60.1 C81.8,58.7 79.6,58.7 78.2,60.1 Z" id="Shape" fill="#BAD8FF" fill-rule="nonzero"></path>
            <path d="M55,33.5 L18.6,69.9 L5.8,57.1 C4.4,55.7 4.4,53.3 5.8,51.9 L37,20.7 C38.4,19.3 40.8,19.3 42.2,20.7 L55,33.5 Z" id="Shape" fill="#80B8FF" fill-rule="nonzero"></path>
            <path d="M94.4,34.3 L130.9,70.8 L143.8,57.9 C145.2,56.5 145.2,54.3 143.8,53 L112.3,21.5 C110.9,20.1 108.7,20.1 107.4,21.5 L94.4,34.3 Z" id="Shape" fill="#80B8FF" fill-rule="nonzero"></path>
            <path d="M94.2,44 L103.6,44" id="Shape" class="stroke-primary" stroke-width="2.4533" stroke-linecap="round" stroke-linejoin="round"></path>
            <path d="M88.8,44 C89.1,44 89.3,44 89.4,44" id="Shape" class="stroke-primary" stroke-width="2.4533" stroke-linecap="round" stroke-linejoin="round"></path>
            <path d="M93.3,85.2 L100.8,92.7 C103.1,95 106.7,95 109,92.7 L109.4,92.3 C111.7,90 111.7,86.4 109.4,84.1 L87,61.7 C84.2,58.9 79.8,58.9 77,61.7 L73.4,65.3 L72,66.7 C67.2,71.4 59.5,71.4 54.8,66.7 L73.5,48 C74.9,46.6 77.4,44.7 82.2,44.2" id="Shape" class="stroke-primary" stroke-width="2.4533" stroke-linecap="round" stroke-linejoin="round"></path>
            <g id="Group" transform="translate(34.000000, 76.000000)" fill="#BAD8FF" fill-rule="nonzero">
                <path d="M17.4,10.8 L10.6,17.6 C8.4,19.8 4.8,19.8 2.7,17.6 L2.2,17.1 C0,14.9 0,11.3 2.2,9.2 L9,2.4 C11.2,0.2 14.8,0.2 16.9,2.4 L17.4,2.9 C19.6,5.1 19.6,8.6 17.4,10.8 Z" id="Shape"></path>
                <path d="M29.1,16 L15,30.1 C12.8,32.3 9.3,32.3 7.1,30.1 L6.6,29.6 C4.4,27.4 4.4,23.9 6.6,21.7 L20.7,7.6 C22.9,5.4 26.4,5.4 28.6,7.6 L29.1,8.1 C31.3,10.3 31.3,13.9 29.1,16 Z" id="Shape"></path>
                <path d="M36.5,22 C36.8,23.8 36.3,25.7 34.9,27.1 L25.9,36.1 C23.7,38.3 20.1,38.3 17.9,36.1 L17.5,35.7 C15.3,33.5 15.3,29.9 17.5,27.7 L26.5,18.7 C28.7,16.5 32.3,16.5 34.5,18.7 L34.9,19.1 C35.7,19.9 36.3,21 36.5,22" id="Shape"></path>
                <path d="M41.3,37.7 L39.6,39.4 L38.7,38.5 L35.6,38.9 L29.4,32.7 L32.9,29.2 C35.1,27 38.8,27 41,29.2 L41.3,29.5 C43.5,31.8 43.5,35.5 41.3,37.7 Z" id="Shape"></path>
            </g>
            <path d="M93.9,85.8 L103.8,95.7 C106.1,98 106.1,101.6 103.8,103.9 L103.4,104.3 C101.1,106.6 97.5,106.6 95.2,104.3 L88.3,97.4" id="Shape" class="stroke-primary" stroke-width="2.4533" stroke-linecap="round" stroke-linejoin="round"></path>
            <path d="M86.8,95.8 L95.1,104.1 C97.4,106.4 97.4,110 95.1,112.3 L94.7,112.7 C92.4,115 88.8,115 86.5,112.7 L80,106.2" id="Shape" class="stroke-primary" stroke-width="2.4533" stroke-linecap="round" stroke-linejoin="round"></path>
            <path d="M82.3,108.5 L85.9,112.1 C88.2,114.4 88.2,118 85.9,120.3 C83.6,122.6 80,122.6 77.7,120.3 L71.6,114.2" id="Shape" class="stroke-primary" stroke-width="2.4533" stroke-linecap="round" stroke-linejoin="round"></path>
            <g id="Group" transform="translate(30.000000, 77.000000)" class="fill-neutral" fill-rule="nonzero">
                <path d="M17.3,10.6 L10.5,17.4 C8.3,19.6 4.7,19.6 2.6,17.4 L2.1,16.9 C-0.1,14.7 -0.1,11.1 2.1,9 L8.9,2.2 C11.1,9.09494702e-13 14.7,9.09494702e-13 16.8,2.2 L17.3,2.7 C19.5,4.9 19.5,8.4 17.3,10.6 Z" id="Shape"></path>
                <path d="M29,15.9 L14.9,30 C12.7,32.2 9.2,32.2 7,30 L6.5,29.5 C4.3,27.3 4.3,23.8 6.5,21.6 L20.6,7.5 C22.8,5.3 26.3,5.3 28.5,7.5 L29,8 C31.2,10.1 31.2,13.7 29,15.9 Z" id="Shape"></path>
                <path d="M36.4,21.9 C36.7,23.7 36.2,25.6 34.8,27 L25.8,36 C23.6,38.2 20,38.2 17.8,36 L17.4,35.6 C15.2,33.4 15.2,29.8 17.4,27.6 L26.4,18.6 C28.6,16.4 32.2,16.4 34.4,18.6 L34.8,19 C35.7,19.8 36.2,20.8 36.4,21.9" id="Shape"></path>
                <path d="M41.2,37.5 L37.1,41.6 C34.9,43.8 31.2,43.8 29,41.6 L28.7,41.3 C26.5,39.1 26.5,35.4 28.7,33.2 L32.8,29.1 C35,26.9 38.7,26.9 40.9,29.1 L41.2,29.4 C43.4,31.7 43.4,35.3 41.2,37.5 Z" id="Shape"></path>
            </g>
            <g id="Group" transform="translate(31.000000, 81.000000)" class="fill-primary-100" fill-rule="nonzero">
                <path d="M15.2,7.7 L8.4,14.5 C6.8,16.1 4.2,16.1 2.5,14.5 L2.1,14.1 C0.5,12.5 0.5,9.9 2.1,8.2 L8.9,1.4 C10.5,-0.2 13.1,-0.2 14.8,1.4 L15.2,1.8 C16.9,3.4 16.9,6.1 15.2,7.7 Z" id="Shape"></path>
                <path d="M26.6,13.3 L12.8,27.1 C11.2,28.7 8.6,28.7 7,27.1 L6.7,26.8 C5.1,25.2 5.1,22.6 6.7,21 L20.5,7.2 C22.1,5.6 24.7,5.6 26.3,7.2 L26.6,7.5 C28.2,9 28.2,11.6 26.6,13.3 Z" id="Shape"></path>
                <path d="M33.2,23.5 L23.9,32.8 C22.2,34.5 19.4,34.5 17.7,32.8 L17.4,32.5 C15.7,30.8 15.7,28 17.4,26.3 L26.7,17 C28.4,15.3 31.2,15.3 32.9,17 L33.2,17.3 C34.9,19.1 34.9,21.8 33.2,23.5 Z" id="Shape"></path>
                <path d="M39.6,34.1 L34.8,38.9 C33.3,40.4 30.8,40.4 29.3,38.9 L28.9,38.5 C27.4,37 27.4,34.5 28.9,33 L33.7,28.2 C35.2,26.7 37.7,26.7 39.2,28.2 L39.6,28.6 C41.1,30.1 41.1,32.6 39.6,34.1 Z" id="Shape"></path>
            </g>
            <g id="Group" transform="translate(30.000000, 77.000000)" class="stroke-primary" stroke-linecap="round" stroke-linejoin="round" stroke-width="2.4533">
                <path d="M9.6,1.6 C11.8,0.1 14.8,0.3 16.8,2.2 L17.3,2.7 C19.5,4.9 19.5,8.5 17.3,10.6 L10.5,17.4 C8.3,19.6 4.7,19.6 2.6,17.4 L2.1,16.9 C-0.1,14.7 -0.1,11.1 2.1,9 L6,5.1" id="Shape"></path>
                <path d="M8.5,31.1 C7.9,30.8 7.4,30.5 7,30 L6.5,29.5 C4.3,27.3 4.3,23.8 6.5,21.6 L20.6,7.5 C22.8,5.3 26.3,5.3 28.5,7.5 L29,8 C31.2,10.2 31.2,13.7 29,15.9 L21.3,23.6" id="Shape"></path>
                <path d="M36,20.5 C37,22.6 36.6,25.2 34.9,26.9 L25.9,35.9 C23.7,38.1 20.1,38.1 17.9,35.9 L17.5,35.5 C15.3,33.3 15.3,29.7 17.5,27.5 L26.5,18.5 C28.1,16.9 30.4,16.5 32.4,17.2" id="Shape"></path>
                <path d="M41.2,37.5 L37.1,41.6 C34.9,43.8 31.2,43.8 29,41.6 L28.7,41.3 C26.5,39.1 26.5,35.4 28.7,33.2 L32.8,29.1 C35,26.9 38.7,26.9 40.9,29.1 L41.2,29.4 C43.4,31.7 43.4,35.3 41.2,37.5 Z" id="Shape"></path>
            </g>
            <path d="M71.8,49.1 L70.6,47.9 C67.5,44.8 62.4,44.8 59.3,47.9 L59,48.2 C57.7,49.5 55.6,49.5 54.3,48.2 L47.4,41.3" id="Shape" class="stroke-primary" stroke-width="2.4533" stroke-linecap="round" stroke-linejoin="round"></path>
            <path d="M23.9,70.2 L21.2,67.5" id="Shape" class="stroke-primary" stroke-width="2.4533" stroke-linecap="round" stroke-linejoin="round"></path>
            <path d="M28,74.3 L27.7,74" id="Shape" class="stroke-primary" stroke-width="2.4533" stroke-linecap="round" stroke-linejoin="round"></path>
            <path d="M35.9,82.2 L31.3,77.6" id="Shape" class="stroke-primary" stroke-width="2.4533" stroke-linecap="round" stroke-linejoin="round"></path>
            <path d="M107.3,82 L124.5,64.9" id="Shape" class="stroke-primary" stroke-width="2.4533" stroke-linecap="round" stroke-linejoin="round"></path>
            <path d="M10.5,68.1 L0.4,58" id="Shape" class="stroke-primary" stroke-width="2.4533" stroke-linecap="round" stroke-linejoin="round"></path>
            <polyline id="Shape" class="stroke-primary" stroke-width="2.4533" stroke-linecap="round" stroke-linejoin="round" points="54 34.8 15.5 73.2 13.8 71.4"></polyline>
            <circle id="Oval" class="stroke-primary" stroke-width="2.4533" class="fill-neutral" fill-rule="nonzero" stroke-linecap="round" stroke-linejoin="round" cx="14.2" cy="58.9" r="3.3"></circle>
            <polyline id="Shape" class="stroke-primary" stroke-width="2.4533" stroke-linecap="round" stroke-linejoin="round" points="94.4 34.8 132.8 73.2 148 58"></polyline>
            <circle id="Oval" class="stroke-primary" stroke-width="2.4533" class="fill-neutral" fill-rule="nonzero" stroke-linecap="round" stroke-linejoin="round" cx="134.1" cy="58.9" r="3.3"></circle>
            <path d="M76.3,2.6 L76.3,0.3" id="Shape" class="stroke-primary-300" stroke-width="2.4533" stroke-linecap="round" stroke-linejoin="round"></path>
            <path d="M76.3,24.1 L76.3,9.4" id="Shape" class="stroke-primary-300" stroke-width="2.4533" stroke-linecap="round" stroke-linejoin="round"></path>
            <path d="M96.5,13.6 L104.8,0.3" id="Shape" class="stroke-primary-300" stroke-width="2.4533" stroke-linecap="round" stroke-linejoin="round"></path>
            <path d="M89.9,24.1 L92.8,19.5" id="Shape" class="stroke-primary-300" stroke-width="2.4533" stroke-linecap="round" stroke-linejoin="round"></path>
            <path d="M62.7,24.1 L54.2,10.5" id="Shape" class="stroke-primary-300" stroke-width="2.4533" stroke-linecap="round" stroke-linejoin="round"></path>
        </g>
    </g>
</svg>