<?xml version="1.0" encoding="UTF-8"?>
<svg width="101px" height="149px" viewBox="0 0 101 149" version="1.1" xmlns="http://www.w3.org/2000/svg" xmlns:xlink="http://www.w3.org/1999/xlink">
    <!-- Generator: Sketch 51.2 (57519) - http://www.bohemiancoding.com/sketch -->
    <title>Pay_With_Cash</title>
    <desc>Created with Sketch.</desc>
    <defs></defs>
    <g id="Page-1" stroke="none" stroke-width="1" fill="none" fill-rule="evenodd">
        <g id="Pay_With_Cash" transform="translate(2.000000, 2.000000)">
            <g id="Group">
                <path d="M97.1,5.9 L97.1,113.2 C97.1,116.4 94.5,119 91.3,119 L44.8,119 C41.6,119 39,116.4 39,113.2 L39,5.9 C39,2.7 41.6,0.1 44.8,0.1 L91.3,0.1 C94.5,0.1 97.1,2.7 97.1,5.9 Z" id="Shape" class="fill-neutral" fill-rule="nonzero"></path>
                <path d="M97.9,9.8 L97.9,113.4 C97.9,116.6 95.3,119.2 92.1,119.2 L48.9,119.2 C45.7,119.2 43.1,116.6 43.1,113.4 L43.1,9.8 C43.1,6.6 45.7,4 48.9,4 L92.1,4 C95.3,4 97.9,6.6 97.9,9.8 Z" id="Shape" class="fill-primary-300" fill-rule="nonzero"></path>
                <path d="M39,11.9 L39,6.4 C39,2.9 41.8,0.1 45.3,0.1 L90.9,0.1 C94.4,0.1 97.2,2.9 97.2,6.4 L97.2,112.7 C97.2,116.2 94.4,119 90.9,119 L60.4,119" id="Shape" class="stroke-primary" stroke-width="3" stroke-linecap="round" stroke-linejoin="round"></path>
                <path d="M39,17.7 L39,17.3" id="Shape" class="stroke-primary" stroke-width="3" stroke-linecap="round" stroke-linejoin="round"></path>
                <path d="M39,96.5 L39,28.9" id="Shape" class="stroke-primary" stroke-width="3" stroke-linecap="round" stroke-linejoin="round"></path>
                <path d="M39,46.1 L39,73.4 C25.7,88.2 27.3,84.4 26.5,98.8 C26.4,100 27.2,101.2 28.4,101.5 L38.2,104.4 C39.6,104.8 41.1,104.3 41.8,102.4 C43.7,97.8 42.3,101.3 49,85.1 C49.4,84.2 49.9,83.4 50.4,82.6 C53.4,78.8 58.7,77.4 63.3,79.5 C65.2,80.4 66.3,82.3 66.3,84.3 C66.3,84.9 66.2,85.4 66,86 C48.2,137.7 54.3,127.1 34.9,144.6 C33,146.3 32.6,145 3.7,145.3 C1.8,145.3 0.2,143.8 0.2,141.8 L0.2,90.5 C0.2,86.3 1.9,82.3 4.9,79.3 L39,46.1 Z" id="Shape" class="fill-neutral" fill-rule="nonzero"></path>
                <path d="M43.3,98.8 C44.2,98.1 43.8,98.7 50.5,82.5 C53.5,78.7 58.8,77.3 63.4,79.4 C65.3,80.3 66.4,82.2 66.4,84.2 C66.4,84.8 66.3,85.3 66.1,85.9 C48.8,136 53.7,127.7 38.9,141 C37.5,141.5 26.2,140.9 8.8,141.1 C6.9,141.1 5.3,139.6 5.3,137.6 L5.3,86.3 C5.3,82.1 7,78.1 10,75.1 L39,46.7 L39,73.2 C25.7,88 27.3,84.2 26.5,98.6 C26.4,99.8 27.2,101 28.4,101.3 C41.8,105.4 40.2,106.1 43.3,98.8 Z" id="Shape" class="fill-primary-100" fill-rule="nonzero"></path>
                <path d="M1,144 C0.5,143.4 0.2,142.7 0.2,141.8 L0.2,135.7" id="Shape" class="stroke-primary" stroke-width="3" stroke-linecap="round" stroke-linejoin="round"></path>
                <path d="M0.3,122.8 L0.3,90.6 C0.3,86.4 2,82.4 5,79.4 L39,46.1 L39,73.4 C29.4,84.1 27.3,85.6 27,90.5 L26.5,98.8 C26.4,100 27.2,101.2 28.4,101.5 L38.2,104.4 C39.5,104.8 41,104.3 41.8,102.4 L49,85.1 C51.3,79.5 57.8,77 63.3,79.6 C65.2,80.5 66.3,82.4 66.3,84.4 C66.3,85 66.2,85.5 66,86.1 C51.3,128.8 51.9,129.4 46.5,134.2 L34.8,144.7" id="Shape" class="stroke-primary" stroke-width="3" stroke-linecap="round" stroke-linejoin="round"></path>
                <path d="M0.3,128.2 L0.3,127.8" id="Shape" class="stroke-primary" stroke-width="3" stroke-linecap="round" stroke-linejoin="round"></path>
            </g>
            <path d="M46.8,75.5 L46.8,13.5 C49.8,13.5 52.3,11.1 52.3,8 L84.2,8 C84.2,11 86.6,13.5 89.7,13.5 L89.7,103.8 C86.7,103.8 84.2,106.2 84.2,109.3 L70.8,109.3" id="Shape" class="stroke-primary" stroke-width="3" stroke-linecap="round" stroke-linejoin="round"></path>
            <path d="M70,71.1 C69.4,71.2 68.8,71.2 68.2,71.2 C59.5,71.2 52.5,65.1 52.5,57.6 C52.5,54.2 53.9,51.1 56.3,48.7" id="Shape" class="stroke-primary" stroke-width="3" stroke-linecap="round" stroke-linejoin="round"></path>
            <path d="M61.4,45.3 C63.5,44.4 65.8,44 68.2,44 C76.9,44 83.9,50.1 83.9,57.6 C83.9,62.7 80.7,67.1 76,69.4" id="Shape" class="stroke-primary" stroke-width="3" stroke-linecap="round" stroke-linejoin="round"></path>
            <path d="M67.8,90.7 L67.8,94.1" id="Shape" class="stroke-primary" stroke-width="3" stroke-linecap="round" stroke-linejoin="round"></path>
            <path d="M67.8,31.5 L67.8,24.1" id="Shape" class="stroke-primary" stroke-width="3" stroke-linecap="round" stroke-linejoin="round"></path>
        </g>
    </g>
</svg>