<?xml version="1.0" encoding="UTF-8"?>
<svg width="149px" height="109px" viewBox="0 0 149 109" version="1.1" xmlns="http://www.w3.org/2000/svg" xmlns:xlink="http://www.w3.org/1999/xlink">
    <!-- Generator: Sketch 51.2 (57519) - http://www.bohemiancoding.com/sketch -->
    <title>Pay_With_Card</title>
    <desc>Created with Sketch.</desc>
    <defs></defs>
    <g id="Page-1" stroke="none" stroke-width="1" fill="none" fill-rule="evenodd">
        <g id="Pay_With_Card" transform="translate(1.000000, 1.000000)">
            <path d="M139.6,105.7 L55.4,105.7 C51.9,105.7 49.1,102.9 49.1,99.4 L49.1,49 C49.1,45.5 51.9,42.7 55.4,42.7 L139.6,42.7 C143.1,42.7 145.9,45.5 145.9,49 L145.9,99.4 C145.9,102.9 143.1,105.7 139.6,105.7 Z" id="Shape" class="fill-neutral" fill-rule="nonzero"></path>
            <path d="M139.6,105.7 L59.3,105.7 C55.8,105.7 53,102.9 53,99.4 L53,52.6 C53,49.1 55.8,46.3 59.3,46.3 L139.6,46.3 C143.1,46.3 145.9,49.1 145.9,52.6 L145.9,99.4 C145.9,102.9 143.1,105.7 139.6,105.7 Z" id="Shape" class="fill-primary-300" fill-rule="nonzero"></path>
            <path d="M133.1,42.7 L139.1,42.7 C142.9,42.7 145.9,45.8 145.9,49.5 L145.9,98.9 C145.9,102.7 142.8,105.7 139.1,105.7 L55.9,105.7 C52.1,105.7 49.1,102.6 49.1,98.9 L49.1,72.8" id="Shape" class="stroke-primary" stroke-width="3" stroke-linecap="round" stroke-linejoin="round"></path>
            <path d="M126.7,42.7 L127.2,42.7" id="Shape" class="stroke-primary" stroke-width="3" stroke-linecap="round" stroke-linejoin="round"></path>
            <path d="M59.6,42.7 L114.6,42.7" id="Shape" class="stroke-primary" stroke-width="3" stroke-linecap="round" stroke-linejoin="round"></path>
            <path d="M68.9,86.6 L145.9,86.6" id="Shape" class="stroke-primary" stroke-width="3" stroke-linecap="round" stroke-linejoin="round"></path>
            <path d="M55.9,86.6 L59,86.6" id="Shape" class="stroke-primary" stroke-width="3" stroke-linecap="round" stroke-linejoin="round"></path>
            <path d="M111.2,42.7 L81.6,42.7 L70.4,32.7 C68.4,30.9 65.8,29.8 63.1,29.6 L54.1,29.1 C52.8,29 51.5,29.9 51.2,31.2 L48.1,41.8 C47.6,43.3 48.4,45 49.9,45.6 L50.3,45.7 L54.1,47.3 L69.1,53.5 C70.1,53.9 71,54.4 71.8,55.1 C75.9,58.3 77.5,64.1 75.1,69 C74.1,71.1 72.1,72.3 69.9,72.3 C69.3,72.3 68.7,72.2 68,72 L49.1,65.5 L25.6,57.4 C21.8,56.1 18.5,53.9 15.8,50.9 L8.2,42.5 L4.4,38.2 C3.8,37.5 3.4,36.6 3.4,35.6 C3.5,30.3 3.6,12.3 3.6,4.3 C3.6,2.2 5.3,0.5 7.4,0.5 L63,0.5 C67.6,0.5 71.9,2.3 75.1,5.6 L111.2,42.7 Z" id="Shape" class="fill-neutral" fill-rule="nonzero"></path>
            <path d="M48.1,41.8 C47.6,43.3 48.4,45 49.9,45.6 L50.3,45.7 L54.1,47.3 C54.4,47.7 54.9,48.1 55.4,48.3 L55.8,48.4 L71.8,55.1 C75.9,58.3 77.5,64.1 75.1,69 C74.1,71.1 72.1,72.3 69.9,72.3 C69.3,72.3 68.7,72.2 68,72 L49.1,65.5 L25.6,57.4 C21.8,56.1 18.5,53.9 15.8,50.9 L8.2,42.5 C8,42.1 8,41.6 8,41.2 C8.1,35.9 8.2,17.9 8.2,9.9 C8.2,7.8 9.9,6.1 12,6.1 L67.6,6.1 C72.2,6.1 76.5,7.9 79.7,11.2 L110.5,42.6 L81.7,42.6 L70.5,32.6 C68.5,30.8 65.9,29.7 63.2,29.5 L54.2,29 C52.9,28.9 51.6,29.8 51.3,31.1 L48.1,41.8 Z" id="Shape" class="fill-primary-100" fill-rule="nonzero"></path>
            <path d="M5,1.5 C5.6,1 6.5,0.7 7.3,0.7 L14,0.7" id="Shape" class="stroke-primary" stroke-width="3" stroke-linecap="round" stroke-linejoin="round"></path>
            <path d="M28.1,0.7 L63,0.7 C67.6,0.7 71.9,2.5 75.1,5.8 L111.2,42.7 L81.6,42.7 L70.4,32.7 C68.4,30.9 65.8,29.8 63.1,29.6 L54.1,29.1 C52.8,29 51.5,29.9 51.2,31.2 L48.1,41.8 C47.6,43.3 48.4,45 49.9,45.6 L50.3,45.7 L69.1,53.5 C75.2,56 77.9,63.1 75.1,69 C74.1,71.1 72.1,72.3 69.9,72.3 C69.3,72.3 68.7,72.2 68,72 L49.1,65.5 L25.6,57.4 C21.8,56.1 18.5,53.9 15.8,50.9 L4.4,38.2" id="Shape" class="stroke-primary" stroke-width="3" stroke-linecap="round" stroke-linejoin="round"></path>
            <path d="M22.2,0.7 L22.6,0.7" id="Shape" class="stroke-primary" stroke-width="3" stroke-linecap="round" stroke-linejoin="round"></path>
            <path d="M16.6,83.4 L13.6,83.4" id="Shape" class="stroke-primary-300" stroke-width="3" stroke-linecap="round" stroke-linejoin="round"></path>
            <path d="M39.5,83.4 L21.7,83.4" id="Shape" class="stroke-primary-300" stroke-width="3" stroke-linecap="round" stroke-linejoin="round"></path>
            <path d="M12.6,93.4 L0.6,93.4" id="Shape" class="stroke-primary-300" stroke-width="3" stroke-linecap="round" stroke-linejoin="round"></path>
            <path d="M39.5,93.4 L21.2,93.4" id="Shape" class="stroke-primary-300" stroke-width="3" stroke-linecap="round" stroke-linejoin="round"></path>
        </g>
    </g>
</svg>