<?xml version="1.0" encoding="UTF-8"?>
<svg width="151px" height="98px" viewBox="0 0 151 98" version="1.1" xmlns="http://www.w3.org/2000/svg" xmlns:xlink="http://www.w3.org/1999/xlink">
    <!-- Generator: Sketch 51.2 (57519) - http://www.bohemiancoding.com/sketch -->
    <title>Pen_tool</title>
    <desc>Created with Sketch.</desc>
    <defs></defs>
    <g id="Page-1" stroke="none" stroke-width="1" fill="none" fill-rule="evenodd">
        <g id="Pen_tool" transform="translate(1.000000, 2.000000)">
            <path d="M13.9,6.8 L132.1,6.8" id="Shape" class="stroke-primary" stroke-width="3" stroke-linecap="round" stroke-linejoin="round"></path>
            <path d="M60.5,27.2 L71.2,7.8 C72,6.4 74,6.4 74.7,7.8 L99.1,52.1 C99.5,52.8 99.6,53.5 99.5,54.2 C99.4,55.4 98.7,56.6 97.5,57.2 C90.8,60.6 88.2,65.4 87.6,75 L58.3,75 C58.2,72.9 58,71.1 57.6,69.4 C56.4,64.4 53.9,61.3 49.1,58.2 C48.7,58 48.4,57.7 48,57.5 C46.3,56.5 45.8,54.3 46.7,52.6 L52.8,41.5" id="Shape" class="fill-neutral" fill-rule="nonzero"></path>
            <path d="M56.9,33.8 L58,31.8" id="Shape" class="fill-neutral" fill-rule="nonzero"></path>
            <path d="M99.5,54.2 C99.4,55.4 98.7,56.6 97.5,57.2 C92.2,59.9 89.5,63.4 88.3,69.6 C88,71.2 87.8,73 87.6,75 L58.5,75.2 C58,73.1 58.7,71.1 57.7,69.6 C57.7,69.5 57.6,69.5 57.6,69.4 C57,66.6 55.9,64.4 54.2,62.4 C51.5,59.3 50.9,54.9 52.9,51.3 L73.7,13.5 C74.5,12.1 76.5,12.1 77.2,13.5 L99.5,54.2 Z" id="Shape" class="fill-primary-300" fill-rule="nonzero"></path>
            <circle id="Oval" class="fill-neutral" fill-rule="nonzero" cx="73" cy="55.1" r="7.2"></circle>
            <path d="M88.3,69.6 C88,71.2 87.8,73 87.6,75 L58.5,75.2 C58,73.1 58.7,71.1 57.7,69.6 L88.3,69.6 Z" id="Shape" fill="#5CA5FF" fill-rule="nonzero"></path>
            <path d="M57.1,33.4 L56.9,33.8" id="Shape" class="stroke-primary" stroke-width="3" stroke-linecap="round" stroke-linejoin="round"></path>
            <path d="M54.7,37.8 L46.6,52.6 C45.7,54.3 46.2,56.5 47.9,57.5 C55.1,61.9 57.9,66.1 58.3,75 L73,75 L87.7,75 C88.4,65.4 90.9,60.6 97.6,57.3 C99.5,56.4 100.2,54.1 99.2,52.3 L74.8,8 C74,6.6 72,6.6 71.3,8 L61.1,26.6" id="Shape" class="stroke-primary" stroke-width="3" stroke-linecap="round" stroke-linejoin="round"></path>
            <path d="M72.8,38.6 L72.8,41.2" id="Shape" class="stroke-primary" stroke-width="3" stroke-linecap="round" stroke-linejoin="round"></path>
            <path d="M72.8,6.8 L72.8,32.3" id="Shape" class="stroke-primary" stroke-width="3" stroke-linecap="round" stroke-linejoin="round"></path>
            <path d="M75.5,62 C74.7,62.3 73.8,62.5 72.9,62.5 C69,62.5 65.8,59.3 65.8,55.4 C65.8,54.6 65.9,53.9 66.1,53.2" id="Shape" class="stroke-primary" stroke-width="3" stroke-linecap="round" stroke-linejoin="round"></path>
            <path d="M73.1,48.2 C76.9,48.3 80,51.5 80,55.3 C80,57.1 79.3,58.7 78.2,60" id="Shape" class="stroke-primary" stroke-width="3" stroke-linecap="round" stroke-linejoin="round"></path>
            <path d="M68.1,50 C68.2,50 68.2,50 68.1,50" id="Shape" class="stroke-primary" stroke-width="3" stroke-linecap="round" stroke-linejoin="round"></path>
            <path d="M82.6,94.1 L55.5,94.1 C54,94.1 52.7,92.9 52.7,91.3 L52.7,85.2" id="Shape" class="stroke-primary" stroke-width="3" stroke-linecap="round" stroke-linejoin="round"></path>
            <path d="M52.7,79.5 L52.7,77.8 C52.7,76.3 53.9,75 55.5,75 L90.2,75 C91.7,75 93,76.2 93,77.8 L93,91.3 C93,92.8 91.8,94.1 90.2,94.1 L89.1,94.1" id="Shape" class="stroke-primary" stroke-width="3" stroke-linecap="round" stroke-linejoin="round"></path>
            <path d="M5.7,57.1 C14.6,27.8 41.9,6.4 74.2,6.4 C106.5,6.4 133.8,27.7 142.7,57.1" id="Shape" class="stroke-primary" stroke-width="3" stroke-linecap="round" stroke-linejoin="round"></path>
            <path d="M79.1,7.2 L73.8,12.5 C73.4,12.9 72.7,12.9 72.3,12.5 L67,7.2 C66.6,6.8 66.6,6.1 67,5.7 L72.3,0.4 C72.7,0 73.4,0 73.8,0.4 L79.1,5.7 C79.5,6.1 79.5,6.7 79.1,7.2 Z" id="Shape" stroke-width="3" class="stroke-primary fill-neutral" fill-rule="nonzero" stroke-linecap="round" stroke-linejoin="round"></path>
            <rect id="Rectangle-path" stroke-width="2.99997123" class="stroke-primaryfill-neutral" fill-rule="nonzero" stroke-linecap="round" stroke-linejoin="round" transform="translate(7.323910, 58.723740) rotate(-45.000000) translate(-7.323910, -58.723740) " x="2.47395651" y="53.8737865" width="9.69990698" height="9.69990698"></rect>
            <rect id="Rectangle-path" stroke-width="2.99997123" class="stroke-primaryfill-neutral" fill-rule="nonzero" stroke-linecap="round" stroke-linejoin="round" transform="translate(140.916970, 58.710280) rotate(-45.000000) translate(-140.916970, -58.710280) " x="136.067017" y="53.8603265" width="9.69990698" height="9.69990698"></rect>
            <circle id="Oval" stroke-width="3" class="stroke-primary fill-neutral" fill-rule="nonzero" stroke-linecap="round" stroke-linejoin="round" cx="134.5" cy="6.4" r="4"></circle>
            <circle id="Oval" stroke-width="3" class="stroke-primary fill-neutral" fill-rule="nonzero" stroke-linecap="round" stroke-linejoin="round" cx="13" cy="6.4" r="4"></circle>
        </g> 
    </g>
</svg>
