<?xml version="1.0" encoding="UTF-8"?>
<svg width="145px" height="150px" viewBox="0 0 145 150" version="1.1" xmlns="http://www.w3.org/2000/svg" xmlns:xlink="http://www.w3.org/1999/xlink">
    <!-- Generator: Sketch 51.2 (57519) - http://www.bohemiancoding.com/sketch -->
    <title>Phone_1_</title>
    <desc>Created with Sketch.</desc>
    <defs></defs>
    <g id="Page-1" stroke="none" stroke-width="1" fill="none" fill-rule="evenodd">
        <g id="Phone_1_" transform="translate(1.000000, 2.000000)">
            <g id="Group">
                <path d="M101.7,4.8 C106.1,6.1 110.5,7.7 114.9,9.6 C120.9,12.2 126.6,15.4 131.8,19.5 C138.3,24.6 141.5,31.4 142.1,39.5 C142.3,42.3 142.3,45.2 142.2,48 C142.1,55.8 136.4,62.2 128.7,62.7 C122.5,63.1 116.2,63.1 109.9,62.7 C102.4,62.2 96.8,56.3 96.2,48.7 C96,46.4 96.1,44.2 96.1,41.9 C96,36.9 93.7,34.3 88.9,33.4 C77,31.3 65.2,31.6 53.4,33.6 C49,34.3 46.7,37.1 46.7,41.6 C46.7,43.9 46.7,46.2 46.7,48.4 C46.5,56.3 40.5,62.6 32.7,63 C27,63.3 21.2,63.3 15.4,63.1 C7.6,62.8 1.5,57 0.9,49.3 C0.4,42.5 -0.1,35.6 3.1,29.2 C4.4,26.5 6.2,24.1 7.2,22.5 C13.7,16.7 20,12.9 26.9,9.9 C51.8,-0.8 76.7,-2.6 101.7,4.8" id="Shape" class="fill-primary-200" fill-rule="nonzero"></path>
                <path d="M2.4,44.8 C2,40.3 1.7,35.7 2.7,31.3 C2.7,31.2 2.7,31.2 2.7,31.1 C2.8,30.5 3,29.9 3.2,29.3 C3.2,29.3 3.2,29.3 3.2,29.3 C3.5,28.8 3.7,28.3 4,27.8 C5,26.1 6,24.6 6.8,23.4 C7,23.2 7.1,22.9 7.2,22.7 C7.4,22.5 7.6,22.3 7.8,22.2 C12.1,18.4 16.3,15.5 20.7,13.2 C21.2,12.9 21.7,12.7 22.1,12.4 C22.2,12.4 22.2,12.3 22.3,12.3 C22.8,12 23.4,11.8 23.9,11.5 C24.8,11.1 25.7,10.6 26.6,10.2 C55.4,-2.4 84.5,-2.6 113.7,9.9 C114.6,10.3 115.5,10.7 116.3,11.1 C117.2,11.5 118,11.9 118.9,12.4 C119.6,12.8 120.3,13.1 121,13.5 C121.3,13.7 121.6,13.8 121.9,14 C122.5,14.4 123.1,14.7 123.7,15.1 C123.8,15.1 123.9,15.2 123.9,15.2 C124.5,15.7 125.1,16.1 125.7,16.6 C126.6,17.3 127.4,18 128.1,18.7 C129.1,19.7 130,20.7 130.7,21.8 C130.8,22 130.9,22.1 131,22.3 C131.2,22.5 131.3,22.8 131.5,23 C131.6,23.1 131.6,23.1 131.6,23.2 C131.7,23.4 131.9,23.6 132,23.9 C132.1,24.1 132.2,24.2 132.3,24.4 C132.4,24.6 132.5,24.8 132.6,25.1 C132.7,25.4 132.9,25.6 133,25.9 C133.2,26.4 133.5,27 133.6,27.5 C133.7,27.7 133.7,27.8 133.8,28 C133.9,28.2 134,28.4 134,28.6 C134.1,28.9 134.2,29.1 134.2,29.4 C134.3,29.8 134.4,30.1 134.5,30.5 C134.5,30.7 134.6,30.8 134.6,31 C134.7,31.3 134.7,31.6 134.8,31.9 C134.9,32.6 135,33.3 135.1,34 C135.2,34.5 135.2,35 135.2,35.5 C135.4,38.2 135.3,40.9 135.3,43.5 C135.2,50.8 129.9,56.9 122.6,57.4 C122.1,57.4 121.5,57.5 120.9,57.5 C115.2,57.7 107.9,57.4 103,57 C102.7,57 102.4,57 102.2,56.9 C100.4,56.4 98.8,55.6 97.4,54.5 C96.9,54.1 96.5,53.7 96,53.3 C95.4,51.9 95.1,50.3 94.9,48.7 C94.7,46.5 94.8,44.2 94.8,41.9 C94.8,41.7 94.8,41.6 94.8,41.4 C94.8,41.4 94.8,41.4 94.8,41.4 C94.8,40.4 94.6,39.5 94.4,38.7 C93.9,37 93,35.8 91.6,34.9 C91.5,34.6 91.4,34.3 91.3,34.1 C90.4,31.8 88.3,30.4 85.2,29.8 C74,27.8 62.9,28.1 51.7,29.9 C47.6,30.6 45.4,33.2 45.4,37.4 C45.4,39.6 45.4,41.7 45.4,43.9 C45.3,50.5 40.6,56.1 34.3,57.4 C34,57.5 33.6,57.5 33.2,57.6 C32.8,57.6 32.5,57.7 32.1,57.7 C26.7,57.9 21.2,58 15.8,57.8 C15.6,57.8 15.4,57.8 15.1,57.8 C15,57.8 14.8,57.8 14.7,57.8 C14.5,57.8 14.3,57.8 14.2,57.7 C13,57.5 11.9,57.2 10.8,56.8 C10.6,56.7 10.4,56.6 10.2,56.6 C10,56.5 9.8,56.4 9.7,56.3 C9.2,56.1 8.8,55.8 8.4,55.5 C8.3,55.4 8.2,55.4 8.1,55.3 C7.9,55.2 7.8,55.1 7.6,55 C7.4,54.8 7.1,54.6 6.9,54.5 C6.7,54.3 6.5,54.1 6.3,53.9 C6.2,53.8 6.1,53.7 5.9,53.5 C5.8,53.4 5.6,53.2 5.5,53.1 C3.9,50.8 2.6,48 2.4,44.8 Z" id="Shape" class="fill-primary-400" fill-rule="nonzero"></path>
                <path d="M2.4,44.8 C2.1,40.3 1.4,35.6 2.7,31.3 C2.7,31.2 2.7,31.2 2.7,31.1 C3,30 3.5,28.9 4,27.8 C4.7,26.2 5.7,24.8 6.8,23.4 C7.1,23 7.5,22.6 7.9,22.2 C8.6,21.5 9.3,20.8 10,20.2 C13.3,17.5 17,15.2 20.8,13.1 C21.3,12.8 21.8,12.6 22.2,12.3 C22.3,12.3 22.3,12.2 22.4,12.2 C22.9,11.9 23.5,11.7 24,11.4 C24.9,11 25.8,10.5 26.7,10.1 C55.5,-2.5 84.6,-2.7 113.8,9.8 C114.7,10.2 115.6,10.6 116.4,11 C117.3,11.4 118.1,11.8 119,12.3 C119.7,12.7 120.4,13 121.1,13.4 C121.4,13.6 121.7,13.7 122,13.9 C122.6,14.3 123.2,14.6 123.8,15 C123.9,15 124,15.1 124,15.1 C124.6,15.6 125.2,16 125.8,16.5 C126.7,17.2 127.5,17.9 128.2,18.6 C129.2,19.6 130.1,20.6 130.8,21.7 C130.9,21.9 131,22 131.1,22.2 C131.3,22.4 131.4,22.7 131.6,22.9 C131.7,23 131.7,23 131.7,23.1 C131.8,23.3 132,23.5 132.1,23.8 C132.2,24 132.3,24.1 132.4,24.3 C132.5,24.5 132.6,24.7 132.7,25 C132.8,25.3 133,25.5 133.1,25.8 C133.3,26.3 133.6,26.9 133.7,27.4 C133.8,27.6 133.8,27.7 133.9,27.9 C134,28.1 134.1,28.3 134.1,28.5 C134.2,28.8 134.3,29 134.3,29.3 C134.4,29.7 134.5,30 134.6,30.4 C134.6,30.6 134.7,30.7 134.7,30.9 C134.8,31.2 134.8,31.5 134.9,31.8 C135,32.5 135.1,33.2 135.2,33.9 C135.3,34.4 135.3,34.9 135.3,35.4 C135.5,38.1 135.4,40.8 135.4,43.4 C135.3,50.7 130,56.8 122.7,57.3 C122.2,57.3 121.6,57.4 121,57.4 C115.3,57.6 108,57.3 103.1,56.9 C102.7,55.8 102.5,54.5 102.4,53.3 C102.2,51.2 102.3,49 102.3,46.9 C102.3,45.8 102.2,44.9 101.9,44 C101.1,41.2 101.3,42.4 97.8,41.8 C97.2,41.7 96.6,41.6 96,41.5 C95.6,41.4 95.3,41.4 94.9,41.3 C94.8,41.3 94.6,41.3 94.5,41.2 C94.5,40.2 94.5,39.3 94.5,38.6 C94.5,38.4 94.5,38.2 94.5,38 C94.5,37.8 94.5,37.6 94.4,37.4 C94.3,36.9 94.2,36.5 94.1,36 C93.4,33.6 93.4,34.1 91.3,34 C90.9,34 90.5,33.9 89.9,33.8 C78.7,31.8 65.1,30.9 53.9,32.7 C49.8,33.4 47.1,33.3 47,37.5 C47,39.7 47,41.8 47,43.9 C46.8,50.6 40.8,56 34.2,57.2 C33.9,57.3 33.5,57.3 33.1,57.4 C32.7,57.4 32.4,57.5 32,57.5 C26.6,57.7 21.1,57.8 15.7,57.6 C15.5,57.6 15.3,57.6 15,57.6 C14.9,57.6 14.7,57.6 14.6,57.6 C14.4,57.6 14.2,57.6 14.1,57.5 C12.9,57.3 11.8,57 10.7,56.6 C10.5,56.5 10.3,56.4 10.1,56.4 C9.9,56.3 9.7,56.2 9.6,56.1 C9.1,55.9 8.7,55.6 8.3,55.3 C8.2,55.2 8.1,55.2 8,55.1 C7.8,55 7.7,54.9 7.5,54.8 C7.3,54.6 7,54.4 6.8,54.3 C6.6,54.1 6.4,53.9 6.2,53.7 C6.1,53.6 6,53.5 5.8,53.3 C5.7,53.2 5.5,53 5.4,52.9 C3.9,50.8 2.6,48 2.4,44.8 Z" id="Shape" class="fill-neutral" fill-rule="nonzero"></path>
                <path d="M11,56.7 C10.5,55.5 10.2,54.1 10.1,52.8 C9.8,48.3 9.1,43.5 10.4,39.1 C11.6,34.9 14.2,31 17.6,28.2 C21.3,25.2 25.6,22.6 29.8,20.4 C31.3,19.6 32.8,18.9 34.3,18.3 C63.1,5.7 92.2,5.5 121.4,18 C125,19.5 128.4,21.3 131.7,23.3 C131.7,23.3 131.8,23.3 131.8,23.4 C131.9,23.6 132.1,23.8 132.2,24.1 C132.3,24.3 132.4,24.4 132.5,24.6 C132.6,24.8 132.7,25 132.8,25.3 C132.9,25.6 133.1,25.8 133.2,26.1 C133.4,26.6 133.7,27.2 133.8,27.7 C133.9,27.9 133.9,28 134,28.2 C134.1,28.4 134.2,28.6 134.2,28.8 C134.3,29.1 134.4,29.3 134.4,29.6 C134.5,30 134.6,30.3 134.7,30.7 C134.7,30.9 134.8,31 134.8,31.2 C134.9,31.5 134.9,31.8 135,32.1 C135.1,32.8 135.2,33.5 135.3,34.2 C135.4,34.7 135.4,35.2 135.4,35.7 C135.6,38.4 135.5,41.1 135.5,43.7 C135.4,51 130.1,57.1 122.8,57.6 C122.3,57.6 121.7,57.7 121.1,57.7 C115.4,57.9 108.1,57.6 103.2,57.2 C102.9,57.2 102.6,57.2 102.4,57.1 C100.3,56.9 98.8,56.8 98.1,56.7 C97.9,56 97.7,55.3 97.6,54.7 C96.8,50.6 97.7,46.6 96.9,43.6 C96.6,42.6 96.4,42 96.2,41.8 C95.9,41.4 95.6,41.6 95.1,41.6 C95,41.6 94.8,41.6 94.7,41.6 C94.7,40.6 94.7,39.7 94.7,39 C94.7,38.8 94.7,38.6 94.7,38.4 C94.7,38.2 94.7,38 94.6,37.8 C94.5,37.3 94.4,36.9 94.3,36.4 C93.6,34 93.6,34.5 91.5,34.4 C91.1,34.4 90.7,34.3 90.1,34.2 C78.9,32.2 65.3,31.3 54.1,33.1 C50,33.8 47.3,33.7 47.2,37.9 C47.2,40.1 47.2,42.2 47.2,44.3 C47,51 41,56.4 34.4,57.6 C34.1,57.7 33.7,57.7 33.3,57.8 C32.9,57.8 32.6,57.9 32.2,57.9 C26.8,58.1 21.3,58.2 15.9,58 C15.7,58 15.5,58 15.2,58 C15.1,58 14.9,58 14.8,58 C14.6,58 14.4,58 14.3,57.9 C13.3,57.5 12.1,57.2 11,56.7 Z" id="Shape" class="fill-primary-100" fill-rule="nonzero"></path>
                <path d="M117.8,63 C117.7,63 117.6,63 117.6,63" id="Shape" class="stroke-primary" stroke-width="3.2" stroke-linecap="round" stroke-linejoin="round"></path>
                <path d="M102.7,5.2 C106.7,6.4 110.8,7.9 115,9.7 C121,12.3 126.7,15.5 131.9,19.6 C138.4,24.7 141.6,31.5 142.2,39.6 C142.4,42.4 142.4,45.3 142.3,48.1 C142.2,55.9 136.5,62.3 128.8,62.8 C127.6,62.9 126.4,62.9 125.1,63" id="Shape" class="stroke-primary" stroke-width="3.2" stroke-linecap="round" stroke-linejoin="round"></path>
                <path d="M48.2,2.8 C62,-0.1 78.2,-0.7 95.5,3.3" id="Shape" class="stroke-primary" stroke-width="3.2" stroke-linecap="round" stroke-linejoin="round"></path>
                <path d="M110,62.7 C102.5,62.2 96.9,56.3 96.3,48.7 C96.1,46.4 96.2,44.2 96.2,41.9 C96.1,36.9 93.8,34.3 89,33.4 C77.1,31.3 65.3,31.6 53.5,33.6 C49.1,34.3 46.8,37.1 46.8,41.6 C46.8,43.9 46.8,46.2 46.8,48.4 C46.6,56.3 40.6,62.6 32.8,63 C27.1,63.3 21.3,63.3 15.5,63.1 C7.7,62.8 1.6,57 1,49.3 C0.2,39.3 3.10862447e-15,31.5 7.7,22.8 C13.1,16.7 24.8,9.3 40.5,4.7" id="Shape" class="stroke-primary" stroke-width="3.2" stroke-linecap="round" stroke-linejoin="round"></path>
                <path d="M121.7,48.6 L142.2,48.9" id="Shape" class="stroke-primary" stroke-width="3.2" stroke-linecap="round" stroke-linejoin="round"></path>
                <path d="M109.4,48.4 L113.4,48.4" id="Shape" class="stroke-primary" stroke-width="3.2" stroke-linecap="round" stroke-linejoin="round"></path>
                <path d="M13.7,48.2 L46.6,48.7" id="Shape" class="stroke-primary" stroke-width="3.2" stroke-linecap="round" stroke-linejoin="round"></path>
            </g>
            <g id="Group" transform="translate(34.000000, 77.000000)" class="fill-neutral" fill-rule="nonzero">
                <path d="M16.3,8.7 C16.3,13.1 12.7,16.7 8.3,16.7 C6.1,16.7 4.1,15.8 2.7,14.4 C1.2,13 0.3,10.9 0.3,8.7 C0.3,4.3 3.9,0.7 8.3,0.7 C12.4,0.7 15.7,3.7 16.2,7.7 C16.3,8 16.3,8.3 16.3,8.7 Z" id="Shape"></path>
                <path d="M45.5,8.7 C45.5,13.1 41.9,16.7 37.5,16.7 C35.3,16.7 33.3,15.8 31.9,14.4 C30.4,13 29.5,10.9 29.5,8.7 C29.5,4.3 33.1,0.7 37.5,0.7 C41.6,0.7 44.9,3.7 45.4,7.7 C45.5,8 45.5,8.3 45.5,8.7 Z" id="Shape"></path>
                <path d="M74.7,8.7 C74.7,13.1 71.1,16.7 66.7,16.7 C64.5,16.7 62.5,15.8 61.1,14.4 C59.6,13 58.7,10.9 58.7,8.7 C58.7,4.3 62.3,0.7 66.7,0.7 C70.8,0.7 74.1,3.7 74.6,7.7 C74.7,8 74.7,8.3 74.7,8.7 Z" id="Shape"></path>
                <path d="M16.3,34.9 C16.3,39.3 12.7,42.9 8.3,42.9 C6.1,42.9 4.1,42 2.7,40.6 C1.2,39.2 0.3,37.1 0.3,34.9 C0.3,30.5 3.9,26.9 8.3,26.9 C12.4,26.9 15.7,29.9 16.2,33.8 C16.3,34.1 16.3,34.5 16.3,34.9 Z" id="Shape"></path>
                <path d="M45.5,34.9 C45.5,39.3 41.9,42.9 37.5,42.9 C35.3,42.9 33.3,42 31.9,40.6 C30.4,39.2 29.5,37.1 29.5,34.9 C29.5,30.5 33.1,26.9 37.5,26.9 C41.6,26.9 44.9,29.9 45.4,33.8 C45.5,34.1 45.5,34.5 45.5,34.9 Z" id="Shape"></path>
                <path d="M74.7,34.9 C74.7,39.3 71.1,42.9 66.7,42.9 C64.5,42.9 62.5,42 61.1,40.6 C59.6,39.2 58.7,37.1 58.7,34.9 C58.7,30.5 62.3,26.9 66.7,26.9 C70.8,26.9 74.1,29.9 74.6,33.8 C74.7,34.1 74.7,34.5 74.7,34.9 Z" id="Shape"></path>
                <path d="M16.3,61 C16.3,65.4 12.7,69 8.3,69 C6.1,69 4.1,68.1 2.7,66.7 C1.2,65.3 0.3,63.2 0.3,61 C0.3,56.6 3.9,53 8.3,53 C12.4,53 15.7,56 16.2,59.9 C16.3,60.3 16.3,60.7 16.3,61 Z" id="Shape"></path>
                <path d="M45.5,61 C45.5,65.4 41.9,69 37.5,69 C35.3,69 33.3,68.1 31.9,66.7 C30.4,65.3 29.5,63.2 29.5,61 C29.5,56.6 33.1,53 37.5,53 C41.6,53 44.9,56 45.4,59.9 C45.5,60.3 45.5,60.7 45.5,61 Z" id="Shape"></path>
                <path d="M74.7,61 C74.7,65.4 71.1,69 66.7,69 C64.5,69 62.5,68.1 61.1,66.7 C59.6,65.3 58.7,63.2 58.7,61 C58.7,56.6 62.3,53 66.7,53 C70.8,53 74.1,56 74.6,59.9 C74.7,60.3 74.7,60.7 74.7,61 Z" id="Shape"></path>
            </g>
            <g id="Group" transform="translate(36.000000, 82.000000)" class="fill-primary-100" fill-rule="nonzero">
                <path d="M14.3,3.7 C14.3,8.1 10.7,11.7 6.3,11.7 C4.1,11.7 2.1,10.8 0.7,9.4 C0.6,9.1 0.6,8.7 0.6,8.4 C0.6,4 4.2,0.4 8.6,0.4 C10.8,0.4 12.8,1.3 14.2,2.7 C14.3,3 14.3,3.3 14.3,3.7 Z" id="Shape"></path>
                <path d="M43.5,3.7 C43.5,8.1 39.9,11.7 35.5,11.7 C33.3,11.7 31.3,10.8 29.9,9.4 C29.8,9.1 29.8,8.7 29.8,8.4 C29.8,4 33.4,0.4 37.8,0.4 C40,0.4 42,1.3 43.4,2.7 C43.5,3 43.5,3.3 43.5,3.7 Z" id="Shape"></path>
                <path d="M72.7,3.7 C72.7,8.1 69.1,11.7 64.7,11.7 C62.5,11.7 60.5,10.8 59.1,9.4 C59,9.1 59,8.7 59,8.4 C59,4 62.6,0.4 67,0.4 C69.2,0.4 71.2,1.3 72.6,2.7 C72.7,3 72.7,3.3 72.7,3.7 Z" id="Shape"></path>
                <path d="M14.3,29.9 C14.3,34.3 10.7,37.9 6.3,37.9 C4.1,37.9 2.1,37 0.7,35.6 C0.6,35.3 0.6,34.9 0.6,34.6 C0.6,30.2 4.2,26.6 8.6,26.6 C10.8,26.6 12.8,27.5 14.2,28.9 C14.3,29.1 14.3,29.5 14.3,29.9 Z" id="Shape"></path>
                <path d="M43.5,29.9 C43.5,34.3 39.9,37.9 35.5,37.9 C33.3,37.9 31.3,37 29.9,35.6 C29.8,35.3 29.8,34.9 29.8,34.6 C29.8,30.2 33.4,26.6 37.8,26.6 C40,26.6 42,27.5 43.4,28.9 C43.5,29.1 43.5,29.5 43.5,29.9 Z" id="Shape"></path>
                <path d="M72.7,29.9 C72.7,34.3 69.1,37.9 64.7,37.9 C62.5,37.9 60.5,37 59.1,35.6 C59,35.3 59,34.9 59,34.6 C59,30.2 62.6,26.6 67,26.6 C69.2,26.6 71.2,27.5 72.6,28.9 C72.7,29.1 72.7,29.5 72.7,29.9 Z" id="Shape"></path>
                <path d="M14.3,56 C14.3,60.4 10.7,64 6.3,64 C4.1,64 2.1,63.1 0.7,61.7 C0.6,61.4 0.6,61 0.6,60.7 C0.6,56.3 4.2,52.7 8.6,52.7 C10.8,52.7 12.8,53.6 14.2,55 C14.3,55.3 14.3,55.7 14.3,56 Z" id="Shape"></path>
                <path d="M43.5,56 C43.5,60.4 39.9,64 35.5,64 C33.3,64 31.3,63.1 29.9,61.7 C29.8,61.4 29.8,61 29.8,60.7 C29.8,56.3 33.4,52.7 37.8,52.7 C40,52.7 42,53.6 43.4,55 C43.5,55.3 43.5,55.7 43.5,56 Z" id="Shape"></path>
                <path d="M72.7,56 C72.7,60.4 69.1,64 64.7,64 C62.5,64 60.5,63.1 59.1,61.7 C59,61.4 59,61 59,60.7 C59,56.3 62.6,52.7 67,52.7 C69.2,52.7 71.2,53.6 72.6,55 C72.7,55.3 72.7,55.7 72.7,56 Z" id="Shape"></path>
            </g>
            <g id="Group" transform="translate(34.000000, 77.000000)" class="stroke-primary" stroke-linecap="round" stroke-linejoin="round" stroke-width="3.2">
                <path d="M3.9,2 C5.2,1.2 6.7,0.7 8.3,0.7 C12.7,0.7 16.3,4.3 16.3,8.7 C16.3,13.1 12.7,16.7 8.3,16.7 C3.9,16.7 0.3,13.1 0.3,8.7" id="Shape"></path>
                <circle id="Oval" cx="37.5" cy="8.7" r="8"></circle>
                <path d="M69.1,16.3 C68.3,16.5 67.5,16.7 66.7,16.7 C62.3,16.7 58.7,13.1 58.7,8.7 C58.7,4.3 62.3,0.7 66.7,0.7 C71.1,0.7 74.7,4.3 74.7,8.7" id="Shape"></path>
                <circle id="Oval" cx="8.3" cy="34.9" r="8"></circle>
                <path d="M31.5,29.5 C33,27.9 35.1,26.8 37.5,26.8 C41.1,26.8 44.2,29.2 45.2,32.5" id="Shape"></path>
                <path d="M43,40.6 C41.6,42 39.6,42.9 37.4,42.9 C33.7,42.9 30.6,40.4 29.7,37" id="Shape"></path>
                <circle id="Oval" cx="66.7" cy="34.9" r="8"></circle>
                <circle id="Oval" cx="8.3" cy="61" r="8"></circle>
                <circle id="Oval" cx="37.5" cy="61" r="8"></circle>
                <path d="M62.1,54.5 C63.4,53.6 65,53 66.7,53 C71.1,53 74.7,56.6 74.7,61 C74.7,65.4 71.1,69 66.7,69 C63,69 59.8,66.4 58.9,63" id="Shape"></path>
            </g>
        </g>
    </g>
</svg>