<?xml version="1.0" encoding="UTF-8"?>
<svg width="150px" height="148px" viewBox="0 0 150 148" version="1.1" xmlns="http://www.w3.org/2000/svg" xmlns:xlink="http://www.w3.org/1999/xlink">
    <!-- Generator: Sketch 51.2 (57519) - http://www.bohemiancoding.com/sketch -->
    <title>Piggybank</title>
    <desc>Created with Sketch.</desc>
    <defs></defs>
    <g id="Page-1" stroke="none" stroke-width="1" fill="none" fill-rule="evenodd">
        <g id="Piggybank" transform="translate(1.000000, 0.000000)">
            <g id="Group" transform="translate(0.000000, 145.000000)" class="stroke-primary-300" stroke-linecap="round" stroke-linejoin="round" stroke-width="3">
                <path d="M1.7,0.5 L0.8,0.5" id="Shape"></path>
                <path d="M27.5,0.5 L5.4,0.5" id="Shape"></path>
                <path d="M32.3,0.5 L31.5,0.5" id="Shape"></path>
                <path d="M105.8,0.5 L37.2,0.5" id="Shape"></path>
                <path d="M137.8,0.5 L109.6,0.5" id="Shape"></path>
                <path d="M142.8,0.5 L141.4,0.5" id="Shape"></path>
                <path d="M147,0.5 L146.7,0.5" id="Shape"></path>
            </g>
            <path d="M140.7,84.8 C140.7,84 140.7,83.3 140.6,82.7 C139.7,76.1 134.1,80.8 128.8,77.7 C127.8,77.1 126.9,76.3 125.9,75.1 C120,67.3 112.4,61.7 118.8,48.9 C119.1,48.4 119.4,47.8 119.7,47.3 C119.7,47.3 119.7,47.3 119.7,47.3 C120.4,46 119.3,44.5 117.9,44.6 C117.8,44.6 117.8,44.6 117.7,44.6 C106.3,46.3 107.2,51.1 100,51 C90.9,50.9 71.6,51 55.7,51 C27.2,50.9 11.9,81.1 26,103.6 C33.8,116.1 40.4,129.2 44.4,143.4 C44.9,145.2 45.7,145.6 47.8,145.6 C49.3,145.6 51.4,145.5 54.4,145.6 C56.1,145.6 57,144.8 57.5,143.3 C58.4,140.4 59.4,137.5 60.3,134.6 C60.9,132.5 62.2,131.5 64.4,131.6 C70.6,131.8 76.9,131.9 83.1,132.1 C86,132.2 88,133.7 89.1,136.3 C89.2,136.5 89.3,136.7 89.4,137 C90.1,139.1 90.8,141.2 91.5,143.3 C92,145.1 93.1,145.9 95,145.9 L95.1,145.9 C104,145.7 104.5,146.6 105.7,142.5 C107.5,136.2 109.3,130 111.1,123.7 C114.1,113.1 122.6,116.6 139.4,100.4 C141.2,98.5 140.8,95.8 140.7,84.8 Z M109.5,81.7 C109.1,81.7 108.7,81.6 108.3,81.5 C106,80.9 104.3,78.8 104.3,76.4 C104.3,73.6 106.6,71.4 109.4,71.3 C111.9,71.3 114,73 114.5,75.3 C114.6,75.7 114.6,76.1 114.6,76.4 C114.8,79.3 112.4,81.7 109.5,81.7 Z" id="Shape" class="fill-neutral" fill-rule="nonzero"></path>
            <path d="M140.7,84.7 C140.7,83.9 139.2,79.6 139.1,79 C136.1,78.8 133.6,79.3 129.7,78.9 C129.2,78.8 129,78.1 128.7,77.7 C127.7,77.1 126.8,76.3 125.8,75.1 C119.9,67.3 112.3,61.7 118.7,48.9 C110.1,50.9 110.3,54.9 103.7,54.8 C94.6,54.7 75.3,54.8 59.4,54.8 C34.3,54.7 19.5,78.1 25.9,99 C26.6,101.4 27.6,103.7 28.9,106 C29.2,106.5 29.4,106.9 29.7,107.3 C37.2,119.4 43.6,131.9 47.6,145.5 C49.1,145.5 51.2,145.4 54.2,145.5 C55.9,145.5 56.8,144.7 57.3,143.2 C58.2,140.3 59.2,137.4 60.1,134.5 C60.7,132.4 62,131.4 64.2,131.5 C70.4,131.7 76.7,131.8 82.9,132 C85.8,132.1 87.8,133.6 88.9,136.2 C90.5,141.2 90.6,143.8 94.7,145.8 C104.1,145.8 104.3,146.2 105.4,142.4 C107.2,136.1 109,129.9 110.8,123.6 C111.7,120.4 113.1,118.5 115.1,116.9 C118.8,114 124.5,112.3 132.6,106 C134.6,104.4 136.7,102.6 139,100.4 C141.2,98.4 140.8,95.7 140.7,84.7 Z" id="Shape" class="fill-primary-100" fill-rule="nonzero"></path>
            <path d="M114.7,76.4 C114.7,79.3 112.3,81.7 109.5,81.7 C108.1,81.7 106.8,81.1 105.9,80.2 C104.9,79.2 104.3,77.9 104.3,76.5 C104.3,73.7 106.6,71.5 109.4,71.4 C112.1,71.3 114.3,73.3 114.6,75.9 C114.7,76 114.7,76.2 114.7,76.4 Z" id="Shape" class="fill-neutral" fill-rule="nonzero"></path>
            <path d="M114.7,76.4 C114.7,79.3 112.3,81.7 109.5,81.7 C108.1,81.7 106.8,81.1 105.9,80.2 C105.9,80 105.9,79.8 105.9,79.5 C105.9,76.7 108.2,74.5 111,74.4 C112.4,74.4 113.8,74.9 114.7,75.8 C114.7,76 114.7,76.2 114.7,76.4 Z" id="Shape" class="fill-primary-100" fill-rule="nonzero"></path>
            <path d="M114.4,115.4 C114.8,115.2 115.3,115.4 115.5,115.8 C115.7,116.2 115.6,116.7 115.3,117 C111.3,120.1 111.5,121.9 105.6,142.5 C104.5,146.3 104.3,145.9 94.9,145.9 C92.4,145.7 90.3,141.5 89.1,136.3 C88,133.7 86,132.2 83.1,132.1 C76.9,131.9 70.6,131.8 64.4,131.6 C62.2,131.5 61,132.5 60.3,134.6 C59.4,137.5 58.4,140.4 57.5,143.3 C57,144.8 56.1,145.6 54.4,145.6 C51.3,145.5 49.2,145.7 47.8,145.6 C44.9,135.7 41.5,128.2 38.2,122 C37.4,120.5 37.7,118.7 38.8,117.4 C40,116.2 41.8,115.8 43.3,116.6 C61.8,125.2 90.4,124.4 114.4,115.4 Z" id="Shape" fill="#C4DFFF" fill-rule="nonzero"></path>
            <path d="M78.2,132 C73.6,131.9 68.9,131.8 64.3,131.6 C62.1,131.5 60.9,132.5 60.2,134.6 C59.3,137.5 58.3,140.4 57.4,143.3 C56.9,144.8 56,145.6 54.3,145.6 C47,145.5 45.2,146.5 44.3,143.4 C40.3,129.2 33.8,116.1 25.9,103.6 C11.8,81.1 27.2,50.9 55.6,51 C56.3,51 56.9,51 57.6,51 M82.7,132.1 C82.6,132.1 82.6,132.1 82.5,132.1 M116.4,57.8 C116.3,64.9 121.6,69.4 125.9,75.1 C132.3,83.4 140.6,73.5 140.7,84.8 C140.7,95.8 141.2,98.5 139.1,100.5 C122.4,116.7 113.8,113.2 110.8,123.8 C109,130.1 107.2,136.3 105.4,142.6 C104.2,146.8 103.8,145.8 94.8,146 C92.9,146 91.7,145.2 91.2,143.4 C90.5,141.3 89.8,139.2 89.1,137.1 C88.5,135.4 87.6,134.1 86.4,133.3 M75.8,51 C85.6,51 94.6,51 100.1,51 C107.3,51.1 106.4,46.3 117.8,44.6 C117.9,44.6 117.9,44.6 118,44.6 C119.4,44.5 120.5,46 119.8,47.3 C119.8,47.3 119.8,47.3 119.8,47.3 C119.6,47.6 119.5,47.9 119.3,48.2 M63.4,51 C63.8,51 64.2,51 64.6,51 M105.4,73.4 C104.7,74.3 104.3,75.3 104.3,76.5 C104.3,79.3 106.7,81.8 109.5,81.8 C112.3,81.8 114.7,79.4 114.7,76.5 C114.7,74 112.9,71.9 110.5,71.5" id="Shape" class="stroke-primary" stroke-width="3" stroke-linecap="round" stroke-linejoin="round"></path>
            <path d="M90.2,59.9 C92,60.1 93.6,60.4 95,60.7 C96.9,61.1 98.1,63 97.7,65 C97.3,66.9 95.4,68.1 93.4,67.7 C84.9,65.8 65.7,65.2 56.2,68.6 C55.8,68.7 55.4,68.8 55,68.8 C53.5,68.8 52.2,67.9 51.7,66.5 C51,64.7 52,62.6 53.8,61.9 C59.3,59.9 67.5,59.1 75.4,59" id="Shape" stroke-width="3" class="stroke-primary fill-primary-300" fill-rule="nonzero" stroke-linecap="round" stroke-linejoin="round"></path>
            <path d="M79.8,58.9 L80,59" id="Shape" stroke-width="3" class="stroke-primary fill-primary-300" fill-rule="nonzero" stroke-linecap="round" stroke-linejoin="round"></path>
            <path d="M21.4,78.5 C19.5,78.2 17.5,77.8 15.6,77.4 C14.4,77.2 13.2,76.9 12.2,76.2 C11.2,75.5 10.4,74.4 10.6,73.2 C10.7,71.7 12.3,70.7 13.7,70.8 C15.1,70.9 16.3,72.3 16.6,73.7 C16.9,75.1 16.3,76.7 15.2,77.7 C14.2,78.7 12.8,79.3 11.3,79.6 C9.6,79.9 7.7,79.6 6.2,78.6 C4.7,77.6 3.8,75.8 4.1,74.1" id="Shape" class="stroke-primary" stroke-width="3" stroke-linecap="round" stroke-linejoin="round"></path>
            <g id="Group" transform="translate(51.000000, 0.000000)" fill-rule="nonzero">
                <path d="M45.4,47.8 C45.4,43.2 44,38.9 41.3,35.3 C40.8,34.6 40.9,33.7 41.6,33.2 C40.8,32.3 40,31.5 39.1,30.7 C38.8,31.1 38.4,31.3 37.9,31.3 C37.6,31.3 37.3,31.2 37,31 L36.7,30.8 C36,30.3 35.9,29.4 36.3,28.8 C36.1,28.7 35.9,28.5 35.7,28.4 C35.3,29.1 34.4,29.4 33.7,29 C30.8,27.5 27.6,26.8 24.3,26.8 C18.5,26.8 13.1,29.1 9.1,33.2 C8.8,33.5 8.4,33.7 8,33.7 C7.6,33.7 7.3,33.6 7,33.3 C4.3,36.5 2.5,40.4 1.9,44.7 C2.7,44.8 3.3,45.5 3.2,46.3 C3.2,46.8 3.1,47.4 3.1,47.9 C3.1,55.7 7.4,62.5 13.7,66.1 C18.6,65.5 24.2,65.4 29.3,65.6 C29.3,65.5 29.2,65.5 29.2,65.4 C28.9,64.6 29.3,63.8 30.1,63.5 C34.3,61.9 37.7,58.7 39.5,54.6 C39.8,53.8 40.7,53.5 41.5,53.8 C42.3,54.1 42.6,55 42.3,55.8 C40.3,60.2 36.8,63.8 32.4,65.7 C33.3,65.8 34.2,65.8 35.1,65.9 C41.2,62.2 45.4,55.4 45.4,47.8 Z M4.7,48.1 L4.7,47.7 C4.7,45.5 5.1,43.4 5.7,41.4 C6,40.6 6.8,40.2 7.6,40.5 C8.4,40.8 8.8,41.6 8.5,42.4 C7.9,44.1 7.6,45.9 7.6,47.8 L7.6,48.1 C7.6,48.9 7,49.6 6.1,49.6 C6.1,49.6 6.1,49.6 6.1,49.6 C5.3,49.6 4.7,48.9 4.7,48.1 Z M8.1,56.1 C7.9,56.2 7.7,56.2 7.5,56.2 C6.9,56.2 6.4,55.9 6.1,55.3 C5.8,54.6 5.5,53.8 5.3,53.1 C5.1,52.3 5.5,51.5 6.3,51.2 C7.1,51 7.9,51.4 8.2,52.2 C8.4,52.8 8.6,53.5 8.9,54.1 C9.3,54.9 8.9,55.8 8.1,56.1 Z M14.5,63.1 C14.2,63.5 13.8,63.7 13.3,63.7 C13,63.7 12.7,63.6 12.4,63.4 C12,63.1 11.6,62.7 11.2,62.4 C10.6,61.8 10.5,60.9 11.1,60.3 C11.7,59.7 12.6,59.6 13.2,60.2 C13.5,60.5 13.9,60.8 14.2,61.1 C14.9,61.5 15,62.4 14.5,63.1 Z M17.7,30.8 C17.5,30 17.9,29.2 18.7,28.9 C19.6,28.6 20.4,28.5 21.3,28.3 C22.1,28.2 22.9,28.7 23,29.6 C23.1,30.5 22.6,31.2 21.7,31.3 C20.9,31.4 20.2,31.6 19.5,31.8 C19.4,31.8 19.2,31.9 19.1,31.9 C18.5,31.9 17.9,31.5 17.7,30.8 Z M25.5,57 L25.5,59.1 C25.5,59.6 25.1,60 24.6,60 C24.1,60 23.7,59.6 23.7,59.1 L23.7,57.1 C22.4,57.1 21.1,56.8 20.1,56.3 C19.6,56.1 19.4,55.5 19.6,55 C19.8,54.4 20.4,54.2 21,54.4 C21.9,54.8 23,55.1 24.2,55.1 C26.2,55.1 27.6,53.9 27.6,52.3 C27.6,50.7 26.5,49.7 24.4,48.9 C21.5,47.8 19.7,46.4 19.7,43.9 C19.7,41.5 21.4,39.7 24,39.3 L24,37.3 C24,36.8 24.4,36.4 24.9,36.4 C25.4,36.4 25.8,36.8 25.8,37.3 L25.8,39.2 C27,39.2 27.9,39.5 28.7,39.8 C29.2,40 29.4,40.6 29.2,41.1 C29,41.6 28.4,41.9 27.9,41.7 C27.2,41.4 26.4,41.2 25.2,41.2 C23,41.2 22.2,42.5 22.2,43.7 C22.2,45.2 23.3,45.9 25.8,47 C28.8,48.2 30.2,49.7 30.2,52.2 C30,54.4 28.4,56.5 25.5,57 Z M42.2,44.6 C42.1,44.6 41.9,44.6 41.8,44.6 C41.1,44.6 40.5,44.2 40.4,43.5 C38.9,37.9 34.5,33.4 29,31.8 C28.2,31.6 27.7,30.7 28,29.9 C28.2,29.1 29.1,28.6 29.9,28.9 C36.5,30.8 41.6,36.1 43.4,42.7 C43.5,43.5 43,44.3 42.2,44.6 Z" id="Shape" class="fill-neutral"></path>
                <path d="M6.2,49.6 C7,49.6 7.7,48.9 7.7,48.1 L7.7,47.8 C7.7,46 8,44.2 8.6,42.4 C8.9,41.6 8.4,40.8 7.7,40.5 C6.9,40.2 6.1,40.7 5.8,41.4 C5.1,43.4 4.8,45.6 4.8,47.7 L4.8,48.1 C4.7,48.9 5.3,49.6 6.2,49.6 C6.2,49.6 6.2,49.6 6.2,49.6 Z" id="Shape" class="fill-primary-300"></path>
                <path d="M8.3,52.3 C8.1,51.5 7.2,51 6.4,51.3 C5.6,51.5 5.1,52.4 5.4,53.2 C5.6,54 5.9,54.7 6.2,55.4 C6.4,56 7,56.3 7.6,56.3 C7.8,56.3 8,56.3 8.2,56.2 C9,55.9 9.3,55 9,54.2 C8.7,53.5 8.5,52.9 8.3,52.3 Z" id="Shape" class="fill-primary-300"></path>
                <path d="M14.2,61 C13.8,60.7 13.5,60.4 13.2,60.1 C12.6,59.5 11.6,59.6 11.1,60.2 C10.5,60.8 10.6,61.8 11.2,62.3 C11.6,62.7 12,63 12.4,63.3 C12.7,63.5 13,63.6 13.3,63.6 C13.8,63.6 14.2,63.4 14.5,63 C15,62.4 14.9,61.5 14.2,61 Z" id="Shape" class="fill-primary-300"></path>
                <path d="M42.2,55.7 C42.5,54.9 42.2,54.1 41.4,53.7 C40.6,53.4 39.8,53.7 39.4,54.5 C37.6,58.6 34.2,61.8 30,63.4 C29.2,63.7 28.8,64.6 29.1,65.3 C29.1,65.4 29.2,65.4 29.2,65.5 C30.2,65.5 31.2,65.6 32.2,65.7 C36.7,63.6 40.3,60.1 42.2,55.7 Z" id="Shape" class="fill-primary-300"></path>
                <path d="M43.2,42.7 C41.5,36.1 36.3,30.8 29.7,28.9 C28.9,28.7 28.1,29.1 27.8,29.9 C27.6,30.7 28,31.5 28.8,31.8 C34.4,33.4 38.7,37.9 40.2,43.5 C40.4,44.2 41,44.6 41.6,44.6 C41.7,44.6 41.9,44.6 42,44.6 C43,44.3 43.5,43.5 43.2,42.7 Z" id="Shape" class="fill-primary-300"></path>
                <path d="M21.8,31.3 C22.6,31.2 23.2,30.4 23.1,29.6 C23,28.8 22.2,28.2 21.4,28.3 C20.5,28.4 19.6,28.6 18.8,28.9 C18,29.1 17.6,30 17.8,30.8 C18,31.5 18.6,31.9 19.2,31.9 C19.3,31.9 19.5,31.9 19.6,31.8 C20.3,31.6 21,31.4 21.8,31.3 Z" id="Shape" class="fill-primary-300"></path>
                <path d="M25.6,46.9 C23.1,45.9 22,45.1 22,43.6 C22,42.5 22.8,41.1 25,41.1 C26.1,41.1 27,41.3 27.7,41.6 C28.2,41.8 28.8,41.6 29,41 C29.2,40.5 29,39.9 28.5,39.7 C27.8,39.4 26.8,39.2 25.6,39.1 L25.6,37.2 C25.6,36.7 25.2,36.3 24.7,36.3 C24.2,36.3 23.8,36.7 23.8,37.2 L23.8,39.2 C21.2,39.6 19.5,41.4 19.5,43.8 C19.5,46.3 21.3,47.6 24.2,48.8 C26.3,49.7 27.4,50.6 27.4,52.2 C27.4,53.8 26,55 24,55 C22.8,55 21.7,54.7 20.8,54.3 C20.3,54.1 19.6,54.3 19.4,54.9 C19.2,55.4 19.5,55.9 19.9,56.2 C20.9,56.7 22.2,57 23.5,57 L23.5,59 C23.5,59.5 23.9,59.9 24.4,59.9 C24.9,59.9 25.3,59.5 25.3,59 L25.3,56.9 C28.3,56.4 29.8,54.3 29.8,52 C30,49.6 28.5,48.1 25.6,46.9 Z" id="Shape" class="fill-primary"></path>
                <path d="M43.6,33.4 C43.1,32.7 42.2,32.6 41.5,33.1 C41.5,33.1 41.5,33.1 41.5,33.1 C40.9,33.6 40.7,34.5 41.2,35.2 C43.9,38.8 45.3,43.2 45.3,47.7 C45.3,55.4 41.1,62.1 35,65.8 C36.6,66 38.1,66.1 39.5,66.3 C44.9,61.9 48.4,55.2 48.4,47.7 C48.4,42.5 46.7,37.6 43.6,33.4 Z" id="Shape" class="fill-primary"></path>
                <path d="M3.2,47.8 C3.2,47.3 3.2,46.7 3.3,46.2 C3.4,45.4 2.8,44.7 2,44.6 C2,44.6 2,44.6 1.9,44.6 C1.1,44.5 0.4,45.2 0.3,46 C0.3,46.6 0.2,47.2 0.2,47.8 C0.2,55.5 3.8,62.3 9.4,66.7 C10.8,66.4 12.2,66.2 13.7,66 C7.5,62.3 3.2,55.5 3.2,47.8 Z" id="Shape" class="fill-primary"></path>
                <path d="M36.7,30.7 L37,30.9 C37.3,31.1 37.6,31.2 37.9,31.2 C38.3,31.2 38.8,31 39.1,30.6 C39.1,30.6 39.1,30.6 39.1,30.6 C39.6,29.9 39.5,29 38.8,28.5 L38.5,28.3 C37.8,27.8 36.9,28 36.4,28.6 C36.4,28.6 36.4,28.6 36.4,28.6 C35.9,29.3 36,30.2 36.7,30.7 Z" id="Shape" class="fill-primary"></path>
                <path d="M9.1,33.1 C13.1,28.9 18.5,26.7 24.3,26.7 C27.6,26.7 30.8,27.4 33.7,28.9 C34.4,29.3 35.3,29 35.7,28.3 C35.7,28.3 35.7,28.3 35.7,28.3 C36.1,27.6 35.8,26.7 35,26.3 C31.6,24.6 28,23.8 24.2,23.8 C17.6,23.8 11.4,26.4 6.9,31.2 C6.3,31.8 6.3,32.7 6.9,33.3 C6.9,33.3 6.9,33.3 6.9,33.3 C7.2,33.6 7.5,33.7 7.9,33.7 C8.4,33.6 8.8,33.4 9.1,33.1 Z" id="Shape" class="fill-primary"></path>
                <path d="M42.2,6.8 C42.2,6 41.5,5.3 40.7,5.3 C39.9,5.3 39.2,6 39.2,6.8 L39.2,10.5 C39.2,11.3 39.9,12 40.7,12 C41.5,12 42.2,11.3 42.2,10.5 L42.2,6.8 Z" id="Shape" class="fill-primary-300"></path>
                <path d="M40.7,16.7 C39.9,16.7 39.2,17.4 39.2,18.2 L39.2,25.4 C39.2,26.2 39.9,26.9 40.7,26.9 C41.5,26.9 42.2,26.2 42.2,25.4 L42.2,18.2 C42.2,17.4 41.6,16.7 40.7,16.7 Z" id="Shape" class="fill-primary-300"></path>
                <path d="M35.1,21.6 C35.9,21.6 36.6,20.9 36.6,20.1 L36.6,2.3 C36.6,1.5 35.9,0.8 35.1,0.8 C34.3,0.8 33.6,1.5 33.6,2.3 L33.6,20.1 C33.6,21 34.3,21.6 35.1,21.6 Z" id="Shape" class="fill-primary-300"></path>
            </g>
        </g>
    </g>
</svg>