<?xml version="1.0" encoding="UTF-8"?>
<svg width="149px" height="70px" viewBox="0 0 149 70" version="1.1" xmlns="http://www.w3.org/2000/svg" xmlns:xlink="http://www.w3.org/1999/xlink">
    <!-- Generator: Sketch 51.2 (57519) - http://www.bohemiancoding.com/sketch -->
    <title>Podium</title>
    <desc>Created with Sketch.</desc>
    <defs></defs>
    <g id="Page-1" stroke="none" stroke-width="1" fill="none" fill-rule="evenodd">
        <g id="Podium" transform="translate(1.000000, 1.000000)">
            <polygon id="Shape" class="fill-neutral" fill-rule="nonzero" points="146.3 56.7 146.3 67.4 0.8 67.4 0.8 56.7 5.5 56.7 5.5 17.5 46.8 17.5 46.8 56.7 53.3 56.7 53.3 0.9 94.6 0.9 94.6 56.7 101.1 56.7 101.1 28.8 142.4 28.8 142.4 56.7"></polygon>
            <path d="M145.7,59.7 L145.7,65.5 C145.7,66.5 144.9,67.4 143.8,67.4 L6.4,67.4 C5.4,67.4 4.5,66.6 4.5,65.5 L4.5,59.7 C4.5,58.7 5.3,57.8 6.4,57.8 L7.3,57.8 C8.1,57.8 8.8,57.3 9,56.6 C9.1,56.4 9.1,56.2 9.1,55.9 L9.1,24.8 C9.1,23.8 9.9,22.9 11,22.9 L46.2,22.9 L46.2,56.5 L49.3,56.5 C49.3,56.5 49.3,56.5 49.3,56.5 C49.6,57.2 50.2,57.7 51,57.7 L53.6,57.7 C54.4,57.7 55.1,57.2 55.3,56.5 C55.4,56.3 55.4,56.1 55.4,55.8 L55.4,10.1 C55.4,9.1 56.2,8.2 57.3,8.2 L93.6,8.2 C93.7,8.2 93.8,8.2 93.9,8.2 L93.9,56.4 L95.6,56.4 C95.6,56.4 95.6,56.4 95.6,56.4 C95.9,57.1 96.5,57.6 97.3,57.6 L99.9,57.6 C100.7,57.6 101.4,57.1 101.6,56.4 C101.7,56.2 101.7,56 101.7,55.7 L101.7,34.7 C101.7,33.7 102.5,32.8 103.6,32.8 L139.9,32.8 C140.7,32.8 141.4,33.3 141.7,34.1 C141.8,34.3 141.8,34.5 141.8,34.7 L141.8,55.7 C141.8,55.9 141.8,56.1 141.9,56.4 C141.9,56.4 141.9,56.4 141.9,56.4 C142.2,57.1 142.8,57.6 143.6,57.6 C144.9,57.9 145.7,58.7 145.7,59.7 Z" id="Shape" class="fill-primary-100" fill-rule="nonzero"></path>
            <path d="M145.7,59.7 L145.7,65.5 C145.7,66.5 144.9,67.4 143.8,67.4 L6.4,67.4 C5.4,67.4 4.5,66.6 4.5,65.5 L4.5,59.7 C4.5,58.7 5.3,57.8 6.4,57.8 L7.3,57.8 C8.1,57.8 8.8,57.3 9,56.6 L142.1,56.6 C142.4,57.3 143,57.8 143.8,57.8 C144.9,57.9 145.7,58.7 145.7,59.7 Z" id="Shape" fill="#BAD8FF" fill-rule="nonzero"></path>
            <polygon id="Shape" class="stroke-primary" stroke-width="3" stroke-linecap="round" stroke-linejoin="round" points="146.3 56.7 146.3 67.4 0.8 67.4 0.8 56.7 5.5 56.7 5.5 17.5 46.8 17.5 46.8 56.7 53.3 56.7 53.3 0.9 94.6 0.9 94.6 56.7 101.1 56.7 101.1 28.8 142.4 28.8 142.4 56.7"></polygon>
            <path d="M27.2,27.5 C29.5,27.5 31.2,28.8 31.2,30.8 C31.2,32 30.5,33.1 28.6,34.9 L26.4,37 L26.4,37.1 L31.3,37.1 L31.3,39.1 L23.2,39.1 L23.2,37.5 L26.9,33.9 C28.5,32.4 28.9,31.8 28.9,31 C28.9,30.1 28.2,29.5 27.1,29.5 C26,29.5 25.3,30.2 25.3,31.3 L23.1,31.3 C23,29 24.7,27.5 27.2,27.5 Z M27.2,24.5 C23.1,24.5 20.1,27.3 20.1,31.2 C20.1,32.6 21,33.8 22.3,34.1 L21.1,35.3 C20.5,35.9 20.2,36.6 20.2,37.4 L20.2,39 C20.2,40.7 21.5,42 23.2,42 L31.3,42 C33,42 34.3,40.7 34.3,39 L34.3,37 C34.3,35.9 33.7,35 32.9,34.5 C33.7,33.4 34.2,32.2 34.2,30.7 C34.1,27.2 31.1,24.5 27.2,24.5 Z" id="Shape" class="fill-primary" fill-rule="nonzero"></path>
            <path d="M76.1,11.1 L76.1,22.4 L73.7,22.4 L73.7,13.4 L73.6,13.4 L70.8,15.3 L70.8,13.1 L73.7,11.1 L76.1,11.1 Z M76.1,8.1 L73.8,8.1 C73.2,8.1 72.6,8.3 72.1,8.6 L69.2,10.6 C68.4,11.2 67.9,12.1 67.9,13.1 L67.9,15.3 C67.9,16.4 68.5,17.4 69.5,18 C69.9,18.2 70.4,18.3 70.8,18.3 L70.8,22.4 C70.8,24.1 72.1,25.4 73.8,25.4 L76.2,25.4 C77.9,25.4 79.2,24.1 79.2,22.4 L79.2,11.1 C79.1,9.4 77.8,8.1 76.1,8.1 Z" id="Shape" class="fill-primary" fill-rule="nonzero"></path>
            <path d="M122.1,38.1 C124.4,38.1 126.1,39.4 126.1,41.1 C126.1,42.4 125.3,43.4 124,43.7 L124,43.8 C125.5,44 126.5,45 126.5,46.5 C126.5,48.5 124.6,49.9 122.1,49.9 C119.6,49.9 117.9,48.5 117.8,46.4 L120.1,46.4 C120.2,47.4 121,48 122.2,48 C123.4,48 124.2,47.3 124.2,46.4 C124.2,45.4 123.4,44.8 122.2,44.8 L120.8,44.8 L120.8,43 L122.2,43 C123.3,43 124,42.4 124,41.5 C124,40.6 123.3,40 122.2,40 C121.1,40 120.4,40.6 120.3,41.6 L118.1,41.6 C118,39.4 119.6,38.1 122.1,38.1 Z M122.1,35.1 C118,35.1 115.1,37.7 115,41.5 C115,42.3 115.3,43.1 115.8,43.7 C115.9,43.8 116,43.9 116.1,44 C115.9,44.1 115.7,44.3 115.6,44.4 C115,45 114.7,45.8 114.8,46.6 C115,50.3 118,53 122.1,53 C126.3,53 129.5,50.2 129.5,46.6 C129.5,45.4 129.2,44.4 128.6,43.5 C128.9,42.8 129.1,42 129.1,41.2 C129,37.7 126,35.1 122.1,35.1 Z" id="Shape" class="fill-primary" fill-rule="nonzero"></path>
            <path d="M25.3,56.7 L26.5,56.7" id="Shape" class="stroke-primary" stroke-width="3" stroke-linecap="round" stroke-linejoin="round"></path>
            <path d="M5.5,56.7 L17,56.7" id="Shape" class="stroke-primary" stroke-width="3" stroke-linecap="round" stroke-linejoin="round"></path>
            <path d="M89.6,56.7 L107.7,56.7" id="Shape" class="stroke-primary" stroke-width="3" stroke-linecap="round" stroke-linejoin="round"></path>
            <path d="M53.3,56.7 L69.7,56.7" id="Shape" class="stroke-primary" stroke-width="3" stroke-linecap="round" stroke-linejoin="round"></path>
        </g>
    </g>
</svg>