<?xml version="1.0" encoding="UTF-8"?>
<svg width="148px" height="152px" viewBox="0 0 148 152" version="1.1" xmlns="http://www.w3.org/2000/svg" xmlns:xlink="http://www.w3.org/1999/xlink">
    <!-- Generator: Sketch 51.2 (57519) - http://www.bohemiancoding.com/sketch -->
    <title>POS_3</title>
    <desc>Created with Sketch.</desc>
    <defs></defs>
    <g id="Page-1" stroke="none" stroke-width="1" fill="none" fill-rule="evenodd">
        <g id="POS_3" transform="translate(1.000000, 2.000000)">
            <path d="M67.7,107.6 L67.7,106.2 C67.7,102.9 70.4,100.2 73.7,100.2 L94,100.2 C96.7,100.2 99.3,100.9 101.6,102.3 L131.3,119.6 C132.6,120.4 134.1,120.8 135.6,120.8 L142.7,120.8 C143.9,120.8 144.8,121.7 144.8,122.9 L144.8,138 L144.8,145.7 C144.8,146.9 143.9,147.8 142.7,147.8 L97.7,147.8 L67.7,107.6 Z" id="Shape" class="fill-neutral" fill-rule="nonzero"></path>
            <path d="M64.5,111.7 L64.5,110.3 C64.5,107 67.2,104.3 70.5,104.3 L90.8,104.3 C93.5,104.3 96.1,105 98.4,106.4 L128.1,123.7 C129.4,124.5 130.9,124.9 132.4,124.9 L139.5,124.9 C140.7,124.9 141.6,125.8 141.6,127 L141.6,142.1 L141.6,145.7 C141.6,146.9 140.7,147.8 139.5,147.8 L79.3,147.8 L64.5,111.7 Z" id="Shape" class="fill-neutral" fill-rule="nonzero"></path>
            <g id="Group" transform="translate(6.000000, 0.000000)">
                <path d="M24.6,21 L63.6,21 C67,21 69.7,23.7 69.7,27.1 L69.7,65.7 C69.7,66.6 69.7,67.4 69.6,68.3 L66,112.2 C65.7,116.1 62.4,119.1 58.5,119.1 L12,119.1 C8.1,119.1 4.8,116.1 4.5,112.2 L0.9,68.3 C0.8,67.4 0.8,66.6 0.8,65.7 L0.8,27.1 C0.8,23.7 3.5,21 6.9,21 L13.3,21" id="Shape" class="fill-neutral" fill-rule="nonzero"></path>
                <path d="M13.2,21 L18,21" id="Shape" class="stroke-primary-300" stroke-width="3" class="fill-neutral" fill-rule="nonzero"></path>
                <path d="M67,101.4 L66.1,112.5 C65.8,116.2 62.8,119 59.1,119 L15.3,119 C11.6,119 8.6,116.2 8.3,112.5 L4.9,71.4 C4.8,70.6 4.8,69.8 4.8,69 L4.8,32.8 C4.8,29.6 7.4,27.1 10.5,27.1 L63.8,27.1 C67,27.1 69.5,29.7 69.5,32.8 L69.5,69 C69.5,69.8 69.5,70.6 69.4,71.4 L67.6,93.4" id="Shape" class="fill-primary-100" fill-rule="nonzero"></path>
                <path d="M66.4,105.8 L65.9,112.2 C65.6,116.1 62.3,119.1 58.4,119.1 L11.9,119.1 C8,119.1 4.7,116.1 4.4,112.2 L0.8,68.3 C0.7,67.4 0.7,66.6 0.7,65.7 L0.7,27.1 C0.7,23.7 3.4,21 6.8,21 L8.8,21" id="Shape" class="stroke-primary-300" stroke-width="3" stroke-linecap="round" stroke-linejoin="round"></path>
                <path d="M25.9,21 L63.5,21 C66.9,21 69.6,23.7 69.6,27.1 L69.6,65.7 C69.6,66.6 69.6,67.4 69.5,68.3 L67.2,96.1" id="Shape" class="stroke-primary-300" stroke-width="3" stroke-linecap="round" stroke-linejoin="round"></path>
                <path d="M15.9,21 L16.6,21" id="Shape" class="stroke-primary-300" stroke-width="3" stroke-linecap="round" stroke-linejoin="round"></path>
                <path d="M60.8,44.2 L60.8,55.6 C60.8,57.3 59.5,58.7 57.9,58.7 L12.3,58.7 C10.7,58.7 9.4,57.3 9.4,55.6 L9.4,44.2 C9.4,42.5 10.7,41.1 12.3,41.1 L57.9,41.1 C59.6,41.1 60.8,42.5 60.8,44.2 Z" id="Shape" class="fill-neutral" fill-rule="nonzero"></path>
                <path d="M60.8,44.7 L60.8,55.6 C60.8,57.3 59.5,58.7 57.9,58.7 L13.5,58.7 L13.5,47.8 C13.5,46.1 14.8,44.7 16.4,44.7 L60.8,44.7 Z" id="Shape" class="stroke-primary-300" stroke-width="3" class="fill-primary-300" fill-rule="nonzero"></path>
                <path d="M22.5,40.3 L57.7,40.3 C59.5,40.3 60.9,41.6 60.9,43.2 L60.9,55.7 C60.9,57.3 59.5,58.6 57.7,58.6 L12.7,58.6 C10.9,58.6 9.5,57.3 9.5,55.7 L9.5,43.2 C9.5,41.6 10.9,40.3 12.7,40.3 L15.7,40.3" id="Shape" class="stroke-primary-300" stroke-width="3" stroke-linecap="round" stroke-linejoin="round"></path>
                <path d="M16.2,68.3 C16.9,67.9 17.7,67.6 18.5,67.6 C20.9,67.6 22.9,69.6 22.9,72 C22.9,74.4 20.9,76.4 18.5,76.4 C16.3,76.4 14.4,74.7 14.2,72.6" id="Shape" class="stroke-primary-300" stroke-width="3" class="fill-neutral" fill-rule="nonzero" stroke-linecap="round" stroke-linejoin="round"></path>
                <circle id="Oval" class="stroke-primary-300" stroke-width="3" class="fill-neutral" fill-rule="nonzero" stroke-linecap="round" stroke-linejoin="round" cx="35.1" cy="72.1" r="4.4"></circle>
                <circle id="Oval" class="stroke-primary-300" stroke-width="3" class="fill-neutral" fill-rule="nonzero" stroke-linecap="round" stroke-linejoin="round" cx="51.6" cy="72.1" r="4.4"></circle>
                <circle id="Oval" class="stroke-primary-300" stroke-width="3" class="fill-neutral" fill-rule="nonzero" stroke-linecap="round" stroke-linejoin="round" cx="18.5" cy="87.2" r="4.4"></circle>
                <path d="M36.5,91.3 C36,91.5 35.5,91.6 35,91.6 C32.6,91.6 30.6,89.6 30.6,87.2 C30.6,84.8 32.6,82.8 35,82.8 C37.4,82.8 39.4,84.8 39.4,87.2 C39.4,87.5 39.4,87.8 39.3,88.1" id="Shape" class="stroke-primary-300" stroke-width="3" class="fill-neutral" fill-rule="nonzero" stroke-linecap="round" stroke-linejoin="round"></path>
                <circle id="Oval" class="stroke-primary-300" stroke-width="3" class="fill-neutral" fill-rule="nonzero" stroke-linecap="round" stroke-linejoin="round" cx="51.6" cy="87.2" r="4.4"></circle>
                <circle id="Oval" class="stroke-primary-300" stroke-width="3" class="fill-neutral" fill-rule="nonzero" stroke-linecap="round" stroke-linejoin="round" cx="18.5" cy="102.3" r="4.4"></circle>
                <circle id="Oval" class="stroke-primary-300" stroke-width="3" class="fill-neutral" fill-rule="nonzero" stroke-linecap="round" stroke-linejoin="round" cx="35.1" cy="102.3" r="4.4"></circle>
                <circle id="Oval" class="stroke-primary-300" stroke-width="3" class="fill-neutral" fill-rule="nonzero" stroke-linecap="round" stroke-linejoin="round" cx="51.6" cy="102.3" r="4.4"></circle>
                <g transform="translate(10.000000, 0.000000)" id="Shape" class="stroke-primary-300" stroke-linecap="round" stroke-linejoin="round" stroke-width="3">
                    <g transform="translate(1.000000, 0.000000)">
                        <path d="M37.7,4.5 L37.7,0.3 L33.1,3.7 L28.5,0.3 L23.9,3.7 L19.3,0.3 L14.7,3.7 L10.1,0.3 L5.5,3.7 L0.9,0.3 L0.9,23.7 C1,29.8 2.1,32.4 7.2,34.4 L43.7,34.4 C38.6,33.1 37.2,29.9 37.4,23.7 L37.4,13.7" class="fill-neutral" fill-rule="nonzero"></path>
                        <path d="M7.7,19.4 L29.3,19.4"></path>
                        <path d="M20.9,12 L29.3,12"></path>
                        <path d="M7.7,12 L11,12"></path>
                    </g>
                    <path d="M0,34.5 L50.8,34.5"></path>
                </g>
            </g>
            <path d="M72.6,131.3 L89.1,131.3 C91.3,131.3 93.1,129.5 93.1,127.3 C93.1,125.1 91.3,123.3 89.1,123.3 L72.6,123.3 C70.4,123.3 68.6,125.1 68.6,127.3 C68.5,129.5 70.4,131.3 72.6,131.3 Z" id="Shape" stroke-width="3" class="stroke-primary fill-neutral" fill-rule="nonzero" stroke-linecap="round" stroke-linejoin="round"></path>
            <path d="M75.9,139.5 L94.8,139.5 C97,139.5 98.8,137.7 98.8,135.5 C98.8,133.3 97,131.5 94.8,131.5 L75.9,131.5 C73.7,131.5 71.9,133.3 71.9,135.5 C71.8,137.7 73.6,139.5 75.9,139.5 Z" id="Shape" stroke-width="3" class="stroke-primary fill-neutral" fill-rule="nonzero" stroke-linecap="round" stroke-linejoin="round"></path>
            <path d="M75.9,143.8 C75.9,144.9 76.4,145.8 77.1,146.5 C77.8,147.2 78.8,147.7 80,147.7 L97.7,147.7 C99.9,147.7 101.7,145.9 101.7,143.7 C101.7,141.5 99.9,139.7 97.7,139.7 L80.2,139.7 C77.9,139.6 75.9,141.5 75.9,143.8 Z" id="Shape" stroke-width="3" class="stroke-primary fill-neutral" fill-rule="nonzero" stroke-linecap="round" stroke-linejoin="round"></path>
            <path d="M141.3,147.7 L97.7,147.7" id="Shape" class="stroke-primary" stroke-width="3" stroke-linecap="round" stroke-linejoin="round"></path>
            <path d="M144.7,141.9 L144.7,144.1" id="Shape" class="stroke-primary" stroke-width="3" stroke-linecap="round" stroke-linejoin="round"></path>
            <path d="M67.7,107.6 L67.7,106.2 C67.7,102.9 70.4,100.2 73.7,100.2 L94,100.2 C96.7,100.2 99.3,100.9 101.6,102.3 L131.3,119.6 C132.6,120.4 134.1,120.8 135.6,120.8 L142.7,120.8 C143.9,120.8 144.8,121.7 144.8,122.9 L144.8,125.9" id="Shape" stroke-width="3" class="stroke-primary fill-neutral" fill-rule="nonzero" stroke-linecap="round" stroke-linejoin="round"></path>
            <g id="Group" transform="translate(0.000000, 55.000000)">
                <path d="M1.4,34 C2.44249065e-15,35.9 0.4,38.6 2.4,39.9 L54.4,77.5 C56.3,78.9 59,78.5 60.3,76.5 L83,45.1 C84.4,43.2 84,40.5 82,39.2 L30,1.6 C28.1,0.2 25.4,0.6 24.1,2.6 L1.4,34 Z" id="Shape" class="fill-neutral" fill-rule="nonzero"></path>
                <path d="M60.2,26.8 L47.3,72.6 L51.9,75.9 C53.8,77.3 56.5,76.9 57.8,74.9 L79,45.6 C80.4,43.7 80,41 78,39.7 L60.2,26.8 Z" id="Shape" class="fill-primary-100" fill-rule="nonzero"></path>
                <polygon id="Shape" class="fill-primary-100" fill-rule="nonzero" points="35.5 8.8 22.6 54.6 34.1 62.9 46.9 17.1"></polygon>
                <path d="M22.6,4.8 L1.4,34.1 C-2.26707542e-13,36 0.4,38.7 2.4,40 L16.1,49.9 L29,4.1 L28.6,3.8 C26.6,2.4 23.9,2.9 22.6,4.8 Z" id="Shape" class="fill-primary-100" fill-rule="nonzero"></path>
                <path d="M71.9,60.6 L82.7,45.6 C84.2,43.5 83.8,40.5 81.6,39 L80.1,37.9" id="Shape" class="stroke-primary" stroke-width="3" stroke-linecap="round" stroke-linejoin="round"></path>
                <path d="M68.1,29.1 L30.5,1.9 C28.4,0.4 25.4,0.8 23.9,3 L1.7,33.7 C0.2,35.8 0.6,38.8 2.8,40.3 L54,77.4 C56.1,78.9 59.1,78.5 60.6,76.3 L67.2,67.2" id="Shape" class="stroke-primary" stroke-width="3" stroke-linecap="round" stroke-linejoin="round"></path>
                <path d="M76.2,35 L74.6,33.8" id="Shape" class="stroke-primary" stroke-width="3" stroke-linecap="round" stroke-linejoin="round"></path>
                <g transform="translate(8.000000, 26.000000)">
                    <circle id="Oval" fill="#87BDFF" fill-rule="nonzero" transform="translate(9.838170, 9.301310) rotate(-54.105319) translate(-9.838170, -9.301310) " cx="9.83817" cy="9.30131" r="6.50003152"></circle>
                    <path d="M11.3,15.5 C11.5,17.2 12.4,18.9 13.9,20 C16.8,22.1 20.8,21.4 22.8,18.6 C24.9,15.7 24.2,11.7 21.4,9.7 C20.7,9.2 20,8.9 19.3,8.7" id="Shape" class="stroke-primary" stroke-width="3" stroke-linecap="round" stroke-linejoin="round"></path>
                    <path d="M3.8,7.7 C3.2,10.2 4.1,12.9 6.3,14.5 C9.2,16.6 13.2,15.9 15.2,13.1 C16.4,11.4 16.7,9.3 16.1,7.5" id="Shape" class="stroke-primary" stroke-width="3" stroke-linecap="round" stroke-linejoin="round"></path>
                    <path d="M14.5,4.7 C14.3,4.5 14,4.2 13.7,4 C11,2.1 7.4,2.5 5.2,4.9" id="Shape" class="stroke-primary" stroke-width="3" stroke-linecap="round" stroke-linejoin="round"></path>
                </g>
                <path d="M68.4,50.1 L60.7,44.5" id="Shape" class="stroke-primary" stroke-width="3" stroke-linecap="round" stroke-linejoin="round"></path>
                <path d="M56,41.1 L48.3,35.5" id="Shape" class="stroke-primary" stroke-width="3" stroke-linecap="round" stroke-linejoin="round"></path>
                <path d="M43.6,32.1 L35.9,26.5" id="Shape" class="stroke-primary" stroke-width="3" stroke-linecap="round" stroke-linejoin="round"></path>
                <path d="M31.1,23.1 L23.4,17.5" id="Shape" class="stroke-primary" stroke-width="3" stroke-linecap="round" stroke-linejoin="round"></path>
            </g>
            <path d="M69,119.5 C69,119.5 69.5,122.9 70.5,123.7" id="Shape" class="stroke-primary" stroke-width="3" stroke-linecap="round" stroke-linejoin="round"></path>
            <path d="M118.2,138.7 L118.5,138.7" id="Shape" stroke-width="3" class="stroke-primary fill-neutral" fill-rule="nonzero" stroke-linecap="round" stroke-linejoin="round"></path>
            <path d="M93.9,107.6 L62.1,107.6 C60.7,107.6 59.5,108.7 59.5,110.2 C59.5,115.1 63.5,119.1 68.4,119.1 L88.8,119.1 C90.6,119.1 92.4,119.9 93.7,121.2 L107.4,135.6 C109.2,137.5 111.8,138.7 114.5,138.7" id="Shape" stroke-width="3" class="stroke-primary fill-neutral" fill-rule="nonzero" stroke-linecap="round" stroke-linejoin="round"></path>
            <path d="M101.6,107.6 L100.4,107.6" id="Shape" stroke-width="3" class="stroke-primary fill-neutral" fill-rule="nonzero" stroke-linecap="round" stroke-linejoin="round"></path>
        </g>
    </g>
</svg>