<?xml version="1.0" encoding="UTF-8"?>
<svg width="146px" height="148px" viewBox="0 0 146 148" version="1.1" xmlns="http://www.w3.org/2000/svg" xmlns:xlink="http://www.w3.org/1999/xlink">
    <!-- Generator: Sketch 51.2 (57519) - http://www.bohemiancoding.com/sketch -->
    <title>POS_1_</title>
    <desc>Created with Sketch.</desc>
    <defs></defs>
    <g id="Page-1" stroke="none" stroke-width="1" fill="none" fill-rule="evenodd">
        <g id="POS_1_" transform="translate(1.000000, 1.000000)">
            <path d="M122.5,32.5 L21.9,32.5 C15.8,32.5 10.8,37.5 10.8,43.6 L10.8,128.3 L133.7,128.3 L133.7,43.6 C133.6,37.4 128.6,32.5 122.5,32.5 Z" id="Shape" class="fill-neutral" fill-rule="nonzero"></path>
            <path d="M122.5,32.5 L21.9,32.5 C15.8,32.5 10.8,37.5 10.8,43.6 L10.8,128.3 L133.7,128.3 L133.7,43.6 C133.6,37.4 128.6,32.5 122.5,32.5 Z" id="Shape" class="fill-neutral" fill-rule="nonzero"></path>
            <rect id="Rectangle-path" class="fill-neutral" fill-rule="nonzero" x="98.1" y="9.9" width="10.8" height="23.5"></rect>
            <rect id="Rectangle-path" class="fill-primary-300" fill-rule="nonzero" x="101.7" y="9.9" width="7.2" height="23.5"></rect>
            <rect id="Rectangle-path" fill="#5EA6FF" fill-rule="nonzero" x="102.1" y="14" width="7.2" height="8.1"></rect>
            <rect id="Rectangle-path" class="stroke-primary" stroke-width="3" stroke-linecap="round" stroke-linejoin="round" x="98.1" y="10.8" width="10.8" height="23.5"></rect>
            <path d="M133.6,43.6 L133.6,128.3 L10.7,128.3 L10.7,43.6 C10.7,37.5 15.7,32.5 21.8,32.5 L122.4,32.5 C126.3,32.5 129.8,34.5 131.7,37.6 C132.9,39.3 133.6,41.4 133.6,43.6 Z" id="Shape" class="fill-neutral" fill-rule="nonzero"></path>
            <path d="M133.6,43.6 L133.6,128.3 L15.4,128.3 L15.4,47.7 C15.4,41.6 20.4,36.6 26.5,36.6 L127.2,36.6 C128.9,36.6 130.4,37 131.9,37.6 C132.9,39.3 133.6,41.4 133.6,43.6 Z" id="Shape" class="fill-primary-300" fill-rule="nonzero"></path>
            <path d="M94.8,62.8 L79.5,62.8 C78.8,62.8 78.2,62.2 78.2,61.5 L78.2,56.5 C78.2,55.8 78.8,55.2 79.5,55.2 L94.8,55.2 C95.5,55.2 96.1,55.8 96.1,56.5 L96.1,61.5 C96.2,62.1 95.5,62.8 94.8,62.8 Z" id="Shape" fill="#5EA6FF" fill-rule="nonzero"></path>
            <path d="M119.6,62.8 L104.3,62.8 C103.6,62.8 103,62.2 103,61.5 L103,56.5 C103,55.8 103.6,55.2 104.3,55.2 L119.6,55.2 C120.3,55.2 120.9,55.8 120.9,56.5 L120.9,61.5 C121,62.1 120.4,62.8 119.6,62.8 Z" id="Shape" fill="#5EA6FF" fill-rule="nonzero"></path>
            <path d="M94.8,79 L79.5,79 C78.8,79 78.2,78.4 78.2,77.7 L78.2,72.7 C78.2,72 78.8,71.4 79.5,71.4 L94.8,71.4 C95.5,71.4 96.1,72 96.1,72.7 L96.1,77.7 C96.2,78.4 95.5,79 94.8,79 Z" id="Shape" fill="#5EA6FF" fill-rule="nonzero"></path>
            <path d="M119.6,79 L104.3,79 C103.6,79 103,78.4 103,77.7 L103,72.7 C103,72 103.6,71.4 104.3,71.4 L119.6,71.4 C120.3,71.4 120.9,72 120.9,72.7 L120.9,77.7 C121,78.4 120.4,79 119.6,79 Z" id="Shape" fill="#5EA6FF" fill-rule="nonzero"></path>
            <path d="M94.8,95.3 L79.5,95.3 C78.8,95.3 78.2,94.7 78.2,94 L78.2,89 C78.2,88.3 78.8,87.7 79.5,87.7 L94.8,87.7 C95.5,87.7 96.1,88.3 96.1,89 L96.1,94 C96.2,94.7 95.5,95.3 94.8,95.3 Z" id="Shape" fill="#5EA6FF" fill-rule="nonzero"></path>
            <path d="M119.6,95.3 L104.3,95.3 C103.6,95.3 103,94.7 103,94 L103,89 C103,88.3 103.6,87.7 104.3,87.7 L119.6,87.7 C120.3,87.7 120.9,88.3 120.9,89 L120.9,94 C121,94.7 120.4,95.3 119.6,95.3 Z" id="Shape" fill="#5EA6FF" fill-rule="nonzero"></path>
            <path d="M36.8,32.5 L34.8,32.5" id="Shape" class="stroke-primary" stroke-width="3" stroke-linecap="round" stroke-linejoin="round"></path>
            <path d="M27,32.5 L21.9,32.5 C15.8,32.5 10.8,37.5 10.8,43.6 L10.8,128.3 L133.7,128.3 L133.7,43.6 C133.7,37.5 128.7,32.5 122.6,32.5 L51.7,32.5" id="Shape" class="stroke-primary" stroke-width="3" stroke-linecap="round" stroke-linejoin="round"></path>
            <path d="M143.5,114.5 L143.5,140.2 C143.5,143.1 141.2,145.4 138.3,145.4 L6,145.4 C5.8,145.4 5.5,145.4 5.3,145.4 C2.7,145.1 0.7,142.9 0.7,140.2 L0.7,114.5 C0.7,111.6 3,109.3 5.9,109.3 L138.2,109.3 C140.9,109.3 143.1,111.3 143.4,113.9 C143.5,114 143.5,114.2 143.5,114.5 Z" id="Shape" class="fill-neutral" fill-rule="nonzero"></path>
            <path d="M143.5,114.5 L143.5,140.2 C143.5,143.1 141.2,145.4 138.3,145.4 L6,145.4 C5.8,145.4 5.5,145.4 5.3,145.4 C5.3,145.2 5.3,145 5.3,144.7 L5.3,119 C5.3,118.6 5.4,118.2 5.5,117.8 C6.1,115.5 8.1,113.8 10.6,113.8 L142.9,113.8 C143.1,113.8 143.3,113.8 143.6,113.8 C143.5,114 143.5,114.2 143.5,114.5 Z" id="Shape" class="fill-primary-200" fill-rule="nonzero"></path>
            <path d="M143.5,114.5 L143.5,132.8 C142.9,135.1 140.9,136.8 138.4,136.8 L6.1,136.8 C5.9,136.8 5.6,136.8 5.4,136.8 C5.4,136.6 5.4,136.4 5.4,136.1 L5.4,117.8 C6,115.5 8,113.8 10.5,113.8 L142.8,113.8 C143,113.8 143.2,113.8 143.5,113.8 C143.5,114 143.5,114.2 143.5,114.5 Z" id="Shape" class="fill-primary-100" fill-rule="nonzero"></path>
            <path d="M38.7,109.3 L138.3,109.3 C141.2,109.3 143.5,111.6 143.5,114.5 L143.5,140.2 C143.5,143.1 141.2,145.4 138.3,145.4 L6,145.4 C3.1,145.4 0.8,143.1 0.8,140.2 L0.8,114.5 C0.8,111.6 3.1,109.3 6,109.3 L16.2,109.3" id="Shape" class="stroke-primary" stroke-width="3" stroke-linecap="round" stroke-linejoin="round"></path>
            <path d="M29.4,109.3 L31.4,109.3" id="Shape" class="stroke-primary" stroke-width="3" stroke-linecap="round" stroke-linejoin="round"></path>
            <path d="M100.2,109.3 L100.2,116.4 C100.2,120.5 96.9,123.7 92.9,123.7 L51.6,123.7 C50.3,123.7 49,123.3 47.9,122.7 C45.7,121.4 44.2,119.1 44.2,116.3 L44.2,109.2 L100.2,109.2 L100.2,109.3 Z" id="Shape" class="fill-neutral" fill-rule="nonzero"></path>
            <path d="M100.2,114.7 L100.2,116.4 C100.2,120.5 96.9,123.7 92.9,123.7 L51.6,123.7 C50.3,123.7 49,123.3 47.9,122.7 C47.9,122.4 47.8,122.1 47.8,121.8 L47.8,117.3 C47.8,115.9 49,114.7 50.4,114.7 L100.2,114.7 Z" id="Shape" class="fill-primary-300" fill-rule="nonzero"></path>
            <path d="M100.2,109.3 L100.2,116.4 C100.2,120.5 96.9,123.7 92.9,123.7 L51.6,123.7 C47.5,123.7 44.3,120.4 44.3,116.4 L44.3,109.3 L100.2,109.3 Z" id="Shape" class="stroke-primary" stroke-width="3" stroke-linecap="round" stroke-linejoin="round"></path>
            <path d="M64.6,55.2 L64.6,88.3 C64.6,90.4 62.9,92.1 60.8,92.1 L27.7,92.1 C25.6,92.1 23.9,90.4 23.9,88.3 L23.9,55.2 C23.9,53.1 25.6,51.4 27.7,51.4 L60.8,51.4 C62.9,51.4 64.6,53.1 64.6,55.2 Z" id="Shape" class="fill-neutral" fill-rule="nonzero"></path>
            <path d="M64.6,56 L64.6,88.4 C64.6,90.5 62.9,92.2 60.8,92.2 L28.4,92.2 L28.4,59.8 C28.4,57.7 30.1,56 32.2,56 L64.6,56 Z" id="Shape" class="fill-primary-100" fill-rule="nonzero"></path>
            <path d="M60.9,92.1 L27.8,92.1 C25.7,92.1 24,90.4 24,88.3 L24,55.2 C24,53.1 25.7,51.4 27.8,51.4 L60.9,51.4 C63,51.4 64.7,53.1 64.7,55.2 L64.7,88.3 C64.6,90.4 63,92.1 60.9,92.1 Z" id="Shape" class="stroke-primary" stroke-width="3" stroke-linecap="round" stroke-linejoin="round"></path>
            <rect id="Rectangle-path" stroke-width="3" class="stroke-primary fill-neutral" fill-rule="nonzero" stroke-linecap="round" stroke-linejoin="round" x="76.4" y="51.4" width="18" height="7.7"></rect>
            <rect id="Rectangle-path" stroke-width="3" class="stroke-primary fill-neutral" fill-rule="nonzero" stroke-linecap="round" stroke-linejoin="round" x="101.2" y="51.4" width="18" height="7.7"></rect>
            <rect id="Rectangle-path" stroke-width="3" class="stroke-primary fill-neutral" fill-rule="nonzero" stroke-linecap="round" stroke-linejoin="round" x="76.4" y="67.7" width="18" height="7.7"></rect>
            <rect id="Rectangle-path" stroke-width="3" class="stroke-primary fill-neutral" fill-rule="nonzero" stroke-linecap="round" stroke-linejoin="round" x="101.2" y="67.7" width="18" height="7.7"></rect>
            <rect id="Rectangle-path" stroke-width="3" class="stroke-primary fill-neutral" fill-rule="nonzero" stroke-linecap="round" stroke-linejoin="round" x="76.4" y="83.9" width="18" height="7.7"></rect>
            <rect id="Rectangle-path" stroke-width="3" class="stroke-primary fill-neutral" fill-rule="nonzero" stroke-linecap="round" stroke-linejoin="round" x="101.2" y="83.9" width="18" height="7.7"></rect>
            <rect id="Rectangle-path" class="fill-neutral" fill-rule="nonzero" x="80" y="0.9" width="47" height="17.2"></rect>
            <rect id="Rectangle-path" class="fill-primary-100" fill-rule="nonzero" x="83.6" y="4.5" width="43.4" height="13.6"></rect>
            <rect id="Rectangle-path" class="stroke-primary" stroke-width="3" stroke-linecap="round" stroke-linejoin="round" x="80" y="0.9" width="47" height="17.2"></rect>
            <path d="M107.8,13 L106.7,13" id="Shape" class="stroke-primary" stroke-width="3" stroke-linecap="round" stroke-linejoin="round"></path>
            <path d="M126.5,13 L112.6,13" id="Shape" class="stroke-primary" stroke-width="3" stroke-linecap="round" stroke-linejoin="round"></path>
            <path d="M80.7,6.3 L89.9,6.3" id="Shape" class="stroke-primary" stroke-width="3" stroke-linecap="round" stroke-linejoin="round"></path>
            <path d="M105.1,135.5 L102.6,135.5" id="Shape" class="stroke-primary" stroke-width="3" stroke-linecap="round" stroke-linejoin="round"></path>
            <path d="M143.2,135.5 L113.9,135.5" id="Shape" class="stroke-primary" stroke-width="3" stroke-linecap="round" stroke-linejoin="round"></path>
            <path d="M129.3,130 L128.8,130" id="Shape" class="stroke-primary" stroke-width="3" stroke-linecap="round" stroke-linejoin="round"></path>
            <path d="M133.4,130 L133,130" id="Shape" class="stroke-primary" stroke-width="3" stroke-linecap="round" stroke-linejoin="round"></path>
            <path d="M143.2,130 L137.5,130" id="Shape" class="stroke-primary" stroke-width="3" stroke-linecap="round" stroke-linejoin="round"></path>
        </g>
    </g>
</svg>