<?xml version="1.0" encoding="UTF-8"?>
<svg width="149px" height="147px" viewBox="0 0 149 147" version="1.1" xmlns="http://www.w3.org/2000/svg" xmlns:xlink="http://www.w3.org/1999/xlink">
    <!-- Generator: Sketch 51.2 (57519) - http://www.bohemiancoding.com/sketch -->
    <title>POS_2</title>
    <desc>Created with Sketch.</desc>
    <defs></defs>
    <g id="Page-1" stroke="none" stroke-width="1" fill="none" fill-rule="evenodd">
        <g id="POS_2" transform="translate(1.000000, 2.000000)">
            <g id="Group" transform="translate(77.000000, 49.000000)">
                <path d="M0.2,4.9 L0.2,60 C0.2,62.3 2,64.1 4.3,64.1 L37.3,64.1 C39.6,64.1 41.4,62.3 41.4,60 L41.4,4.9 C41.4,2.6 39.6,0.8 37.3,0.8 L4.3,0.8 C2,0.8 0.2,2.6 0.2,4.9 Z" id="Shape" class="fill-neutral" fill-rule="nonzero"></path>
                <path d="M0.2,4.9 L0.2,57.4 C0.2,59.7 2,61.5 4.3,61.5 L34.9,61.5 C37.2,61.5 39,59.7 39,57.4 L39,4.9 C39,2.6 37.2,0.8 34.9,0.8 L4.3,0.8 C2,0.8 0.2,2.6 0.2,4.9 Z" id="Shape" class="fill-primary-300" fill-rule="nonzero"></path>
                <path d="M41.4,9.1 L41.4,5.2 C41.4,2.7 39.4,0.7 36.9,0.7 L4.6,0.7 C2.1,0.7 0.1,2.7 0.1,5.2 L0.1,59.6 C0.1,62.1 2.1,64.1 4.6,64.1 L21.7,64.1" id="Shape" class="stroke-primary" stroke-width="3" stroke-linecap="round" stroke-linejoin="round"></path>
                <path d="M41.4,13.3 L41.4,13" id="Shape" class="stroke-primary" stroke-width="3" stroke-linecap="round" stroke-linejoin="round"></path>
                <path d="M41.4,57.2 L41.4,21.2" id="Shape" class="stroke-primary" stroke-width="3" stroke-linecap="round" stroke-linejoin="round"></path>
                <path d="M12.7,51.1 L12.7,0.8" id="Shape" class="stroke-primary" stroke-width="3" stroke-linecap="round" stroke-linejoin="round"></path>
                <path d="M12.7,59.6 L12.7,57.6" id="Shape" class="stroke-primary" stroke-width="3" stroke-linecap="round" stroke-linejoin="round"></path>
                <path d="M41.4,23.4 L41.4,42.7 L47.9,50 C49.1,51.3 49.8,53 49.9,54.8 L50.2,60.7 C50.3,61.6 49.7,62.4 48.9,62.6 L42,64.6 C41,64.9 39.9,64.4 39.5,63.4 L39.4,63.2 L38.3,60.7 L34.2,50.9 C33.9,50.3 33.6,49.7 33.2,49.2 C31.1,46.5 27.3,45.5 24.1,47 C22.8,47.6 22,49 22,50.4 C22,50.8 22.1,51.2 22.2,51.6 L26.5,64 L31.8,79.4 C32.6,81.9 34.1,84.1 36,85.8 L41.5,90.7 L44.3,93.2 C44.8,93.6 45.4,93.8 46,93.8 C49.4,93.8 61.2,93.6 66.4,93.7 C67.8,93.7 68.9,92.6 68.9,91.2 L68.9,55 C68.9,52 67.7,49.2 65.6,47.1 L41.4,23.4 Z" id="Shape" class="fill-neutral" fill-rule="nonzero"></path>
                <path d="M42,64.7 C41,65 39.9,64.5 39.5,63.5 L39.4,63.3 L38.3,60.8 C38,60.6 37.8,60.3 37.7,60 L37.6,59.8 L33.2,49.3 C31.1,46.6 27.3,45.6 24.1,47.1 C22.8,47.7 22,49.1 22,50.5 C22,50.9 22.1,51.3 22.2,51.7 L26.5,64.1 L31.8,79.5 C32.6,82 34.1,84.2 36,85.9 L41.5,90.8 C41.8,90.9 42.1,90.9 42.4,90.9 C45.8,90.9 57.6,90.7 62.8,90.8 C64.2,90.8 65.3,89.7 65.3,88.3 L65.3,52 C65.3,49 64.1,46.2 62,44.1 L41.5,24 L41.5,42.8 L48,50.1 C49.2,51.4 49.9,53.1 50,54.9 L50.3,60.8 C50.4,61.7 49.8,62.5 49,62.7 L42,64.7 Z" id="Shape" class="fill-primary-100" fill-rule="nonzero"></path>
                <path d="M68.3,92.9 C68.6,92.5 68.8,91.9 68.8,91.4 L68.8,87" id="Shape" class="stroke-primary" stroke-width="3" stroke-linecap="round" stroke-linejoin="round"></path>
                <path d="M68.9,77.8 L68.9,55 C68.9,52 67.7,49.2 65.6,47.1 L41.5,23.5 L41.5,42.8 L48,50.1 C49.2,51.4 49.9,53.1 50,54.9 L50.3,60.8 C50.4,61.7 49.8,62.5 48.9,62.7 L42,64.7 C41,65 39.9,64.5 39.5,63.5 L39.4,63.3 L34.3,51 C32.7,47 28,45.3 24.2,47.1 C22.9,47.7 22.1,49.1 22.1,50.5 C22.1,50.9 22.2,51.3 22.3,51.7 L26.6,64.1 L31.9,79.5 C32.7,82 34.2,84.2 36.1,85.9 L44.4,93.3" id="Shape" class="stroke-primary" stroke-width="3" stroke-linecap="round" stroke-linejoin="round"></path>
                <path d="M68.9,81.7 L68.9,81.4" id="Shape" class="stroke-primary" stroke-width="3" stroke-linecap="round" stroke-linejoin="round"></path>
            </g>
            <path d="M106.8,22.7 L106.8,19.9" id="Shape" class="stroke-primary-300" stroke-width="3" stroke-linecap="round" stroke-linejoin="round"></path>
            <path d="M106.8,44.8 L106.8,27.7" id="Shape" class="stroke-primary-300" stroke-width="3" stroke-linecap="round" stroke-linejoin="round"></path>
            <path d="M97.1,18.9 L97.1,7.4" id="Shape" class="stroke-primary-300" stroke-width="3" stroke-linecap="round" stroke-linejoin="round"></path>
            <path d="M97.1,44.8 L97.1,27.2" id="Shape" class="stroke-primary-300" stroke-width="3" stroke-linecap="round" stroke-linejoin="round"></path>
            <path d="M28.9,25 L75.6,25 C79.6,25 82.9,28.3 82.9,32.3 L82.9,78.5 C82.9,79.5 82.9,80.6 82.8,81.6 L78.5,134.2 C78.1,138.9 74.2,142.5 69.6,142.5 L13.9,142.5 C9.2,142.5 5.3,138.9 5,134.2 L0.7,81.6 C0.6,80.6 0.6,79.5 0.6,78.5 L0.6,32.3 C0.6,28.3 3.9,25 7.9,25 L15.5,25" id="Shape" class="fill-neutral" fill-rule="nonzero"></path>
            <path d="M15.2,25 L21,25" id="Shape" class="fill-neutral" fill-rule="nonzero"></path>
            <path d="M79.8,121.4 L78.7,134.7 C78.4,139.1 74.7,142.5 70.3,142.5 L17.9,142.5 C13.5,142.5 9.8,139.1 9.5,134.7 L5.4,85.5 C5.3,84.5 5.3,83.5 5.3,82.6 L5.3,39.3 C5.3,35.5 8.4,32.4 12.2,32.4 L76.1,32.4 C79.9,32.4 83,35.5 83,39.3 L83,82.6 C83,83.6 83,84.6 82.9,85.5 L80.7,111.8" id="Shape" class="fill-primary-100" fill-rule="nonzero"></path>
            <path d="M79,126.6 L78.4,134.3 C78,139 74.1,142.6 69.5,142.6 L13.8,142.6 C9.1,142.6 5.2,139 4.9,134.3 L0.6,81.7 C0.5,80.7 0.5,79.6 0.5,78.6 L0.5,32.4 C0.5,28.4 3.8,25.1 7.8,25.1 L10.2,25.1" id="Shape" class="stroke-primary" stroke-width="3" stroke-linecap="round" stroke-linejoin="round"></path>
            <path d="M30.5,25 L75.5,25 C79.5,25 82.8,28.3 82.8,32.3 L82.8,78.5 C82.8,79.5 82.8,80.6 82.7,81.6 L79.9,114.9" id="Shape" class="stroke-primary" stroke-width="3" stroke-linecap="round" stroke-linejoin="round"></path>
            <path d="M18.5,25 L19.4,25" id="Shape" class="stroke-primary" stroke-width="3" stroke-linecap="round" stroke-linejoin="round"></path>
            <path d="M72.3,52.8 L72.3,66.5 C72.3,68.5 70.7,70.2 68.8,70.2 L14.2,70.2 C12.3,70.2 10.7,68.6 10.7,66.5 L10.7,52.8 C10.7,50.8 12.3,49.1 14.2,49.1 L68.8,49.1 C70.8,49.2 72.3,50.8 72.3,52.8 Z" id="Shape" class="fill-neutral" fill-rule="nonzero"></path>
            <path d="M72.3,53.5 L72.3,66.5 C72.3,68.5 70.7,70.2 68.8,70.2 L15.6,70.2 L15.6,57.2 C15.6,55.2 17.2,53.5 19.1,53.5 L72.3,53.5 Z" id="Shape" class="fill-primary-300" fill-rule="nonzero"></path>
            <path d="M26.4,48.2 L68.5,48.2 C70.6,48.2 72.3,49.8 72.3,51.7 L72.3,66.7 C72.3,68.6 70.6,70.2 68.5,70.2 L14.6,70.2 C12.5,70.2 10.8,68.6 10.8,66.7 L10.8,51.7 C10.8,49.8 12.5,48.2 14.6,48.2 L18.2,48.2" id="Shape" class="stroke-primary" stroke-width="3" stroke-linecap="round" stroke-linejoin="round"></path>
            <path d="M18.9,81.8 C19.7,81.3 20.6,81 21.7,81 C24.6,81 27,83.4 27,86.3 C27,89.2 24.6,91.6 21.7,91.6 C19,91.6 16.8,89.6 16.5,87" id="Shape" stroke-width="3" class="stroke-primary fill-neutral" fill-rule="nonzero" stroke-linecap="round" stroke-linejoin="round"></path>
            <circle id="Oval" stroke-width="3" class="stroke-primary fill-neutral" fill-rule="nonzero" stroke-linecap="round" stroke-linejoin="round" cx="41.4" cy="86.3" r="5.3"></circle>
            <circle id="Oval" stroke-width="3" class="stroke-primary fill-neutral" fill-rule="nonzero" stroke-linecap="round" stroke-linejoin="round" cx="61.3" cy="86.3" r="5.3"></circle>
            <circle id="Oval" stroke-width="3" class="stroke-primary fill-neutral" fill-rule="nonzero" stroke-linecap="round" stroke-linejoin="round" cx="21.6" cy="104.3" r="5.3"></circle>
            <path d="M43.2,109.3 C42.6,109.5 42.1,109.6 41.4,109.6 C38.5,109.6 36.1,107.2 36.1,104.3 C36.1,101.4 38.5,99 41.4,99 C44.3,99 46.7,101.4 46.7,104.3 C46.7,104.7 46.7,105 46.6,105.4" id="Shape" stroke-width="3" class="stroke-primary fill-neutral" fill-rule="nonzero" stroke-linecap="round" stroke-linejoin="round"></path>
            <circle id="Oval" stroke-width="3" class="stroke-primary fill-neutral" fill-rule="nonzero" stroke-linecap="round" stroke-linejoin="round" cx="61.3" cy="104.3" r="5.3"></circle>
            <circle id="Oval" stroke-width="3" class="stroke-primary fill-neutral" fill-rule="nonzero" stroke-linecap="round" stroke-linejoin="round" cx="21.6" cy="122.4" r="5.3"></circle>
            <circle id="Oval" stroke-width="3" class="stroke-primary fill-neutral" fill-rule="nonzero" stroke-linecap="round" stroke-linejoin="round" cx="41.4" cy="122.4" r="5.3"></circle>
            <circle id="Oval" stroke-width="3" class="stroke-primary fill-neutral" fill-rule="nonzero" stroke-linecap="round" stroke-linejoin="round" cx="61.3" cy="122.4" r="5.3"></circle>
            <g id="Group" transform="translate(11.000000, 0.000000)" class="stroke-primary" stroke-linecap="round" stroke-linejoin="round" stroke-width="3">
                <g transform="translate(2.000000, 0.000000)" id="Shape">
                    <path d="M44.8,5.3 L44.8,0.2 L39.3,4.3 L33.8,0.2 L28.3,4.3 L22.8,0.2 L17.3,4.3 L11.8,0.2 L6.3,4.3 L0.8,0.2 L0.8,28.3 C0.9,35.6 2.3,38.8 8.4,41.1 L52.1,41.1 C46,39.5 44.3,35.8 44.5,28.3 L44.5,16.4" class="fill-neutral" fill-rule="nonzero"></path>
                    <path d="M8.9,23.2 L34.8,23.2"></path>
                    <path d="M24.7,14.2 L34.8,14.2"></path>
                    <path d="M8.9,14.2 L12.8,14.2"></path>
                </g>
                <path d="M0.5,41.2 L61.3,41.2" id="Shape"></path>
            </g>
        </g>
    </g>
</svg>