<?xml version="1.0" encoding="UTF-8"?>
<svg width="152px" height="135px" viewBox="0 0 152 135" version="1.1" xmlns="http://www.w3.org/2000/svg" xmlns:xlink="http://www.w3.org/1999/xlink">
    <!-- Generator: Sketch 51.2 (57519) - http://www.bohemiancoding.com/sketch -->
    <title>Products_in_Basket</title>
    <desc>Created with Sketch.</desc>
    <defs></defs>
    <g id="Page-1" stroke="none" stroke-width="1" fill="none" fill-rule="evenodd">
        <g id="Products_in_Basket" transform="translate(2.000000, 2.000000)">
            <g id="Group" transform="translate(27.000000, 0.000000)">
                <path d="M98,5.6 L98,92.3 C98,95.4 95.5,97.9 92.4,97.9 L5.7,97.9 C2.6,97.9 0.1,95.4 0.1,92.3 L0.1,5.6 C0.1,2.5 2.6,0 5.7,0 L92.4,0 C95.5,0.1 98,2.5 98,5.6 Z" id="Shape" class="fill-neutral" fill-rule="nonzero"></path>
                <path d="M98,8.7 L98,92.6 C98,95.6 95.6,98 92.7,98 L10.5,98 C9.1,98 7.9,97.5 7,96.6 C5.9,95.6 5.3,94.2 5.3,92.6 L5.3,8.7 C5.3,5.7 7.7,3.3 10.6,3.3 L92.8,3.3 C95.7,3.3 98,5.7 98,8.7 Z" id="Shape" class="fill-primary-100" fill-rule="nonzero"></path>
                <path d="M98,44.1 L98,92.5 C98,95.5 95.6,97.9 92.7,97.9 L10.5,97.9 C9.1,97.9 7.9,97.4 7,96.5 C63.6,90.7 87.2,68.4 98,44.1 Z" id="Shape" class="fill-primary-200" fill-rule="nonzero"></path>
                <path d="M12.9,0.1 L92.4,0.1 C95.5,0.1 98,2.6 98,5.7 L98,92.4 C98,95.5 95.5,98 92.4,98 L5.7,98 C2.6,98 0.1,95.5 0.1,92.4 L0.1,5.7 C0.1,2.6 2.6,0.1 5.7,0.1 L12.9,0.1" id="Shape" class="stroke-primary" stroke-width="4.0005" stroke-linecap="round" stroke-linejoin="round"></path>
                <polyline id="Shape" class="fill-primary-300" fill-rule="nonzero" points="37.6 3.6 60.7 3.6 60.7 27.1 54.1 32.7 44.9 27.1 37.4 32.7"></polyline>
                <polyline id="Shape" class="stroke-primary" stroke-width="4.0005" stroke-linecap="round" stroke-linejoin="round" points="37.6 0.1 60.7 0.1 60.7 27.1 54.1 32.7 44.9 27.1 37.4 32.7 37.4 5.7"></polyline>
                <g transform="translate(67.000000, 89.000000)" id="Shape" class="stroke-primary" stroke-linecap="round" stroke-linejoin="round" stroke-width="4.0005">
                    <path d="M7.2,0 L30.2,0"></path>
                    <path d="M0.6,0 L0.9,0"></path>
                </g>
                <polyline id="Shape" class="stroke-primary" stroke-width="4.0005" stroke-linecap="round" stroke-linejoin="round" points="16 71.2 21.6 65.6 27.2 71.2"></polyline>
                <path d="M21.6,66.4 L21.6,77.3" id="Shape" class="stroke-primary" stroke-width="4.0005" stroke-linecap="round" stroke-linejoin="round"></path>
                <polyline id="Shape" class="stroke-primary" stroke-width="4.0005" stroke-linecap="round" stroke-linejoin="round" points="32.4 71.2 38 65.6 43.6 71.2"></polyline>
                <path d="M38,66.4 L38,77.3" id="Shape" class="stroke-primary" stroke-width="4.0005" stroke-linecap="round" stroke-linejoin="round"></path>
                <path d="M15.9,82.5 L43.6,82.5" id="Shape" class="stroke-primary" stroke-width="4.0005" stroke-linecap="round" stroke-linejoin="round"></path>
            </g>
            <g id="Group" transform="translate(0.000000, 49.000000)">
                <g transform="translate(0.000000, 81.000000)" id="Shape" class="stroke-primary-300" stroke-linecap="round" stroke-linejoin="round" stroke-width="3">
                    <path d="M1.5,0.7 L0.3,0.7"></path>
                    <path d="M16,0.7 L6.2,0.7"></path>
                    <path d="M22.2,0.7 L21.1,0.7"></path>
                    <path d="M116.4,0.7 L28.4,0.7"></path>
                    <path d="M148.1,0.7 L121.3,0.7"></path>
                </g>
                <path d="M134.5,22 L124.7,73 C124,77.5 120.1,80.8 115.6,80.8 L36.5,80.8 C32,80.8 28.1,77.5 27.4,73 L17.6,22" id="Shape" class="fill-neutral" fill-rule="nonzero"></path>
                <path d="M134.5,22 L133.6,26.8 L124.7,73 C124,77.5 120.1,80.8 115.6,80.8 L36.5,80.8 C32,80.8 28.1,77.5 27.4,73 L18.5,26.8 L17.6,22 L134.5,22 Z" id="Shape" class="fill-primary-200" fill-rule="nonzero"></path>
                <polygon id="Shape" fill="#9ECBFF" fill-rule="nonzero" points="134.5 22 133.1 28.8 19.1 28.9 17.5 22"></polygon>
                <path d="M62.4,0.8 L137.7,0.8 C141.5,0.8 144.6,3.9 144.6,7.7 L144.6,15.1 C144.6,18.9 141.5,22 137.7,22 L134.4,22" id="Shape" class="fill-neutral" fill-rule="nonzero"></path>
                <path d="M49.7,0.8 L53.9,0.8" id="Shape" class="fill-neutral" fill-rule="nonzero"></path>
                <path d="M17.5,22 L14.2,22 C10.4,22 7.3,18.9 7.3,15.1 L7.3,7.7 C7.3,3.9 10.4,0.8 14.2,0.8 L49.6,0.8" id="Shape" class="fill-neutral" fill-rule="nonzero"></path>
                <path d="M17.3,22 L14,22 C10.2,22 7.1,19 7.1,15.2 L7.1,7.9 C7.1,4.1 10.2,1.1 14,1.1 L137.7,1.1 C141.5,1.1 144.6,4.1 144.6,7.9 L144.6,15.2 C144.6,19 141.5,22 137.7,22 L134.4,22" id="Shape" class="fill-primary-100" fill-rule="nonzero"></path>
                <path d="M57.2,0.8 L137.7,0.8 C141.5,0.8 144.6,3.9 144.6,7.7 L144.6,15.1 C144.6,18.9 141.5,22 137.7,22 L134.4,22" id="Shape" class="stroke-primary" stroke-width="3" stroke-linecap="round" stroke-linejoin="round"></path>
                <path d="M17.5,22 L14.2,22 C10.4,22 7.3,18.9 7.3,15.1 L7.3,7.7 C7.3,3.9 10.4,0.8 14.2,0.8 L57.1,0.8" id="Shape" class="stroke-primary" stroke-width="3" stroke-linecap="round" stroke-linejoin="round"></path>
                <path d="M24.8,59.6 L17.5,22" id="Shape" class="stroke-primary" stroke-width="3" stroke-linecap="round" stroke-linejoin="round"></path>
                <path d="M134.5,22 L124.7,73 C124,77.5 120.1,80.8 115.6,80.8 L36.5,80.8 C32,80.8 28.1,77.5 27.4,73 L26.9,70.5" id="Shape" class="stroke-primary" stroke-width="3" stroke-linecap="round" stroke-linejoin="round"></path>
                <g transform="translate(39.000000, 36.000000)" id="Shape" class="stroke-primary" stroke-linecap="round" stroke-linejoin="round" stroke-width="3">
                    <path d="M0.7,0 L6.8,30.8"></path>
                    <path d="M20.9,23.8 L21.9,30.8"></path>
                    <path d="M17.6,0 L20,17.3"></path>
                    <path d="M37,0 L37,30.8"></path>
                    <path d="M54.7,12.2 L52.1,30.8"></path>
                    <path d="M56.4,0 L55.5,6.6"></path>
                    <path d="M67.5,29.4 L67.2,30.8"></path>
                    <path d="M73.3,0 L68.9,22.3"></path>
                </g>
                <path d="M123.9,22 L28.1,22" id="Shape" class="stroke-primary" stroke-width="3" stroke-linecap="round" stroke-linejoin="round"></path>
            </g>
            <g id="Group" transform="translate(18.000000, 7.000000)" fill-rule="nonzero">
                <path d="M66.9,19.5 C66.9,19.5 67,19.5 66.9,19.5 C66.7,19.1 66.4,18.9 66,18.9 L41.8,18.9 L41.8,19.5 L66.9,19.5 Z" id="Shape" class="fill-neutral"></path>
                <path d="M4.5,18.9 C3.9,18.9 3.5,19.4 3.5,19.9 L3.5,27.1 C3.5,27.7 4,28.1 4.5,28.1 L4.6,28.1 L4.6,20.8 C4.6,20 5.4,19.3 6.3,19.3 L28.7,19.3 L28.7,18.7 L9.8,18.7 C8.9,18.7 8.2,18 8.2,17.1 L6.1,17.1 C6.1,18.2 5.4,18.9 4.5,18.9 Z" id="Shape" class="fill-neutral"></path>
                <path d="M28.8,24.8 L28.8,19.5 L6.4,19.5 C5.5,19.5 4.7,20.2 4.7,21 L4.7,28.3 L6,28.3 L30.2,28.3 L30.2,26.4 C29.4,26.3 28.8,25.6 28.8,24.8 Z" id="Shape" class="fill-primary-300"></path>
                <path d="M41.8,19.5 L41.8,28.2 L54.9,28.2 L55.1,28.2 C56,28.2 56.7,28.9 56.7,29.8 L59.6,29.8 C59.6,28.9 60.3,28.2 61.2,28.2 L62.1,28.2 L64.5,28.2 L65.9,28.2 C66.5,28.2 66.9,27.7 66.9,27.2 L66.9,20 C66.9,19.8 66.9,19.7 66.8,19.6 C66.8,19.6 66.8,19.6 66.8,19.6 L41.8,19.6 L41.8,19.5 Z" id="Shape" class="fill-primary-300"></path>
                <polygon id="Shape" class="fill-neutral" points="56.7 29.9 56.7 29.9 59.6 29.9 59.6 29.9 59.6 29.9"></polygon>
                <polygon id="Shape" class="fill-neutral" points="9.6 31.5 7.5 31.5 7.5 41.3 9.6 41.3 9.6 33.4"></polygon>
                <rect id="Rectangle-path" class="fill-primary-300" x="41.8" y="33.4" width="21.2" height="8"></rect>
                <rect id="Rectangle-path" class="fill-primary-300" x="9.6" y="33.4" width="19.2" height="8"></rect>
                <path d="M32,24.8 C32,25.7 31.3,26.4 30.4,26.4 C30.3,26.4 30.3,26.4 30.2,26.4 L30.2,28.3 L30.4,28.3 L38.6,28.3 L38.6,19 L32,19 L32,24.8 Z" id="Shape" class="fill-neutral"></path>
                <rect id="Rectangle-path" class="fill-neutral" x="32" y="33.4" width="6.6" height="8"></rect>
                <path d="M55.1,31.5 L54.9,31.5 L41.8,31.5 L41.8,33.4 L63,33.4 L63,31.5 L62.2,31.5 L61.3,31.5 C60.4,31.5 59.7,30.8 59.7,29.9 L56.8,29.9 C56.7,30.8 56,31.5 55.1,31.5 Z" id="Shape" fill="#5EA6FF"></path>
                <rect id="Rectangle-path" fill="#5EA6FF" x="9.6" y="31.5" width="19.2" height="1.9"></rect>
                <rect id="Rectangle-path" fill="#5EA6FF" x="32" y="31.5" width="6.6" height="1.9"></rect>
                <path d="M63,31.5 L63,33.4 L63,41.4 L66.2,41.4 L66.2,31.5 C66.1,31.5 66.1,31.5 66,31.5 L63,31.5 Z" id="Shape" class="fill-primary"></path>
                <path d="M4.5,31.5 C4.4,31.5 4.4,31.5 4.3,31.5 L4.3,41.4 L7.5,41.4 L7.5,31.5 L4.5,31.5 Z" id="Shape" class="fill-primary"></path>
                <path d="M55.1,31.5 C56,31.5 56.7,30.8 56.7,29.9 C56.7,29.9 56.7,29.9 56.7,29.9 C56.7,29.9 56.7,29.9 56.7,29.9 C56.7,29 56,28.3 55.1,28.3 L54.9,28.3 L41.8,28.3 L41.8,31.5 L54.9,31.5 L55.1,31.5 Z" id="Shape" class="fill-primary"></path>
                <path d="M7.5,31.5 L9.5,31.5 L28.7,31.5 L28.7,29.9 C28.7,29 29.4,28.3 30.3,28.3 L30.1,28.3 L5.9,28.3 L4.6,28.3 L4.5,28.3 C3.9,28.3 3.5,27.8 3.5,27.3 L3.5,20.1 C3.5,19.5 4,19.1 4.5,19.1 C5.4,19.1 6.1,18.4 6.1,17.5 C6.1,16.6 5.4,15.9 4.5,15.9 C2.2,15.9 0.3,17.8 0.3,20.1 L0.3,27.3 C0.3,29.6 2.1,31.4 4.4,31.5 C4.5,31.5 4.5,31.5 4.6,31.5 L7.5,31.5 Z" id="Shape" class="fill-primary"></path>
                <path d="M32,29.9 L32,31.5 L38.6,31.5 L38.6,28.3 L30.4,28.3 C31.2,28.3 32,29 32,29.9 Z" id="Shape" class="fill-primary"></path>
                <path d="M66,15.7 L47.8,15.7 C46.4,17.5 44.2,18.7 41.7,18.7 L41.7,18.9 L65.9,18.9 C66.3,18.9 66.7,19.1 66.8,19.5 C66.9,19.6 66.9,19.8 66.9,19.9 L66.9,27.1 C66.9,27.7 66.4,28.1 65.9,28.1 L64.5,28.1 L62.1,28.1 L61.2,28.1 C60.3,28.1 59.6,28.8 59.6,29.7 C59.6,29.7 59.6,29.7 59.6,29.7 C59.6,29.7 59.6,29.7 59.6,29.7 C59.6,30.6 60.3,31.3 61.2,31.3 L62.1,31.3 L62.9,31.3 L65.9,31.3 C66,31.3 66,31.3 66.1,31.3 C68.4,31.2 70.2,29.3 70.2,27.1 L70.2,19.9 C70.3,17.6 68.4,15.7 66,15.7 Z" id="Shape" class="fill-primary"></path>
                <path d="M9.8,18.9 L28.7,18.9 L28.7,18.7 L28.3,18.7 C25.7,18.7 23.3,17.5 21.7,15.7 L9.8,15.7 C8.9,15.7 8.2,16.4 8.2,17.3 C8.2,18.2 8.9,18.9 9.8,18.9 Z" id="Shape" class="fill-primary"></path>
                <path d="M35.7,18.7 C35.7,18.7 35.6,18.7 35.7,18.7 L32,18.7 L32,18.9 L38.6,18.9 L38.6,18.7 L35.7,18.7 C35.7,18.7 35.7,18.7 35.7,18.7 Z" id="Shape" class="fill-primary"></path>
                <path d="M30.2,26.4 C30.3,26.4 30.3,26.4 30.4,26.4 C31.3,26.4 32,25.7 32,24.8 L32,18.9 L32,18.7 L28.8,18.7 L28.8,18.9 L28.8,19.5 L28.8,24.8 C28.8,25.6 29.4,26.3 30.2,26.4 Z" id="Shape" class="fill-primary"></path>
                <path d="M32,31.5 L32,29.9 C32,29 31.3,28.3 30.4,28.3 C29.5,28.3 28.8,29 28.8,29.9 L28.8,31.5 L28.8,33.4 L28.8,41.4 L32,41.4 L32,33.4 L32,31.5 Z" id="Shape" class="fill-primary"></path>
                <polygon id="Shape" class="fill-primary" points="41.8 31.5 41.8 28.3 41.8 19.5 41.8 18.9 41.8 18.7 38.6 18.7 38.6 18.9 38.6 28.3 38.6 31.5 38.6 33.4 38.6 41.3 41.8 41.3 41.8 33.4"></polygon>
                <path d="M28.4,15.5 L34.1,15.5 L34.1,9.8 C34.1,6.7 31.6,4.1 28.4,4.1 C25.2,4.1 22.7,6.6 22.7,9.8 C22.7,13 25.2,15.5 28.4,15.5 Z" id="Shape" class="fill-neutral"></path>
                <path d="M28.4,18.7 L28.8,18.7 L32,18.7 L35.7,18.7 C35.7,18.7 35.7,18.7 35.8,18.7 C34.9,18.7 34.3,18 34.3,17.1 L34.3,11 C34.3,9 35.1,7.1 36.4,5.7 C34.9,2.9 32,0.9 28.5,0.9 C23.6,0.9 19.6,4.9 19.6,9.8 C19.6,12.1 20.5,14.1 21.9,15.7 C23.4,17.6 25.7,18.7 28.4,18.7 Z M22.7,9.8 C22.7,6.7 25.2,4.1 28.4,4.1 C31.6,4.1 34.1,6.6 34.1,9.8 L34.1,15.5 L28.4,15.5 C25.2,15.5 22.7,13 22.7,9.8 Z" id="Shape" class="fill-primary"></path>
                <path d="M37.3,15.5 L41.8,15.5 C44.3,15.5 46.3,13.5 46.3,11 C46.3,8.5 44.3,6.5 41.8,6.5 C39.3,6.5 37.3,8.5 37.3,11 L37.3,15.5 Z" id="Shape" class="fill-neutral"></path>
                <path d="M34.1,11 L34.1,17.1 C34.1,18 34.8,18.7 35.6,18.7 C35.6,18.7 35.6,18.7 35.7,18.7 L38.6,18.7 L41.8,18.7 C44.3,18.7 46.4,17.5 47.9,15.7 C48.9,14.4 49.5,12.8 49.5,11 C49.5,6.8 46.1,3.3 41.8,3.3 C39.6,3.3 37.6,4.2 36.2,5.7 C34.9,7.1 34.1,9 34.1,11 Z M41.8,6.6 C44.3,6.6 46.3,8.6 46.3,11.1 C46.3,13.6 44.3,15.6 41.8,15.6 L37.3,15.6 L37.3,11.1 C37.3,8.6 39.3,6.6 41.8,6.6 Z" id="Shape" class="fill-primary"></path>
            </g>
            <g id="Group" transform="translate(92.000000, 26.000000)">
                <path d="M15.7,8.2 L17.9,8.2 L17.9,6 C17.9,4.8 16.9,3.8 15.7,3.8 C14.5,3.8 13.5,4.8 13.5,6 C13.5,7.2 14.5,8.2 15.7,8.2 Z" id="Shape"></path>
                <path d="M24.4,6.6 C24.4,5.7 23.7,5 22.8,5 C21.9,5 21.2,5.7 21.2,6.6 L21.2,8.2 L22.8,8.2 C23.7,8.2 24.4,7.4 24.4,6.6 Z" id="Shape"></path>
                <path d="M25,14.9 L25.8,14.9 C26.7,14.9 27.4,15.6 27.4,16.5 L31.5,16.5 C31.5,15.6 32.2,14.9 33.1,14.9 L33.6,14.9 L34.9,14.9 L35.4,14.9 L35.4,11.5 L23.6,11.5 L23.6,14.9 L25,14.9 Z" id="Shape" class="fill-primary-300" fill-rule="nonzero"></path>
                <polygon id="Shape" class="fill-primary-300" fill-rule="nonzero" points="6.6 11.5 6 11.5 3.4 11.5 3.4 14.9 3.9 14.9 15.2 14.9 15.2 11.5"></polygon>
                <polygon id="Shape" class="fill-neutral" fill-rule="nonzero" points="27.4 16.5 27.4 16.5 31.4 16.5 31.4 16.5 31.4 16.5"></polygon>
                <rect id="Rectangle-path" class="fill-primary-300" fill-rule="nonzero" x="5.5" y="18.1" width="9.7" height="4.1"></rect>
                <path d="M33,18.1 C32.1,18.1 31.4,17.4 31.4,16.5 L27.3,16.5 C27.3,17.4 26.6,18.1 25.7,18.1 L24.9,18.1 L23.5,18.1 L23.5,22.2 L33.2,22.2 L33.2,18.1 L33,18.1 Z" id="Shape" class="fill-primary-300" fill-rule="nonzero"></path>
                <rect id="Rectangle-path" class="fill-neutral" fill-rule="nonzero" x="18.4" y="11.5" width="2" height="3.4"></rect>
                <rect id="Rectangle-path" class="fill-neutral" fill-rule="nonzero" x="18.4" y="18.1" width="2" height="4.1"></rect>
                <path d="M33.2,18.1 L33.2,22.2 L36.4,22.2 L36.4,17.9 C36.1,18 35.8,18 35.5,18 L33.2,18 L33.2,18.1 Z" id="Shape" class="fill-primary" fill-rule="nonzero"></path>
                <path d="M27.4,16.5 C27.4,15.6 26.7,14.9 25.8,14.9 L25,14.9 C25.9,14.9 26.6,15.6 26.6,16.5 C26.6,17.4 25.9,18.1 25,18.1 L25.8,18.1 C26.6,18.1 27.4,17.4 27.4,16.5 C27.4,16.5 27.4,16.5 27.4,16.5 C27.4,16.5 27.4,16.5 27.4,16.5 Z" id="Shape" class="fill-primary" fill-rule="nonzero"></path>
                <path d="M3.2,18.1 C2.9,18.1 2.6,18 2.3,18 L2.3,22.3 L5.5,22.3 L5.5,18.2 L3.2,18.2 L3.2,18.1 Z" id="Shape" class="fill-primary" fill-rule="nonzero"></path>
                <path d="M5.5,18.1 L15.2,18.1 L15.2,16.5 L15.2,14.9 L3.9,14.9 L3.4,14.9 L3.4,11.5 L6,11.5 C5.1,11.5 4.4,10.8 4.4,9.9 C4.4,9 5.1,8.3 6,8.3 L3.2,8.3 C1.5,8.3 0.2,9.6 0.2,11.3 L0.2,15.1 C0.2,16.5 1.1,17.6 2.3,18 C2.6,18.1 2.9,18.1 3.2,18.1 L5.5,18.1 Z" id="Shape" class="fill-primary" fill-rule="nonzero"></path>
                <path d="M26.6,16.5 C26.6,15.6 25.9,14.9 25,14.9 L23.6,14.9 L23.6,18.1 L25,18.1 C25.9,18.1 26.6,17.4 26.6,16.5 Z" id="Shape" class="fill-primary" fill-rule="nonzero"></path>
                <polygon id="Shape" class="fill-primary" fill-rule="nonzero" points="18.4 16.5 18.4 16.5 18.4 18.1 20.3 18.1 20.3 14.9 18.4 14.9"></polygon>
                <path d="M35.5,8.3 L27.2,8.3 C26.6,9.9 25.2,11 23.5,11.3 L23.5,11.5 L35.3,11.5 L35.3,14.9 L34.8,14.9 L33.5,14.9 L33,14.9 C32.1,14.9 31.4,15.6 31.4,16.5 C31.4,16.5 31.4,16.5 31.4,16.5 C31.4,16.5 31.4,16.5 31.4,16.5 C31.4,17.4 32.1,18.1 33,18.1 L33.2,18.1 L35.5,18.1 C35.8,18.1 36.1,18 36.4,18 C37.6,17.6 38.5,16.5 38.5,15.1 L38.5,11.3 C38.5,9.6 37.2,8.3 35.5,8.3 Z" id="Shape" class="fill-primary" fill-rule="nonzero"></path>
                <path d="M19.6,11.4 C19.6,11.4 19.6,11.4 19.6,11.4 L18.4,11.4 L18.4,11.5 L20.4,11.5 L20.4,11.4 L19.6,11.4 C19.6,11.4 19.6,11.4 19.6,11.4 Z" id="Shape" class="fill-primary" fill-rule="nonzero"></path>
                <path d="M4.4,9.9 C4.4,10.8 5.1,11.5 6,11.5 L6.6,11.5 L15.2,11.5 L15.2,11.4 C13.3,11.2 11.7,10 10.9,8.3 L6.7,8.3 L6.1,8.3 C5.1,8.3 4.4,9 4.4,9.9 Z" id="Shape" class="fill-primary" fill-rule="nonzero"></path>
                <path d="M18.4,14.9 L18.4,11.5 L18.4,11.4 L15.7,11.4 C15.5,11.4 15.3,11.4 15.2,11.4 L15.2,11.5 L15.2,14.9 L15.2,16.5 C15.2,15.6 15.9,14.9 16.8,14.9 C17.7,14.9 18.4,15.6 18.4,16.5 L18.4,14.9 Z" id="Shape" class="fill-primary" fill-rule="nonzero"></path>
                <path d="M18.4,16.5 C18.4,15.6 17.7,14.9 16.8,14.9 C15.9,14.9 15.2,15.6 15.2,16.5 L15.2,18.1 L15.2,22.2 L18.4,22.2 L18.4,18.1 L18.4,16.5 Z" id="Shape" class="fill-primary" fill-rule="nonzero"></path>
                <path d="M23.5,14.9 L23.5,11.5 L23.5,11.3 C23.3,11.3 23,11.4 22.8,11.4 L20.3,11.4 L20.3,11.5 L20.3,14.9 L20.3,18.1 L20.3,22.2 L23.5,22.2 L23.5,18.1 L23.5,14.9 Z" id="Shape" class="fill-primary" fill-rule="nonzero"></path>
                <path d="M15.2,11.3 C15.4,11.3 15.6,11.3 15.7,11.3 L18.4,11.3 L19.6,11.3 C19.6,11.3 19.6,11.3 19.6,11.3 C18.7,11.3 18,10.6 18,9.7 L18,6.5 C18,4.9 18.8,3.5 20,2.6 C19,1.3 17.4,0.5 15.7,0.5 C12.7,0.5 10.3,2.9 10.3,5.9 C10.3,6.7 10.5,7.5 10.8,8.2 C11.6,9.9 13.3,11.1 15.2,11.3 Z M15.7,3.7 C16.9,3.7 17.9,4.7 17.9,5.9 L17.9,8.1 L15.7,8.1 C14.5,8.1 13.5,7.1 13.5,5.9 C13.5,4.7 14.5,3.7 15.7,3.7 Z" id="Shape" class="fill-primary" fill-rule="nonzero"></path>
                <path d="M18,6.6 L18,9.8 C18,10.7 18.7,11.4 19.6,11.4 C19.6,11.4 19.6,11.4 19.6,11.4 L20.3,11.4 L22.8,11.4 C23.1,11.4 23.3,11.4 23.5,11.3 C25.2,11 26.6,9.9 27.2,8.3 C27.4,7.8 27.5,7.2 27.5,6.6 C27.5,4 25.3,1.8 22.7,1.8 C21.7,1.8 20.7,2.1 19.9,2.7 C18.8,3.5 18,4.9 18,6.6 Z M21.2,6.6 C21.2,5.7 21.9,5 22.8,5 C23.7,5 24.4,5.7 24.4,6.6 C24.4,7.5 23.7,8.2 22.8,8.2 L21.2,8.2 L21.2,6.6 Z" id="Shape" class="fill-primary" fill-rule="nonzero"></path>
            </g>
        </g>
    </g>
</svg>