<?xml version="1.0" encoding="UTF-8"?>
<svg width="150px" height="145px" viewBox="0 0 150 145" version="1.1" xmlns="http://www.w3.org/2000/svg" xmlns:xlink="http://www.w3.org/1999/xlink">
    <!-- Generator: Sketch 51.2 (57519) - http://www.bohemiancoding.com/sketch -->
    <title>Protein</title>
    <desc>Created with Sketch.</desc>
    <defs></defs>
    <g id="Page-1" stroke="none" stroke-width="1" fill="none" fill-rule="evenodd">
        <g id="Protein" transform="translate(2.000000, 1.000000)">
            <g id="Group" transform="translate(0.000000, 141.000000)" class="stroke-primary-300" stroke-linecap="round" stroke-linejoin="round" stroke-width="3">
                <path d="M1.7,0.8 L0.3,0.8" id="Shape"></path>
                <path d="M41.8,0.8 L7.3,0.8" id="Shape"></path>
                <path d="M49.3,0.8 L47.9,0.8" id="Shape"></path>
                <path d="M139.2,0.8 L56.9,0.8" id="Shape"></path>
                <path d="M145.8,0.8 L143.7,0.8" id="Shape"></path>
            </g>
            <path d="M100.8,22.5 L44.5,22.5 C41.6,22.5 39.2,20.1 39.2,17.2 L39.2,5.8 C39.2,2.9 41.6,0.5 44.5,0.5 L100.8,0.5 C103.7,0.5 106.1,2.9 106.1,5.8 L106.1,17.2 C106.1,20.1 103.7,22.5 100.8,22.5 Z" id="Shape" class="fill-neutral" fill-rule="nonzero"></path>
            <path d="M101.4,22.5 L51.8,22.5 C49.2,22.5 47.1,20.9 47.1,18.8 L47.1,10.9 C47.1,8.9 49.2,7.2 51.8,7.2 L101.4,7.2 C104,7.2 106.1,8.8 106.1,10.9 L106.1,18.8 C106.1,20.9 104,22.5 101.4,22.5 Z" id="Shape" class="fill-primary-400" fill-rule="nonzero"></path>
            <path d="M32.7,40.2 C38,34.2 45.7,30.4 54.3,30.4 L91.1,30.4 C106.9,30.4 119.8,43.2 119.8,59.1 L119.8,116.6 C119.8,130.2 108.8,141.3 95.1,141.3 L50.3,141.3 C36.7,141.3 25.6,130.3 25.6,116.6 L25.6,59.1 C25.6,51.8 28.3,45.2 32.7,40.2" id="Shape" class="fill-neutral" fill-rule="nonzero"></path>
            <path d="M119.7,62.9 L119.7,118.6 C119.7,131 109.6,141.1 97.2,141.1 L59,141.1 C47.4,141.1 37.8,132.3 36.6,121 C36.5,120.2 36.5,119.4 36.5,118.6 L36.5,62.9 C36.5,48.4 48.2,36.7 62.7,36.7 L93.6,36.7 C108,36.7 119.7,48.5 119.7,62.9 Z" id="Shape" class="fill-primary-100" fill-rule="nonzero"></path>
            <path d="M119.7,95.5 L119.7,118.6 C119.7,131 109.6,141.1 97.2,141.1 L59,141.1 C52.4,141.1 46.4,138.2 42.3,133.7 C37.9,128.8 41.3,121 47.8,121 C55.7,121 69.6,121 94.1,121 C108.3,121.1 119.7,109.7 119.7,95.5 Z" id="Shape" fill="#BAD8FF" fill-rule="nonzero"></path>
            <path d="M30.7,42.8 C30.8,42.7 30.9,42.6 30.9,42.5" id="Shape" class="stroke-primary" stroke-width="3" stroke-linecap="round" stroke-linejoin="round"></path>
            <path d="M35.3,37.5 C40.4,33.1 47,30.4 54.2,30.4 L91,30.4 C106.8,30.4 119.7,43.2 119.7,59.1 L119.7,116.6 C119.7,130.2 108.7,141.3 95,141.3 L50.2,141.3 C36.6,141.3 25.5,130.3 25.5,116.6 L25.5,59.1 C25.5,58.1 25.6,57 25.7,56" id="Shape" class="stroke-primary" stroke-width="3" stroke-linecap="round" stroke-linejoin="round"></path>
            <path d="M54.1,0.6 L100.8,0.6 C103.7,0.6 106.1,3 106.1,5.9 L106.1,17.3 C106.1,20.2 103.7,22.6 100.8,22.6 L44.5,22.6 C41.6,22.6 39.2,20.2 39.2,17.3 L39.2,5.9 C39.2,3 41.6,0.6 44.5,0.6" id="Shape" class="stroke-primary" stroke-width="3" stroke-linecap="round" stroke-linejoin="round"></path>
            <path d="M60.2,62.8 L60.7,62.8" id="Shape" class="stroke-primary" stroke-width="3" stroke-linecap="round" stroke-linejoin="round"></path>
            <path d="M35.3,62.8 L54.8,62.8" id="Shape" class="stroke-primary" stroke-width="3" stroke-linecap="round" stroke-linejoin="round"></path>
            <path d="M84.3,14.5 L84.2,14.5" id="Shape" class="stroke-primary" stroke-width="3" stroke-linecap="round" stroke-linejoin="round"></path>
            <path d="M103.7,14.5 L91.2,14.5" id="Shape" class="stroke-primary" stroke-width="3" stroke-linecap="round" stroke-linejoin="round"></path>
            <path d="M59.3,110.7 L119.8,110.7" id="Shape" class="stroke-primary" stroke-width="3" stroke-linecap="round" stroke-linejoin="round"></path>
            <path d="M26,110.7 L33.9,110.7" id="Shape" class="stroke-primary" stroke-width="3" stroke-linecap="round" stroke-linejoin="round"></path>
        </g>
    </g>
</svg>