<?xml version="1.0" encoding="UTF-8"?>
<svg width="150px" height="150px" viewBox="0 0 150 150" version="1.1" xmlns="http://www.w3.org/2000/svg" xmlns:xlink="http://www.w3.org/1999/xlink">
    <!-- Generator: Sketch 51.2 (57519) - http://www.bohemiancoding.com/sketch -->
    <title>QR_Code</title>
    <desc>Created with Sketch.</desc>
    <defs></defs>
    <g id="Page-1" stroke="none" stroke-width="1" fill="none" fill-rule="evenodd">
        <g id="QR_Code" transform="translate(2.000000, 1.000000)">
            <g id="Group" transform="translate(21.000000, 22.000000)">
                <path d="M103.6,103.3 C95.5,103.3 83.7,103.3 75.5,103.3 C75.5,100.8 75.5,98.3 75.5,95.6 C77.9,95.6 80.8,95.6 83.2,95.6 C83.4,92.8 83,90.4 83.2,87.9 C85.5,87.9 87.9,87.9 90.5,87.9 C90.5,90.6 90.5,93 90.5,95.4 C92.2,95.4 93.8,95.4 95.5,95.4 C95.5,90.4 95.5,85.6 95.5,80.6 C97.1,80.6 102.2,80.6 103.6,80.6 C103.6,88.2 103.6,95.8 103.6,103.3 Z" id="Shape" class="fill-neutral" fill-rule="nonzero"></path>
                <path d="M103.6,57.9 C102.2,57.9 97.2,57.9 95.7,57.9 C95.7,55.4 95.7,53 95.7,50.5 C97.1,50.5 102.2,50.5 103.6,50.5 C103.6,52.9 103.6,55.4 103.6,57.9 Z" id="Shape" class="fill-neutral" fill-rule="nonzero"></path>
                <path d="M103.6,75.4 C102.2,75.4 97.1,75.4 95.6,75.4 C95.6,72.8 95.6,70.5 95.6,68 C97.1,68 102.2,68 103.6,68 C103.6,70.4 103.6,72.9 103.6,75.4 Z" id="Shape" class="fill-neutral" fill-rule="nonzero"></path>
                <path d="M0.6,103 C0.6,89.6 0.6,76.3 0.6,62.9 C14,62.9 27.3,62.9 40.7,62.9 C40.7,76.2 40.7,89.5 40.7,103 C27.4,103 14.1,103 0.6,103 Z M5.7,68 C5.7,78.1 5.7,88.1 5.7,98 C15.8,98 25.7,98 35.7,98 C35.7,87.9 35.7,78 35.7,68 C25.7,68 15.8,68 5.7,68 Z" id="Shape" class="fill-neutral" fill-rule="nonzero"></path>
                <path d="M40.7,40 C27.3,40 14.1,40 0.7,40 C0.7,26.7 0.7,13.4 0.7,0 C14,0 27.3,0 40.7,0 C40.7,13.3 40.7,26.5 40.7,40 Z M35.7,35.1 C35.7,25 35.7,15.1 35.7,5.2 C25.6,5.2 15.7,5.2 5.7,5.2 C5.7,15.3 5.7,25.2 5.7,35.1 C15.8,35.1 25.7,35.1 35.7,35.1 Z" id="Shape" class="fill-neutral" fill-rule="nonzero"></path>
                <path d="M103.7,40 C90.3,40 77.1,40 63.7,40 C63.7,26.7 63.7,13.4 63.7,0 C77,0 90.3,0 103.7,0 C103.7,13.3 103.7,26.5 103.7,40 Z M98.7,35.1 C98.7,25 98.7,15.1 98.7,5.2 C88.6,5.2 78.7,5.2 68.7,5.2 C68.7,15.3 68.7,25.2 68.7,35.1 C78.8,35.1 88.7,35.1 98.7,35.1 Z" id="Shape" class="fill-neutral" fill-rule="nonzero"></path>
                <path d="M65.1,45.3 C65.1,47.8 65.1,60.1 65.1,62.8 C62.8,62.8 60.4,62.8 57.9,62.8 C57.9,66.3 57.9,69.5 57.9,73 C60.3,73 62.7,73 65.2,73 C65.2,75.5 65.2,77.8 65.2,80.3 C62.8,80.3 60.4,80.3 57.9,80.3 C57.9,85.5 57.9,90.4 57.9,95.7 C60.3,95.6 62.7,95.5 65.2,95.3 L65.1,95.3 C65.1,97.8 65.1,100.4 65.1,103.1 C60.3,103.1 55.3,103.1 50.3,103.1 C50.3,89.7 50.3,76.5 50.3,63 C52.7,63 55,63 57.7,63 C57.7,60.3 57.7,48.1 57.7,45.4 C60.3,45.4 62.7,45.4 65.1,45.3 Z" id="Shape" class="fill-neutral" fill-rule="nonzero"></path>
                <path d="M26.2,47.8 C17.7,47.8 9.5,47.8 1.1,47.8 C1.1,50.3 1.1,52.7 1.1,55.2 C9.5,55.2 17.8,55.2 26.2,55.2 C26.2,52.8 26.2,50.4 26.2,47.8 Z" id="Shape" class="fill-neutral" fill-rule="nonzero"></path>
                <path d="M48.5,2.4 C51.1,2.4 53.5,2.4 55.9,2.4 C55.9,7.4 55.9,12.3 55.9,17.3 C53.4,17.3 51,17.3 48.5,17.3 C48.5,12.4 48.5,7.4 48.5,2.4 Z" id="Shape" class="fill-neutral" fill-rule="nonzero"></path>
                <path d="M48.5,29.9 C48.5,27.5 48.5,25.1 48.5,22.6 C51,22.6 53.3,22.6 55.9,22.6 C55.9,25 55.9,27.3 55.9,29.9 C53.5,29.9 51.1,29.9 48.5,29.9 Z" id="Shape" class="fill-neutral" fill-rule="nonzero"></path>
                <path d="M56,35.3 C56,37.8 56,40.1 56,42.5 C53.5,42.5 51.1,42.5 48.5,42.5 C48.5,40.2 48.5,37.8 48.5,35.3 C51,35.3 53.4,35.3 56,35.3 Z" id="Shape" class="fill-neutral" fill-rule="nonzero"></path>
                <path d="M83.2,87.9 C80.6,87.9 78.2,87.9 75.5,87.9 C75.5,85.5 75.5,83.2 75.5,80.7 C77.9,80.7 80.7,80.7 83.2,80.7 C83.4,83.1 83.1,85.5 83.2,87.9 C83.2,87.9 83.2,87.9 83.2,87.9 Z" id="Shape" class="fill-neutral" fill-rule="nonzero"></path>
                <path d="M33.9,47.8 C33.9,50.3 33.9,52.7 33.9,55.1 C36.4,55.1 38.7,55.1 41.2,55.1 C41.2,52.7 41.2,50.3 41.2,47.8 C38.8,47.8 36.4,47.8 33.9,47.8 Z" id="Shape" class="fill-neutral" fill-rule="nonzero"></path>
                <path d="M65.2,95.4 C65.2,93.1 65.2,90.7 65.2,88.2 C67.8,88.2 70.2,88.2 72.8,88.2 C72.8,90.6 72.8,93 72.8,95.4 C70.2,95.4 67.7,95.4 65.2,95.4 C65.1,95.4 65.2,95.4 65.2,95.4 Z" id="Shape" class="fill-neutral" fill-rule="nonzero"></path>
                <path d="M76.3,12.5 C81.3,12.5 86.2,12.5 91.2,12.5 C91.2,17.5 91.2,22.5 91.2,27.6 C86.3,27.6 81.4,27.6 76.3,27.6 C76.3,22.7 76.3,17.7 76.3,12.5 Z" id="Shape" class="fill-neutral" fill-rule="nonzero"></path>
                <path d="M28.2,75.5 C28.2,80.6 28.2,85.5 28.2,90.6 C23.2,90.6 18.3,90.6 13.3,90.6 C13.3,85.6 13.3,80.6 13.3,75.5 C18.2,75.5 23.1,75.5 28.2,75.5 Z" id="Shape" class="fill-neutral" fill-rule="nonzero"></path>
                <path d="M13.3,12.5 C18.3,12.5 23.2,12.5 28.2,12.5 C28.2,17.6 28.2,22.6 28.2,27.6 C23.3,27.6 18.4,27.6 13.3,27.6 C13.3,22.7 13.3,17.7 13.3,12.5 Z" id="Shape" class="fill-neutral" fill-rule="nonzero"></path>
                <polygon id="Shape" class="fill-neutral" fill-rule="nonzero" points="87.4 51 87.4 67.4 80.1 67.4 80.1 58.4 71 58.4 71 51 80.1 51 80.1 51"></polygon>
                <path d="M103,103.3 C94.9,103.3 83.1,103.3 74.9,103.3 C74.9,100.8 74.9,98.3 74.9,95.6 C77.3,95.6 80.2,95.6 82.6,95.6 C82.8,92.8 82.4,90.4 82.6,87.9 C84.9,87.9 87.3,87.9 89.9,87.9 C89.9,90.6 89.9,93 89.9,95.4 C91.6,95.4 93.2,95.4 94.9,95.4 C94.9,90.4 94.9,85.6 94.9,80.6 C96.5,80.6 101.6,80.6 103,80.6 C103,88.2 103,95.8 103,103.3 Z" id="Shape" fill="#C1DDFE" fill-rule="nonzero"></path>
                <path d="M103,57.9 C101.6,57.9 96.6,57.9 95.1,57.9 C95.1,55.4 95.1,53 95.1,50.5 C96.5,50.5 101.6,50.5 103,50.5 C103,52.9 103,55.4 103,57.9 Z" id="Shape" fill="#C1DDFE" fill-rule="nonzero"></path>
                <path d="M103.6,75.4 C102.2,75.4 97.1,75.4 95.6,75.4 C95.6,72.8 95.6,70.5 95.6,68 C97.1,68 102.2,68 103.6,68 C103.6,70.4 103.6,72.9 103.6,75.4 Z" id="Shape" fill="#C1DDFE" fill-rule="nonzero"></path>
                <path d="M0,103 C0,89.6 0,76.3 0,62.9 C13.4,62.9 26.7,62.9 40.1,62.9 C40.1,76.2 40.1,89.5 40.1,103 C26.8,103 13.5,103 0,103 Z M5.1,68 C5.1,78.1 5.1,88.1 5.1,98 C15.2,98 25.1,98 35.1,98 C35.1,87.9 35.1,78 35.1,68 C25.1,68 15.2,68 5.1,68 Z" id="Shape" fill="#C1DDFE" fill-rule="nonzero"></path>
                <path d="M40.7,40 C27.3,40 14.1,40 0.7,40 C0.7,26.7 0.7,13.4 0.7,0 C14,0 27.3,0 40.7,0 C40.7,13.3 40.7,26.5 40.7,40 Z M35.7,35.1 C35.7,25 35.7,15.1 35.7,5.2 C25.6,5.2 15.7,5.2 5.7,5.2 C5.7,15.3 5.7,25.2 5.7,35.1 C15.8,35.1 25.7,35.1 35.7,35.1 Z" id="Shape" fill="#C1DDFE" fill-rule="nonzero"></path>
                <path d="M103.7,40 C90.3,40 77.1,40 63.7,40 C63.7,26.7 63.7,13.4 63.7,0 C77,0 90.3,0 103.7,0 C103.7,13.3 103.7,26.5 103.7,40 Z M98.7,35.1 C98.7,25 98.7,15.1 98.7,5.2 C88.6,5.2 78.7,5.2 68.7,5.2 C68.7,15.3 68.7,25.2 68.7,35.1 C78.8,35.1 88.7,35.1 98.7,35.1 Z" id="Shape" fill="#C1DDFE" fill-rule="nonzero"></path>
                <path d="M64.5,45.3 C64.5,47.8 64.5,60.1 64.5,62.8 C62.2,62.8 59.8,62.8 57.3,62.8 C57.3,66.3 57.3,69.5 57.3,73 C59.7,73 62.1,73 64.6,73 C64.6,75.5 64.6,77.8 64.6,80.3 C62.2,80.3 59.8,80.3 57.3,80.3 C57.3,85.5 57.3,90.4 57.3,95.7 C59.7,95.6 62.1,95.5 64.6,95.3 L64.5,95.3 C64.5,97.8 64.5,100.4 64.5,103.1 C59.7,103.1 54.7,103.1 49.7,103.1 C49.7,89.7 49.7,76.5 49.7,63 C52.1,63 54.4,63 57.1,63 C57.1,60.3 57.1,48.1 57.1,45.4 C59.7,45.4 62.1,45.4 64.5,45.3 Z" id="Shape" fill="#C1DDFE" fill-rule="nonzero"></path>
                <path d="M25.5,47.8 C17,47.8 8.8,47.8 0.4,47.8 C0.4,50.3 0.4,52.7 0.4,55.2 C8.8,55.2 17.1,55.2 25.5,55.2 C25.5,52.8 25.5,50.4 25.5,47.8 Z" id="Shape" fill="#C1DDFE" fill-rule="nonzero"></path>
                <path d="M48.5,2.4 C51.1,2.4 53.5,2.4 55.9,2.4 C55.9,7.4 55.9,12.3 55.9,17.3 C53.4,17.3 51,17.3 48.5,17.3 C48.5,12.4 48.5,7.4 48.5,2.4 Z" id="Shape" fill="#C1DDFE" fill-rule="nonzero"></path>
                <path d="M48.5,29.9 C48.5,27.5 48.5,25.1 48.5,22.6 C51,22.6 53.3,22.6 55.9,22.6 C55.9,25 55.9,27.3 55.9,29.9 C53.5,29.9 51.1,29.9 48.5,29.9 Z" id="Shape" fill="#C1DDFE" fill-rule="nonzero"></path>
                <path d="M56,35.3 C56,37.8 56,40.1 56,42.5 C53.5,42.5 51.1,42.5 48.5,42.5 C48.5,40.2 48.5,37.8 48.5,35.3 C51,35.3 53.4,35.3 56,35.3 Z" id="Shape" fill="#C1DDFE" fill-rule="nonzero"></path>
                <path d="M83.2,87.9 C80.6,87.9 78.2,87.9 75.5,87.9 C75.5,85.5 75.5,83.2 75.5,80.7 C77.9,80.7 80.7,80.7 83.2,80.7 C83.4,83.1 83.1,85.5 83.2,87.9 C83.2,87.9 83.2,87.9 83.2,87.9 Z" id="Shape" fill="#C1DDFE" fill-rule="nonzero"></path>
                <path d="M33.2,47.8 C33.2,50.3 33.2,52.7 33.2,55.1 C35.7,55.1 38,55.1 40.5,55.1 C40.5,52.7 40.5,50.3 40.5,47.8 C38.1,47.8 35.8,47.8 33.2,47.8 Z" id="Shape" fill="#C1DDFE" fill-rule="nonzero"></path>
                <path d="M65.2,95.4 C65.2,93.1 65.2,90.7 65.2,88.2 C67.8,88.2 70.2,88.2 72.8,88.2 C72.8,90.6 72.8,93 72.8,95.4 C70.2,95.4 67.7,95.4 65.2,95.4 C65.1,95.4 65.2,95.4 65.2,95.4 Z" id="Shape" fill="#C1DDFE" fill-rule="nonzero"></path>
                <path d="M76.3,12.5 C81.3,12.5 86.2,12.5 91.2,12.5 C91.2,17.5 91.2,22.5 91.2,27.6 C86.3,27.6 81.4,27.6 76.3,27.6 C76.3,22.7 76.3,17.7 76.3,12.5 Z" id="Shape" fill="#C1DDFE" fill-rule="nonzero"></path>
                <path d="M27.5,75.5 C27.5,80.6 27.5,85.5 27.5,90.6 C22.5,90.6 17.6,90.6 12.6,90.6 C12.6,85.6 12.6,80.6 12.6,75.5 C17.6,75.5 22.4,75.5 27.5,75.5 Z" id="Shape" fill="#C1DDFE" fill-rule="nonzero"></path>
                <path d="M13.3,12.5 C18.3,12.5 23.2,12.5 28.2,12.5 C28.2,17.6 28.2,22.6 28.2,27.6 C23.3,27.6 18.4,27.6 13.3,27.6 C13.3,22.7 13.3,17.7 13.3,12.5 Z" id="Shape" fill="#C1DDFE" fill-rule="nonzero"></path>
                <polygon id="Shape" fill="#C1DDFE" fill-rule="nonzero" points="86.8 51 86.8 67.4 79.4 67.4 79.4 58.4 70.3 58.4 70.3 51 79.4 51 79.4 51"></polygon>
                <path d="M103.6,103.3 C95.5,103.3 83.7,103.3 75.5,103.3 C75.5,100.8 75.5,98.3 75.5,95.6 C77.9,95.6 80.8,95.6 83.2,95.6 C83.4,92.8 83,90.4 83.2,87.9 C85.5,87.9 87.9,87.9 90.5,87.9 C90.5,90.6 90.5,93 90.5,95.4 C92.2,95.4 93.8,95.4 95.5,95.4 C95.5,90.4 95.5,85.6 95.5,80.6 C97.1,80.6 102.2,80.6 103.6,80.6 C103.6,88.2 103.6,95.8 103.6,103.3 Z" id="Shape" class="stroke-primary" stroke-width="3.2" stroke-linecap="round" stroke-linejoin="round"></path>
                <path d="M103.6,57.9 C102.2,57.9 97.2,57.9 95.7,57.9 C95.7,55.4 95.7,53 95.7,50.5 C97.1,50.5 102.2,50.5 103.6,50.5 C103.6,52.9 103.6,55.4 103.6,57.9 Z" id="Shape" class="stroke-primary" stroke-width="3.2" stroke-linecap="round" stroke-linejoin="round"></path>
                <path d="M103.6,75.4 C102.2,75.4 97.1,75.4 95.6,75.4 C95.6,72.8 95.6,70.5 95.6,68 C97.1,68 102.2,68 103.6,68 C103.6,70.4 103.6,72.9 103.6,75.4 Z" id="Shape" class="stroke-primary" stroke-width="3.2" stroke-linecap="round" stroke-linejoin="round"></path>
                <path d="M0.6,103 C0.6,89.6 0.6,76.3 0.6,62.9 C14,62.9 27.3,62.9 40.7,62.9 C40.7,76.2 40.7,89.5 40.7,103 C27.4,103 14.1,103 0.6,103 Z M5.7,68 C5.7,78.1 5.7,88.1 5.7,98 C15.8,98 25.7,98 35.7,98 C35.7,87.9 35.7,78 35.7,68 C25.7,68 15.8,68 5.7,68 Z" id="Shape" class="stroke-primary" stroke-width="3.2" stroke-linecap="round" stroke-linejoin="round"></path>
                <path d="M40.7,40 C27.3,40 14.1,40 0.7,40 C0.7,26.7 0.7,13.4 0.7,0 C14,0 27.3,0 40.7,0 C40.7,13.3 40.7,26.5 40.7,40 Z M35.7,35.1 C35.7,25 35.7,15.1 35.7,5.2 C25.6,5.2 15.7,5.2 5.7,5.2 C5.7,15.3 5.7,25.2 5.7,35.1 C15.8,35.1 25.7,35.1 35.7,35.1 Z" id="Shape" class="stroke-primary" stroke-width="3.2" stroke-linecap="round" stroke-linejoin="round"></path>
                <path d="M103.7,40 C90.3,40 77.1,40 63.7,40 C63.7,26.7 63.7,13.4 63.7,0 C77,0 90.3,0 103.7,0 C103.7,13.3 103.7,26.5 103.7,40 Z M98.7,35.1 C98.7,25 98.7,15.1 98.7,5.2 C88.6,5.2 78.7,5.2 68.7,5.2 C68.7,15.3 68.7,25.2 68.7,35.1 C78.8,35.1 88.7,35.1 98.7,35.1 Z" id="Shape" class="stroke-primary" stroke-width="3.2" stroke-linecap="round" stroke-linejoin="round"></path>
                <path d="M65.1,45.3 C65.1,47.8 65.1,60.1 65.1,62.8 C62.8,62.8 60.4,62.8 57.9,62.8 C57.9,66.3 57.9,69.5 57.9,73 C60.3,73 62.7,73 65.2,73 C65.2,75.5 65.2,77.8 65.2,80.3 C62.8,80.3 60.4,80.3 57.9,80.3 C57.9,85.5 57.9,90.4 57.9,95.7 C60.3,95.6 62.7,95.5 65.2,95.3 L65.1,95.3 C65.1,97.8 65.1,100.4 65.1,103.1 C60.3,103.1 55.3,103.1 50.3,103.1 C50.3,89.7 50.3,76.5 50.3,63 C52.7,63 55,63 57.7,63 C57.7,60.3 57.7,48.1 57.7,45.4 C60.3,45.4 62.7,45.4 65.1,45.3 Z" id="Shape" class="stroke-primary" stroke-width="3.2" stroke-linecap="round" stroke-linejoin="round"></path>
                <path d="M26.2,47.8 C17.7,47.8 9.5,47.8 1.1,47.8 C1.1,50.3 1.1,52.7 1.1,55.2 C9.5,55.2 17.8,55.2 26.2,55.2 C26.2,52.8 26.2,50.4 26.2,47.8 Z" id="Shape" class="stroke-primary" stroke-width="3.2" stroke-linecap="round" stroke-linejoin="round"></path>
                <path d="M48.5,2.4 C51.1,2.4 53.5,2.4 55.9,2.4 C55.9,7.4 55.9,12.3 55.9,17.3 C53.4,17.3 51,17.3 48.5,17.3 C48.5,12.4 48.5,7.4 48.5,2.4 Z" id="Shape" class="stroke-primary" stroke-width="3.2" stroke-linecap="round" stroke-linejoin="round"></path>
                <path d="M48.5,29.9 C48.5,27.5 48.5,25.1 48.5,22.6 C51,22.6 53.3,22.6 55.9,22.6 C55.9,25 55.9,27.3 55.9,29.9 C53.5,29.9 51.1,29.9 48.5,29.9 Z" id="Shape" class="stroke-primary" stroke-width="3.2" stroke-linecap="round" stroke-linejoin="round"></path>
                <path d="M56,35.3 C56,37.8 56,40.1 56,42.5 C53.5,42.5 51.1,42.5 48.5,42.5 C48.5,40.2 48.5,37.8 48.5,35.3 C51,35.3 53.4,35.3 56,35.3 Z" id="Shape" class="stroke-primary" stroke-width="3.2" stroke-linecap="round" stroke-linejoin="round"></path>
                <path d="M83.2,87.9 C80.6,87.9 78.2,87.9 75.5,87.9 C75.5,85.5 75.5,83.2 75.5,80.7 C77.9,80.7 80.7,80.7 83.2,80.7 C83.4,83.1 83.1,85.5 83.2,87.9 C83.2,87.9 83.2,87.9 83.2,87.9 Z" id="Shape" class="stroke-primary" stroke-width="3.2" stroke-linecap="round" stroke-linejoin="round"></path>
                <path d="M33.9,47.8 C33.9,50.3 33.9,52.7 33.9,55.1 C36.4,55.1 38.7,55.1 41.2,55.1 C41.2,52.7 41.2,50.3 41.2,47.8 C38.8,47.8 36.4,47.8 33.9,47.8 Z" id="Shape" class="stroke-primary" stroke-width="3.2" stroke-linecap="round" stroke-linejoin="round"></path>
                <path d="M65.2,95.4 C65.2,93.1 65.2,90.7 65.2,88.2 C67.8,88.2 70.2,88.2 72.8,88.2 C72.8,90.6 72.8,93 72.8,95.4 C70.2,95.4 67.7,95.4 65.2,95.4 C65.1,95.4 65.2,95.4 65.2,95.4 Z" id="Shape" class="stroke-primary" stroke-width="3.2" stroke-linecap="round" stroke-linejoin="round"></path>
                <path d="M76.3,12.5 C81.3,12.5 86.2,12.5 91.2,12.5 C91.2,17.5 91.2,22.5 91.2,27.6 C86.3,27.6 81.4,27.6 76.3,27.6 C76.3,22.7 76.3,17.7 76.3,12.5 Z" id="Shape" class="stroke-primary" stroke-width="3.2" stroke-linecap="round" stroke-linejoin="round"></path>
                <path d="M28.2,75.5 C28.2,80.6 28.2,85.5 28.2,90.6 C23.2,90.6 18.3,90.6 13.3,90.6 C13.3,85.6 13.3,80.6 13.3,75.5 C18.2,75.5 23.1,75.5 28.2,75.5 Z" id="Shape" class="stroke-primary" stroke-width="3.2" stroke-linecap="round" stroke-linejoin="round"></path>
                <path d="M13.3,12.5 C18.3,12.5 23.2,12.5 28.2,12.5 C28.2,17.6 28.2,22.6 28.2,27.6 C23.3,27.6 18.4,27.6 13.3,27.6 C13.3,22.7 13.3,17.7 13.3,12.5 Z" id="Shape" class="stroke-primary" stroke-width="3.2" stroke-linecap="round" stroke-linejoin="round"></path>
                <polygon id="Shape" class="stroke-primary" stroke-width="3.2" stroke-linecap="round" stroke-linejoin="round" points="87.4 51 87.4 67.4 80.1 67.4 80.1 58.4 71 58.4 71 51 80.1 51 80.1 51"></polygon>
            </g>
            <g id="Group" class="stroke-primary" stroke-linecap="round" stroke-linejoin="round" stroke-width="3.2">
                <polyline id="Shape" points="0.2 30.8 0.2 0.7 30.3 0.7"></polyline>
                <polyline id="Shape" points="30.3 146.6 0.2 146.6 0.2 116.5"></polyline>
                <polyline id="Shape" points="116 0.7 146.1 0.7 146.1 30.8"></polyline>
                <polyline id="Shape" points="146.1 116.5 146.1 146.6 116 146.6"></polyline>
            </g>
        </g>
    </g>
</svg>