<?xml version="1.0" encoding="UTF-8"?>
<svg width="149px" height="143px" viewBox="0 0 149 143" version="1.1" xmlns="http://www.w3.org/2000/svg" xmlns:xlink="http://www.w3.org/1999/xlink">
    <!-- Generator: Sketch 51.2 (57519) - http://www.bohemiancoding.com/sketch -->
    <title>Recipt</title>
    <desc>Created with Sketch.</desc>
    <defs></defs>
    <g id="Page-1" stroke="none" stroke-width="1" fill="none" fill-rule="evenodd">
        <g id="Recipt" transform="translate(2.000000, 2.000000)">
            <g id="Group" transform="translate(0.000000, 139.000000)" class="stroke-primary-300" stroke-linecap="round" stroke-linejoin="round" stroke-width="3">
                <path d="M1.1,0 L0,0" id="Shape"></path>
                <path d="M18.7,0 L5.4,0" id="Shape"></path>
                <path d="M24.4,0 L23.4,0" id="Shape"></path>
                <path d="M111.6,0 L30.2,0" id="Shape"></path>
                <path d="M139.6,0 L116.2,0" id="Shape"></path>
                <path d="M145.5,0 L143.8,0" id="Shape"></path>
            </g>
            <polygon id="Shape" class="fill-neutral" fill-rule="nonzero" points="124.7 0 124.7 139.3 116.2 131.1 107.7 139.3 99.2 131.1 90.7 139.3 82.2 131.1 73.7 139.3 65.2 131.1 56.7 139.3 48.2 131.1 39.7 139.3 31.2 131.1 30.7 131.5 22.7 139.3 22.7 0 31.2 8.2 39.7 0 48.2 8.2 56.7 0 65.2 8.2 73.7 0 82.2 8.2 90.7 0 99.2 8.2 107.7 0 116.2 8.2"></polygon>
            <polygon id="Shape" class="fill-primary-100" fill-rule="nonzero" points="124.7 8.3 124.7 139.3 116.2 131.1 107.7 139.3 99.2 131.1 90.7 139.3 82.2 131.1 73.7 139.3 65.2 131.1 56.7 139.3 48.2 131.1 39.7 139.3 31.2 131.1 30.7 131.5 30.7 16.2 31.2 16.6 39.7 8.3 48.2 16.6 56.7 8.3 65.2 16.6 73.7 8.3 82.2 16.6 90.7 8.3 99.2 16.6 107.7 8.3 116.2 16.6"></polygon>
            <polygon id="Shape" class="stroke-primary" stroke-width="3" stroke-linecap="round" stroke-linejoin="round" points="124.7 0 124.7 139.3 116.2 131.1 107.7 139.3 99.2 131.1 90.7 139.3 82.2 131.1 73.7 139.3 65.2 131.1 56.7 139.3 48.2 131.1 39.7 139.3 31.2 131.1 30.7 131.5 22.7 139.3 22.7 0 31.2 8.2 39.7 0 48.2 8.2 56.7 0 65.2 8.2 73.7 0 82.2 8.2 90.7 0 99.2 8.2 107.7 0 116.2 8.2"></polygon>
            <path d="M94.5,32.5 L105.5,32.5" id="Shape" class="stroke-primary" stroke-width="3" stroke-linecap="round" stroke-linejoin="round"></path>
            <path d="M40.8,32.5 L89.1,32.5" id="Shape" class="stroke-primary" stroke-width="3" stroke-linecap="round" stroke-linejoin="round"></path>
            <path d="M86.6,52.1 L105.5,52.1" id="Shape" class="stroke-primary" stroke-width="3" stroke-linecap="round" stroke-linejoin="round"></path>
            <path d="M57,52.1 L79.7,52.1" id="Shape" class="stroke-primary" stroke-width="3" stroke-linecap="round" stroke-linejoin="round"></path>
            <path d="M40.8,52.1 L49.4,52.1" id="Shape" class="stroke-primary" stroke-width="3" stroke-linecap="round" stroke-linejoin="round"></path>
            <path d="M55.1,71.8 L73.2,71.8" id="Shape" class="stroke-primary" stroke-width="3" stroke-linecap="round" stroke-linejoin="round"></path>
            <path d="M40.8,71.8 L50.1,71.8" id="Shape" class="stroke-primary" stroke-width="3" stroke-linecap="round" stroke-linejoin="round"></path>
            <path d="M40.8,91.4 L73.2,91.4" id="Shape" class="stroke-primary" stroke-width="3" stroke-linecap="round" stroke-linejoin="round"></path>
            <path d="M51.6,111.1 L73.2,111.1" id="Shape" class="stroke-primary" stroke-width="3" stroke-linecap="round" stroke-linejoin="round"></path>
            <path d="M40.8,111.1 L45.6,111.1" id="Shape" class="stroke-primary" stroke-width="3" stroke-linecap="round" stroke-linejoin="round"></path>
            <path d="M97.7,112.4 L97.7,108.4 C95.2,108.4 92.6,107.7 90.6,106.8 C89.7,106.4 89.2,105.3 89.6,104.3 C90,103.2 91.2,102.7 92.3,103.2 C94.1,104 96.3,104.6 98.6,104.6 C102.6,104.6 105.4,102.3 105.4,99 C105.4,95.9 103.2,93.9 99,92.2 C93.2,89.9 89.6,87.3 89.6,82.4 C89.6,77.7 93,74.1 98.2,73.2 L98.2,69.2 C98.2,68.2 99,67.4 100,67.4 C101,67.4 101.8,68.2 101.8,69.2 L101.8,73 C104.2,73.1 106,73.5 107.5,74.1 C108.5,74.5 109,75.6 108.6,76.6 C108.2,77.7 107,78.2 106,77.7 C104.7,77.2 103,76.7 100.7,76.7 C96.3,76.7 94.7,79.3 94.7,81.6 C94.7,84.6 96.8,86 101.8,88.1 C107.7,90.5 110.6,93.4 110.6,98.5 C110.6,103 107.5,107.2 101.6,108.2 L101.6,112.4 C101.6,113.4 100.8,114.2 99.8,114.2 L99.7,114.2 C98.5,114.2 97.7,113.4 97.7,112.4 Z" id="Shape" class="fill-primary" fill-rule="nonzero"></path>
        </g>
    </g>
</svg>