<?xml version="1.0" encoding="UTF-8"?>
<svg width="149px" height="137px" viewBox="0 0 149 137" version="1.1" xmlns="http://www.w3.org/2000/svg" xmlns:xlink="http://www.w3.org/1999/xlink">
    <!-- Generator: Sketch 51.2 (57519) - http://www.bohemiancoding.com/sketch -->
    <title>Recipt_2</title>
    <desc>Created with Sketch.</desc>
    <defs></defs>
    <g id="Page-1" stroke="none" stroke-width="1" fill="none" fill-rule="evenodd">
        <g id="Recipt_2" transform="translate(2.000000, 1.000000)">
            <path d="M139.1,31.6 L5.6,31.6 C2.5,31.6 0.1,29.1 0.1,26.1 L0.1,6.1 C0.1,3 2.6,0.6 5.6,0.6 L139.1,0.6 C142.2,0.6 144.6,3.1 144.6,6.1 L144.6,26.1 C144.7,29.1 142.2,31.6 139.1,31.6 Z" id="Shape" class="fill-neutral" fill-rule="nonzero"></path>
            <path d="M139.1,31.6 L12.4,31.6 C9.3,31.6 6.9,29.1 6.9,26.1 L6.9,10.8 C6.9,7.7 9.4,5.3 12.4,5.3 L139.1,5.3 C142.2,5.3 144.6,7.8 144.6,10.8 L144.6,26.1 C144.7,29.1 142.2,31.6 139.1,31.6 Z" id="Shape" fill="#87BDFF" fill-rule="nonzero"></path>
            <path d="M38.9,0.5 L139.4,0.5 C142.3,0.5 144.7,2.9 144.7,5.8 L144.7,26.3 C144.7,29.2 142.3,31.6 139.4,31.6 L117.4,31.6" id="Shape" class="stroke-primary" stroke-width="3" stroke-linecap="round" stroke-linejoin="round"></path>
            <path d="M24.2,0.5 L24.4,0.5" id="Shape" class="stroke-primary" stroke-width="3" stroke-linecap="round" stroke-linejoin="round"></path>
            <path d="M12.6,31.6 L5.4,31.6 C2.5,31.6 0.1,29.2 0.1,26.3 L0.1,5.8 C0.1,2.9 2.5,0.5 5.4,0.5 L14,0.5" id="Shape" class="stroke-primary" stroke-width="3" stroke-linecap="round" stroke-linejoin="round"></path>
            <g id="Group" transform="translate(22.000000, 16.000000)">
                <polygon id="Shape" class="fill-neutral" fill-rule="nonzero" points="102 0.3 102 118.4 93.5 110.2 85.1 118.4 76.6 110.2 68.1 118.4 59.6 110.2 51.2 118.4 42.7 110.2 34.2 118.4 25.7 110.2 17.2 118.4 8.8 110.2 8.3 110.6 0.3 118.4 0.3 0.3"></polygon>
                <polygon id="Shape" class="fill-primary-100" fill-rule="nonzero" points="102 0.3 102 118.4 93.5 110.2 85.1 118.4 76.6 110.2 68.1 118.4 59.6 110.2 51.2 118.4 42.7 110.2 34.2 118.4 25.7 110.2 17.2 118.4 8.8 110.2 8.3 110.6 8.3 0.3"></polygon>
                <polygon id="Shape" class="stroke-primary" stroke-width="3" stroke-linecap="round" stroke-linejoin="round" points="102 0.6 102 118.4 93.5 110.2 85.1 118.4 76.6 110.2 68.1 118.4 59.6 110.2 51.2 118.4 42.7 110.2 34.2 118.4 25.7 110.2 17.2 118.4 8.8 110.2 8.3 110.6 0.3 118.4 0.3 0.6"></polygon>
                <path d="M72,11.8 L82.9,11.8" id="Shape" class="stroke-primary" stroke-width="3" stroke-linecap="round" stroke-linejoin="round"></path>
                <path d="M18.3,11.8 L66.5,11.8" id="Shape" class="stroke-primary" stroke-width="3" stroke-linecap="round" stroke-linejoin="round"></path>
                <path d="M64,31.4 L82.9,31.4" id="Shape" class="stroke-primary" stroke-width="3" stroke-linecap="round" stroke-linejoin="round"></path>
                <path d="M34.5,31.4 L57.2,31.4" id="Shape" class="stroke-primary" stroke-width="3" stroke-linecap="round" stroke-linejoin="round"></path>
                <path d="M18.3,31.4 L27,31.4" id="Shape" class="stroke-primary" stroke-width="3" stroke-linecap="round" stroke-linejoin="round"></path>
                <path d="M32.6,51 L50.6,51" id="Shape" class="stroke-primary" stroke-width="3" stroke-linecap="round" stroke-linejoin="round"></path>
                <path d="M18.3,51 L27.6,51" id="Shape" class="stroke-primary" stroke-width="3" stroke-linecap="round" stroke-linejoin="round"></path>
                <path d="M18.3,70.6 L50.6,70.6" id="Shape" class="stroke-primary" stroke-width="3" stroke-linecap="round" stroke-linejoin="round"></path>
                <path d="M29.1,90.2 L50.6,90.2" id="Shape" class="stroke-primary" stroke-width="3" stroke-linecap="round" stroke-linejoin="round"></path>
                <path d="M18.3,90.2 L23.2,90.2" id="Shape" class="stroke-primary" stroke-width="3" stroke-linecap="round" stroke-linejoin="round"></path>
                <path d="M75.1,91.5 L75.1,87.5 C72.6,87.5 70,86.8 68,85.9 C67.1,85.5 66.6,84.4 67,83.4 C67.4,82.3 68.6,81.8 69.7,82.3 C71.5,83.1 73.7,83.7 76,83.7 C80,83.7 82.8,81.4 82.8,78.1 C82.8,75 80.6,73 76.4,71.3 C70.6,69 67,66.4 67,61.5 C67,56.8 70.3,53.2 75.6,52.4 L75.6,48.4 C75.6,47.4 76.4,46.6 77.4,46.6 C78.4,46.6 79.2,47.4 79.2,48.4 L79.2,52.1 C81.6,52.2 83.4,52.6 84.9,53.2 C85.9,53.6 86.4,54.7 86,55.7 C85.6,56.8 84.4,57.3 83.4,56.8 C82.1,56.3 80.4,55.8 78.1,55.8 C73.7,55.8 72.1,58.4 72.1,60.7 C72.1,63.7 74.2,65.1 79.1,67.2 C84.9,69.6 87.9,72.5 87.9,77.6 C87.9,82.1 84.8,86.3 78.9,87.2 L78.9,91.3 C78.9,92.3 78.1,93.1 77.1,93.1 L77,93.1 C75.9,93.3 75.1,92.5 75.1,91.5 Z" id="Shape" class="fill-primary" fill-rule="nonzero"></path>
            </g>
            <path d="M13.5,16.6 L131.9,16.6" id="Shape" class="stroke-primary" stroke-width="3" stroke-linecap="round" stroke-linejoin="round"></path>
        </g>
    </g>
</svg>