<?xml version="1.0" encoding="UTF-8"?>
<svg width="149px" height="123px" viewBox="0 0 149 123" version="1.1" xmlns="http://www.w3.org/2000/svg" xmlns:xlink="http://www.w3.org/1999/xlink">
    <!-- Generator: Sketch 51.2 (57519) - http://www.bohemiancoding.com/sketch -->
    <title>Scale_1_</title>
    <desc>Created with Sketch.</desc>
    <defs></defs>
    <g id="Page-1" stroke="none" stroke-width="1" fill="none" fill-rule="evenodd">
        <g id="Scale_1_" transform="translate(2.000000, 1.000000)">
            <g id="Group" transform="translate(0.000000, 120.000000)" class="stroke-primary-300" stroke-linecap="round" stroke-linejoin="round" stroke-width="3">
                <path d="M1.4,0.5 L0.2,0.5" id="Shape"></path>
                <path d="M36.1,0.5 L6.3,0.5" id="Shape"></path>
                <path d="M42.5,0.5 L41.4,0.5" id="Shape"></path>
                <path d="M139.3,0.5 L49.1,0.5" id="Shape"></path>
                <path d="M145,0.5 L143.1,0.5" id="Shape"></path>
            </g>
            <g id="Group" transform="translate(14.000000, 0.000000)">
                <path d="M105.4,120 L15,120 C7,120 0.5,113.5 0.5,105.5 L0.5,15.1 C0.5,7.1 7,0.6 15,0.6 L105.4,0.6 C113.4,0.6 119.9,7.1 119.9,15.1 L119.9,105.5 C119.8,113.5 113.4,120 105.4,120 Z" id="Shape" class="fill-neutral" fill-rule="nonzero"></path>
                <path d="M105.4,119.6 L15,119.6 C7,119.6 0.5,113.1 0.5,105.1 L0.5,14.7 C0.5,6.7 7,0.2 15,0.2 L105.4,0.2 C113.4,0.2 119.9,6.7 119.9,14.7 L119.9,105.1 C119.8,113.1 113.4,119.6 105.4,119.6 Z" id="Shape" class="fill-neutral" fill-rule="nonzero"></path>
                <path d="M118.5,21.5 L118.5,107.3 C118.5,114.8 112.2,120.8 104.5,120.8 L18.7,120.8 C11,120.8 4.7,114.7 4.7,107.3 L4.7,21.5 C4.7,14 11,8 18.7,8 L104.5,8 C112.3,7.9 118.5,14 118.5,21.5 Z" id="Shape" fill="#BAD8FF" fill-rule="nonzero"></path>
                <path d="M118.5,20.3 L118.5,95.6 C118.5,103.1 112.2,109.2 104.5,109.2 L18.7,109.2 C11,109.2 4.7,103.1 4.7,95.6 L4.7,20.3 C4.7,12.8 11,6.7 18.7,6.7 L104.5,6.7 C112.3,6.6 118.5,12.7 118.5,20.3 Z" id="Shape" class="fill-primary-100" fill-rule="nonzero"></path>
                <path d="M119.8,99.5 L119.8,105.5 C119.8,113.5 113.3,120 105.3,120 L15,120 C7,120 0.5,113.5 0.5,105.5 L0.5,15.1 C0.5,7.1 7,0.6 15,0.6 L19.2,0.6" id="Shape" class="stroke-primary" stroke-width="3" stroke-linecap="round" stroke-linejoin="round"></path>
                <path d="M50.1,0.6 L105.3,0.6 C113.3,0.6 119.8,7.1 119.8,15.1 L119.8,84" id="Shape" class="stroke-primary" stroke-width="3" stroke-linecap="round" stroke-linejoin="round"></path>
                <path d="M29.7,0.6 L31.4,0.6" id="Shape" class="stroke-primary" stroke-width="3" stroke-linecap="round" stroke-linejoin="round"></path>
                <path d="M98.2,28 C98,28.5 97.6,29 97.2,29.5 L86.5,40.2 C84.8,41.9 82,42.1 80,40.6 C74.6,36.4 67.9,34 60.6,34 C53.3,34 46.6,36.5 41.2,40.6 C40.5,41.2 39.6,41.5 38.7,41.6 C37.3,41.8 35.8,41.3 34.7,40.2 L24,29.5 C22,27.5 22.1,24.2 24.3,22.3 C34.1,14.1 46.7,9.1 60.5,9.1 C74.3,9.1 86.9,14 96.7,22.3 C98.5,23.7 99,26.1 98.2,28 Z" id="Shape" class="fill-neutral" fill-rule="nonzero"></path>
                <path d="M98.2,28 C98,28.5 97.6,29 97.2,29.5 L86.5,40.2 C84.8,41.9 82,42.1 80,40.6 C77.2,38.4 73.9,36.7 70.5,35.5 C68.4,34.8 66.3,34.4 64,34.1 C62.9,34 61.8,33.9 60.6,33.9 C53.3,33.9 46.6,36.4 41.2,40.5 C40.5,41.1 39.6,41.4 38.7,41.5 C38.5,41.4 38.3,41.2 38.1,41 L28,31.1 C26.1,29.2 26.2,26.2 28.3,24.5 C37.5,16.9 49.4,12.3 62.4,12.3 C75.4,12.3 87.2,16.9 96.5,24.5 C97.6,25.4 98.1,26.7 98.2,28 Z" id="Shape" fill="#BAD8FF" fill-rule="nonzero"></path>
                <path d="M76.2,21.6 L71.6,35.5 C69.1,34.7 66.5,34.1 63.9,33.8 L73.8,20.6 C73.8,20.5 73.9,20.5 73.9,20.4 C74.9,19.2 76.8,20.2 76.2,21.6 Z" id="Shape" class="fill-primary" fill-rule="nonzero"></path>
                <path d="M26.8,32.3 L24,29.5 C22,27.5 22.1,24.2 24.3,22.3 C34.1,14.1 46.7,9.1 60.5,9.1 C74.3,9.1 86.9,14 96.7,22.3 C98.9,24.1 99,27.5 97,29.5 L86.3,40.2 C84.6,41.9 81.8,42.1 79.8,40.6 C74.4,36.4 67.7,34 60.4,34 C53.1,34 46.4,36.5 41,40.6 C39,42.1 36.3,42 34.5,40.2 L33.1,38.8" id="Shape" class="stroke-primary" stroke-width="3" stroke-linecap="round" stroke-linejoin="round"></path>
                <g transform="translate(14.000000, 51.000000)" fill="#BAD8FF" fill-rule="nonzero" id="Shape">
                    <path d="M22.4,53.7 L7,53.7 C3.5,53.7 0.6,50.8 0.6,47.3 L0.6,6.9 C0.6,3.4 3.5,0.5 7,0.5 L22.5,0.5 C26,0.5 28.9,3.4 28.9,6.9 L28.9,47.3 C28.8,50.8 26,53.7 22.4,53.7 Z"></path>
                    <path d="M88.5,53.7 L73,53.7 C69.5,53.7 66.6,50.8 66.6,47.3 L66.6,6.9 C66.6,3.4 69.5,0.5 73,0.5 L88.5,0.5 C92,0.5 94.9,3.4 94.9,6.9 L94.9,47.3 C94.9,50.8 92,53.7 88.5,53.7 Z"></path>
                </g>
                <path d="M29.9,18.2 L32.9,21.6" id="Shape" class="stroke-primary" stroke-width="3" stroke-linecap="round" stroke-linejoin="round"></path>
                <path d="M48.8,10.4 L50.1,13.8" id="Shape" class="stroke-primary" stroke-width="3" stroke-linecap="round" stroke-linejoin="round"></path>
                <path d="M59.2,9.1 L59.5,16.1" id="Shape" class="stroke-primary" stroke-width="3" stroke-linecap="round" stroke-linejoin="round"></path>
                <path d="M39.7,13.4 L42.8,19.2" id="Shape" class="stroke-primary" stroke-width="3" stroke-linecap="round" stroke-linejoin="round"></path>
                <path d="M89.8,18.2 L86.8,21.6" id="Shape" class="stroke-primary" stroke-width="3" stroke-linecap="round" stroke-linejoin="round"></path>
                <path d="M70.9,10.4 L69.6,13.8" id="Shape" class="stroke-primary" stroke-width="3" stroke-linecap="round" stroke-linejoin="round"></path>
                <path d="M80,13.4 L76.9,19.2" id="Shape" class="stroke-primary" stroke-width="3" stroke-linecap="round" stroke-linejoin="round"></path>
            </g>
        </g>
    </g>
</svg>