<?xml version="1.0" encoding="UTF-8"?>
<svg width="142px" height="145px" viewBox="0 0 142 145" version="1.1" xmlns="http://www.w3.org/2000/svg" xmlns:xlink="http://www.w3.org/1999/xlink">
    <!-- Generator: Sketch 51.2 (57519) - http://www.bohemiancoding.com/sketch -->
    <title>Scales</title>
    <desc>Created with Sketch.</desc>
    <defs></defs>
    <g id="Page-1" stroke="none" stroke-width="1" fill="none" fill-rule="evenodd">
        <g id="Scales" transform="translate(1.000000, 2.000000)">
            <path d="M52.6,105.4 C49.4,116.8 39,125.1 26.6,125.1 C14.2,125.1 3.8,116.8 0.6,105.4 L52.6,105.4 Z" id="Shape" class="fill-neutral" fill-rule="nonzero"></path>
            <path d="M139,74.3 C135.8,85.7 125.4,94 113,94 C100.6,94 90.2,85.7 87,74.3 L139,74.3 Z" id="Shape" class="fill-neutral" fill-rule="nonzero"></path>
            <path d="M52.6,109.5 C49.7,118.5 40.4,125.1 29.3,125.1 C21.7,125.1 14.9,122 10.5,117.2 C7.8,114.3 9.9,109.5 13.9,109.5 L52.6,109.5 Z" id="Shape" class="fill-primary-300" fill-rule="nonzero"></path>
            <path d="M139,78.2 C136.3,87.3 127.2,94 116.5,94 C108.4,94 101.3,90.2 97.1,84.3 C95.3,81.7 97.2,78.1 100.3,78.1 L139,78.1 L139,78.2 Z" id="Shape" class="fill-primary-300" fill-rule="nonzero"></path>
            <path d="M77,18 L126.6,0.2" id="Shape" class="stroke-primary" stroke-width="3" stroke-linecap="round" stroke-linejoin="round"></path>
            <path d="M11.1,41.7 L60.4,24" id="Shape" class="stroke-primary" stroke-width="3" stroke-linecap="round" stroke-linejoin="round"></path>
            <path d="M68.9,30.1 L68.9,140.6" id="Shape" class="stroke-primary" stroke-width="3" stroke-linecap="round" stroke-linejoin="round"></path>
            <path d="M103.3,140.6 L104,140.6" id="Shape" class="stroke-primary" stroke-width="3" stroke-linecap="round" stroke-linejoin="round"></path>
            <path d="M33.7,140.6 L95.6,140.6" id="Shape" class="stroke-primary" stroke-width="3" stroke-linecap="round" stroke-linejoin="round"></path>
            <path d="M52.6,105.4 C49.4,116.8 39,125.1 26.6,125.1 C14.2,125.1 3.8,116.8 0.6,105.4 L52.6,105.4 Z" id="Shape" class="stroke-primary" stroke-width="3" stroke-linecap="round" stroke-linejoin="round"></path>
            <polyline id="Shape" class="stroke-primary" stroke-width="3" stroke-linecap="round" stroke-linejoin="round" points="9.4 85 26.2 46.4 52.6 105.4"></polyline>
            <path d="M5.7,93.7 L6.4,91.9" id="Shape" class="stroke-primary" stroke-width="3" stroke-linecap="round" stroke-linejoin="round"></path>
            <path d="M0.6,105.4 L2.3,101.3" id="Shape" class="stroke-primary" stroke-width="3" stroke-linecap="round" stroke-linejoin="round"></path>
            <path d="M139,74.3 C135.8,85.7 125.4,94 113,94 C100.6,94 90.2,85.7 87,74.3 L139,74.3 Z" id="Shape" class="stroke-primary" stroke-width="3" stroke-linecap="round" stroke-linejoin="round"></path>
            <polyline id="Shape" class="stroke-primary" stroke-width="3" stroke-linecap="round" stroke-linejoin="round" points="87 74.3 112.6 15.3 139 74.3"></polyline>
            <circle id="Oval" class="fill-neutral" fill-rule="nonzero" cx="68.9" cy="21.3" r="8.8"></circle>
            <circle id="Oval" class="fill-primary-300" fill-rule="nonzero" cx="70.6" cy="23.1" r="7"></circle>
            <circle id="Oval" class="stroke-primary" stroke-width="3" stroke-linecap="round" stroke-linejoin="round" cx="68.9" cy="21.3" r="8.8"></circle>
        </g>
    </g>
</svg>