<?xml version="1.0" encoding="UTF-8"?>
<svg width="148px" height="149px" viewBox="0 0 148 149" version="1.1" xmlns="http://www.w3.org/2000/svg" xmlns:xlink="http://www.w3.org/1999/xlink">
    <!-- Generator: Sketch 51.2 (57519) - http://www.bohemiancoding.com/sketch -->
    <title>Settings</title>
    <desc>Created with Sketch.</desc>
    <defs></defs>
    <g id="Page-1" stroke="none" stroke-width="1" fill="none" fill-rule="evenodd">
        <g id="Settings" transform="translate(2.000000, 2.000000)">
            <path d="M0.3,12.3 C4.1,8.5 7.7,4.7 11.5,0.9 C12,1.2 12.6,1.5 13.1,1.9 C20.2,6.9 27.2,12 34.3,17 C39.1,20.4 41,25.7 39.2,31.3 C38.8,32.6 39,33.4 40,34.4 C47,41.3 53.9,48.2 60.8,55.1 C61.4,55.7 62.1,56 62.8,56.5 C60.4,58.9 58.4,60.9 56.2,63 C55.7,62.5 55.1,62 54.5,61.4 C47.6,54.5 40.6,47.6 33.7,40.6 C32.8,39.7 32,39.4 30.7,39.8 C24.6,41.6 19.8,39.7 16.1,34.5 C10.8,27.1 5.5,19.6 0.3,12.3 Z" id="Shape" class="fill-neutral" fill-rule="nonzero"></path>
            <path d="M133.5,48.7 C125.5,55.2 116.5,56.7 106.8,52.7 C105.6,52.2 104.9,52.3 104,53.3 C90.4,66.9 38.5,119.9 17.4,140.9 C13.6,144.7 7.4,144.7 3.6,140.9 C-0.2,137.1 -0.2,130.9 3.6,127.1 C24.7,106 76.6,53.1 90.3,39.5 C91.5,38.3 91.2,37.4 90.8,36.2 C85.7,20.6 94.7,4.1 110.5,0.6 C114,-0.2 117.8,0.2 121.4,0.3 C122.1,0.3 123.2,0.9 123.4,1.5 C123.6,2.1 123.1,3.2 122.6,3.7 C118.9,7.5 115,11.2 111.3,15 C104.8,21.8 107.3,32.6 116.2,35.6 C121.1,37.3 125.5,36.1 129.2,32.5 C132.8,29 136.3,25.4 139.9,21.9 C140.6,21.3 141.8,20.4 142.4,20.7 C143.2,21.1 143.9,22.3 144,23.2 C145.2,33.6 141.6,42.2 133.5,48.7 Z" id="Shape" class="fill-neutral" fill-rule="nonzero"></path>
            <path d="M144.1,26.8 C144.3,35.6 140.6,43 133.5,48.7 C125.5,55.2 116.5,56.7 106.8,52.7 C105.6,52.2 104.9,52.3 104,53.3 C90.4,66.9 38.5,119.9 17.4,140.9 C15.2,143.1 12.3,144 9.5,143.7 C7.8,141.8 6.9,139.5 6.9,137.1 C6.9,134.6 7.8,132.1 9.8,130.2 C30.9,109.1 82.8,56.2 96.5,42.6 C97.7,41.4 97.4,40.5 97,39.3 C91.9,23.7 100.9,7.2 116.7,3.7 C118.7,3.3 120.9,3.2 123,3.3 C122.9,3.4 122.8,3.6 122.7,3.7 C119,7.5 115.1,11.2 111.4,15 C104.9,21.8 107.4,32.6 116.3,35.6 C116.9,35.8 117.4,35.9 117.9,36.1 C117.9,36.1 117.9,36.1 117.9,36.1 C119.1,37.2 118.6,36.1 120.4,36.7 C125.3,38.4 127.6,35.1 131.3,31.5 C133.6,29.2 139.9,22.1 143.2,21 C144.1,20.6 143.4,27.4 144.1,26.8 Z" id="Shape" class="fill-primary-100" fill-rule="nonzero"></path>
            <path d="M73.1,95.4 C80.4,88 87.5,80.9 95,73.3 C99.4,77.8 103.7,82.5 108.2,86.9 C117.7,96.4 127.3,105.9 136.8,115.4 C139.9,118.5 142.8,121.5 143.8,126 C145.2,132.6 142.3,139.2 136.4,142.7 C130.9,145.9 123.4,145.4 118.7,141 C112.4,135 106.3,128.8 100.2,122.6 C91.6,114 83.1,105.4 74.5,96.8 C73.9,96.4 73.5,95.8 73.1,95.4 Z" id="Shape" class="fill-neutral" fill-rule="nonzero"></path>
            <path d="M113.4,92.1 C121.2,99.9 129,107.7 136.8,115.4 C139.9,118.5 142.8,121.5 143.8,126 C145.2,132.6 142.3,139.2 136.4,142.7 C130.9,145.9 123.4,145.4 118.7,141 C112.4,135 106.3,128.8 100.2,122.6 C91.6,114 83.1,105.4 74.5,96.8 C74,96.3 73.6,95.8 73.2,95.4 C80.5,88 87.6,80.9 95.1,73.3 C99.5,77.8 103.8,82.5 108.3,86.9 C109.9,88.7 111.6,90.4 113.4,92.1" id="Shape" class="fill-primary-500" fill-rule="nonzero"></path>
            <path d="M23.6,134.7 C21.3,137 19.2,139.1 17.4,140.9 C13.6,144.7 7.4,144.7 3.6,140.9 C-0.2,137.1 -0.2,130.9 3.6,127.1 C24.7,106 76.6,53.1 90.3,39.5 C91.5,38.3 91.2,37.4 90.8,36.2 C87.8,27 89.7,17.5 94.9,10.6" id="Shape" class="stroke-primary" stroke-width="3" stroke-linecap="round" stroke-linejoin="round"></path>
            <path d="M114,0.2 C116.4,0.1 118.9,0.3 121.3,0.3 C122,0.3 123.1,0.9 123.3,1.5 C123.5,2.1 123,3.2 122.5,3.7 C118.8,7.5 114.9,11.2 111.2,15 C104.7,21.8 107.2,32.6 116.1,35.6 C121,37.3 125.4,36.1 129.1,32.5 C132.7,29 136.2,25.4 139.8,21.9 C140.5,21.3 141.7,20.4 142.3,20.7 C143.1,21.1 143.8,22.3 143.9,23.2 C145.3,33.6 141.6,42.2 133.6,48.7 C125.6,55.2 116.6,56.7 106.9,52.7 C105.7,52.2 105,52.3 104.1,53.3 C93.3,64.1 58.2,99.9 33.7,124.6" id="Shape" class="stroke-primary" stroke-width="3" stroke-linecap="round" stroke-linejoin="round"></path>
            <path d="M98.8,6.3 C99.9,5.4 101,4.5 102.3,3.8" id="Shape" class="stroke-primary" stroke-width="3" stroke-linecap="round" stroke-linejoin="round"></path>
            <path d="M109.5,88.3 C118.6,97.4 127.7,106.4 136.8,115.5 C139.9,118.6 142.8,121.6 143.8,126.1 C145.2,132.7 142.3,139.3 136.4,142.8 C130.9,146 123.4,145.5 118.7,141.1 C112.4,135.1 106.3,128.9 100.2,122.7 C91.6,114.1 83.1,105.5 74.5,96.9 C74,96.4 73.6,95.9 73.2,95.5 C80.5,88.1 87.6,81 95.1,73.4 C95.6,73.9 96.1,74.4 96.6,75" id="Shape" class="stroke-primary" stroke-width="3" stroke-linecap="round" stroke-linejoin="round"></path>
            <path d="M0.3,12.3 C4.1,8.5 7.7,4.7 11.5,0.9 C12,1.2 12.6,1.5 13.1,1.9 C20.2,6.9 27.2,12 34.3,17 C39.1,20.4 41,25.7 39.2,31.3 C38.8,32.6 39,33.4 40,34.4 C47,41.3 53.9,48.2 60.8,55.1 C61.4,55.7 62.1,56 62.8,56.5 C60.4,58.9 58.4,60.9 56.2,63 C55.7,62.5 55.1,62 54.5,61.4 C47.6,54.5 40.6,47.6 33.7,40.6 C32.8,39.7 32,39.4 30.7,39.8 C24.6,41.6 19.8,39.7 16.1,34.5 C10.8,27.1 5.5,19.6 0.3,12.3 Z" id="Shape" class="stroke-primary" stroke-width="3" stroke-linecap="round" stroke-linejoin="round"></path>
            <path d="M87,94.5 L127.7,135.2" id="Shape" class="stroke-primary" stroke-width="3" stroke-linecap="round" stroke-linejoin="round"></path>
            <path d="M94.2,87.3 L134.9,128" id="Shape" class="stroke-primary" stroke-width="3" stroke-linecap="round" stroke-linejoin="round"></path>
            <circle id="Oval" class="stroke-primary" stroke-width="3" stroke-linecap="round" stroke-linejoin="round" cx="11.3" cy="133.1" r="2.6"></circle>
            <path d="M22.1,122.3 L20.2,124.2" id="Shape" class="stroke-primary" stroke-width="3" stroke-linecap="round" stroke-linejoin="round"></path>
            <path d="M94.2,50.3 L25.6,118.8" id="Shape" class="stroke-primary" stroke-width="3" stroke-linecap="round" stroke-linejoin="round"></path>
        </g>
    </g>
</svg>