<?xml version="1.0" encoding="UTF-8"?>
<svg width="116px" height="147px" viewBox="0 0 116 147" version="1.1" xmlns="http://www.w3.org/2000/svg" xmlns:xlink="http://www.w3.org/1999/xlink">
    <!-- Generator: Sketch 51.2 (57519) - http://www.bohemiancoding.com/sketch -->
    <title>Settings_File</title>
    <desc>Created with Sketch.</desc>
    <defs></defs>
    <g id="Page-1" stroke="none" stroke-width="1" fill="none" fill-rule="evenodd">
        <g id="Settings_File" transform="translate(2.000000, 2.000000)">
            <path d="M110.4,35.4 L111.6,137.2 C111.6,140.6 108.8,143.4 105.4,143.4 L6.3,143.4 C2.9,143.4 0.1,140.6 0.1,137.2 L0.1,6.3 C0.1,2.9 2.9,0.1 6.3,0.1 L78.1,0.1 L110.4,35.4 Z" id="Shape" class="fill-neutral" fill-rule="nonzero"></path>
            <path d="M110.5,36.1 L111.6,137.6 C111.6,140.9 109,143.5 105.7,143.5 L11.7,143.5 C8.4,143.5 5.8,140.9 5.8,137.6 L5.8,11.3 C5.8,8 8.4,5.4 11.7,5.4 L83.3,5.4 L110.5,36.1 Z" id="Shape" class="fill-primary-100" fill-rule="nonzero"></path>
            <path d="M78.2,0.2 L78.2,28.3 C78.2,32.2 81.6,35.5 85.5,35.5 L110.5,35.5" id="Shape" class="fill-neutral" fill-rule="nonzero"></path>
            <path d="M81.7,3 L81.7,28.5 C81.7,32 84.8,35 88.3,35 L111,35" id="Shape" class="fill-primary-300" fill-rule="nonzero"></path>
            <path d="M81.7,8.2 L81.7,33.7 C81.7,37.2 84.8,40.2 88.3,40.2 L111,40.2 L111,35" id="Shape" class="fill-primary-300" fill-rule="nonzero"></path>
            <path d="M78.2,22.1 L78.2,28.2 C78.2,32.1 81.6,35.4 85.5,35.4 L110.5,35.4" id="Shape" class="stroke-primary" stroke-width="3" stroke-linecap="round" stroke-linejoin="round"></path>
            <path d="M78.2,0.2 L78.2,15.3" id="Shape" class="stroke-primary" stroke-width="3" stroke-linecap="round" stroke-linejoin="round"></path>
            <path d="M0.1,33.6 L0.1,32.2" id="Shape" class="stroke-primary" stroke-width="3" stroke-linecap="round" stroke-linejoin="round"></path>
            <path d="M0.1,25 L0.1,6.4 C0.1,3 2.9,0.2 6.3,0.2 L78.1,0.2 L110.4,35.5 L111.6,137.3 C111.6,140.7 108.8,143.5 105.4,143.5 L6.3,143.5 C2.9,143.5 0.1,140.7 0.1,137.3 L0.1,49.1" id="Shape" class="stroke-primary" stroke-width="3" stroke-linecap="round" stroke-linejoin="round"></path>
            <path d="M90.1,65.2 L90.1,61.7 C90.1,60.8 89.4,60 88.5,59.8 L87,59.6 C86.3,59.5 85.7,59 85.5,58.4 C85.3,57.9 85.1,57.4 84.9,57 C84.6,56.4 84.7,55.6 85.1,55.1 L86,53.9 C86.6,53.2 86.5,52.1 85.8,51.4 L83.3,48.9 C82.6,48.2 81.6,48.2 80.8,48.7 L79.6,49.6 C79,50 78.3,50.1 77.7,49.8 C77.2,49.6 76.8,49.4 76.3,49.2 C75.6,49 75.2,48.4 75.1,47.7 L74.9,46.2 C74.8,45.3 74,44.6 73,44.6 L69.5,44.6 C68.6,44.6 67.8,45.3 67.6,46.2 L67.4,47.7 C67.3,48.4 66.8,49 66.2,49.2 C65.7,49.4 65.2,49.6 64.8,49.8 C64.2,50.1 63.4,50 62.9,49.6 L61.7,48.7 C61,48.1 59.9,48.2 59.2,48.9 L56.7,51.4 C56,52.1 56,53.1 56.5,53.9 L57.4,55.1 C57.8,55.7 57.9,56.4 57.6,57 C57.4,57.5 57.2,57.9 57,58.4 C56.8,59.1 56.2,59.5 55.5,59.6 L54,59.8 C53.1,59.9 52.4,60.7 52.4,61.7 L52.4,65.2 C52.4,66.1 53.1,66.9 54,67.1 L55.5,67.3 C56.2,67.4 56.8,67.9 57,68.5 C57.2,69 57.4,69.5 57.6,69.9 C57.9,70.5 57.8,71.3 57.4,71.8 L56.5,73 C55.9,73.7 56,74.8 56.7,75.5 L59.2,78 C59.9,78.7 60.9,78.7 61.7,78.2 L62.9,77.3 C63.5,76.9 64.2,76.8 64.8,77.1 C65.3,77.3 65.7,77.5 66.2,77.7 C66.9,77.9 67.3,78.5 67.4,79.2 L67.6,80.7 C67.7,81.6 68.5,82.3 69.5,82.3 L73,82.3 C73.9,82.3 74.7,81.6 74.9,80.7 L75.1,79.2 C75.2,78.5 75.7,77.9 76.3,77.7 C76.8,77.5 77.3,77.3 77.7,77.1 C78.3,76.8 79.1,76.9 79.6,77.3 L80.8,78.2 C81.5,78.8 82.6,78.7 83.3,78 L85.8,75.5 C86.5,74.8 86.5,73.8 86,73 L85.1,71.8 C84.7,71.2 84.6,70.5 84.9,69.9 C85.1,69.4 85.3,69 85.5,68.5 C85.7,67.8 86.3,67.4 87,67.3 L88.5,67.1 C89.4,66.9 90.1,66.2 90.1,65.2 Z" id="Shape" class="fill-neutral" fill-rule="nonzero"></path>
            <path d="M75.2,89.1 L75.2,84.3 C75.2,83 74.3,81.9 73,81.7 L71,81.4 C70,81.3 69.3,80.6 68.9,79.7 C68.7,79 68.4,78.4 68.1,77.8 C67.7,76.9 67.8,75.9 68.4,75.1 L69.6,73.5 C70.4,72.5 70.3,71 69.4,70.1 L66,66.7 C65.1,65.8 63.7,65.7 62.6,66.5 L61,67.7 C60.2,68.3 59.2,68.4 58.3,68 C57.7,67.7 57,67.4 56.4,67.2 C55.5,66.9 54.8,66.1 54.7,65.1 L54.4,63.1 C54.2,61.8 53.1,60.9 51.8,60.9 L47,60.9 C45.7,60.9 44.6,61.8 44.4,63.1 L44.1,65.1 C44,66.1 43.3,66.8 42.4,67.2 C41.7,67.4 41.1,67.7 40.5,68 C39.6,68.4 38.6,68.3 37.8,67.7 L36.2,66.5 C35.2,65.7 33.7,65.8 32.8,66.7 L29.4,70.1 C28.5,71 28.4,72.4 29.2,73.5 L30.4,75.1 C31,75.9 31.1,76.9 30.7,77.8 C30.4,78.4 30.1,79.1 29.9,79.7 C29.6,80.6 28.8,81.3 27.8,81.4 L25.8,81.7 C24.5,81.9 23.6,83 23.6,84.3 L23.6,89.1 C23.6,90.4 24.5,91.5 25.8,91.7 L27.8,92 C28.8,92.1 29.5,92.8 29.9,93.7 C30.1,94.4 30.4,95 30.7,95.6 C31.1,96.5 31,97.5 30.4,98.3 L29.2,99.9 C28.4,100.9 28.5,102.4 29.4,103.3 L32.8,106.7 C33.7,107.6 35.1,107.7 36.2,106.9 L37.8,105.7 C38.6,105.1 39.6,105 40.5,105.4 C41.1,105.7 41.8,106 42.4,106.2 C43.3,106.5 44,107.3 44.1,108.3 L44.4,110.3 C44.6,111.6 45.7,112.5 47,112.5 L51.8,112.5 C53.1,112.5 54.2,111.6 54.4,110.3 L54.7,108.3 C54.8,107.3 55.5,106.6 56.4,106.2 C57.1,106 57.7,105.7 58.3,105.4 C59.2,105 60.2,105.1 61,105.7 L62.6,106.9 C63.6,107.7 65.1,107.6 66,106.7 L69.4,103.3 C70.3,102.4 70.4,101 69.6,99.9 L68.4,98.3 C67.8,97.5 67.7,96.5 68.1,95.6 C68.4,95 68.7,94.3 68.9,93.7 C69.2,92.8 70,92.1 71,92 L73,91.7 C74.3,91.5 75.2,90.4 75.2,89.1 Z" id="Shape" class="fill-neutral" fill-rule="nonzero"></path>
            <path d="M74.9,58 C76.7,59.2 77.9,61.2 77.9,63.5 C77.9,67.1 75,70.1 71.3,70.1 C67.6,70.1 64.7,67.2 64.7,63.5 C64.7,62.5 64.9,61.6 65.3,60.8" id="Shape" class="stroke-primary" stroke-width="3" stroke-linecap="round" stroke-linejoin="round"></path>
            <path d="M68.1,57.7 C68.2,57.7 68.2,57.6 68.3,57.6" id="Shape" class="stroke-primary" stroke-width="3" stroke-linecap="round" stroke-linejoin="round"></path>
            <path d="M76.4,49.2 C75.7,49 75.3,48.4 75.2,47.7 L75,46.2 C74.9,45.3 74.1,44.6 73.1,44.6 L69.6,44.6 C68.7,44.6 67.9,45.3 67.7,46.2 L67.5,47.7 C67.4,48.4 66.9,49 66.3,49.2 C65.8,49.4 65.3,49.6 64.9,49.8 C64.3,50.1 63.5,50 63,49.6 L61.8,48.7 C61.1,48.1 60,48.2 59.3,48.9 L56.8,51.4 C56.1,52.1 56.1,53.1 56.6,53.9 L57.5,55.1 C57.9,55.7 58,56.4 57.7,57 C57.5,57.5 57.3,57.9 57.1,58.4 C56.9,59.1 56.3,59.5 55.6,59.6 L54.1,59.8 C53.2,59.9 52.5,60.7 52.5,61.7 L52.5,65.2 C52.5,66.1 53.2,66.9 54.1,67.1 L55.6,67.3 C56.3,67.4 56.9,67.9 57.1,68.5 C57.3,69 57.5,69.5 57.7,69.9 C58,70.5 57.9,71.3 57.5,71.8 L56.6,73 C56,73.7 56.1,74.8 56.8,75.5 L59.3,78 C60,78.7 61,78.7 61.8,78.2 L63,77.3 C63.6,76.9 64.3,76.8 64.9,77.1 C65.4,77.3 65.8,77.5 66.3,77.7 C67,77.9 67.4,78.5 67.5,79.2 L67.7,80.7 C67.8,81.6 68.6,82.3 69.6,82.3 L73.1,82.3 C74,82.3 74.8,81.6 75,80.7 L75.2,79.2 C75.3,78.5 75.8,77.9 76.4,77.7 C76.9,77.5 77.4,77.3 77.8,77.1 C78.4,76.8 79.2,76.9 79.7,77.3 L80.9,78.2 C81.6,78.8 82.7,78.7 83.4,78 L85.9,75.5 C86.6,74.8 86.6,73.8 86.1,73 L85.2,71.8 C84.8,71.2 84.7,70.5 85,69.9 C85.2,69.4 85.4,69 85.6,68.5 C85.8,67.8 86.4,67.4 87.1,67.3 L88.6,67.1 C89.5,67 90.2,66.2 90.2,65.2 L90.2,61.7 C90.2,60.8 89.5,60 88.6,59.8 L87.1,59.6 C86.4,59.5 85.8,59 85.6,58.4 C85.4,57.9 85.2,57.4 85,57 C84.7,56.4 84.8,55.6 85.2,55.1 L86.1,53.9 C86.7,53.2 86.6,52.1 85.9,51.4 L83.4,48.9 C83,48.5 82.5,48.3 82,48.4" id="Shape" class="stroke-primary" stroke-width="3" stroke-linecap="round" stroke-linejoin="round"></path>
            <path d="M41.7,80.5 C43.4,78.9 45.6,77.9 48.2,77.9 C53.3,77.9 57.4,82 57.4,87.1 C57.4,92.2 53.3,96.3 48.2,96.3 C43.1,96.3 39,92.2 39,87.1 C38.9,84.5 40,82.2 41.7,80.5" id="Shape" class="fill-neutral" fill-rule="nonzero"></path>
            <path d="M43.4,79.2 C43.4,79.2 43.5,79.1 43.5,79.1" id="Shape" class="stroke-primary" stroke-width="3" stroke-linecap="round" stroke-linejoin="round"></path>
            <path d="M50.1,78 C54.3,78.9 57.5,82.6 57.5,87 C57.5,92.1 53.4,96.2 48.3,96.2 C43.2,96.2 39.1,92.1 39.1,87 C39.1,85.3 39.6,83.7 40.3,82.4" id="Shape" class="stroke-primary" stroke-width="3" stroke-linecap="round" stroke-linejoin="round"></path>
            <path d="M34.4,66.2 C34.5,66.2 34.6,66.3 34.6,66.3 L36.3,67.5 C37.1,68.1 38.1,68.2 39,67.8 C39.6,67.5 40.3,67.2 41,67 C41.9,66.7 42.6,65.9 42.7,64.9 L43,62.8 C43.2,61.5 44.3,60.5 45.6,60.5" id="Shape" class="stroke-primary" stroke-width="3" stroke-linecap="round" stroke-linejoin="round"></path>
            <path d="M29.4,68.4 L29.6,68.2" id="Shape" class="stroke-primary" stroke-width="3" stroke-linecap="round" stroke-linejoin="round"></path>
            <path d="M69.6,92.7 C69,93 68.4,93.5 68.2,94.2 C68,94.9 67.7,95.5 67.4,96.2 C67.2,96.7 67.1,97.2 67.2,97.7 C67.3,98.1 67.4,98.6 67.7,99 L68.9,100.7 C69.3,101.3 69.5,102 69.4,102.7 C69.3,103.2 69.1,103.7 68.7,104.1 L65.2,107.6 C64.8,108 64.3,108.2 63.8,108.3 C63.1,108.4 62.4,108.3 61.8,107.8 L60.1,106.6 C59.7,106.3 59.3,106.2 58.9,106.1 C58.4,106 57.8,106.1 57.4,106.3 C56.8,106.6 56.1,106.9 55.4,107.1 C54.5,107.4 53.8,108.2 53.7,109.2 L53.4,111.3 C53.2,112.6 52.1,113.6 50.8,113.6 L45.9,113.6 C45.1,113.6 44.4,113.3 43.9,112.7 C43.6,112.3 43.3,111.8 43.2,111.3 L42.9,109.2 C42.8,108.8 42.7,108.4 42.4,108.1 C42.1,107.7 41.6,107.3 41.1,107.1 C40.8,107 40.4,106.9 40.1,106.7 C39.8,106.6 39.4,106.4 39.1,106.3 C38.2,105.9 37.2,106 36.4,106.6 L34.7,107.8 C33.6,108.6 32.2,108.5 31.2,107.5 L27.7,104 C27.2,103.5 27,102.9 26.9,102.3 C26.9,101.7 27,101.1 27.4,100.6 L28.6,98.9 C29.2,98.1 29.3,97.1 28.9,96.2 C28.6,95.6 28.3,94.9 28.1,94.2 C27.8,93.3 27,92.6 26,92.5 L23.9,92.2 C22.6,92 21.6,90.9 21.6,89.6 L21.6,84.7 C21.6,83.4 22.6,82.3 23.9,82.1 L26,81.8 C27,81.7 27.8,81 28.1,80.1 C28.3,79.4 28.6,78.8 28.9,78.1 C29.3,77.2 29.2,76.2 28.6,75.4 L27.4,73.7 C27.2,73.4 27.1,73.2 27,72.9" id="Shape" class="stroke-primary" stroke-width="3" stroke-linecap="round" stroke-linejoin="round"></path>
            <path d="M74.6,87.9 L74.6,89.5" id="Shape" class="stroke-primary" stroke-width="3" stroke-linecap="round" stroke-linejoin="round"></path>
        </g>
    </g>
</svg>