<?xml version="1.0" encoding="UTF-8"?>
<svg width="148px" height="105px" viewBox="0 0 148 105" version="1.1" xmlns="http://www.w3.org/2000/svg" xmlns:xlink="http://www.w3.org/1999/xlink">
    <!-- Generator: Sketch 51.2 (57519) - http://www.bohemiancoding.com/sketch -->
    <title>Shoe</title>
    <desc>Created with Sketch.</desc>
    <defs></defs>
    <g id="Page-1" stroke="none" stroke-width="1" fill="none" fill-rule="evenodd">
        <g id="Shoe" transform="translate(1.000000, 1.000000)">
            <path d="M98.2,102.5 C86.7,102.5 75.2,102.5 63.7,102.5 C53.8,102.5 46.4,98.5 41.7,89.6 C30.4,68.3 24.3,56.8 20.6,57.7 C19.8,57.9 18.9,59.5 18.8,60.5 C15.8,89.7 20.3,95 15.7,94.9 C14,94.8 12.3,95 12,92.7 C11.9,91.8 12,90.8 12,89.9 C11.3,53.6 12.5,50.3 5.9,42.6 C-0.8,34.7 -0.2,25.8 4.7,17.4 C8,11.7 12.4,6.7 16.3,1.4 C17.3,0.1 18.3,0.3 19.2,1.3 C20.4,2.6 21.5,4.1 22.5,5.5 C32.6,19.8 58.3,56 71.8,67.4 C78.3,72.9 87.4,71.4 93,73.5 C141.2,92 140.8,92 144.1,94.2 C146.5,95.8 146.2,97.9 143.5,98.8 C140.9,99.6 138.2,100.2 135.5,100.3 C123.2,100.9 110.8,101.4 98.5,101.9 C98.2,102.2 98.2,102.3 98.2,102.5 Z" id="Shape" class="fill-neutral" fill-rule="nonzero"></path>
            <path d="M140.9,99.6 C136.9,100.6 137.5,100.4 98.2,102.1 C98.2,102.2 98.2,102.4 98.2,102.5 C86.7,102.5 75.2,102.5 63.7,102.5 C53.8,102.6 46.4,98.5 41.7,89.6 C41.7,89.6 41.7,89.6 41.7,89.6 C32.6,72.5 27.1,62.1 23.4,58.8 C22.4,57.9 21.5,57.5 20.7,57.7 C19.9,57.9 19,59.5 18.9,60.5 C17.2,77.2 18,92.3 17.9,92.7 C15.1,92 17.1,90.9 15.6,55.9 C15.5,54.3 15.3,52.7 14.8,51.2 C14,48.5 12.6,46 10.5,43.6 C-0.8,30.3 11,16.9 17.7,8.1 C18,8.2 18.5,8.5 18.9,9 C20,10.1 21.3,12 21.9,12.8 C25.5,17.8 31.1,25.8 37.5,34.4 C37.6,34.6 37.8,34.8 38,35 C48.5,49.1 60.7,64.7 68.4,71.2 C74.6,76.4 83.2,75 88.4,77 C119.1,88.8 128.9,92.6 133,94.5 C134.9,95.4 135.6,95.8 136.6,96.5 C136.8,96.7 137,96.8 137.2,97 C138.1,97.5 139,98 139.8,98.5 C140.2,98.9 140.6,99.2 140.9,99.6 Z" id="Shape" class="fill-primary-200" fill-rule="nonzero"></path>
            <path d="M132.9,94.5 C113.5,96.2 68.5,95.5 58.4,95.5 C51.6,95.5 46,93.6 41.6,89.6 C39.6,87.7 37.9,85.4 36.4,82.7 C30.8,72.2 26.6,64.2 23.3,58.9 C19.7,53.1 17.2,50.4 15.4,50.9 C15.2,51 15,51.1 14.8,51.3 C14,48.6 12.6,46.1 10.5,43.7 C-0.8,30.4 11,17 17.7,8.2 C18,8.3 18.5,8.6 18.9,9.1 C23.5,15.6 30.3,25.1 37.4,34.5 C37.5,34.7 37.7,34.9 37.9,35.1 C48.4,49.2 60.6,64.8 68.3,71.3 C74.5,76.5 83.1,75.1 88.3,77.1 C119.1,88.8 128.8,92.6 132.9,94.5 Z" id="Shape" class="fill-primary-100" fill-rule="nonzero"></path>
            <path d="M3.1,38.7 C2.4,37.3 2,36.5 1.6,35.2 C-1.99840144e-15,29.4 1.2,23.3 4.6,17.5 C7.9,11.8 12.3,6.8 16.2,1.5 C17.2,0.2 18.2,0.4 19.1,1.4 C20.3,2.7 21.4,4.2 22.4,5.6 C35.2,23.6 48.1,41.5 62.4,58.3 C65.2,61.6 68.3,64.7 71.6,67.5 C76.1,71.3 81.9,71.8 87.6,72.5 C89.4,72.7 91.1,73 92.8,73.6 C102.3,77.3 111.8,81 121.4,84.7" id="Shape" class="stroke-primary" stroke-width="3" stroke-linecap="round" stroke-linejoin="round"></path>
            <path d="M5.6,42.4 C5.5,42.3 5.4,42.2 5.3,42" id="Shape" class="stroke-primary" stroke-width="3" stroke-linecap="round" stroke-linejoin="round"></path>
            <path d="M128.5,87.5 C131.3,88.6 134.1,89.7 136.9,90.8 C139.3,91.8 141.8,92.9 143.9,94.4 C146.3,96 146,98.1 143.3,99 C140.7,99.8 138,100.4 135.3,100.5 C101.1,102.3 88.2,102.4 63.7,102.5 C53.8,102.5 46.4,98.5 41.7,89.6 C37.3,81.4 32.8,73.2 28.2,65.1 C27,63 25.4,61 23.7,59.2 C23,58.4 21.5,57.5 20.6,57.8 C19.8,58 18.9,59.6 18.8,60.6 C18.3,65.5 17.9,70.3 17.8,75.2 C17.7,80.9 17.8,86.7 17.9,92.5 C17.9,94.1 17.5,95.1 15.7,95 C14,94.9 12.3,95.1 12,92.8 C11.9,91.9 12,90.9 12,90 C11.8,78.6 11.7,67.2 11.2,55.8 C11.1,53.7 10.7,51.8 10.1,49.9" id="Shape" class="stroke-primary" stroke-width="3" stroke-linecap="round" stroke-linejoin="round"></path>
            <path d="M78.6,64.2 C83,68 87.1,71.1 90.7,73" id="Shape" class="stroke-primary" stroke-width="3" stroke-linecap="round" stroke-linejoin="round"></path>
            <path d="M73.1,59.2 C73.2,59.3 73.4,59.4 73.5,59.6" id="Shape" class="stroke-primary" stroke-width="3" stroke-linecap="round" stroke-linejoin="round"></path>
            <path d="M18.8,1 C22.8,1.9 45.1,30.8 66.1,52.3" id="Shape" class="stroke-primary" stroke-width="3" stroke-linecap="round" stroke-linejoin="round"></path>
        </g>
    </g>
</svg>