<?xml version="1.0" encoding="UTF-8"?>
<svg width="153px" height="128px" viewBox="0 0 153 128" version="1.1" xmlns="http://www.w3.org/2000/svg" xmlns:xlink="http://www.w3.org/1999/xlink">
    <!-- Generator: Sketch 51.2 (57519) - http://www.bohemiancoding.com/sketch -->
    <title>Shopping_Cart</title>
    <desc>Created with Sketch.</desc>
    <defs></defs>
    <g id="Page-1" stroke="none" stroke-width="1" fill="none" fill-rule="evenodd">
        <g id="Shopping_Cart" transform="translate(2.000000, 2.000000)">
            <g id="Group" transform="translate(16.000000, 123.000000)" class="stroke-primary-300" stroke-linecap="round" stroke-linejoin="round" stroke-width="3">
                <path d="M1.9,0.7 L0.8,0.7" id="Shape"></path>
                <path d="M95.6,0.7 L8.1,0.7" id="Shape"></path>
                <path d="M126.4,0.7 L100.5,0.7" id="Shape"></path>
                <path d="M132.8,0.7 L131,0.7" id="Shape"></path>
            </g>
            <path d="M133.3,29.9 C131.6,27.5 128.9,26.2 126,26.2 C126,26.2 126,26.2 125.9,26.2 L46.3,26.2 C43.7,26.2 41.6,28.3 41.6,30.9 C41.6,33.5 43.7,35.6 46.3,35.6 L125.7,35.6 L116.1,66.6 C115.4,68.8 113.4,70.2 111.2,70.2 L45.2,70.2 L26.2,7.5 C24.9,3.3 21.1,0.4 16.6,0.4 L5.1,0.4 C2.5,0.4 0.4,2.5 0.4,5.1 C0.4,7.7 2.5,9.8 5.1,9.8 L16.6,9.8 C16.9,9.8 17.2,10 17.3,10.3 L40.3,86 C42.1,91.8 47.5,95.7 53.5,95.7 L111.6,95.7 C114.2,95.7 116.3,93.6 116.3,91 C116.3,88.4 114.2,86.3 111.6,86.3 L53.5,86.3 C51.5,86.3 49.7,85 49.1,83.1 L48,79.5 L111.2,79.5 C117.6,79.5 123.1,75.4 125,69.3 L134.6,38.2 C135.5,35.2 135,32.3 133.3,29.9 Z" id="Shape" class="fill-neutral" fill-rule="nonzero"></path>
            <path d="M134.9,37.2 C134.8,37.5 134.8,37.8 134.7,38.1 L125.1,69.2 C123.2,75.3 117.7,79.4 111.3,79.4 L48.2,79.4 L51.2,86.7 C51.8,88.6 53.5,89.9 55.6,89.9 L111.9,89.9 C113.8,89.9 115.4,91 116.2,92.7 C115.5,94.3 113.8,95.5 111.9,95.5 L53.8,95.5 C47.7,95.5 42.4,91.6 40.5,85.8 L17.5,10.1 C17.4,9.8 17.1,9.6 16.8,9.6 L5.3,9.6 C3.4,9.6 1.8,8.5 1,6.8 C1.7,5.2 3.4,4 5.3,4 L16.8,4 C21.2,4 25.1,6.9 26.4,11.1 L45.4,70.1 L111.4,70.1 C113.7,70.1 115.7,68.6 116.3,66.5 L125.9,39.3 L124.7,39.3 L125.9,35.6 L46.5,35.6 C44.6,35.6 42.9,34.5 42.2,32.8 C42.9,31.2 44.5,30 46.5,30 L126.2,30 C129.1,30 131.8,31.4 133.5,33.7 C134.1,34.7 134.6,35.9 134.9,37.2 Z" id="Shape" class="fill-primary-200" fill-rule="nonzero"></path>
            <path d="M133.3,29.9 C131.6,27.5 128.9,26.2 126,26.2 C126,26.2 126,26.2 125.9,26.2 L46.3,26.2 C43.7,26.2 41.6,28.3 41.6,30.9 C41.6,33.5 43.7,35.6 46.3,35.6 L125.7,35.6 L116.1,66.6 C115.4,68.8 113.4,70.2 111.2,70.2 L45.2,70.2 L26.2,7.5 C24.9,3.3 21.1,0.4 16.6,0.4 L5.1,0.4 C2.5,0.4 0.4,2.5 0.4,5.1 C0.4,7.7 2.5,9.8 5.1,9.8 L16.6,9.8 C16.9,9.8 17.2,10 17.3,10.3 L40.3,86 C42.1,91.8 47.5,95.7 53.5,95.7 L111.6,95.7 C114.2,95.7 116.3,93.6 116.3,91 C116.3,88.4 114.2,86.3 111.6,86.3 L53.5,86.3 C51.5,86.3 49.7,85 49.1,83.1 L48,79.5 L111.2,79.5 C117.6,79.5 123.1,75.4 125,69.3 L134.6,38.2 C135.5,35.2 135,32.3 133.3,29.9 Z" id="Shape" class="stroke-primary" stroke-width="3" stroke-linecap="round" stroke-linejoin="round"></path>
            <circle id="Oval" stroke-width="3" class="stroke-primary fill-primary-400" fill-rule="nonzero" stroke-linecap="round" stroke-linejoin="round" cx="55.6" cy="113.2" r="10.3"></circle>
            <circle id="Oval" stroke-width="3" class="stroke-primary fill-primary-100" fill-rule="nonzero" stroke-linecap="round" stroke-linejoin="round" cx="55.6" cy="113.2" r="4.9"></circle>
            <circle id="Oval" stroke-width="3" class="stroke-primary fill-primary-400" fill-rule="nonzero" stroke-linecap="round" stroke-linejoin="round" cx="105" cy="113.2" r="10.3"></circle>
            <circle id="Oval" stroke-width="3" class="stroke-primary fill-primary-100" fill-rule="nonzero" stroke-linecap="round" stroke-linejoin="round" cx="105" cy="113.2" r="4.9"></circle>
            <path d="M58.3,39.8 L58.3,65" id="Shape" class="stroke-primary" stroke-width="3" stroke-linecap="round" stroke-linejoin="round"></path>
            <path d="M74.1,39.8 L74.1,65" id="Shape" class="stroke-primary" stroke-width="3" stroke-linecap="round" stroke-linejoin="round"></path>
            <path d="M90,39.8 L90,65" id="Shape" class="stroke-primary" stroke-width="3" stroke-linecap="round" stroke-linejoin="round"></path>
            <path d="M105.8,56 L105.8,65" id="Shape" class="stroke-primary" stroke-width="3" stroke-linecap="round" stroke-linejoin="round"></path>
            <path d="M105.8,39.8 L105.8,49.6" id="Shape" class="stroke-primary" stroke-width="3" stroke-linecap="round" stroke-linejoin="round"></path>
            <path d="M79.7,45.4 L114.2,45.4" id="Shape" class="stroke-primary" stroke-width="3" stroke-linecap="round" stroke-linejoin="round"></path>
            <path d="M50,45.4 L74.1,45.4" id="Shape" class="stroke-primary" stroke-width="3" stroke-linecap="round" stroke-linejoin="round"></path>
            <path d="M44.3,45.4 L45.1,45.4" id="Shape" class="stroke-primary" stroke-width="3" stroke-linecap="round" stroke-linejoin="round"></path>
            <path d="M101.9,58.5 L110.6,58.5" id="Shape" class="stroke-primary" stroke-width="3" stroke-linecap="round" stroke-linejoin="round"></path>
            <path d="M74.1,58.5 L95.8,58.5" id="Shape" class="stroke-primary" stroke-width="3" stroke-linecap="round" stroke-linejoin="round"></path>
            <path d="M49.2,58.5 L69.2,58.5" id="Shape" class="stroke-primary" stroke-width="3" stroke-linecap="round" stroke-linejoin="round"></path>
        </g>
    </g>
</svg>