<?xml version="1.0" encoding="UTF-8"?>
<svg width="107px" height="144px" viewBox="0 0 107 144" version="1.1" xmlns="http://www.w3.org/2000/svg" xmlns:xlink="http://www.w3.org/1999/xlink">
    <!-- Generator: Sketch 51.2 (57519) - http://www.bohemiancoding.com/sketch -->
    <title>Shower</title>
    <desc>Created with Sketch.</desc>
    <defs></defs>
    <g id="Page-1" stroke="none" stroke-width="1" fill="none" fill-rule="evenodd">
        <g id="Shower" transform="translate(1.000000, 1.000000)">
            <path d="M100.7,131.9 L99.8,131.9 L99.8,5.6 C99.8,3 97.7,0.9 95.1,0.9 L9.5,0.9 C6.9,0.9 4.8,3 4.8,5.6 L4.8,131.9 L3.9,131.9 C2.1,131.9 0.6,133.4 0.6,135.2 L0.6,141.5 L104,141.5 L104,135.2 C104,133.3 102.5,131.9 100.7,131.9 Z" id="Shape" class="fill-neutral" fill-rule="nonzero"></path>
            <path d="M104,135.4 L104,141.4 L7.3,141.4 L7.3,135.4 C7.3,133.7 8.7,132.2 10.4,132.2 L11.2,132.2 L11.2,10.4 C11.2,7.9 13.2,5.9 15.6,5.9 L95.7,5.9 C98.1,5.9 100.1,7.9 100.1,10.4 L100.1,132.2 L100.9,132.2 C102.6,132.2 104,133.6 104,135.4 Z" id="Shape" class="fill-primary-100" fill-rule="nonzero"></path>
            <path d="M20.1,5.8 L20.1,131.2 L11.1,131.2 L11.1,10.4 C11.1,7.9 13.1,5.9 15.5,5.9 L20.1,5.9 L20.1,5.8 Z" id="Shape" fill="#BAD8FF" fill-rule="nonzero"></path>
            <path d="M104,135.4 L104,141.4 L7.3,141.4 L7.3,135.4 C7.3,133.7 8.7,132.2 10.4,132.2 L11.2,132.2 L11.2,131 L100.1,131 L100.1,132.2 L100.9,132.2 C102.6,132.2 104,133.6 104,135.4 Z" id="Shape" fill="#BAD8FF" fill-rule="nonzero"></path>
            <path d="M4.8,37.3 L4.8,36" id="Shape" class="stroke-primary" stroke-width="3" stroke-linecap="round" stroke-linejoin="round"></path>
            <path d="M4.8,28.9 L4.8,5.6 C4.8,3 6.9,0.9 9.5,0.9 L95.1,0.9 C97.7,0.9 99.8,3 99.8,5.6 L99.8,131.9 L4.8,131.9 L4.8,56" id="Shape" class="stroke-primary" stroke-width="3" stroke-linecap="round" stroke-linejoin="round"></path>
            <path d="M104,141.4 L104,135.1 C104,133.3 102.5,131.8 100.7,131.8 L3.9,131.8 C2.1,131.8 0.6,133.3 0.6,135.1 L0.6,141.4 L104,141.4 Z" id="Shape" class="stroke-primary" stroke-width="3" stroke-linecap="round" stroke-linejoin="round"></path>
            <path d="M20.6,1.7 L20.6,113.5" id="Shape" class="stroke-primary" stroke-width="3" stroke-linecap="round" stroke-linejoin="round"></path>
            <path d="M88,58 L88,74.3" id="Shape" class="stroke-primary" stroke-width="3" stroke-linecap="round" stroke-linejoin="round"></path>
            <path d="M43.8,19 C40.8,12.5 33.7,8.7 26.4,10.2 C24.2,10.7 22.3,11.5 20.6,12.8" id="Shape" class="stroke-primary" stroke-width="3" stroke-linecap="round" stroke-linejoin="round"></path>
            <path d="M34.8,34 L57.9,29.1 L57.7,28.2 C56.4,21.8 50.1,17.7 43.7,19.1 C37.3,20.4 33.2,26.7 34.6,33.1 L34.8,34 Z" id="Shape" class="stroke-primary" stroke-width="3" stroke-linecap="round" stroke-linejoin="round"></path>
            <g id="Group" transform="translate(37.000000, 39.000000)" class="stroke-primary" stroke-linecap="round" stroke-linejoin="round" stroke-width="3">
                <path d="M22.8,4.3 L22.9,4.6" id="Shape"></path>
                <path d="M25.2,12.8 L25.3,13.2" id="Shape"></path>
                <path d="M27.6,21.3 L27.7,21.7" id="Shape"></path>
                <path d="M30,29.9 L30.1,30.2" id="Shape"></path>
                <path d="M32.4,38.4 L32.4,38.8" id="Shape"></path>
                <path d="M15.2,0.1 L15.3,0.5" id="Shape"></path>
                <path d="M17.6,8.6 L17.6,9" id="Shape"></path>
                <path d="M20,17.2 L20,17.5" id="Shape"></path>
                <path d="M22.3,25.7 L22.4,26.1" id="Shape"></path>
                <path d="M24.7,34.2 L24.8,34.6" id="Shape"></path>
                <path d="M8.1,7.3 L8.2,7.7" id="Shape"></path>
                <path d="M9.4,16.1 L9.4,16.5" id="Shape"></path>
                <path d="M10.6,24.9 L10.7,25.3" id="Shape"></path>
                <path d="M11.8,33.7 L11.9,34" id="Shape"></path>
                <path d="M13.1,42.4 L13.2,42.8" id="Shape"></path>
                <path d="M0.1,3.2 L0.2,3.6" id="Shape"></path>
                <path d="M1.3,12 L1.4,12.4" id="Shape"></path>
                <path d="M2.6,20.8 L2.6,21.2" id="Shape"></path>
                <path d="M3.8,29.6 L3.9,30" id="Shape"></path>
                <path d="M5,38.3 L5.1,38.7" id="Shape"></path>
            </g>
        </g>
    </g>
</svg>