<?xml version="1.0" encoding="UTF-8"?>
<svg width="148px" height="137px" viewBox="0 0 148 137" version="1.1" xmlns="http://www.w3.org/2000/svg" xmlns:xlink="http://www.w3.org/1999/xlink">
    <!-- Generator: Sketch 51.2 (57519) - http://www.bohemiancoding.com/sketch -->
    <title>Sleep</title>
    <desc>Created with Sketch.</desc>
    <defs></defs>
    <g id="Page-1" stroke="none" stroke-width="1" fill="none" fill-rule="evenodd">
        <g id="Sleep" transform="translate(2.000000, 1.000000)">
            <path d="M10.1,30.2 L10.1,22.6 C10.1,19.8 7.9,17.6 5.1,17.6 C2.3,17.6 0.1,19.8 0.1,22.6 L0.1,129.3 C0.1,132.1 2.3,134.3 5.1,134.3 C7.9,134.3 10.1,132.1 10.1,129.3 L10.1,93.3 L134.4,93.3 L134.4,129.3 C134.4,132.1 136.6,134.3 139.4,134.3 C142.2,134.3 144.4,132.1 144.4,129.3 L144.4,88.3 C144.4,85.5 142.2,83.3 139.4,83.3 L10.1,83.3 L10.1,56.4" id="Shape" class="fill-primary-400" fill-rule="nonzero"></path>
            <path d="M44.1,83.4 L44.1,64.9 C44.1,60.1 48.6,56.7 53.2,57.9 L132.7,78.7 C134.9,79.3 136.6,81.2 136.9,83.4" id="Shape" class="fill-neutral" fill-rule="nonzero"></path>
            <path d="M44.1,83.4 L44.1,64.9 C44.1,60.1 48.6,56.7 53.2,57.9 L132.7,78.7 C134.9,79.3 136.6,81.2 136.9,83.4" id="Shape" class="fill-primary-100" fill-rule="nonzero"></path>
            <path d="M134.4,93.4 L134.4,129.4 C134.4,132.2 136.6,134.4 139.4,134.4 C142.2,134.4 144.4,132.2 144.4,129.4 L144.4,88.4 C144.4,85.6 142.2,83.4 139.4,83.4 L10.1,83.4 L10.1,56.5" id="Shape" class="stroke-primary" stroke-width="3" stroke-linecap="round" stroke-linejoin="round"></path>
            <path d="M10.1,30.2 L10.1,22.6 C10.1,19.8 7.9,17.6 5.1,17.6 C2.3,17.6 0.1,19.8 0.1,22.6 L0.1,129.3 C0.1,132.1 2.3,134.3 5.1,134.3 C7.9,134.3 10.1,132.1 10.1,129.3 L10.1,93.3 L120.6,93.3" id="Shape" class="stroke-primary" stroke-width="3" stroke-linecap="round" stroke-linejoin="round"></path>
            <path d="M10.1,48.2 L10.1,46.8" id="Shape" stroke-width="3" class="stroke-primary fill-primary-400" fill-rule="nonzero" stroke-linecap="round" stroke-linejoin="round"></path>
            <path d="M44.1,83.4 L44.1,64.9 C44.1,60.1 48.6,56.7 53.2,57.9 L132.7,78.7 C134.9,79.3 136.6,81.2 136.9,83.4" id="Shape" class="stroke-primary" stroke-width="3" stroke-linecap="round" stroke-linejoin="round"></path>
            <circle id="Oval" stroke-width="3" class="stroke-primary fill-primary-100" fill-rule="nonzero" stroke-linecap="round" stroke-linejoin="round" cx="26.7" cy="66.2" r="9.7"></circle>
            <polygon id="Shape" class="stroke-primary" stroke-width="3" stroke-linecap="round" stroke-linejoin="round" points="27.9 45.4 31.9 42.9 31.9 42.8 28.8 42 29.1 40.9 34.2 42.2 34 43.1 30.2 45.5 30.2 45.6 33.3 46.4 33 47.5 27.8 46.2"></polygon>
            <polygon id="Shape" class="stroke-primary" stroke-width="3" stroke-linecap="round" stroke-linejoin="round" points="36.5 32.7 40.2 27.9 40.2 27.8 36 28.4 35.8 27 42.7 26 42.9 27.2 39.5 31.9 39.5 32 43.6 31.4 43.8 32.8 36.8 33.8"></polygon>
            <polygon id="Shape" class="stroke-primary" stroke-width="3" stroke-linecap="round" stroke-linejoin="round" points="46.9 13.5 59.4 7.5 59.5 7.3 50.7 4 51.9 0.8 66.3 6.2 65.3 8.8 53.5 14.7 53.4 14.9 62 18.1 60.8 21.3 46.1 15.8"></polygon>
        </g>
    </g>
</svg>