<?xml version="1.0" encoding="UTF-8"?>
<svg width="151px" height="148px" viewBox="0 0 151 148" version="1.1" xmlns="http://www.w3.org/2000/svg" xmlns:xlink="http://www.w3.org/1999/xlink">
    <!-- Generator: Sketch 51.2 (57519) - http://www.bohemiancoding.com/sketch -->
    <title>Smartwatch</title>
    <desc>Created with Sketch.</desc>
    <defs></defs>
    <g id="Page-1" stroke="none" stroke-width="1" fill="none" fill-rule="evenodd">
        <g id="Smartwatch" transform="translate(1.000000, 2.000000)">
            <g id="Group" transform="translate(0.000000, 143.000000)" class="stroke-primary-300" stroke-linecap="round" stroke-linejoin="round" stroke-width="3">
                <path d="M1.9,0.1 L0.6,0.1" id="Shape"></path>
                <path d="M38.3,0.1 L7.1,0.1" id="Shape"></path>
                <path d="M45,0.1 L43.8,0.1" id="Shape"></path>
                <path d="M148.4,0.1 L51.9,0.1" id="Shape"></path>
            </g>
            <g id="Group" transform="translate(36.000000, 7.000000)">
                <path d="M81.1,38.5 C81.1,33.1 78.9,29.1 74.1,26.4 C69.7,23.9 66.4,20.6 66,15.1 C65.9,13.4 65.4,11.7 65.1,10 C64.2,4.7 61.1,1.4 55.8,1.1 C46.5,0.7 37.1,0.5 27.7,0.8 C19.9,1.1 17.3,3.6 16.2,11.3 C15.3,17.6 13.6,23.2 7.4,26.3 C2.3,28.9 0.2,33.1 0.2,38.7 C0.3,48.7 0.2,58.6 0.2,68.6 C0.2,78.8 0.2,89 0.2,99.2 C0.2,104.5 2.5,108.3 7.3,110.9 C11.5,113.2 14.8,116.4 15.3,121.7 C15.5,124.1 16.1,126.6 16.7,128.9 C17.6,132.6 21,135.8 24.4,135.9 C33.3,136.2 42.1,136.4 51,136.5 C61.7,136.6 64.7,132.8 65.6,123.3 C66.1,117.7 68.8,113.5 73.7,110.9 C78.7,108.3 81,104.3 81,98.8 C81.1,78.8 81.1,58.6 81.1,38.5 Z" id="Shape" class="fill-neutral" fill-rule="nonzero"></path>
                <path d="M81.1,39.5 C81.1,34.3 79,29.6 74.5,27.1 C70.4,24.8 67.3,23.5 66.9,18.4 C66.8,16.8 66.4,18.1 66.1,16.5 C65.2,11.5 62.3,8.3 57.4,8.1 C54.7,8 52,7.9 49.3,7.8 C43.2,7.6 37.1,7.6 31.1,7.8 C23.8,8.1 21.4,10.5 20.3,17.7 C19.4,23.6 17.8,29 12.1,31.9 C7.3,34.4 5.3,38.3 5.4,43.7 C5.5,53.1 5.4,62.6 5.4,72 C5.4,81.7 5.4,87.7 5.4,97.4 C5.4,110.6 16.4,106.1 19.5,122.5 C19.9,124.8 20.3,127.1 20.8,129.4 C21.7,132.9 24.8,136 28,136.1 C36.3,136.4 44.6,136.5 52.9,136.6 C62.9,136.7 65.7,133.1 66.6,124.1 C67.1,118.7 69.7,114.8 74.2,112.4 C78.8,109.9 81,106.1 81,100.9 L81,92.4 C81,78.1 81,62.3 81,48 C81.1,45 81.1,42.2 81.1,39.5 Z" id="Shape" class="fill-primary-100" fill-rule="nonzero"></path>
                <path d="M81.1,39.5 C81.1,42.2 81.1,45 81.1,47.9 C78.5,48.7 75.8,49.1 73,49.1 C57.8,49.1 45.5,36.8 45.5,21.6 C45.5,16.5 46.9,11.8 49.3,7.7 C52,7.8 54.7,7.9 57.4,8 C62.3,8.2 65.3,11.4 66.1,16.4 C66.4,18 66.8,16.7 66.9,18.3 C67.3,23.5 70.4,24.7 74.5,27 C79,29.6 81.1,34.3 81.1,39.5 Z" id="Shape" fill="#BAD8FF" fill-rule="nonzero"></path>
                <path d="M81.1,92.3 L81.1,100.8 C81.1,106 78.9,109.8 74.3,112.3 C69.7,114.8 67.2,118.7 66.7,124 C65.9,133 63,136.6 53,136.5 C44.7,136.4 36.4,136.3 28.1,136 C24.9,135.9 21.7,132.9 20.9,129.3 C20.2,126.6 19.9,124.5 19.6,122.8 C18.9,118.7 22.2,114.9 26.4,115 C42.3,115.3 61.4,115 63.1,115 C66,115 69,110.1 71.9,109.1 C74.8,108.1 77.8,105.2 78.7,98.4 C78.9,96.3 79.9,94.2 81.1,92.3 Z" id="Shape" fill="#BAD8FF" fill-rule="nonzero"></path>
                <path d="M18.8,4.1 C20.5,1.9 23.3,1 27.8,0.9 C37.1,0.6 46.5,0.8 55.9,1.2 C61.2,1.4 64.3,4.7 65.2,10.1 C65.5,11.8 66,13.5 66.1,15.2 C66.5,20.6 69.8,24 74.2,26.5 C79,29.2 81.2,33.2 81.2,38.6 C81.2,58.8 81.2,78.9 81.2,99.1 C81.2,104.6 78.9,108.6 73.9,111.2 C69,113.8 66.3,117.9 65.8,123.6 C64.9,133.1 61.9,136.9 51.2,136.8 C42.3,136.7 33.5,136.5 24.6,136.2 C21.1,136.1 17.8,132.9 16.9,129.2 C16.3,126.8 15.7,124.4 15.5,122 C15,116.7 11.7,113.5 7.5,111.2 C2.7,108.6 0.4,104.8 0.4,99.5 C0.4,89.3 0.4,79.1 0.4,68.9 C0.4,58.9 0.5,49 0.4,39 C0.3,33.4 2.5,29.2 7.6,26.6 C11.1,24.8 13.2,22.2 14.5,19.2 M16.5,9.9 C16.5,9.9 16.5,9.8 16.5,9.8" id="Shape" class="stroke-primary" stroke-width="3" stroke-linecap="round" stroke-linejoin="round"></path>
                <path d="M73.7,49.1 C73.7,65.2 73.7,81.3 73.7,97.3 C73.7,102.2 71.4,104.5 66.6,104.5 C49.3,104.5 32.1,104.5 14.8,104.5 C9.9,104.5 7.7,102.3 7.7,97.4 C7.7,87.7 7.7,78.1 7.7,68.4 L7.7,39.9 C7.7,34.9 10,32.7 15,32.7 L66.5,32.7 C71.3,32.7 73.6,35.1 73.6,39.8 C73.7,42.9 73.7,46 73.7,49.1 Z" id="Shape" class="fill-neutral" fill-rule="nonzero"></path>
                <path d="M73.7,49.1 C73.5,49.1 73.2,49.1 73,49.1 C61.8,49.1 52.1,42.4 47.9,32.7 L66.6,32.7 C71.4,32.7 73.7,35.1 73.7,39.8 C73.7,42.9 73.7,46 73.7,49.1 Z" id="Shape" fill="#BAD8FF" fill-rule="nonzero"></path>
                <path d="M28.4,32.7 C28.2,32.7 28,32.7 27.8,32.7" id="Shape" class="stroke-primary" stroke-width="3" stroke-linecap="round" stroke-linejoin="round"></path>
                <path d="M21.5,32.7 C19.3,32.7 17.1,32.7 15,32.7 C10,32.7 7.7,34.9 7.7,39.9 C7.7,49.4 7.7,58.9 7.7,68.4 C7.7,78.1 7.7,87.7 7.7,97.4 C7.7,102.3 9.9,104.5 14.8,104.5 C32.1,104.5 49.3,104.5 66.6,104.5 C71.4,104.5 73.7,102.2 73.7,97.3 C73.7,78.1 73.7,59 73.7,39.8 C73.7,35 71.3,32.7 66.6,32.7 C59.6,32.7 52.5,32.7 45.5,32.7" id="Shape" class="stroke-primary" stroke-width="3" stroke-linecap="round" stroke-linejoin="round"></path>
                <path d="M41.3,88.1 C40.9,88.1 40.5,88.1 40,88.1 C29.1,88.1 20.3,79.3 20.3,68.4 C20.3,66.6 20.5,64.9 21,63.3" id="Shape" class="stroke-primary" stroke-width="3" stroke-linecap="round" stroke-linejoin="round"></path>
                <path d="M56.8,58.2 C58.7,61.2 59.7,64.7 59.7,68.5 C59.7,75.9 55.6,82.3 49.6,85.7" id="Shape" class="stroke-primary" stroke-width="3" stroke-linecap="round" stroke-linejoin="round"></path>
                <path d="M48.2,50.7 C49.7,51.4 51.1,52.2 52.3,53.3" id="Shape" class="stroke-primary" stroke-width="3" stroke-linecap="round" stroke-linejoin="round"></path>
                <path d="M40.1,48.9 C40.3,48.9 40.4,48.9 40.6,48.9" id="Shape" class="stroke-primary" stroke-width="3" stroke-linecap="round" stroke-linejoin="round"></path>
            </g>
            <path d="M99.4,3.9 C103.1,1.5 107.5,0.1 112.3,0.1 C125.3,0.1 135.8,10.6 135.8,23.6 C135.8,36.6 125.3,47.1 112.3,47.1 C99.3,47.1 88.8,36.6 88.8,23.6 C88.8,15.3 93.1,8.1 99.4,3.9" id="Shape" class="fill-primary-500" fill-rule="nonzero"></path>
            <path d="M104.9,1.2 C105.1,1.1 105.3,1.1 105.5,1 C107.6,0.4 109.9,0 112.3,0 C117.5,0 122.4,1.7 126.3,4.6" id="Shape" class="stroke-primary" stroke-width="3" stroke-linecap="round" stroke-linejoin="round"></path>
            <path d="M135.6,20.1 C135.8,21.2 135.9,22.4 135.9,23.6 C135.9,36.6 125.4,47.1 112.4,47.1 C99.4,47.1 88.9,36.6 88.9,23.6 C88.9,16.3 92.2,9.8 97.4,5.5" id="Shape" class="stroke-primary" stroke-width="3" stroke-linecap="round" stroke-linejoin="round"></path>
            <path d="M131.9,10.9 C132.1,11.3 132.4,11.6 132.6,12" id="Shape" class="stroke-primary" stroke-width="3" stroke-linecap="round" stroke-linejoin="round"></path>
            <path d="M120.8,30.5 C118.4,32.4 115.8,34 113.2,35.7 C113,35.8 112.7,35.9 112.5,35.8 C105.7,31.5 98.1,27.2 100.2,18.5 C101.2,14.4 105.3,12.4 109.2,14.1 C110.1,14.5 110.9,15 111.7,15.6 C112.6,16.3 112.9,16.3 113.8,15.6 C118.7,11.5 124.6,13.7 125.5,19.1 C126.3,23.4 124.9,27.4 120.8,30.5 Z" id="Shape" stroke-width="3" class="stroke-primary fill-neutral" fill-rule="nonzero" stroke-linecap="round" stroke-linejoin="round"></path>
            <path d="M112.2,15.9 L112.4,16 C113.5,16.8 114.2,17.5 115.5,19.1" id="Shape" stroke-width="3" class="stroke-primary fill-neutral" fill-rule="nonzero" stroke-linecap="round" stroke-linejoin="round"></path>
        </g>
    </g>
</svg>