<?xml version="1.0" encoding="UTF-8"?>
<svg width="134px" height="151px" viewBox="0 0 134 151" version="1.1" xmlns="http://www.w3.org/2000/svg" xmlns:xlink="http://www.w3.org/1999/xlink">
    <!-- Generator: Sketch 51.2 (57519) - http://www.bohemiancoding.com/sketch -->
    <title>Stamp</title>
    <desc>Created with Sketch.</desc>
    <defs></defs>
    <g id="Page-1" stroke="none" stroke-width="1" fill="none" fill-rule="evenodd">
        <g id="Stamp" transform="translate(2.000000, 2.000000)">
            <path d="M115.1,146.7 L15,146.7 C9.6,146.7 5.2,142.3 5.2,136.9 L125,136.9 C124.9,142.2 120.5,146.7 115.1,146.7 Z" id="Shape" class="fill-neutral" fill-rule="nonzero"></path>
            <path d="M115.1,146.7 L15,146.7 C9.6,146.7 5.2,142.3 5.2,136.9 L125,136.9 C124.9,142.2 120.5,146.7 115.1,146.7 Z" id="Shape" class="fill-primary-400" fill-rule="nonzero"></path>
            <path d="M95.8,60.4 C90.1,68.4 85.3,76.9 83.8,86.8 C83.1,91.3 83.1,95.9 82.9,100.5 C82.8,101.6 82.9,102.6 82.9,103.6 L47.1,103.6 C47.1,99.4 47.3,95.3 47.1,91.3 C46.3,79.9 42.1,69.9 35,60.9 C27.2,51 25.4,39.7 28.5,27.7 C33.1,10.5 49.3,-0.8 67.4,0.1 C82.5,0.9 95.5,10.9 100.7,24.8 C101.5,27 102.2,29.3 102.6,31.7 C104.3,42.3 101.9,51.9 95.8,60.4 Z" id="Shape" class="fill-neutral" fill-rule="nonzero"></path>
            <path d="M100.6,51.7 C99.4,54.7 97.8,57.6 95.8,60.4 C90.1,68.4 85.3,76.9 83.8,86.8 C83.1,91.3 83.1,95.9 82.9,100.5 C82.8,101.6 82.9,102.6 82.9,103.6 L51.9,103.6 C51.9,99.6 52.1,95.8 51.9,92 C51.2,82.5 48.1,74 42.8,66.4 C42.1,65.3 41.3,64.3 40.5,63.3 C33.1,54 31.4,43.2 34.4,31.9 C38.7,15.6 54.1,4.9 71.2,5.8 C83.9,6.5 95,14 100.8,24.9 C101.6,27.1 102.3,29.4 102.7,31.8 C103.7,38.9 103,45.5 100.6,51.7 Z" id="Shape" class="fill-primary-100" fill-rule="nonzero"></path>
            <path d="M100.6,51.7 C99.4,54.7 97.8,57.6 95.8,60.4 C90.1,68.4 85.3,76.9 83.8,86.8 C83.1,91.3 83.1,95.9 82.9,100.5 C82.8,101.6 82.9,102.6 82.9,103.6 L51.9,103.6 C51.9,99.6 52.1,95.8 51.9,92 C51.2,82.5 48.1,74 42.8,66.4 C65.2,84.1 94.1,67.7 99.5,50.7 C99.5,50.8 99.9,51.1 100.6,51.7 Z" id="Shape" class="fill-primary-200" fill-rule="nonzero"></path>
            <path d="M46.4,85.9 C44.8,76.7 40.9,68.5 35,61 C27.2,51.1 25.4,39.8 28.5,27.8 C29.9,22.6 32.3,18 35.5,14.1" id="Shape" class="stroke-primary" stroke-width="3.2" stroke-linecap="round" stroke-linejoin="round"></path>
            <path d="M51.8,2.5 C56.7,0.7 61.9,-0.1 67.4,0.2 C84.9,1.2 99.6,14.4 102.5,31.8 C104.3,42.3 101.9,51.8 95.8,60.4 C90.1,68.5 85.3,76.9 83.8,86.8 C83.1,91.3 83.1,95.9 82.9,100.5 C82.8,101.6 82.9,102.6 82.9,103.7 C70.8,103.7 59.2,103.7 47.1,103.7 C47.1,101 47.2,98.4 47.2,95.8" id="Shape" class="stroke-primary" stroke-width="3.2" stroke-linecap="round" stroke-linejoin="round"></path>
            <path d="M41.2,8.5 C41.6,8.2 41.9,7.9 42.3,7.7" id="Shape" class="stroke-primary" stroke-width="3.2" stroke-linecap="round" stroke-linejoin="round"></path>
            <path d="M84.5,97.1 L45.5,97.1 C38.9,97.1 33.6,102.4 33.6,109 L33.6,110.5 L96.5,110.5 L96.5,109 C96.5,102.5 91.1,97.1 84.5,97.1 Z" id="Shape" class="stroke-primary" stroke-width="3.2" stroke-linecap="round" stroke-linejoin="round"></path>
            <path d="M84.5,97.1 L45.5,97.1 C38.9,97.1 33.6,102.4 33.6,109 L33.6,110.5 L96.5,110.5 L96.5,109 C96.5,102.5 91.1,97.1 84.5,97.1 Z" id="Shape" class="fill-neutral" fill-rule="nonzero"></path>
            <path d="M84.5,97.1 L45.5,97.1 C38.9,97.1 33.6,102.4 33.6,109 L33.6,110.5 L96.5,110.5 L96.5,109 C96.5,102.5 91.1,97.1 84.5,97.1 Z" id="Shape" class="fill-primary-200" fill-rule="nonzero"></path>
            <path d="M84.5,95.9 L45.5,95.9 C38.9,95.9 33.6,101.2 33.6,107.8 L33.6,109.3 L96.5,109.3 L96.5,107.8 C96.5,101.2 91.1,95.9 84.5,95.9 Z" id="Shape" class="stroke-primary" stroke-width="3.2" stroke-linecap="round" stroke-linejoin="round"></path>
            <path d="M115.1,146.7 L15,146.7 C9.6,146.7 5.2,142.3 5.2,136.9 L125,136.9 C124.9,142.2 120.5,146.7 115.1,146.7 Z" id="Shape" class="stroke-primary" stroke-width="3.2" stroke-linecap="round" stroke-linejoin="round"></path>
            <path d="M112.6,109.7 L17.5,109.7 C8.1,109.7 0.5,117.3 0.5,126.7 L0.5,136.8 L129.6,136.8 L129.6,126.7 C129.6,117.3 122,109.7 112.6,109.7 Z" id="Shape" class="fill-neutral" fill-rule="nonzero"></path>
            <path d="M114.7,115.4 L18.7,115.4 C10.5,115.4 3.8,122.1 3.8,130.3 L3.8,136.8 L129.6,136.8 L129.6,130.3 C129.6,122.1 122.9,115.4 114.7,115.4 Z" id="Shape" class="fill-primary-100" fill-rule="nonzero"></path>
            <path d="M18.7,109.7 L17.4,109.7 C8,109.7 0.4,117.3 0.4,126.7 L0.4,136.8 L129.5,136.8 L129.5,126.7 C129.5,117.3 121.9,109.7 112.5,109.7 L28.3,109.7" id="Shape" class="stroke-primary" stroke-width="3.2" stroke-linecap="round" stroke-linejoin="round"></path>
        </g>
    </g>
</svg>