<?xml version="1.0" encoding="UTF-8"?>
<svg width="149px" height="126px" viewBox="0 0 149 126" version="1.1" xmlns="http://www.w3.org/2000/svg" xmlns:xlink="http://www.w3.org/1999/xlink">
    <!-- Generator: Sketch 51.2 (57519) - http://www.bohemiancoding.com/sketch -->
    <title>Stocks</title>
    <desc>Created with Sketch.</desc>
    <defs></defs>
    <g id="Page-1" stroke="none" stroke-width="1" fill="none" fill-rule="evenodd">
        <g id="Stocks" transform="translate(1.000000, 1.000000)">
            <circle id="Oval" class="fill-neutral" fill-rule="nonzero" cx="19.3" cy="47.4" r="10.8"></circle>
            <circle id="Oval" class="fill-neutral" fill-rule="nonzero" cx="56.1" cy="11.1" r="10.8"></circle>
            <circle id="Oval" class="fill-neutral" fill-rule="nonzero" cx="91.6" cy="43.5" r="10.8"></circle>
            <circle id="Oval" class="fill-neutral" fill-rule="nonzero" cx="127.2" cy="25.8" r="10.8"></circle>
            <circle id="Oval" fill="#C4E0FF" fill-rule="nonzero" cx="20.5" cy="48.6" r="9.6"></circle>
            <circle id="Oval" fill="#C4E0FF" fill-rule="nonzero" cx="57.6" cy="12.6" r="9.3"></circle>
            <circle id="Oval" fill="#C4E0FF" fill-rule="nonzero" cx="93" cy="44.9" r="9.5"></circle>
            <circle id="Oval" fill="#C4E0FF" fill-rule="nonzero" cx="128.7" cy="27.3" r="9.3"></circle>
            <path d="M29.1,84.3 L29.1,122.6 L9.7,122.6 L9.7,84.3 C9.7,83.3 10.5,82.5 11.5,82.5 L27.4,82.5 C28.3,82.6 29.1,83.4 29.1,84.3 Z" id="Shape" class="fill-neutral" fill-rule="nonzero"></path>
            <path d="M65.1,48.4 L65.1,122.6 L45.7,122.6 L45.7,48.4 C45.7,47.1 46.7,46.1 48,46.1 L62.8,46.1 C64,46.1 65.1,47.1 65.1,48.4 Z" id="Shape" class="fill-neutral" fill-rule="nonzero"></path>
            <path d="M101,78.2 L101,122.6 L81.6,122.6 L81.6,78.2 C81.6,77.2 82.4,76.3 83.5,76.3 L99.2,76.3 C100.2,76.3 101,77.2 101,78.2 Z" id="Shape" class="fill-neutral" fill-rule="nonzero"></path>
            <path d="M137,63.7 L137,122.6 L117.6,122.6 L117.6,63.7 C117.6,62.5 118.6,61.6 119.7,61.6 L134.9,61.6 C136.1,61.6 137,62.6 137,63.7 Z" id="Shape" class="fill-neutral" fill-rule="nonzero"></path>
            <path d="M29.1,88.9 L29.1,122.6 L10,122.6 L10,88.9 C10,88 10.8,87.3 11.7,87.3 L27.3,87.3 C28.3,87.4 29.1,88.1 29.1,88.9 Z" id="Shape" class="fill-primary-500" fill-rule="nonzero"></path>
            <path d="M65.1,53.4 L65.1,122.6 L46,122.6 L46,53.4 C46,52.2 47,51.2 48.3,51.2 L62.8,51.2 C64.1,51.2 65.1,52.2 65.1,53.4 Z" id="Shape" class="fill-primary-500" fill-rule="nonzero"></path>
            <path d="M101,82.8 L101,122.7 L82,122.7 L82,82.8 C82,81.9 82.8,81.1 83.8,81.1 L99.2,81.1 C100.2,81.1 101,81.8 101,82.8 Z" id="Shape" class="fill-primary-500" fill-rule="nonzero"></path>
            <path d="M137,67.5 L137,122.6 L117.7,122.6 L117.7,67.5 C117.7,66.4 118.6,65.5 119.8,65.5 L135,65.5 C136.1,65.6 137,66.4 137,67.5 Z" id="Shape" class="fill-primary-500" fill-rule="nonzero"></path>
            <path d="M101.5,39 L117.6,30.8" id="Shape" class="stroke-primary" stroke-width="3" stroke-linecap="round" stroke-linejoin="round"></path>
            <path d="M64.8,18.7 L83.4,36.5" id="Shape" class="stroke-primary" stroke-width="3" stroke-linecap="round" stroke-linejoin="round"></path>
            <path d="M27,39.8 L48,18.3" id="Shape" class="stroke-primary" stroke-width="3" stroke-linecap="round" stroke-linejoin="round"></path>
            <circle id="Oval" class="stroke-primary" stroke-width="3" stroke-linecap="round" stroke-linejoin="round" cx="19.3" cy="47.4" r="10.8"></circle>
            <path d="M60,1 C64.1,2.6 67,6.5 67,11.1 C67,17.1 62.2,21.9 56.2,21.9 C50.2,21.9 45.4,17.1 45.4,11.1 C45.4,8.9 46.1,6.8 47.2,5.1" id="Shape" class="stroke-primary" stroke-width="3" stroke-linecap="round" stroke-linejoin="round"></path>
            <path d="M50.3,2 C50.5,1.9 50.7,1.8 50.9,1.7" id="Shape" class="stroke-primary" stroke-width="3" stroke-linecap="round" stroke-linejoin="round"></path>
            <circle id="Oval" class="stroke-primary" stroke-width="3" stroke-linecap="round" stroke-linejoin="round" cx="91.6" cy="43.5" r="10.8"></circle>
            <path d="M130.7,36 C129.6,36.4 128.4,36.6 127.2,36.6 C121.2,36.6 116.4,31.8 116.4,25.8 C116.4,19.8 121.2,15 127.2,15 C133.2,15 138,19.8 138,25.8 C138,27.8 137.5,29.7 136.5,31.3" id="Shape" class="stroke-primary" stroke-width="3" stroke-linecap="round" stroke-linejoin="round"></path>
            <path d="M29.1,84.3 L29.1,122.6 L9.7,122.6 L9.7,84.3 C9.7,83.3 10.5,82.5 11.5,82.5 L27.4,82.5 C28.3,82.6 29.1,83.4 29.1,84.3 Z" id="Shape" class="stroke-primary" stroke-width="3" stroke-linecap="round" stroke-linejoin="round"></path>
            <path d="M45.6,56.3 L45.6,48.4 C45.6,47.1 46.6,46.1 47.9,46.1 L62.7,46.1 C64,46.1 65,47.1 65,48.4 L65,122.6 L45.6,122.6 L45.6,105.9" id="Shape" class="stroke-primary" stroke-width="3" stroke-linecap="round" stroke-linejoin="round"></path>
            <path d="M45.6,98.7 L45.6,63.6" id="Shape" class="stroke-primary" stroke-width="3" stroke-linecap="round" stroke-linejoin="round"></path>
            <path d="M101,78.2 L101,122.6 L81.6,122.6 L81.6,78.2 C81.6,77.2 82.4,76.3 83.5,76.3 L99.2,76.3 C100.2,76.3 101,77.2 101,78.2 Z" id="Shape" class="stroke-primary" stroke-width="3" stroke-linecap="round" stroke-linejoin="round"></path>
            <path d="M117.6,114.8 L117.6,63.7 C117.6,62.5 118.6,61.6 119.7,61.6 L134.9,61.6 C136.1,61.6 137,62.5 137,63.7 L137,122.6 L117.6,122.6" id="Shape" class="stroke-primary" stroke-width="3" stroke-linecap="round" stroke-linejoin="round"></path>
            <polyline id="Shape" class="stroke-primary" stroke-width="3" stroke-linecap="round" stroke-linejoin="round" points="146.5 122.6 137 122.6 117.6 122.6 101 122.6 81.6 122.6 65.1 122.6 45.6 122.6 29.1 122.6 9.7 122.6 0.5 122.6"></polyline>
        </g>
    </g>
</svg>