<?xml version="1.0" encoding="UTF-8"?>
<svg width="151px" height="145px" viewBox="0 0 151 145" version="1.1" xmlns="http://www.w3.org/2000/svg" xmlns:xlink="http://www.w3.org/1999/xlink">
    <!-- Generator: Sketch 51.2 (57519) - http://www.bohemiancoding.com/sketch -->
    <title>Strength</title>
    <desc>Created with Sketch.</desc>
    <defs></defs>
    <g id="Page-1" stroke="none" stroke-width="1" fill="none" fill-rule="evenodd">
        <g id="Strength" transform="translate(2.000000, 2.000000)">
            <path d="M146.5,138.5 C146.5,138.5 143.3,138.8 143.6,138.9 L109.8,141.3 L99.7,126.5 C84.9,138 68.1,139.3 47.9,137 C32.8,135.3 17.1,126.4 4,118.7 C1,116.9 0.2,112.9 0.7,109.5 C1.1,106.4 3.2,109.1 4,100.7 C7.8,63 31.1,21.7 55.1,3.6 C65.4,-4.2 100.2,5.5 98.9,13.9 C97.2,24.4 83.8,34.4 77.6,35.9 C73.8,36.8 66.7,30 66.2,26 C66.1,24.9 66.2,25.5 65.6,22.8 C65.4,22.9 60.6,25.3 60.4,25.4 L57.3,28.5 C50.4,76.9 51.1,64 51.1,75.1 L51.3,75.1 C59.8,68.3 77.5,67.4 87,72.6 C89.8,74.1 92.4,76.2 94.8,78.5 L95.3,77.5 L96.3,77 L96,77 C110.6,58.6 138.8,63.5 147,81.5 L147,81.8 L146.5,138.5 Z" id="Shape" class="fill-neutral" fill-rule="nonzero"></path>
            <path d="M145.3,89.8 C145.7,90.6 145.1,137.8 145.1,138.7 C144.6,138.8 144.2,138.8 143.9,138.9 L143,139 L111.1,141.3 C110.3,141.4 109.5,141 109,140.3 L101,128.6 C100.3,127.5 98.8,127.2 97.8,128 C83.4,138.2 67.2,139.4 47.8,137.1 C32.7,135.4 17,126.5 3.9,118.8 C2.6,118 1.7,116.8 1.1,115.4 C0.9,114.8 0.9,114.1 1.2,113.5 C2.2,111.6 5.8,108.3 6,106.3 C10.2,69.3 33.1,30.5 56.9,12.5 C65.9,5.7 90.1,12.2 96.2,19.5 C96.8,20.2 96.8,21.2 96.4,22 C91.9,29.9 82.4,34.7 77.5,35.9 C73.7,36.8 66.6,30 66.1,26 C66.1,26 66.1,26 66.1,26 C66,24.4 64.3,23.4 62.8,24.2 C61.9,24.6 61.1,25 60.7,25.3 C60.5,25.4 60.3,25.6 60.1,25.7 L57.8,28 C57.4,28.4 57.2,28.8 57.1,29.3 C56.8,31.4 56.5,33.4 56.2,35.2 L55.7,35.7 C48.8,84.1 49.5,72.9 49.5,84 L49.7,84 C58.2,77.2 75.9,76.3 85.4,81.5 C88.2,83 90.8,85.1 93.2,87.4 L93.7,86.4 L94.7,85.9 L94.4,85.9 C109,67.5 136.8,72.2 145.3,89.8 Z" id="Shape" class="fill-primary-100" fill-rule="nonzero"></path>
            <path d="M145.1,138.7 C144.3,138.8 143.4,138.9 143.6,139 L109.8,141.4 L99.7,126.6 C84.9,138.1 68.1,139.4 47.9,137.1 C32.8,135.4 17.1,126.5 4,118.8 C2.3,117.8 1.3,116.1 0.8,114.2 C1.5,113.4 -0.1,111.5 2.5,107.9 C2.8,107.5 2.6,106.8 2.7,106.3 C3.2,101.8 4,97.2 5.1,92.7 C5.4,91.5 5.7,90.2 6,89 C5.9,90 5.7,91 5.6,92 C5.5,92.5 5.5,93.1 5.4,93.6 C5,97.6 4.3,99.1 3.7,99.9 C7.8,97.6 3.8,112.4 5.5,113.5 C17.7,121.7 35.5,125.9 52.1,126.7 C68.5,127.5 82.2,120.1 94.7,113.8 C100.2,111.1 105.1,112.6 108.5,117.7 C108.5,117.7 116.5,129.1 124.2,132 C131.3,134.7 141.5,136.7 141.5,136.7 C148.9,136.1 144.1,137.2 145.1,138.7 Z" id="Shape" fill="#BAD8FF" fill-rule="nonzero"></path>
            <path d="M146.9,81.4 C138.7,63.4 110.6,58.4 95.9,76.9 M93.3,130.8 C95.4,129.6 97.5,128.2 99.6,126.6 L109.7,141.4 M28.3,33.8 C15.8,53.4 6.2,77.7 3.9,100.7 C3.1,109.1 1,106.4 0.6,109.5 C0.1,113 0.9,117 3.9,118.7 C17,126.4 32.7,135.3 47.8,137.1 C60.9,138.6 72.5,138.6 83.1,135.3 M34.3,25 C34.1,25.2 34,25.4 33.8,25.6 M146,137.8 C129.8,132.4 128,119.8 109.1,95.4 C103,87.6 95.7,77.2 86.9,72.4 C77.4,67.2 59.7,68.1 51.2,74.9 L51,74.9 C51,73.6 51,72.3 51,71 C51,70.2 51,69.5 51.1,68.7 C51.2,67.7 51.4,66.7 51.5,65.7 C51.8,63.7 52.2,61.8 52.5,59.8 C53.1,56.1 53.7,52.4 54.3,48.7 C58,24.4 56.1,27.3 65.6,22.6 C66.2,25.3 66.1,24.7 66.2,25.8 C66.6,29.8 73.8,36.7 77.6,35.7 C83.8,34.2 97.2,24.2 98.9,13.7 C100.2,5.4 65.4,-4.4 55.1,3.4 C49.7,7.5 44.3,12.8 39.2,19" id="Shape" class="stroke-primary" stroke-width="3.2358" stroke-linecap="round" stroke-linejoin="round"></path>
            <path d="M56.1,109.8 C64.2,113.1 76,110.9 84.2,105.2" id="Shape" class="stroke-primary" stroke-width="3.2358" stroke-linecap="round" stroke-linejoin="round"></path>
            <path d="M46.9,104 C47.6,104.8 48.4,105.6 49.3,106.3" id="Shape" class="stroke-primary" stroke-width="3.2358" stroke-linecap="round" stroke-linejoin="round"></path>
            <path d="M146.9,87.4 L146.9,81.7 L146.9,87.4 Z" id="Shape" fill="#4374B9" fill-rule="nonzero"></path>
            <path d="M65.1,22.8 C68.5,21.1 70.2,19.4 70.2,19.4" id="Shape" class="stroke-primary" stroke-width="3.2358" stroke-linecap="round" stroke-linejoin="round"></path>
        </g>
    </g>
</svg>