<?xml version="1.0" encoding="UTF-8"?>
<svg width="120px" height="149px" viewBox="0 0 120 149" version="1.1" xmlns="http://www.w3.org/2000/svg" xmlns:xlink="http://www.w3.org/1999/xlink">
    <!-- Generator: Sketch 51.2 (57519) - http://www.bohemiancoding.com/sketch -->
    <title>Support_male</title>
    <desc>Created with Sketch.</desc>
    <defs></defs>
    <g id="Page-1" stroke="none" stroke-width="1" fill="none" fill-rule="evenodd">
        <g id="Support_male" transform="translate(2.000000, 2.000000)">
            <path d="M100.7,71.6 C98.2,69.5 95.9,67.2 94,64.6 C91.1,60.7 88.9,56.3 85.3,53.2 C79,47.8 69.9,47.4 61.6,47.3 C48.6,47.1 35.6,46.9 22.6,46.7 C21.9,54.9 20.4,63.2 16,70.1 C15.5,70.8 15,71.6 14.4,72.3 C3,44.2 9.6,32.1 22.2,25.6 C17.8,16 17.6,12.5 17.6,12.5 C17.6,12.5 45.5,17.2 55.1,15.3 C67.3,12.9 86,15.8 93,32.1 C99.5,34.7 103.8,38.2 106.5,42.2 C107.9,52.9 103.4,64.4 100.7,71.6 Z" id="Shape" class="fill-primary-100" fill-rule="nonzero"></path>
            <g id="Group" transform="translate(2.000000, 42.000000)" class="stroke-primary" stroke-linecap="round" stroke-linejoin="round" stroke-width="3">
                <path d="M15,28.9 C14.9,29 14.8,29.2 14.7,29.3" id="Shape"></path>
                <path d="M96.5,33.9 C96.8,32.8 97,30.3 96.8,28.1 C96.8,28.1 96.2,5.9 65,4.7 C33.8,3.5 30.9,9.1 21.2,0.1 C24.2,4.7 23.4,12.9 19.8,20.8" id="Shape"></path>
                <path d="M88.1,75.5 C90.7,71.8 92.3,67.5 92.7,62.9" id="Shape"></path>
                <path d="M11.6,65.9 C12.3,72.9 15.7,79.3 21,83.8 L43.6,99.7 C48.9,104.1 56.5,104.2 61.9,100 L72.6,90.4" id="Shape"></path>
                <path d="M5.8,34 C1.2,35.4 -0.5,35.4 0.5,43.3 C1.5,51.2 1.7,56.2 2.9,61 C4.1,65.8 9.2,64.6 9.2,64.6" id="Shape"></path>
                <path d="M96.8,34 C101.4,35.4 103.1,35.4 102.1,43.3 C101.1,51.2 100.9,56.2 99.7,61 C98.5,65.8 93.4,64.6 93.4,64.6" id="Shape"></path>
            </g>
            <path d="M8.7,75.6 C-6.7,42.2 0.4,21.3 14.8,14 C10.1,3.8 9.8,0.1 9.8,0.1 C9.8,0.1 39.8,5.1 50.1,3.1 C63.2,0.5 83.3,3.6 90.8,21 C101.1,25.1 119.8,35.9 102.3,73.8" id="Shape" class="stroke-primary" stroke-width="3" stroke-linecap="round" stroke-linejoin="round"></path>
            <path d="M105.7,107.7 L98.3,107.7 L98.3,69.5 L105.7,69.5 C111.4,69.5 116.1,74.1 116.1,79.9 L116.1,97.4 C116.1,103.1 111.4,107.7 105.7,107.7 Z" id="Shape" class="fill-neutral" fill-rule="nonzero"></path>
            <path d="M104.4,107.7 L98.4,107.7 L98.4,75.6 L104.4,75.6 C109.2,75.6 113,79.5 113,84.2 L113,99.1 C113,103.8 109.1,107.7 104.4,107.7 Z" id="Shape" class="fill-primary-400" fill-rule="nonzero"></path>
            <path d="M105.7,107.7 L98.3,107.7 L98.3,69.5 L105.7,69.5 C111.4,69.5 116.1,74.1 116.1,79.9 L116.1,97.4 C116.1,103.1 111.4,107.7 105.7,107.7 Z" id="Shape" class="stroke-primary" stroke-width="3" stroke-linecap="round" stroke-linejoin="round"></path>
            <path d="M57.7,123.8 L93.5,123.8 C99.4,123.8 104.2,119 104.2,113.1 L104.2,107.7" id="Shape" class="stroke-primary" stroke-width="3" stroke-linecap="round" stroke-linejoin="round"></path>
            <path d="M60.6,128.2 L51.1,128.2 C49.3,128.2 47.8,126.7 47.8,124.9 L47.8,122.8 C47.8,121 49.3,119.5 51.1,119.5 L60.6,119.5 C62.4,119.5 63.9,121 63.9,122.8 L63.9,124.9 C63.9,126.7 62.4,128.2 60.6,128.2 Z" id="Shape" stroke-width="3" class="stroke-primary fill-primary-400" fill-rule="nonzero" stroke-linecap="round" stroke-linejoin="round"></path>
        </g>
    </g>
</svg>