<?xml version="1.0" encoding="UTF-8"?>
<svg width="123px" height="149px" viewBox="0 0 123 149" version="1.1" xmlns="http://www.w3.org/2000/svg" xmlns:xlink="http://www.w3.org/1999/xlink">
    <!-- Generator: Sketch 51.2 (57519) - http://www.bohemiancoding.com/sketch -->
    <title>Support_Female</title>
    <desc>Created with Sketch.</desc>
    <defs></defs>
    <g id="Page-1" stroke="none" stroke-width="1" fill="none" fill-rule="evenodd">
        <g id="Support_Female" transform="translate(1.000000, 1.000000)">
            <path d="M50.6,144.3 C37.7,148 40.1,145.3 40.1,145.3 C40.1,145.3 45.8,135.5 40.3,129.5 C36.4,125.3 28,124 18.8,122.6 C-1.5,114.2 3.1,89.3 27.6,81.4 L32.2,79.9 C32.2,79.9 32.3,79.8 32.3,79.8 C34.5,83.3 37.1,87.4 39.5,91 L37,88.9 L36.7,90.1 C34.1,93.2 27,98.9 38.5,107.6 C50,116.2 52,116.4 52,116.4 L52,116.1 L56.9,123.8 C56.9,124 63.5,140.6 50.6,144.3 Z" id="Shape" class="fill-primary-100" fill-rule="nonzero"></path>
            <path d="M44.8,29.3 C43.2,42.8 34.2,46.8 23.9,54.2 C23.7,48.6 24.3,43 26.1,37.6 C28.4,30.6 32.4,24.2 37.9,19.4 C43.1,14.7 49.5,11.4 56.3,9.7 C59.4,9 62.7,8.6 65.9,8.6 C81.9,8.6 96.1,17.7 103.2,31.5 C105.5,36 106.7,40 107.4,43.7 C85.2,54.6 55.1,39.3 45,24.4 C45.1,26.2 45,27.8 44.8,29.3" id="Shape" class="fill-primary-100" fill-rule="nonzero"></path>
            <g id="Group" class="stroke-primary" stroke-linecap="round" stroke-linejoin="round" stroke-width="3">
                <path d="M37,12.4 L45,24.3 C55.2,39.4 86,55 108.3,43.2 L109.7,42.5" id="Shape"></path>
                <path d="M21.3,55.8 L23.2,54.8 C32.1,48.2 40.1,44.5 43.5,35.4" id="Shape"></path>
                <path d="M1.3,98.3 C-0.5,105.9 2.3,113.7 10.5,118.8 C17.6,123.3 25.7,122.8 33.5,125 C36.8,125.9 40.2,127.5 41.5,130.8 C43.5,135.7 41.1,141.8 39.2,146.3 C72.9,144.6 56.2,117.3 47.2,111.3 C37.9,105.1 24.3,100 38.6,89.2" id="Shape"></path>
                <path d="M28.9,75.9 L23.9,77.5 C18.8,79.1 14.5,81.4 11,84.1" id="Shape"></path>
                <path d="M89.3,93.8 C82.7,101.7 71.1,111.1 59.5,106.2 C55.2,104.4 51.6,101.3 47.8,98.6 C37.4,91.4 35.5,82.4 31.3,77.1 C27,71.6 21,73.5 18.4,66.1 C16.9,61.9 18.5,58.5 20.1,56.4 C21,55.2 20.6,55.4 20.4,54.1 C19.4,46.4 19.8,38.7 22.2,31.2 C24.6,23.8 29,17.2 34.8,12 C36.5,10.5 38.3,9.1 40.2,7.9" id="Shape"></path>
                <path d="M55.5,1.8 C58.6,1.1 61.8,0.8 65,0.8 C82.2,0.8 97.4,10.4 105.1,24.9 C110.2,34.5 110.3,41.8 110.4,49.6 C110.4,52.4 112.1,54.8 112.4,57.6 C113,63.8 109.1,69.4 103,70.7 C102.2,75.1 100.6,79 98.5,82.7" id="Shape"></path>
                <path d="M47.7,4.2 C47.8,4.2 47.9,4.1 48,4.1" id="Shape"></path>
            </g>
            <path d="M111.7,75.1 L105.8,75.1 L105.8,44.8 L111.7,44.8 C116.2,44.8 119.9,48.5 119.9,53 L119.9,66.9 C119.9,71.4 116.2,75.1 111.7,75.1 Z" id="Shape" class="fill-neutral" fill-rule="nonzero"></path>
            <path d="M110.6,75.1 L105.8,75.1 L105.8,49.6 L110.6,49.6 C114.4,49.6 117.4,52.7 117.4,56.4 L117.4,68.2 C117.5,72 114.4,75.1 110.6,75.1 Z" id="Shape" class="fill-primary-400" fill-rule="nonzero"></path>
            <path d="M111.7,75.1 L105.8,75.1 L105.8,44.8 L111.7,44.8 C116.2,44.8 119.9,48.5 119.9,53 L119.9,66.9 C119.9,71.4 116.2,75.1 111.7,75.1 Z" id="Shape" class="stroke-primary" stroke-width="3" stroke-linecap="round" stroke-linejoin="round"></path>
            <path d="M66.2,87.8 L102,87.8 C106.7,87.8 110.5,84 110.5,79.3 L110.5,75" id="Shape" class="stroke-primary" stroke-width="3" stroke-linecap="round" stroke-linejoin="round"></path>
            <path d="M70.8,91.3 L63.3,91.3 C61.9,91.3 60.7,90.1 60.7,88.7 L60.7,87.1 C60.7,85.7 61.9,84.5 63.3,84.5 L70.8,84.5 C72.2,84.5 73.4,85.7 73.4,87.1 L73.4,88.7 C73.4,90.1 72.2,91.3 70.8,91.3 Z" id="Shape" stroke-width="3" class="stroke-primary fill-primary-400" fill-rule="nonzero" stroke-linecap="round" stroke-linejoin="round"></path>
        </g>
    </g>
</svg>