<?xml version="1.0" encoding="UTF-8"?>
<svg width="148px" height="119px" viewBox="0 0 148 119" version="1.1" xmlns="http://www.w3.org/2000/svg" xmlns:xlink="http://www.w3.org/1999/xlink">
    <!-- Generator: Sketch 51.2 (57519) - http://www.bohemiancoding.com/sketch -->
    <title>T-shirt</title>
    <desc>Created with Sketch.</desc>
    <defs></defs>
    <g id="Page-1" stroke="none" stroke-width="1" fill="none" fill-rule="evenodd">
        <g id="T-shirt" transform="translate(1.000000, 1.000000)">
            <path d="M33.4,43.8 C18.7,50.9 18.3,52.1 15.2,48.4 C10.9,43.2 6.6,38 2.2,32.8 C-1.16573418e-13,30.1 0.1,28.4 2.8,26.1 C12,18.4 21.2,10.7 30.4,3 C32.1,1.6 33.8,0.9 36,0.9 C57.6,1.2 58.8,-0.6 59.4,5.8 C60.2,13.1 66,18.1 73.4,18 C80.1,17.9 85.5,12.5 86.1,5.5 C86.4,2.2 87.4,1.1 90.7,1 C97.4,0.9 104.1,0.9 110.7,1 C112,1 113.5,1.7 114.5,2.5 C124,10.3 133.5,18.2 142.9,26.2 C145.5,28.4 145.6,30.1 143.5,32.7 C139.1,38 134.8,43.2 130.4,48.5 C127.5,52 126.9,50.8 112.2,43.7 C112.2,70.7 112.2,89.5 112.2,110.1 C112.2,114.9 111.2,115.9 106.3,115.9 C83.9,115.9 61.5,115.9 39,115.9 C34.3,115.9 33.2,114.9 33.2,110.2 C33.4,89.5 33.4,70.6 33.4,43.8 Z" id="Shape" class="fill-neutral" fill-rule="nonzero"></path>
            <path d="M114.4,5.8 C113.4,5 112,4.4 110.8,4.4 C104.4,4.3 100.4,4.3 94.1,4.4 C91,4.4 90,5.5 89.7,8.6 C89.2,15.3 81.7,21.8 73.5,21.8 C66.1,21.8 57.4,16.8 56.7,9.9 C56.3,6.2 55.2,5.3 51.5,5.3 C45.8,5.3 42.7,5.3 37,5.3 C34.9,5.3 33.2,5.9 31.6,7.3 C22.9,14.7 16.8,20.1 8.1,27.4 C5.5,29.5 5.4,31.2 7.5,33.7 C11.6,38.6 14.8,43.6 18.9,48.5 C19.7,49.5 20.4,50.1 21.2,50.3 C21.4,50.2 21.6,50.1 21.9,50 C25.8,48.1 32.5,46.2 36.8,44.1 L36.8,107.6 C36.8,112.3 37.8,113.3 42.5,113.3 L106.7,113.3 C111.6,113.3 112.6,112.3 112.6,107.5 L112.6,44.1 C114,44.8 115.4,45.5 116.8,46.1 L116.8,44.9 C118,45.5 119,46.4 119.9,47.6 C126.2,50.7 127.9,52.2 130.7,48.8 C145,31.7 144.8,32.1 145.1,30.7 C135.8,23.2 122.3,12.4 114.4,5.8 Z" id="Shape" class="fill-primary-100" fill-rule="nonzero"></path>
            <path d="M112.5,93.3 L112.5,107.5 C112.5,112.3 111.5,113.3 106.6,113.3 L42.4,113.3 C37.7,113.3 36.7,112.3 36.7,107.6 L36.7,98.3 C36.7,95.6 38.9,93.4 41.6,93.4 L112.5,93.4 L112.5,93.3 Z" id="Shape" class="fill-primary-200" fill-rule="nonzero"></path>
            <path d="M33.4,76.7 C33.4,66.8 33.4,56.8 33.4,46.9 C33.4,46 33.4,45.2 33.4,43.8 C29,45.9 25.1,47.8 21.2,49.7 C18.4,51 17.1,50.7 15.2,48.4 C10.9,43.2 6.6,38 2.2,32.8 C-1.13020704e-13,30.1 0.1,28.4 2.8,26.1 C12,18.4 21.2,10.7 30.4,3 C32.1,1.6 33.8,0.9 36,0.9 C36.5,0.9 36.9,0.9 37.4,0.9 M33.4,98.5 C33.4,94.6 33.4,90.7 33.4,86.7 M51.2,1.1 C52.2,1.1 53.2,1.1 54.3,1.1 C58.2,1.1 59.2,2.1 59.6,5.9 C60.4,13.2 66.2,18.2 73.6,18.1 C80.3,18 85.7,12.6 86.3,5.6 C86.6,2.3 87.6,1.2 90.9,1.1 C97.6,1 104.3,1 110.9,1.1 C112.2,1.1 113.7,1.8 114.7,2.6 C124.2,10.4 133.7,18.3 143.1,26.3 C145.7,28.5 145.8,30.2 143.7,32.8 C139.3,38.1 135,43.3 130.6,48.6 C128.9,50.7 127.4,51 125,49.9 C120.9,48 116.9,46 112.4,43.8 C112.4,45.2 112.4,46.1 112.4,47 C112.4,68.1 112.4,89.1 112.4,110.2 C112.4,115 111.4,116 106.5,116 C84.1,116 61.7,116 39.2,116 C34.5,116 33.4,115 33.4,110.3 C33.4,109.2 33.4,108.2 33.4,107.1 M42.5,1.1 C42.6,1.1 42.7,1.1 42.8,1.1" id="Shape" class="stroke-primary" stroke-width="3" stroke-linecap="round" stroke-linejoin="round"></path>
            <path d="M103.3,39.2 L104.9,39.2" id="Shape" class="stroke-neutral" stroke-width="3" stroke-linecap="round" stroke-linejoin="round"></path>
            <path d="M83.7,39.2 L99.1,39.2" id="Shape" class="stroke-neutral" stroke-width="3" stroke-linecap="round" stroke-linejoin="round"></path>
            <path d="M103.3,37.4 L104.9,37.4" id="Shape" class="stroke-primary" stroke-width="3" stroke-linecap="round" stroke-linejoin="round"></path>
            <path d="M83.7,37.4 L99.1,37.4" id="Shape" class="stroke-primary" stroke-width="3" stroke-linecap="round" stroke-linejoin="round"></path>
            <path d="M134.8,31.7 L136.5,29.6" id="Shape" class="stroke-primary" stroke-width="3" stroke-linecap="round" stroke-linejoin="round"></path>
            <path d="M121.7,48.2 L131.7,35.5" id="Shape" class="stroke-primary" stroke-width="3" stroke-linecap="round" stroke-linejoin="round"></path>
            <path d="M24.2,48.1 L12.1,31.5" id="Shape" class="stroke-primary" stroke-width="3" stroke-linecap="round" stroke-linejoin="round"></path>
        </g>
    </g>
</svg>