<?xml version="1.0" encoding="UTF-8"?>
<svg width="143px" height="150px" viewBox="0 0 143 150" version="1.1" xmlns="http://www.w3.org/2000/svg" xmlns:xlink="http://www.w3.org/1999/xlink">
    <!-- Generator: Sketch 51.2 (57519) - http://www.bohemiancoding.com/sketch -->
    <title>Tea</title>
    <desc>Created with Sketch.</desc>
    <defs></defs>
    <g id="Page-1" stroke="none" stroke-width="1" fill="none" fill-rule="evenodd">
        <g id="Tea" transform="translate(1.000000, 1.000000)">
            <g id="Group" transform="translate(0.000000, 147.000000)" class="stroke-primary-300" stroke-linecap="round" stroke-linejoin="round" stroke-width="2.1353">
                <path d="M1.7,0.2 L0.8,0.2" id="Shape"></path>
                <path d="M26.4,0.2 L5.2,0.2" id="Shape"></path>
                <path d="M31,0.2 L30.1,0.2" id="Shape"></path>
                <path d="M101.2,0.2 L35.6,0.2" id="Shape"></path>
                <path d="M131.9,0.2 L104.9,0.2" id="Shape"></path>
                <path d="M136.6,0.2 L135.3,0.2" id="Shape"></path>
                <path d="M140.7,0.2 L140.4,0.2" id="Shape"></path>
            </g>
            <path d="M113.1,120.9 C103.4,120.9 95.5,113 95.5,103.3 C95.5,93.6 103.4,85.7 113.1,85.7 C122.8,85.7 130.7,93.6 130.7,103.3 C130.7,113 122.8,120.9 113.1,120.9 Z M113.1,93.9 C107.9,93.9 103.6,98.1 103.6,103.4 C103.6,108.7 107.8,112.9 113.1,112.9 C118.4,112.9 122.6,108.7 122.6,103.4 C122.6,98.1 118.3,93.9 113.1,93.9 Z" id="Shape" class="fill-neutral" fill-rule="nonzero"></path>
            <path d="M111.9,120.9 C102.9,120.9 95.5,113.6 95.5,104.5 C95.5,95.4 102.8,88.1 111.9,88.1 C121,88.1 128.3,95.4 128.3,104.5 C128.3,113.6 120.9,120.9 111.9,120.9 Z M113.1,93.9 C107.9,93.9 103.6,98.1 103.6,103.4 C103.6,108.7 107.8,112.9 113.1,112.9 C118.4,112.9 122.6,108.7 122.6,103.4 C122.6,98.1 118.3,93.9 113.1,93.9 Z" id="Shape" fill="#9CCBFF" fill-rule="nonzero"></path>
            <path d="M113.1,120.9 C103.4,120.9 95.5,113 95.5,103.3 C95.5,93.6 103.4,85.7 113.1,85.7 C122.8,85.7 130.7,93.6 130.7,103.3 C130.7,113 122.8,120.9 113.1,120.9 Z M113.1,93.9 C107.9,93.9 103.6,98.1 103.6,103.4 C103.6,108.7 107.8,112.9 113.1,112.9 C118.4,112.9 122.6,108.7 122.6,103.4 C122.6,98.1 118.3,93.9 113.1,93.9 Z" id="Shape" class="stroke-primary" stroke-width="2.1353" stroke-linecap="round" stroke-linejoin="round"></path>
            <path d="M113.1,84.5 L113.1,115.3 C113.1,132.5 99.2,146.5 81.9,146.5 L61.1,146.5 C43.9,146.5 29.9,132.6 29.9,115.3 L29.9,84.5 C29.9,80.6 33.1,77.5 36.9,77.5 L105.9,77.5 C109.9,77.4 113.1,80.6 113.1,84.5 Z" id="Shape" class="fill-neutral" fill-rule="nonzero"></path>
            <path d="M113.1,88.1 L113.1,117.1 C113.1,119.3 112.9,121.4 112.4,123.4 C109.5,136.6 97.9,146.4 83.9,146.4 L64.4,146.4 C55.7,146.4 47.9,142.5 42.5,136.4 C40.6,134.2 38.9,131.7 37.7,128.9 C36.1,125.3 35.2,121.2 35.2,117 L35.2,88 C35.2,84.3 38.2,81.4 41.8,81.4 L106.4,81.4 C110.1,81.5 113.1,84.5 113.1,88.1 Z" id="Shape" class="fill-primary-100" fill-rule="nonzero"></path>
            <path d="M105,137.2 C99.6,142.9 91.9,146.4 83.3,146.4 L64.4,146.4 C55.7,146.4 47.9,142.5 42.5,136.4 C42.6,134.5 44.4,132.9 46.6,133.4 C51,134.6 55.9,135.2 61.2,135.2 L82,135.2 C89.3,135.2 96.1,133.9 101.4,131.8 C104.7,130.7 107.4,134.7 105,137.2 Z" id="Shape" fill="#C4E0FF" fill-rule="nonzero"></path>
            <path d="M113.1,84.5 L113.1,115.3 C113.1,132.5 99.2,146.5 81.9,146.5 L61.1,146.5 C43.9,146.5 29.9,132.6 29.9,115.3 L29.9,84.5 C29.9,80.6 33.1,77.5 36.9,77.5 L105.9,77.5 C109.9,77.4 113.1,80.6 113.1,84.5 Z" id="Shape" class="stroke-primary" stroke-width="2.1353" stroke-linecap="round" stroke-linejoin="round"></path>
            <path d="M98.7,107.9 L98.7,122.3 C98.7,123.9 97.3,125.1 95.7,125.1 L81.8,125.1 C80.1,125.1 78.8,123.8 78.8,122.3 L78.8,107.9 C78.8,107.1 79.1,106.4 79.7,105.8 L83.2,102.2 C83.8,101.5 84.8,101.2 85.7,101.2 L91.9,101.2 C92.9,101.2 93.8,101.6 94.4,102.2 L97.9,105.8 C98.4,106.3 98.7,107.1 98.7,107.9 Z" id="Shape" fill="#9CCBFF" fill-rule="nonzero"></path>
            <path d="M95.6,105.2 L95.6,118.4 C95.6,119.8 94.5,121 93,121 L81.3,121 C79.9,121 78.7,119.9 78.7,118.4 L78.7,105.2 C78.7,104.5 79,103.8 79.4,103.3 L82.3,100.1 C82.8,99.5 83.6,99.1 84.4,99.1 L89.6,99.1 C90.4,99.1 91.2,99.4 91.7,100.1 L94.6,103.3 C95.3,103.8 95.6,104.5 95.6,105.2 Z" id="Shape" class="fill-neutral" fill-rule="nonzero"></path>
            <path d="M95.6,105.2 L95.6,118.4 C95.6,119.8 94.5,121 93,121 L81.3,121 C79.9,121 78.7,119.9 78.7,118.4 L78.7,105.2 C78.7,104.5 79,103.8 79.4,103.3 L82.3,100.1 C82.8,99.5 83.6,99.1 84.4,99.1 L89.6,99.1 C90.4,99.1 91.2,99.4 91.7,100.1 L94.6,103.3 C95.3,103.8 95.6,104.5 95.6,105.2 Z" id="Shape" class="stroke-primary" stroke-width="2.1353" stroke-linecap="round" stroke-linejoin="round"></path>
            <path d="M87.4,98.3 L87.4,77.8" id="Shape" class="stroke-primary" stroke-width="2.1353" stroke-linecap="round" stroke-linejoin="round"></path>
            <g id="Group" transform="translate(46.000000, 77.000000)" class="fill-neutral" fill-rule="nonzero">
                <path d="M5.4,25.4 C2.6,25.4 0.4,27.7 0.4,30.4 C0.4,33.2 2.7,35.4 5.4,35.4 C8.2,35.4 10.4,33.1 10.4,30.4 C10.5,27.6 8.2,25.4 5.4,25.4 Z" id="Shape"></path>
                <path d="M30.6,0.4 L30.6,9.5 C30.6,12.3 28.3,14.5 25.6,14.5 C22.8,14.5 20.6,12.2 20.6,9.5 L20.6,8.4 C20.6,7 20,5.8 19.1,4.8 C18.2,3.9 16.9,3.3 15.5,3.3 C12.7,3.3 10.5,5.6 10.5,8.3 L10.5,15.8 C10.5,17.2 9.9,18.4 9,19.4 C8.1,20.3 6.8,20.9 5.4,20.9 C2.6,20.9 0.4,18.6 0.4,15.9 L0.4,0.5 L30.6,0.5 L30.6,0.4 Z" id="Shape"></path>
            </g>
            <g id="Group" transform="translate(47.000000, 78.000000)" class="fill-primary-500" fill-rule="nonzero">
                <path d="M5,25.4 C2.5,25.4 0.5,27.4 0.5,29.9 C0.5,32.4 2.5,34.4 5,34.4 C7.5,34.4 9.5,32.4 9.5,29.9 C9.5,27.4 7.4,25.4 5,25.4 Z" id="Shape"></path>
                <path d="M29.6,2.9 L29.6,8.4 C29.6,11.2 27.3,13.6 24.5,13.6 C21.8,13.5 19.6,11.3 19.6,8.6 L19.6,7.5 C19.6,6.1 19,4.9 18.1,3.9 C17.2,3 15.9,2.4 14.5,2.4 C11.7,2.4 9.5,4.8 9.5,7.6 L9.5,14.9 C9.5,16.3 8.9,17.5 8,18.5 C7.1,19.4 7.3,20 5.9,20 C3.2,20 0.9,17.7 0.9,14.9 L0.9,3.4 C0.9,2.1 2,1 3.3,1 L27.6,1 C28.7,0.9 29.6,1.8 29.6,2.9 Z" id="Shape"></path>
            </g>
            <g id="Group" transform="translate(46.000000, 77.000000)" class="stroke-primary" stroke-linecap="round" stroke-linejoin="round" stroke-width="2.1353">
                <path d="M5.4,25.4 C2.6,25.4 0.4,27.7 0.4,30.4 C0.4,33.2 2.7,35.4 5.4,35.4 C8.2,35.4 10.4,33.1 10.4,30.4 C10.5,27.6 8.2,25.4 5.4,25.4 Z" id="Shape"></path>
                <path d="M30.6,0.4 L30.6,9.5 C30.6,12.3 28.3,14.5 25.6,14.5 C22.8,14.5 20.6,12.2 20.6,9.5 L20.6,8.4 C20.6,7 20,5.8 19.1,4.8 C18.2,3.9 16.9,3.3 15.5,3.3 C12.7,3.3 10.5,5.6 10.5,8.3 L10.5,15.8 C10.5,17.2 9.9,18.4 9,19.4 C8.1,20.3 6.8,20.9 5.4,20.9 C2.6,20.9 0.4,18.6 0.4,15.9 L0.4,0.5 L30.6,0.5 L30.6,0.4 Z" id="Shape"></path>
            </g>
            <path d="M75.4,52.2 C77,57.1 76.2,63.6 71.6,65.9" id="Shape" class="stroke-primary-300" stroke-width="2.1353" stroke-linecap="round" stroke-linejoin="round"></path>
            <path d="M64.9,33 C57.4,44.6 69,49.2 68,56.9" id="Shape" class="stroke-primary-300" stroke-width="2.1353" stroke-linecap="round" stroke-linejoin="round"></path>
            <path d="M66.3,15.8 C67.9,16.7 68.3,19.4 65.9,21.3 C60.2,25.9 51.4,18.4 56,9.1 C60.3,0.5 72.7,-2.2 82.1,5.4 C87.7,10 88.4,18.4 84.6,24.4 C80.3,31.1 68.7,34.7 72.8,45.1" id="Shape" class="stroke-primary-300" stroke-width="2.1353" stroke-linecap="round" stroke-linejoin="round"></path>
        </g>
    </g>
</svg>