<?xml version="1.0" encoding="UTF-8"?>
<svg width="128px" height="148px" viewBox="0 0 128 148" version="1.1" xmlns="http://www.w3.org/2000/svg" xmlns:xlink="http://www.w3.org/1999/xlink">
    <!-- Generator: Sketch 51.2 (57519) - http://www.bohemiancoding.com/sketch -->
    <title>User_female</title>
    <desc>Created with Sketch.</desc>
    <defs></defs>
    <g id="Page-1" stroke="none" stroke-width="1" fill="none" fill-rule="evenodd">
        <g id="User_female" transform="translate(1.000000, 1.000000)">
            <path d="M0.7,144.6 C0.7,144.6 113,144.6 124.8,144.6 C124.8,128.6 113.1,105.1 89.2,105 C77.2,105 76.1,104.3 76.1,104.3 L76.1,90.4 C84.9,83.1 92.3,74.6 94.4,63.6 C99.9,62.4 103.4,57.4 102.8,51.8 C102.6,49.3 101,47.1 101,44.6 C100.9,37.6 100.9,31.1 96.3,22.4 C89.4,9.4 75.8,0.8 60.3,0.8 C57.2,0.8 54.1,1.2 51.1,1.9 C44.6,3.4 38.4,6.6 33.4,11 C28.2,15.6 24.2,21.6 22.1,28.2 C19.9,34.9 19.5,41.9 20.4,48.7 C20.6,49.9 20.9,49.7 20.1,50.8 C18.7,52.6 17.3,55.7 18.6,59.5 C20.7,65.3 24.8,64.6 28.6,67.9 C28.4,68 28.2,68.2 28,68.3 L23.5,69.7 C-2.3,77.8 -5.2,105.3 21.3,110.4 L16.8,111.6 C6.6,119.4 0.7,133.2 0.7,144.6 Z" id="Shape" class="fill-neutral" fill-rule="nonzero"></path>
            <path d="M35,81.2 L35.3,80.1 L37.6,81.9 L49.5,91.7 L49.3,94.5 L49.1,98.2 L48.7,104.5 L48.7,104.8 C48.7,104.8 46.9,104.6 36.5,96.9 C26.2,89.2 32.7,84 35,81.2 Z M114.4,116.9 C114.3,116.8 114.3,116.8 114.2,116.7 C113,115.3 111.7,113.9 110.2,112.8 C110,112.6 109.8,112.5 109.6,112.3 C109.5,112.3 109.5,112.2 109.5,112.2 C107.3,110.5 104.9,109.2 102,108.1 C98.4,106.8 94.2,106 89.3,105.9 C78.1,105.8 75.7,106.2 75.7,106.2 L75.7,93 L75.9,92.8 C77.2,91.7 78.4,90.7 79.5,89.5 C84.9,84.3 89.4,78.4 91.7,71.4 C91.7,71.4 91.7,71.4 91.7,71.3 C92.1,70.1 92.4,68.8 92.7,67.5 C92.9,67.5 93.1,67.4 93.3,67.3 C96.9,66.3 99.6,63.3 100.4,59.7 C100.7,58.6 100.7,57.4 100.6,56.3 C100.4,53.9 98.9,51.9 98.9,49.4 C98.9,46 98.8,42.8 98.2,39.3 C97.6,35.9 96.6,32.4 94.5,28.3 C88.1,15.9 75.4,7.8 61,7.8 C58.1,7.8 55.2,8.1 52.4,8.8 C46.3,10.3 40.6,13.2 35.9,17.5 C31,21.9 27.4,27.6 25.3,33.9 C23.7,38.8 23.1,43.8 23.3,48.8 C23.4,50.3 23.5,51.9 23.7,53.4 C23.8,54.5 24.2,54.4 23.4,55.4 C22.1,57.2 20.8,60.1 22,63.7 C22.1,64 22.2,64.2 22.3,64.5 C22.4,64.8 22.6,65.1 22.7,65.4 C23.7,67.2 24.9,68.1 26.3,68.8 C27.5,69.4 28.8,69.9 30,70.8 C30.4,71.1 30.8,71.4 31.3,71.8 C31.1,71.9 31,72 30.8,72.1 C30.8,72.1 30.7,72.2 30.7,72.2 L26.5,73.5 C5.8,80.2 0.9,100.5 15.8,109.1 C15.8,109.1 15.8,109.1 15.8,109.1 C16.7,109.6 17.6,110 18.6,110.4 C18.9,110.5 19.3,110.7 19.7,110.8 C21.2,111.3 22.8,111.8 24.5,112.1 L20.3,113.2 C14.4,117.9 10,124.8 7.6,131.9 C5.5,138.2 10.1,144.7 16.8,144.7 L122.8,144.7 C123,136.1 121,125 114.4,116.9 Z" id="Shape" class="fill-primary-100" fill-rule="nonzero"></path>
            <path d="M47.4,129.7 C35.8,133 38,130.6 38,130.6 C38,130.6 43.1,121.8 38.2,116.4 C34.7,112.6 27.2,111.5 18.9,110.2 C0.7,102.7 4.9,80.3 26.8,73.3 L31,72 C31,72 31.1,71.9 31.1,71.9 C33,75 35.4,78.7 37.6,81.9 L35.3,80.1 L35,81.2 C32.7,84 26.3,89.1 36.6,96.9 C46.9,104.6 48.8,104.8 48.8,104.8 L48.8,104.5 L53.2,111.4 C53.1,111.5 58.9,126.4 47.4,129.7 Z" id="Shape" class="fill-primary-400" fill-rule="nonzero"></path>
            <path d="M42.2,26.5 C40.8,38.6 32.7,42.2 23.4,48.9 C23.2,43.9 23.8,38.8 25.4,34 C27.4,27.7 31.1,22 36,17.6 C40.7,13.4 46.4,10.4 52.5,8.9 C55.3,8.2 58.2,7.9 61.1,7.9 C75.5,7.9 88.2,16.1 94.6,28.4 C96.7,32.4 97.8,36 98.3,39.4 C78.3,49.2 51.4,35.4 42.3,22 C42.5,23.7 42.4,25.1 42.2,26.5" id="Shape" class="fill-primary-400" fill-rule="nonzero"></path>
            <path d="M112.9,144.6 C115.7,132.2 110.5,120 102.7,108.1 C119.3,114.2 123.6,132.1 123.6,144.6 L112.9,144.6 Z" id="Shape" fill="#BAD8FF" fill-rule="nonzero"></path>
            <path d="M76.4,92.6 L76.4,100.3 C76.3,100.3 76.2,100.4 76.1,100.4 C76,100.4 75.9,100.5 75.8,100.5 C62,105.9 54.8,103 49.6,98.3 L49.8,94.6 C52.9,95.8 57.2,97.5 60.3,98.2 C65.5,99.5 73.4,94.4 73.4,94.4 C75.4,93.5 74.9,93.7 76.4,92.6 Z" id="Shape" fill="#BAD8FF" fill-rule="nonzero"></path>
            <g id="Group" class="stroke-primary" stroke-linecap="round" stroke-linejoin="round" stroke-width="3">
                <path d="M35.2,11.3 L42.4,22 C51.6,35.6 79.2,49.6 99.2,38.9 L100.4,38.3" id="Shape"></path>
                <path d="M21.1,50.2 L22.8,49.3 C30.8,43.4 38,40 41,31.8" id="Shape"></path>
                <path d="M3.2,88.4 C1.6,95.2 4.1,102.2 11.5,106.8 C17.9,110.8 25.1,110.4 32.1,112.4 C35.1,113.2 38.1,114.6 39.3,117.6 C41.1,122 38.9,127.5 37.2,131.5 C67.4,130 52.5,105.5 44.4,100.1 C36,94.5 23.8,89.9 36.6,80.3" id="Shape"></path>
                <path d="M27.9,68.3 L23.4,69.7 C18.8,71.1 15,73.2 11.8,75.7" id="Shape"></path>
                <path d="M124.8,144.6 C124.8,127.4 111.6,105 90.3,105 C77.2,105 76,104.3 76,104.3 L76,99.4" id="Shape"></path>
                <path d="M49.5,104.3 L49.5,92.6" id="Shape"></path>
                <path d="M0.7,144.6 C0.7,133.1 6.5,119.4 16.7,111.5 L18.1,110.4" id="Shape"></path>
                <path d="M74,92 C68.6,95.9 62,98.2 55.4,95.5 C51.5,93.9 48.3,91.1 44.9,88.7 C35.5,82.2 33.8,74.2 30.1,69.4 C26.3,64.5 20.9,66.1 18.5,59.5 C17.2,55.7 18.6,52.7 20,50.8 C20.8,49.7 20.5,49.9 20.3,48.7 C19.4,41.8 19.8,34.8 22,28.2 C24.2,21.6 28.1,15.6 33.3,11 C34.8,9.7 36.5,8.4 38.2,7.3" id="Shape"></path>
                <path d="M51.8,1.8 C54.6,1.2 57.5,0.9 60.3,0.9 C75.7,0.9 89.4,9.5 96.3,22.5 C100.9,31.1 100.9,37.7 101,44.7 C101,47.3 102.6,49.4 102.8,51.9 C103.3,57.4 99.8,62.5 94.4,63.7 C92.7,72.4 87.9,79.4 81.6,85.5 C81.4,85.7 81.3,85.8 81.1,86" id="Shape"></path>
                <path d="M44.8,4 C44.9,4 45,3.9 45.1,3.9" id="Shape"></path>
            </g>
        </g>
    </g>
</svg>