<?xml version="1.0" encoding="UTF-8"?>
<svg width="150px" height="145px" viewBox="0 0 150 145" version="1.1" xmlns="http://www.w3.org/2000/svg" xmlns:xlink="http://www.w3.org/1999/xlink">
    <!-- Generator: Sketch 51.2 (57519) - http://www.bohemiancoding.com/sketch -->
    <title>Vegan</title>
    <desc>Created with Sketch.</desc>
    <defs></defs>
    <g id="Page-1" stroke="none" stroke-width="1" fill="none" fill-rule="evenodd">
        <g id="Vegan" transform="translate(2.000000, 2.000000)">
            <path d="M117.6,20.7 L117.6,13.5 C117.6,5.5 110.7,-0.7 102.7,0.1 L11.1,9.5 C5,10.1 0.3,15.3 0.3,21.4 C0.3,27.5 4.9,32.7 11.1,33.3 L102.7,42.7 C106.7,43.1 110.4,41.7 113.1,39.3" id="Shape" class="fill-neutral" fill-rule="nonzero"></path>
            <path d="M117.6,19.1 L117.6,25 L117.5,34 C117.5,37.2 113.3,40.1 113.3,40.1 C110.7,42.1 107.1,43.2 103.2,42.9 L14.4,35.3 C11.4,35 8.8,33.9 7,32.1 C5.1,30.4 4,28.1 4,25.6 C4,25.2 4,24.9 4.1,24.6 C4.7,20.1 8.9,16.5 14.4,16 L103.2,8.4 C108.7,7.9 113.8,10.4 116.1,14.3 C117.1,15.6 117.6,17.3 117.6,19.1 Z" id="Shape" fill="#BAD8FF" fill-rule="nonzero"></path>
            <path d="M116.6,22.8 C116.8,26 112.7,29.1 112.7,29.1 C110.2,31.2 106.6,32.5 102.7,32.4 L13.7,29.4 C10.7,29.3 8.1,28.3 6.1,26.6 C5.3,25.9 4.6,25.2 4.1,24.4 C4.7,19.9 8.9,16.3 14.4,15.8 L103.2,8.2 C108.7,7.7 113.8,10.2 116.1,14.1 L116.6,22.8 Z" id="Shape" class="fill-primary-100" fill-rule="nonzero"></path>
            <path d="M17.1,8.9 L11.1,9.5 C5,10.1 0.3,15.3 0.3,21.4 C0.3,27.5 4.9,32.7 11.1,33.3 L102.7,42.7 C106.7,43.1 110.4,41.7 113.1,39.3" id="Shape" class="stroke-primary" stroke-width="3" stroke-linecap="round" stroke-linejoin="round"></path>
            <path d="M25.1,8.1 L24.9,8.1" id="Shape" class="stroke-primary" stroke-width="3" stroke-linecap="round" stroke-linejoin="round"></path>
            <path d="M117.6,20.7 L117.6,13.5 C117.6,5.5 110.7,-0.7 102.7,0.1 L32.7,7.3" id="Shape" class="stroke-primary" stroke-width="3" stroke-linecap="round" stroke-linejoin="round"></path>
            <path d="M51.4,6.8 L51.4,18.4" id="Shape" class="stroke-primary" stroke-width="3" stroke-linecap="round" stroke-linejoin="round"></path>
            <path d="M25.9,20.5 L25.9,32.1" id="Shape" class="stroke-primary" stroke-width="3" stroke-linecap="round" stroke-linejoin="round"></path>
            <path d="M70.6,25.6 L70.6,37.2" id="Shape" class="stroke-primary" stroke-width="3" stroke-linecap="round" stroke-linejoin="round"></path>
            <path d="M88,2.1 L88,13.7" id="Shape" class="stroke-primary" stroke-width="3" stroke-linecap="round" stroke-linejoin="round"></path>
            <path d="M117.5,21.4 C128.2,21.5 146.4,21.1 146.4,21.1" id="Shape" class="stroke-primary" stroke-width="3" stroke-linecap="round" stroke-linejoin="round"></path>
            <path d="M133.3,19.3 L137,3.7" id="Shape" class="stroke-primary" stroke-width="3" stroke-linecap="round" stroke-linejoin="round"></path>
            <path d="M131.9,22.3 L138.8,35" id="Shape" class="stroke-primary" stroke-width="3" stroke-linecap="round" stroke-linejoin="round"></path>
            <path d="M74.5,75.5 C72.3,76.7 69.8,77.4 67.1,77.4 L64.4,77.4 C55.7,77.4 48.7,70.4 48.7,61.7 L48.7,37.2" id="Shape" class="stroke-primary" stroke-width="3" stroke-linecap="round" stroke-linejoin="round"></path>
            <path d="M82.8,40.7 L82.8,61.6 C82.8,64.3 82.1,66.8 80.9,69.1" id="Shape" class="stroke-primary" stroke-width="3" stroke-linecap="round" stroke-linejoin="round"></path>
            <path d="M65.7,39 L65.7,141.3" id="Shape" class="stroke-primary" stroke-width="3" stroke-linecap="round" stroke-linejoin="round"></path>
        </g>
    </g>
</svg>