<?xml version="1.0" encoding="UTF-8"?>
<svg width="115px" height="143px" viewBox="0 0 115 143" version="1.1" xmlns="http://www.w3.org/2000/svg" xmlns:xlink="http://www.w3.org/1999/xlink">
    <!-- Generator: Sketch 51.2 (57519) - http://www.bohemiancoding.com/sketch -->
    <title>VR</title>
    <desc>Created with Sketch.</desc>
    <defs></defs>
    <g id="Page-1" stroke="none" stroke-width="1" fill="none" fill-rule="evenodd">
        <g id="VR" transform="translate(1.000000, 2.000000)">
            <path d="M111.9,60.2 L111.9,87 C111.9,92.3 108.2,95 103.9,95 L102.5,95 C102.3,96.3 102.1,97.5 101.7,98.8 C101.6,99.3 101.4,99.7 101.2,100 C99.6,103.1 95.6,102.2 95.6,102.2 L95.7,101.7 C94.9,102.1 95.4,101.9 94.7,102.2 C92.9,112.8 88.3,115.4 65.5,135.9 C60.3,140 53,139.9 48,135.6 L26.4,120.4 C21.3,116.1 18,109.9 17.4,103.2 L17.7,103.2 C16.8,102.7 15.9,102.2 15,101.6 L15,102.1 C15,102.1 10.1,103.2 9,98.7 C8.9,98.2 8.8,97.8 8.7,97.3 C8.5,96.5 8.4,95.7 8.3,94.9 C8,94.9 7.6,94.8 7.3,94.8 C7.1,94.1 7,93.4 7,92.7 L7,66 C7,60.6 11.6,56.2 17.3,56.2 L103.6,56.2 C107,56.1 110,57.7 111.9,60.2 Z" id="Shape" class="fill-neutral" fill-rule="nonzero"></path>
            <path d="M111.9,60.2 L111.9,87 C111.9,92.3 108.2,95 103.9,95 L102.5,95 C102.3,96.3 102.1,97.5 101.7,98.8 C101.6,99.3 101.4,99.7 101.2,100 L79,100 C75.7,100 72.7,98.4 70.9,95.8 L64.2,86 C63.6,85.2 62.8,84.6 62,84.2 C59.9,81.6 55.7,81.7 53.8,84.7 L46.9,95.4 C45.1,98.3 41.9,100 38.5,100 L14.4,100 C12,100 9.9,99 8.5,97.4 C7.9,96.7 7.4,95.8 7.1,94.9 C6.9,94.2 6.8,93.5 6.8,92.8 L6.8,66 C6.8,60.6 11.4,56.2 17.1,56.2 L103.4,56.2 C107,56.1 110,57.7 111.9,60.2 Z" id="Shape" class="fill-primary-100" fill-rule="nonzero"></path>
            <g id="Group">
                <g transform="translate(4.000000, 0.000000)" id="Shape">
                    <path d="M8.6,72.5 C-6.2,40.5 0.7,20.5 14.4,13.5 C9.9,3.7 9.6,0.2 9.6,0.2 C9.6,0.2 38.3,5 48.2,3.1 C60.7,0.6 80,3.6 87.2,20.2 C97.1,24.1 115,34.5 98.2,70.8" class="fill-neutral" fill-rule="nonzero"></path>
                    <path d="M96.7,68.6 C94.3,66.6 92.1,64.4 90.3,61.9 C87.6,58.2 85.4,54 81.9,51 C75.8,45.8 67.2,45.5 59.2,45.4 C46.8,45.2 34.3,45 21.9,44.9 C21.3,52.7 19.8,60.8 15.5,67.3 C15,68 14.5,68.7 14,69.4 C3,42.5 9.4,30.9 21.5,24.6 C17.3,15.4 17.1,12.1 17.1,12.1 C17.1,12.1 43.8,16.6 53,14.8 C64.7,12.5 82.6,15.3 89.3,30.9 C95.5,33.4 99.6,36.8 102.2,40.6 C103.6,50.7 99.3,61.7 96.7,68.6 Z" class="fill-primary-100" fill-rule="nonzero"></path>
                    <g transform="translate(2.000000, 40.000000)" class="stroke-primary" stroke-linecap="round" stroke-linejoin="round" stroke-width="3">
                        <path d="M14.6,27.9 C14.5,28 14.4,28.1 14.3,28.3"></path>
                        <path d="M92.7,32.7 C93,31.7 93.2,29.2 93,27.1 C93,27.1 92.4,5.8 62.5,4.7 C32.6,3.6 29.8,8.9 20.6,0.3 C23.5,4.7 22.7,12.6 19.3,20.1"></path>
                        <path d="M84.6,72.5 C87,68.9 88.6,64.8 89,60.4"></path>
                        <path d="M11.4,63.3 C12.1,70 15.3,76.1 20.4,80.5 L42,95.7 C47,100 54.4,100.1 59.5,96 L79.4,78.1"></path>
                        <path d="M5.8,32.9 C1.4,34.3 -0.2,34.3 0.7,41.8 C1.6,49.4 1.9,54.2 3,58.7 C4.2,63.3 9,62.1 9,62.1"></path>
                        <path d="M92.9,32.9 C97.3,34.3 98.9,34.3 98,41.8 C97.1,49.4 96.8,54.2 95.7,58.7 C94.5,63.3 89.7,62.1 89.7,62.1"></path>
                    </g>
                    <path d="M8.6,72.5 C-6.2,40.5 0.7,20.5 14.4,13.5 C9.9,3.7 9.6,0.2 9.6,0.2 C9.6,0.2 38.3,5 48.2,3.1 C60.7,0.6 80,3.6 87.2,20.2 C97.1,24.1 115,34.5 98.2,70.8" class="stroke-primary" stroke-width="3" stroke-linecap="round" stroke-linejoin="round"></path>
                </g>
                <path d="M111.9,57.8 L111.9,86.9 C111.9,91.3 108.3,94.9 103.9,94.9 L75.8,94.9 C72.4,94.9 69.3,93.2 67.4,90.3 L60.5,79.6 C58.5,76.5 53.9,76.5 51.9,79.6 L45,90.3 C43.2,93.2 40,94.9 36.6,94.9 L8.8,94.9 C4.4,94.9 0.8,91.3 0.8,86.9 L0.8,57.8 C0.8,51.9 5.6,47.1 11.5,47.1 L101.1,47.1 C107.1,47.1 111.9,51.9 111.9,57.8 Z" id="Shape" class="fill-neutral" fill-rule="nonzero"></path>
                <path d="M111.9,61 L111.9,87.7 C111.9,91.7 108.5,95 104.3,95 C104.3,95 104.2,95 104.2,95 L77.1,95 C73.8,95 70.8,93.4 69,90.8 L62.3,81 C61.7,80.2 60.9,79.6 60.1,79.2 C58,76.6 53.8,76.7 51.9,79.7 L45,90.4 C43.2,93.3 40,95 36.6,95 L12.5,95 C8.2,95 4.8,91.7 4.8,87.7 L4.8,61 C4.8,55.6 9.4,51.2 15.1,51.2 L101.4,51.2 C107.3,51.1 111.9,55.5 111.9,61 Z" id="Shape" class="fill-primary-400" fill-rule="nonzero"></path>
                <path d="M111.9,57.8 L111.9,86.9 C111.9,91.2 108.5,94.7 104.3,94.9 C104.2,94.9 104,94.9 103.9,94.9 L75.8,94.9 C72.4,94.9 69.3,93.2 67.4,90.3 L60.5,79.6 C60.4,79.4 60.3,79.2 60.1,79.1 C58,76.5 53.8,76.6 51.9,79.6 L45,90.3 C43.2,93.2 40,94.9 36.6,94.9 L8.8,94.9 C4.4,94.9 0.8,91.3 0.8,86.9 L0.8,57.8 C0.8,51.9 5.6,47.1 11.5,47.1 L101.1,47.1 C107.1,47.1 111.9,51.9 111.9,57.8 Z" id="Shape" class="stroke-primary" stroke-width="3" stroke-linecap="round" stroke-linejoin="round"></path>
                <text id="VR" class="fill-primary" font-family="Helvetica" font-size="21" font-weight="normal">
                    <tspan x="40.4395" y="71.7383">VR</tspan>
                </text>
            </g>
        </g>
    </g>
</svg>