<?xml version="1.0" encoding="UTF-8"?>
<svg width="148px" height="73px" viewBox="0 0 148 73" version="1.1" xmlns="http://www.w3.org/2000/svg" xmlns:xlink="http://www.w3.org/1999/xlink">
    <!-- Generator: Sketch 51.2 (57519) - http://www.bohemiancoding.com/sketch -->
    <title>Whistle</title>
    <desc>Created with Sketch.</desc>
    <defs></defs>
    <g id="Page-1" stroke="none" stroke-width="1" fill="none" fill-rule="evenodd">
        <g id="Whistle" transform="translate(2.000000, 2.000000)">
            <path d="M40.4,0.3 C21.5,0.3 6.2,15.6 6.2,34.5 C6.2,53.4 21.5,68.7 40.4,68.7 C53.4,68.7 64.8,61.4 70.5,50.7 L70.5,50.8 C74.9,44.3 81.6,39.6 89.4,37.9 L134.5,28.2 C140.1,27 144.1,22 144.1,16.3 L144.1,0.4 L40.4,0.4 L40.4,0.3 Z" id="Shape" class="fill-neutral" fill-rule="nonzero"></path>
            <path d="M44.1,2.9 C25.9,2.9 11.1,17.6 11.1,35.8 C11.1,54 25.9,68.7 44.1,68.7 C56.7,68.7 65.3,61.3 70.8,51 L71.9,49 C76.1,42.7 85,39 92.6,37.4 L135.5,27.7 C140.9,26.5 144.3,23.8 144.3,18.3 L144.3,3 L44.1,3 L44.1,2.9 Z" id="Shape" class="fill-primary-100" fill-rule="nonzero"></path>
            <path d="M24.6,4.2 C29.3,1.7 34.7,0.3 40.4,0.3 C59.3,0.3 74.6,15.6 74.6,34.5 C74.6,53.4 59.3,68.7 40.4,68.7 C21.5,68.7 6.2,53.4 6.2,34.5 C6.2,28.7 7.6,23.3 10.2,18.5" id="Shape" class="stroke-primary" stroke-width="3" stroke-linecap="round" stroke-linejoin="round"></path>
            <path d="M15.2,11.4 C16,10.6 16.8,9.8 17.6,9" id="Shape" class="stroke-primary" stroke-width="3" stroke-linecap="round" stroke-linejoin="round"></path>
            <circle id="Oval" class="fill-primary-400" fill-rule="nonzero" cx="41.7" cy="35.8" r="13.7"></circle>
            <path d="M48.9,46.9 C46.5,48.6 43.6,49.5 40.4,49.5 C32.1,49.5 25.4,42.8 25.4,34.5 C25.4,33.3 25.5,32.1 25.8,30.9" id="Shape" class="stroke-primary" stroke-width="3" stroke-linecap="round" stroke-linejoin="round"></path>
            <path d="M55.2,37 C55.1,37.6 55,38.1 54.8,38.7" id="Shape" class="stroke-primary" stroke-width="3" stroke-linecap="round" stroke-linejoin="round"></path>
            <path d="M29.4,24.4 C32.1,21.4 36.1,19.5 40.4,19.5 C46.9,19.5 52.5,23.7 54.5,29.5" id="Shape" class="stroke-primary" stroke-width="3" stroke-linecap="round" stroke-linejoin="round"></path>
            <path d="M40.4,0.3 L144.2,0.3 L144.2,16.2 C144.2,22 140.2,26.9 134.6,28.1 L89.5,37.8 C81.7,39.5 74.9,44.2 70.6,50.7" id="Shape" class="stroke-primary" stroke-width="3" stroke-linecap="round" stroke-linejoin="round"></path>
            <path d="M6.7,40.5 C6.5,40.5 6.3,40.5 6.1,40.5 C2.8,40.5 0.1,37.8 0.1,34.5 C0.1,31.2 2.8,28.5 6.1,28.5 L6.7,28.5" id="Shape" class="stroke-primary" stroke-width="3" stroke-linecap="round" stroke-linejoin="round"></path>
            <path d="M81.9,5.2 C82.3,5.8 82.7,6.3 83.1,6.8 C84.2,8.2 85.8,9 87.6,9 L94.8,9 C96,9 96.9,8 96.9,6.9 L96.9,0.4" id="Shape" class="stroke-primary" stroke-width="3" stroke-linecap="round" stroke-linejoin="round"></path>
        </g>
    </g>
</svg>