<?xml version="1.0" encoding="UTF-8"?>
<svg width="148px" height="105px" viewBox="0 0 148 105" version="1.1" xmlns="http://www.w3.org/2000/svg" xmlns:xlink="http://www.w3.org/1999/xlink">
    <!-- Generator: Sketch 51.2 (57519) - http://www.bohemiancoding.com/sketch -->
    <title>Wi-fi</title>
    <desc>Created with Sketch.</desc>
    <defs></defs>
    <g id="Page-1" stroke="none" stroke-width="1" fill="none" fill-rule="evenodd">
        <g id="Wi-fi" transform="translate(1.000000, 1.000000)">
            <g id="Group" class="fill-neutral" fill-rule="nonzero">
                <path d="M144.2,35.2 C144,35.6 143.8,36 143.6,36.4 C141.5,40.2 138.5,43.1 134.6,45.2 C133.1,46 131.8,45.7 130.5,44.3 C98.1,10.1 46.3,11.7 15.3,43.6 C14.4,44.5 13.7,45.1 12.9,45.4 C11.9,45.7 11,45.4 9.6,44.6 C6.2,42.6 3.3,39.8 1.5,36.2 C0.6,34.3 0.5,32.6 2.2,30.9 C36.3,-4.1 91.3,-10.6 133.6,22.4 C137.1,25.2 140.2,28.4 143.5,31.5 C144.7,32.5 144.9,33.7 144.2,35.2 Z" id="Shape"></path>
                <path d="M116.9,62.9 C116.9,62.9 116.9,62.9 116.9,62.9 C101.7,83.3 107.2,62.4 81.3,57.4 C67.5,54.8 55.3,57.9 44.7,67.2 C43.7,68.1 42.6,68.9 41.8,69.9 C40.2,71.8 38.3,72.1 36.4,71.2 C36.3,71.1 36.1,71.1 36,71 C32.6,69 29.6,66.3 28.1,62.5 C27.2,60.3 27.5,58.5 29.3,56.6 C52.4,33 91.1,31 116.4,57 C118.2,58.8 118.2,61.1 116.9,62.9 Z" id="Shape"></path>
                <path d="M87.7,87.3 C87.3,95.9 80.3,102.5 72,102.1 C63.5,101.7 57.1,94.6 57.4,86.1 C57.8,78 65,71.4 73.2,71.8 C81.6,72.2 88.1,79.1 87.7,87.3 Z" id="Shape"></path>
            </g>
            <g id="Group" transform="translate(4.000000, 4.000000)" class="fill-primary-300" fill-rule="nonzero">
                <path d="M139.6,32.4 C137.5,36.2 134.5,39.1 130.6,41.2 C129.1,42 127.8,41.7 126.5,40.3 C94.1,6.1 42.3,7.7 11.3,39.6 C10.4,40.5 9.7,41.1 8.9,41.4 C5.7,39.3 3.1,36.6 1.5,33 C0.6,31.1 0.7,29.4 2.4,27.8 C37.2,-5.2 91.4,-9.4 131.6,24.5 C134.5,26.9 137,29.7 139.6,32.4 Z" id="Shape"></path>
                <path d="M112.9,58.9 C97.8,79.2 103.2,58.4 77.3,53.4 C63.5,50.8 51.3,53.9 40.7,63.2 C39.7,64.1 38.6,64.9 37.8,65.9 C36.2,67.8 34.3,68.1 32.4,67.2 C30.3,65.5 28.5,63.5 27.5,60.8 C26.7,58.7 27,56.9 28.7,55.2 C50.8,32.7 87.6,30.8 111.7,55.6 C112.5,56.6 112.9,57.8 112.9,58.9 Z" id="Shape"></path>
                <path d="M83.5,86.5 C82.4,93.4 76.4,98.5 69.4,98.2 C61.8,97.8 55.9,91.4 56.2,83.7 C56.5,76.3 63,70.4 70.5,70.8 C78.1,71.1 84,77.4 83.6,84.8 C83.7,85.3 83.6,85.9 83.5,86.5" id="Shape"></path>
            </g>
            <g id="Group" class="stroke-primary" stroke-linecap="round" stroke-linejoin="round" stroke-width="3">
                <path d="M122.9,37.2 C90.4,10.5 44,14.1 15.3,43.6 C13.2,45.7 12.1,46 9.6,44.6 C6.2,42.6 3.3,39.8 1.5,36.2 C0.6,34.3 0.5,32.6 2.2,30.9 C4.1,28.9 6.1,27.1 8.1,25.3" id="Shape"></path>
                <path d="M29.1,11.1 C61.3,-5 101.2,-2.9 133.5,22.3 C137,25.1 140.1,28.3 143.5,31.4 C144.7,32.5 144.9,33.7 144.3,35.2 C142.2,39.6 138.9,42.9 134.7,45.2 C133.8,45.7 132.9,45.8 132.1,45.4" id="Shape"></path>
                <path d="M13.1,21.1 C13.2,21 13.3,21 13.4,20.9" id="Shape"></path>
                <path d="M86,39.6 C97,42.1 107.5,47.8 116.4,56.9 C118.2,58.8 118.2,61.1 116.9,62.8 C108.4,74.3 106.4,72.7 101.6,68.2" id="Shape"></path>
                <path d="M58.7,39.8 C63.1,38.7 67.6,38.2 72.2,38.1" id="Shape"></path>
                <path d="M95.8,63.4 C92.4,61 87.8,58.7 81.2,57.4 C67.4,54.8 55.2,57.9 44.6,67.2 C43.6,68.1 42.5,68.9 41.7,69.9 C40,72 37.9,72.1 35.9,71 C32.5,69 29.5,66.3 28,62.5 C27.1,60.3 27.4,58.5 29.2,56.6 C35.7,50 43.4,45 51.8,42" id="Shape"></path>
                <path d="M86.8,92 C84.6,98.2 78.7,102.5 72,102.1 C63.5,101.7 57.1,94.6 57.4,86.1 C57.5,83.8 58.2,81.6 59.2,79.7" id="Shape"></path>
                <path d="M63.2,75 C66,72.8 69.5,71.6 73.2,71.8 C80.1,72.1 85.7,76.9 87.3,83.1" id="Shape"></path>
            </g>
        </g>
    </g>
</svg>