<svg id="artwork" xmlns="http://www.w3.org/2000/svg" xmlns:xlink="http://www.w3.org/1999/xlink" viewBox="0 0 317.2 137.96"><defs><style>.cls-1{fill:none;}.cls-2{clip-path:url(#clip-path);}.cls-3{fill:#2354b9;}.cls-4{fill:#0114b5;}.cls-5{clip-path:url(#clip-path-2);}.cls-6{fill:#00c9ff;}.cls-7{fill:#0af;}</style><clipPath id="clip-path"><rect class="cls-1" x="28.43" y="29.17" width="263" height="32.91"/></clipPath><clipPath id="clip-path-2"><rect class="cls-1" x="28.43" y="68.99" width="263" height="33.53"/></clipPath></defs><g class="cls-2"><path class="cls-3" d="M53.36,42H38.63V88.38H54.05c16.85,0,23.75-10.15,23.75-23.25,0-5.7-1.38-10.84-4.76-15.1C67.52,42.57,59.12,42,53.36,42Zm1.19,38.16H48V50.22h6.64c5.64,0,8.77,2.13,10.72,4.64a17.41,17.41,0,0,1,3.13,10.4C68.46,73.59,64.58,80.17,54.55,80.17Z"/><rect class="cls-4" x="82.95" y="42.01" width="8.21" height="7.33"/><rect class="cls-4" x="82.95" y="53.98" width="8.21" height="34.4"/><polygon class="cls-4" points="111.58 78.04 103.3 53.98 94.78 53.98 107.56 88.38 115.59 88.38 128.37 53.98 119.85 53.98 111.58 78.04"/><polygon class="cls-4" points="146.92 78.04 138.65 53.98 130.13 53.98 142.91 88.38 150.93 88.38 163.71 53.98 155.19 53.98 146.92 78.04"/><rect class="cls-4" x="167.83" y="42.01" width="8.21" height="7.33"/><rect class="cls-4" x="167.83" y="53.98" width="8.21" height="34.4"/><path class="cls-4" d="M227.61,70.52c0,2.51,0,5-1.31,7.21a6.65,6.65,0,0,1-6.21,3.32,6.82,6.82,0,0,1-6.26-3.51,14,14,0,0,1-1.32-7V42h-9.34V70.52c0,6.21.63,10.22,4.89,14.29,3.45,3.57,8.77,4.45,12.1,4.45a16.71,16.71,0,0,0,11.9-4.45c3.57-3.26,4.89-7.4,4.89-14.29V42h-9.34Z"/><path class="cls-4" d="M262.66,51.88c-.44,0-.86,0-1.27,0l0,0H242.79v7.55h0V99.38H251V88.31h9.88a18,18,0,0,0,1.84.11c10.09,0,17-8.21,17-18C279.77,62.09,274.69,51.88,262.66,51.88Zm8.9,18.3a10.35,10.35,0,0,1-10.47,10.59h-10.3V59.53h10.3a10.38,10.38,0,0,1,10.47,10.59Z"/><path class="cls-4" d="M38.63,42H53.36c5.76,0,14.16.56,19.68,8,3.38,4.26,4.76,9.4,4.76,15.1,0,13.1-6.9,23.25-23.75,23.25H38.63ZM48,80.17h6.58c10,0,13.91-6.58,13.91-14.91a17.41,17.41,0,0,0-3.13-10.4c-1.95-2.51-5.08-4.64-10.72-4.64H48Z"/></g><g class="cls-5"><path class="cls-6" d="M53.36,42H38.63V88.38H54.05c16.85,0,23.75-10.15,23.75-23.25,0-5.7-1.38-10.84-4.76-15.1C67.52,42.57,59.12,42,53.36,42Zm1.19,38.16H48V50.22h6.64c5.64,0,8.77,2.13,10.72,4.64a17.41,17.41,0,0,1,3.13,10.4C68.46,73.59,64.58,80.17,54.55,80.17Z"/><rect class="cls-6" x="82.95" y="42.01" width="8.21" height="7.33"/><rect class="cls-7" x="82.95" y="53.98" width="8.21" height="34.4"/><polygon class="cls-7" points="111.58 78.04 103.3 53.98 94.78 53.98 107.56 88.38 115.59 88.38 128.37 53.98 119.85 53.98 111.58 78.04"/><polygon class="cls-7" points="146.92 78.04 138.65 53.98 130.13 53.98 142.91 88.38 150.93 88.38 163.71 53.98 155.19 53.98 146.92 78.04"/><rect class="cls-6" x="167.83" y="42.01" width="8.21" height="7.33"/><rect class="cls-7" x="167.83" y="53.98" width="8.21" height="34.4"/><path class="cls-7" d="M227.61,70.52c0,2.51,0,5-1.31,7.21a6.65,6.65,0,0,1-6.21,3.32,6.82,6.82,0,0,1-6.26-3.51,14,14,0,0,1-1.32-7V42h-9.34V70.52c0,6.21.63,10.22,4.89,14.29,3.45,3.57,8.77,4.45,12.1,4.45a16.71,16.71,0,0,0,11.9-4.45c3.57-3.26,4.89-7.4,4.89-14.29V42h-9.34Z"/><path class="cls-7" d="M262.66,51.88c-.44,0-.86,0-1.27,0l0,0H242.79v7.55h0V99.38H251V88.31h9.88a18,18,0,0,0,1.84.11c10.09,0,17-8.21,17-18C279.77,62.09,274.69,51.88,262.66,51.88Zm8.9,18.3a10.35,10.35,0,0,1-10.47,10.59h-10.3V59.53h10.3a10.38,10.38,0,0,1,10.47,10.59Z"/><path class="cls-7" d="M38.63,42H53.36c5.76,0,14.16.56,19.68,8,3.38,4.26,4.76,9.4,4.76,15.1,0,13.1-6.9,23.25-23.75,23.25H38.63ZM48,80.17h6.58c10,0,13.91-6.58,13.91-14.91a17.41,17.41,0,0,0-3.13-10.4c-1.95-2.51-5.08-4.64-10.72-4.64H48Z"/></g></svg>