<svg id="artwork" xmlns="http://www.w3.org/2000/svg" viewBox="0 0 104 104"><defs><style>.cls-1{fill:#2332b7;}.cls-2{fill:#0114b5;}.cls-3{fill:#0af;}</style></defs><path class="cls-1" d="M60,31.5a18.13,18.13,0,0,1,4.43,4.12A18.13,18.13,0,0,0,60,31.5Z"/><path class="cls-1" d="M79.05,31c.32.53.63,1.06.93,1.6C79.68,32.09,79.37,31.56,79.05,31Z"/><path class="cls-1" d="M84.1,45.83h0a37.42,37.42,0,0,0-3.54-12.08A37.42,37.42,0,0,1,84.1,45.83Z"/><path class="cls-2" d="M80,32.63c-.3-.54-.61-1.07-.93-1.6a35.32,35.32,0,0,0-2.22-3.16C68,15.9,54.49,15,45.24,15H21.59V45.83h15V28.17H47.25c5.66,0,9.75,1.34,12.78,3.33a18.13,18.13,0,0,1,4.43,4.12,18.48,18.48,0,0,1,1.22,1.81,26.25,26.25,0,0,1,3.17,8.4H84.1a37.42,37.42,0,0,0-3.54-12.08C80.37,33.37,80.18,33,80,32.63Z"/><path class="cls-3" d="M74.4,79.87l0,0Z"/><path class="cls-3" d="M84.2,57.71h0c-.78,7.69-3.26,14.53-7.7,19.88C80.94,72.24,83.42,65.4,84.2,57.71Z"/><path class="cls-3" d="M76.5,77.59c4.44-5.35,6.92-12.19,7.7-19.88H69.11c-1.55,10.72-8.1,18.56-22,18.56H36.58V57.71h-15V89.45H46.34c12.69,0,21.87-3.59,28-9.56l0,0A28.07,28.07,0,0,0,76.5,77.59Z"/></svg>