<svg id="artwork" xmlns="http://www.w3.org/2000/svg" xmlns:xlink="http://www.w3.org/1999/xlink" viewBox="0 0 514 274"><defs><style>.cls-1{fill:none;}.cls-2{clip-path:url(#clip-path);}.cls-3{fill:#2354b9;}.cls-4,.cls-8{fill:#0114b5;}.cls-5{clip-path:url(#clip-path-2);}.cls-6{fill:#00c9ff;}.cls-7{fill:#0af;}.cls-8{font-size:27.51px;font-family:ITCAvantGardeStd-Demi, ITC Avant Garde Gothic Std;font-weight:300;letter-spacing:0em;}.cls-9{letter-spacing:0em;}.cls-10{letter-spacing:-0.01em;}.cls-11{letter-spacing:0em;}.cls-12{letter-spacing:0em;}.cls-13{letter-spacing:-0.01em;}.cls-14{letter-spacing:-0.01em;}.cls-15{letter-spacing:0em;}.cls-16{letter-spacing:0em;}.cls-17{letter-spacing:0em;}.cls-18{letter-spacing:-0.01em;}.cls-19{letter-spacing:0em;}.cls-20{letter-spacing:0em;}.cls-21{letter-spacing:-0.01em;}.cls-22{letter-spacing:0em;}.cls-23{letter-spacing:-0.01em;}.cls-24{letter-spacing:0em;}</style><clipPath id="clip-path"><rect class="cls-1" x="46.8" y="54.97" width="422.31" height="52.85"/></clipPath><clipPath id="clip-path-2"><rect class="cls-1" x="46.8" y="115.69" width="422.31" height="53.85"/></clipPath></defs><g class="cls-2"><path class="cls-3" d="M86.84,74H63.19v74.46H87.94c27.07,0,38.14-16.3,38.14-37.33,0-9.15-2.21-17.41-7.65-24.25C109.58,74.88,96.09,74,86.84,74Zm1.91,61.28H78.18V87.15H88.85c9.06,0,14.09,3.43,17.21,7.45,3.52,4.63,5,10.87,5,16.7C111.09,124.69,104.85,135.25,88.75,135.25Z"/><rect class="cls-4" x="134.35" y="73.97" width="13.18" height="11.77"/><rect class="cls-4" x="134.35" y="93.19" width="13.18" height="55.24"/><polygon class="cls-4" points="180.32 131.83 167.04 93.19 153.35 93.19 173.88 148.43 186.76 148.43 207.29 93.19 193.6 93.19 180.32 131.83"/><polygon class="cls-4" points="237.07 131.83 223.79 93.19 210.1 93.19 230.63 148.43 243.51 148.43 264.04 93.19 250.35 93.19 237.07 131.83"/><rect class="cls-4" x="270.65" y="73.97" width="13.18" height="11.77"/><rect class="cls-4" x="270.65" y="93.19" width="13.18" height="55.24"/><path class="cls-4" d="M366.65,119.76c0,4,0,7.95-2.12,11.57-1.61,3-4.93,5.33-10,5.33A11,11,0,0,1,344.51,131c-2-3.73-2.12-7.55-2.12-11.27V74h-15v45.79c0,10,1,16.4,7.85,22.94,5.53,5.73,14.09,7.14,19.42,7.14,8.25,0,14.59-2.81,19.12-7.14,5.74-5.23,7.85-11.88,7.85-22.94V74h-15Z"/><path class="cls-4" d="M422.92,89.82c-.7,0-1.38,0-2,.08l.06-.08H391v12.12h0V166.1h13.19V148.33h15.85c.95.09,1.92.16,3,.16,16.2,0,27.37-13.18,27.37-28.88C450.39,106.22,442.24,89.82,422.92,89.82Zm14.29,29.38c0,9.06-6.74,17-16.8,17H403.86V102.1h16.55c11.1.06,16.8,9.08,16.8,17Z"/><path class="cls-4" d="M63.19,74H86.84c9.25,0,22.74.91,31.59,12.88,5.44,6.84,7.65,15.1,7.65,24.25,0,21-11.07,37.33-38.14,37.33H63.19Zm15,61.28H88.75c16.1,0,22.34-10.56,22.34-24,0-5.83-1.51-12.07-5-16.7-3.12-4-8.15-7.45-17.21-7.45H78.18Z"/></g><g class="cls-5"><path class="cls-6" d="M86.84,74H63.19v74.46H87.94c27.07,0,38.14-16.3,38.14-37.33,0-9.15-2.21-17.41-7.65-24.25C109.58,74.88,96.09,74,86.84,74Zm1.91,61.28H78.18V87.15H88.85c9.06,0,14.09,3.43,17.21,7.45,3.52,4.63,5,10.87,5,16.7C111.09,124.69,104.85,135.25,88.75,135.25Z"/><rect class="cls-6" x="134.35" y="73.97" width="13.18" height="11.77"/><rect class="cls-7" x="134.35" y="93.19" width="13.18" height="55.24"/><polygon class="cls-7" points="180.32 131.83 167.04 93.19 153.35 93.19 173.88 148.43 186.76 148.43 207.29 93.19 193.6 93.19 180.32 131.83"/><polygon class="cls-7" points="237.07 131.83 223.79 93.19 210.1 93.19 230.63 148.43 243.51 148.43 264.04 93.19 250.35 93.19 237.07 131.83"/><rect class="cls-6" x="270.65" y="73.97" width="13.18" height="11.77"/><rect class="cls-7" x="270.65" y="93.19" width="13.18" height="55.24"/><path class="cls-7" d="M366.65,119.76c0,4,0,7.95-2.12,11.57-1.61,3-4.93,5.33-10,5.33A11,11,0,0,1,344.51,131c-2-3.73-2.12-7.55-2.12-11.27V74h-15v45.79c0,10,1,16.4,7.85,22.94,5.53,5.73,14.09,7.14,19.42,7.14,8.25,0,14.59-2.81,19.12-7.14,5.74-5.23,7.85-11.88,7.85-22.94V74h-15Z"/><path class="cls-7" d="M422.92,89.82c-.7,0-1.38,0-2,.08l.06-.08H391v12.12h0V166.1h13.19V148.33h15.85c.95.09,1.92.16,3,.16,16.2,0,27.37-13.18,27.37-28.88C450.39,106.22,442.24,89.82,422.92,89.82Zm14.29,29.38c0,9.06-6.74,17-16.8,17H403.86V102.1h16.55c11.1.06,16.8,9.08,16.8,17Z"/><path class="cls-7" d="M63.19,74H86.84c9.25,0,22.74.91,31.59,12.88,5.44,6.84,7.65,15.1,7.65,24.25,0,21-11.07,37.33-38.14,37.33H63.19Zm15,61.28H88.75c16.1,0,22.34-10.56,22.34-24,0-5.83-1.51-12.07-5-16.7-3.12-4-8.15-7.45-17.21-7.45H78.18Z"/></g><text class="cls-8" transform="translate(61.17 199.42)">D<tspan class="cls-9" x="20.19" y="0">a</tspan><tspan class="cls-10" x="39.26" y="0">t</tspan><tspan class="cls-11" x="48.14" y="0">a </tspan><tspan class="cls-12" x="75.62" y="0">d</tspan><tspan class="cls-13" x="94.63" y="0">i</tspan><tspan class="cls-14" x="101.56" y="0">v</tspan><tspan class="cls-15" x="116.86" y="0">i</tspan><tspan class="cls-16" x="123.98" y="0">d</tspan><tspan class="cls-17" x="143.03" y="0">e</tspan><tspan class="cls-18" x="160.56" y="0">d</tspan><tspan class="cls-11" x="179.3" y="0">. </tspan><tspan x="196.03" y="0">D</tspan><tspan class="cls-9" x="216.21" y="0">a</tspan><tspan class="cls-10" x="235.29" y="0">t</tspan><tspan class="cls-11" x="244.17" y="0">a </tspan><tspan class="cls-19" x="271.65" y="0">s</tspan><tspan class="cls-20" x="284.78" y="0">e</tspan><tspan class="cls-21" x="302.32" y="0">c</tspan><tspan class="cls-22" x="319.86" y="0">u</tspan><tspan class="cls-23" x="337.34" y="0">r</tspan><tspan class="cls-17" x="346.74" y="0">e</tspan><tspan class="cls-18" x="364.27" y="0">d</tspan><tspan class="cls-24" x="383.01" y="0">.</tspan></text></svg>