<svg xmlns="http://www.w3.org/2000/svg" id="Layer_1" data-name="Layer 1" viewBox="0 0 64 64" width="128" height="128"><title>Icons8 RSL Colored Part 9</title><path d="M9,57V11a2,2,0,0,1,2-2H36.34a4,4,0,0,1,2.83,1.17l8.66,8.66A4,4,0,0,1,49,21.66V57a2,2,0,0,1-2,2H11A2,2,0,0,1,9,57Z" style="fill:#efd8be;"/><path d="M13,53V7a2,2,0,0,1,2-2H40.34a4,4,0,0,1,2.83,1.17l8.66,8.66A4,4,0,0,1,53,17.66V53a2,2,0,0,1-2,2H15A2,2,0,0,1,13,53Z" style="fill:#bbdef9;"/><path d="M53.1,36.9V17.66L49.4,17,13.25,53.14A3,3,0,0,0,16,54.94H35.06Z" style="fill:#cce7fc;"/><path d="M44.43,11.57,13,43v6L48.24,13.76C47.94,12.69,44.43,11.57,44.43,11.57Z" style="fill:#cce7fc;"/><polygon points="12.85 37.15 41 9 44 9 12.85 40.15 12.85 37.15" style="fill:#cce7fc;"/><polygon points="21.5 10 22.74 12.26 25 13.5 22.74 14.74 21.5 17 20.26 14.74 18 13.5 20.26 12.26 21.5 10" style="fill:#fff;"/><path d="M41.34,4.81v9.61a2.39,2.39,0,0,0,2.39,2.39h9.61Z" style="fill:#f9e3ae;"/><polygon points="42.42 26 43.27 27.56 44.84 28.42 43.27 29.27 42.42 30.84 41.56 29.27 40 28.42 41.56 27.56 42.42 26" style="fill:#fff;"/><polygon points="22.65 38 23.23 39.06 24.3 39.65 23.23 40.23 22.65 41.3 22.07 40.23 21 39.65 22.07 39.06 22.65 38" style="fill:#fff;"/><circle cx="32" cy="38" r="2" style="fill:#8d6c9f;"/><path d="M32,34.06a1.06,1.06,0,0,0,1.06-1l.86-14a1.93,1.93,0,0,0-.51-1.46,2,2,0,0,0-2.83,0A1.92,1.92,0,0,0,30,19.06l.86,14a1.06,1.06,0,0,0,1.06,1Z" style="fill:#8d6c9f;"/><path d="M52.54,14.12,43.88,5.46A5,5,0,0,0,40.34,4H15a3,3,0,0,0-3,3V8H11a3,3,0,0,0-3,3V57a3,3,0,0,0,3,3H47a3,3,0,0,0,3-3V56h1a3,3,0,0,0,3-3V17.66A5,5,0,0,0,52.54,14.12Zm-1.41,1.41a3,3,0,0,1,.38.46H43a1,1,0,0,1-1-1V6.5a3,3,0,0,1,.46.38ZM48,57a1,1,0,0,1-1,1H11a1,1,0,0,1-1-1V11a1,1,0,0,1,1-1h1V53a3,3,0,0,0,3,3H48Zm3-3H15a1,1,0,0,1-1-1V7a1,1,0,0,1,1-1H40v9a3,3,0,0,0,3,3h9V53A1,1,0,0,1,51,54Z" style="fill:#8d6c9f;"/><path d="M18,46a1,1,0,0,0-1,1v2a1,1,0,0,0,2,0V47A1,1,0,0,0,18,46Z" style="fill:#8d6c9f;"/><path d="M23,46a1,1,0,0,0-1,1v2a1,1,0,0,0,2,0V47A1,1,0,0,0,23,46Z" style="fill:#8d6c9f;"/><path d="M28,46a1,1,0,0,0-1,1v2a1,1,0,0,0,2,0V47A1,1,0,0,0,28,46Z" style="fill:#8d6c9f;"/><path d="M33,46a1,1,0,0,0-1,1v2a1,1,0,0,0,2,0V47A1,1,0,0,0,33,46Z" style="fill:#8d6c9f;"/><path d="M38,46a1,1,0,0,0-1,1v2a1,1,0,0,0,2,0V47A1,1,0,0,0,38,46Z" style="fill:#8d6c9f;"/><path d="M43,46a1,1,0,0,0-1,1v2a1,1,0,0,0,2,0V47A1,1,0,0,0,43,46Z" style="fill:#8d6c9f;"/><path d="M48,46a1,1,0,0,0-1,1v2a1,1,0,0,0,2,0V47A1,1,0,0,0,48,46Z" style="fill:#8d6c9f;"/></svg>