<svg xmlns="http://www.w3.org/2000/svg" id="Layer_1" data-name="Layer 1" viewBox="0 0 64 64" width="128" height="128"><title>Dusk Part 3</title><path d="M56.84,37.36a3.09,3.09,0,0,0-.65,2.42l.95,6a1,1,0,0,1-.65,1.12l-5.66,2.17a3.09,3.09,0,0,0-1.78,1.77l-2.17,5.66a1,1,0,0,1-1.12.65l-6-.95a3.09,3.09,0,0,0-2.42.65l-4.71,3.81a1,1,0,0,1-1.29,0l-4.71-3.81a3.09,3.09,0,0,0-2.42-.65l-6,.95a1,1,0,0,1-1.12-.65l-2.17-5.66a3.09,3.09,0,0,0-1.77-1.78L7.51,46.89a1,1,0,0,1-.65-1.12l.95-6a3.09,3.09,0,0,0-.65-2.42L3.35,32.65a1,1,0,0,1,0-1.29l3.81-4.71a3.09,3.09,0,0,0,.65-2.42l-.95-6a1,1,0,0,1,.65-1.12l5.66-2.17a3.09,3.09,0,0,0,1.78-1.77l2.17-5.66a1,1,0,0,1,1.12-.65l6,.95a3.09,3.09,0,0,0,2.42-.65l4.71-3.81a1,1,0,0,1,1.29,0h0l4.71,3.81a3.09,3.09,0,0,0,2.42.65l6-.95a1,1,0,0,1,1.12.65l2.17,5.66a3.09,3.09,0,0,0,1.77,1.78l5.66,2.17a1,1,0,0,1,.65,1.12l-.95,6a3.09,3.09,0,0,0,.65,2.42l3.81,4.71a1,1,0,0,1,0,1.29Z" style="fill:#72caaf;"/><circle cx="32" cy="32" r="19" style="fill:#88d7b6;"/><path d="M32,49a1,1,0,0,0-1,1v2a1,1,0,0,0,2,0V50A1,1,0,0,0,32,49Z" style="fill:#8d6c9f;"/><path d="M32,15a1,1,0,0,0,1-1V12a1,1,0,0,0-2,0v2A1,1,0,0,0,32,15Z" style="fill:#8d6c9f;"/><path d="M52,31H50a1,1,0,0,0,0,2h2a1,1,0,0,0,0-2Z" style="fill:#8d6c9f;"/><path d="M14,33a1,1,0,0,0,0-2H12a1,1,0,0,0,0,2Z" style="fill:#8d6c9f;"/><path d="M18.57,44l-1.42,1.41a1,1,0,0,0,1.41,1.42L20,45.44A1,1,0,0,0,18.57,44Z" style="fill:#8d6c9f;"/><path d="M44.73,20.27a1,1,0,0,0,.71-.29l1.42-1.41a1,1,0,0,0-1.41-1.42L44,18.56a1,1,0,0,0,.71,1.71Z" style="fill:#8d6c9f;"/><path d="M45.43,44A1,1,0,0,0,44,45.44l1.42,1.41a1,1,0,0,0,1.41-1.42Z" style="fill:#8d6c9f;"/><path d="M18.57,20A1,1,0,0,0,20,18.56l-1.42-1.41a1,1,0,0,0-1.41,1.42Z" style="fill:#8d6c9f;"/><path d="M37.63,49.13a1,1,0,1,0-1.93.52l.52,1.93a1,1,0,1,0,1.93-.52Z" style="fill:#8d6c9f;"/><path d="M26.38,14.87a1,1,0,1,0,1.93-.52l-.52-1.93a1,1,0,1,0-1.93.52Z" style="fill:#8d6c9f;"/><path d="M48.42,27.6a1,1,0,0,0,1.22.71l1.93-.52a1,1,0,1,0-.52-1.93l-1.93.52A1,1,0,0,0,48.42,27.6Z" style="fill:#8d6c9f;"/><path d="M15.58,36.4a1,1,0,0,0-1.22-.71l-1.93.52a1,1,0,1,0,.52,1.93l1.93-.52A1,1,0,0,0,15.58,36.4Z" style="fill:#8d6c9f;"/><path d="M23.5,46.72a1,1,0,0,0-1.37.37l-1,1.73a1,1,0,0,0,1.73,1l1-1.73A1,1,0,0,0,23.5,46.72Z" style="fill:#8d6c9f;"/><path d="M40.5,17.28a1,1,0,0,0,1.37-.37l1-1.73a1,1,0,1,0-1.73-1l-1,1.73A1,1,0,0,0,40.5,17.28Z" style="fill:#8d6c9f;"/><path d="M49.82,41.13l-1.73-1a1,1,0,1,0-1,1.73l1.73,1a1,1,0,0,0,.5.13,1,1,0,0,0,.5-1.87Z" style="fill:#8d6c9f;"/><path d="M14.18,22.87l1.73,1a1,1,0,0,0,.5.13,1,1,0,0,0,.5-1.87l-1.73-1a1,1,0,1,0-1,1.73Z" style="fill:#8d6c9f;"/><path d="M41.87,47.09a1,1,0,0,0-1.73,1l1,1.73a1,1,0,1,0,1.73-1Z" style="fill:#8d6c9f;"/><path d="M22.13,16.91a1,1,0,0,0,1.73-1l-1-1.73a1,1,0,0,0-1.73,1Z" style="fill:#8d6c9f;"/><path d="M46.72,23.5a1,1,0,0,0,.87.5,1,1,0,0,0,.5-.13l1.73-1a1,1,0,1,0-1-1.73l-1.73,1A1,1,0,0,0,46.72,23.5Z" style="fill:#8d6c9f;"/><path d="M17.28,40.5a1,1,0,0,0-1.37-.37l-1.73,1a1,1,0,1,0,1,1.73l1.73-1A1,1,0,0,0,17.28,40.5Z" style="fill:#8d6c9f;"/><path d="M27.6,48.42a1,1,0,0,0-1.22.71l-.52,1.93a1,1,0,1,0,1.93.52l.52-1.93A1,1,0,0,0,27.6,48.42Z" style="fill:#8d6c9f;"/><path d="M36.4,15.58a1,1,0,0,0,1.22-.71l.52-1.93a1,1,0,1,0-1.93-.52l-.52,1.93A1,1,0,0,0,36.4,15.58Z" style="fill:#8d6c9f;"/><path d="M51.58,36.21l-1.93-.52a1,1,0,0,0-.52,1.93l1.93.52a1,1,0,1,0,.52-1.93Z" style="fill:#8d6c9f;"/><path d="M12.42,27.79l1.93.52a1,1,0,0,0,.52-1.93l-1.93-.52a1,1,0,1,0-.52,1.93Z" style="fill:#8d6c9f;"/><path d="M61.42,33.89a3,3,0,0,0,0-3.78l-3.71-4.58a1,1,0,0,1-.21-.79l.92-5.82a3,3,0,0,0-1.89-3.27L51,13.54a1,1,0,0,1-.58-.58l-2.11-5.5a3,3,0,0,0-3.27-1.89l-5.82.92a1,1,0,0,1-.79-.21L33.89,2.58h0a3,3,0,0,0-3.78,0L25.53,6.29a1,1,0,0,1-.79.21l-5.82-.92a3,3,0,0,0-3.27,1.89L13.54,13a1,1,0,0,1-.58.58l-5.5,2.11a3,3,0,0,0-1.89,3.27l.92,5.82a1,1,0,0,1-.21.79L2.58,30.11a3,3,0,0,0,0,3.78l3.71,4.58a1,1,0,0,1,.21.79l-.92,5.82a3,3,0,0,0,1.89,3.27L13,50.46a1,1,0,0,1,.58.58l2.11,5.5a3,3,0,0,0,3.27,1.89l5.82-.92a1,1,0,0,1,.79.21l4.58,3.71a3,3,0,0,0,3.78,0l4.58-3.71a1,1,0,0,1,.79-.21l5.82.92a3,3,0,0,0,3.27-1.89L50.46,51a1,1,0,0,1,.58-.58l5.5-2.11a3,3,0,0,0,1.89-3.27l-.92-5.82a1,1,0,0,1,.21-.79Zm-5.26,3.32a3,3,0,0,0-.63,2.36l.92,5.82a1,1,0,0,1-.63,1.09l-5.5,2.11a3,3,0,0,0-1.73,1.73l-2.11,5.5a1,1,0,0,1-1.09.63l-5.82-.92a3,3,0,0,0-2.36.63l-4.58,3.71a1,1,0,0,1-1.26,0l-4.58-3.71a3,3,0,0,0-2.36-.63l-5.82.92a1,1,0,0,1-1.09-.63l-2.11-5.5a3,3,0,0,0-1.73-1.73l-5.5-2.11a1,1,0,0,1-.63-1.09l.92-5.82a3,3,0,0,0-.63-2.36L4.13,32.63a1,1,0,0,1,0-1.26l3.71-4.58a3,3,0,0,0,.63-2.36l-.92-5.82a1,1,0,0,1,.63-1.09l5.5-2.11a3,3,0,0,0,1.73-1.73l2.11-5.5a1,1,0,0,1,1.09-.63l5.82.92a3,3,0,0,0,2.36-.63l4.58-3.71a1,1,0,0,1,1.26,0l4.58,3.71a3,3,0,0,0,2.36.63l5.82-.92a1,1,0,0,1,1.09.63l2.11,5.5a3,3,0,0,0,1.73,1.73l5.5,2.11a1,1,0,0,1,.63,1.09l-.92,5.82a3,3,0,0,0,.63,2.36l3.71,4.58a1,1,0,0,1,0,1.26Z" style="fill:#8d6c9f;"/><path d="M44.71,24.29a1,1,0,0,0-1.41,0L29,38.59l-7.29-7.29a1,1,0,0,0-1.41,1.41l8,8a1,1,0,0,0,1.41,0l15-15A1,1,0,0,0,44.71,24.29Z" style="fill:#f9efde;"/></svg>