<svg xmlns="http://www.w3.org/2000/svg" id="Layer_1" data-name="Layer 1" viewBox="0 0 64 64" width="128" height="128"><title>Dusk Part 3</title><rect x="7" y="7" width="50" height="50" rx="2" ry="2" style="fill:#72caaf;"/><circle cx="32" cy="32" r="12" style="fill:#5dbc9d;"/><circle cx="54.5" cy="9.5" r="6.5" style="fill:#f283a5;"/><path d="M46,32a1,1,0,0,0-1-1H43a1,1,0,0,0,0,2h2A1,1,0,0,0,46,32Z" style="fill:#8d6c9f;"/><path d="M21,31H19a1,1,0,0,0,0,2h2a1,1,0,0,0,0-2Z" style="fill:#8d6c9f;"/><path d="M33,19a1,1,0,0,0-2,0v2a1,1,0,0,0,2,0Z" style="fill:#8d6c9f;"/><path d="M32,42a1,1,0,0,0-1,1v2a1,1,0,0,0,2,0V43A1,1,0,0,0,32,42Z" style="fill:#8d6c9f;"/><path d="M25,19.88a1,1,0,0,0-.37,1.37l1,1.73a1,1,0,0,0,1.73-1l-1-1.73A1,1,0,0,0,25,19.88Z" style="fill:#8d6c9f;"/><path d="M37,40.66A1,1,0,0,0,36.63,42l1,1.73a1,1,0,1,0,1.73-1l-1-1.73A1,1,0,0,0,37,40.66Z" style="fill:#8d6c9f;"/><path d="M23.34,27A1,1,0,0,0,23,25.63l-1.73-1a1,1,0,1,0-1,1.73l1.73,1A1,1,0,0,0,23.34,27Z" style="fill:#8d6c9f;"/><path d="M42,36.63a1,1,0,1,0-1,1.73l1.73,1a1,1,0,0,0,1-1.73Z" style="fill:#8d6c9f;"/><path d="M49.84,38.62a1,1,0,0,0-1.31.52A18,18,0,0,1,17,42h6a1,1,0,0,0,0-2H15a1,1,0,0,0-1,1v8.08a1,1,0,0,0,2,0V44a20,20,0,0,0,34.36-4.06A1,1,0,0,0,49.84,38.62Z" style="fill:#faefde;"/><path d="M51,31a1,1,0,0,0-1,1,18.17,18.17,0,0,1-.37,3.63,1,1,0,0,0,.78,1.18l.2,0a1,1,0,0,0,1-.8A20.14,20.14,0,0,0,52,32,1,1,0,0,0,51,31Z" style="fill:#faefde;"/><path d="M14.11,25.51A1,1,0,0,0,15.42,25,18,18,0,0,1,47,22.08H41a1,1,0,0,0,0,2h8a1,1,0,0,0,1-1V17a1,1,0,0,0-2,0v3A20,20,0,0,0,13.58,24.2,1,1,0,0,0,14.11,25.51Z" style="fill:#faefde;"/><path d="M14.28,28.83a1,1,0,1,0-2-.35A20.15,20.15,0,0,0,12,32a1,1,0,0,0,2,0A18.24,18.24,0,0,1,14.28,28.83Z" style="fill:#faefde;"/><path d="M62,9.5A7.5,7.5,0,0,0,47.87,6H9A3,3,0,0,0,6,9V55a3,3,0,0,0,3,3H55a3,3,0,0,0,3-3V16.13A7.5,7.5,0,0,0,62,9.5ZM56,55a1,1,0,0,1-1,1H9a1,1,0,0,1-1-1V9A1,1,0,0,1,9,8H47.15A7.5,7.5,0,0,0,56,16.85ZM54.5,15A5.5,5.5,0,1,1,60,9.5,5.51,5.51,0,0,1,54.5,15Z" style="fill:#8d6c9f;"/></svg>