<svg xmlns="http://www.w3.org/2000/svg" id="Layer_1" data-name="Layer 1" viewBox="0 0 64 64" width="128" height="128"><title>Icons8 RSL Colored Part 9</title><rect x="5" y="9" width="54" height="36" style="fill:#c5e4fa;"/><polygon points="59 12.51 26.51 45 43.76 45 59 29.76 59 12.51" style="fill:#e3f2ff;"/><polygon points="15.9 45 23.6 45 59.52 9.08 51.82 9.08 15.9 45" style="fill:#e3f2ff;"/><polygon points="12.9 45 10.6 45 46.52 9.08 48.82 9.08 12.9 45" style="fill:#e3f2ff;"/><path d="M5,45H59a0,0,0,0,1,0,0v7a3,3,0,0,1-3,3H8a3,3,0,0,1-3-3V45A0,0,0,0,1,5,45Z" style="fill:#ced8ed;"/><rect x="33" y="35" width="6" height="9" style="fill:#ed7899;"/><rect x="39" y="37" width="6" height="7" style="fill:#72caaf;"/><rect x="27" y="39" width="6" height="5" style="fill:#ffeb9b;"/><rect x="21" y="39" width="6" height="5" style="fill:#85cbf8;"/><rect x="15" y="41" width="6" height="3" style="fill:#fff8f8;"/><rect x="45" y="31" width="6" height="13" style="fill:#faefde;"/><circle cx="42" cy="25" r="2" style="fill:#fff8f8;"/><circle cx="36" cy="20" r="2" style="fill:#fff8f8;"/><circle cx="29" cy="29" r="2" style="fill:#fff8f8;"/><circle cx="23" cy="24" r="2" style="fill:#fff8f8;"/><circle cx="15" cy="31" r="2" style="fill:#fff8f8;"/><path d="M57,8H7a3,3,0,0,0-3,3V53a3,3,0,0,0,3,3H57a3,3,0,0,0,3-3V11A3,3,0,0,0,57,8ZM7,10H57a1,1,0,0,1,1,1V44H52V31a1,1,0,0,0-1-1H45a1,1,0,0,0-1,1v5H40V35a1,1,0,0,0-1-1H33a1,1,0,0,0-1,1v3H21a1,1,0,0,0-1,1v1H15a1,1,0,0,0-1,1v3H6V11A1,1,0,0,1,7,10ZM40,44V38h4v6Zm-6,0V36h4v8Zm-6,0V40h4v4Zm-6,0V40h4v4Zm-6,0V42h4v2Zm30-7V32h4V44H46ZM57,54H7a1,1,0,0,1-1-1V46H58v7A1,1,0,0,1,57,54Z" style="fill:#8d6c9f;"/><path d="M20,48a1,1,0,0,0-1,1v2a1,1,0,0,0,2,0V49A1,1,0,0,0,20,48Z" style="fill:#8d6c9f;"/><path d="M15,48a1,1,0,0,0-1,1v2a1,1,0,0,0,2,0V49A1,1,0,0,0,15,48Z" style="fill:#8d6c9f;"/><path d="M10,48a1,1,0,0,0-1,1v2a1,1,0,0,0,2,0V49A1,1,0,0,0,10,48Z" style="fill:#8d6c9f;"/><path d="M35,48a1,1,0,0,0-1,1v2a1,1,0,0,0,2,0V49A1,1,0,0,0,35,48Z" style="fill:#8d6c9f;"/><path d="M40,48a1,1,0,0,0-1,1v2a1,1,0,0,0,2,0V49A1,1,0,0,0,40,48Z" style="fill:#8d6c9f;"/><path d="M45,48a1,1,0,0,0-1,1v2a1,1,0,0,0,2,0V49A1,1,0,0,0,45,48Z" style="fill:#8d6c9f;"/><path d="M50,48a1,1,0,0,0-1,1v2a1,1,0,0,0,2,0V49A1,1,0,0,0,50,48Z" style="fill:#8d6c9f;"/><path d="M55,48a1,1,0,0,0-1,1v2a1,1,0,0,0,2,0V49A1,1,0,0,0,55,48Z" style="fill:#8d6c9f;"/><path d="M25,48a1,1,0,0,0-1,1v2a1,1,0,0,0,2,0V49A1,1,0,0,0,25,48Z" style="fill:#8d6c9f;"/><path d="M30,48a1,1,0,0,0-1,1v2a1,1,0,0,0,2,0V49A1,1,0,0,0,30,48Z" style="fill:#8d6c9f;"/><path d="M15,34a3,3,0,0,0,2.78-4.11l3.76-3.28a2.9,2.9,0,0,0,3,0L26.2,28a3,3,0,0,0-.2,1,3,3,0,1,0,5.45-1.72L35,22.82a2.86,2.86,0,0,0,2.5-.25L39.2,24a3,3,0,0,0-.2,1,3,3,0,0,0,6,0,3,3,0,0,0-.37-1.42l5.38-6v3.88a1,1,0,0,0,2,0V15a1.24,1.24,0,0,0-.31-.7v0a1,1,0,0,0-.12-.07.66.66,0,0,0-.4-.16A1,1,0,0,0,51,14H44.51a1,1,0,0,0,0,2h4.24l-5.61,6.23a2.94,2.94,0,0,0-2.67.2L38.8,21a3,3,0,0,0,.2-1,3,3,0,0,0-6,0,3,3,0,0,0,.46,1.58l-3.64,4.55a2.83,2.83,0,0,0-2.34.3L25.8,25a3,3,0,0,0,.2-1,3,3,0,1,0-5.78,1.1l-3.76,3.29A3,3,0,0,0,15,28a3,3,0,0,0,0,6Zm28-9a1,1,0,1,1-1-1A1,1,0,0,1,43,25Zm-7-6a1,1,0,1,1-1,1A1,1,0,0,1,36,19ZM30,29a1,1,0,1,1-1-1A1,1,0,0,1,30,29Zm-7-6a1,1,0,1,1-1,1A1,1,0,0,1,23,23Zm-8,7a1,1,0,1,1-1,1A1,1,0,0,1,15,30Z" style="fill:#8d6c9f;"/><polygon points="13.5 13 14.74 15.26 17 16.5 14.74 17.74 13.5 20 12.26 17.74 10 16.5 12.26 15.26 13.5 13" style="fill:#fff8f8;"/><polygon points="26.42 14.16 27.27 15.73 28.84 16.58 27.27 17.44 26.42 19 25.56 17.44 24 16.58 25.56 15.73 26.42 14.16" style="fill:#fff8f8;"/><polygon points="10.65 24.7 11.23 25.77 12.3 26.35 11.23 26.93 10.65 28 10.06 26.93 9 26.35 10.06 25.77 10.65 24.7" style="fill:#fff8f8;"/></svg>