<svg xmlns="http://www.w3.org/2000/svg" id="Layer_1" data-name="Layer 1" viewBox="0 0 64 64" width="128" height="128"><title>Icons8 RSL Colored Part 10</title><rect x="3" y="3" width="42" height="36" rx="2" ry="2" style="fill:#ed7899;"/><rect x="9" y="19" width="12" height="14" style="fill:#f9efde;"/><rect x="27" y="19" width="12" height="14" style="fill:#f9efde;"/><rect x="19" y="25" width="42" height="36" rx="2" ry="2" style="fill:#85cbf8;"/><path d="M61,27v8H19V27a2,2,0,0,1,2-2H59A2,2,0,0,1,61,27Z" style="fill:#ace3ff;"/><rect x="25" y="41" width="12" height="14" style="fill:#f9efde;"/><rect x="43" y="41" width="12" height="14" style="fill:#f9efde;"/><path d="M45,5v8H3V5A2,2,0,0,1,5,3H43A2,2,0,0,1,45,5Z" style="fill:#f283a5;"/><path d="M41,12H37a1,1,0,0,0,0,2h4a1,1,0,0,0,0-2Z" style="fill:#8d6c9f;"/><path d="M11,6a1,1,0,0,0-1,1V9a1,1,0,0,0,2,0V7A1,1,0,0,0,11,6Z" style="fill:#8d6c9f;"/><path d="M6,6A1,1,0,0,0,5,7V9A1,1,0,0,0,7,9V7A1,1,0,0,0,6,6Z" style="fill:#8d6c9f;"/><path d="M26,6a1,1,0,0,0-1,1V9a1,1,0,0,0,2,0V7A1,1,0,0,0,26,6Z" style="fill:#8d6c9f;"/><path d="M31,6a1,1,0,0,0-1,1V9a1,1,0,0,0,2,0V7A1,1,0,0,0,31,6Z" style="fill:#8d6c9f;"/><path d="M36,10a1,1,0,0,0,1-1V7a1,1,0,0,0-2,0V9A1,1,0,0,0,36,10Z" style="fill:#8d6c9f;"/><path d="M41,10a1,1,0,0,0,1-1V7a1,1,0,0,0-2,0V9A1,1,0,0,0,41,10Z" style="fill:#8d6c9f;"/><path d="M16,6a1,1,0,0,0-1,1V9a1,1,0,0,0,2,0V7A1,1,0,0,0,16,6Z" style="fill:#8d6c9f;"/><path d="M21,6a1,1,0,0,0-1,1V9a1,1,0,0,0,2,0V7A1,1,0,0,0,21,6Z" style="fill:#8d6c9f;"/><path d="M59,24H46V5a3,3,0,0,0-3-3H5A3,3,0,0,0,2,5V37a3,3,0,0,0,3,3H18V59a3,3,0,0,0,3,3H59a3,3,0,0,0,3-3V27A3,3,0,0,0,59,24ZM18,38H5a1,1,0,0,1-1-1V14H33a1,1,0,0,0,0-2H4V5A1,1,0,0,1,5,4H43a1,1,0,0,1,1,1V24H40V19a1,1,0,0,0-1-1H27a1,1,0,0,0-1,1v5H22V19a1,1,0,0,0-1-1H9a1,1,0,0,0-1,1V33a1,1,0,0,0,1,1h9ZM38,24H28V20H38ZM18,27v5H10V20H20v4.19A3,3,0,0,0,18,27ZM60,59a1,1,0,0,1-1,1H21a1,1,0,0,1-1-1V36H49a1,1,0,0,0,0-2H20V27a1,1,0,0,1,1-1H59a1,1,0,0,1,1,1Z" style="fill:#8d6c9f;"/><path d="M57,34H53a1,1,0,0,0,0,2h4a1,1,0,0,0,0-2Z" style="fill:#8d6c9f;"/><path d="M27,28a1,1,0,0,0-1,1v2a1,1,0,0,0,2,0V29A1,1,0,0,0,27,28Z" style="fill:#8d6c9f;"/><path d="M22,28a1,1,0,0,0-1,1v2a1,1,0,0,0,2,0V29A1,1,0,0,0,22,28Z" style="fill:#8d6c9f;"/><path d="M42,28a1,1,0,0,0-1,1v2a1,1,0,0,0,2,0V29A1,1,0,0,0,42,28Z" style="fill:#8d6c9f;"/><path d="M47,28a1,1,0,0,0-1,1v2a1,1,0,0,0,2,0V29A1,1,0,0,0,47,28Z" style="fill:#8d6c9f;"/><path d="M52,32a1,1,0,0,0,1-1V29a1,1,0,0,0-2,0v2A1,1,0,0,0,52,32Z" style="fill:#8d6c9f;"/><path d="M57,28a1,1,0,0,0-1,1v2a1,1,0,0,0,2,0V29A1,1,0,0,0,57,28Z" style="fill:#8d6c9f;"/><path d="M32,28a1,1,0,0,0-1,1v2a1,1,0,0,0,2,0V29A1,1,0,0,0,32,28Z" style="fill:#8d6c9f;"/><path d="M37,28a1,1,0,0,0-1,1v2a1,1,0,0,0,2,0V29A1,1,0,0,0,37,28Z" style="fill:#8d6c9f;"/><path d="M55,40H43a1,1,0,0,0-1,1V55a1,1,0,0,0,1,1H55a1,1,0,0,0,1-1V41A1,1,0,0,0,55,40ZM54,54H44V42H54Z" style="fill:#8d6c9f;"/><path d="M37,40H25a1,1,0,0,0-1,1V55a1,1,0,0,0,1,1H37a1,1,0,0,0,1-1V41A1,1,0,0,0,37,40ZM36,54H26V42H36Z" style="fill:#8d6c9f;"/></svg>