<svg xmlns="http://www.w3.org/2000/svg" id="Layer_1" data-name="Layer 1" viewBox="0 0 64 64" width="128" height="128"><title>Dusk Part 1</title><polygon points="58 13 24 47 8 31 4 35 20 51 24 55 28 51 62 17 58 13" style="fill:#72caaf;"/><path d="M24,50.08a2.49,2.49,0,0,1-1.77-.73L5.94,33.06l2.12-2.12L24,46.88,57.94,12.94l2.12,2.12L25.77,49.35A2.49,2.49,0,0,1,24,50.08Z" style="fill:#97e0bb;"/><path d="M62.71,16.29l-4-4a1,1,0,0,0-1.41,0L24,45.59,8.71,30.29a1,1,0,0,0-1.41,0l-4,4a1,1,0,0,0,0,1.41l20,20a1,1,0,0,0,1.41,0l38-38A1,1,0,0,0,62.71,16.29ZM24,53.59,5.41,35,8,32.41,23.29,47.71a1,1,0,0,0,1.41,0L58,14.41,60.59,17Z" style="fill:#8d6c9f;"/><path d="M23.93,38.49a1,1,0,0,0,1.41-1.41l-1.41-1.41a1,1,0,0,0-1.41,1.41Z" style="fill:#8d6c9f;"/><path d="M27.46,34.95a1,1,0,0,0,1.41-1.41l-1.41-1.41a1,1,0,0,0-1.41,1.41Z" style="fill:#8d6c9f;"/><path d="M31,31.41A1,1,0,0,0,32.41,30L31,28.59A1,1,0,0,0,29.59,30Z" style="fill:#8d6c9f;"/><path d="M34.54,27.88a1,1,0,0,0,1.41-1.41l-1.41-1.41a1,1,0,0,0-1.41,1.41Z" style="fill:#8d6c9f;"/><path d="M38.07,24.34a1,1,0,0,0,1.41-1.41l-1.41-1.41a1,1,0,0,0-1.41,1.41Z" style="fill:#8d6c9f;"/><path d="M41.61,20.81A1,1,0,0,0,43,19.39L41.61,18a1,1,0,0,0-1.41,1.41Z" style="fill:#8d6c9f;"/><path d="M45.14,17.27a1,1,0,0,0,1.42-1.41l-1.41-1.42a1,1,0,0,0-1.42,1.41Z" style="fill:#8d6c9f;"/><path d="M48.68,13.74a1,1,0,0,0,1.41-1.41l-1.41-1.41a1,1,0,0,0-1.41,1.41Z" style="fill:#8d6c9f;"/><path d="M52.14,10.27a1,1,0,0,0,1.42-1.41L52.14,7.44a1,1,0,0,0-1.42,1.41Z" style="fill:#8d6c9f;"/></svg>