<svg xmlns="http://www.w3.org/2000/svg" id="Layer_1" data-name="Layer 1" viewBox="0 0 64 64" width="128" height="128"><title>Icons8 RSL Colored Part 5</title><circle cx="32" cy="32" r="28" style="fill:#85cbf8;"/><path d="M32,4A28,28,0,1,0,60,32,28,28,0,0,0,32,4Zm0,50A22,22,0,1,1,47.17,16.07l.68.67q.39.4.75.82A22,22,0,0,1,32,54Z" style="fill:#f9e3ae;"/><path d="M32,54A22,22,0,0,1,10,32H8.34a4,4,0,0,0-3.95,4.71,28,28,0,0,0,55.21,0A4,4,0,0,0,55.66,32H54A22,22,0,0,1,32,54Z" style="fill:#f6d397;"/><circle cx="32" cy="32" r="4" style="fill:#f9efde;"/><path d="M32,37a5,5,0,1,1,5-5A5,5,0,0,1,32,37Zm0-8a3,3,0,1,0,3,3A3,3,0,0,0,32,29Z" style="fill:#8d6c9f;"/><path d="M32,3A29,29,0,1,0,61,32,29,29,0,0,0,32,3Zm0,56A27,27,0,1,1,59,32,27,27,0,0,1,32,59Z" style="fill:#8d6c9f;"/><path d="M32,51a1,1,0,0,0-1,1v2a1,1,0,0,0,2,0V52A1,1,0,0,0,32,51Z" style="fill:#8d6c9f;"/><path d="M38,51.08a1,1,0,0,0-1.93.52l.52,1.93A1,1,0,0,0,38.53,53Z" style="fill:#8d6c9f;"/><path d="M22.75,48.52a1,1,0,0,0-1.37.37l-1,1.73a1,1,0,0,0,1.73,1l1-1.73A1,1,0,0,0,22.75,48.52Z" style="fill:#8d6c9f;"/><path d="M42.62,48.89a1,1,0,0,0-1.73,1l1,1.73a1,1,0,0,0,1.73-1Z" style="fill:#8d6c9f;"/><path d="M27.21,50.37a1,1,0,0,0-1.22.71L25.47,53a1,1,0,1,0,1.93.52l.52-1.93A1,1,0,0,0,27.21,50.37Z" style="fill:#8d6c9f;"/><path d="M41.9,13.35a1,1,0,0,0,.45-1.89,22.82,22.82,0,0,0-2.3-1,1,1,0,1,0-.7,1.87,21.2,21.2,0,0,1,2.1.92A1,1,0,0,0,41.9,13.35Z" style="fill:#8d6c9f;"/><path d="M36.48,10.44a1,1,0,0,0-.83-1.15,23,23,0,0,0-19.92,39,1,1,0,0,0,1.41-1.41A21,21,0,0,1,35.34,11.27,1,1,0,0,0,36.48,10.44Z" style="fill:#8d6c9f;"/><path d="M48.26,15.74a23.35,23.35,0,0,0-2.09-1.86,1,1,0,1,0-1.23,1.57,21.35,21.35,0,0,1,1.91,1.7,21,21,0,0,1,0,29.7,1,1,0,1,0,1.41,1.41A23,23,0,0,0,48.26,15.74Z" style="fill:#8d6c9f;"/></svg>