<svg xmlns="http://www.w3.org/2000/svg" id="Layer_1" data-name="Layer 1" viewBox="0 0 64 64" width="128" height="128"><title>Icons8 RSL Colored Part 10</title><path d="M60.9,11V51a2,2,0,0,1-2,2H22.77a4,4,0,0,1-3.07-1.43L17,48.34,3.56,32.28a2,2,0,0,1,0-2.56L19.7,10.43A4,4,0,0,1,22.77,9H58.9A2,2,0,0,1,60.9,11Z" style="fill:#ed7899;"/><path d="M57.9,48a3,3,0,0,1,3,3h0a2,2,0,0,1-2,2H22.77a4,4,0,0,1-3.08-1.44L17,48.34V48Z" style="fill:#e0678f;"/><path d="M57.9,14a3,3,0,0,0,3-3h0a2,2,0,0,0-2-2H22.76a4,4,0,0,0-3.06,1.43L17,13.66V14Z" style="fill:#f283a5;"/><path d="M58.9,8H22.77a5,5,0,0,0-3.83,1.79L2.8,29.07a3,3,0,0,0,0,3.85L18.94,52.21A5,5,0,0,0,22.77,54H58.9a3,3,0,0,0,3-3V11A3,3,0,0,0,58.9,8ZM60,51a1.09,1.09,0,0,1-1.1,1H22.77a3,3,0,0,1-2.3-1.07L18.95,49.1a.92.92,0,0,0,0-.1V47a1,1,0,0,0-1-1,1,1,0,0,0-1,.79L4.33,31.64a1,1,0,0,1,0-1.29L20.47,11.07A3,3,0,0,1,22.77,10H58.9A1.09,1.09,0,0,1,60,11Z" style="fill:#8d6c9f;"/><path d="M23,46a1,1,0,0,0-1,1v2a1,1,0,0,0,2,0V47A1,1,0,0,0,23,46Z" style="fill:#8d6c9f;"/><path d="M28,46a1,1,0,0,0-1,1v2a1,1,0,0,0,2,0V47A1,1,0,0,0,28,46Z" style="fill:#8d6c9f;"/><path d="M33,46a1,1,0,0,0-1,1v2a1,1,0,0,0,2,0V47A1,1,0,0,0,33,46Z" style="fill:#8d6c9f;"/><path d="M38,46a1,1,0,0,0-1,1v2a1,1,0,0,0,2,0V47A1,1,0,0,0,38,46Z" style="fill:#8d6c9f;"/><path d="M43,46a1,1,0,0,0-1,1v2a1,1,0,0,0,2,0V47A1,1,0,0,0,43,46Z" style="fill:#8d6c9f;"/><path d="M48,46a1,1,0,0,0-1,1v2a1,1,0,0,0,2,0V47A1,1,0,0,0,48,46Z" style="fill:#8d6c9f;"/><path d="M53,46a1,1,0,0,0-1,1v2a1,1,0,0,0,2,0V47A1,1,0,0,0,53,46Z" style="fill:#8d6c9f;"/><path d="M58,46a1,1,0,0,0-1,1v2a1,1,0,0,0,2,0V47A1,1,0,0,0,58,46Z" style="fill:#8d6c9f;"/><path d="M47.7,39.68a1,1,0,0,0,0-1.41L38.48,29l9.25-9.28a1,1,0,0,0-1.42-1.41l-9.25,9.28L27.7,18.26a1,1,0,0,0-1.41,1.41L35.66,29l-9.31,9.34a1,1,0,1,0,1.42,1.41l9.31-9.34,9.22,9.22a1,1,0,0,0,1.41,0Z" style="fill:#faefde;"/></svg>