<svg xmlns="http://www.w3.org/2000/svg" id="Layer_1" data-name="Layer 1" viewBox="0 0 64 64" width="128" height="128"><title>Icons8 RSL Colored Part 11</title><rect x="7" y="7" width="48" height="50" rx="2" ry="2" style="fill:#c2cde7;"/><path d="M11,52H51a4,4,0,0,1,4,4v0a1,1,0,0,1-1,1H8a1,1,0,0,1-1-1v0a4,4,0,0,1,4-4Z" style="fill:#acb7d0;"/><path d="M51,30H40.34l3.36-3.36a1,1,0,0,0-1.41-1.41l-5.07,5.07a1,1,0,0,0,0,1.41l5.07,5.07a1,1,0,0,0,1.41-1.41L40.34,32H51a1,1,0,0,0,0-2Z" style="fill:#8d6c9f;"/><path d="M24.78,30.29l-5.07-5.07a1,1,0,0,0-1.41,1.41L21.66,30H11a1,1,0,0,0,0,2H21.66l-3.36,3.36a1,1,0,1,0,1.41,1.41l5.07-5.07A1,1,0,0,0,24.78,30.29Z" style="fill:#8d6c9f;"/><path d="M31.71,37.22a1,1,0,0,0-1.41,0l-5.07,5.07a1,1,0,0,0,1.41,1.41L30,40.34V53a1,1,0,0,0,2,0V40.34l3.36,3.36a1,1,0,0,0,1.41-1.41Z" style="fill:#8d6c9f;"/><path d="M30.29,24.78a1,1,0,0,0,1.41,0l5.07-5.07a1,1,0,0,0-1.41-1.41L32,21.66V11a1,1,0,0,0-2,0V21.66l-3.36-3.36a1,1,0,0,0-1.41,1.41Z" style="fill:#8d6c9f;"/><circle cx="31" cy="31" r="2" style="fill:#8d6c9f;"/><path d="M53,6H9A3,3,0,0,0,6,9V55a3,3,0,0,0,3,3H53a3,3,0,0,0,3-3V9A3,3,0,0,0,53,6Zm1,49a1,1,0,0,1-1,1H9a1,1,0,0,1-1-1V9A1,1,0,0,1,9,8H53a1,1,0,0,1,1,1Z" style="fill:#8d6c9f;"/><path d="M16,50a1,1,0,0,0-1,1v2a1,1,0,0,0,2,0V51A1,1,0,0,0,16,50Z" style="fill:#8d6c9f;"/><path d="M11,50a1,1,0,0,0-1,1v2a1,1,0,0,0,2,0V51A1,1,0,0,0,11,50Z" style="fill:#8d6c9f;"/><path d="M36,50a1,1,0,0,0-1,1v2a1,1,0,0,0,2,0V51A1,1,0,0,0,36,50Z" style="fill:#8d6c9f;"/><path d="M41,50a1,1,0,0,0-1,1v2a1,1,0,0,0,2,0V51A1,1,0,0,0,41,50Z" style="fill:#8d6c9f;"/><path d="M46,50a1,1,0,0,0-1,1v2a1,1,0,0,0,2,0V51A1,1,0,0,0,46,50Z" style="fill:#8d6c9f;"/><path d="M51,50a1,1,0,0,0-1,1v2a1,1,0,0,0,2,0V51A1,1,0,0,0,51,50Z" style="fill:#8d6c9f;"/><path d="M21,50a1,1,0,0,0-1,1v2a1,1,0,0,0,2,0V51A1,1,0,0,0,21,50Z" style="fill:#8d6c9f;"/><path d="M26,50a1,1,0,0,0-1,1v2a1,1,0,0,0,2,0V51A1,1,0,0,0,26,50Z" style="fill:#8d6c9f;"/></svg>