<svg xmlns="http://www.w3.org/2000/svg" id="Layer_1" data-name="Layer 1" viewBox="0 0 64 64" width="128" height="128"><title>Dusk Part 1</title><path d="M8,49H38s6,10,11,9c-1-4-1.67-9-1.67-9H56a3,3,0,0,0,3-3V12a3,3,0,0,0-3-3H8a3,3,0,0,0-3,3V46A3,3,0,0,0,8,49Z" style="fill:#c2cde7;"/><polygon points="41 45 58.56 27.44 58 14 27 45 41 45" style="fill:#ced9ed;"/><polygon points="18 46 16 45 52 9 56.5 9 57.38 10.19 19 48.56 18 46" style="fill:#ced9ed;"/><polygon points="11 45 7 45 43 9 47 9 11 45" style="fill:#ced9ed;"/><polygon points="49.5 32 50.74 34.26 53 35.5 50.74 36.74 49.5 39 48.26 36.74 46 35.5 48.26 34.26 49.5 32" style="fill:#e9ecf2;"/><polygon points="36.42 13 37.27 14.56 38.84 15.42 37.27 16.27 36.42 17.84 35.56 16.27 34 15.42 35.56 14.56 36.42 13" style="fill:#e9ecf2;"/><polygon points="13.65 34 14.23 35.06 15.3 35.65 14.23 36.23 13.65 37.3 13.06 36.23 12 35.65 13.06 35.06 13.65 34" style="fill:#e9ecf2;"/><path d="M59,48h0a1,1,0,0,1-1,1H47.33S48,54,49,58c-5,1-11-9-11-9H6a1,1,0,0,1-1-1H5a4,4,0,0,1,4-4H55A4,4,0,0,1,59,48Z" style="fill:#acb7d0;"/><path d="M57,8H7a3,3,0,0,0-3,3V47a3,3,0,0,0,3,3H37.34A18.21,18.21,0,0,0,49.78,60L50,60a1,1,0,0,0,.86-1.51A21.08,21.08,0,0,1,48.07,50H57a3,3,0,0,0,3-3V11A3,3,0,0,0,57,8Zm1,39a1,1,0,0,1-1,1H47a1,1,0,0,0-1,1,22.06,22.06,0,0,0,2,8.37,16.65,16.65,0,0,1-9.08-8.72A1,1,0,0,0,38,48H7a1,1,0,0,1-1-1V11a1,1,0,0,1,1-1H57a1,1,0,0,1,1,1Z" style="fill:#8d6c9f;"/><path d="M49,42a1,1,0,0,0-1,1v2a1,1,0,0,0,2,0V43A1,1,0,0,0,49,42Z" style="fill:#8d6c9f;"/><path d="M54,42a1,1,0,0,0-1,1v2a1,1,0,0,0,2,0V43A1,1,0,0,0,54,42Z" style="fill:#8d6c9f;"/><path d="M44,42a1,1,0,0,0-1,1v2a1,1,0,0,0,2,0V43A1,1,0,0,0,44,42Z" style="fill:#8d6c9f;"/><path d="M39,42a1,1,0,0,0-1,1v2a1,1,0,0,0,2,0V43A1,1,0,0,0,39,42Z" style="fill:#8d6c9f;"/><path d="M34,42a1,1,0,0,0-1,1v2a1,1,0,0,0,2,0V43A1,1,0,0,0,34,42Z" style="fill:#8d6c9f;"/><path d="M29,42a1,1,0,0,0-1,1v2a1,1,0,0,0,2,0V43A1,1,0,0,0,29,42Z" style="fill:#8d6c9f;"/><path d="M24,42a1,1,0,0,0-1,1v2a1,1,0,0,0,2,0V43A1,1,0,0,0,24,42Z" style="fill:#8d6c9f;"/><path d="M19,42a1,1,0,0,0-1,1v2a1,1,0,0,0,2,0V43A1,1,0,0,0,19,42Z" style="fill:#8d6c9f;"/><path d="M14,42a1,1,0,0,0-1,1v2a1,1,0,0,0,2,0V43A1,1,0,0,0,14,42Z" style="fill:#8d6c9f;"/><path d="M9,42a1,1,0,0,0-1,1v2a1,1,0,0,0,2,0V43A1,1,0,0,0,9,42Z" style="fill:#8d6c9f;"/><path d="M47,24H43a1,1,0,0,0,0,2h4a1,1,0,0,0,0-2Z" style="fill:#8d6c9f;"/><path d="M17,26H39a1,1,0,0,0,0-2H17a1,1,0,0,0,0,2Z" style="fill:#8d6c9f;"/><path d="M44,31a1,1,0,0,0-1-1H17a1,1,0,0,0,0,2H43A1,1,0,0,0,44,31Z" style="fill:#8d6c9f;"/></svg>