<svg xmlns="http://www.w3.org/2000/svg" id="Layer_1" data-name="Layer 1" viewBox="0 0 64 64" width="128" height="128"><title>Icons8 RSL Colored Part 10</title><circle cx="31" cy="31" r="28" style="fill:#ed7899;"/><path d="M31,3A28,28,0,1,0,59,31,28,28,0,0,0,31,3Zm0,50A22,22,0,1,1,46.17,15.07l.68.67q.39.4.75.82A22,22,0,0,1,31,53Z" style="fill:#f9e3ae;"/><path d="M31,53A22,22,0,0,1,9,31H7.34a4,4,0,0,0-3.95,4.71,28,28,0,0,0,55.21,0A4,4,0,0,0,54.66,31H53A22,22,0,0,1,31,53Z" style="fill:#f6d397;"/><rect x="17" y="27" width="28" height="8" style="fill:#faefde;"/><path d="M31,2A29,29,0,1,0,60,31,29,29,0,0,0,31,2Zm0,56A27,27,0,1,1,58,31,27,27,0,0,1,31,58Z" style="fill:#8d6c9f;"/><path d="M31,49a1,1,0,0,0-1,1v2a1,1,0,0,0,2,0V50A1,1,0,0,0,31,49Z" style="fill:#8d6c9f;"/><path d="M37,49.08a1,1,0,0,0-1.93.52l.52,1.93A1,1,0,0,0,37.53,51Z" style="fill:#8d6c9f;"/><path d="M21.75,46.52a1,1,0,0,0-1.37.37l-1,1.73a1,1,0,0,0,1.73,1l1-1.73A1,1,0,0,0,21.75,46.52Z" style="fill:#8d6c9f;"/><path d="M41.62,46.89a1,1,0,0,0-1.73,1l1,1.73a1,1,0,0,0,1.73-1Z" style="fill:#8d6c9f;"/><path d="M26.21,48.37a1,1,0,0,0-1.22.71L24.47,51a1,1,0,1,0,1.93.52l.52-1.93A1,1,0,0,0,26.21,48.37Z" style="fill:#8d6c9f;"/><path d="M46,35V27a1,1,0,0,0-1-1H17a1,1,0,0,0-1,1v8a1,1,0,0,0,1,1H45A1,1,0,0,0,46,35Zm-2-1H18V28H44Z" style="fill:#8d6c9f;"/><path d="M38.35,11.32a21.2,21.2,0,0,1,2.1.92,1,1,0,1,0,.9-1.79,22.82,22.82,0,0,0-2.3-1,1,1,0,1,0-.7,1.87Z" style="fill:#8d6c9f;"/><path d="M16.15,16.15a21.07,21.07,0,0,1,18.19-5.89,1,1,0,1,0,.32-2,23,23,0,0,0-19.92,39,1,1,0,0,0,1.41-1.41A21,21,0,0,1,16.15,16.15Z" style="fill:#8d6c9f;"/><path d="M47.26,14.74a23.35,23.35,0,0,0-2.09-1.86,1,1,0,1,0-1.23,1.57,21.35,21.35,0,0,1,1.91,1.7,21,21,0,0,1,0,29.7,1,1,0,1,0,1.41,1.41A23,23,0,0,0,47.26,14.74Z" style="fill:#8d6c9f;"/></svg>