<svg xmlns="http://www.w3.org/2000/svg" id="Layer_1" data-name="Layer 1" viewBox="0 0 64 64" width="128" height="128"><title>Dusk Part 1</title><path d="M57,49H6a3,3,0,0,1-3-3V8A3,3,0,0,1,6,5H21l9,6H54a3,3,0,0,1,3,3Z" style="fill:#faefde;"/><path d="M6,5H22l7,7H3V8A3,3,0,0,1,6,5Z" style="fill:#fff7f0;"/><path d="M57,15h4a2,2,0,0,1,2,2V46a3,3,0,0,1-3,3H57a0,0,0,0,1,0,0V15A0,0,0,0,1,57,15Z" style="fill:#cda1a7;"/><path d="M3,39H57a0,0,0,0,1,0,0V49a0,0,0,0,1,0,0H6a3,3,0,0,1-3-3V39A0,0,0,0,1,3,39Z" style="fill:#efd8be;"/><path d="M61,14H58V13a3,3,0,0,0-3-3H29.71a3,3,0,0,1-2.11-.87L23.87,5.45A5,5,0,0,0,20.36,4H5A3,3,0,0,0,2,7V46a4,4,0,0,0,4,4H60a4,4,0,0,0,4-4V17A3,3,0,0,0,61,14ZM6,48a2,2,0,0,1-2-2V40H25a1,1,0,0,0,0-2H4V7A1,1,0,0,1,5,6H20.36a3,3,0,0,1,2.11.87l3.73,3.69A5,5,0,0,0,29.71,12H55a1,1,0,0,1,1,1V38H39a1,1,0,0,0,0,2H56v6a3.94,3.94,0,0,0,.63,2Zm56-2a2,2,0,0,1-2,2,2.26,2.26,0,0,1-2-2V16h3a1,1,0,0,1,1,1Z" style="fill:#8d6c9f;"/><path d="M6,42a1,1,0,0,0-1,1v2a1,1,0,0,0,2,0V43A1,1,0,0,0,6,42Z" style="fill:#8d6c9f;"/><path d="M11,42a1,1,0,0,0-1,1v2a1,1,0,0,0,2,0V43A1,1,0,0,0,11,42Z" style="fill:#8d6c9f;"/><path d="M16,42a1,1,0,0,0-1,1v2a1,1,0,0,0,2,0V43A1,1,0,0,0,16,42Z" style="fill:#8d6c9f;"/><path d="M21,42a1,1,0,0,0-1,1v2a1,1,0,0,0,2,0V43A1,1,0,0,0,21,42Z" style="fill:#8d6c9f;"/><path d="M26,42a1,1,0,0,0-1,1v2a1,1,0,0,0,2,0V43A1,1,0,0,0,26,42Z" style="fill:#8d6c9f;"/><path d="M38,42a1,1,0,0,0-1,1v2a1,1,0,0,0,2,0V43A1,1,0,0,0,38,42Z" style="fill:#8d6c9f;"/><path d="M43,42a1,1,0,0,0-1,1v2a1,1,0,0,0,2,0V43A1,1,0,0,0,43,42Z" style="fill:#8d6c9f;"/><path d="M48,42a1,1,0,0,0-1,1v2a1,1,0,0,0,2,0V43A1,1,0,0,0,48,42Z" style="fill:#8d6c9f;"/><path d="M53,42a1,1,0,0,0-1,1v2a1,1,0,0,0,2,0V43A1,1,0,0,0,53,42Z" style="fill:#8d6c9f;"/><polygon points="35 27 35 52 39 48 43 52 32 63 21 52 25 48 29 52 29 27 35 27" style="fill:#c2cde7;"/><path d="M32.71,63.71l11-11a1,1,0,0,0,0-1.41l-4-4a1,1,0,0,0-1.41,0L36,49.59V27a1,1,0,0,0-1-1H29a1,1,0,0,0-1,1V49.59l-2.29-2.29a1,1,0,0,0-1.41,0l-4,4a1,1,0,0,0,0,1.41l11,11A1,1,0,0,0,32.71,63.71ZM22.41,52,25,49.41l3.29,3.29A1,1,0,0,0,30,52V28h4V52a1,1,0,0,0,1.71.71L39,49.41,41.59,52,32,61.59Z" style="fill:#8d6c9f;"/></svg>