<svg xmlns="http://www.w3.org/2000/svg" id="Layer_1" data-name="Layer 1" viewBox="0 0 64 64" width="128" height="128"><title>Dusk Part 1</title><polygon points="61 29 31.95 12 3 29 3 32 32 45 61 32 61 29" style="fill:#acb7d0;"/><path d="M22.24,4.94H48a3,3,0,0,1,3,3v28l-19.05,9L13,35.94V14.18a3,3,0,0,1,.88-2.12l6.24-6.24A3,3,0,0,1,22.24,4.94Z" style="fill:#bbdef9;"/><polygon points="51 29.47 51 8.63 25.07 41.38 29 44 37 43 42.3 40.47 51 29.47" style="fill:#cce7fc;"/><polygon points="22.79 40 50.5 5 46 5 19 39.1 22.79 40" style="fill:#cce7fc;"/><polygon points="16 38.21 43.5 5 42 5 15 37.53 16 38.21" style="fill:#cce7fc;"/><polygon points="44.5 21 45.74 23.26 48 24.5 45.74 25.74 44.5 28 43.26 25.74 41 24.5 43.26 23.26 44.5 21" style="fill:#fff;"/><polygon points="32.42 8 33.27 9.56 34.84 10.42 33.27 11.27 32.42 12.84 31.56 11.27 30 10.42 31.56 9.56 32.42 8" style="fill:#fff;"/><polygon points="31.65 38 32.23 39.06 33.3 39.65 32.23 40.23 31.65 41.3 31.07 40.23 30 39.65 31.07 39.06 31.65 38" style="fill:#fff;"/><polygon points="23 4.94 23 14.94 13 14.94 23 4.94" style="fill:#ffefb8;"/><path d="M59,59.23H4.89a2,2,0,0,1-2-2V31.87L32,44.87l29-13V57.23A2,2,0,0,1,59,59.23Z" style="fill:#faefde;"/><path d="M6.89,52H57a4,4,0,0,1,4,4v1.23a2,2,0,0,1-2,2H4.89a2,2,0,0,1-2-2V56A4,4,0,0,1,6.89,52Z" style="fill:#efd8be;"/><path d="M60.54,27.56,52,22.43V7a3,3,0,0,0-3-3H23.66a5,5,0,0,0-3.54,1.46l-6.66,6.66A5,5,0,0,0,12,15.66v6.78L3.46,27.56A3,3,0,0,0,2,30.13V57a3,3,0,0,0,3,3H59a3,3,0,0,0,3-3V30.13A3,3,0,0,0,60.54,27.56Zm-39-20.68A3,3,0,0,1,22,6.5V13a1,1,0,0,1-1,1H14.5a3,3,0,0,1,.38-.46Zm-17,22.4L12,24.77V31a1,1,0,0,0,2,0V16h7a3,3,0,0,0,3-3V6H49a1,1,0,0,1,1,1V31a1,1,0,0,0,2,0V24.77l7.51,4.51a1,1,0,0,1,.49.86v1.22l-26.77,12a3,3,0,0,1-2.45,0L4,31.35V30.13A1,1,0,0,1,4.49,29.27ZM59,58H5a1,1,0,0,1-1-1V33.54L30,45.18a5,5,0,0,0,4.09,0L60,33.54V57A1,1,0,0,1,59,58Z" style="fill:#8d6c9f;"/><path d="M12,50a1,1,0,0,0-1,1v2a1,1,0,0,0,2,0V51A1,1,0,0,0,12,50Z" style="fill:#8d6c9f;"/><path d="M7,50a1,1,0,0,0-1,1v2a1,1,0,0,0,2,0V51A1,1,0,0,0,7,50Z" style="fill:#8d6c9f;"/><path d="M17,50a1,1,0,0,0-1,1v2a1,1,0,0,0,2,0V51A1,1,0,0,0,17,50Z" style="fill:#8d6c9f;"/><path d="M22,50a1,1,0,0,0-1,1v2a1,1,0,0,0,2,0V51A1,1,0,0,0,22,50Z" style="fill:#8d6c9f;"/><path d="M27,50a1,1,0,0,0-1,1v2a1,1,0,0,0,2,0V51A1,1,0,0,0,27,50Z" style="fill:#8d6c9f;"/><path d="M32,50a1,1,0,0,0-1,1v2a1,1,0,0,0,2,0V51A1,1,0,0,0,32,50Z" style="fill:#8d6c9f;"/><path d="M37,50a1,1,0,0,0-1,1v2a1,1,0,0,0,2,0V51A1,1,0,0,0,37,50Z" style="fill:#8d6c9f;"/><path d="M42,50a1,1,0,0,0-1,1v2a1,1,0,0,0,2,0V51A1,1,0,0,0,42,50Z" style="fill:#8d6c9f;"/><path d="M47,50a1,1,0,0,0-1,1v2a1,1,0,0,0,2,0V51A1,1,0,0,0,47,50Z" style="fill:#8d6c9f;"/><path d="M52,50a1,1,0,0,0-1,1v2a1,1,0,0,0,2,0V51A1,1,0,0,0,52,50Z" style="fill:#8d6c9f;"/><path d="M57,50a1,1,0,0,0-1,1v2a1,1,0,0,0,2,0V51A1,1,0,0,0,57,50Z" style="fill:#8d6c9f;"/><path d="M31,36h6a1,1,0,0,0,0-2H31a5,5,0,0,1-5-5V23a5,5,0,0,1,5-5h2a5,5,0,0,1,5,5v6a1,1,0,0,1-2,0V24a4,4,0,0,0-8,0v4a4,4,0,0,0,6.71,2.92A3,3,0,0,0,40,29V23a7,7,0,0,0-7-7H31a7,7,0,0,0-7,7v6A7,7,0,0,0,31,36Zm1-6a2,2,0,0,1-2-2V24a2,2,0,0,1,4,0v4A2,2,0,0,1,32,30Z" style="fill:#8d6c9f;"/></svg>