<svg xmlns="http://www.w3.org/2000/svg" id="Layer_1" data-name="Layer 1" viewBox="0 0 64 64" width="128" height="128"><title>Icons8 RSL Colored Part 7</title><path d="M59,7V57a2,2,0,0,1-2,2H23a2,2,0,0,1-.91-.22A2,2,0,0,1,21,57V7a2,2,0,0,1,2-2H57a2,2,0,0,1,.56.08A2,2,0,0,1,59,7Z" style="fill:#c2cde7;"/><path d="M59.56,23.44,59,24,26.22,56.78H22.09A2,2,0,0,1,21,55V48L59,10Z" style="fill:#ced9ed;"/><polygon points="58.38 6.19 21 43.56 21 37 53 5 57.5 5 57.56 5.08 58.38 6.19" style="fill:#ced9ed;"/><polygon points="48 5 21 32 21 28 44 5 48 5" style="fill:#ced9ed;"/><path d="M59,58.56h0a1,1,0,0,1-1,1H22a1,1,0,0,1-1-1h0a4,4,0,0,1,4-4H55A4,4,0,0,1,59,58.56Z" style="fill:#acb7d0;"/><polygon points="30.5 12 31.74 14.26 34 15.5 31.74 16.74 30.5 19 29.26 16.74 27 15.5 29.26 14.26 30.5 12" style="fill:#edf0f4;"/><polygon points="50 40.16 50.85 41.73 52.42 42.58 50.85 43.44 50 45 49.15 43.44 47.58 42.58 49.15 41.73 50 40.16" style="fill:#edf0f4;"/><polygon points="30.65 45 31.23 46.06 32.3 46.65 31.23 47.23 30.65 48.3 30.07 47.23 29 46.65 30.07 46.06 30.65 45" style="fill:#edf0f4;"/><path d="M25,52a1,1,0,0,0-1,1v2a1,1,0,0,0,2,0V53A1,1,0,0,0,25,52Z" style="fill:#8d6c9f;"/><path d="M30,52a1,1,0,0,0-1,1v2a1,1,0,0,0,2,0V53A1,1,0,0,0,30,52Z" style="fill:#8d6c9f;"/><path d="M34,53v2a1,1,0,0,0,2,0V53a1,1,0,0,0-2,0Z" style="fill:#8d6c9f;"/><path d="M40,56a1,1,0,0,0,1-1V53a1,1,0,0,0-2,0v2A1,1,0,0,0,40,56Z" style="fill:#8d6c9f;"/><path d="M45,56a1,1,0,0,0,1-1V53a1,1,0,0,0-2,0v2A1,1,0,0,0,45,56Z" style="fill:#8d6c9f;"/><path d="M50,56a1,1,0,0,0,1-1V53a1,1,0,0,0-2,0v2A1,1,0,0,0,50,56Z" style="fill:#8d6c9f;"/><path d="M55,56a1,1,0,0,0,1-1V53a1,1,0,0,0-2,0v2A1,1,0,0,0,55,56Z" style="fill:#8d6c9f;"/><path d="M60,7a3,3,0,0,0-3-3H23a3,3,0,0,0-3,3V57a3,3,0,0,0,3,3H57a3,3,0,0,0,3-3ZM58,57a1,1,0,0,1-1,1H23a1,1,0,0,1-1-1V7a1,1,0,0,1,1-1H57a1,1,0,0,1,1,1Z" style="fill:#8d6c9f;"/><polygon points="7 29 38 29 34 25 38 21 49 32 38 43 34 39 38 35 7 35 7 29" style="fill:#faefde;"/><path d="M49.71,31.29l-11-11a1,1,0,0,0-1.41,0l-4,4a1,1,0,0,0,0,1.41L35.59,28H7a1,1,0,0,0-1,1v6a1,1,0,0,0,1,1H35.59l-2.29,2.29a1,1,0,0,0,0,1.41l4,4a1,1,0,0,0,1.41,0l11-11A1,1,0,0,0,49.71,31.29ZM38,41.59,35.41,39l3.29-3.29A1,1,0,0,0,38,34H8V30H38a1,1,0,0,0,.71-1.71L35.41,25,38,22.41,47.59,32Z" style="fill:#8d6c9f;"/></svg>