<svg xmlns="http://www.w3.org/2000/svg" id="Layer_1" data-name="Layer 1" viewBox="0 0 64 64" width="128" height="128"><title>Dusk Part 1</title><path d="M60.49,59h-57a2,2,0,0,1-1.72-3L30.32,7.9a2,2,0,0,1,3.44,0L62.21,56A2,2,0,0,1,60.49,59Z" style="fill:#ed7899;"/><polygon points="53.94 53 32.04 16 10.09 53 53.94 53" style="fill:#ffefb8;"/><polygon points="19 53 20.75 53 35.95 22.6 35 21 19 53" style="fill:#fff6df;"/><polygon points="24 53 29.25 53 40.56 30.39 37.71 25.58 24 53" style="fill:#fff6df;"/><polygon points="32.25 53 51.5 53 52.62 50.77 42.18 33.14 32.25 53" style="fill:#fff6df;"/><path d="M33.72,16.94a2,2,0,0,0-3.44,0L10,51a2,2,0,0,0,1.72,3H13a1,1,0,0,0,0-2H11.76L32,18,52.24,52H51a1,1,0,0,0,0,2h1.24A2,2,0,0,0,54,51Z" style="fill:#8d6c9f;"/><path d="M63.07,55.47,34.58,7.39a3,3,0,0,0-5.16,0L.93,55.47A3,3,0,0,0,3.51,60h57a3,3,0,0,0,2.58-4.53Zm-1.71,2a1,1,0,0,1-.87.5h-57a1,1,0,0,1-.86-1.51L31.14,8.41a1,1,0,0,1,1.72,0L61.35,56.49A1,1,0,0,1,61.36,57.5Z" style="fill:#8d6c9f;"/><path d="M17,50a1,1,0,0,0-1,1v2a1,1,0,0,0,2,0V51A1,1,0,0,0,17,50Z" style="fill:#8d6c9f;"/><path d="M32,50a1,1,0,0,0-1,1v2a1,1,0,0,0,2,0V51A1,1,0,0,0,32,50Z" style="fill:#8d6c9f;"/><path d="M37,50a1,1,0,0,0-1,1v2a1,1,0,0,0,2,0V51A1,1,0,0,0,37,50Z" style="fill:#8d6c9f;"/><path d="M42,50a1,1,0,0,0-1,1v2a1,1,0,0,0,2,0V51A1,1,0,0,0,42,50Z" style="fill:#8d6c9f;"/><path d="M47,50a1,1,0,0,0-1,1v2a1,1,0,0,0,2,0V51A1,1,0,0,0,47,50Z" style="fill:#8d6c9f;"/><path d="M22,50a1,1,0,0,0-1,1v2a1,1,0,0,0,2,0V51A1,1,0,0,0,22,50Z" style="fill:#8d6c9f;"/><path d="M27,50a1,1,0,0,0-1,1v2a1,1,0,0,0,2,0V51A1,1,0,0,0,27,50Z" style="fill:#8d6c9f;"/><path d="M32,42a1,1,0,0,0,1-1l.88-12.93a1.93,1.93,0,0,0-.51-1.46,1.86,1.86,0,0,0-1.07-.56,1.93,1.93,0,0,0-.53,0,1.88,1.88,0,0,0-1.22.57,1.93,1.93,0,0,0-.51,1.46L31,41A1,1,0,0,0,32,42Z" style="fill:#8d6c9f;"/><circle cx="32.04" cy="46" r="2" style="fill:#8d6c9f;"/></svg>