<svg xmlns="http://www.w3.org/2000/svg" id="Layer_1" data-name="Layer 1" viewBox="0 0 64 64" width="128" height="128"><title>Icons8 RSL Colored Part 11</title><circle cx="29" cy="31" r="28" style="fill:#c5e4fa;"/><path d="M10.71,52.29a28,28,0,0,0,9.18,5.82L54,24V17.57a28.1,28.1,0,0,0-3.71-4.86Z" style="fill:#e3f2ff;"/><path d="M8.76,50.24,48,11H42L6.22,46.78A28.08,28.08,0,0,0,8.76,50.24Z" style="fill:#e3f2ff;"/><path d="M5.79,43.21,39,10,36,8,4.36,39.64A27.81,27.81,0,0,0,5.79,43.21Z" style="fill:#e3f2ff;"/><path d="M29,3A28,28,0,1,0,57,31,28,28,0,0,0,29,3Zm0,50A22,22,0,1,1,44.17,15.07l.68.67q.39.4.75.82A22,22,0,0,1,29,53Z" style="fill:#72caaf;"/><path d="M29,53A22,22,0,0,1,7,31H5.34a4,4,0,0,0-3.95,4.71,28,28,0,0,0,55.21,0A4,4,0,0,0,52.66,31H51A22,22,0,0,1,29,53Z" style="fill:#66bfa1;"/><path d="M60.32,63H30a2,2,0,0,1-1.68-3.09L43.5,36.58a2,2,0,0,1,3.36,0L62,59.91A2,2,0,0,1,60.32,63Z" style="fill:#f6d397;"/><path d="M29,18a1,1,0,0,0,1-1V15a1,1,0,0,0-2,0v2A1,1,0,0,0,29,18Z" style="fill:#ed7899;"/><path d="M15,30H13a1,1,0,0,0,0,2h2a1,1,0,0,0,0-2Z" style="fill:#8d6c9f;"/><path d="M42,31a1,1,0,0,0,1,1h2a1,1,0,0,0,0-2H43A1,1,0,0,0,42,31Z" style="fill:#ed7899;"/><path d="M29,44a1,1,0,0,0-1,1v2a1,1,0,0,0,2,0V45A1,1,0,0,0,29,44Z" style="fill:#8d6c9f;"/><path d="M33.87,18.95a1,1,0,0,0,1.3-.55l.75-1.85a1,1,0,0,0-1.85-.75l-.75,1.85A1,1,0,0,0,33.87,18.95Z" style="fill:#ed7899;"/><path d="M38,20.24a1,1,0,0,0,1.44,1.39l1.39-1.44a1,1,0,0,0-1.44-1.39Z" style="fill:#ed7899;"/><path d="M40.88,25.71a1,1,0,0,0,.91.59,1,1,0,0,0,.41-.09L44,25.41a1,1,0,0,0-.81-1.83l-1.83.81A1,1,0,0,0,40.88,25.71Z" style="fill:#ed7899;"/><path d="M30.93,31.51A1.94,1.94,0,0,0,30,29.28V21a1,1,0,0,0-2,0v8.28a2,2,0,0,0,1.51,3.65l6.28,6.28a1,1,0,0,0,1.41-1.41Z" style="fill:#8d6c9f;"/><path d="M36.35,11.32a21.1,21.1,0,0,1,2.1.92,1,1,0,0,0,.45.11,1,1,0,0,0,.45-1.89,22.71,22.71,0,0,0-2.3-1,1,1,0,0,0-.7,1.87Z" style="fill:#8d6c9f;"/><path d="M62.83,59.37,54,45.7A29,29,0,1,0,27.25,59.93,3,3,0,0,0,30,64H60.32a3,3,0,0,0,2.52-4.63ZM2,31A27,27,0,1,1,52.74,43.82l-2.56-3.95a23,23,0,0,0-7-27,1,1,0,1,0-1.23,1.57,21.27,21.27,0,0,1,1.91,1.7,21,21,0,0,1,5,21.67L47.69,36a3,3,0,0,0-2.52-1.37h0A3,3,0,0,0,42.66,36L32.52,51.67a20.81,20.81,0,0,1-12.11-1.5,21,21,0,0,1,11.93-39.9,1,1,0,1,0,.32-2A23,23,0,1,0,29,54c.71,0,1.41,0,2.11-.11L28.42,58A27,27,0,0,1,2,31ZM61.2,61.48a1,1,0,0,1-.88.52H30a1,1,0,0,1-.84-1.54L44.34,37.13a1,1,0,0,1,.84-.46h0a1,1,0,0,1,.84.46L61.16,60.46A1,1,0,0,1,61.2,61.48Z" style="fill:#8d6c9f;"/><circle cx="45" cy="57" r="2" style="fill:#8d6c9f;"/><path d="M45,54a1,1,0,0,0,1-.89l.93-8a1.93,1.93,0,0,0-.51-1.46,2,2,0,0,0-2.83,0,2,2,0,0,0-.5,1.49l.92,8A1,1,0,0,0,45,54Z" style="fill:#8d6c9f;"/></svg>