<svg xmlns="http://www.w3.org/2000/svg" id="Layer_1" data-name="Layer 1" viewBox="0 0 64 64" width="128" height="128"><title>Dusk Part 2</title><path d="M14,43H42s6,9,11,8c-1-4-1.67-8-1.67-8H58a3,3,0,0,0,3-3V10a3,3,0,0,0-3-3H14a3,3,0,0,0-3,3V40A3,3,0,0,0,14,43Z" style="fill:#f9e3ae;"/><polygon points="18.65 16 19.23 17.07 20.3 17.65 19.23 18.23 18.65 19.3 18.07 18.23 17 17.65 18.07 17.07 18.65 16" style="fill:#fff8f8;"/><polygon points="43 43 60.56 25.44 60 12 29 43 43 43" style="fill:#ffefca;"/><polygon points="20 44 18 43 54 7 58.5 7 59.38 8.19 21 46.56 20 44" style="fill:#ffefca;"/><polygon points="13 43 9 43 45 7 49 7 13 43" style="fill:#ffefca;"/><polygon points="51.5 30 52.74 32.26 55 33.5 52.74 34.74 51.5 37 50.26 34.74 48 33.5 50.26 32.26 51.5 30" style="fill:#fff8f8;"/><polygon points="46.42 12 47.27 13.56 48.84 14.42 47.27 15.27 46.42 16.84 45.56 15.27 44 14.42 45.56 13.56 46.42 12" style="fill:#fff8f8;"/><path d="M61,42h0a1,1,0,0,1-1,1H51.33S52,47,53,51c-5,1-11-8-11-8H14a3,3,0,0,1-3-3V38H57A4,4,0,0,1,61,42Z" style="fill:#f6d397;"/><path d="M30,51H19s-4,8-9,7c1-4,1.67-7,1.67-7H6a3,3,0,0,1-3-3V28a3,3,0,0,1,3-3H30a3,3,0,0,1,3,3V48A3,3,0,0,1,30,51Z" style="fill:#85cbf8;"/><path d="M19,30H17a5,5,0,0,0-5,5v6a5,5,0,0,0,5,5h2a4.93,4.93,0,0,0,1.43-.23l.64,1.6a1,1,0,0,0,1.86-.74l-.73-1.82A5,5,0,0,0,24,41V35A5,5,0,0,0,19,30Zm1.93,11.63a1,1,0,0,0-1.86.74l.62,1.54A3,3,0,0,1,19,44H17a3,3,0,0,1-3-3V35a3,3,0,0,1,3-3h2a3,3,0,0,1,3,3v6a3,3,0,0,1-.61,1.79Z" style="fill:#f9efde;"/><path d="M59,6H13a3,3,0,0,0-3,3V24H5a3,3,0,0,0-3,3V49a3,3,0,0,0,3,3h5.21a12,12,0,0,1-1.14,5.63A1,1,0,0,0,10,59h.14a10.16,10.16,0,0,0,8.62-7H31a3,3,0,0,0,3-3V44h7.34c.84,1.74,3.72,6.26,11.44,8L53,52a1,1,0,0,0,.86-1.51c-1.89-3.15-2.07-5.42-2-6.49H59a3,3,0,0,0,3-3V9A3,3,0,0,0,59,6ZM32,49a1,1,0,0,1-1,1H18a1,1,0,0,0-1,.83,7.87,7.87,0,0,1-5.46,5.8c1.26-4,.45-5.86.34-6.08A1,1,0,0,0,11,50H5a1,1,0,0,1-1-1V27a1,1,0,0,1,1-1H31a1,1,0,0,1,1,1Zm28-8a1,1,0,0,1-1,1H51a1,1,0,0,0-.95.68c0,.12-.83,2.63,1,6.74-6.46-2.19-8-6.54-8.1-6.74A1,1,0,0,0,42,42H34V27a3,3,0,0,0-1.49-2.58L36,15.69,40.92,28H37a1,1,0,0,0,0,2h4.72l1.35,3.37a1,1,0,0,0,1.86-.74l-8-20a1,1,0,0,0-1.86,0L30.52,24H12V9a1,1,0,0,1,1-1H59a1,1,0,0,1,1,1Z" style="fill:#8d6c9f;"/><path d="M57,36a1,1,0,0,0-1,1v2a1,1,0,0,0,2,0V37A1,1,0,0,0,57,36Z" style="fill:#8d6c9f;"/><path d="M52,36a1,1,0,0,0-1,1v2a1,1,0,0,0,2,0V37A1,1,0,0,0,52,36Z" style="fill:#8d6c9f;"/><path d="M47,36a1,1,0,0,0-1,1v2a1,1,0,0,0,2,0V37A1,1,0,0,0,47,36Z" style="fill:#8d6c9f;"/><path d="M42,36a1,1,0,0,0-1,1v2a1,1,0,0,0,2,0V37A1,1,0,0,0,42,36Z" style="fill:#8d6c9f;"/><path d="M37,36a1,1,0,0,0-1,1v2a1,1,0,0,0,2,0V37A1,1,0,0,0,37,36Z" style="fill:#8d6c9f;"/></svg>