<svg xmlns="http://www.w3.org/2000/svg" id="Layer_1" data-name="Layer 1" viewBox="0 0 64 64" width="128" height="128"><title>Icons8 RSL Colored Part 12</title><circle cx="25" cy="25" r="24" style="fill:#ffeb9b;"/><path d="M11.14,38.86,38.86,11.14a4,4,0,0,1,6.11.54A24,24,0,0,1,11.68,45,4,4,0,0,1,11.14,38.86Z" style="fill:#f6d397;"/><rect x="40.78" y="41.46" width="5.54" height="4" transform="translate(-17.98 43.52) rotate(-45)" style="fill:#dadcec;"/><rect x="48.8" y="41.79" width="8.49" height="22.51" rx="4" ry="4" transform="translate(-21.97 53.04) rotate(-45)" style="fill:#cda1a7;"/><rect x="49.42" y="43.29" width="4.24" height="22.51" rx="2.12" ry="2.12" transform="translate(-23.47 52.42) rotate(-45)" style="fill:#c4939c;"/><circle cx="25" cy="25" r="16" style="fill:#bbdef9;"/><path d="M11.89,29.91a1,1,0,0,0-1.33-.48l-1.81.84a1,1,0,0,0,.85,1.81l1.81-.84A1,1,0,0,0,11.89,29.91Z" style="fill:#8d6c9f;"/><path d="M45.78,25.36l-4.07-4.07a1,1,0,0,0-1.41,0l-4.07,4.07a1,1,0,0,0,1.41,1.41L40,24.45c0,.19,0,.37,0,.55A15,15,0,0,1,20.24,39.23a1,1,0,0,0-.63,1.9A17,17,0,0,0,42,25c0-.21,0-.41,0-.62l2.4,2.4a1,1,0,0,0,1.41-1.41Z" style="fill:#8d6c9f;"/><path d="M61.88,54.46,51.54,44.12A5,5,0,0,0,48,42.66h-.07a1,1,0,0,0-.23-.37l-2.54-2.54a25,25,0,1,0-5.41,5.41l2.54,2.54a1,1,0,0,0,.37.23,5,5,0,0,0,1.45,3.6L54.46,61.88a5,5,0,0,0,7.07,0l.34-.34A5,5,0,0,0,61.88,54.46ZM25,48A23,23,0,1,1,48,25,23,23,0,0,1,25,48Zm19.12-3.54a4.94,4.94,0,0,0-.92,1.32l-1.88-1.88a25.2,25.2,0,0,0,2.59-2.59l1.87,1.87a5,5,0,0,0-1.32.92ZM60.46,60.12l-.34.34a3.07,3.07,0,0,1-4.24,0L45.54,50.12a3,3,0,0,1,0-4.24l.34-.34a3,3,0,0,1,4.24,0L60.46,55.88A3,3,0,0,1,60.46,60.12Z" style="fill:#8d6c9f;"/><path d="M15.49,36.11l-1.15,1.64A1,1,0,0,0,16,38.89l1.15-1.64a1,1,0,0,0-1.64-1.15Z" style="fill:#8d6c9f;"/><path d="M14,33.21a1,1,0,0,0-1.41-.12l-1.53,1.29a1,1,0,0,0,1.29,1.53l1.53-1.29A1,1,0,0,0,14,33.21Z" style="fill:#8d6c9f;"/><path d="M33.62,12.89a1,1,0,0,0,.82-.42l1.16-1.63A1,1,0,1,0,34,9.68l-1.16,1.63a1,1,0,0,0,.81,1.58Z" style="fill:#8d6c9f;"/><path d="M35.91,15.37a1,1,0,0,0,1.41.13l1.54-1.28a1,1,0,1,0-1.28-1.54L36,14A1,1,0,0,0,35.91,15.37Z" style="fill:#8d6c9f;"/><path d="M38,18.68a1,1,0,0,0,1.33.49l1.82-.83a1,1,0,1,0-.83-1.82l-1.82.83A1,1,0,0,0,38,18.68Z" style="fill:#8d6c9f;"/><path d="M9,27.07a1,1,0,0,0,.71-.29l4.07-4.07a1,1,0,0,0-1.41-1.41l-2.29,2.29A15,15,0,0,1,29.46,10.67a1,1,0,0,0,.59-1.91,17,17,0,0,0-22,15L5.64,21.29a1,1,0,0,0-1.41,1.41l4.07,4.07A1,1,0,0,0,9,27.07Z" style="fill:#8d6c9f;"/><circle cx="25" cy="25" r="7" style="fill:#d2edff;"/><circle cx="21" cy="21" r="4" style="fill:#f3f3f3;"/><circle cx="29.5" cy="29.5" r="1.5" style="fill:#f3f3f3;"/></svg>