<svg xmlns="http://www.w3.org/2000/svg" id="Layer_1" data-name="Layer 1" viewBox="0 0 64 64" width="128" height="128"><title>Icons8 RSL Colored Part 6</title><rect x="5" y="7" width="54" height="50" rx="2" ry="2" style="fill:#faefde;"/><path d="M6.89,6.77H57a2,2,0,0,1,2,2h0C59,9.87,60.1,11,59,11H7A2.3,2.3,0,0,1,4.89,8.77h0A2,2,0,0,1,6.89,6.77Z" style="fill:#fff7f0;"/><path d="M57,57H7a2,2,0,0,1-2-2v1a4,4,0,0,1,4-4H55a4,4,0,0,1,4,4V55A2,2,0,0,1,57,57Z" style="fill:#efd8be;"/><circle cx="26" cy="41" r="2" style="fill:#ed7899;"/><rect x="25" y="25" width="24" height="8" rx="1" ry="1" style="fill:#72caaf;"/><rect x="25" y="15" width="24" height="4" rx="1" ry="1" style="fill:#85cbf8;"/><path d="M57,6H7A3,3,0,0,0,4,9V55a3,3,0,0,0,3,3H57a3,3,0,0,0,3-3V9A3,3,0,0,0,57,6Zm1,49a1,1,0,0,1-1,1H7a1,1,0,0,1-1-1V9A1,1,0,0,1,7,8H57a1,1,0,0,1,1,1Z" style="fill:#8d6c9f;"/><path d="M14,50a1,1,0,0,0-1,1v2a1,1,0,0,0,2,0V51A1,1,0,0,0,14,50Z" style="fill:#8d6c9f;"/><path d="M9,50a1,1,0,0,0-1,1v2a1,1,0,0,0,2,0V51A1,1,0,0,0,9,50Z" style="fill:#8d6c9f;"/><path d="M29,50a1,1,0,0,0-1,1v2a1,1,0,0,0,2,0V51A1,1,0,0,0,29,50Z" style="fill:#8d6c9f;"/><path d="M34,50a1,1,0,0,0-1,1v2a1,1,0,0,0,2,0V51A1,1,0,0,0,34,50Z" style="fill:#8d6c9f;"/><path d="M39,50a1,1,0,0,0-1,1v2a1,1,0,0,0,2,0V51A1,1,0,0,0,39,50Z" style="fill:#8d6c9f;"/><path d="M44,50a1,1,0,0,0-1,1v2a1,1,0,0,0,2,0V51A1,1,0,0,0,44,50Z" style="fill:#8d6c9f;"/><path d="M49,50a1,1,0,0,0-1,1v2a1,1,0,0,0,2,0V51A1,1,0,0,0,49,50Z" style="fill:#8d6c9f;"/><path d="M54,50a1,1,0,0,0-1,1v2a1,1,0,0,0,2,0V51A1,1,0,0,0,54,50Z" style="fill:#8d6c9f;"/><path d="M19,50a1,1,0,0,0-1,1v2a1,1,0,0,0,2,0V51A1,1,0,0,0,19,50Z" style="fill:#8d6c9f;"/><path d="M24,50a1,1,0,0,0-1,1v2a1,1,0,0,0,2,0V51A1,1,0,0,0,24,50Z" style="fill:#8d6c9f;"/><path d="M49,38H32a1,1,0,0,0,0,2H49a1,1,0,0,0,0-2Z" style="fill:#8d6c9f;"/><path d="M45,42H32a1,1,0,0,0,0,2H45a1,1,0,0,0,0-2Z" style="fill:#8d6c9f;"/><path d="M19,26H13a1,1,0,0,0,0,2h6a1,1,0,0,0,0-2Z" style="fill:#8d6c9f;"/><path d="M29,41a3,3,0,1,0-3,3A3,3,0,0,0,29,41Zm-3,1a1,1,0,1,1,1-1A1,1,0,0,1,26,42Z" style="fill:#8d6c9f;"/><path d="M48,24H26a2,2,0,0,0-2,2v6a2,2,0,0,0,2,2H48a2,2,0,0,0,2-2V26A2,2,0,0,0,48,24ZM26,32V26H48v6Z" style="fill:#8d6c9f;"/><path d="M19,16H13a1,1,0,0,0,0,2h6a1,1,0,0,0,0-2Z" style="fill:#8d6c9f;"/><path d="M48,14H26a2,2,0,0,0-2,2v2a2,2,0,0,0,2,2H48a2,2,0,0,0,2-2V16A2,2,0,0,0,48,14ZM26,18V16H48v2Z" style="fill:#8d6c9f;"/></svg>