<svg xmlns="http://www.w3.org/2000/svg" id="Layer_1" data-name="Layer 1" viewBox="0 0 64 64" width="128" height="128"><title>Dusk Part 1</title><circle cx="31" cy="31" r="28" style="fill:#85cbf8;"/><path d="M31,3A28,28,0,1,0,59,31,28,28,0,0,0,31,3Zm0,50A22,22,0,1,1,46.17,15.07l.68.67q.39.4.75.82A22,22,0,0,1,31,53Z" style="fill:#f9e3ae;"/><path d="M31,53A22,22,0,0,1,9,31H7.34a4,4,0,0,0-3.95,4.71,28,28,0,0,0,55.21,0A4,4,0,0,0,54.66,31H53A22,22,0,0,1,31,53Z" style="fill:#f6d397;"/><path d="M31,2A29,29,0,1,0,60,31,29,29,0,0,0,31,2Zm0,56A27,27,0,1,1,58,31,27,27,0,0,1,31,58Z" style="fill:#8d6c9f;"/><circle cx="31" cy="42" r="2" style="fill:#faefde;"/><path d="M12,31v2a1,1,0,0,0,2,0V31a1,1,0,0,0-2,0Z" style="fill:#faefde;"/><path d="M17,31v2a1,1,0,0,0,2,0V31a1,1,0,0,0-2,0Z" style="fill:#faefde;"/><path d="M22,31v2a1,1,0,0,0,2,0V31a1,1,0,0,0-2,0Z" style="fill:#faefde;"/><path d="M38,31v2a1,1,0,0,0,2,0V31a1,1,0,0,0-2,0Z" style="fill:#faefde;"/><path d="M44,34a1,1,0,0,0,1-1V31a1,1,0,0,0-2,0v2A1,1,0,0,0,44,34Z" style="fill:#faefde;"/><path d="M50,33V31a1,1,0,0,0-2,0v2a1,1,0,0,0,2,0Z" style="fill:#faefde;"/><path d="M29,18a5,5,0,0,0-5,5,1,1,0,0,0,2,0,3,3,0,0,1,3-3h4a3,3,0,0,1,3,3v2.84a3.38,3.38,0,0,1-2.32,3.21A5.38,5.38,0,0,0,30,34.16V37a1,1,0,0,0,2,0V34.16a3.38,3.38,0,0,1,2.32-3.21A5.38,5.38,0,0,0,38,25.84V23a5,5,0,0,0-5-5Z" style="fill:#faefde;"/><path d="M31,54A23,23,0,1,1,34.36,8.24a1,1,0,0,1-.29,2A21.32,21.32,0,0,0,31,10a21,21,0,1,0,13,4.48,1,1,0,1,1,1.24-1.57A23,23,0,0,1,31,54Z" style="fill:#8d6c9f;"/><path d="M41,12.4a1,1,0,0,1-.45-.11,20.88,20.88,0,0,0-2.31-1,1,1,0,0,1,.69-1.88,23.08,23.08,0,0,1,2.53,1.11A1,1,0,0,1,41,12.4Z" style="fill:#8d6c9f;"/></svg>