<svg xmlns="http://www.w3.org/2000/svg" id="Layer_1" data-name="Layer 1" viewBox="0 0 64 64" width="128" height="128"><title>Dusk Part 3</title><rect x="10.09" y="10.09" width="43.8" height="43.84" rx="1" ry="1" transform="translate(-13.27 31.99) rotate(-45)" style="fill:#ed7899;"/><rect x="16.44" y="16.46" width="31.08" height="31.11" rx="1" ry="1" transform="translate(-13.27 31.99) rotate(-45)" style="fill:#ffefb8;"/><path d="M46.3,24.35l-22,22,7,7a1,1,0,0,0,1.41,0L53.27,32.73a1,1,0,0,0,0-1.41Z" style="fill:#fff6df;"/><rect x="16.07" y="28.99" width="31.08" height="5.3" transform="translate(-13.11 31.62) rotate(-45)" style="fill:#fff6df;"/><rect x="11.69" y="25.5" width="31.08" height="3.54" transform="translate(-11.3 27.24) rotate(-45)" style="fill:#fff6df;"/><path d="M31.81,21a1.88,1.88,0,0,0-1.22.57,1.93,1.93,0,0,0-.51,1.46L31,36a1,1,0,0,0,2,0l.88-12.93a1.93,1.93,0,0,0-.51-1.46,1.86,1.86,0,0,0-1.07-.56A1.94,1.94,0,0,0,31.81,21Z" style="fill:#8d6c9f;"/><circle cx="32.04" cy="41" r="2" style="fill:#8d6c9f;"/><path d="M33.41,9.37a2,2,0,0,0-2.83,0L9.37,30.59a2,2,0,0,0,0,2.83L30.59,54.63a2,2,0,0,0,2.83,0L54.63,33.41a2,2,0,0,0,0-2.83ZM32,53.21,10.79,32,32,10.79,53.21,32Z" style="fill:#8d6c9f;"/><path d="M62.41,29.88,34.12,1.59a3.07,3.07,0,0,0-4.24,0L1.59,29.88a3,3,0,0,0,0,4.24L29.88,62.4a3,3,0,0,0,4.24,0L62.41,34.12a3,3,0,0,0,0-4.24ZM61,32.71,32.71,61a1,1,0,0,1-1.41,0L3,32.71a1,1,0,0,1,0-1.41L31.29,3a1,1,0,0,1,1.41,0L61,31.29a1,1,0,0,1,0,1.41Z" style="fill:#8d6c9f;"/><path d="M16,30a1,1,0,0,0-1,1v2a1,1,0,0,0,2,0V31A1,1,0,0,0,16,30Z" style="fill:#8d6c9f;"/><path d="M21,30a1,1,0,0,0-1,1v2a1,1,0,0,0,2,0V31A1,1,0,0,0,21,30Z" style="fill:#8d6c9f;"/><path d="M26,30a1,1,0,0,0-1,1v2a1,1,0,0,0,2,0V31A1,1,0,0,0,26,30Z" style="fill:#8d6c9f;"/><path d="M38,34a1,1,0,0,0,1-1V31a1,1,0,0,0-2,0v2A1,1,0,0,0,38,34Z" style="fill:#8d6c9f;"/><path d="M43,34a1,1,0,0,0,1-1V31a1,1,0,0,0-2,0v2A1,1,0,0,0,43,34Z" style="fill:#8d6c9f;"/><path d="M48,34a1,1,0,0,0,1-1V31a1,1,0,0,0-2,0v2A1,1,0,0,0,48,34Z" style="fill:#8d6c9f;"/></svg>