<svg xmlns="http://www.w3.org/2000/svg" xmlns:xlink="http://www.w3.org/1999/xlink" version="1.1" id="Layer_1" x="0px" y="0px" viewBox="0 0 64 64" style="enable-background:new 0 0 64 64;" xml:space="preserve" width="128" height="128">
<path style="fill:#C2CDE7;" d="M60,57H4c-1.657,0-3-1.343-3-3V8c0-1.657,1.343-3,3-3h56c1.657,0,3,1.343,3,3v46  C63,55.657,61.657,57,60,57z"/>
<path style="fill:#ACB7D0;" d="M1,35v19c0,1.657,1.343,3,3,3h56c1.657,0,3-1.343,3-3V35c0-2.209-1.791-4-4-4H5  C2.791,31,1,32.791,1,35z"/>
<path style="fill:#D3E0E8;" d="M54.5,50.5h-41c-1.657,0-3-1.343-3-3v-34c0-1.657,1.343-3,3-3h41c1.657,0,3,1.343,3,3v34  C57.5,49.157,56.157,50.5,54.5,50.5z"/>
<polygon style="fill:#DCE9F0;" points="34.667,51 20,51 51.333,11 55,11 57,12 57,22.368 "/>
<polygon style="fill:#DCE9F0;" points="11,50 10.5,45.871 38,11 45,11 13.455,51 "/>
<polygon style="fill:#DCE9F0;" points="11,34.579 29.667,11 31,11 11,36.263 "/>
<rect x="37" y="37" style="fill:#FFEB9B;" width="4" height="8"/>
<rect x="27" y="27" style="fill:#FFEB9B;" width="4" height="8"/>
<rect x="41" y="17" style="fill:#FFEB9B;" width="4" height="8"/>
<g>
	<path style="fill:#8D6C9F;" d="M61,4H3C1.346,4,0,5.346,0,7v48c0,1.654,1.346,3,3,3h58c1.654,0,3-1.346,3-3V7   C64,5.346,62.654,4,61,4z M62,55c0,0.552-0.449,1-1,1H3c-0.551,0-1-0.448-1-1V7c0-0.552,0.449-1,1-1h58c0.551,0,1,0.448,1,1V55z"/>
	<path style="fill:#8D6C9F;" d="M56,10H12c-1.103,0-2,0.897-2,2v38c0,1.103,0.897,2,2,2h44c1.103,0,2-0.897,2-2V12   C58,10.897,57.103,10,56,10z M12,50V12h44l0.001,38H12z"/>
	<path style="fill:#8D6C9F;" d="M51,20h-5v-2c0-1.103-0.897-2-2-2h-2c-1.103,0-2,0.897-2,2v5.95c0,1.103,0.897,2,2,2h2   c1.103,0,2-0.897,2-2V22h5c0.552,0,1-0.447,1-1S51.552,20,51,20z M44,23.95h-2L41.999,18H42h2V23.95z"/>
	<path style="fill:#8D6C9F;" d="M19,22h18c0.552,0,1-0.447,1-1s-0.448-1-1-1H19c-0.552,0-1,0.447-1,1S18.448,22,19,22z"/>
	<path style="fill:#8D6C9F;" d="M19,32h4c0.552,0,1-0.447,1-1s-0.448-1-1-1h-4c-0.552,0-1,0.447-1,1S18.448,32,19,32z"/>
	<path style="fill:#8D6C9F;" d="M51,30H32v-2c0-1.103-0.897-2-2-2h-2c-1.103,0-2,0.897-2,2v5.95c0,1.103,0.897,2,2,2h2   c1.103,0,2-0.897,2-2V32h19c0.552,0,1-0.447,1-1S51.552,30,51,30z M30,33.95h-2L27.999,28H28h2V33.95z"/>
	<path style="fill:#8D6C9F;" d="M51,40h-9v-2c0-1.103-0.897-2-2-2h-2c-1.103,0-2,0.897-2,2v5.95c0,1.103,0.897,2,2,2h2   c1.103,0,2-0.897,2-2V42h9c0.552,0,1-0.447,1-1S51.552,40,51,40z M40,43.95h-2L37.999,38H38h2V43.95z"/>
	<path style="fill:#8D6C9F;" d="M33,40H19c-0.552,0-1,0.447-1,1s0.448,1,1,1h14c0.552,0,1-0.447,1-1S33.552,40,33,40z"/>
	<path style="fill:#8D6C9F;" d="M7,15H5c-0.552,0-1,0.447-1,1s0.448,1,1,1h2c0.552,0,1-0.447,1-1S7.552,15,7,15z"/>
	<path style="fill:#8D6C9F;" d="M7,10H5c-0.552,0-1,0.447-1,1s0.448,1,1,1h2c0.552,0,1-0.447,1-1S7.552,10,7,10z"/>
	<path style="fill:#8D6C9F;" d="M7,50H5c-0.552,0-1,0.447-1,1s0.448,1,1,1h2c0.552,0,1-0.447,1-1S7.552,50,7,50z"/>
	<path style="fill:#8D6C9F;" d="M7,20H5c-0.552,0-1,0.447-1,1s0.448,1,1,1h2c0.552,0,1-0.447,1-1S7.552,20,7,20z"/>
	<path style="fill:#8D6C9F;" d="M7,25H5c-0.552,0-1,0.447-1,1s0.448,1,1,1h2c0.552,0,1-0.447,1-1S7.552,25,7,25z"/>
	<path style="fill:#8D6C9F;" d="M7,30H5c-0.552,0-1,0.447-1,1s0.448,1,1,1h2c0.552,0,1-0.447,1-1S7.552,30,7,30z"/>
	<path style="fill:#8D6C9F;" d="M7,35H5c-0.552,0-1,0.447-1,1s0.448,1,1,1h2c0.552,0,1-0.447,1-1S7.552,35,7,35z"/>
	<path style="fill:#8D6C9F;" d="M7,40H5c-0.552,0-1,0.447-1,1s0.448,1,1,1h2c0.552,0,1-0.447,1-1S7.552,40,7,40z"/>
	<path style="fill:#8D6C9F;" d="M7,45H5c-0.552,0-1,0.447-1,1s0.448,1,1,1h2c0.552,0,1-0.447,1-1S7.552,45,7,45z"/>
</g>
</svg>