<svg xmlns="http://www.w3.org/2000/svg" id="Layer_1" data-name="Layer 1" viewBox="0 0 64 64" width="128" height="128"><title>Dusk Part 4</title><circle cx="31" cy="31" r="28" style="fill:#72caaf;"/><circle cx="31" cy="31" r="21" style="fill:#88d7b6;"/><path d="M31,2a28.94,28.94,0,0,0-9.48,1.59,1,1,0,0,0,.65,1.89A27,27,0,1,1,32.82,57.94a1,1,0,0,0,.07,2h.07A29,29,0,0,0,31,2Z" style="fill:#8d6c9f;"/><path d="M5,32a1,1,0,0,0,0-2H3a1,1,0,0,0,0,2Z" style="fill:#8d6c9f;"/><path d="M6.55,36.2a1,1,0,0,0-1.19-.77l-2,.42a1,1,0,0,0,.21,2l.21,0,2-.42A1,1,0,0,0,6.55,36.2Z" style="fill:#8d6c9f;"/><path d="M8.16,41.17a1,1,0,0,0-1.32-.51L5,41.48a1,1,0,1,0,.81,1.83l1.83-.81A1,1,0,0,0,8.16,41.17Z" style="fill:#8d6c9f;"/><path d="M9.38,45.47,7.76,46.65a1,1,0,0,0,1.18,1.62l1.62-1.18a1,1,0,0,0-1.18-1.62Z" style="fill:#8d6c9f;"/><path d="M12.86,49.65l-1.34,1.49A1,1,0,1,0,13,52.48L14.35,51a1,1,0,1,0-1.49-1.34Z" style="fill:#8d6c9f;"/><path d="M18.5,52.65a1,1,0,0,0-1.37.37l-1,1.73a1,1,0,0,0,1.73,1l1-1.73A1,1,0,0,0,18.5,52.65Z" style="fill:#8d6c9f;"/><path d="M23.27,54.78a1,1,0,0,0-1.26.64l-.62,1.9a1,1,0,1,0,1.9.62l.62-1.9A1,1,0,0,0,23.27,54.78Z" style="fill:#8d6c9f;"/><path d="M28.39,55.86a1,1,0,0,0-1.1.89l-.21,2a1,1,0,0,0,.89,1.1h.11a1,1,0,0,0,1-.9l.21-2A1,1,0,0,0,28.39,55.86Z" style="fill:#8d6c9f;"/><path d="M3.4,26.16l2,.42.21,0a1,1,0,0,0,.21-2l-2-.42a1,1,0,0,0-.42,2Z" style="fill:#8d6c9f;"/><path d="M5,20.52l1.83.81a1,1,0,0,0,.81-1.83L5.83,18.7A1,1,0,1,0,5,20.52Z" style="fill:#8d6c9f;"/><path d="M8.94,13.73a1,1,0,1,0-1.18,1.62l1.62,1.18a1,1,0,0,0,1.18-1.62Z" style="fill:#8d6c9f;"/><path d="M13,9.52a1,1,0,0,0-1.49,1.34l1.34,1.49A1,1,0,1,0,14.35,11Z" style="fill:#8d6c9f;"/><path d="M17.87,6.25a1,1,0,0,0-1.73,1l1,1.73a1,1,0,0,0,1.73-1Z" style="fill:#8d6c9f;"/><path d="M28,39a1,1,0,0,0,.71-.29l15-15a1,1,0,0,0-1.41-1.41L28,36.59l-7.29-7.29a1,1,0,0,0-1.41,1.41l8,8A1,1,0,0,0,28,39Z" style="fill:#faefde;"/><path d="M40.45,12.24a1,1,0,0,0,.9-1.79,22.88,22.88,0,0,0-2.3-1,1,1,0,0,0-.7,1.87A21.07,21.07,0,0,1,40.45,12.24Z" style="fill:#8d6c9f;"/><path d="M22.75,11.6a1,1,0,0,0,.37-.07,21,21,0,0,1,11.22-1.26,1,1,0,1,0,.32-2A23,23,0,0,0,22.37,9.67a1,1,0,0,0,.38,1.93Z" style="fill:#8d6c9f;"/></svg>