<svg xmlns="http://www.w3.org/2000/svg" id="Layer_1" data-name="Layer 1" viewBox="0 0 64 64" width="128" height="128"><title>Icons8 RSL Colored Part 11</title><rect x="5" y="15" width="53" height="38" style="fill:#85cbf8;"/><path d="M58,53H40l-8,8-8-8H6a1,1,0,0,1-1-1H5a4,4,0,0,1,4-4H56a3,3,0,0,1,3,3v1A1,1,0,0,1,58,53Z" style="fill:#6fc6f0;"/><rect x="5" y="5" width="54" height="10" style="fill:#c2cde7;"/><path d="M57,4H7A3,3,0,0,0,4,7V51a3,3,0,0,0,3,3H24.09a1,1,0,0,1,.75.34l5.64,6.45a2,2,0,0,0,1.5.68h0a2,2,0,0,0,1.51-.7L39,54.35a1,1,0,0,1,.76-.35H57a3,3,0,0,0,3-3V7A3,3,0,0,0,57,4ZM6,7A1,1,0,0,1,7,6H57a1,1,0,0,1,1,1v7H6ZM57,52H39.79a3,3,0,0,0-2.28,1L32,59.47,26.35,53a3,3,0,0,0-2.26-1H7a1,1,0,0,1-1-1V16H58V51A1,1,0,0,1,57,52Z" style="fill:#8d6c9f;"/><path d="M19,8a1,1,0,0,0-1,1v2a1,1,0,0,0,2,0V9A1,1,0,0,0,19,8Z" style="fill:#8d6c9f;"/><path d="M14,8a1,1,0,0,0-1,1v2a1,1,0,0,0,2,0V9A1,1,0,0,0,14,8Z" style="fill:#8d6c9f;"/><path d="M9,8A1,1,0,0,0,8,9v2a1,1,0,0,0,2,0V9A1,1,0,0,0,9,8Z" style="fill:#8d6c9f;"/><path d="M24,8a1,1,0,0,0-1,1v2a1,1,0,0,0,2,0V9A1,1,0,0,0,24,8Z" style="fill:#8d6c9f;"/><path d="M29,8a1,1,0,0,0-1,1v2a1,1,0,0,0,2,0V9A1,1,0,0,0,29,8Z" style="fill:#8d6c9f;"/><path d="M34,8a1,1,0,0,0-1,1v2a1,1,0,0,0,2,0V9A1,1,0,0,0,34,8Z" style="fill:#8d6c9f;"/><path d="M39,8a1,1,0,0,0-1,1v2a1,1,0,0,0,2,0V9A1,1,0,0,0,39,8Z" style="fill:#8d6c9f;"/><path d="M44,8a1,1,0,0,0-1,1v2a1,1,0,0,0,2,0V9A1,1,0,0,0,44,8Z" style="fill:#8d6c9f;"/><path d="M49,8a1,1,0,0,0-1,1v2a1,1,0,0,0,2,0V9A1,1,0,0,0,49,8Z" style="fill:#8d6c9f;"/><path d="M54,8a1,1,0,0,0-1,1v2a1,1,0,0,0,2,0V9A1,1,0,0,0,54,8Z" style="fill:#8d6c9f;"/><path d="M36,42H34V28h1a1,1,0,0,0,0-2H31a1,1,0,0,0-1,1,.91.91,0,0,0,1,1h1V42H30a1,1,0,0,0-1,1,.91.91,0,0,0,1,1h6a1,1,0,0,0,0-2Z" style="fill:#f5f5f5;"/><circle cx="33" cy="22.04" r="2" style="fill:#f5f5f5;"/></svg>