<svg xmlns="http://www.w3.org/2000/svg" id="Layer_1" data-name="Layer 1" viewBox="0 0 64 64" width="128" height="128"><title>Icons8 RSL Colored Part 7</title><rect x="4.66" y="41" width="56" height="16" style="fill:#c2cde7;"/><path d="M8.66,49h48a4,4,0,0,1,4,4v4a0,0,0,0,1,0,0h-56a0,0,0,0,1,0,0V53A4,4,0,0,1,8.66,49Z" style="fill:#b5c4e0;"/><polygon points="60.66 41 4.66 41 10.66 7 54.66 7 60.66 41" style="fill:#ced8ed;"/><polygon points="55.72 13 54.66 7 10.66 7 9.6 13 55.72 13" style="fill:#dae2ef;"/><circle cx="13" cy="49" r="2" style="fill:#ed7899;"/><path d="M61.92,40.48l-5.65-32a3,3,0,0,0-3-2.48H12.68a3,3,0,0,0-3,2.48l-5.65,32a5.09,5.09,0,0,0-.08.87V55a3,3,0,0,0,3,3H59a3,3,0,0,0,3-3V41.35A5,5,0,0,0,61.92,40.48ZM11.69,8.83a1,1,0,0,1,1-.83H53.32a1,1,0,0,1,1,.83L59.81,40H6.19ZM59,56H7a1,1,0,0,1-1-1V42H60V55A1,1,0,0,1,59,56Z" style="fill:#8d6c9f;"/><path d="M35,47a1,1,0,0,0-1,1v2a1,1,0,0,0,2,0V48A1,1,0,0,0,35,47Z" style="fill:#8d6c9f;"/><path d="M40,47a1,1,0,0,0-1,1v2a1,1,0,0,0,2,0V48A1,1,0,0,0,40,47Z" style="fill:#8d6c9f;"/><path d="M45,47a1,1,0,0,0-1,1v2a1,1,0,0,0,2,0V48A1,1,0,0,0,45,47Z" style="fill:#8d6c9f;"/><path d="M50,47a1,1,0,0,0-1,1v2a1,1,0,0,0,2,0V48A1,1,0,0,0,50,47Z" style="fill:#8d6c9f;"/><path d="M55,47a1,1,0,0,0-1,1v2a1,1,0,0,0,2,0V48A1,1,0,0,0,55,47Z" style="fill:#8d6c9f;"/><path d="M13,46a3,3,0,1,0,3,3A3,3,0,0,0,13,46Zm0,4a1,1,0,1,1,1-1A1,1,0,0,1,13,50Z" style="fill:#8d6c9f;"/><path d="M23,48H19a1,1,0,0,0,0,2h4a1,1,0,0,0,0-2Z" style="fill:#8d6c9f;"/><path d="M32.29,29.71a1,1,0,0,0,1.41,0l5-5a1,1,0,0,0-1.41-1.41L34,26.59V13a1,1,0,0,0-2,0V26.59l-3.29-3.29a1,1,0,0,0-1.41,1.41Z" style="fill:#8d6c9f;"/><path d="M23,36H43a3,3,0,0,0,3-3V29a1,1,0,0,0-2,0v4a1,1,0,0,1-1,1H23a1,1,0,0,1-1-1V29a1,1,0,0,0-2,0v4A3,3,0,0,0,23,36Z" style="fill:#8d6c9f;"/></svg>