<svg xmlns="http://www.w3.org/2000/svg" id="Layer_1" data-name="Layer 1" viewBox="0 0 64 64" width="128" height="128"><title>Icons8 RSL Colored Part 9</title><path d="M25,48.9l-3.61,3.61a7,7,0,1,1-9.9-9.9L20,34.12a7,7,0,0,1,8.9-.83,6.81,6.81,0,0,1,1,.83,7,7,0,0,1,0,9.9l-1.77,1.77" style="fill:#b968c8;"/><path d="M29,32a7,7,0,0,1-7,7H10a7,7,0,1,1,0-14H22a7,7,0,0,1,6.88,5.71A6.81,6.81,0,0,1,29,32Z" style="fill:#f48fb1;"/><path d="M48.9,39l3.6,3.6a7,7,0,1,1-9.9,9.9L34.12,44a7,7,0,0,1-.83-8.9,6.81,6.81,0,0,1,.83-1,7,7,0,0,1,9.9,0l1.9,1.9" style="fill:#ace3ff;"/><path d="M32,35a7,7,0,0,1,7,7V54a7,7,0,1,1-14,0V42a7,7,0,0,1,5.71-6.88A6.81,6.81,0,0,1,32,35Z" style="fill:#85cbf8;"/><path d="M39,15.1l3.61-3.61a7,7,0,1,1,9.9,9.9L44,29.88a7,7,0,1,1-9.9-9.9L36,18.11" style="fill:#81d6bb;"/><path d="M61,32a7,7,0,0,1-7,7H42a7,7,0,1,1,0-14H54A7,7,0,0,1,61,32Z" style="fill:#72caaf;"/><path d="M32,3a7,7,0,0,1,7,7V22a7,7,0,1,1-14,0V10A7,7,0,0,1,32,3Z" style="fill:#f9e3ae;"/><path d="M15.1,25l-3.6-3.6a7,7,0,1,1,9.9-9.9L29.88,20a7,7,0,1,1-9.9,9.9L18.3,28.2" style="fill:#ed7899;"/><circle cx="32" cy="32" r="5" style="fill:#faefde;"/><path d="M12,30a1,1,0,0,0-1,1v2a1,1,0,0,0,2,0V31A1,1,0,0,0,12,30Z" style="fill:#8d6c9f;"/><path d="M7,30a1,1,0,0,0-1,1v2a1,1,0,0,0,2,0V31A1,1,0,0,0,7,30Z" style="fill:#8d6c9f;"/><path d="M47,30a1,1,0,0,0-1,1v2a1,1,0,0,0,2,0V31A1,1,0,0,0,47,30Z" style="fill:#8d6c9f;"/><path d="M52,30a1,1,0,0,0-1,1v2a1,1,0,0,0,2,0V31A1,1,0,0,0,52,30Z" style="fill:#8d6c9f;"/><path d="M57,34a1,1,0,0,0,1-1V31a1,1,0,0,0-2,0v2A1,1,0,0,0,57,34Z" style="fill:#8d6c9f;"/><path d="M17,34a1,1,0,0,0,1-1V31a1,1,0,0,0-2,0v2A1,1,0,0,0,17,34Z" style="fill:#8d6c9f;"/><path d="M59.66,37.66A8,8,0,0,0,54,24H51.31l1.9-1.9A8,8,0,1,0,41.9,10.79L40,12.69V10a8,8,0,0,0-16,0v2.69l-1.9-1.9A8,8,0,0,0,10.79,22.1l1.9,1.9H10a8,8,0,0,0,0,16h2.69l-1.9,1.9A8,8,0,1,0,22.1,53.21l1.9-1.9V54a8,8,0,0,0,16,0V51.31l1.9,1.9A8,8,0,0,0,53.21,41.9L51.31,40H54A8,8,0,0,0,59.66,37.66ZM40,22V15.51l3.31-3.31a6,6,0,1,1,8.49,8.49L48.49,24H42a8,8,0,0,0-2.35.35A8,8,0,0,0,40,22Zm-2.13,8.75A6,6,0,0,0,37,28.69a5.85,5.85,0,0,1,.76-.93A6,6,0,0,1,42,26h4.49l-3.17,3.17A5.91,5.91,0,0,1,37.87,30.75ZM32,36a4,4,0,1,1,4-4A4,4,0,0,1,32,36Zm-5.87-2.76A6,6,0,0,0,27,35.31a5.84,5.84,0,0,1-.76.93A6,6,0,0,1,22,38H17.51l3.17-3.17A5.92,5.92,0,0,1,26.13,33.24ZM26,10a6,6,0,1,1,12,0V22a6,6,0,0,1-2.72,5,6,6,0,0,0-2.09-.86,5.87,5.87,0,0,1-.12-1.19,6,6,0,0,1,1.76-4.24l1.87-1.87a1,1,0,0,0-1.41-1.41l-1.87,1.87A8,8,0,0,0,32,21.18a8,8,0,0,0-1.41-1.91L26,14.69Zm0,7.51,3.17,3.17a5.91,5.91,0,0,1,1.57,5.45,6,6,0,0,0-2.06.87,5.85,5.85,0,0,1-.93-.76A6,6,0,0,1,26,22ZM12.2,20.69a6,6,0,1,1,8.49-8.49L24,15.51V22a8,8,0,0,0,.35,2.36A8,8,0,0,0,22,24H15.51ZM10,38a6,6,0,1,1,0-12H22a5.92,5.92,0,0,1,5,2.73,6,6,0,0,0-.85,2.07,5.85,5.85,0,0,1-1.19.12,6,6,0,0,1-4.24-1.76L19,27.49a1,1,0,0,0-1.41,1.41l1.68,1.68A8,8,0,0,0,21.19,32a8,8,0,0,0-1.92,1.41L14.69,38Zm14,4v6.49L20.69,51.8a6,6,0,1,1-8.49-8.49L15.51,40H22a8,8,0,0,0,2.36-.35A8,8,0,0,0,24,42ZM38,54a6,6,0,1,1-12,0V42a5.92,5.92,0,0,1,2.73-5,6,6,0,0,0,2.07.85,5.84,5.84,0,0,1,.12,1.19,6,6,0,0,1-1.76,4.24L27.4,45.09a1,1,0,0,0,1.41,1.41l1.77-1.77A8,8,0,0,0,32,42.81a8,8,0,0,0,1.41,1.92L38,49.31Zm0-7.51-3.17-3.17a5.92,5.92,0,0,1-1.59-5.44A6,6,0,0,0,35.31,37a5.86,5.86,0,0,1,.93.76A6,6,0,0,1,38,42Zm13.8-3.17a6,6,0,1,1-8.49,8.49L40,48.49V42a8,8,0,0,0-.35-2.35A8,8,0,0,0,42,40h6.49ZM42,38a6,6,0,0,1-5-2.72,6,6,0,0,0,.86-2.09,5.87,5.87,0,0,1,1.19-.12,6,6,0,0,1,4.24,1.76l1.9,1.9a1,1,0,0,0,1.41-1.41l-1.9-1.9A8,8,0,0,0,42.82,32a8,8,0,0,0,1.91-1.41L49.31,26H54a6,6,0,1,1,0,12Z" style="fill:#8d6c9f;"/></svg>