<svg xmlns="http://www.w3.org/2000/svg" id="Layer_1" data-name="Layer 1" viewBox="0 0 64 64" width="128" height="128"><title>Icons8 RSL Colored Part 10</title><path d="M63,27.88c0,13.67-13.91,24.79-31,24.79a38.7,38.7,0,0,1-6.41-.54c-1.24,2-4.68,6.13-12,7.76l-.21,0a1,1,0,0,1-.83-1.47,22.19,22.19,0,0,0,2.91-9.61C6.38,44.27,1,36.47,1,27.88,1,14.21,14.91,3.09,32,3.09S63,14.21,63,27.88Z" style="fill:#f9e3ae;"/><path d="M1.64,32.95c1.67,6.53,6.56,12.24,13.8,15.89a22.2,22.2,0,0,1-2.91,9.61,1,1,0,0,0,.83,1.47l.21,0c7.33-1.63,10.77-5.81,12-7.76a38.7,38.7,0,0,0,6.41.54c14.89,0,27.36-8.44,30.33-19.65a4,4,0,0,0-3.88-5H5.54A4,4,0,0,0,1.64,32.95Z" style="fill:#f6d397;"/><ellipse cx="32" cy="28" rx="24" ry="19" style="fill:#85cbf8;"/><path d="M32,2.14C14.35,2.14,0,13.62,0,27.73,0,36.6,5.56,44.65,14.91,49.37a22.91,22.91,0,0,1-3,9.92,1,1,0,0,0,.86,1.51l.22,0c7.57-1.68,11.12-6,12.4-8a40,40,0,0,0,6.62.55c17.65,0,32-11.48,32-25.59S49.65,2.14,32,2.14Zm0,49.17a37.94,37.94,0,0,1-6.94-.64,1,1,0,0,0-1.06.5c-.67,1.23-3.2,5.06-9.28,7.05a26,26,0,0,0,2.23-9.42,1,1,0,0,0-.57-.95C7.38,43.53,2,36,2,27.73c0-13,13.46-23.59,30-23.59S62,14.72,62,27.73,48.54,51.31,32,51.31Z" style="fill:#8d6c9f;"/><path d="M31.71,43.66a1,1,0,0,0-.91,1.08l.17,2a1,1,0,0,0,1,.91h.09A1,1,0,0,0,33,46.56l-.17-2A1,1,0,0,0,31.71,43.66Z" style="fill:#8d6c9f;"/><path d="M12.2,34.95l-1.64,1.15a1,1,0,1,0,1.15,1.64l1.64-1.15a1,1,0,0,0-1.15-1.64Z" style="fill:#8d6c9f;"/><path d="M15.71,39.17,14.42,40.7A1,1,0,1,0,15.95,42l1.29-1.53a1,1,0,1,0-1.53-1.29Z" style="fill:#8d6c9f;"/><path d="M21.52,41.85a1,1,0,0,0-1.33.48l-.85,1.81a1,1,0,1,0,1.81.85L22,43.18A1,1,0,0,0,21.52,41.85Z" style="fill:#8d6c9f;"/><path d="M26.49,43.43a1,1,0,0,0-1.16.81l-.35,2a1,1,0,0,0,.81,1.16l.18,0a1,1,0,0,0,1-.83l.35-2A1,1,0,0,0,26.49,43.43Z" style="fill:#8d6c9f;"/><path d="M9,28C9,18,19.34,10,32,10a27.9,27.9,0,0,1,11.56,2.45,1,1,0,1,0,.83-1.82A29.91,29.91,0,0,0,32,8c-13.76,0-25,9-25,20a16.35,16.35,0,0,0,.5,4,1,1,0,0,0,1,.76,1,1,0,0,0,.25,0,1,1,0,0,0,.73-1.21A14.34,14.34,0,0,1,9,28Z" style="fill:#8d6c9f;"/><path d="M54.47,19.26a1,1,0,0,0-1.71,1A14.69,14.69,0,0,1,55,28c0,8.19-7.06,15.36-17.17,17.42a1,1,0,0,0,.2,2l.2,0C49.24,45.1,57,37.13,57,28A16.66,16.66,0,0,0,54.47,19.26Z" style="fill:#8d6c9f;"/><path d="M50.1,16.91a1,1,0,1,0,1.42-1.41,22.82,22.82,0,0,0-2.72-2.33,1,1,0,0,0-1.18,1.62A20.74,20.74,0,0,1,50.1,16.91Z" style="fill:#8d6c9f;"/><path d="M30.84,34.29a1,1,0,0,0,.95.68,1,1,0,0,0,.95-1.32l-5.4-16a1,1,0,0,0-1.89,0l-5.4,16a1,1,0,1,0,1.89.64l1.81-5.35a.94.94,0,0,0,.15,0h5a.94.94,0,0,0,.15,0ZM24.41,27l2-5.87,2,5.87Z" style="fill:#faefde;"/><path d="M45,39a1,1,0,0,0,0-2,7,7,0,0,1-4.11-1.35A11,11,0,0,0,44,28V27h3a1,1,0,0,0,0-2H40V22a1,1,0,1,0-2,0v3H33a1,1,0,0,0,0,2h9v1a9,9,0,0,1-2.54,6.26A7,7,0,0,1,38,30a1,1,0,1,0-2,0A9,9,0,0,0,37.9,35.5,8.94,8.94,0,0,1,33,37a1,1,0,0,0,0,2,10.93,10.93,0,0,0,6.33-2A9,9,0,0,0,45,39Z" style="fill:#faefde;"/></svg>