<svg xmlns="http://www.w3.org/2000/svg" id="Layer_1" data-name="Layer 1" viewBox="0 0 64 64" width="128" height="128"><title>Dusk Part 1</title><rect x="7" y="5" width="50" height="56" rx="2" ry="2" style="fill:#cda1a7;"/><rect x="31" y="-17" width="2" height="48" rx="1" ry="1" transform="translate(25 39) rotate(-90)" style="fill:#deb4ba;"/><polygon points="13 55 43 55 51 47 51 11 13 11 13 55" style="fill:#faefde;"/><polygon points="43 47 51 47 43 55 43 47" style="fill:#bbdef9;"/><polygon points="51 35.47 51 14.63 17.57 54.88 33.88 54.88 51 35.47" style="fill:#fff7f0;"/><polygon points="13.4 53.4 48.5 11 44 11 12.5 49.6 13.4 53.4" style="fill:#fff7f0;"/><polygon points="13 43.42 39.5 11 38 11 13 41.53 13 43.42" style="fill:#fff7f0;"/><polygon points="45.5 29 46.74 31.26 49 32.5 46.74 33.74 45.5 36 44.26 33.74 42 32.5 44.26 31.26 45.5 29" style="fill:#fff;"/><polygon points="42 6 32 1 22 6 21 13 43 13 42 6" style="fill:#f9e3ae;"/><polygon points="25.42 21 26.27 22.56 27.84 23.42 26.27 24.27 25.42 25.84 24.56 24.27 23 23.42 24.56 22.56 25.42 21" style="fill:#fff;"/><polygon points="22.65 48 23.23 49.06 24.3 49.65 23.23 50.23 22.65 51.3 22.07 50.23 21 49.65 22.07 49.06 22.65 48" style="fill:#fff;"/><path d="M55,4H40.58L37.88,2A10,10,0,0,0,26.12,2L23.42,4H9A3,3,0,0,0,6,7V59a3,3,0,0,0,3,3H55a3,3,0,0,0,3-3V7A3,3,0,0,0,55,4ZM50,46H44a2,2,0,0,0-2,2v6H14V12h6.18A3,3,0,0,0,23,14H41a3,3,0,0,0,2.82-2H50Zm-1.41,2L44,52.59V48ZM27.29,3.66a8,8,0,0,1,9.41,0l4.06,3A3,3,0,0,1,42,9v2a1,1,0,0,1-1,1H23a1,1,0,0,1-1-1V9a3,3,0,0,1,1.24-2.43ZM56,59a1,1,0,0,1-1,1H9a1,1,0,0,1-1-1V7A1,1,0,0,1,9,6H21a5,5,0,0,0-1,3v1H14a2,2,0,0,0-2,2V54a2,2,0,0,0,2,2H42.17a3,3,0,0,0,2.12-.88l6.83-6.83A3,3,0,0,0,52,46.17V12a2,2,0,0,0-2-2H44V9a5,5,0,0,0-1-3H55a1,1,0,0,1,1,1Z" style="fill:#8d6c9f;"/><path d="M18,17a1,1,0,0,0-2,0v2a1,1,0,0,0,2,0Z" style="fill:#8d6c9f;"/><path d="M22,16a1,1,0,0,0-1,1v2a1,1,0,0,0,2,0V17A1,1,0,0,0,22,16Z" style="fill:#8d6c9f;"/><path d="M27,20a1,1,0,0,0,1-1V17a1,1,0,0,0-2,0v2A1,1,0,0,0,27,20Z" style="fill:#8d6c9f;"/><path d="M32,20a1,1,0,0,0,1-1V17a1,1,0,0,0-2,0v2A1,1,0,0,0,32,20Z" style="fill:#8d6c9f;"/><path d="M37,20a1,1,0,0,0,1-1V17a1,1,0,0,0-2,0v2A1,1,0,0,0,37,20Z" style="fill:#8d6c9f;"/><path d="M42,20a1,1,0,0,0,1-1V17a1,1,0,0,0-2,0v2A1,1,0,0,0,42,20Z" style="fill:#8d6c9f;"/><path d="M47,20a1,1,0,0,0,1-1V17a1,1,0,0,0-2,0v2A1,1,0,0,0,47,20Z" style="fill:#8d6c9f;"/><circle cx="32" cy="6" r="2" style="fill:#8d6c9f;"/><path d="M27,26a1,1,0,0,0,0,2H45a1,1,0,0,0,0-2Z" style="fill:#8d6c9f;"/><path d="M27,34H41a1,1,0,0,0,0-2H27a1,1,0,0,0,0,2Z" style="fill:#8d6c9f;"/><path d="M33,44H27a1,1,0,0,0,0,2h6a1,1,0,0,0,0-2Z" style="fill:#8d6c9f;"/><path d="M43,38H27a1,1,0,0,0,0,2H43a1,1,0,0,0,0-2Z" style="fill:#8d6c9f;"/><path d="M21.29,25.29,20,26.59l-.29-.29a1,1,0,0,0-1.41,1.41l1,1a1,1,0,0,0,1.41,0l2-2a1,1,0,0,0-1.41-1.41Z" style="fill:#8d6c9f;"/><path d="M21.29,31.29,20,32.59l-.29-.29a1,1,0,0,0-1.41,1.41l1,1a1,1,0,0,0,1.41,0l2-2a1,1,0,0,0-1.41-1.41Z" style="fill:#8d6c9f;"/><path d="M21.29,37.29,20,38.59l-.29-.29a1,1,0,0,0-1.41,1.41l1,1a1,1,0,0,0,1.41,0l2-2a1,1,0,0,0-1.41-1.41Z" style="fill:#8d6c9f;"/><path d="M21.29,43.29,20,44.59l-.29-.29a1,1,0,0,0-1.41,1.41l1,1a1,1,0,0,0,1.41,0l2-2a1,1,0,0,0-1.41-1.41Z" style="fill:#8d6c9f;"/></svg>