<svg xmlns="http://www.w3.org/2000/svg" id="Layer_1" data-name="Layer 1" viewBox="0 0 64 64" width="128" height="128"><title>Dusk Part 2</title><circle cx="35" cy="34" r="28" style="fill:#72caaf;"/><path d="M35,6A28,28,0,1,0,63,34,28,28,0,0,0,35,6Zm0,50A22,22,0,1,1,50.17,18.07l.68.67q.39.4.75.82A22,22,0,0,1,35,56Z" style="fill:#f9e3ae;"/><path d="M35,56A22,22,0,0,1,13,34H9.08a2,2,0,0,0-2,2.15,28,28,0,0,0,55.52,2.55A4,4,0,0,0,58.66,34H57A22,22,0,0,1,35,56Z" style="fill:#f6d397;"/><path d="M35,5A29,29,0,0,0,6,33v2A29,29,0,1,0,35,5Zm0,56A27,27,0,0,1,8,35V33A27,27,0,1,1,35,61Z" style="fill:#8d6c9f;"/><path d="M35,53a1,1,0,0,0-1,1v2a1,1,0,0,0,2,0V54A1,1,0,0,0,35,53Z" style="fill:#8d6c9f;"/><path d="M41,53.08a1,1,0,0,0-1.93.52l.52,1.93A1,1,0,0,0,41.53,55Z" style="fill:#8d6c9f;"/><path d="M25.75,50.52a1,1,0,0,0-1.37.37l-1,1.73a1,1,0,0,0,1.73,1l1-1.73A1,1,0,0,0,25.75,50.52Z" style="fill:#8d6c9f;"/><path d="M45.62,50.89a1,1,0,0,0-1.73,1l1,1.73a1,1,0,0,0,1.73-1Z" style="fill:#8d6c9f;"/><path d="M30.21,52.37a1,1,0,0,0-1.22.71L28.47,55a1,1,0,1,0,1.93.52l.52-1.93A1,1,0,0,0,30.21,52.37Z" style="fill:#8d6c9f;"/><path d="M44.9,15.35a1,1,0,0,0,.45-1.89,22.82,22.82,0,0,0-2.3-1,1,1,0,1,0-.7,1.87,21.2,21.2,0,0,1,2.1.92A1,1,0,0,0,44.9,15.35Z" style="fill:#8d6c9f;"/><path d="M38.65,11.29A23,23,0,0,0,13,27.44a1,1,0,0,0,2,.44A21,21,0,0,1,38.34,13.27a1,1,0,0,0,.32-2Z" style="fill:#8d6c9f;"/><path d="M12.92,40.44a23,23,0,0,0,5.82,9.82,1,1,0,0,0,1.41-1.41A21,21,0,0,1,14.88,40,1,1,0,1,0,12.92,40.44Z" style="fill:#8d6c9f;"/><path d="M51.26,17.74a23.35,23.35,0,0,0-2.09-1.86,1,1,0,1,0-1.23,1.57,21.35,21.35,0,0,1,1.91,1.7,21,21,0,0,1,0,29.7,1,1,0,1,0,1.41,1.41A23,23,0,0,0,51.26,17.74Z" style="fill:#8d6c9f;"/><polygon points="1 31 30 31 26 27 30 23 41 34 30 45 26 41 30 37 1 37 1 31" style="fill:#faefde;"/><path d="M41.71,33.29l-11-11a1,1,0,0,0-1.41,0l-4,4a1,1,0,0,0,0,1.41L27.59,30H1a1,1,0,0,0-1,1v6a1,1,0,0,0,1,1H27.59l-2.29,2.29a1,1,0,0,0,0,1.41l4,4a1,1,0,0,0,1.41,0l11-11A1,1,0,0,0,41.71,33.29ZM30,43.59,27.41,41l3.29-3.29A1,1,0,0,0,30,36H2V32H30a1,1,0,0,0,.71-1.71L27.41,27,30,24.41,39.59,34Z" style="fill:#8d6c9f;"/></svg>