<svg xmlns="http://www.w3.org/2000/svg" id="Layer_1" data-name="Layer 1" viewBox="0 0 64 64" width="128" height="128"><title>Icons8 RSL Colored Part 9</title><circle cx="30" cy="29" r="28" style="fill:#72caaf;"/><path d="M30,1A28,28,0,1,0,58,29,28,28,0,0,0,30,1Zm0,50A22,22,0,1,1,45.17,13.07l.68.67q.39.4.75.82A22,22,0,0,1,30,51Z" style="fill:#f9e3ae;"/><path d="M30,51A22,22,0,0,1,8,29H4.08a2,2,0,0,0-2,2.15,28,28,0,0,0,55.52,2.55A4,4,0,0,0,53.66,29H52A22,22,0,0,1,30,51Z" style="fill:#f6d397;"/><path d="M33.67,6.29A23,23,0,0,0,7,29a22.84,22.84,0,0,0,6.75,16.28,1,1,0,0,0,1.41-1.42A21,21,0,0,1,30,8a21.19,21.19,0,0,1,3.35.27,1,1,0,0,0,.32-2Z" style="fill:#8d6c9f;"/><path d="M59,29A29,29,0,1,0,29,58h2A29,29,0,0,0,59,29ZM31,56H29a27,27,0,1,1,2,0Z" style="fill:#8d6c9f;"/><path d="M37,48.08a1,1,0,0,0-1.93.52l.52,1.93A1,1,0,0,0,37.53,50Z" style="fill:#8d6c9f;"/><path d="M17.75,49a1,1,0,0,0,1.37-.37l1-1.73a1,1,0,0,0-1.73-1l-1,1.73A1,1,0,0,0,17.75,49Z" style="fill:#8d6c9f;"/><path d="M41.62,45.89a1,1,0,0,0-1.73,1l1,1.73a1,1,0,0,0,1.73-1Z" style="fill:#8d6c9f;"/><path d="M23.18,51.23a1,1,0,0,0,1.22-.71l.52-1.93A1,1,0,0,0,23,48.08L22.47,50A1,1,0,0,0,23.18,51.23Z" style="fill:#8d6c9f;"/><path d="M40.35,8.46a22.82,22.82,0,0,0-2.3-1,1,1,0,1,0-.7,1.87,21.2,21.2,0,0,1,2.1.92,1,1,0,1,0,.9-1.79Z" style="fill:#8d6c9f;"/><path d="M46.26,12.74a23.35,23.35,0,0,0-2.09-1.86,1,1,0,1,0-1.23,1.57,21.35,21.35,0,0,1,1.91,1.7,21,21,0,0,1,0,29.7,1,1,0,1,0,1.41,1.41A23,23,0,0,0,46.26,12.74Z" style="fill:#8d6c9f;"/><polygon points="27 63 27 34 23 38 19 34 30 23 41 34 37 38 33 34 33 63 27 63" style="fill:#faefde;"/><path d="M29.29,22.29l-11,11a1,1,0,0,0,0,1.41l4,4a1,1,0,0,0,1.41,0L26,36.41V63a1,1,0,0,0,1,1h6a1,1,0,0,0,1-1V36.41l2.29,2.29a1,1,0,0,0,1.41,0l4-4a1,1,0,0,0,0-1.41l-11-11A1,1,0,0,0,29.29,22.29ZM39.59,34,37,36.59l-3.29-3.29A1,1,0,0,0,32,34V62H28V34a1,1,0,0,0-1.71-.71L23,36.59,20.41,34,30,24.41Z" style="fill:#8d6c9f;"/></svg>