<svg xmlns="http://www.w3.org/2000/svg" id="Layer_1" data-name="Layer 1" viewBox="0 0 64 64" width="128" height="128"><title>Dusk Part 2</title><circle cx="32" cy="35" r="28" style="fill:#ed7899;"/><path d="M32,7A28,28,0,1,0,60,35,28,28,0,0,0,32,7Zm0,50A22,22,0,1,1,47.17,19.07l.68.67q.39.4.75.82A22,22,0,0,1,32,57Z" style="fill:#f9e3ae;"/><path d="M32,57A22,22,0,0,1,10,35H8.34a4,4,0,0,0-3.95,4.71,28,28,0,0,0,55.21,0A4,4,0,0,0,55.66,35H54A22,22,0,0,1,32,57Z" style="fill:#f6d397;"/><path d="M32,6A29,29,0,1,0,61,35,29,29,0,0,0,32,6Zm0,56A27,27,0,1,1,59,35,27,27,0,0,1,32,62Z" style="fill:#8d6c9f;"/><path d="M32,54a1,1,0,0,0-1,1v2a1,1,0,0,0,2,0V55A1,1,0,0,0,32,54Z" style="fill:#8d6c9f;"/><path d="M38,54.08a1,1,0,0,0-1.93.52l.52,1.93A1,1,0,0,0,38.53,56Z" style="fill:#8d6c9f;"/><path d="M22.75,51.52a1,1,0,0,0-1.37.37l-1,1.73a1,1,0,0,0,1.73,1l1-1.73A1,1,0,0,0,22.75,51.52Z" style="fill:#8d6c9f;"/><path d="M42.62,51.89a1,1,0,0,0-1.73,1l1,1.73a1,1,0,0,0,1.73-1Z" style="fill:#8d6c9f;"/><path d="M27.21,53.37a1,1,0,0,0-1.22.71L25.47,56a1,1,0,1,0,1.93.52l.52-1.93A1,1,0,0,0,27.21,53.37Z" style="fill:#8d6c9f;"/><path d="M17.15,20.15a21.08,21.08,0,0,1,18.19-5.89,1,1,0,0,0,.32-2,23,23,0,0,0-19.92,39,1,1,0,0,0,1.41-1.41A21,21,0,0,1,17.15,20.15Z" style="fill:#8d6c9f;"/><path d="M48.26,18.74a23.35,23.35,0,0,0-2.09-1.86,1,1,0,1,0-1.23,1.57,21.35,21.35,0,0,1,1.91,1.7,21,21,0,0,1,0,29.7,1,1,0,1,0,1.41,1.41A23,23,0,0,0,48.26,18.74Z" style="fill:#8d6c9f;"/><polygon points="29 41 29 12 25 16 21 12 32 1 43 12 39 16 35 12 35 41 29 41" style="fill:#faefde;"/><path d="M31.29.29l-11,11a1,1,0,0,0,0,1.41l4,4a1,1,0,0,0,1.41,0L28,14.41V41a1,1,0,0,0,1,1h6a1,1,0,0,0,1-1V14.41l2.29,2.29a1,1,0,0,0,1.41,0l4-4a1,1,0,0,0,0-1.41l-11-11A1,1,0,0,0,31.29.29ZM41.59,12,39,14.59l-3.29-3.29A1,1,0,0,0,34,12V40H30V12a1,1,0,0,0-1.71-.71L25,14.59,22.41,12,32,2.41Z" style="fill:#8d6c9f;"/></svg>