<svg xmlns="http://www.w3.org/2000/svg" id="Layer_1" data-name="Layer 1" viewBox="0 0 64 64" width="128" height="128"><title>Icons8 RSL Colored Part 11</title><circle cx="32" cy="29" r="28" style="fill:#ed7899;"/><path d="M32,1A28,28,0,1,0,60,29,28,28,0,0,0,32,1Zm0,50A22,22,0,1,1,47.17,13.07l.68.67q.39.4.75.82A22,22,0,0,1,32,51Z" style="fill:#f9e3ae;"/><path d="M32,51A22,22,0,0,1,10,29H8.34a4,4,0,0,0-3.95,4.71,28,28,0,0,0,55.21,0A4,4,0,0,0,55.66,29H54A22,22,0,0,1,32,51Z" style="fill:#f6d397;"/><path d="M32,0A29,29,0,1,0,61,29,29,29,0,0,0,32,0Zm0,56A27,27,0,1,1,59,29,27,27,0,0,1,32,56Z" style="fill:#8d6c9f;"/><path d="M39.35,9.32a21.2,21.2,0,0,1,2.1.92,1,1,0,1,0,.9-1.79,22.82,22.82,0,0,0-2.3-1,1,1,0,1,0-.7,1.87Z" style="fill:#8d6c9f;"/><path d="M17.15,14.15A21.08,21.08,0,0,1,35.34,8.27a1,1,0,1,0,.32-2,23,23,0,0,0-19.92,39,1,1,0,0,0,1.41-1.41A21,21,0,0,1,17.15,14.15Z" style="fill:#8d6c9f;"/><path d="M48.26,12.74a23.35,23.35,0,0,0-2.09-1.86,1,1,0,1,0-1.23,1.57,21.35,21.35,0,0,1,1.91,1.7,21,21,0,0,1,0,29.7,1,1,0,1,0,1.41,1.41A23,23,0,0,0,48.26,12.74Z" style="fill:#8d6c9f;"/><polygon points="35 23 35 52 39 48 43 52 32 63 21 52 25 48 29 52 29 23 35 23" style="fill:#faefde;"/><path d="M32.71,63.71l11-11a1,1,0,0,0,0-1.41l-4-4a1,1,0,0,0-1.41,0L36,49.59V23a1,1,0,0,0-1-1H29a1,1,0,0,0-1,1V49.59l-2.29-2.29a1,1,0,0,0-1.41,0l-4,4a1,1,0,0,0,0,1.41l11,11A1,1,0,0,0,32.71,63.71ZM22.41,52,25,49.41l3.29,3.29A1,1,0,0,0,30,52V24h4V52a1,1,0,0,0,1.71.71L39,49.41,41.59,52,32,61.59Z" style="fill:#8d6c9f;"/></svg>