<svg xmlns="http://www.w3.org/2000/svg" id="Layer_1" data-name="Layer 1" viewBox="0 0 64 64" width="128" height="128"><title>Icons8 RSL Colored Part 5</title><circle cx="35" cy="32" r="28" style="fill:#ed7899;"/><path d="M35,4A28,28,0,1,0,63,32,28,28,0,0,0,35,4Zm0,50A22,22,0,1,1,50.17,16.07l.68.67q.39.4.75.82A22,22,0,0,1,35,54Z" style="fill:#f9e3ae;"/><path d="M35,54A22,22,0,0,1,13,32H11.34a4,4,0,0,0-3.95,4.71,28,28,0,0,0,55.21,0A4,4,0,0,0,58.66,32H57A22,22,0,0,1,35,54Z" style="fill:#f6d397;"/><path d="M35,3A29,29,0,1,0,64,32,29,29,0,0,0,35,3Zm0,56A27,27,0,1,1,62,32,27,27,0,0,1,35,59Z" style="fill:#8d6c9f;"/><path d="M35,51a1,1,0,0,0-1,1v2a1,1,0,0,0,2,0V52A1,1,0,0,0,35,51Z" style="fill:#8d6c9f;"/><path d="M41,51.08a1,1,0,0,0-1.93.52l.52,1.93A1,1,0,0,0,41.53,53Z" style="fill:#8d6c9f;"/><path d="M25.75,48.52a1,1,0,0,0-1.37.37l-1,1.73a1,1,0,0,0,1.73,1l1-1.73A1,1,0,0,0,25.75,48.52Z" style="fill:#8d6c9f;"/><path d="M45.62,48.89a1,1,0,0,0-1.73,1l1,1.73a1,1,0,0,0,1.73-1Z" style="fill:#8d6c9f;"/><path d="M30.21,50.37a1,1,0,0,0-1.22.71L28.47,53a1,1,0,1,0,1.93.52l.52-1.93A1,1,0,0,0,30.21,50.37Z" style="fill:#8d6c9f;"/><path d="M42.35,12.32a21.2,21.2,0,0,1,2.1.92,1,1,0,1,0,.9-1.79,22.82,22.82,0,0,0-2.3-1,1,1,0,1,0-.7,1.87Z" style="fill:#8d6c9f;"/><path d="M20.15,17.15a21.08,21.08,0,0,1,18.19-5.89,1,1,0,1,0,.32-2,23,23,0,0,0-19.92,39,1,1,0,0,0,1.41-1.41A21,21,0,0,1,20.15,17.15Z" style="fill:#8d6c9f;"/><path d="M51.26,15.74a23.35,23.35,0,0,0-2.09-1.86,1,1,0,1,0-1.23,1.57,21.35,21.35,0,0,1,1.91,1.7,21,21,0,0,1,0,29.7,1,1,0,1,0,1.41,1.41A23,23,0,0,0,51.26,15.74Z" style="fill:#8d6c9f;"/><polygon points="41 35 12 35 16 39 12 43 1 32 12 21 16 25 12 29 41 29 41 35" style="fill:#faefde;"/><path d="M.29,32.71l11,11a1,1,0,0,0,1.41,0l4-4a1,1,0,0,0,0-1.41L14.41,36H41a1,1,0,0,0,1-1V29a1,1,0,0,0-1-1H14.41l2.29-2.29a1,1,0,0,0,0-1.41l-4-4a1,1,0,0,0-1.41,0l-11,11A1,1,0,0,0,.29,32.71ZM12,22.41,14.59,25l-3.29,3.29A1,1,0,0,0,12,30H40v4H12a1,1,0,0,0-.71,1.71L14.59,39,12,41.59,2.41,32Z" style="fill:#8d6c9f;"/></svg>