<svg xmlns="http://www.w3.org/2000/svg" id="Layer_1" data-name="Layer 1" viewBox="0 0 64 64" width="128" height="128"><title>Dusk Part 3</title><rect x="20.03" y="15.02" width="4" height="22" transform="translate(-11.95 23.2) rotate(-45)" style="fill:#f9e3ae;"/><path d="M6.26,8.57,4.57,10.26a1,1,0,0,0-.13,1.25l4.51,7a1,1,0,0,0,.62.43l2.73.63a1,1,0,0,0,.93-.27l2.05-2.05a1,1,0,0,0,.27-.91L15,13.66a1,1,0,0,0-.43-.63L7.51,8.44A1,1,0,0,0,6.26,8.57Z" style="fill:#f6d397;"/><path d="M36,35.8l-1.29-1.29-4.24,4.24L31.8,40A2,2,0,0,1,32.32,42a4,4,0,0,0,1,3.85L46.78,59.26a4,4,0,0,0,5.66,0l2.83-2.83a4,4,0,0,0,0-5.66L41.83,37.34a4,4,0,0,0-3.85-1A2,2,0,0,1,36,35.8Z" style="fill:#ed7899;"/><path d="M52.22,59.2,31.14,38.12l-.63.63L31.8,40A2,2,0,0,1,32.32,42a4,4,0,0,0,1,3.85L46.78,59.26a4,4,0,0,0,5.66,0Z" style="fill:#e0678f;"/><path d="M59.6,14.88l-6.24,6.24a2,2,0,0,1-1.93.52l-1.09-.29a8,8,0,0,1-5.66-5.66l-.29-1.09a2,2,0,0,1,.52-1.93l6.25-6.25c-4.48-1.42-11,1-14.55,4.6s-3.19,7.21-1.79,11.69L17.5,40A10,10,0,1,0,26,48.5L43.3,31.18c4.47,1.41,8.14,1.76,11.69-1.79S61,19.35,59.6,14.88ZM19.37,53.18l-4.46,1.2-3.27-3.27,1.2-4.46,4.46-1.2,3.27,3.27Z" style="fill:#c2cde7;"/><path d="M59.6,14.88l-6.24,6.24a2,2,0,0,1-1.93.52l-1.09-.29a8,8,0,0,1-5.66-5.66l-.29-1.09a2,2,0,0,1,.52-1.93l6.25-6.25c-4.48-1.42-11,1-14.55,4.6a9.47,9.47,0,0,0-2.29,3.44L51.54,31.68A9.47,9.47,0,0,0,55,29.4C58.53,25.85,61,19.35,59.6,14.88Z" style="fill:#d6dff2;"/><path d="M39,44.41a1,1,0,0,0-1.41,1.41l9.9,9.9a1,1,0,0,0,1.41-1.41Z" style="fill:#8d6c9f;"/><path d="M41.83,41.58A1,1,0,0,0,40.41,43l9.9,9.9a1,1,0,0,0,1.41-1.41Z" style="fill:#8d6c9f;"/><path d="M18,44.75a1,1,0,0,0-1-.26l-4.46,1.2a1,1,0,0,0-.71.71l-1.2,4.46a1,1,0,0,0,.26,1l3.27,3.27a1,1,0,0,0,1,.26l4.46-1.2a1,1,0,0,0,.71-.71L21.53,49a1,1,0,0,0-.26-1Zm.55,7.62-3.35.9-2.45-2.45.9-3.35,3.35-.9L19.45,49Z" style="fill:#8d6c9f;"/><path d="M45.79,27.27a1,1,0,0,0,1.41-1.41l-7.07-7.07a1,1,0,0,0-1.41,1.41Z" style="fill:#8d6c9f;"/><path d="M37.31,27.27a1,1,0,0,0-1.41,1.41l1.41,1.41a1,1,0,0,0,1.41-1.41Z" style="fill:#8d6c9f;"/><path d="M33.77,30.81a1,1,0,1,0-1.41,1.41l1.41,1.41a1,1,0,0,0,1.41-1.41Z" style="fill:#8d6c9f;"/><path d="M30.24,34.35a1,1,0,0,0-1.41,1.41l1.41,1.41a1,1,0,0,0,1.41-1.41Z" style="fill:#8d6c9f;"/><path d="M26.7,37.88a1,1,0,0,0-1.41,1.41l1.41,1.41a1,1,0,0,0,1.41-1.41Z" style="fill:#8d6c9f;"/><path d="M23.17,41.42a1,1,0,0,0-1.41,1.41l1.41,1.41a1,1,0,0,0,1.41-1.41Z" style="fill:#8d6c9f;"/><path d="M42.53,36.63a4.89,4.89,0,0,0-2.06-1.21l3.11-3.11c4.61,1.36,8.46,1.44,12.11-2.21s6.46-10.44,4.86-15.52a1,1,0,0,0-1.66-.41l-6.24,6.24a1,1,0,0,1-1,.26l-1.09-.29a7,7,0,0,1-4.95-4.95l-.29-1.1a1,1,0,0,1,.26-1l6.25-6.25a1,1,0,0,0-.4-1.66C46.37,3.84,39.55,6.65,35.89,10.3s-3.58,7.5-2.21,12.11l-5.51,5.51L16.55,16.3a2,2,0,0,0,0-.21L16,13.45a2,2,0,0,0-.87-1.27L8.05,7.6a2,2,0,0,0-2.5.26L3.86,9.55A2,2,0,0,0,3.6,12l4.51,7a2,2,0,0,0,1.23.86l2.73.63.23,0L23.93,32.17,17.13,39A10.91,10.91,0,0,0,7.29,43.3a11,11,0,0,0,8.18,17.58l.62,0a11,11,0,0,0,7.78-3.22A10.9,10.9,0,0,0,27,48.86l4.39-4.39a4.9,4.9,0,0,0,1.21,2.06L46.07,60a5,5,0,0,0,7.07,0L56,57.14a5,5,0,0,0,0-7.07ZM5.28,11,7,9.28,14,13.86l.55,2.64-2.05,2.05-2.73-.63Zm9,8.7.7-.7.72-.72L26.76,29.34l-1.41,1.41Zm11,28.13a1,1,0,0,0-.28.85A9,9,0,0,1,9,55.48a9.05,9.05,0,0,1-.14-11,8.92,8.92,0,0,1,7.17-3.6,9.3,9.3,0,0,1,1.3.09,1,1,0,0,0,.85-.28L35.52,23.4a1,1,0,0,0,.25-1c-1.38-4.4-1.58-7.56,1.54-10.68C40.06,9,45.11,6.71,49.12,7L44.19,12a3,3,0,0,0-.78,2.9l.29,1.09a9,9,0,0,0,6.36,6.36l1.09.29a3,3,0,0,0,2.9-.78l4.9-4.9c.31,4-1.95,9-4.69,11.76C51.16,31.8,48,31.61,43.6,30.23a1,1,0,0,0-1,.25Zm29.28,7.93-2.83,2.83a3,3,0,0,1-4.24,0L34,45.12a3,3,0,0,1-.82-2.44l5.45-5.45a3,3,0,0,1,2.44.82L54.55,51.48A3,3,0,0,1,54.55,55.72Z" style="fill:#8d6c9f;"/></svg>