<svg xmlns="http://www.w3.org/2000/svg" id="Layer_1" data-name="Layer 1" viewBox="0 0 64 64" width="128" height="128"><title>Dusk Part 4</title><path d="M59,22C59,8.75,48.25,1,35,1,21.95,1,11.33,9.48,11,22.4a4,4,0,0,1-.2,1.17L5.39,39.83a1,1,0,0,0,.84,1.31l3,.33a2,2,0,0,1,1.78,2v9.07a4,4,0,0,0,4.44,4L25,55.44l-.7,5.29a2,2,0,0,0,2,2.26h26.5a2,2,0,0,0,2-2.21L53.33,47.14a7.91,7.91,0,0,1,.75-4.3A47.56,47.56,0,0,0,59,22Z" style="fill:#faefde;"/><circle cx="34" cy="31" r="6" style="fill:#85cbf8;"/><circle cx="47" cy="19" r="4" style="fill:#72caaf;"/><circle cx="34" cy="46" r="2" style="fill:#fff;"/><circle cx="46" cy="40" r="3" style="fill:#ed7899;"/><circle cx="22" cy="19" r="3" style="fill:#acb7d0;"/><circle cx="19" cy="34" r="2" style="fill:#f9e3ae;"/><path d="M19,10.7a3,3,0,0,0,3.81.35A20.78,20.78,0,0,1,34.66,7.54a21.63,21.63,0,0,1,12.45,3.61,3,3,0,0,0,3.82-.34l.45-.45a3,3,0,0,0-.28-4.5A26.93,26.93,0,0,0,35,1,25.81,25.81,0,0,0,19.14,6.11a3,3,0,0,0-.25,4.47Z" style="fill:#fff7f0;"/><path d="M35,9a1,1,0,0,0,1-1V6a1,1,0,0,0-2,0V8A1,1,0,0,0,35,9Z" style="fill:#8d6c9f;"/><path d="M29,8.92a1,1,0,1,0,1.93-.52L30.4,6.47A1,1,0,0,0,28.47,7Z" style="fill:#8d6c9f;"/><path d="M44.25,11.48a1,1,0,0,0,1.37-.37l1-1.73a1,1,0,0,0-1.73-1l-1,1.73A1,1,0,0,0,44.25,11.48Z" style="fill:#8d6c9f;"/><path d="M24.38,11.11a1,1,0,0,0,1.73-1l-1-1.73a1,1,0,0,0-1.73,1Z" style="fill:#8d6c9f;"/><path d="M39.79,9.63A1,1,0,0,0,41,8.92L41.53,7a1,1,0,0,0-1.93-.52l-.52,1.93A1,1,0,0,0,39.79,9.63Z" style="fill:#8d6c9f;"/><path d="M55,43.28A48.86,48.86,0,0,0,60,22C60,9,49.72,0,35,0,20.84,0,10.33,9.41,10,22.38a3,3,0,0,1-.14.88L4.44,39.51a2,2,0,0,0,1.68,2.62l3,.33a1,1,0,0,1,.89,1v9.07a5,5,0,0,0,5.55,5l2.9-.32h0l5.39-.6-.53,4a3,3,0,0,0,3,3.39h26.5a3,3,0,0,0,3-3.31L54.33,47A6.91,6.91,0,0,1,55,43.28ZM53.52,61.67a1,1,0,0,1-.74.33H26.28a1,1,0,0,1-1-1.13l.6-4.52L29.11,56a1,1,0,1,0-.22-2l-2.73.3h0l-10.83,1.2a3,3,0,0,1-3.33-3V43.46a3,3,0,0,0-2.67-3l-3-.33,5.42-16.26A5,5,0,0,0,12,22.42C12.3,10.59,22,2,35,2,50.89,2,58,12,58,22a46.86,46.86,0,0,1-4.82,20.4,8.9,8.9,0,0,0-.85,4.84L53.77,60.9A1,1,0,0,1,53.52,61.67Z" style="fill:#8d6c9f;"/><path d="M22,23a4,4,0,1,0-4-4A4,4,0,0,0,22,23Zm0-6.25A2.25,2.25,0,1,1,19.75,19,2.25,2.25,0,0,1,22,16.75Z" style="fill:#8d6c9f;"/><path d="M34,43a3,3,0,1,0,3,3A3,3,0,0,0,34,43Zm0,4.14A1.14,1.14,0,1,1,35.14,46,1.14,1.14,0,0,1,34,47.14Z" style="fill:#8d6c9f;"/><path d="M47,14a5,5,0,0,0-5,5,5,5,0,0,0,.75,2.61l-4.33,4a7,7,0,0,0-8.71-.1l-3-3a1,1,0,0,0-1.42,1.42l3,3A7,7,0,0,0,27,31c0,.13,0,.25,0,.38l-5.45,1.09a3,3,0,1,0,.39,2l5.45-1.09A7,7,0,0,0,33,37.92V41a1,1,0,0,0,2,0V37.92a7,7,0,0,0,3.94-2l3.36,2.52a4.09,4.09,0,1,0,1.21-1.59l-3.38-2.53a7,7,0,0,0-.36-7.29l4.35-4A5,5,0,1,0,47,14ZM19,35.25A1.25,1.25,0,1,1,20.25,34,1.25,1.25,0,0,1,19,35.25Zm15,1.13A5.38,5.38,0,1,1,39.38,31,5.38,5.38,0,0,1,34,36.38Zm12,1.38A2.25,2.25,0,1,1,43.75,40,2.25,2.25,0,0,1,46,37.75Zm1-15.62A3.13,3.13,0,1,1,50.13,19,3.13,3.13,0,0,1,47,22.13Z" style="fill:#8d6c9f;"/></svg>