<svg xmlns="http://www.w3.org/2000/svg" id="Layer_1" data-name="Layer 1" viewBox="0 0 64 64" width="128" height="128"><title>Icons8 RSL Colored Part 5</title><rect x="7" y="5" width="50" height="56" rx="2" ry="2" style="fill:#cda1a7;"/><rect x="31" y="-17" width="2" height="48" rx="1" ry="1" transform="translate(25 39) rotate(-90)" style="fill:#deb4ba;"/><polygon points="13 55 43 55 51 47 51 11 13 11 13 55" style="fill:#faefde;"/><polygon points="43 47 51 47 43 55 43 47" style="fill:#bbdef9;"/><polygon points="51 35.47 51 14.63 17.57 54.88 33.88 54.88 51 35.47" style="fill:#fff7f0;"/><polygon points="13.4 53.4 48.5 11 44 11 12.5 49.6 13.4 53.4" style="fill:#fff7f0;"/><polygon points="13 43.42 39.5 11 38 11 13 41.53 13 43.42" style="fill:#fff7f0;"/><polygon points="45.5 29 46.74 31.26 49 32.5 46.74 33.74 45.5 36 44.26 33.74 42 32.5 44.26 31.26 45.5 29" style="fill:#fff;"/><polygon points="42 6 32 1 22 6 21 13 43 13 42 6" style="fill:#f9e3ae;"/><polygon points="29.42 20 30.27 21.56 31.84 22.42 30.27 23.27 29.42 24.84 28.56 23.27 27 22.42 28.56 21.56 29.42 20" style="fill:#fff;"/><polygon points="23.65 49 24.23 50.06 25.3 50.65 24.23 51.23 23.65 52.3 23.07 51.23 22 50.65 23.07 50.06 23.65 49" style="fill:#fff;"/><path d="M55,4H40.58l-2.7-2A10,10,0,0,0,26.12,2l-2.7,2H9A3,3,0,0,0,6,7V59a3,3,0,0,0,3,3H55a3,3,0,0,0,3-3V7A3,3,0,0,0,55,4ZM27.29,3.66a8,8,0,0,1,9.42,0l.47.34,2.74,2,.84.61A3,3,0,0,1,42,9v2a1,1,0,0,1-1,1H23a1,1,0,0,1-1-1V9a3,3,0,0,1,1.24-2.43L24.08,6l2.74-2ZM50,46H44a2,2,0,0,0-2,2v6H14V12h6.18A3,3,0,0,0,23,14H41a3,3,0,0,0,2.82-2H50Zm-1.41,2L44,52.59V48ZM56,59a1,1,0,0,1-1,1H9a1,1,0,0,1-1-1V7A1,1,0,0,1,9,6H21a5,5,0,0,0-1,3v1H14a2,2,0,0,0-2,2V54a2,2,0,0,0,2,2H42.17a3,3,0,0,0,2.12-.88l6.83-6.83A3,3,0,0,0,52,46.17V12a2,2,0,0,0-2-2H44V9a5,5,0,0,0-1-3H55a1,1,0,0,1,1,1Z" style="fill:#8d6c9f;"/><path d="M17,16a1,1,0,0,0-1,1v2a1,1,0,0,0,2,0V17A1,1,0,0,0,17,16Z" style="fill:#8d6c9f;"/><path d="M22,20a1,1,0,0,0,1-1V17a1,1,0,0,0-2,0v2A1,1,0,0,0,22,20Z" style="fill:#8d6c9f;"/><path d="M27,20a1,1,0,0,0,1-1V17a1,1,0,0,0-2,0v2A1,1,0,0,0,27,20Z" style="fill:#8d6c9f;"/><path d="M32,20a1,1,0,0,0,1-1V17a1,1,0,0,0-2,0v2A1,1,0,0,0,32,20Z" style="fill:#8d6c9f;"/><path d="M37,20a1,1,0,0,0,1-1V17a1,1,0,0,0-2,0v2A1,1,0,0,0,37,20Z" style="fill:#8d6c9f;"/><path d="M42,20a1,1,0,0,0,1-1V17a1,1,0,0,0-2,0v2A1,1,0,0,0,42,20Z" style="fill:#8d6c9f;"/><path d="M47,20a1,1,0,0,0,1-1V17a1,1,0,0,0-2,0v2A1,1,0,0,0,47,20Z" style="fill:#8d6c9f;"/><circle cx="32" cy="6" r="2" style="fill:#8d6c9f;"/><path d="M26,27a1,1,0,0,0,1,1H45a1,1,0,0,0,0-2H27A1,1,0,0,0,26,27Z" style="fill:#8d6c9f;"/><path d="M27,36H41a1,1,0,0,0,0-2H27a1,1,0,0,0,0,2Z" style="fill:#8d6c9f;"/><path d="M43,42H27a1,1,0,0,0,0,2H43a1,1,0,0,0,0-2Z" style="fill:#8d6c9f;"/><path d="M20.46,25.83l.54-.27V29a1,1,0,0,0,2,0V24a1,1,0,0,0-1.44-.9l-2,1a1,1,0,1,0,.89,1.79Z" style="fill:#8d6c9f;"/><path d="M22.16,41H20.47a1,1,0,0,0,0,2H22v.57h-.69a1,1,0,0,0,0,2H22V46H20.47a1,1,0,0,0,0,2h1.69A1.85,1.85,0,0,0,24,46.17V42.79A1.85,1.85,0,0,0,22.16,41Z" style="fill:#8d6c9f;"/><path d="M20.48,32a1,1,0,0,0,0,2H22v.5h-.67a1.84,1.84,0,0,0-1.83,1.83v.83a1.84,1.84,0,0,0,1.83,1.83H23a1,1,0,0,0,0-2h-1.5v-.5h.67A1.84,1.84,0,0,0,24,34.62v-.83A1.84,1.84,0,0,0,22.15,32Z" style="fill:#8d6c9f;"/></svg>