<svg xmlns="http://www.w3.org/2000/svg" id="Layer_1" data-name="Layer 1" viewBox="0 0 64 64" width="128" height="128"><title>Dusk Part 2</title><path d="M61,59.38a1,1,0,0,1-1,1H4a1,1,0,0,1-1-1v-8A9.37,9.37,0,0,1,8.3,43l14.07-6.73c2.55,3.21,5.91,5.5,9.63,5.5s7.08-2.29,9.63-5.5L55.7,43A9.37,9.37,0,0,1,61,51.41Z" style="fill:#72caaf;"/><path d="M32,45c4.1,0,7.82-2.12,10.57-5.56a2,2,0,0,0-.7-3.06l-.23-.11c-2.55,3.21-5.91,5.5-9.63,5.5s-7.08-2.29-9.63-5.5l-.23.11a2,2,0,0,0-.7,3.06C24.18,42.88,27.9,45,32,45Z" style="fill:#7dd8ba;"/><path d="M57,56H7a4,4,0,0,0-4,4H3a1,1,0,0,0,1,1H60a1,1,0,0,0,1-1h0A4,4,0,0,0,57,56Z" style="fill:#66bfa1;"/><path d="M19.07,28.13h0c-.31,0-1.31-.82-1.83-2.77s-.05-3.27.19-3.33c0,0,1.9-.33,1.92-.71a12.86,12.86,0,0,1,.18-1.63,6.09,6.09,0,0,0-.08-1.73,22.42,22.42,0,0,1-.13-5.44c.34-3.38,2.32-5.39,5.31-5.39a1.06,1.06,0,0,0,.63-.21A12.77,12.77,0,0,1,32,5h1.06c6.42,0,11,3.28,12.95,9.07-.73-.08-.49.43-1,.93s-1.78.7-1.3,2a12.8,12.8,0,0,1,1,4.31c0,.38,1.9-.29,1.92-.29.26.09.72,2.37.19,4.33S45,31,45,31a24.52,24.52,0,0,0-3.42,3.14c-2.33,3.83-5.76,6.8-9.58,6.8-5.47,0-10.14-6.06-11.92-12.05A1.06,1.06,0,0,0,19.07,28.13Z" style="fill:#faefde;"/><path d="M19.45,18A7.47,7.47,0,0,0,26,13c3,1,4,4,18,3,1.39-.1,1.6.39,2,0s-.72-2,0-1.93C44.11,8.28,39.47,5,33.06,5H32a12.77,12.77,0,0,0-6.75,1.9,1.06,1.06,0,0,1-.63.21c-3,0-5,2-5.31,5.39a22.42,22.42,0,0,0,.13,5.44Z" style="fill:#8b8e98;"/><path d="M44,20h2a3,3,0,0,1,3,3v2a3,3,0,0,1-3,3H44a0,0,0,0,1,0,0V20A0,0,0,0,1,44,20Z" style="fill:#eb9697;"/><rect x="31" y="32" width="6" height="4" style="fill:#8b8e98;"/><path d="M47,54a1,1,0,0,0-1,1v2a1,1,0,0,0,2,0V55A1,1,0,0,0,47,54Z" style="fill:#8d6c9f;"/><path d="M52,54a1,1,0,0,0-1,1v2a1,1,0,0,0,2,0V55A1,1,0,0,0,52,54Z" style="fill:#8d6c9f;"/><path d="M56,55v2a1,1,0,0,0,2,0V55a1,1,0,0,0-2,0Z" style="fill:#8d6c9f;"/><path d="M42,54a1,1,0,0,0-1,1v2a1,1,0,0,0,2,0V55A1,1,0,0,0,42,54Z" style="fill:#8d6c9f;"/><path d="M37,54a1,1,0,0,0-1,1v2a1,1,0,0,0,2,0V55A1,1,0,0,0,37,54Z" style="fill:#8d6c9f;"/><path d="M32,54a1,1,0,0,0-1,1v2a1,1,0,0,0,2,0V55A1,1,0,0,0,32,54Z" style="fill:#8d6c9f;"/><path d="M27,54a1,1,0,0,0-1,1v2a1,1,0,0,0,2,0V55A1,1,0,0,0,27,54Z" style="fill:#8d6c9f;"/><path d="M22,54a1,1,0,0,0-1,1v2a1,1,0,0,0,2,0V55A1,1,0,0,0,22,54Z" style="fill:#8d6c9f;"/><path d="M17,54a1,1,0,0,0-1,1v2a1,1,0,0,0,2,0V55A1,1,0,0,0,17,54Z" style="fill:#8d6c9f;"/><path d="M12,54a1,1,0,0,0-1,1v2a1,1,0,0,0,2,0V55A1,1,0,0,0,12,54Z" style="fill:#8d6c9f;"/><path d="M7,54a1,1,0,0,0-1,1v2a1,1,0,0,0,2,0V55A1,1,0,0,0,7,54Z" style="fill:#8d6c9f;"/><path d="M55.75,41.38,42.49,35a5.6,5.6,0,0,1,.47-.85,5,5,0,0,0,3.58-3.83l.29-1.46A4,4,0,0,0,50,25V23a4,4,0,0,0-4-4h-.34a18.41,18.41,0,0,0-.71-2.33l0-.11a5.31,5.31,0,0,1,1.38.36,1,1,0,0,0,1.36-1.14C46,8.41,40.56,4,33,4H32a14.59,14.59,0,0,0-7.31,2C21,6.14,18.42,8.76,18,12.9a23,23,0,0,0,.13,5.6,7.14,7.14,0,0,1,.09,1q0,.28-.09.56a1.94,1.94,0,0,0-.44.06,2.67,2.67,0,0,0-1.78,2.26,7.49,7.49,0,0,0,.18,3.34c.54,2,1.66,3.5,2.88,4A23.14,23.14,0,0,0,21.52,35L8.25,41.38A11.06,11.06,0,0,0,2,51.3V59a3,3,0,0,0,3,3H59a3,3,0,0,0,3-3V51.3A11.06,11.06,0,0,0,55.75,41.38ZM48,23v2a2,2,0,0,1-2,2H45V21h1A2,2,0,0,1,48,23ZM19.77,27.88h0c-.29,0-1.24-.78-1.73-2.62a5.55,5.55,0,0,1-.15-2.42c.11-.56.31-.72.33-.73a.6.6,0,0,1,.27.12A1,1,0,0,0,20,21.43a12.14,12.14,0,0,1,.17-1.54,5.73,5.73,0,0,0-.08-1.64A21.23,21.23,0,0,1,20,13.1C20.31,9.91,22.19,8,25,8a1,1,0,0,0,.6-.2A12.08,12.08,0,0,1,32,6h1c6.07,0,10.45,3.1,12.25,8.58a2.3,2.3,0,0,0-1.9.48,2,2,0,0,0-.29,2.3c.24.66.42,1.2.56,1.72A1,1,0,0,0,43,20v8a1,1,0,0,0,1,1h.78l-.2,1A3,3,0,0,1,42,32.37l-4.23.53A3,3,0,0,0,35,31H33a3,3,0,0,0,0,6h2a3,3,0,0,0,2.85-2.1l2.53-.32C38,38,35,40,32,40c-5.18,0-9.59-5.74-11.27-11.4A1,1,0,0,0,19.77,27.88ZM36,34a1,1,0,0,1-1,1H33a1,1,0,0,1,0-2h2A1,1,0,0,1,36,34ZM60,59a1,1,0,0,1-1,1H5a1,1,0,0,1-1-1V51.3a9,9,0,0,1,5.12-8.12l13.58-6.5C25.16,39.79,28.4,42,32,42c3.33,0,6.64-1.91,9.32-5.31l13.57,6.49A9,9,0,0,1,60,51.3Z" style="fill:#8d6c9f;"/><path d="M27.92,14.88A21.11,21.11,0,0,0,37.11,17h2.55a1,1,0,0,0,0-2H37.11a19.11,19.11,0,0,1-8.32-1.92l-1.56-.76a2,2,0,0,0-2.55.7l-1.6,2.43a1,1,0,0,0,1.67,1.1l1.6-2.43Z" style="fill:#8d6c9f;"/><path d="M39.33,47.92H37a1,1,0,0,0,0,2h2.33a1,1,0,0,0,0-2Z" style="fill:#faefde;"/><path d="M47.33,47.92H43a1,1,0,0,0,0,2h4.33a1,1,0,0,0,0-2Z" style="fill:#faefde;"/></svg>