<svg xmlns="http://www.w3.org/2000/svg" id="Layer_1" data-name="Layer 1" viewBox="0 0 64 64" width="128" height="128"><title>Icons8 RSL Colored Part 9</title><rect x="5" y="5" width="54" height="46" rx="2" ry="2" style="fill:#c5e4fa;"/><path d="M7,5H57a2,2,0,0,1,2,2v8a0,0,0,0,1,0,0H5a0,0,0,0,1,0,0V7A2,2,0,0,1,7,5Z" style="fill:#ced8ed;"/><polygon points="59 15.39 23.39 51 43.72 51 59 35.72 59 15.39" style="fill:#e3f2ff;"/><polygon points="55.16 15.11 19.27 51 11.14 51 47.03 15.11 55.16 15.11" style="fill:#e3f2ff;"/><polygon points="42.36 15.11 6.47 51 5.12 51 41.01 15.11 42.36 15.11" style="fill:#e3f2ff;"/><path d="M57,3.88H7a3,3,0,0,0-3,3v42a3,3,0,0,0,3,3H57a3,3,0,0,0,3-3v-42A3,3,0,0,0,57,3.88Zm-50,2H57a1,1,0,0,1,1,1v7H6v-7A1,1,0,0,1,7,5.88Zm50,44H7a1,1,0,0,1-1-1v-33H58v33A1,1,0,0,1,57,49.88Z" style="fill:#8d6c9f;"/><path d="M19,11.88a1,1,0,0,0,1-1v-2a1,1,0,0,0-2,0v2A1,1,0,0,0,19,11.88Z" style="fill:#8d6c9f;"/><path d="M14,11.88a1,1,0,0,0,1-1v-2a1,1,0,0,0-2,0v2A1,1,0,0,0,14,11.88Z" style="fill:#8d6c9f;"/><path d="M9,11.88a1,1,0,0,0,1-1v-2a1,1,0,0,0-2,0v2A1,1,0,0,0,9,11.88Z" style="fill:#8d6c9f;"/><path d="M34,11.88a1,1,0,0,0,1-1v-2a1,1,0,0,0-2,0v2A1,1,0,0,0,34,11.88Z" style="fill:#8d6c9f;"/><path d="M39,11.88a1,1,0,0,0,1-1v-2a1,1,0,0,0-2,0v2A1,1,0,0,0,39,11.88Z" style="fill:#8d6c9f;"/><path d="M44,11.88a1,1,0,0,0,1-1v-2a1,1,0,0,0-2,0v2A1,1,0,0,0,44,11.88Z" style="fill:#8d6c9f;"/><path d="M49,11.88a1,1,0,0,0,1-1v-2a1,1,0,0,0-2,0v2A1,1,0,0,0,49,11.88Z" style="fill:#8d6c9f;"/><path d="M54,11.88a1,1,0,0,0,1-1v-2a1,1,0,0,0-2,0v2A1,1,0,0,0,54,11.88Z" style="fill:#8d6c9f;"/><path d="M24,11.88a1,1,0,0,0,1-1v-2a1,1,0,0,0-2,0v2A1,1,0,0,0,24,11.88Z" style="fill:#8d6c9f;"/><path d="M29,11.88a1,1,0,0,0,1-1v-2a1,1,0,0,0-2,0v2A1,1,0,0,0,29,11.88Z" style="fill:#8d6c9f;"/><polygon points="11.6 58.16 41.1 28.66 35 28.66 35 23 51 23 51 39 45.34 39 45.34 32.9 15.84 62.41 11.6 58.16" style="fill:#faefde;"/><path d="M51,22H35a1,1,0,0,0-1,1v5.66a1,1,0,0,0,1,1h3.69l-27.8,27.8a1,1,0,0,0,0,1.41l4.24,4.24a1,1,0,0,0,1.41,0l27.8-27.8V39a1,1,0,0,0,1,1H51a1,1,0,0,0,1-1V23A1,1,0,0,0,51,22ZM50,38H46.34V32.9a1,1,0,0,0-1.71-.71L15.84,61,13,58.16l28.8-28.8a1,1,0,0,0-.71-1.71H36V24H50Z" style="fill:#8d6c9f;"/></svg>