<svg xmlns="http://www.w3.org/2000/svg" id="Layer_1" data-name="Layer 1" viewBox="0 0 64 64" width="128" height="128"><title>Icons8 RSL Colored Part 8</title><circle cx="31" cy="31" r="28" style="fill:#ed7899;"/><path d="M31,3A28,28,0,1,0,59,31,28,28,0,0,0,31,3Zm0,50A22,22,0,1,1,46.17,15.07l.68.67q.39.4.75.82A22,22,0,0,1,31,53Z" style="fill:#f9e3ae;"/><path d="M31,53A22,22,0,0,1,9,31H7.34a4,4,0,0,0-3.95,4.71,28,28,0,0,0,55.21,0A4,4,0,0,0,54.66,31H53A22,22,0,0,1,31,53Z" style="fill:#f6d397;"/><path d="M29.34,35.7a4.59,4.59,0,0,1-4.26-2.86l-1.27-3.12a4.06,4.06,0,0,0-2.65-2.37h0a.92.92,0,0,0-1.17,1l.52,4.77A12.89,12.89,0,0,0,22,38s3,5,6.91,5h5.64a5,5,0,0,0,4.77-3.52A12.1,12.1,0,0,0,40,35.45c0-3.45-.75-13.27-.75-13.27a1.65,1.65,0,0,0-1.65-1.56h0a1.65,1.65,0,0,0-1.65,1.65v5.62H35.8L35.52,19a1.63,1.63,0,0,0-1.63-1.58h0A1.63,1.63,0,0,0,32.26,19v8.86h0l-.37-10.95a1.42,1.42,0,0,0-1.42-1.38h0A1.42,1.42,0,0,0,29,16.94l-.37,10.95h0V19A1.63,1.63,0,0,0,27,17.4h0A1.63,1.63,0,0,0,25.33,19L25,32.48" style="fill:#faefde;"/><path d="M31,2A29,29,0,1,0,60,31,29,29,0,0,0,31,2Zm0,56A27,27,0,1,1,58,31,27,27,0,0,1,31,58Z" style="fill:#8d6c9f;"/><path d="M31,49a1,1,0,0,0-1,1v2a1,1,0,0,0,2,0V50A1,1,0,0,0,31,49Z" style="fill:#8d6c9f;"/><path d="M37,49.08a1,1,0,0,0-1.93.52l.52,1.93A1,1,0,0,0,37.53,51Z" style="fill:#8d6c9f;"/><path d="M21.75,46.52a1,1,0,0,0-1.37.37l-1,1.73a1,1,0,0,0,1.73,1l1-1.73A1,1,0,0,0,21.75,46.52Z" style="fill:#8d6c9f;"/><path d="M41.62,46.89a1,1,0,0,0-1.73,1l1,1.73a1,1,0,0,0,1.73-1Z" style="fill:#8d6c9f;"/><path d="M26.21,48.37a1,1,0,0,0-1.22.71L24.47,51a1,1,0,1,0,1.93.52l.52-1.93A1,1,0,0,0,26.21,48.37Z" style="fill:#8d6c9f;"/><path d="M38.35,11.32a21.07,21.07,0,0,1,2.1.92,1,1,0,0,0,.9-1.79,22.88,22.88,0,0,0-2.3-1,1,1,0,0,0-.7,1.87Z" style="fill:#8d6c9f;"/><path d="M10,31A21,21,0,0,1,34.34,10.27a1,1,0,1,0,.32-2,23,23,0,0,0-19.92,39,1,1,0,0,0,1.41-1.41A20.86,20.86,0,0,1,10,31Z" style="fill:#8d6c9f;"/><path d="M47.26,14.74a23.39,23.39,0,0,0-2.09-1.86,1,1,0,1,0-1.23,1.57,21.25,21.25,0,0,1,1.91,1.7,21,21,0,0,1,0,29.7,1,1,0,1,0,1.41,1.41,23,23,0,0,0,0-32.53Z" style="fill:#8d6c9f;"/><path d="M41,35.45c0-3.45-.72-12.94-.75-13.32a2.65,2.65,0,0,0-3.69-2.3l0-.87a2.63,2.63,0,0,0-3.7-2.33,2.42,2.42,0,0,0-4.79,0A2.63,2.63,0,0,0,24.33,19l-.24,9.23a5,5,0,0,0-2.65-1.81A1.92,1.92,0,0,0,19,28.44l.52,4.77a14,14,0,0,0,1.61,5.3c.13.23,3.34,5.54,7.77,5.54h5.64a5.92,5.92,0,0,0,5.69-4.15A13.09,13.09,0,0,0,41,35.45Zm-2.62,3.79A4,4,0,0,1,34.55,42H28.91c-3.29,0-6-4.52-6-4.52A11.85,11.85,0,0,1,21.52,33L21,28.34a3,3,0,0,1,1.88,1.75l1.27,3.12a5.57,5.57,0,0,0,5.18,3.49,1,1,0,1,0,0-2A3.58,3.58,0,0,1,26,32.46l0-.07L26.33,19a.63.63,0,0,1,1.25,0v8.86a1,1,0,0,0,1,1,1,1,0,0,0,1-1L30,17a.42.42,0,0,1,.84,0l.37,10.95a1,1,0,0,0,1,1,1,1,0,0,0,1-1V19a.63.63,0,0,1,1.26,0l.28,8.9a1,1,0,0,0,1,1h.14a1,1,0,0,0,1-1V22.27a.65.65,0,0,1,1.3,0c0,.1.75,9.82.75,13.19A11.37,11.37,0,0,1,38.36,39.23Z" style="fill:#8d6c9f;"/><polygon points="19 17.56 20.24 19.83 22.5 21.07 20.24 22.3 19 24.57 17.76 22.3 15.5 21.07 17.76 19.83 19 17.56" style="fill:#f283a5;"/><polygon points="45.97 26.58 46.83 28.14 48.39 29 46.83 29.86 45.97 31.42 45.12 29.86 43.55 29 45.12 28.14 45.97 26.58" style="fill:#f283a5;"/><polygon points="17.6 39.75 18.18 40.82 19.25 41.4 18.18 41.98 17.6 43.05 17.02 41.98 15.95 41.4 17.02 40.82 17.6 39.75" style="fill:#f283a5;"/></svg>