<svg xmlns="http://www.w3.org/2000/svg" id="Layer_1" data-name="Layer 1" viewBox="0 0 64 64" width="128" height="128"><title>Icons8 RSL Colored Part 5</title><path d="M54.29,10.57l-3.5-.23A27.89,27.89,0,0,1,35.16,4.26L33.81,3.18a2.88,2.88,0,0,0-3.62,0L28.84,4.26A27.89,27.89,0,0,1,13.2,10.34l-3.5.23A2.91,2.91,0,0,0,7,13.66l.67,9.22a39.35,39.35,0,0,0,13.51,27l8.91,7.75a2.91,2.91,0,0,0,3.8,0l8.91-7.75a39.36,39.36,0,0,0,13.51-27L57,13.65A2.9,2.9,0,0,0,54.29,10.57Z" style="fill:#72caaf;"/><path d="M54.29,10.57l-3.5-.23A27.89,27.89,0,0,1,35.16,4.26L33.81,3.18A2.89,2.89,0,0,0,32,2.54V58.37a2.89,2.89,0,0,0,1.9-.71l8.91-7.75a39.36,39.36,0,0,0,13.51-27L57,13.65A2.9,2.9,0,0,0,54.29,10.57Z" style="fill:#66bfa1;"/><path d="M30.34,35.7a4.59,4.59,0,0,1-4.26-2.86l-1.27-3.12a4.06,4.06,0,0,0-2.65-2.37h0a.92.92,0,0,0-1.17,1l.52,4.77A12.89,12.89,0,0,0,23,38s3,5,6.91,5h5.64a5,5,0,0,0,4.77-3.52A12.1,12.1,0,0,0,41,35.45c0-3.45-.75-13.27-.75-13.27a1.65,1.65,0,0,0-1.65-1.56h0a1.65,1.65,0,0,0-1.65,1.65v5.62H36.8L36.52,19a1.63,1.63,0,0,0-1.63-1.58h0A1.63,1.63,0,0,0,33.26,19v8.86h0l-.37-10.95a1.42,1.42,0,0,0-1.42-1.38h0A1.42,1.42,0,0,0,30,16.94l-.37,10.95h0V19A1.63,1.63,0,0,0,28,17.4h0A1.63,1.63,0,0,0,26.33,19L26,32.48" style="fill:#faefde;"/><path d="M44.21,11.66a29,29,0,0,1-8.49-4.08l-2.57-1.8a2,2,0,0,0-2.29,0l-2.57,1.8a29,29,0,0,1-14.7,5.18l-.65,0a1,1,0,0,0,.07,2h.07l.65,0A31,31,0,0,0,29.43,9.22L32,7.43l2.57,1.8a30.94,30.94,0,0,0,9.08,4.36,1,1,0,1,0,.56-1.92Z" style="fill:#8d6c9f;"/><path d="M51,12.8l-.59,0c-.76-.05-1.53-.13-2.28-.24a1,1,0,1,0-.29,2c.8.12,1.62.21,2.44.26l.59,0h.07a1,1,0,0,0,.07-2Z" style="fill:#8d6c9f;"/><path d="M55.08,8.87l-3.62-.24A28.87,28.87,0,0,1,35.27,2.34l-1.4-1.12a3,3,0,0,0-3.75,0l-1.4,1.12A28.85,28.85,0,0,1,12.54,8.63l-3.62.24a3,3,0,0,0-2.79,3.18L6.82,23.6a40.74,40.74,0,0,0,14,28l9.23,8a3,3,0,0,0,3.94,0l9.23-8a40.75,40.75,0,0,0,14-28l.69-11.54A3,3,0,0,0,55.08,8.87Zm.11,14.59A38.73,38.73,0,0,1,43,49.07V49a1,1,0,0,0-2,0v1.85l-8.34,7.25a1,1,0,0,1-1.31,0L23,50.85V49a1,1,0,0,0-2,0v.06A38.72,38.72,0,0,1,8.81,23.47L8.12,11.93a1,1,0,0,1,.93-1.06l3.62-.24A30.85,30.85,0,0,0,30,3.9l1.4-1.12a1,1,0,0,1,1.25,0L34,3.9a30.86,30.86,0,0,0,17.3,6.72l3.62.24a1,1,0,0,1,.93,1.06Z" style="fill:#8d6c9f;"/><path d="M27,48a1,1,0,0,0-1,1v2a1,1,0,0,0,2,0V49A1,1,0,0,0,27,48Z" style="fill:#8d6c9f;"/><path d="M32,48a1,1,0,0,0-1,1v2a1,1,0,0,0,2,0V49A1,1,0,0,0,32,48Z" style="fill:#8d6c9f;"/><path d="M37,48a1,1,0,0,0-1,1v2a1,1,0,0,0,2,0V49A1,1,0,0,0,37,48Z" style="fill:#8d6c9f;"/><path d="M35.55,44H29.91c-4.43,0-7.64-5.31-7.77-5.54a14,14,0,0,1-1.61-5.3L20,28.44a1.92,1.92,0,0,1,2.43-2.05,5,5,0,0,1,2.65,1.81L25.33,19A2.63,2.63,0,0,1,29,16.63a2.42,2.42,0,0,1,4.79,0A2.63,2.63,0,0,1,37.52,19l0,.87a2.65,2.65,0,0,1,3.69,2.3c0,.38.75,9.87.75,13.32a13.09,13.09,0,0,1-.74,4.45A5.92,5.92,0,0,1,35.55,44ZM22,28.34,22.52,33a11.85,11.85,0,0,0,1.36,4.54s2.74,4.52,6,4.52h5.64a4,4,0,0,0,3.81-2.81A11.37,11.37,0,0,0,40,35.44c0-3.37-.74-13.09-.75-13.19a.65.65,0,0,0-1.3,0v5.62a1,1,0,0,1-1,1H36.8a1,1,0,0,1-1-1L35.52,19a.63.63,0,0,0-1.26,0v8.86a1,1,0,0,1-1,1,1,1,0,0,1-1-1L31.85,17A.42.42,0,0,0,31,17l-.37,11a1,1,0,0,1-1,1,1,1,0,0,1-1-1V19a.63.63,0,0,0-1.25,0L27,32.39l0,.07a3.58,3.58,0,0,0,3.33,2.24,1,1,0,1,1,0,2,5.57,5.57,0,0,1-5.18-3.49L23.89,30.1A3,3,0,0,0,22,28.34Zm-.12,0Z" style="fill:#8d6c9f;"/><polygon points="19.5 17 20.74 19.26 23 20.5 20.74 21.74 19.5 24 18.26 21.74 16 20.5 18.26 19.26 19.5 17" style="fill:#7dd8ba;"/><polygon points="47.42 25 48.27 26.57 49.84 27.42 48.27 28.28 47.42 29.84 46.56 28.28 45 27.42 46.56 26.57 47.42 25" style="fill:#7dd8ba;"/><polygon points="35.65 36 36.23 37.07 37.3 37.65 36.23 38.23 35.65 39.3 35.06 38.23 34 37.65 35.06 37.07 35.65 36" style="fill:#fff7f0;"/></svg>