<svg xmlns="http://www.w3.org/2000/svg" id="Layer_1" data-name="Layer 1" viewBox="0 0 64 64" width="128" height="128"><title>Icons8 RSL Colored Part 6</title><path d="M11,57V11a2,2,0,0,1,2-2H38.34a4,4,0,0,1,2.83,1.17l8.66,8.66A4,4,0,0,1,51,21.66V57a2,2,0,0,1-2,2H13A2,2,0,0,1,11,57Z" style="fill:#efd8be;"/><path d="M15,53V7a2,2,0,0,1,2-2H42.34a4,4,0,0,1,2.83,1.17l8.66,8.66A4,4,0,0,1,55,17.66V53a2,2,0,0,1-2,2H17A2,2,0,0,1,15,53Z" style="fill:#faefde;"/><path d="M55.1,36.9V17.66L51.4,17,15.25,53.14A3,3,0,0,0,18,54.94H37.06Z" style="fill:#fff7f0;"/><path d="M46.43,11.57,15,43v6L50.24,13.76C49.94,12.69,46.43,11.57,46.43,11.57Z" style="fill:#fff7f0;"/><polygon points="14.85 37.15 43 9 46 9 14.85 40.15 14.85 37.15" style="fill:#fff7f0;"/><polygon points="23.5 10 24.74 12.26 27 13.5 24.74 14.74 23.5 17 22.26 14.74 20 13.5 22.26 12.26 23.5 10" style="fill:#fff;"/><path d="M43.34,4.81v9.61a2.39,2.39,0,0,0,2.39,2.39h9.61Z" style="fill:#f9e3ae;"/><polygon points="44.42 26 45.27 27.56 46.84 28.42 45.27 29.27 44.42 30.84 43.56 29.27 42 28.42 43.56 27.56 44.42 26" style="fill:#fff;"/><polygon points="24.65 38 25.23 39.06 26.3 39.65 25.23 40.23 24.65 41.3 24.07 40.23 23 39.65 24.07 39.06 24.65 38" style="fill:#fff;"/><path d="M54.54,14.12,45.88,5.46A5,5,0,0,0,42.34,4H17a3,3,0,0,0-3,3V8H13a3,3,0,0,0-3,3V57a3,3,0,0,0,3,3H49a3,3,0,0,0,3-3V56h1a3,3,0,0,0,3-3V17.66A5,5,0,0,0,54.54,14.12Zm-1.41,1.41a3,3,0,0,1,.38.46H45a1,1,0,0,1-1-1V6.5a3,3,0,0,1,.46.38ZM50,57a1,1,0,0,1-1,1H13a1,1,0,0,1-1-1V11a1,1,0,0,1,1-1h1V53a3,3,0,0,0,3,3H50Zm3-3H17a1,1,0,0,1-1-1V7a1,1,0,0,1,1-1H42v9a3,3,0,0,0,3,3h9V53A1,1,0,0,1,53,54Z" style="fill:#8d6c9f;"/><path d="M20,46a1,1,0,0,0-1,1v2a1,1,0,0,0,2,0V47A1,1,0,0,0,20,46Z" style="fill:#8d6c9f;"/><path d="M25,46a1,1,0,0,0-1,1v2a1,1,0,0,0,2,0V47A1,1,0,0,0,25,46Z" style="fill:#8d6c9f;"/><path d="M30,46a1,1,0,0,0-1,1v2a1,1,0,0,0,2,0V47A1,1,0,0,0,30,46Z" style="fill:#8d6c9f;"/><path d="M35,46a1,1,0,0,0-1,1v2a1,1,0,0,0,2,0V47A1,1,0,0,0,35,46Z" style="fill:#8d6c9f;"/><path d="M40,46a1,1,0,0,0-1,1v2a1,1,0,0,0,2,0V47A1,1,0,0,0,40,46Z" style="fill:#8d6c9f;"/><path d="M45,46a1,1,0,0,0-1,1v2a1,1,0,0,0,2,0V47A1,1,0,0,0,45,46Z" style="fill:#8d6c9f;"/><path d="M50,46a1,1,0,0,0-1,1v2a1,1,0,0,0,2,0V47A1,1,0,0,0,50,46Z" style="fill:#8d6c9f;"/><circle cx="33" cy="39" r="2" style="fill:#8d6c9f;"/><path d="M40,23a5,5,0,0,0-5-5H32a5,5,0,0,0-5,5,1,1,0,0,0,2,0,3,3,0,0,1,3-3h3a3,3,0,0,1,3,3v.84a3.38,3.38,0,0,1-2.32,3.21A5.38,5.38,0,0,0,32,32.16V34a1,1,0,0,0,2,0V32.16a3.38,3.38,0,0,1,2.32-3.21A5.38,5.38,0,0,0,40,23.84Z" style="fill:#8d6c9f;"/></svg>