<svg xmlns="http://www.w3.org/2000/svg" id="Layer_1" data-name="Layer 1" viewBox="0 0 64 64" width="128" height="128"><title>Icons8 RSL Colored Part 10</title><rect x="10" y="7" width="50" height="42" rx="2" ry="2" style="fill:#7bbeeb;"/><rect x="2" y="17" width="50" height="42" rx="2" ry="2" style="fill:#85cbf8;"/><path d="M3,17H51a1,1,0,0,1,1,1v9a0,0,0,0,1,0,0H2a0,0,0,0,1,0,0V18A1,1,0,0,1,3,17Z" style="fill:#ced8ed;"/><rect x="8" y="35" width="16" height="14" style="fill:#f9efde;"/><path d="M11,7H59a1,1,0,0,1,1,1v9a0,0,0,0,1,0,0H10a0,0,0,0,1,0,0V8a1,1,0,0,1,1-1Z" style="fill:#ced8ed;"/><path d="M58,6H12A3,3,0,0,0,9,9v7H4a3,3,0,0,0-3,3V57a3,3,0,0,0,3,3H50a3,3,0,0,0,3-3V50h5a3,3,0,0,0,3-3V9A3,3,0,0,0,58,6ZM4,18H50a1,1,0,0,1,1,1v7H3V19A1,1,0,0,1,4,18ZM51,57a1,1,0,0,1-1,1H4a1,1,0,0,1-1-1V28H51V57Zm7-9H53V19a3,3,0,0,0-3-3H11V9a1,1,0,0,1,1-1H58a1,1,0,0,1,1,1v7H55a1,1,0,0,0,0,2h4V47A1,1,0,0,1,58,48Z" style="fill:#8d6c9f;"/><path d="M25,10a1,1,0,0,0-1,1v2a1,1,0,0,0,2,0V11A1,1,0,0,0,25,10Z" style="fill:#8d6c9f;"/><path d="M20,10a1,1,0,0,0-1,1v2a1,1,0,0,0,2,0V11A1,1,0,0,0,20,10Z" style="fill:#8d6c9f;"/><path d="M15,10a1,1,0,0,0-1,1v2a1,1,0,0,0,2,0V11A1,1,0,0,0,15,10Z" style="fill:#8d6c9f;"/><path d="M40,10a1,1,0,0,0-1,1v2a1,1,0,0,0,2,0V11A1,1,0,0,0,40,10Z" style="fill:#8d6c9f;"/><path d="M45,10a1,1,0,0,0-1,1v2a1,1,0,0,0,2,0V11A1,1,0,0,0,45,10Z" style="fill:#8d6c9f;"/><path d="M50,10a1,1,0,0,0-1,1v2a1,1,0,0,0,2,0V11A1,1,0,0,0,50,10Z" style="fill:#8d6c9f;"/><path d="M55,14a1,1,0,0,0,1-1V11a1,1,0,0,0-2,0v2A1,1,0,0,0,55,14Z" style="fill:#8d6c9f;"/><path d="M30,10a1,1,0,0,0-1,1v2a1,1,0,0,0,2,0V11A1,1,0,0,0,30,10Z" style="fill:#8d6c9f;"/><path d="M35,10a1,1,0,0,0-1,1v2a1,1,0,0,0,2,0V11A1,1,0,0,0,35,10Z" style="fill:#8d6c9f;"/><path d="M17,24a1,1,0,0,0,1-1V21a1,1,0,0,0-2,0v2A1,1,0,0,0,17,24Z" style="fill:#8d6c9f;"/><path d="M12,24a1,1,0,0,0,1-1V21a1,1,0,0,0-2,0v2A1,1,0,0,0,12,24Z" style="fill:#8d6c9f;"/><path d="M7,24a1,1,0,0,0,1-1V21a1,1,0,0,0-2,0v2A1,1,0,0,0,7,24Z" style="fill:#8d6c9f;"/><path d="M32,24a1,1,0,0,0,1-1V21a1,1,0,0,0-2,0v2A1,1,0,0,0,32,24Z" style="fill:#8d6c9f;"/><path d="M37,24a1,1,0,0,0,1-1V21a1,1,0,0,0-2,0v2A1,1,0,0,0,37,24Z" style="fill:#8d6c9f;"/><path d="M42,24a1,1,0,0,0,1-1V21a1,1,0,0,0-2,0v2A1,1,0,0,0,42,24Z" style="fill:#8d6c9f;"/><path d="M47,24a1,1,0,0,0,1-1V21a1,1,0,0,0-2,0v2A1,1,0,0,0,47,24Z" style="fill:#8d6c9f;"/><path d="M22,24a1,1,0,0,0,1-1V21a1,1,0,0,0-2,0v2A1,1,0,0,0,22,24Z" style="fill:#8d6c9f;"/><path d="M27,24a1,1,0,0,0,1-1V21a1,1,0,0,0-2,0v2A1,1,0,0,0,27,24Z" style="fill:#8d6c9f;"/><path d="M46,34H42a1,1,0,0,0,0,2h4a1,1,0,0,0,0-2Z" style="fill:#8d6c9f;"/><path d="M30,36h8a1,1,0,0,0,0-2H30a1,1,0,0,0,0,2Z" style="fill:#8d6c9f;"/><path d="M46,38H30a1,1,0,0,0,0,2H46a1,1,0,0,0,0-2Z" style="fill:#8d6c9f;"/><path d="M39,48H30a1,1,0,0,0,0,2h9a1,1,0,0,0,0-2Z" style="fill:#f9efde;"/><path d="M43,44H30a1,1,0,0,0,0,2H43a1,1,0,0,0,0-2Z" style="fill:#f9efde;"/><path d="M24,34H8a1,1,0,0,0-1,1V49a1,1,0,0,0,1,1H24a1,1,0,0,0,1-1V35A1,1,0,0,0,24,34ZM23,48H9V36H23Z" style="fill:#8d6c9f;"/></svg>