<svg xmlns="http://www.w3.org/2000/svg" id="Layer_1" data-name="Layer 1" viewBox="0 0 64 64" width="128" height="128"><title>Dusk Part 2</title><path d="M49,57H3a2,2,0,0,1-2-2V9A2,2,0,0,1,3,7H41a2,2,0,0,1,1.41.59l8,8A2,2,0,0,1,51,17V55A2,2,0,0,1,49,57Z" style="fill:#c2cde7;"/><rect x="9" y="31" width="34" height="26" rx="2" ry="2" style="fill:#def0ff;"/><rect x="9" y="7" width="30" height="18" rx="2" ry="2" transform="translate(48 32) rotate(180)" style="fill:#bbdef9;"/><polygon points="39 7 31.08 7 16.83 25 29.67 25 39 13.21 39 7" style="fill:#def0ff;"/><polygon points="9 18.89 18.42 7 17.25 7 9 17.42 9 18.89" style="fill:#def0ff;"/><polygon points="21.92 7 9 23.32 9 25 13.17 25 27.42 7 21.92 7" style="fill:#def0ff;"/><rect x="31" y="11" width="4" height="10" rx="2" ry="2" style="fill:#ffeb9b;"/><path d="M13,50H41a2,2,0,0,1,2,2v5a0,0,0,0,1,0,0H9a0,0,0,0,1,0,0V54A4,4,0,0,1,13,50Z" style="fill:#bbdef9;"/><rect x="36.45" y="27.55" width="14.14" height="19.86" transform="translate(39.25 -19.8) rotate(45)" style="fill:#f9e3ae;"/><rect x="40.88" y="29.5" width="9.19" height="19.03" transform="translate(40.91 -20.73) rotate(45)" style="fill:#f6d397;"/><path d="M52.22,20.88h8.1a3,3,0,0,1,3,3v4.77a0,0,0,0,1,0,0H49.22a0,0,0,0,1,0,0V23.88a3,3,0,0,1,3-3Z" transform="translate(33.99 -32.54) rotate(45)" style="fill:#ed7899;"/><rect x="44.91" y="26.87" width="14.14" height="4.3" transform="translate(35.75 -28.25) rotate(45)" style="fill:#c2cde7;"/><polygon points="30 48.64 30.79 40 36.29 40.79 37.07 43.14 39.36 44.32 41 50.21 31.57 50.21 30 48.64" style="fill:#faefde;"/><path d="M25,38h4a1,1,0,0,0,0-2H25a1,1,0,0,0,0,2Z" style="fill:#8d6c9f;"/><path d="M15,38h6a1,1,0,0,0,0-2H15a1,1,0,0,0,0,2Z" style="fill:#8d6c9f;"/><path d="M26,40H15a1,1,0,0,0,0,2H26a1,1,0,0,0,0-2Z" style="fill:#8d6c9f;"/><path d="M14,48a1,1,0,0,0-1,1v2a1,1,0,0,0,2,0V49A1,1,0,0,0,14,48Z" style="fill:#8d6c9f;"/><path d="M19,48a1,1,0,0,0-1,1v2a1,1,0,0,0,2,0V49A1,1,0,0,0,19,48Z" style="fill:#8d6c9f;"/><path d="M24,48a1,1,0,0,0-1,1v2a1,1,0,0,0,2,0V49A1,1,0,0,0,24,48Z" style="fill:#8d6c9f;"/><path d="M33,22a3,3,0,0,0,3-3V13a3,3,0,0,0-6,0v6A3,3,0,0,0,33,22Zm-1-9a1,1,0,0,1,2,0v6a1,1,0,0,1-2,0Z" style="fill:#8d6c9f;"/><path d="M62.12,23.12l-4.24-4.24A5,5,0,0,0,52,18v-.37a5,5,0,0,0-1.46-3.54L43.88,7.46A5,5,0,0,0,40.34,6H3A3,3,0,0,0,0,9V55a3,3,0,0,0,3,3H49a3,3,0,0,0,3-3V40.34L59.29,33h0l2.83-2.83A5,5,0,0,0,62.12,23.12ZM55.52,34,47,25.49l1.65-1.66,8.48,8.48Zm-5.22,5.24h0l-8.84,8.87L41,43.72a1,1,0,0,0-1-.9H38.18V41.41L43.54,36a1,1,0,0,0-1.41-1.41l-5.32,5.32L33,39.55l12.6-12.64,8.48,8.48ZM10,56V33a1,1,0,0,1,1-1H37.72l-7.58,7.61a1,1,0,0,0-.29.59l-.74,6.32-.7,4.93a1,1,0,0,0,1,1.14h.14l4.92-.7,6.39-.68a1,1,0,0,0,.6-.29l.55-.55V56ZM37.18,44.82h1.93l.47,4.51-4.85.51-3.56-3.56.57-4.86,4.46.47v1.93A1,1,0,0,0,37.18,44.82ZM38,8V23a1,1,0,0,1-1,1H11a1,1,0,0,1-1-1V8ZM3,56a1,1,0,0,1-1-1V9A1,1,0,0,1,3,8H8V23a3,3,0,0,0,3,3H37a3,3,0,0,0,3-3V8h.34a3,3,0,0,1,2.12.88l6.66,6.66A3,3,0,0,1,50,17.66v2l-2,2h0l-3,3,0,0,0,0L39.71,30H11a3,3,0,0,0-3,3V56Zm47-1a1,1,0,0,1-1,1H44V48.36l6-6ZM60.71,28.78,58.59,30.9,50.1,22.41l.05-.05,2.07-2.07a3,3,0,0,1,4.24,0l4.24,4.24A3,3,0,0,1,60.71,28.78Z" style="fill:#8d6c9f;"/></svg>