<svg xmlns="http://www.w3.org/2000/svg" id="Layer_1" data-name="Layer 1" viewBox="0 0 64 64" width="128" height="128"><title>Icons8 RSL Colored Part 5</title><path d="M28.88,49H46A17,17,0,0,0,63,32h0A17,17,0,0,0,46,15H28.94" style="fill:#ed7899;"/><path d="M58.37,32a4,4,0,0,1,3.81,5.24A17,17,0,0,1,46,49H28.88l0-17Z" style="fill:#e0678f;"/><circle cx="20" cy="32" r="19" style="fill:#c2cde7;"/><circle cx="20" cy="32" r="14" style="fill:#d6dff2;"/><path d="M46.12,14H29a1,1,0,0,0-.24,0,20,20,0,1,0,0,35.89,1,1,0,0,0,.28.06H46.12a18,18,0,0,0,0-36ZM2,32A18,18,0,1,1,20,50,18,18,0,0,1,2,32ZM46.12,48H31.95a19.92,19.92,0,0,0,0-32H46.12a16,16,0,0,1,0,32Z" style="fill:#8d6c9f;"/><path d="M31.8,22.74A1,1,0,1,0,30.23,24a13,13,0,0,1-1,17.2,1,1,0,1,0,1.42,1.41A15,15,0,0,0,31.8,22.74Z" style="fill:#8d6c9f;"/><path d="M28.67,19.76a15,15,0,0,0-2.21-1.3,1,1,0,1,0-.86,1.8,13.06,13.06,0,0,1,1.92,1.13,1,1,0,1,0,1.16-1.63Z" style="fill:#8d6c9f;"/><path d="M22.14,17.15A15,15,0,0,0,5,32a14.9,14.9,0,0,0,1.2,5.9A1,1,0,0,0,8,37.11,13,13,0,0,1,20,19a13.21,13.21,0,0,1,1.86.13,1,1,0,0,0,.28-2Z" style="fill:#8d6c9f;"/><path d="M20,43a1,1,0,0,0-1,1v2a1,1,0,0,0,2,0V44A1,1,0,0,0,20,43Z" style="fill:#8d6c9f;"/><path d="M15.88,42.2a1,1,0,0,0-1.3.55l-.75,1.85a1,1,0,1,0,1.85.75l.75-1.85A1,1,0,0,0,15.88,42.2Z" style="fill:#8d6c9f;"/><path d="M25.42,42.75a1,1,0,0,0-1.85.75l.75,1.85a1,1,0,0,0,1.85-.75Z" style="fill:#8d6c9f;"/><path d="M10.94,39.94,9.56,41.38A1,1,0,1,0,11,42.77l1.39-1.44a1,1,0,1,0-1.44-1.39Z" style="fill:#8d6c9f;"/></svg>