<svg xmlns="http://www.w3.org/2000/svg" id="Layer_1" data-name="Layer 1" viewBox="0 0 64 64" width="128" height="128"><title>Dusk Part 1</title><path d="M57,53H6a3,3,0,0,1-3-3V12A3,3,0,0,1,6,9H21l9,6H54a3,3,0,0,1,3,3Z" style="fill:#faefde;"/><path d="M6,9H22l7,7H3V12A3,3,0,0,1,6,9Z" style="fill:#fff7f0;"/><path d="M57,19h4a2,2,0,0,1,2,2V50a3,3,0,0,1-3,3H57a0,0,0,0,1,0,0V19A0,0,0,0,1,57,19Z" style="fill:#cda1a7;"/><path d="M3,43H57a0,0,0,0,1,0,0V53a0,0,0,0,1,0,0H6a3,3,0,0,1-3-3V43A0,0,0,0,1,3,43Z" style="fill:#efd8be;"/><path d="M61,18H58V17a3,3,0,0,0-3-3H29.71a3,3,0,0,1-2.11-.87L23.87,9.45A5,5,0,0,0,20.36,8H5a3,3,0,0,0-3,3V50a4,4,0,0,0,4,4H60a4,4,0,0,0,4-4V21A3,3,0,0,0,61,18ZM6,52a2,2,0,0,1-2-2V44H25a1,1,0,0,0,0-2H4V11a1,1,0,0,1,1-1H20.36a3,3,0,0,1,2.11.87l3.72,3.69A5,5,0,0,0,29.71,16H55a1,1,0,0,1,1,1V42H39a1,1,0,0,0,0,2H56v6a3.94,3.94,0,0,0,.63,2Zm56-2a2,2,0,0,1-2,2,2.26,2.26,0,0,1-2-2V20h3a1,1,0,0,1,1,1Z" style="fill:#8d6c9f;"/><path d="M6,46a1,1,0,0,0-1,1v2a1,1,0,0,0,2,0V47A1,1,0,0,0,6,46Z" style="fill:#8d6c9f;"/><path d="M11,46a1,1,0,0,0-1,1v2a1,1,0,0,0,2,0V47A1,1,0,0,0,11,46Z" style="fill:#8d6c9f;"/><path d="M16,46a1,1,0,0,0-1,1v2a1,1,0,0,0,2,0V47A1,1,0,0,0,16,46Z" style="fill:#8d6c9f;"/><path d="M21,46a1,1,0,0,0-1,1v2a1,1,0,0,0,2,0V47A1,1,0,0,0,21,46Z" style="fill:#8d6c9f;"/><path d="M26,46a1,1,0,0,0-1,1v2a1,1,0,0,0,2,0V47A1,1,0,0,0,26,46Z" style="fill:#8d6c9f;"/><path d="M38,46a1,1,0,0,0-1,1v2a1,1,0,0,0,2,0V47A1,1,0,0,0,38,46Z" style="fill:#8d6c9f;"/><path d="M43,46a1,1,0,0,0-1,1v2a1,1,0,0,0,2,0V47A1,1,0,0,0,43,46Z" style="fill:#8d6c9f;"/><path d="M48,46a1,1,0,0,0-1,1v2a1,1,0,0,0,2,0V47A1,1,0,0,0,48,46Z" style="fill:#8d6c9f;"/><path d="M53,46a1,1,0,0,0-1,1v2a1,1,0,0,0,2,0V47A1,1,0,0,0,53,46Z" style="fill:#8d6c9f;"/><polygon points="29 61 29 34 25 38 21 34 32 23 43 34 39 38 35 34 35 61 29 61" style="fill:#c2cde7;"/><path d="M31.29,22.29l-11,11a1,1,0,0,0,0,1.41l4,4a1,1,0,0,0,1.41,0L28,36.41V61a1,1,0,0,0,1,1h6a1,1,0,0,0,1-1V36.41l2.29,2.29a1,1,0,0,0,1.41,0l4-4a1,1,0,0,0,0-1.41l-11-11A1,1,0,0,0,31.29,22.29ZM41.59,34,39,36.59l-3.29-3.29A1,1,0,0,0,34,34V60H30V34a1,1,0,0,0-1.71-.71L25,36.59,22.41,34,32,24.41Z" style="fill:#8d6c9f;"/></svg>