<svg xmlns="http://www.w3.org/2000/svg" id="Layer_1" data-name="Layer 1" viewBox="0 0 64 64" width="128" height="128"><title>Icons8 RSL Colored Part 9</title><rect x="14" y="5" width="39" height="48" rx="2" ry="2" style="fill:#faefde;"/><path d="M12,5h7a0,0,0,0,1,0,0V53a0,0,0,0,1,0,0H9a0,0,0,0,1,0,0V8A3,3,0,0,1,12,5Z" style="fill:#cda1a7;"/><rect x="9" y="53" width="42" height="6" rx="2" ry="2" style="fill:#efd8be;"/><path d="M19,8a1,1,0,0,0-1,1v4a1,1,0,0,0,2,0V9A1,1,0,0,0,19,8Z" style="fill:#8d6c9f;"/><path d="M51,4H12A4,4,0,0,0,8,8V56a4,4,0,0,0,4,4H49a3,3,0,0,0,3-3V53.82A3,3,0,0,0,54,51V7A3,3,0,0,0,51,4ZM49,58H12a2,2,0,0,1-2-2,2.26,2.26,0,0,1,2-2H50v3A1,1,0,0,1,49,58Zm3-7a1,1,0,0,1-1,1H20V17a1,1,0,0,0-2,0V52H12a3.94,3.94,0,0,0-2,.63V8a2,2,0,0,1,2-2H51a1,1,0,0,1,1,1Z" style="fill:#8d6c9f;"/><path d="M15,8H13a1,1,0,0,0,0,2h2a1,1,0,0,0,0-2Z" style="fill:#8d6c9f;"/><path d="M15,13H13a1,1,0,0,0,0,2h2a1,1,0,0,0,0-2Z" style="fill:#8d6c9f;"/><path d="M15,18H13a1,1,0,0,0,0,2h2a1,1,0,0,0,0-2Z" style="fill:#8d6c9f;"/><path d="M15,23H13a1,1,0,0,0,0,2h2a1,1,0,0,0,0-2Z" style="fill:#8d6c9f;"/><path d="M15,28H13a1,1,0,0,0,0,2h2a1,1,0,0,0,0-2Z" style="fill:#8d6c9f;"/><path d="M15,33H13a1,1,0,0,0,0,2h2a1,1,0,0,0,0-2Z" style="fill:#8d6c9f;"/><path d="M15,38H13a1,1,0,0,0,0,2h2a1,1,0,0,0,0-2Z" style="fill:#8d6c9f;"/><path d="M15,43H13a1,1,0,0,0,0,2h2a1,1,0,0,0,0-2Z" style="fill:#8d6c9f;"/><path d="M15,48H13a1,1,0,0,0,0,2h2a1,1,0,0,0,0-2Z" style="fill:#8d6c9f;"/><path d="M35.34,35.7a4.59,4.59,0,0,1-4.26-2.86l-1.27-3.12a4.06,4.06,0,0,0-2.65-2.37h0a.92.92,0,0,0-1.17,1l.52,4.77A12.89,12.89,0,0,0,28,38s3,5,6.91,5h5.64a5,5,0,0,0,4.77-3.52A12.1,12.1,0,0,0,46,35.45c0-3.45-.75-13.27-.75-13.27a1.65,1.65,0,0,0-1.65-1.56h0a1.65,1.65,0,0,0-1.65,1.65v5.62H41.8L41.52,19a1.63,1.63,0,0,0-1.63-1.58h0A1.63,1.63,0,0,0,38.26,19v8.86h0l-.37-10.95a1.42,1.42,0,0,0-1.42-1.38h0A1.42,1.42,0,0,0,35,16.94l-.37,10.95h0V19A1.63,1.63,0,0,0,33,17.4h0A1.63,1.63,0,0,0,31.33,19L31,32.48" style="fill:#f9e3ae;"/><path d="M40.55,44H34.91c-4.43,0-7.64-5.31-7.77-5.54a14,14,0,0,1-1.61-5.3L25,28.44a1.92,1.92,0,0,1,2.43-2.05,5,5,0,0,1,2.65,1.81L30.33,19A2.63,2.63,0,0,1,34,16.63a2.42,2.42,0,0,1,4.79,0A2.63,2.63,0,0,1,42.52,19l0,.87a2.65,2.65,0,0,1,3.69,2.3c0,.38.75,9.87.75,13.32a13.09,13.09,0,0,1-.74,4.45A5.92,5.92,0,0,1,40.55,44ZM27,28.34,27.52,33a11.85,11.85,0,0,0,1.36,4.54s2.74,4.52,6,4.52h5.64a4,4,0,0,0,3.81-2.81A11.37,11.37,0,0,0,45,35.44c0-3.37-.74-13.09-.75-13.19a.65.65,0,0,0-1.3,0v5.62a1,1,0,0,1-1,1H41.8a1,1,0,0,1-1-1L40.52,19a.63.63,0,0,0-1.26,0v8.86a1,1,0,0,1-1,1,1,1,0,0,1-1-1L36.85,17A.42.42,0,0,0,36,17l-.37,11a1,1,0,0,1-1,1,1,1,0,0,1-1-1V19a.63.63,0,0,0-1.25,0L32,32.39l0,.07a3.58,3.58,0,0,0,3.33,2.24,1,1,0,0,1,0,2,5.57,5.57,0,0,1-5.18-3.49L28.89,30.1A3,3,0,0,0,27,28.34Zm-.12,0Z" style="fill:#8d6c9f;"/></svg>