<svg xmlns="http://www.w3.org/2000/svg" id="Layer_1" data-name="Layer 1" viewBox="0 0 64 64" width="128" height="128"><title>Icons8 RSL Colored Part 5</title><rect x="0.97" y="5" width="62" height="52" rx="3" ry="3" style="fill:#c2cde7;"/><path d="M1,35V54a3,3,0,0,0,3,3H60a3,3,0,0,0,3-3V35a4,4,0,0,0-4-4H5A4,4,0,0,0,1,35Z" style="fill:#acb7d0;"/><rect x="10.47" y="10.5" width="47" height="40" rx="3" ry="3" style="fill:#d3e0e8;"/><polygon points="34.64 51 19.98 51 51.31 11 54.98 11 56.98 12 56.98 22.37 34.64 51" style="fill:#dce9f0;"/><polygon points="10.97 50 10.47 45.87 37.98 11 44.98 11 13.43 51 10.97 50" style="fill:#dce9f0;"/><polygon points="10.97 34.58 29.64 11 30.98 11 10.97 36.26 10.97 34.58" style="fill:#dce9f0;"/><circle cx="33" cy="34" r="3" style="fill:#ffeb9b;"/><circle cx="45" cy="26" r="3" style="fill:#ffeb9b;"/><circle cx="21" cy="24" r="3" style="fill:#ffeb9b;"/><path d="M61,4H3A3,3,0,0,0,0,7V55a3,3,0,0,0,3,3H61a3,3,0,0,0,3-3V7A3,3,0,0,0,61,4Zm1,51a1,1,0,0,1-1,1H3a1,1,0,0,1-1-1V7A1,1,0,0,1,3,6H61a1,1,0,0,1,1,1Z" style="fill:#8d6c9f;"/><path d="M56,10H12a2,2,0,0,0-2,2V50a2,2,0,0,0,2,2H56a2,2,0,0,0,2-2V12A2,2,0,0,0,56,10ZM12,50V12H56V50Z" style="fill:#8d6c9f;"/><path d="M21,30a1,1,0,0,0-1,1V45a1,1,0,0,0,2,0V31A1,1,0,0,0,21,30Z" style="fill:#8d6c9f;"/><path d="M33,40a1,1,0,0,0-1,1v4a1,1,0,0,0,2,0V41A1,1,0,0,0,33,40Z" style="fill:#8d6c9f;"/><path d="M45,32a1,1,0,0,0-1,1V45a1,1,0,0,0,2,0V33A1,1,0,0,0,45,32Z" style="fill:#8d6c9f;"/><path d="M7,15H5a1,1,0,0,0,0,2H7a1,1,0,0,0,0-2Z" style="fill:#8d6c9f;"/><path d="M7,10H5a1,1,0,0,0,0,2H7a1,1,0,0,0,0-2Z" style="fill:#8d6c9f;"/><path d="M7,50H5a1,1,0,0,0,0,2H7a1,1,0,0,0,0-2Z" style="fill:#8d6c9f;"/><path d="M7,20H5a1,1,0,0,0,0,2H7a1,1,0,0,0,0-2Z" style="fill:#8d6c9f;"/><path d="M7,25H5a1,1,0,0,0,0,2H7a1,1,0,0,0,0-2Z" style="fill:#8d6c9f;"/><path d="M7,30H5a1,1,0,0,0,0,2H7a1,1,0,0,0,0-2Z" style="fill:#8d6c9f;"/><path d="M7,35H5a1,1,0,0,0,0,2H7a1,1,0,0,0,0-2Z" style="fill:#8d6c9f;"/><path d="M7,40H5a1,1,0,0,0,0,2H7a1,1,0,0,0,0-2Z" style="fill:#8d6c9f;"/><path d="M7,45H5a1,1,0,0,0,0,2H7a1,1,0,0,0,0-2Z" style="fill:#8d6c9f;"/><path d="M34,30.15V17a1,1,0,0,0-2,0V30.13a4,4,0,1,0,2,0ZM33,36a2,2,0,1,1,2-2A2,2,0,0,1,33,36Z" style="fill:#8d6c9f;"/><path d="M46,22.15V17a1,1,0,0,0-2,0v5.16a4,4,0,1,0,2,0ZM45,28a2,2,0,1,1,2-2A2,2,0,0,1,45,28Z" style="fill:#8d6c9f;"/><path d="M22,20.15V17a1,1,0,0,0-2,0v3.16a4,4,0,1,0,2,0ZM21,26a2,2,0,1,1,2-2A2,2,0,0,1,21,26Z" style="fill:#8d6c9f;"/></svg>