<svg xmlns="http://www.w3.org/2000/svg" id="Layer_1" data-name="Layer 1" viewBox="0 0 64 64" width="128" height="128"><title>Dusk Part 4</title><path d="M57,55H7a2,2,0,0,1-2-2V11A2,2,0,0,1,7,9H24l8-8,8,8H57a2,2,0,0,1,2,2V53A2,2,0,0,1,57,55Z" style="fill:#85cbf8;"/><path d="M9,50H55a4,4,0,0,1,4,4v0a1,1,0,0,1-1,1H6a1,1,0,0,1-1-1v0a4,4,0,0,1,4-4Z" style="fill:#7bbeeb;"/><path d="M57,8H40.82a3,3,0,0,1-2.26-1l-5-5.77A2,2,0,0,0,32,.52h0a2,2,0,0,0-1.51.69L25.52,7a3,3,0,0,1-2.27,1H7a3,3,0,0,0-3,3V53a3,3,0,0,0,3,3H57a3,3,0,0,0,3-3V11A3,3,0,0,0,57,8Zm1,45a1,1,0,0,1-1,1H7a1,1,0,0,1-1-1V11a1,1,0,0,1,1-1H23.25A5,5,0,0,0,27,8.27l5-5.75,5,5.77A5,5,0,0,0,40.82,10H57a1,1,0,0,1,1,1Z" style="fill:#8d6c9f;"/><path d="M20,48a1,1,0,0,0-1,1v2a1,1,0,0,0,2,0V49A1,1,0,0,0,20,48Z" style="fill:#8d6c9f;"/><path d="M15,48a1,1,0,0,0-1,1v2a1,1,0,0,0,2,0V49A1,1,0,0,0,15,48Z" style="fill:#8d6c9f;"/><path d="M10,48a1,1,0,0,0-1,1v2a1,1,0,0,0,2,0V49A1,1,0,0,0,10,48Z" style="fill:#8d6c9f;"/><path d="M35,48a1,1,0,0,0-1,1v2a1,1,0,0,0,2,0V49A1,1,0,0,0,35,48Z" style="fill:#8d6c9f;"/><path d="M40,48a1,1,0,0,0-1,1v2a1,1,0,0,0,2,0V49A1,1,0,0,0,40,48Z" style="fill:#8d6c9f;"/><path d="M45,48a1,1,0,0,0-1,1v2a1,1,0,0,0,2,0V49A1,1,0,0,0,45,48Z" style="fill:#8d6c9f;"/><path d="M50,48a1,1,0,0,0-1,1v2a1,1,0,0,0,2,0V49A1,1,0,0,0,50,48Z" style="fill:#8d6c9f;"/><path d="M55,48a1,1,0,0,0-1,1v2a1,1,0,0,0,2,0V49A1,1,0,0,0,55,48Z" style="fill:#8d6c9f;"/><path d="M25,48a1,1,0,0,0-1,1v2a1,1,0,0,0,2,0V49A1,1,0,0,0,25,48Z" style="fill:#8d6c9f;"/><path d="M30,48a1,1,0,0,0-1,1v2a1,1,0,0,0,2,0V49A1,1,0,0,0,30,48Z" style="fill:#8d6c9f;"/><path d="M23,22h4a1,1,0,0,0,0-2H23a1,1,0,0,0,0,2Z" style="fill:#faefde;"/><path d="M31,22H49a1,1,0,0,0,0-2H31a1,1,0,0,0,0,2Z" style="fill:#faefde;"/><path d="M23,30H41a1,1,0,0,0,0-2H23a1,1,0,0,0,0,2Z" style="fill:#faefde;"/><path d="M45,36H39a1,1,0,0,0,0,2h6a1,1,0,0,0,0-2Z" style="fill:#faefde;"/><path d="M35,36H23a1,1,0,0,0,0,2H35a1,1,0,0,0,0-2Z" style="fill:#faefde;"/><circle cx="16.04" cy="21" r="2" style="fill:#faefde;"/><circle cx="16.04" cy="29" r="2" style="fill:#faefde;"/><circle cx="16.04" cy="37" r="2" style="fill:#faefde;"/></svg>