<svg xmlns="http://www.w3.org/2000/svg" id="Layer_1" data-name="Layer 1" viewBox="0 0 64 64" width="128" height="128"><title>Icons8 RSL Colored Part 5</title><rect x="5" y="7" width="20" height="20" rx="2" ry="2" style="fill:#f9e3ae;"/><path d="M7,27h8V7H7A2,2,0,0,0,5,9V25A2,2,0,0,0,7,27Z" style="fill:#faefde;"/><rect x="41" y="41" width="16" height="16" rx="2" ry="2" transform="translate(-20.3 49) rotate(-45)" style="fill:#72caaf;"/><circle cx="49" cy="17" r="11" style="fill:#f283a5;"/><circle cx="49" cy="17" r="7" style="fill:#ed7899;"/><path d="M14.13,39.5l-9.27,16A1,1,0,0,0,5.73,57H24.27a1,1,0,0,0,.87-1.5l-9.27-16A1,1,0,0,0,14.13,39.5Z" style="fill:#85cbf8;"/><path d="M58.42,50.41,49.92,58.9a2,2,0,0,1-1.41.58v-21a2,2,0,0,1,1.41.58l8.49,8.49A2,2,0,0,1,58.42,50.41Z" style="fill:#5dbc9d;"/><path d="M5.73,57H15V39a1,1,0,0,0-.87.5l-9.26,16A1,1,0,0,0,5.73,57Z" style="fill:#6fc6f0;"/><path d="M24,48v2a1,1,0,0,0,2,0V48a1,1,0,0,0-2,0Z" style="fill:#8d6c9f;"/><path d="M30,47a1,1,0,0,0-1,1v2a1,1,0,0,0,2,0V48A1,1,0,0,0,30,47Z" style="fill:#8d6c9f;"/><path d="M35,47a1,1,0,0,0-1,1v2a1,1,0,0,0,2,0V48A1,1,0,0,0,35,47Z" style="fill:#8d6c9f;"/><path d="M51.12,38.39a2.89,2.89,0,0,0-1.36-.74l3.94-3.94a1,1,0,0,0-1.41-1.41L50,34.59V28.95a12,12,0,1,0-2,0v5.64l-2.29-2.29a1,1,0,0,0-1.41,1.41l3.94,3.94a2.89,2.89,0,0,0-1.36.74l-8.49,8.48a3,3,0,0,0,0,4.24l8.48,8.49a3,3,0,0,0,4.24,0l8.49-8.49a3,3,0,0,0,0-4.24ZM39,17A10,10,0,1,1,49,27,10,10,0,0,1,39,17ZM58.19,49.71l-8.49,8.49a1,1,0,0,1-1.41,0l-8.49-8.49a1,1,0,0,1,0-1.41l8.49-8.49a1,1,0,0,1,1.41,0l8.49,8.49a1,1,0,0,1,0,1.41Z" style="fill:#8d6c9f;"/><path d="M36.71,16.29l-4-4a1,1,0,0,0-1.41,1.41L33.59,16H26V9a3,3,0,0,0-3-3H7A3,3,0,0,0,4,9V25a3,3,0,0,0,3,3H23a3,3,0,0,0,3-3V18h7.59l-2.29,2.29a1,1,0,1,0,1.41,1.41l4-4a1,1,0,0,0,0-1.41ZM24,25a1,1,0,0,1-1,1H7a1,1,0,0,1-1-1V9A1,1,0,0,1,7,8H23a1,1,0,0,1,1,1Z" style="fill:#8d6c9f;"/><path d="M14.29,28.29l-4,4a1,1,0,0,0,1.41,1.41L14,31.41V38a1,1,0,0,0,0,.24,2,2,0,0,0-.78.75L4,55a2,2,0,0,0,0,2,2,2,0,0,0,1.73,1H24.27A2,2,0,0,0,26,57a2,2,0,0,0,0-2L16.73,39a2,2,0,0,0-.78-.75A1,1,0,0,0,16,38V31.41l2.29,2.29a1,1,0,0,0,1.41-1.41l-4-4a1,1,0,0,0-1.41,0ZM24.27,56H5.73L15,40Z" style="fill:#8d6c9f;"/></svg>