<svg xmlns="http://www.w3.org/2000/svg" id="Layer_1" data-name="Layer 1" viewBox="0 0 64 64" width="128" height="128"><title>Dusk Part 2</title><rect x="40.78" y="41.46" width="5.54" height="4" transform="translate(-17.98 43.52) rotate(-45)" style="fill:#dadcec;"/><rect x="48.8" y="41.79" width="8.49" height="22.51" rx="4" ry="4" transform="translate(-21.97 53.04) rotate(-45)" style="fill:#cda1a7;"/><rect x="49.42" y="43.29" width="4.24" height="22.51" rx="2.12" ry="2.12" transform="translate(-23.47 52.42) rotate(-45)" style="fill:#c4939c;"/><circle cx="25" cy="25" r="24" style="fill:#ffeb9b;"/><path d="M11.14,38.86,38.86,11.14a4,4,0,0,1,6.11.54A24,24,0,0,1,11.68,45,4,4,0,0,1,11.14,38.86Z" style="fill:#f6d397;"/><circle cx="25" cy="25" r="18" style="fill:#bbdef9;"/><circle cx="25" cy="25" r="5" style="fill:#d2edff;"/><path d="M61.88,54.46,51.54,44.12a5,5,0,0,0-3.45-1.46s-.27-.26-.38-.37l-2.54-2.54a25,25,0,1,0-5.41,5.41l2.54,2.54a3.16,3.16,0,0,1,.36.4,5,5,0,0,0,1.46,3.43L54.46,61.88a5,5,0,0,0,7.07,0l.34-.34a5,5,0,0,0,0-7.07ZM2,25A23,23,0,1,1,25,48,23,23,0,0,1,2,25ZM44.12,44.46a5,5,0,0,0-.92,1.32l-1.87-1.87a25.2,25.2,0,0,0,2.59-2.59l1.87,1.87a4.94,4.94,0,0,0-1.32.92ZM60.46,60.12l-.34.34a3,3,0,0,1-4.24,0L45.54,50.12a3,3,0,0,1,0-4.24l.34-.34a3,3,0,0,1,4.24,0L60.46,55.88a3,3,0,0,1,0,4.24Z" style="fill:#8d6c9f;"/><path d="M25,6A19,19,0,0,0,6,25a1,1,0,0,0,2,0A17,17,0,1,1,25,42a1,1,0,0,0,0,2A19,19,0,0,0,25,6Z" style="fill:#8d6c9f;"/><path d="M21.12,39.49a1,1,0,0,0-1.23.71l-.52,1.93a1,1,0,1,0,1.93.52l.52-1.93A1,1,0,0,0,21.12,39.49Z" style="fill:#8d6c9f;"/><path d="M17.5,38a1,1,0,0,0-1.37.37l-1,1.73a1,1,0,0,0,1.73,1l1-1.73A1,1,0,0,0,17.5,38Z" style="fill:#8d6c9f;"/><path d="M13,35.61,11.56,37A1,1,0,1,0,13,38.43L14.39,37A1,1,0,0,0,13,35.61Z" style="fill:#8d6c9f;"/><path d="M12,32.5a1,1,0,0,0-1.37-.37l-1.73,1a1,1,0,0,0,1,1.73l1.73-1A1,1,0,0,0,12,32.5Z" style="fill:#8d6c9f;"/><path d="M10.51,28.88a1,1,0,0,0-1.23-.71l-1.93.52a1,1,0,0,0,.52,1.93l1.93-.52A1,1,0,0,0,10.51,28.88Z" style="fill:#8d6c9f;"/><path d="M17,26H33a1,1,0,0,0,0-2H17a1,1,0,0,0,0,2Z" style="fill:#8d6c9f;"/></svg>