<svg id="artwork" xmlns="http://www.w3.org/2000/svg" viewBox="0 0 104 104"><path d="M63.19,34.37a17.9,17.9,0,0,0-2.64-2.28A17.9,17.9,0,0,1,63.19,34.37Z"/><path d="M84.1,46.06h0a38.28,38.28,0,0,0-3-11A38.28,38.28,0,0,1,84.1,46.06Z"/><path d="M79.25,31.59A34.54,34.54,0,0,1,81,34.88,34.54,34.54,0,0,0,79.25,31.59Z"/><path d="M64.46,35.85a19.18,19.18,0,0,0-1.27-1.48A19.18,19.18,0,0,1,64.46,35.85Z"/><path d="M81,34.88a34.54,34.54,0,0,0-1.75-3.29,32,32,0,0,0-2.42-3.49C68,16.13,54.49,15.22,45.24,15.22H21.59V46.06h15V28.4H47.25c6,0,10.22,1.51,13.3,3.69a17.9,17.9,0,0,1,2.64,2.28,19.18,19.18,0,0,1,1.27,1.48,18.48,18.48,0,0,1,1.22,1.81,26.25,26.25,0,0,1,3.17,8.4H84.1a38.28,38.28,0,0,0-3-11A1.3,1.3,0,0,1,81,34.88Z"/><path d="M69.11,57.94C67.56,68.66,61,76.5,47.15,76.5H36.58V57.94h-15V89.68H46.34c24.62,0,36-13.48,37.86-31.74Z"/></svg>