<?xml version="1.0" encoding="UTF-8"?>
<svg id="artwork" xmlns="http://www.w3.org/2000/svg" xmlns:xlink="http://www.w3.org/1999/xlink" viewBox="0 0 514 274">
	<defs>
		<style>
			.cls-1{fill:none;}.cls-2{clip-path:url(#clippath);}.cls-3{fill:#000000;}.cls-4{fill:#000000;}.cls-5{fill:#000;}.cls-6{fill:#000000;}.cls-7{clip-path:url(#clippath-1);}
		</style>
		<clipPath id="clippath">
			<rect class="cls-1" x="46.8" y="54.97" width="422.31" height="52.85" />
		</clipPath>
		<clipPath id="clippath-1">
			<rect class="cls-1" x="46.8" y="115.69" width="422.31" height="53.85" />
		</clipPath>
	</defs>
	<g class="cls-2">
		<g>
			<path class="cls-6" d="M86.84,73.97h-23.65v74.46h24.75c27.07,0,38.14-16.3,38.14-37.33,0-9.16-2.21-17.41-7.65-24.25-8.85-11.97-22.34-12.88-31.6-12.88Zm1.91,61.28h-10.57v-48.1h10.67c9.06,0,14.09,3.42,17.21,7.45,3.52,4.63,5.03,10.87,5.03,16.7,0,13.38-6.24,23.95-22.34,23.95Z" />
			<rect class="cls-3" x="134.35" y="73.97" width="13.18" height="11.77" />
			<rect class="cls-3" x="134.35" y="93.19" width="13.18" height="55.24" />
			<polygon class="cls-3" points="180.32 131.83 167.04 93.19 153.35 93.19 173.88 148.43 186.76 148.43 207.29 93.19 193.6 93.19 180.32 131.83" />
			<polygon class="cls-3" points="237.07 131.83 223.79 93.19 210.1 93.19 230.63 148.43 243.51 148.43 264.04 93.19 250.35 93.19 237.07 131.83" />
			<rect class="cls-3" x="270.65" y="73.97" width="13.18" height="11.77" />
			<rect class="cls-3" x="270.65" y="93.19" width="13.18" height="55.24" />
			<path class="cls-3" d="M366.65,119.76c0,4.02,0,7.95-2.11,11.57-1.61,3.02-4.93,5.33-9.96,5.33s-8.25-2.42-10.06-5.64c-2.01-3.72-2.11-7.55-2.11-11.27v-45.78h-14.99v45.78c0,9.96,1.01,16.4,7.85,22.94,5.53,5.74,14.09,7.14,19.42,7.14,8.25,0,14.59-2.82,19.12-7.14,5.74-5.23,7.85-11.87,7.85-22.94v-45.78h-14.99v45.78Z" />
			<path class="cls-3" d="M422.92,89.82c-.7,0-1.37,.03-2.04,.08l.07-.08h-29.92v12.12h0v64.16h13.18v-17.77h15.85c.95,.1,1.93,.16,2.96,.16,16.2,0,27.37-13.18,27.37-28.88,0-13.38-8.15-29.78-27.47-29.78Zm14.29,29.38c0,9.06-6.74,17.01-16.8,17.01h-16.55v-34.11h16.55c11.1,.05,16.8,9.07,16.8,17.01v.09Z" />
			<path class="cls-3" d="M63.19,73.97h23.65c9.26,0,22.74,.91,31.6,12.88,5.43,6.84,7.65,15.09,7.65,24.25,0,21.03-11.07,37.33-38.14,37.33h-24.75V73.97Zm14.99,61.28h10.57c16.1,0,22.34-10.57,22.34-23.95,0-5.84-1.51-12.07-5.03-16.7-3.12-4.02-8.15-7.45-17.21-7.45h-10.67v48.1Z" />
		</g>
	</g>
	<g class="cls-7">
		<g>
			<path class="cls-4" d="M86.84,73.97h-23.65v74.46h24.75c27.07,0,38.14-16.3,38.14-37.33,0-9.16-2.21-17.41-7.65-24.25-8.85-11.97-22.34-12.88-31.6-12.88Zm1.91,61.28h-10.57v-48.1h10.67c9.06,0,14.09,3.42,17.21,7.45,3.52,4.63,5.03,10.87,5.03,16.7,0,13.38-6.24,23.95-22.34,23.95Z" />
			<rect class="cls-4" x="134.35" y="73.97" width="13.18" height="11.77" />
			<rect class="cls-5" x="134.35" y="93.19" width="13.18" height="55.24" />
			<polygon class="cls-5" points="180.32 131.83 167.04 93.19 153.35 93.19 173.88 148.43 186.76 148.43 207.29 93.19 193.6 93.19 180.32 131.83" />
			<polygon class="cls-5" points="237.07 131.83 223.79 93.19 210.1 93.19 230.63 148.43 243.51 148.43 264.04 93.19 250.35 93.19 237.07 131.83" />
			<rect class="cls-4" x="270.65" y="73.97" width="13.18" height="11.77" />
			<rect class="cls-5" x="270.65" y="93.19" width="13.18" height="55.24" />
			<path class="cls-5" d="M366.65,119.76c0,4.02,0,7.95-2.11,11.57-1.61,3.02-4.93,5.33-9.96,5.33s-8.25-2.42-10.06-5.64c-2.01-3.72-2.11-7.55-2.11-11.27v-45.78h-14.99v45.78c0,9.96,1.01,16.4,7.85,22.94,5.53,5.74,14.09,7.14,19.42,7.14,8.25,0,14.59-2.82,19.12-7.14,5.74-5.23,7.85-11.87,7.85-22.94v-45.78h-14.99v45.78Z" />
			<path class="cls-5" d="M422.92,89.82c-.7,0-1.37,.03-2.04,.08l.07-.08h-29.92v12.12h0v64.16h13.18v-17.77h15.85c.95,.1,1.93,.16,2.96,.16,16.2,0,27.37-13.18,27.37-28.88,0-13.38-8.15-29.78-27.47-29.78Zm14.29,29.38c0,9.06-6.74,17.01-16.8,17.01h-16.55v-34.11h16.55c11.1,.05,16.8,9.07,16.8,17.01v.09Z" />
			<path class="cls-5" d="M63.19,73.97h23.65c9.26,0,22.74,.91,31.6,12.88,5.43,6.84,7.65,15.09,7.65,24.25,0,21.03-11.07,37.33-38.14,37.33h-24.75V73.97Zm14.99,61.28h10.57c16.1,0,22.34-10.57,22.34-23.95,0-5.84-1.51-12.07-5.03-16.7-3.12-4.02-8.15-7.45-17.21-7.45h-10.67v48.1Z" />
		</g>
	</g>
	<g>
		<path class="cls-3" d="M63.09,179.06h6.46c2.53,0,6.22,.25,8.64,3.52,1.49,1.87,2.09,4.13,2.09,6.63,0,5.75-3.03,10.21-10.43,10.21h-6.77v-20.36Zm4.1,16.75h2.89c4.4,0,6.11-2.89,6.11-6.55,0-1.6-.41-3.3-1.38-4.57-.85-1.1-2.23-2.04-4.7-2.04h-2.92v13.15Z" />
		<path class="cls-3" d="M98.71,199.42h-3.6v-2.17c-.96,1.76-2.97,2.64-5.09,2.64-4.84,0-7.68-3.77-7.68-8.03,0-4.76,3.44-8.01,7.68-8.01,2.75,0,4.43,1.46,5.09,2.67v-2.2h3.6v15.1Zm-12.76-7.48c0,1.87,1.35,4.59,4.59,4.59,2.01,0,3.33-1.05,4.02-2.42,.36-.66,.52-1.38,.58-2.12,.03-.72-.11-1.46-.41-2.12-.63-1.43-2.04-2.67-4.21-2.67-2.92,0-4.57,2.37-4.57,4.7v.03Z" />
		<path class="cls-3" d="M103.21,187.09h-2.5v-2.78h2.5v-5.25h3.6v5.25h2.59v2.78h-2.59v12.33h-3.6v-12.33Z" />
		<path class="cls-3" d="M126.66,199.42h-3.6v-2.17c-.96,1.76-2.97,2.64-5.09,2.64-4.84,0-7.68-3.77-7.68-8.03,0-4.76,3.44-8.01,7.68-8.01,2.75,0,4.43,1.46,5.09,2.67v-2.2h3.6v15.1Zm-12.76-7.48c0,1.87,1.35,4.59,4.59,4.59,2.01,0,3.33-1.05,4.02-2.42,.36-.66,.52-1.38,.58-2.12,.03-.72-.11-1.46-.41-2.12-.63-1.43-2.04-2.67-4.21-2.67-2.92,0-4.57,2.37-4.57,4.7v.03Z" />
		<path class="cls-3" d="M154.04,199.42h-3.44v-2.17c-.66,1.13-2.09,2.64-5.17,2.64-4.65,0-7.65-3.63-7.65-8.03,0-4.9,3.49-8.01,7.59-8.01,2.89,0,4.51,1.54,5.06,2.42v-7.21h3.6v20.36Zm-12.66-7.57c0,2.56,1.84,4.65,4.62,4.65,1.32,0,2.5-.52,3.36-1.38s1.35-2.04,1.29-3.36c0-1.32-.52-2.45-1.35-3.25-.83-.83-1.98-1.32-3.27-1.32-2.94,0-4.65,2.26-4.65,4.62v.03Z" />
		<path class="cls-3" d="M157.58,179.06h3.6v3.22h-3.6v-3.22Zm0,5.25h3.6v15.1h-3.6v-15.1Z" />
		<path class="cls-3" d="M172.24,199.42h-3.52l-5.61-15.1h3.74l3.63,10.56,3.63-10.56h3.74l-5.61,15.1Z" />
		<path class="cls-3" d="M179.81,179.06h3.6v3.22h-3.6v-3.22Zm0,5.25h3.6v15.1h-3.6v-15.1Z" />
		<path class="cls-3" d="M202.4,199.42h-3.44v-2.17c-.66,1.13-2.09,2.64-5.17,2.64-4.65,0-7.65-3.63-7.65-8.03,0-4.9,3.49-8.01,7.59-8.01,2.89,0,4.51,1.54,5.06,2.42v-7.21h3.6v20.36Zm-12.66-7.57c0,2.56,1.84,4.65,4.62,4.65,1.32,0,2.5-.52,3.36-1.38s1.35-2.04,1.29-3.36c0-1.32-.52-2.45-1.35-3.25-.83-.83-1.98-1.32-3.27-1.32-2.94,0-4.65,2.26-4.65,4.62v.03Z" />
		<path class="cls-3" d="M208.66,193.06c.17,2.42,2.31,3.77,4.37,3.74,1.76,0,2.94-.8,3.63-2.04h3.71c-.71,1.68-1.79,2.94-3.05,3.8-1.27,.88-2.75,1.32-4.32,1.32-4.65,0-7.98-3.77-7.98-7.98s3.36-8.06,7.92-8.06c2.26,0,4.24,.85,5.64,2.31,1.84,1.9,2.53,4.26,2.23,6.91h-12.16Zm8.61-2.75c-.14-1.43-1.65-3.44-4.29-3.41-2.67,0-4.13,1.93-4.26,3.41h8.56Z" />
		<path class="cls-3" d="M238.97,199.42h-3.44v-2.17c-.66,1.13-2.09,2.64-5.17,2.64-4.65,0-7.65-3.63-7.65-8.03,0-4.9,3.49-8.01,7.59-8.01,2.89,0,4.51,1.54,5.06,2.42v-7.21h3.6v20.36Zm-12.66-7.57c0,2.56,1.84,4.65,4.62,4.65,1.32,0,2.5-.52,3.36-1.38s1.35-2.04,1.29-3.36c0-1.32-.52-2.45-1.35-3.25-.83-.83-1.98-1.32-3.27-1.32-2.94,0-4.65,2.26-4.65,4.62v.03Z" />
		<path class="cls-3" d="M246.55,199.42h-3.77v-4.07h3.77v4.07Z" />
		<path class="cls-3" d="M259.12,179.06h6.46c2.53,0,6.22,.25,8.64,3.52,1.49,1.87,2.09,4.13,2.09,6.63,0,5.75-3.03,10.21-10.43,10.21h-6.77v-20.36Zm4.1,16.75h2.89c4.4,0,6.11-2.89,6.11-6.55,0-1.6-.41-3.3-1.38-4.57-.85-1.1-2.23-2.04-4.7-2.04h-2.92v13.15Z" />
		<path class="cls-3" d="M294.74,199.42h-3.6v-2.17c-.96,1.76-2.97,2.64-5.09,2.64-4.84,0-7.68-3.77-7.68-8.03,0-4.76,3.44-8.01,7.68-8.01,2.75,0,4.43,1.46,5.09,2.67v-2.2h3.6v15.1Zm-12.76-7.48c0,1.87,1.35,4.59,4.59,4.59,2.01,0,3.33-1.05,4.02-2.42,.36-.66,.52-1.38,.58-2.12,.03-.72-.11-1.46-.41-2.12-.63-1.43-2.04-2.67-4.21-2.67-2.92,0-4.57,2.37-4.57,4.7v.03Z" />
		<path class="cls-3" d="M299.23,187.09h-2.5v-2.78h2.5v-5.25h3.6v5.25h2.59v2.78h-2.59v12.33h-3.6v-12.33Z" />
		<path class="cls-3" d="M322.69,199.42h-3.6v-2.17c-.96,1.76-2.97,2.64-5.09,2.64-4.84,0-7.68-3.77-7.68-8.03,0-4.76,3.44-8.01,7.68-8.01,2.75,0,4.43,1.46,5.09,2.67v-2.2h3.6v15.1Zm-12.76-7.48c0,1.87,1.35,4.59,4.59,4.59,2.01,0,3.33-1.05,4.02-2.42,.36-.66,.52-1.38,.58-2.12,.03-.72-.11-1.46-.41-2.12-.63-1.43-2.04-2.67-4.21-2.67-2.92,0-4.57,2.37-4.57,4.7v.03Z" />
		<path class="cls-3" d="M341.15,188.39c-.03-.8-.44-1.62-1.84-1.62-1.21,0-1.79,.77-1.79,1.51,.03,.96,1.13,1.49,2.56,1.9,2.42,.66,5.04,1.38,5.06,4.62,.05,3.11-2.56,5.09-5.72,5.09-2.34,0-5.5-1.21-5.78-4.87h3.6c.14,1.62,1.54,1.95,2.23,1.95,1.13,0,2.09-.74,2.06-1.76,0-1.29-1.13-1.65-3.91-2.61-2.04-.63-3.69-1.76-3.71-3.93,0-2.97,2.5-4.81,5.42-4.81,2.04,0,5.06,.91,5.36,4.54h-3.55Z" />
		<path class="cls-3" d="M350.41,193.06c.17,2.42,2.31,3.77,4.37,3.74,1.76,0,2.94-.8,3.63-2.04h3.71c-.71,1.68-1.79,2.94-3.05,3.8-1.27,.88-2.75,1.32-4.32,1.32-4.65,0-7.98-3.77-7.98-7.98s3.36-8.06,7.92-8.06c2.26,0,4.24,.85,5.64,2.31,1.84,1.9,2.53,4.26,2.23,6.91h-12.16Zm8.61-2.75c-.14-1.43-1.65-3.44-4.29-3.41-2.67,0-4.13,1.93-4.26,3.41h8.56Z" />
		<path class="cls-3" d="M380.3,193.92c-.85,3.36-3.85,5.97-7.76,5.97-4.79,0-8.09-3.71-8.09-8.03s3.44-8.01,7.95-8.01c3.8,0,7.02,2.39,7.9,6.08h-3.69c-.63-1.6-2.09-2.72-4.07-2.72-1.32-.03-2.34,.44-3.22,1.29-.77,.83-1.24,2.04-1.24,3.36,0,2.72,1.9,4.65,4.46,4.65,2.26,0,3.52-1.35,4.07-2.59h3.69Z" />
		<path class="cls-3" d="M396.73,199.42h-3.38v-2.01c-.63,1.18-1.98,2.5-4.7,2.48-4.95-.03-5.89-3.8-5.89-6.44v-9.13h3.6v8.23c0,2.23,.74,3.99,3.3,3.96,2.59,0,3.47-1.71,3.47-3.85v-8.34h3.6v15.1Z" />
		<path class="cls-3" d="M400.26,184.31h3.41v1.98c.66-1.35,1.9-2.42,4.18-2.45v3.63h-.17c-2.53,0-3.82,1.18-3.82,3.8v8.14h-3.6v-15.1Z" />
		<path class="cls-3" d="M412.36,193.06c.17,2.42,2.31,3.77,4.37,3.74,1.76,0,2.94-.8,3.63-2.04h3.71c-.71,1.68-1.79,2.94-3.05,3.8-1.27,.88-2.75,1.32-4.32,1.32-4.65,0-7.98-3.77-7.98-7.98s3.36-8.06,7.92-8.06c2.26,0,4.24,.85,5.64,2.31,1.84,1.9,2.53,4.26,2.23,6.91h-12.16Zm8.61-2.75c-.14-1.43-1.65-3.44-4.29-3.41-2.67,0-4.13,1.93-4.26,3.41h8.56Z" />
		<path class="cls-3" d="M442.68,199.42h-3.44v-2.17c-.66,1.13-2.09,2.64-5.17,2.64-4.65,0-7.65-3.63-7.65-8.03,0-4.9,3.49-8.01,7.59-8.01,2.89,0,4.51,1.54,5.06,2.42v-7.21h3.6v20.36Zm-12.66-7.57c0,2.56,1.84,4.65,4.62,4.65,1.32,0,2.5-.52,3.36-1.38s1.35-2.04,1.29-3.36c0-1.32-.52-2.45-1.35-3.25-.83-.83-1.98-1.32-3.27-1.32-2.94,0-4.65,2.26-4.65,4.62v.03Z" />
		<path class="cls-3" d="M450.25,199.42h-3.77v-4.07h3.77v4.07Z" />
	</g>
</svg>
