<svg id="artwork" xmlns="http://www.w3.org/2000/svg" viewBox="0 0 514 274"><defs><style>.cls-1{font-size:27.51px;font-family:ITCAvantGardeStd-Demi, ITC Avant Garde Gothic Std;font-weight:300;letter-spacing:0em;}.cls-2{letter-spacing:0em;}.cls-3{letter-spacing:-0.01em;}.cls-4{letter-spacing:0em;}.cls-5{letter-spacing:0em;}.cls-6{letter-spacing:-0.01em;}.cls-7{letter-spacing:-0.01em;}.cls-8{letter-spacing:0em;}.cls-9{letter-spacing:0em;}.cls-10{letter-spacing:0em;}.cls-11{letter-spacing:-0.01em;}.cls-12{letter-spacing:0em;}.cls-13{letter-spacing:0em;}.cls-14{letter-spacing:-0.01em;}.cls-15{letter-spacing:0em;}.cls-16{letter-spacing:-0.01em;}.cls-17{letter-spacing:0em;}</style></defs><text class="cls-1" transform="translate(61.16 199.42)">D<tspan class="cls-2" x="20.19" y="0">a</tspan><tspan class="cls-3" x="39.26" y="0">t</tspan><tspan class="cls-4" x="48.14" y="0">a </tspan><tspan class="cls-5" x="75.62" y="0">d</tspan><tspan class="cls-6" x="94.63" y="0">i</tspan><tspan class="cls-7" x="101.56" y="0">v</tspan><tspan class="cls-8" x="116.86" y="0">i</tspan><tspan class="cls-9" x="123.98" y="0">d</tspan><tspan class="cls-10" x="143.03" y="0">e</tspan><tspan class="cls-11" x="160.56" y="0">d</tspan><tspan class="cls-4" x="179.3" y="0">. </tspan><tspan x="196.03" y="0">D</tspan><tspan class="cls-2" x="216.21" y="0">a</tspan><tspan class="cls-3" x="235.29" y="0">t</tspan><tspan class="cls-4" x="244.17" y="0">a </tspan><tspan class="cls-12" x="271.65" y="0">s</tspan><tspan class="cls-13" x="284.78" y="0">e</tspan><tspan class="cls-14" x="302.32" y="0">c</tspan><tspan class="cls-15" x="319.86" y="0">u</tspan><tspan class="cls-16" x="337.34" y="0">r</tspan><tspan class="cls-10" x="346.74" y="0">e</tspan><tspan class="cls-11" x="364.27" y="0">d</tspan><tspan class="cls-17" x="383.01" y="0">.</tspan></text><path d="M126,107.81h0a39.13,39.13,0,0,0-3.82-15.08A39.13,39.13,0,0,1,126,107.81Z"/><rect x="78.18" y="87.15" height="20.66"/><path d="M101.63,90.48a18.13,18.13,0,0,1,4.43,4.12A18.13,18.13,0,0,0,101.63,90.48Z"/><path d="M120.65,90c.32.53.63,1.06.93,1.6C121.28,91.07,121,90.54,120.65,90Z"/><rect x="134.35" y="73.97" width="13.18" height="11.77"/><rect x="134.35" y="93.19" width="13.18" height="14.62"/><polygon points="167.04 93.19 153.35 93.19 158.78 107.81 172.06 107.81 167.04 93.19"/><polygon points="188.57 107.81 201.85 107.81 207.29 93.19 193.6 93.19 188.57 107.81"/><polygon points="223.79 93.19 210.1 93.19 215.54 107.81 228.81 107.81 223.79 93.19"/><polygon points="245.33 107.81 258.61 107.81 264.04 93.19 250.35 93.19 245.33 107.81"/><rect x="270.65" y="73.97" width="13.18" height="11.77"/><rect x="270.65" y="93.19" width="13.18" height="14.62"/><rect x="327.4" y="73.97" width="14.99" height="33.84"/><rect x="366.65" y="73.97" width="14.99" height="33.84"/><path d="M422.92,89.82c-.7,0-1.38,0-2,.08l.06-.08H391v12.12h0v5.87h12.84V102.1h16.55a16.23,16.23,0,0,1,12.69,5.71h15.21C444.8,98.17,436.7,89.82,422.92,89.82Z"/><path d="M121.58,91.61c-.3-.54-.61-1.07-.93-1.6a35.32,35.32,0,0,0-2.22-3.16,29.3,29.3,0,0,0-7.37-7.06c-.33-.22-.66-.44-1-.64C102.33,74.44,93.49,74,86.84,74H63.19v33.84h15V87.15H88.85c5.66,0,9.75,1.34,12.78,3.33a18.13,18.13,0,0,1,4.43,4.12,18.48,18.48,0,0,1,1.22,1.81,27.65,27.65,0,0,1,3.61,11.4H126a39.13,39.13,0,0,0-3.82-15.08C122,92.35,121.78,92,121.58,91.61Z"/><path d="M120.06,133.92q-.69,1.05-1.47,2Q119.37,135,120.06,133.92Z"/><path d="M125.89,115.69h0a38.9,38.9,0,0,1-5.44,17.62A38.9,38.9,0,0,0,125.89,115.69Z"/><path d="M116,138.85l0,0Z"/><rect x="78.18" y="115.69" height="19.56"/><rect x="134.35" y="115.69" width="13.18" height="32.74"/><polygon points="173.88 148.43 186.76 148.43 198.93 115.69 185.87 115.69 180.32 131.83 174.77 115.69 161.71 115.69 173.88 148.43"/><polygon points="230.63 148.43 243.51 148.43 255.68 115.69 242.62 115.69 237.07 131.83 231.52 115.69 218.47 115.69 230.63 148.43"/><rect x="270.65" y="115.69" width="13.18" height="32.74"/><path d="M327.4,115.69v4.07c0,10,1,16.4,7.85,22.94,5.53,5.73,14.09,7.14,19.42,7.14,8.25,0,14.59-2.81,19.12-7.14,5.74-5.23,7.85-11.88,7.85-22.94v-4.07h-15v4.07c0,4,0,7.95-2.12,11.57-1.61,3-4.93,5.33-10,5.33A11,11,0,0,1,344.51,131c-2-3.73-2.11-7.55-2.11-11.27v-4.07Z"/><path d="M437.21,119.11v.09c0,9.06-6.74,17-16.8,17H403.86V115.69H391V166.1h13.19V148.33h15.85c.95.09,1.92.16,3,.16,16.2,0,27.37-13.18,27.37-28.88a34.76,34.76,0,0,0-.23-3.92H436.85A17.35,17.35,0,0,1,437.21,119.11Z"/><path d="M116,138.88l0,0a29.39,29.39,0,0,0,2.59-2.89q.78-1,1.47-2c.13-.2.27-.4.39-.61a38.9,38.9,0,0,0,5.44-17.62h-15c-1.28,11.23-7.8,19.56-22.09,19.56H78.18V115.69h-15v32.74H87.94C100.63,148.43,109.8,144.85,116,138.88Z"/></svg>