<svg xmlns="http://www.w3.org/2000/svg" data-name="Layer 1" viewBox="0 0 100 100" x="0px" y="0px"><title>Artboard 26</title><path d="M9.33,11.23a10,10,0,1,1,10,10A10,10,0,0,1,9.33,11.23Zm50.5,18.31a3.47,3.47,0,0,0-3.23-3.85L30,24l-4.41-.08a.4.4,0,0,0-.32.15l-5.19,6.49a1,1,0,0,1-1.6,0L13.28,24a.41.41,0,0,0-.32-.16H9.85a8.47,8.47,0,0,0-8.42,9.43L3.89,51.85A7.2,7.2,0,0,0,8.57,57.8l4.15,38.08A3.29,3.29,0,0,0,16,98.79h6.58a3.29,3.29,0,0,0,3.27-2.92l1.94-17.8,4.65-43.53a.45.45,0,0,1,.42-.4l23.57-1.52A3.61,3.61,0,0,0,59.83,29.54Zm17,17-6.19-.9-2.77-5.61a1.22,1.22,0,0,0-2.18,0L63,45.68l-6.19.9a1.22,1.22,0,0,0-.68,2.07L60.58,53l-1.06,6.17a1.22,1.22,0,0,0,1.77,1.28l5.54-2.91,5.54,2.91a1.22,1.22,0,0,0,1.77-1.28L73.07,53l4.48-4.37A1.22,1.22,0,0,0,76.88,46.58Zm-26.17,39H37a2,2,0,0,0-2,2v9.24a2,2,0,0,0,2,2H50.71a2,2,0,0,0,2-2V87.55A2,2,0,0,0,50.71,85.56Zm23,0H60a2,2,0,0,0-2,2v9.24a2,2,0,0,0,2,2H73.67a2,2,0,0,0,2-2V87.55A2,2,0,0,0,73.67,85.56Zm23,0H82.94a2,2,0,0,0-2,2v9.24a2,2,0,0,0,2,2H96.63a2,2,0,0,0,2-2V87.55A2,2,0,0,0,96.63,85.56ZM48.5,67a2,2,0,0,0-2,2v9.24a2,2,0,0,0,2,2H62.19a2,2,0,0,0,2-2V69a2,2,0,0,0-2-2Zm21,2v9.24a2,2,0,0,0,2,2H85.15a2,2,0,0,0,2-2V69a2,2,0,0,0-2-2H71.46A2,2,0,0,0,69.46,69Z"></path></svg>