<svg xmlns="http://www.w3.org/2000/svg" xmlns:xlink="http://www.w3.org/1999/xlink" version="1.0" x="0px" y="0px" viewBox="0 0 32 32" enable-background="new 0 0 32 32" xml:space="preserve"><path d="M10.423,10.381l-5.628,5.628l5.628,5.628c0.781,0.777,0.781,2.039,0,2.816c-0.777,0.776-2.035,0.776-2.812,0l-7.038-7.039  c-0.777-0.776-0.777-2.034,0-2.812l7.038-7.038c0.777-0.781,2.035-0.781,2.812,0C11.204,8.342,11.204,9.604,10.423,10.381z   M31.412,14.579l-7.015-7.015c-0.777-0.781-2.031-0.781-2.809,0c-0.777,0.773-0.777,2.031,0,2.805l5.612,5.612l-5.612,5.612  c-0.777,0.777-0.777,2.031,0,2.809c0.777,0.776,2.031,0.776,2.809,0l7.015-7.02C32.188,16.61,32.188,15.353,31.412,14.579z   M17.57,7.104c-1.09-0.191-2.125,0.535-2.316,1.625l-2.433,13.783c-0.191,1.09,0.535,2.125,1.625,2.316  c1.086,0.195,2.121-0.531,2.316-1.621l2.43-13.787C19.382,8.334,18.656,7.299,17.57,7.104z"></path></svg>