<svg xmlns="http://www.w3.org/2000/svg" xmlns:xlink="http://www.w3.org/1999/xlink" version="1.1" x="0px" y="0px" viewBox="0 0 100 100" enable-background="new 0 0 100 100" xml:space="preserve"><g><path fill="none" d="M52.386,50.888c-2.469,0.011-4.461,2.023-4.451,4.493c0.011,2.47,2.021,4.464,4.49,4.453   c2.472-0.011,4.467-2.023,4.456-4.493C56.871,52.872,54.858,50.877,52.386,50.888z"></path><path fill="none" d="M50.964,15.441c-3.472,0.015-5.273,0.824-5.273,0.824c-0.329,0.804-0.591,2.007-0.584,3.609   c0.009,2.137,0.413,2.803,0.413,2.803c1.533-0.675,4.005-0.685,4.94-0.69c5.474-0.024,9.618,1.428,9.634,5.166   c0.027,6.142-8.842,8.184-10.509,8.591c-0.197,0.669-0.32,2.939-0.315,4.008c0.022,5.14,0.761,6.339,0.761,6.339   c0.536,0.131,1.001,0.129,1.537,0.126c2.401-0.01,4.398-1.087,4.532-1.221c-0.004-1.001,0.576-6.145,1.307-6.483   c1.001-0.537,10.535-3.318,10.495-12.397C67.88,21.042,64.383,15.382,50.964,15.441z"></path><path d="M85.821,52.506c2.489-8.412,3.312-19.335,0.065-27.66C82.82,16.987,75.771,10.349,67.862,7.477   c-8.737-3.17-19.445-3.123-28.443-0.849c-8.523,2.151-14.536,7.341-18.554,14.947c-2.083,3.941-3.201,8.587-2.43,13.087   c0.63,3.692,0.866,7.179-1.238,10.383c-1.508,2.3-4.068,4.715-4.911,7.423c-1.702,2.283,4.271,4.298,5.463,5.149   c2.705,2.273-1.096,4.734-0.945,7.098c0.103,1.631,2.838,0.558,1.405,2.087c-0.515,0.55-0.752,1.064-0.551,1.609   c0.076,0.205,0.919,0.93,1.078,1.164c0.63,0.91,0.427,2.533,0.246,3.455c-0.004,2.604-0.928,5.259,2.613,6.584   c3.28,1.229,6.632-0.176,9.968-0.044c0.001,0,0.001,0,0.002,0c0,0,0.001,0,0.001,0l-0.001,0l0.002,0   c1.556,0.062,2.787,0.336,4.051,1.303c1.601,1.209,3.043,4.592,3.558,7.138c0.226,1.109,0.538,6.996,1.705,6.991   c3.709-0.016,7.418-0.033,11.129-0.049c8.364-0.037,16.73-0.074,25.097-0.111c-2.486-5.962-4.892-14.292-2.92-20.75   C76.584,66.232,83.462,60.477,85.821,52.506z M52.426,59.835c-2.47,0.011-4.479-1.984-4.49-4.453   c-0.011-2.47,1.981-4.483,4.451-4.493c2.472-0.011,4.484,1.983,4.496,4.454C56.892,57.812,54.898,59.824,52.426,59.835z    M57.408,38.513c-0.731,0.338-1.312,5.482-1.307,6.483c-0.134,0.135-2.131,1.211-4.532,1.221c-0.536,0.003-1.001,0.005-1.537-0.126   c0,0-0.739-1.199-0.761-6.339c-0.005-1.069,0.118-3.339,0.315-4.008c1.667-0.407,10.537-2.45,10.509-8.591   c-0.016-3.738-4.161-5.19-9.634-5.166c-0.935,0.004-3.407,0.015-4.94,0.69c0,0-0.403-0.666-0.413-2.803   c-0.007-1.602,0.255-2.805,0.584-3.609c0,0,1.8-0.809,5.273-0.824c13.419-0.059,16.916,5.601,16.939,10.675   C67.943,35.195,58.409,37.976,57.408,38.513z"></path></g></svg>