<svg xmlns="http://www.w3.org/2000/svg" xmlns:xlink="http://www.w3.org/1999/xlink" version="1.1" x="0px" y="0px" viewBox="0 0 512 512" style="enable-background:new 0 0 512 512;" xml:space="preserve"><g><g><path d="M214.1,508.6c-1-0.6-2-1.3-3.1-1.7c-15.7-5.2-24.2-16.8-24.2-33.5c-0.1-48,0-95.9,0-143.9    c0-3.1,0-6.1,0-10.5c-3.5,0-6.7,0.1-9.9,0c-19.3-0.6-33.3-14.6-33.4-34c-0.1-39.3-0.1-78.5,0-117.8c0-20.7,13-34.5,33.6-35.3    c11.8-0.5,23.6,0.2,35.4-0.2c5-0.2,5.9,2.8,7.1,6.3c8.9,24.8,17.9,49.6,26.9,74.4c1,2.8,2.2,5.6,3.9,9.9    c7.8-21.5,15.1-41.4,22.3-61.4c2.8-7.7,5.7-15.4,8.2-23.2c1.4-4.2,3.3-6.3,8.1-6c13.1,0.6,26.2-0.3,39.2,1    c16.8,1.7,28.6,14.8,28.8,31.6c0.4,40.8,0.4,81.6,0,122.4c-0.2,18.1-14.4,31.5-32.7,32.3c-3.1,0.1-6.1,0-10.5,0c0,3.3,0,6.2,0,9.1    c0,45.9,0,91.8,0,137.8c0,25.9-5.1,33.5-28.7,42.7c-3.1,0-6.2,0-9.2,0c-10.7-3.7-20.2-9.1-25.5-21.6    c-5.4,12.5-14.8,17.8-25.3,21.6C221.3,508.6,217.7,508.6,214.1,508.6z"></path><path d="M482,266.9c-4.5,11.8-10.9,21.7-23.6,26.3c-1.5,0.5-2.4,4.6-2.4,7.1c-0.1,36.4-0.2,72.8-0.1,109.2    c0,9-2.6,16.6-9.8,22.3c-13.7,10.6-30.6,5.6-40.1-12.1c-2.2,3.1-4,6.3-6.3,9c-7.1,8-17.4,10.5-27.3,7    c-9.4-3.4-16.6-12.6-16.7-22.8c-0.2-26.9-0.2-53.8,0-80.8c0-2.4,1.6-5.3,3.4-7c12.1-11.4,17.6-25.1,17.5-41.8    c-0.4-39.7,0.4-79.5-0.4-119.2c-0.2-10-4.5-20-7.1-30.4c0.6,0,2.8-0.3,4.9-0.3c21.3,0,42.6,0,63.8,0c27.4,0,33.9,4.2,44.1,28.9    C482,197.1,482,232,482,266.9z"></path><path d="M20.2,160.7c6.6-19.6,19.9-28.6,40.7-27.4c11.8,0.7,23.6,0.1,35.4,0.1c12,0,24.1,0,37.1,0    c-2.3,4.7-4.9,8.6-6,12.8c-1.9,7.4-3.8,15-3.9,22.5c-0.4,37.7-0.1,75.4-0.2,113.1c0,17.9,5.8,33,19.5,45c2.1,1.8,3.3,5.6,3.4,8.5    c0.3,24.6,0.2,49.2,0.1,73.8c0,14.1-7.1,24.1-19.1,27.2c-12.2,3.1-22.7-2.1-29.7-14.7c-0.3-0.6-0.8-1.2-1.4-2.1    c-1.2,2-2.2,3.7-3.3,5.4c-6.2,9.8-16.7,14.1-27.8,11.3c-10.7-2.6-18.6-11.9-18.9-23.4c-0.4-14.3-0.1-28.7-0.2-43.1    c0-23.1-0.1-46.2,0.1-69.2c0-4.6-0.8-7.4-5.7-9.2c-11.3-4.1-16.4-13.9-20.3-24.5C20.2,231.5,20.2,196.1,20.2,160.7z"></path><g><path d="M248,120.9c-2.7,0-5.4-0.2-8.1-0.7c-24.6-4.6-41.8-22.3-44.8-46.1c-3.3-25.6,12.2-49.7,36.8-57.3     c1.1-0.3,2.3-0.8,3.6-1.3c0.7-0.3,1.4-0.5,2.1-0.8l1.7-0.6H255l1.4,0.4c9.5,2.8,20.4,6.5,29.3,15.6c16.3,16.9,20.1,41.8,9.5,62     C285.9,109.4,266.7,120.9,248,120.9z M242.9,33.8c-0.1,0-0.1,0.1-0.2,0.1c-1.5,0.6-3.1,1.2-4.8,1.7     c-15.4,4.8-25.1,19.9-23.1,35.9c1.9,15.2,12.7,26.1,28.8,29.1c12.5,2.4,27.4-5.5,33.9-17.9c6.6-12.6,4.1-28.2-6.2-38.9     c-4.7-4.9-10.9-7.5-19.2-10H242.9z"></path></g></g><g><path d="M98.4,121.2L39.2,62L98.4,2.8L157.6,62L98.4,121.2z M67.3,62l31.1,31.1L129.5,62L98.4,30.9L67.3,62z"></path></g><g><path d="M386.9,114l-56.8-98.5h113.7L386.9,114z M364.5,35.4l22.5,38.9l22.5-38.9H364.5z"></path></g></g></svg>