<svg xmlns="http://www.w3.org/2000/svg" xmlns:xlink="http://www.w3.org/1999/xlink" version="1.1" x="0px" y="0px" viewBox="0 0 100 100" style="enable-background:new 0 0 100 100;" xml:space="preserve"><path d="M51.633,36.959c-0.502-0.052-0.994-0.084-1.455-0.126c-1.476-0.115-2.847-0.23-4.396-0.617  c0.68,0.869,1.518,1.559,2.669,2.093c1.58,0.722,3.862,1.099,5.515-0.031c0,0,0,0,0-0.01l0.021-0.01  c0.45-0.492,0.921-0.952,1.413-1.402C54.229,37.042,52.983,37.084,51.633,36.959z"></path><path d="M37.798,10.586c0.356-0.46,1.015-0.555,1.476-0.209c0.461,0.356,0.555,1.005,0.209,1.465  c-0.021,0.031-0.042,0.052-0.063,0.084c0.785-0.167,1.591-0.272,2.428-0.272c0.031,0,0.063,0,0.094,0  c3.673,0.042,5.453,2.062,7.336,4.207l0.513,0.586c0.45,0.513,0.931,0.994,1.413,1.476c0.555-1.633,1.298-3.213,2.229-4.72  c0.178-0.283,0.377-0.597,0.638-0.879c-0.366-2.219-0.921-4.437-2.627-5.892c-2.187-1.873-5.515-1.643-7.901-0.806  c-3.977,1.392-8.32,3.422-10.842,9.461c1.277-0.89,2.616-1.685,4.019-2.292C36.835,11.904,37.086,11.538,37.798,10.586z"></path><path d="M57.745,23.04l0.45,0.262c1.821,1.078,4.029,2.407,4.5,5.212c0.052-0.094,0.115-0.178,0.167-0.262  c0.785-1.277,1.58-2.637,2.072-3.987c0.314-0.879,1.13-2.459,1.413-3.004c0.973-1.915-0.869-4.668-2.48-5.976  c-1.999-1.622-4.647-2.449-6.897-2.156c-0.356,0.042-0.795,0.126-1.088,0.335c-0.251,0.178-0.471,0.513-0.67,0.837  c-1.026,1.654-1.79,3.401-2.313,5.201C54.417,20.821,56.029,22.014,57.745,23.04z"></path><path d="M61.324,33.934c-1.088,1.256-2.281,2.47-3.548,3.59c-0.827,0.733-1.559,1.392-2.24,2.135l-0.115,0.126  c-0.597,0.659-0.911,1.026-0.879,1.549c0.136,2.072,2.281,4.008,4.186,4.605c2.543,0.806,4.887-0.031,7.64-2.742  c0.816-0.806,1.612-1.622,2.407-2.449c0.136-0.157,0.272-0.303,0.419-0.46l0.952-1.047c0.722-0.795,1.517-1.664,3.359-3.757  l0.481-0.544c1.036-1.183,1.737-1.968,2.386-2.407c0.042-0.094,0.094-0.188,0.115-0.272c0.712-2.135,0.157-4.971-1.319-6.729  c-0.869-1.047-2.093-1.915-3.642-2.595c-0.377-0.167-2.093-0.712-3.108-0.712c-0.094,0-0.167,0.01-0.22,0.01  c-0.356,0.68-1.057,2.062-1.298,2.742c-0.555,1.528-1.413,2.993-2.25,4.364C63.689,30.931,62.559,32.479,61.324,33.934z"></path><path d="M71.005,55.514c-0.628,0.209-1.685,0.565-2.899,0.565c-2.083,0-3.809-1.005-5.118-2.993l-0.031-0.01  c-1.57-1.748-2.187-3.359-1.863-4.793c-0.188,0.021-0.377,0.042-0.576,0.042c-0.795,0-1.612-0.136-2.418-0.387  c-0.764-0.241-1.549-0.638-2.292-1.151c1.204,3.087,2.114,6.677,1.413,9.628c-1.329,5.641-3.987,9.429-5.212,10.643  c-0.199,0.199-0.471,0.303-0.733,0.303c-0.272,0-0.544-0.105-0.743-0.303c-0.408-0.419-0.408-1.078,0-1.486  c0.869-0.858,3.391-4.27,4.657-9.639c0.733-3.119-0.659-7.912-4.134-14.243c-0.126-0.22-0.22-0.387-0.283-0.513  c-0.021-0.042-0.021-0.084-0.031-0.115c-1.036-0.094-2.114-0.366-3.161-0.848c-2.501-1.151-3.809-2.867-4.929-5.086  c-0.586-0.251-1.183-0.534-1.842-0.89l-0.031,0.031c-2.648,1.999-3.851,2.909-8.697,3.056c-0.576,0.031-1.057-0.44-1.078-1.015  c-0.01-0.576,0.44-1.068,1.015-1.078c4.113-0.126,4.929-0.691,7.389-2.554c-0.973-2.334-0.324-4.155-0.178-4.532  c0.23-0.534,0.837-0.785,1.371-0.565c0.534,0.22,0.785,0.837,0.565,1.371c-0.021,0.063-0.576,1.465,0.345,3.276  c3.82,2.104,5.944,2.292,8.833,2.522c0.481,0.031,0.973,0.073,1.486,0.126c2.501,0.241,5.892-0.01,7.901-2.575  c0.659-0.827,1.005-1.842,0.973-2.836c-0.063-2.292-1.685-3.244-3.569-4.354l-0.46-0.272c-3.15-1.884-5.997-4.238-8.446-7.001  l-0.523-0.597c-1.831-2.083-3.045-3.464-5.777-3.495c-0.031,0-0.052,0-0.084,0c-4.343,0-8.341,3.213-11.857,6.049  c-0.691,0.544-1.36,1.088-2.02,1.591c-0.795,0.617-1.643,1.203-2.533,1.821c-3.82,2.658-7.765,5.4-7.744,9.9  c0.021,4.647,2.24,9.743,4.396,14.673c1.465,3.37,2.857,6.541,3.632,9.649c2.888,11.596,2.438,27.095,0.555,35.781  c-0.094,0.429,0.01,0.879,0.293,1.224C26.851,94.791,27.28,95,27.741,95h36.367c0.44,0,0.837-0.178,1.12-0.492  c0.293-0.324,0.419-0.733,0.377-1.162c-0.419-3.924-0.816-11.407,0-16.713c-1.015,0.293-1.978,0.44-2.888,0.44  c-1.57,0-3.024-0.377-4.521-0.952c-0.544-0.209-0.816-0.806-0.607-1.35c0.199-0.544,0.806-0.806,1.35-0.607  c2.637,1.005,4.793,1.277,8.048-0.293c1.455-0.691,2.072-1.497,4.835-5.683c2.742-4.165,4.908-9.607,6.342-13.218  c0.628-1.591,1.12-2.847,1.497-3.548c0.147-0.272,0.304-0.544,0.461-0.837c0.23-0.419,0.471-0.869,0.701-1.308  c-3.192,2.752-7.964,5.672-9.503,6.133C71.235,55.441,71.13,55.472,71.005,55.514z"></path><path d="M80.497,36.414c-1.308-1.79-2.187-2.083-2.711-2.187c-0.712,1.026-1.748,2.03-2.711,2.941  c-0.481,0.46-0.942,0.9-1.256,1.256c-1.141,1.266-2.323,2.522-3.516,3.757c-2.219,2.459-3.443,3.778-4.908,4.762  c-0.377,0.251-0.712,0.46-1.015,0.649c-0.89,0.544-1.13,0.722-1.235,1.078c-0.157,0.502-0.042,1.434,1.371,3.004  c0.115,0.136,0.188,0.22,0.209,0.262c0.921,1.381,2.02,2.051,3.38,2.051c0.869,0,1.654-0.262,2.24-0.46  c0.136-0.042,0.262-0.084,0.366-0.115c0.837-0.251,3.276-1.674,5.662-3.349c2.397-1.674,4.73-3.6,5.379-4.835  c0.031-0.167,0.094-0.324,0.188-0.46c0.377-1.099,0.471-2.868,0.241-4.793C82.046,38.801,81.993,38.445,80.497,36.414z"></path></svg>