<svg xmlns="http://www.w3.org/2000/svg" xmlns:xlink="http://www.w3.org/1999/xlink" version="1.1" x="0px" y="0px" viewBox="0 0 75 75" enable-background="new 0 0 75 75" xml:space="preserve"><path fill="#000000" d="M65.316,32.409c-1.01-6.146-4.104-9.139-6.397-10.547l-0.344-0.053c0,0-4.75-1.731-8.698,7.13  c3.146,2.645,3.688,8.481,2.465,13.302c-1.598,6.287-8.783,9.903-8.783,9.903l-2.093-2.162l-6.277,15.482h17.575l-2.093-2.929  c0,0,6.974-4.741,10.043-8.647C63.782,49.982,66.99,42.591,65.316,32.409z"></path><g><path fill="#000000" d="M25.705,47.82c-12.972-16.458,6.416-25.175,6.416-25.175l1.673,2.511l6.138-15.622H22.356l2.371,2.929   c-3.208,1.325-7.74,5.788-7.74,5.788s-9.066,9.206-7.603,22.387c1.465,13.181,9.485,14.087,9.485,14.087l15.761-0.418   C30.655,54.028,25.705,47.82,25.705,47.82z"></path><path fill="#000000" d="M40.628,20.693c-4.462,0.418-6.555,6.974-6.555,6.974c-3.216,10.4-5.699,15.921-6.938,18.36l-0.209,0.435   c2.817,3.979,5.87,5.934,9.177,7.027c2.25,0.167,5.572-8.527,5.572-8.527c2.813-7.346,4.209-10.6,6.696-16.946   c0.403-1.016,2.365-6.969,6.763-7.36C52.199,20.562,44.233,20.355,40.628,20.693z"></path></g></svg>