<svg xmlns="http://www.w3.org/2000/svg" xmlns:xlink="http://www.w3.org/1999/xlink" version="1.1" x="0px" y="0px" viewBox="0 0 29 30" xml:space="preserve"><g transform="translate(-270 -200)"><g xmlns="http://www.w3.org/2000/svg" xmlns:xlink="http://www.w3.org/1999/xlink"><path d="M292,215c0-0.948-0.191-1.851-0.532-2.675l3.756-1.878l-0.447-0.895l-3.761,1.88c-0.818-1.377-2.093-2.446-3.618-3.003    l2.084-7.293l-0.962-0.275l-2.082,7.287C285.973,208.052,285.493,208,285,208c-1.753,0-3.351,0.649-4.579,1.714l-8.067-8.067    l-0.707,0.707l8.067,8.067C278.649,211.649,278,213.247,278,215c0,1.56,0.516,2.995,1.379,4.159l-3.704,3.175l0.65,0.76l3.7-3.171    c1.269,1.282,3.028,2.078,4.975,2.078c0.651,0,1.278-0.096,1.876-0.262l2.654,7.43l0.941-0.336l-2.652-7.427    c1.22-0.538,2.26-1.411,2.996-2.507l7.938,4.536l0.496-0.869l-7.944-4.539C291.746,217.11,292,216.086,292,215z M291,215    c0,0.904-0.207,1.759-0.567,2.529l-4.374-2.499l4.508-2.254C290.844,213.464,291,214.214,291,215z M290.117,211.883l-4.324,2.162    l1.329-4.65C288.375,209.871,289.426,210.753,290.117,211.883z M285,209c0.397,0,0.785,0.041,1.161,0.115l-1.409,4.931    l-3.623-3.623C282.176,209.537,283.526,209,285,209z M279,215c0-1.474,0.537-2.824,1.423-3.87l3.842,3.842l-4.123,3.534    C279.426,217.518,279,216.309,279,215z M285,221c-1.64,0-3.127-0.663-4.211-1.732l3.984-3.415l1.764,4.94    C286.046,220.924,285.532,221,285,221z M287.48,220.457l-1.554-4.352l4.014,2.294C289.324,219.289,288.474,220.003,287.48,220.457    z"></path><rect x="295.823" y="208.25" transform="matrix(0.8944 -0.4473 0.4473 0.8944 -61.9514 155.1079)" width="3.354" height="1"></rect><rect x="270.445" y="225" transform="matrix(0.7597 -0.6503 0.6503 0.7597 -81.0946 231.5661)" width="4.61" height="1"></rect></g></g></svg>