<svg xmlns="http://www.w3.org/2000/svg" xmlns:xlink="http://www.w3.org/1999/xlink" version="1.1" x="0px" y="0px" viewBox="0 0 66 66" enable-background="new 0 0 66 66" xml:space="preserve"><g><g><path d="M41,10.6l-2.5,0.9v4.7c5.7,10.7,4.6,7.5,4.7,11.9h15.5l2.2-8.1V6.6c0-0.8-0.6-1.4-1.4-1.4c-0.8,0-1.4,0.6-1.4,1.4v3.7    c0,0.6-0.5,1.1-1.1,1.1c-0.6,0-1.1-0.5-1.1-1.1c0-0.7,0-5.2,0-5c0-0.8-0.6-1.4-1.4-1.4c-0.8,0-1.4,0.6-1.4,1.4v5    c0,0.6-0.5,1.1-1.1,1.1c-0.6,0-1.1-0.5-1.1-1.1c0-0.3,0-7.9,0-7.4c0-0.8-0.6-1.4-1.4-1.4c-0.8,0-1.4,0.6-1.4,1.4    c0,0.2,0,7.5,0,7.4c0,0.6-0.5,1.1-1.1,1.1c-0.6,0-1.1-0.5-1.1-1.1v-5C46,4.6,45.3,4,44.6,4c-0.8,0-1.4,0.6-1.4,1.4v9.9    c0,0.6-0.5,1.1-1.1,1.1c-0.6,0-1.1-0.5-1.1-1.1V10.6z"></path></g><g><path d="M36.5,17.1c-0.1-0.2-0.1-0.3-0.1-0.5v-5.8c0-0.5,0.3-0.9,0.7-1l4-1.4V5.9h-9.7v17.5c0,0,0,0,0,0c0,0,0,0,0,0v0.1h8.7    L36.5,17.1z"></path></g><g><path d="M24.2,3.3V1.5H6.5v1C24.2,2.5,20.3,2.2,24.2,3.3z"></path></g><g><path d="M62.9,20.5l-0.8,3h3.4l0-17.7h-2.6C62.9,6.1,63,6.4,63,6.6v13.6C63,20.3,63,20.4,62.9,20.5z"></path></g><g><polygon points="41.9,63.3 48.3,63.3 41.9,59.9   "></polygon></g><g><polygon points="57.3,63.3 59.6,63.3 59.6,59.6 58.6,59.6   "></polygon></g><g><path d="M27.5,44.2c0,0.1,0,0.2,0,0.3v14.2h8.1V41h-9L27.5,44.2z"></path></g><g><path d="M64.1,49.7c-0.2,0-7.5,0-7.4,0c-0.6,0-1.1-0.5-1.1-1.1c0-0.6,0.5-1.1,1.1-1.1h5c0.8,0,1.4-0.6,1.4-1.4    c0-0.8-0.6-1.4-1.4-1.4c-0.1,0-5.2,0-5,0c-0.6,0-1.1-0.5-1.1-1.1s0.5-1.1,1.1-1.1h3.7c0.8,0,1.4-0.6,1.4-1.4    c0-0.8-0.6-1.4-1.4-1.4H46.9L37.8,42v15.4c6.2,0.1,1.9-1,12.9,4.7h4.8l0.9-2.5h-4.7c-0.6,0-1.1-0.5-1.1-1.1s0.5-1.1,1.1-1.1h9.9    c0.8,0,1.4-0.6,1.4-1.4c0-0.8-0.6-1.4-1.4-1.4h-5c-0.6,0-1.1-0.5-1.1-1.1s0.5-1.1,1.1-1.1c0.3,0,7.9,0,7.4,0    c0.8,0,1.4-0.6,1.4-1.4C65.5,50.3,64.9,49.7,64.1,49.7z"></path></g><g><path d="M29.1,6.9l-3.7-1c-0.2,0-0.5,0-0.8-0.2l-3.5-1H6.4C5.6,4.6,5,5.3,5,6c0,0.8,0.6,1.4,1.4,1.4h5c0.6,0,1.1,0.5,1.1,1.1    s-0.5,1.1-1.1,1.1c-0.2,0-6.5,0-6.2,0c-0.8,0-1.4,0.6-1.4,1.4c0,0.8,0.6,1.4,1.4,1.4h6.2c0.6,0,1.1,0.5,1.1,1.1    c0,0.6-0.5,1.1-1.1,1.1c-0.3,0-9.2,0-8.7,0c-0.8,0-1.4,0.6-1.4,1.4c0,0.8,0.6,1.4,1.4,1.4c2.3,0,8.8,0,8.7,0    c0.6,0,1.1,0.5,1.1,1.1c0,0.6-0.5,1.1-1.1,1.1H5.1c-0.8,0-1.4,0.6-1.4,1.4c0,0.8,0.6,1.4,1.4,1.4h11.1c0.6,0,1.1,0.5,1.1,1.1    c0,0.6-0.5,1.1-1.1,1.1h-4.7l0.9,2.5h4.8c8.8-4.7,8.5-4.7,9-4.7h2.9V6.9z"></path></g><g><path d="M0.9,54v-5.8c0-0.2,0-0.4,0.1-0.5L4.6,41H0.5v17.7h5.1v-2.3l-4-1.4C1.2,54.8,0.9,54.4,0.9,54z"></path></g><g><path d="M7.7,36.6c-0.1,4.8,1,0.9-4.7,11.9v4.7l2.5,0.9v-4.7c0-0.6,0.5-1.1,1.1-1.1s1.1,0.5,1.1,1.1v11.1c0,0.8,0.6,1.4,1.4,1.4    c0.8,0,1.4-0.6,1.4-1.4v-6.2c0-0.6,0.5-1.1,1.1-1.1s1.1,0.5,1.1,1.1c0,0.3,0,9.2,0,8.7c0,0.8,0.6,1.4,1.4,1.4    c0.8,0,1.4-0.6,1.4-1.4c0-2.3,0-8.8,0-8.7c0-0.6,0.5-1.1,1.1-1.1c0.6,0,1.1,0.5,1.1,1.1v6.2c0,0.8,0.6,1.4,1.4,1.4    c0.8,0,1.4-0.6,1.4-1.4c0-0.2,0-6.5,0-6.2c0-0.6,0.5-1.1,1.1-1.1c0.6,0,1.1,0.5,1.1,1.1v5c0,0.8,0.6,1.4,1.4,1.4    c0.8,0,1.4-0.6,1.4-1.4V44.7l-2.2-8.1H7.7z"></path></g><g><path d="M59.4,30.3H41.9v8.5c6.2-1.5,2-1.2,17.7-1.1v-7.3H59.4C59.4,30.3,59.4,30.3,59.4,30.3C59.4,30.3,59.4,30.3,59.4,30.3z"></path></g><g><path d="M24.2,25.7c-6.5,3.4-6.2,3.4-6.6,3.4h-5.8c-0.5,0-0.9-0.3-1-0.7l-1.4-4H6.5v10h17.7V25.7z"></path></g></g></svg>