<svg xmlns="http://www.w3.org/2000/svg" xmlns:xlink="http://www.w3.org/1999/xlink" version="1.1" x="0px" y="0px" viewBox="0 0 64 64" enable-background="new 0 0 64 64" xml:space="preserve"><g><path d="M12.977,26.705H2.568c-0.972,0-1.735,0.763-1.735,1.735v27.757c0,0.972,0.763,1.735,1.735,1.735h10.409   c0.972,0,1.734-0.763,1.734-1.735V28.44C14.712,27.468,13.949,26.705,12.977,26.705z"></path><path d="M63.167,29.993c0-2.827-1.941-5.688-5.648-5.688H40.712c2.401-4.295,3.107-10.336,1.438-14.756   c-1.226-3.251-3.569-5.148-6.601-5.341L35.5,4.204c-1.973-0.121-3.681,1.357-3.845,3.327c-0.432,4.384-2.353,12.138-5.106,14.891   c-2.318,2.318-4.302,3.289-7.591,4.897c-0.476,0.233-0.996,0.487-1.546,0.761c0.01,0.119,0.016,0.238,0.016,0.36v27.474   c0.397,0.136,0.789,0.271,1.174,0.403c5.428,1.871,10.119,3.486,17.289,3.486h13.588c3.708,0,5.648-2.862,5.648-5.688   c0-0.839-0.17-1.68-0.507-2.45c1.235-0.222,2.316-0.816,3.117-1.725c0.909-1.033,1.41-2.406,1.41-3.866   c0-0.836-0.17-1.677-0.506-2.445c2.977-0.514,4.527-3.069,4.527-5.595c0-1.465-0.522-2.94-1.54-4.02   C62.644,32.933,63.167,31.458,63.167,29.993z"></path></g></svg>