<?xml version="1.0" encoding="UTF-8"?><svg id="Layer_2" xmlns="http://www.w3.org/2000/svg" viewBox="0 0 428.89 104.43"><defs><style>.cls-1,.cls-2{fill:#0c1c2c;}.cls-3{opacity:.65;}.cls-4{opacity:.5;}.cls-5{opacity:.8;}.cls-2{fill-rule:evenodd;}</style></defs><g id="InternetSociety_Foundation_Logo_Primary_GroundNavy_RGB"><path class="cls-2" d="m353.25,31.63c-1.52,1.8-3.33,2.68-5.34,2.68-3.82,0-6.5-2.7-6.5-6.54s2.68-6.53,6.25-6.53c2.38,0,4.07,1.35,5.09,2.59.31.37.83.45,1.18.14l2.24-1.91c.37-.32.45-.89.14-1.26-2.18-2.7-5.37-4.19-8.66-4.19-6.3,0-11.04,4.79-11.04,11.16s4.85,11.16,11.29,11.16c3.56,0,7.15-1.74,9.11-4.54.28-.4.15-.96-.23-1.25l-2.3-1.68c-.38-.28-.9-.2-1.24.17Z"/><path class="cls-2" d="m361.25,38.49h3.06c.47,0,.86-.39.86-.87v-19.71c0-.48-.39-.86-.86-.86h-3.06c-.49,0-.89.38-.89.86v19.71c0,.49.39.87.89.87Z"/><path class="cls-2" d="m407.32,17.79l8.61,18.22-5.33,12.32c-.2.44.04.8.51.8h3.39c.48,0,1.03-.36,1.23-.8l13.08-30.49c.21-.44-.03-.79-.52-.79h-3.34c-.49,0-1.02.35-1.22.79l-5.34,12.45-5.86-12.47c-.2-.42-.76-.78-1.24-.78h-3.52c-.45,0-.65.34-.46.74Z"/><path class="cls-2" d="m301.18,21.45c-2.78-1.19-5.23-2.16-5.23-4.39s2.06-3.58,4.25-3.58c1.51,0,3.02.52,4.47,1.46.37.24.83.24,1.12-.11l1.75-2.2c.28-.35.23-.87-.12-1.14-2.29-1.78-4.76-2.6-7.39-2.6-4.97,0-8.86,3.46-8.86,7.9,0,2.7,1.25,4.89,3.73,6.55,1.22.81,2.64,1.41,4.01,1.97,2.88,1.2,5.39,2.35,5.39,5.14,0,2.29-1.78,3.8-4.43,3.8-2.79,0-4.82-1.47-6.36-3.01-.32-.31-.77-.36-1.1-.04l-2.06,2.07c-.33.31-.35.85-.05,1.19,2.63,2.97,6.08,4.47,9.79,4.47,5.25,0,9.06-3.6,9.06-8.59,0-2.82-1.14-5.1-3.67-6.8-1.22-.83-2.84-1.47-4.28-2.09Z"/><path class="cls-2" d="m403.34,34.26c-.31.02-.62.05-.88.05-1.07,0-2.11-.4-2.59-.99-.45-.52-.53-1.36-.53-2.44v-9.42h4.81c.44-.01.96-.2.8-.83l-.91-2.78c-.09-.33-.37-.81-.96-.81h-3.75v-4.88c0-.48-.4-.87-.87-.87h-3.07c-.48,0-.87.39-.87.87v4.88h-3.47c-.75,0-.99.36-.87.87.12.51.45,2.68.45,2.68.1.38.39.87.87.87h3.02v9.19c0,2.56.58,4.44,1.75,5.76,1.45,1.66,3.54,2.55,6.06,2.55.3,0,.63,0,.95-.04.48-.02.87-.48.87-.96l.03-2.93c0-.47-.37-.8-.86-.77Z"/><path class="cls-2" d="m362.57,8.14c-1.67,0-2.98,1.35-2.98,3.07s1.31,3.04,2.98,3.04,3.04-1.34,3.04-3.04-1.37-3.07-3.04-3.07Z"/><path class="cls-2" d="m322.94,16.6c-6.24,0-10.94,4.79-10.94,11.16s4.71,11.16,10.94,11.16,10.96-4.79,10.96-11.16-4.71-11.16-10.96-11.16Zm0,17.7c-3.49,0-6.13-2.81-6.13-6.53s2.64-6.54,6.13-6.54,6.15,2.82,6.15,6.54-2.63,6.53-6.15,6.53Z"/><path class="cls-2" d="m378.95,16.6c-5.98,0-10.33,4.69-10.33,11.16s4.71,11.17,10.95,11.17c4.53,0,7.17-2.09,8.54-3.59.32-.35.28-.93-.07-1.27l-1.9-1.85c-.35-.33-.88-.31-1.22.05-1.28,1.32-2.84,2.32-5.29,2.32-3.22,0-5.92-2.43-6.29-5.62h14.9c.48,0,.91-.27.92-.6.01-.28.01-.51.01-.61,0-6.38-4.38-11.16-10.21-11.16Zm-5.68,8.56c.86-2.53,3.22-4.24,5.89-4.24,2.44,0,4.73,1.78,5.49,4.24h-11.38Z"/><path class="cls-2" d="m136.19,34.94v2.68c0,.49-.39.88-.87.88h-12.25c-.48,0-.87-.39-.87-.88v-2.68c0-.49.39-.89.87-.89h3.74V13.49h-3.58c-.49,0-.89-.39-.89-.88v-2.69c0-.49.4-.88.89-.88h11.87c.47,0,.86.39.86.88v2.69c0,.49-.38.88-.86.88h-3.51v20.57h3.72c.49,0,.87.4.87.89Z"/><path class="cls-2" d="m154.71,27.78v9.85c0,.49.39.88.87.88h3.07c.48,0,.87-.39.87-.88v-9.63c0-3.46-.64-5.74-2.09-7.6-1.86-2.41-4.24-3.8-7.28-3.8-2.81,0-4.3,1.2-5.39,2.04v-.8c0-.44-.4-.79-.87-.79h-2.93c-.49,0-.87.38-.87.87v19.72c0,.49.38.88.87.88h3.06c.48,0,.87-.39.87-.88v-13.62c1.07-1.29,2.45-2.77,5.14-2.77,1.57,0,2.65.68,3.53,1.93.67.92,1.16,1.82,1.16,4.62Z"/><path class="cls-2" d="m173.98,34.26c-.32.03-.63.05-.88.05-1.07,0-2.11-.4-2.59-.99-.45-.52-.53-1.36-.53-2.44v-9.42h4.14c.48,0,.87-.39.87-.87l.61-2.68c0-.49-.39-.87-.87-.87h-4.75v-4.88c0-.48-.4-.88-.88-.88h-3.07c-.48,0-.87.39-.87.88v4.88h-3.47c-.74,0-.99.36-.87.87.12.52.45,2.68.45,2.68.1.38.39.87.87.87h3.01v9.19c0,2.56.58,4.44,1.75,5.76,1.45,1.66,3.54,2.55,6.06,2.55.3,0,.63-.01.94-.05.48-.02.87-.48.88-.95l.03-2.93c0-.48-.37-.8-.85-.77Z"/><path class="cls-2" d="m212.53,16.62c-.26,0-.51-.02-.72-.02-2.65,0-4.66,1.07-5.83,2.28v-.97c0-.49-.39-.87-.87-.87h-2.93c-.49,0-.87.38-.87.87v19.72c0,.49.39.88.87.88h3.06c.48,0,.87-.39.87-.88v-13.14c1.14-1.91,3.27-3.25,5.24-3.25.35,0,.71.03,1.06.07.46.06.84-.19.84-.68v-3.05c0-.49-.31-.92-.71-.95Z"/><path class="cls-2" d="m226.46,21.23c1.56,0,2.62.71,3.54,1.93.61.79,1.15,1.82,1.15,4.62v9.85c0,.49.39.88.86.88h3.08c.49,0,.86-.39.86-.88v-9.63c0-3.46-.46-5.9-1.9-7.77-1.87-2.42-4.37-3.59-7.43-3.59-2.8,0-4.37,1.16-5.43,2v-.8c0-.44-.38-.79-.88-.79h-2.93c-.49,0-.87.38-.87.87v19.72c0,.49.38.88.87.88h3.07c.48,0,.87-.39.87-.88v-13.62c1.08-1.29,2.45-2.77,5.14-2.77Z"/><path class="cls-2" d="m273.85,34.26c-.31.03-.62.05-.88.05-1.07,0-2.11-.4-2.59-.99-.45-.52-.53-1.36-.53-2.44v-9.42h4c.49,0,.86-.39.86-.87v-2.68c0-.49-.37-.87-.86-.87h-4v-4.88c0-.48-.4-.88-.88-.88h-3.07c-.48,0-.87.39-.87.88v4.88h-3.47c-.75,0-.99.36-.87.87.12.52.45,2.68.45,2.68.1.38.39.87.87.87h3.02v9.19c0,2.56.58,4.44,1.75,5.76,1.45,1.66,3.54,2.55,6.06,2.55.3,0,.63-.01.95-.05.48-.02.87-.48.88-.95l.03-2.93c0-.48-.37-.8-.85-.77Z"/><path class="cls-2" d="m187.69,16.6c-5.99,0-10.34,4.71-10.34,11.18s4.72,11.17,10.96,11.17c4.53,0,7.17-2.1,8.52-3.59.33-.36.29-.93-.06-1.28l-1.91-1.84c-.34-.35-.89-.31-1.21.04-1.28,1.33-2.83,2.33-5.29,2.33-3.22,0-5.92-2.45-6.29-5.63h14.89c.48,0,.89-.26.93-.6,0-.27,0-.51,0-.61,0-6.38-4.39-11.18-10.2-11.18Zm-5.68,8.57c.86-2.52,3.2-4.24,5.87-4.24,2.45,0,4.72,1.79,5.49,4.24h-11.37Z"/><path class="cls-2" d="m249.45,16.6c-5.98,0-10.33,4.71-10.33,11.18s4.7,11.17,10.94,11.17c4.53,0,7.17-2.1,8.55-3.59.3-.36.27-.93-.08-1.28l-1.9-1.84c-.35-.35-.89-.31-1.22.04-1.28,1.33-2.84,2.33-5.3,2.33-3.21,0-5.91-2.45-6.28-5.63h14.89c.49,0,.9-.26.92-.6.01-.27.03-.51.03-.61,0-6.38-4.39-11.18-10.21-11.18Zm-5.69,8.57c.87-2.52,3.22-4.24,5.88-4.24,2.45,0,4.73,1.79,5.5,4.24h-11.38Z"/><path class="cls-1" d="m288.3,91.03h-3.28v-40.07c0-.48-.39-.87-.87-.87h-6.99c-.48,0-.87.39-.87.87v2.65c0,.48.39.87.87.87h3.13v13.93c-2.71-2.43-6.25-3.78-9.97-3.78-3.46,0-6.96,1.23-9.59,3.38-3.56,3.02-5.61,7.51-5.61,12.33,0,5.33,2.34,10.02,6.41,12.87,2.65,1.88,5.67,2.84,8.98,2.84,3.86,0,7.47-1.45,9.91-3.97v2.47c0,.48.39.87.87.87h7.01c.48,0,.87-.39.87-.87v-2.65c0-.48-.39-.87-.87-.87Zm-8-5.73c0,.16-.04.33-.13.46-2.23,3.61-5.86,5.76-9.71,5.76-2.16,0-4.26-.7-6.25-2.07-2.73-1.92-4.36-5.33-4.36-9.11,0-3.57,1.41-6.79,3.88-8.82,1.85-1.5,4.28-2.36,6.67-2.36,5,0,8.6,3.47,9.8,5.3.07.11.11.24.11.37v10.46Z"/><path class="cls-1" d="m142.38,68.09h-11.46v-13.61h19.53c.48,0,.87-.39.87-.87v-2.65c0-.48-.39-.87-.87-.87h-27.16c-.48,0-.87.39-.87.87v2.65c0,.48.39.87.87.87h2.93v36.55h-2.93c-.48,0-.87.39-.87.87v2.65c0,.48.39.87.87.87h10.6c.48,0,.87-.39.87-.87v-2.65c0-.48-.39-.87-.87-.87h-2.97v-18.56h11.46c.48,0,.87-.39.87-.87v-2.65c0-.48-.39-.87-.87-.87Z"/><path class="cls-1" d="m162.16,64.63c-8.77,0-15.38,6.74-15.38,15.69s6.61,15.68,15.38,15.68,15.41-6.74,15.41-15.68-6.63-15.69-15.41-15.69Zm0,27.01c-6.04,0-10.6-4.87-10.6-11.33s4.56-11.33,10.6-11.33,10.64,4.87,10.64,11.33-4.57,11.33-10.64,11.33Z"/><path class="cls-1" d="m376.5,64.63c-8.77,0-15.38,6.74-15.38,15.69s6.61,15.68,15.38,15.68,15.41-6.74,15.41-15.68-6.63-15.69-15.41-15.69Zm0,27.01c-6.04,0-10.6-4.87-10.6-11.33s4.56-11.33,10.6-11.33,10.64,4.87,10.64,11.33-4.57,11.33-10.64,11.33Z"/><path class="cls-1" d="m252.67,91.03h-2.96v-11.64c0-5.15-1.04-7.57-2.59-9.63-2.41-3.26-6.33-5.13-10.76-5.13-3.8,0-7.33,1.38-9.72,3.8v-2.3c0-.48-.39-.87-.87-.87h-6.68c-.48,0-.87.39-.87.87v2.65c0,.48.39.87.87.87h2.95v21.38h-2.95c-.48,0-.87.39-.87.87v2.65c0,.48.39.87.87.87h10.8c.48,0,.87-.39.87-.87v-2.65c0-.48-.39-.87-.87-.87h-3.13v-15.96c0-.16.04-.33.13-.47,2.16-3.46,5.58-5.44,9.39-5.44,2.95,0,5.55,1.33,7.14,3.65.81,1.17,1.56,2.8,1.56,6.83v11.39h-3.12c-.48,0-.87.39-.87.87v2.65c0,.48.39.87.87.87h10.8c.48,0,.87-.39.87-.87v-2.65c0-.48-.39-.87-.87-.87Z"/><path class="cls-1" d="m352.12,59.27c1.98,0,3.59-1.58,3.59-3.53s-1.61-3.59-3.59-3.59-3.53,1.61-3.53,3.59,1.55,3.53,3.53,3.53Z"/><path class="cls-1" d="m359.68,91.03h-4.3v-24.89c0-.48-.39-.87-.87-.87h-6.99c-.48,0-.87.39-.87.87v2.65c0,.48.39.87.87.87h3.13v21.38h-3.27c-.48,0-.87.39-.87.87v2.65c0,.48.39.87.87.87h12.29c.48,0,.87-.39.87-.87v-2.65c0-.48-.39-.87-.87-.87Z"/><path class="cls-1" d="m213.91,91.03h-3.27v-24.89c0-.48-.39-.87-.87-.87h-2.06s-.05,0-.09,0h-.07s-.08,0-.12,0h-5.68c-.48,0-.87.39-.87.87v2.65c0,.48.39.87.87.87h4.16v16c0,.15-.04.29-.11.42-1.88,3.31-5.43,5.45-9.04,5.45-2.85,0-5.36-1.31-6.88-3.58-.94-1.41-1.57-3.18-1.57-7.22v-14.59c0-.48-.39-.87-.87-.87h-7.75c-.48,0-.87.39-.87.87v2.65c0,.48.39.87.87.87h3.9v11.64c0,3.66.54,6.2,1.79,8.49,2.23,3.92,6.48,6.26,11.37,6.26,3.46,0,6.92-1.38,9.27-3.7v2.19c0,.48.39.87.87.87h6.99c.48,0,.87-.39.87-.87v-2.65c0-.48-.39-.87-.87-.87Z"/><path class="cls-1" d="m323.59,91.03h-3.26v-24.89c0-.48-.39-.87-.87-.87h-2.86c-.48,0-.87.39-.87.87v2.37c-2.67-2.46-6.34-3.87-10.1-3.87-3.46,0-6.96,1.23-9.59,3.38-3.56,3.02-5.61,7.51-5.61,12.33,0,5.33,2.34,10.02,6.41,12.87,2.65,1.88,5.67,2.84,8.98,2.84,3.86,0,7.47-1.45,9.91-3.97v2.47c0,.48.39.87.87.87h6.99c.48,0,.87-.39.87-.87v-2.65c0-.48-.39-.87-.87-.87Zm-7.98-5.73c0,.16-.04.33-.13.46-2.23,3.61-5.86,5.76-9.71,5.76-2.16,0-4.26-.7-6.25-2.07-2.73-1.92-4.36-5.33-4.36-9.11,0-3.57,1.41-6.79,3.88-8.82,1.85-1.5,4.28-2.36,6.67-2.36,4.32,0,8.09,2.73,9.78,5.27.08.13.13.28.13.45v10.42Z"/><path class="cls-1" d="m341.55,91.02h-.82c-1.83-.06-3.6-.82-4.52-1.93-.97-1.12-1.05-2.76-1.05-4.35v-15.09h5.52c.48,0,.87-.39.87-.87v-2.65c0-.48-.39-.87-.87-.87h-5.52v-6.75c0-.48-.39-.87-.87-.87h-2.96c-.48,0-.87.39-.87.87v6.75h-4.41c-.48,0-.87.39-.87.87v2.65c0,.48.39.87.87.87h4.41v14.75c0,3.45.74,5.96,2.27,7.7,1.74,1.98,4.23,3.12,7.19,3.31h.07s1.49,0,1.49,0h0c.24,0,.47-.09.64-.27.17-.17.27-.4.27-.64v-2.61c0-.48-.39-.87-.86-.87Z"/><path class="cls-1" d="m428.02,91.03h-2.96v-11.64c0-5.15-1.04-7.58-2.59-9.63-2.41-3.26-6.33-5.13-10.76-5.13-3.8,0-7.33,1.38-9.72,3.8v-2.3c0-.48-.39-.87-.87-.87h-6.68c-.48,0-.87.39-.87.87v2.65c0,.48.39.87.87.87h2.95v21.38h-2.95c-.48,0-.87.39-.87.87v2.65c0,.48.39.87.87.87h10.8c.48,0,.87-.39.87-.87v-2.65c0-.48-.39-.87-.87-.87h-3.13v-15.96c0-.16.04-.33.13-.47,2.16-3.46,5.58-5.44,9.39-5.44,2.95,0,5.55,1.33,7.14,3.65.81,1.16,1.56,2.8,1.56,6.83v11.39h-3.12c-.48,0-.87.39-.87.87v2.65c0,.48.39.87.87.87h10.8c.48,0,.87-.39.87-.87v-2.65c0-.48-.39-.87-.87-.87Z"/><g class="cls-4"><path class="cls-1" d="m42.81,104.33h0c-2.97-.55-4.93-3.4-4.39-6.37h0c.55-2.97,3.4-4.94,6.38-4.39h0c2.97.55,4.93,3.4,4.39,6.37h0c-.49,2.64-2.79,4.48-5.37,4.48h0c-.33,0-.66-.03-1-.09Zm12.93-4.39c-.56-2.97,1.4-5.83,4.37-6.38h0c2.97-.56,5.83,1.4,6.38,4.37h0c.55,2.97-1.4,5.83-4.37,6.38h0c-.34.06-.68.1-1.01.1h0c-2.58,0-4.88-1.84-5.37-4.47Zm-30.98-2.57h0c-2.57-1.59-3.36-4.96-1.77-7.53h0c1.59-2.57,4.96-3.36,7.53-1.78h0c2.57,1.59,3.36,4.96,1.78,7.53h0c-1.04,1.67-2.83,2.59-4.66,2.59h0c-.98,0-1.98-.27-2.87-.82Zm47.85-1.82c-1.59-2.57-.81-5.94,1.76-7.53h0c2.57-1.6,5.94-.81,7.53,1.76h0c1.59,2.57.81,5.94-1.76,7.53h0c-.9.56-1.9.82-2.88.82h0c-1.83,0-3.62-.92-4.65-2.58Zm-62.14-11.18c-1.83-2.41-1.36-5.84,1.05-7.67h0c2.41-1.83,5.84-1.36,7.67,1.05h0c1.83,2.41,1.36,5.84-1.05,7.66h0c-.99.75-2.15,1.11-3.3,1.11h0c-1.65,0-3.29-.75-4.36-2.16Zm76.28.98c-2.41-1.82-2.89-5.25-1.07-7.66h0c1.82-2.41,5.25-2.89,7.66-1.07h0c2.41,1.82,2.89,5.25,1.07,7.66h0c-1.07,1.42-2.71,2.17-4.37,2.17h0c-1.15,0-2.31-.36-3.29-1.1ZM1.83,67.08c-.83-2.91.85-5.93,3.76-6.76h0c2.91-.83,5.93.85,6.76,3.76h0c.83,2.91-.85,5.93-3.76,6.76h0c-.5.14-1.01.21-1.51.21h0c-2.38,0-4.57-1.57-5.26-3.97Zm94.45,3.67c-2.91-.82-4.6-3.85-3.77-6.76h0c.82-2.91,3.85-4.6,6.76-3.77h0c2.91.82,4.6,3.85,3.77,6.76h0c-.68,2.41-2.88,3.98-5.26,3.98h0c-.49,0-1-.07-1.5-.21ZM4.98,53.78c-3.01-.27-5.23-2.93-4.96-5.94H.02c.27-3.01,2.93-5.23,5.94-4.96h0c3.01.27,5.23,2.93,4.96,5.94h0c-.26,2.84-2.64,4.98-5.44,4.98h0c-.16,0-.33,0-.49-.02Zm88.92-5.05h0c-.28-3.01,1.94-5.67,4.95-5.95h0c3.01-.28,5.67,1.94,5.95,4.95h0c.28,3.01-1.94,5.67-4.95,5.95h0c-.17.01-.34.02-.51.02h0c-2.8,0-5.18-2.13-5.44-4.97ZM7.74,36.56c-2.71-1.34-3.81-4.63-2.47-7.33h0c1.35-2.71,4.63-3.81,7.34-2.47h0c2.71,1.34,3.81,4.63,2.47,7.33h0c-.96,1.93-2.89,3.04-4.9,3.04h0c-.82,0-1.65-.18-2.43-.57Zm81.97-2.54c-1.35-2.71-.25-5.99,2.45-7.34h0c2.7-1.35,5.99-.25,7.34,2.45h0c1.35,2.7.25,5.99-2.45,7.34h0c-.79.39-1.62.58-2.44.58h0c-2.01,0-3.94-1.11-4.9-3.03ZM16.56,21.52c-2.04-2.23-1.89-5.69.34-7.73h0c2.23-2.04,5.69-1.89,7.73.34h0c2.04,2.23,1.89,5.69-.34,7.73h0c-1.05.96-2.37,1.43-3.69,1.43h0c-1.48,0-2.96-.6-4.04-1.78Zm63.92.29c-2.23-2.04-2.39-5.5-.36-7.73h0c2.03-2.23,5.5-2.39,7.73-.36h0c2.23,2.04,2.39,5.5.36,7.73h0c-1.08,1.18-2.56,1.79-4.04,1.79h0c-1.32,0-2.64-.47-3.68-1.43ZM30.2,10.66c-1.1-2.81.29-5.99,3.11-7.08h0c2.82-1.1,5.99.29,7.09,3.11h0c1.1,2.82-.29,5.99-3.11,7.09h0c-.65.25-1.33.37-1.99.37h0c-2.19,0-4.26-1.32-5.1-3.49Zm37.27,3.08h0c-2.82-1.09-4.22-4.26-3.12-7.08h0c1.09-2.82,4.26-4.22,7.08-3.12h0c2.82,1.09,4.22,4.26,3.12,7.08h0c-.84,2.17-2.91,3.5-5.1,3.5h0c-.66,0-1.33-.12-1.98-.37Zm-20.62-8.26c0-3.02,2.44-5.48,5.46-5.48h.11c3.02,0,5.47,2.45,5.47,5.47h0c0,3.02-2.45,5.47-5.47,5.47h0s-.03,0-.05,0h0s-.03,0-.04,0h-.01c-3.02,0-5.46-2.44-5.47-5.46Z"/></g><g class="cls-3"><path class="cls-1" d="m46.98,84.68c0-3.02,2.44-5.47,5.46-5.48h0c3.02,0,5.48,2.44,5.48,5.47h0c0,3.02-2.44,5.47-5.47,5.48h0c-3.02,0-5.47-2.45-5.47-5.47Zm-13.3.46h0c-2.62-1.51-3.52-4.86-2.01-7.47h0c1.51-2.62,4.86-3.52,7.47-2.01h0c2.62,1.51,3.52,4.86,2.01,7.47h0c-1.01,1.76-2.85,2.74-4.75,2.74h0c-.93,0-1.87-.24-2.73-.73Zm30.06-2.03c-1.52-2.61-.63-5.96,1.99-7.48h0c2.61-1.52,5.96-.63,7.48,1.99h0c1.52,2.61.63,5.96-1.99,7.48h0c-.87.5-1.81.74-2.74.74h0c-1.89,0-3.72-.98-4.74-2.73Zm-43.81-11.68c-1.52-2.61-.63-5.96,1.98-7.48h0c2.61-1.52,5.96-.63,7.48,1.99h0c1.52,2.61.63,5.96-1.98,7.48h0c-.87.5-1.81.74-2.74.74h0c-1.89,0-3.72-.98-4.74-2.73Zm57.54,1.93c-2.62-1.51-3.51-4.86-2-7.47h0c1.51-2.62,4.86-3.51,7.48-2h0c2.62,1.51,3.51,4.86,2,7.48h0c-1.01,1.75-2.85,2.74-4.74,2.74h0c-.93,0-1.87-.24-2.73-.74ZM14.88,52.67c0-3.02,2.44-5.48,5.46-5.48h0c3.02,0,5.48,2.44,5.48,5.46h0c0,3.02-2.44,5.48-5.46,5.48h-.01c-3.02,0-5.47-2.44-5.47-5.46Zm64.14-.08c0-3.02,2.45-5.47,5.47-5.47h0c3.02,0,5.47,2.45,5.47,5.47h0c0,3.02-2.45,5.47-5.47,5.48h0c-3.02,0-5.47-2.45-5.48-5.47Zm-57.13-11.23c-2.62-1.51-3.52-4.85-2.01-7.47h0c1.51-2.62,4.85-3.52,7.47-2.01h0c2.62,1.51,3.52,4.85,2.01,7.47h0c-1.01,1.76-2.85,2.74-4.75,2.74h0c-.93,0-1.86-.24-2.73-.73Zm53.57-2.06c-1.51-2.62-.62-5.96,1.99-7.48h0c2.61-1.51,5.96-.62,7.48,1.99h0c1.51,2.62.62,5.96-1.99,7.48h0c-.86.5-1.81.74-2.74.74h0c-1.89,0-3.73-.98-4.74-2.73Zm-43.86-11.69c-1.52-2.61-.63-5.96,1.98-7.48h0c2.61-1.52,5.96-.63,7.48,1.98h0c1.52,2.61.63,5.96-1.98,7.48h0c-.87.5-1.81.74-2.74.74h0c-1.89,0-3.72-.97-4.74-2.72Zm34.12,1.95c-2.62-1.51-3.51-4.86-2-7.48h0c1.51-2.62,4.86-3.51,7.48-2h0c2.62,1.51,3.51,4.86,2,7.48h0c-1.01,1.75-2.85,2.73-4.74,2.73h0c-.93,0-1.87-.24-2.73-.74Zm-18.84-9.01c0-3.02,2.44-5.48,5.46-5.48h0,.09c3.02,0,5.47,2.45,5.47,5.47h0c0,3.02-2.44,5.47-5.46,5.47h-.08c-3.02,0-5.47-2.44-5.47-5.46Z"/></g><g class="cls-5"><path class="cls-1" d="m46.96,69.61c0-3.02,2.44-5.47,5.47-5.48h0c3.02,0,5.47,2.44,5.48,5.47h0c0,3.02-2.44,5.48-5.47,5.48h0c-3.02,0-5.47-2.44-5.47-5.47Zm-13.99-5.73c-1.52-2.61-.63-5.96,1.98-7.48h0c2.61-1.52,5.96-.63,7.48,1.99h0c1.52,2.61.63,5.96-1.98,7.48h0c-.87.5-1.81.74-2.74.74h0c-1.88,0-3.72-.98-4.74-2.73Zm31.44,1.96c-2.62-1.51-3.51-4.86-2-7.48h0c1.51-2.62,4.86-3.51,7.48-2h0c2.62,1.51,3.51,4.86,2,7.48h0c-1.01,1.75-2.85,2.74-4.74,2.74h0c-.93,0-1.87-.24-2.73-.73Zm-29.47-16.96c-2.62-1.51-3.52-4.85-2.01-7.47h0c1.51-2.62,4.85-3.52,7.47-2.01h0c2.62,1.51,3.52,4.85,2.01,7.47h0c-1.01,1.76-2.85,2.74-4.75,2.74h0c-.93,0-1.87-.24-2.73-.73Zm27.46-2.03c-1.52-2.62-.62-5.96,1.99-7.48h0c2.62-1.51,5.96-.62,7.48,1.99h0c1.51,2.61.62,5.96-1.99,7.48h0c-.86.5-1.81.74-2.74.74h0c-1.89,0-3.73-.98-4.74-2.73Zm-15.5-11.22c0-3.02,2.44-5.48,5.46-5.48h.05c3.02,0,5.47,2.45,5.47,5.47h0c0,3-2.41,5.43-5.41,5.47h0s-.04,0-.06,0h-.04c-3.02,0-5.46-2.44-5.47-5.46Z"/></g><path class="cls-1" d="m46.94,52.58c-.01-3.02,2.43-5.48,5.45-5.49h.06c3.01.02,5.44,2.46,5.44,5.47h0c0,3.01-2.44,5.46-5.45,5.47h-.03c-3.01,0-5.46-2.44-5.47-5.45Z"/></g></svg>