<?xml version="1.0" encoding="utf-8"?>
<svg viewBox="0 0 1500 700" width="1500" height="700" style="enable-background:new 0 0 1506.3 578.7;" xmlns="http://www.w3.org/2000/svg">
  <path class="u-fill-success" d="M 177.67 511.271 L 144.933 477.895 C 141.713 474.613 141.713 469.414 144.933 466.132 L 177.67 432.758 C 180.89 429.474 185.989 429.474 189.209 432.758 L 221.946 466.132 C 225.167 469.414 225.167 474.613 221.946 477.895 L 189.209 511.271 C 186.257 514.553 180.89 514.553 177.67 511.271 Z" style=""/>
  <circle class="u-fill-danger" cx="1209.162" cy="110.471" r="34.859" style=""/>
  <circle class="u-fill-none u-stroke-danger" stroke-width="3" stroke-miterlimit="10" cx="333.261" cy="222.266" r="25.344" style=""/>
  <path fill-rule="evenodd" d="M 49.669 -9.998 C 51.03 -13.511 54.16 -16.03 57.882 -16.608 L 92.738 -22.023 C 96.459 -22.602 100.206 -21.149 102.568 -18.217 L 124.686 9.261 C 127.047 12.196 127.665 16.166 126.305 19.679 L 113.567 52.571 C 112.206 56.084 109.075 58.604 105.354 59.184 L 70.498 64.599 C 66.777 65.177 63.029 63.727 60.668 60.791 L 38.55 33.314 C 36.189 30.378 35.571 26.408 36.931 22.895 L 49.669 -9.998 Z" style=""/>
  <path fill-rule="evenodd" d="M 1032.318 376.476 C 1033.264 374.034 1035.44 372.282 1038.028 371.88 L 1062.261 368.116 C 1064.848 367.713 1067.453 368.723 1069.095 370.762 L 1084.472 389.865 C 1086.114 391.906 1086.544 394.666 1085.598 397.108 L 1076.742 419.976 C 1075.796 422.418 1073.619 424.17 1071.032 424.574 L 1046.799 428.338 C 1044.212 428.74 1041.606 427.732 1039.965 425.691 L 1024.588 406.588 C 1022.946 404.547 1022.517 401.787 1023.462 399.344 L 1032.318 376.476 Z" style=""/>
  <path fill-rule="evenodd" d="M 1398.133 573.048 C 1401.153 565.253 1408.097 559.665 1416.356 558.382 L 1493.692 546.368 C 1501.947 545.083 1510.26 548.307 1515.501 554.813 L 1564.575 615.778 C 1569.814 622.291 1571.184 631.099 1568.168 638.893 L 1539.906 711.872 C 1536.886 719.666 1529.939 725.257 1521.683 726.544 L 1444.347 738.559 C 1436.09 739.841 1427.776 736.624 1422.537 730.11 L 1373.463 669.146 C 1368.225 662.632 1366.853 653.823 1369.871 646.028 L 1398.133 573.048 Z" style=""/>
  <path fill-rule="evenodd" d="M 270.145 676.055 C 271.091 673.613 273.267 671.861 275.855 671.459 L 300.088 667.695 C 302.675 667.292 305.28 668.302 306.922 670.341 L 322.299 689.444 C 323.941 691.485 324.371 694.245 323.425 696.687 L 314.569 719.555 C 313.623 721.997 311.446 723.749 308.859 724.153 L 284.626 727.917 C 282.039 728.319 279.433 727.311 277.792 725.27 L 262.415 706.167 C 260.773 704.126 260.344 701.366 261.289 698.923 L 270.145 676.055 Z" style=""/>
  <circle class="u-fill-none u-stroke-danger" stroke-width="3" stroke-miterlimit="10" cx="745.931" cy="688.182" r="25.344" style=""/>
  <path fill-rule="evenodd" d="M 929.895 57.225 C 930.389 55.951 931.524 55.036 932.875 54.826 L 945.523 52.862 C 946.873 52.652 948.232 53.179 949.089 54.243 L 957.115 64.213 C 957.972 65.278 958.196 66.719 957.702 67.993 L 953.08 79.928 C 952.587 81.203 951.45 82.117 950.1 82.328 L 937.453 84.293 C 936.103 84.502 934.742 83.976 933.886 82.911 L 925.86 72.941 C 925.004 71.876 924.78 70.435 925.273 69.16 L 929.895 57.225 Z" style=""/>
</svg>