<?xml version="1.0" encoding="utf-8"?>
<svg width="728" height="531" viewBox="0 0 728 531" version="1.1" xmlns="http://www.w3.org/2000/svg" xmlns:bx="https://boxy-svg.com">
  <title>Polygon</title>
  <desc>Created using Figma</desc>
  <g id="Canvas" transform="matrix(0.938431, 0.317366, 0, 0.780634, 8962.717773, 4897.463379)" fill="#510FA8">
    <g id="Polygon">
      <path id="" d="M -8562.221 -3731.042 C -8543.829 -3741.653 -8521.169 -3741.653 -8502.778 -3731.041 L -7755.72 -3299.993 C -7737.33 -3289.381 -7726 -3269.77 -7726 -3248.546 L -7726.001 -2386.449 C -7726.001 -2365.229 -7737.331 -2345.619 -7755.721 -2335.009 L -8490.056 -1916.348 C -8508.446 -1905.738 -8543.832 -1893.35 -8562.223 -1903.96 L -9309.279 -2335.011 C -9327.671 -2345.621 -9339.001 -2365.231 -9339.001 -2386.451 L -9339 -3248.548 C -9339 -3269.772 -9327.67 -3289.383 -9309.278 -3299.995 L -8562.221 -3731.042 Z"/>
    </g>
  </g>
  <defs>
    <path id="path0_fill" d="M 776.779 7.95886C 795.17 -2.65295 817.83 -2.65295 836.221 7.95886L 1583.28 439.006C 1601.67 449.618 1613 469.229 1613 490.453L 1613 1352.55C 1613 1373.77 1601.67 1393.38 1583.28 1403.99L 836.221 1835.04C 817.83 1845.65 795.17 1845.65 776.779 1835.04L 29.7213 1403.99C 11.3297 1393.38 4.6404e-13 1373.77 4.50522e-13 1352.55L 0 490.453C -1.35175e-14 469.229 11.3297 449.618 29.7213 439.006L 776.779 7.95886Z"/>
    <bx:grid x="98.712" y="0.851" width="100" height="100"/>
  </defs>
</svg>