<svg xmlns="http://www.w3.org/2000/svg" xmlns:xlink="http://www.w3.org/1999/xlink" width="948.803" height="848.858" viewBox="0 0 948.803 848.858">
  <defs>
    <filter id="Rectangle_580" x="208.179" y="788.219" width="414.511" height="60.64" filterUnits="userSpaceOnUse">
      <feOffset dy="3" input="SourceAlpha"/>
      <feGaussianBlur stdDeviation="3.5" result="blur"/>
      <feFlood flood-color="#1a1c24" flood-opacity="0.8"/>
      <feComposite operator="in" in2="blur"/>
      <feComposite in="SourceGraphic"/>
    </filter>
    <linearGradient id="linear-gradient" x1="0.532" y1="-0.25" x2="0.468" y2="1.25" gradientUnits="objectBoundingBox">
      <stop offset="0" stop-color="#babcc6"/>
      <stop offset="0.257" stop-color="#d6d7de"/>
      <stop offset="0.951" stop-color="#f2f2f5"/>
      <stop offset="1" stop-color="#f2f2f5"/>
    </linearGradient>
  </defs>
  <g id="iMac" transform="translate(-3347.987 -10288.996)">
    <g transform="matrix(1, 0, 0, 1, 3347.99, 10289)" filter="url(#Rectangle_580)">
      <path id="Rectangle_580-2" data-name="Rectangle 580" d="M3930.68,11015.873l-167.292,15.578-222.253-10.785,221.059,5.992s105.671-31.576,155.341-34.757C3945.61,10990.1,3930.68,11015.873,3930.68,11015.873Z" transform="translate(-3322.46 -10196.09)" fill="#d8d8dd"/>
    </g>
    <path id="Shape_18_copy_2" data-name="Shape 18 copy 2" d="M3536.829,11036.494c29.977,2.6,204.331,13.1,210.266,13.658s24.317.271,50.212-2.1,110.105-10.84,131.807-12.608,29.558-42.818,21.97-69.34-23.012-81.947-23.012-81.947l-172.609-8.405s-4.284-2.551-1.047,10.506,9.755,61.787,11.509,74.593,1.68,46.62-27.2,50.432S3506.852,11033.891,3536.829,11036.494Z" transform="translate(24.565 77.535)" fill="#d8d8dd"/>
    <path id="Shape_18_copy_2-2" data-name="Shape 18 copy 2" d="M3923.791,11026.125c-20.8,2.346-108.086,15.032-132.976,17.3s-42.56,2.545-48.266,2.007c-4.067-.381-126.065-6.656-206.2-11.127,22.922-5.587,177.152-20.008,202.042-23.291,28.88-3.811,28.957-37.623,27.2-50.432s-8.269-61.539-11.508-74.592c-1.051-4.247-1.306-6.836-1.174-8.4a1.573,1.573,0,0,1,.824.186l165.917,8.028s13.777,50.851,21.076,76.188S3946.359,11023.58,3923.791,11026.125Z" transform="translate(24.899 77.803)" fill="#f2f2f5"/>
    <path id="Rectangle_32_copy" data-name="Rectangle 32 copy" d="M3740.915,10968.985a71.751,71.751,0,0,0-.606-8.405c-1.753-12.8-8.27-61.539-11.509-74.592-1.051-4.247-1.306-6.836-1.174-8.4a1.571,1.571,0,0,1,.824.186l165.917,8.028s13.777,50.851,21.076,76.188c.652,2.257,1.224,4.6,1.722,7Z" transform="translate(50.179 77.803)" fill="url(#linear-gradient)"/>
    <path id="Shape_19_copy_2" data-name="Shape 19 copy 2" d="M4296.265,10320.1l-115.377,611.772a42.88,42.88,0,0,1-42.088,34.911h-.027l-764.8-.466a17,17,0,0,1-8.963-2.537c-.134-.049-.27-.1-.4-.147-5.1-2-15.551-6.161-15.692-12.609-.025-1.144-.01-2.149.043-3.039a17.156,17.156,0,0,1,.614-5.793l142.279-504.763a42.431,42.431,0,0,1,34.283-30.441l741-115.8a20.733,20.733,0,0,1,3.165-.247c.555,0,1.1.023,1.646.068l3.733-.622a13.681,13.681,0,0,1,2.324-.2C4289.44,10290.184,4298.748,10304.815,4296.265,10320.1Z" transform="translate(0.121 0.158)" fill="#e7e7ec"/>
    <path id="Shape_19_copy_2-2" data-name="Shape 19 copy 2" d="M4291.222,10313.038l-117.054,614.669a42.884,42.884,0,0,1-42.09,34.912h-.027l-766.9-.467a17,17,0,0,1-10.126-3.312,17.23,17.23,0,0,1-6.386-18.592l142.279-504.763a42.43,42.43,0,0,1,34.283-30.441l743.094-115.8a20.491,20.491,0,0,1,3.167-.247c.551,0,1.1.023,1.643.066A20.243,20.243,0,0,1,4291.222,10313.038Z" transform="translate(0)" fill="#ededf0"/>
    <g id="screen" transform="translate(4.886 3.224)" fill="#fff" stroke-linejoin="round">
      <path d="M 3383.635986328125 10886.984375 L 3383.982421875 10885.7109375 L 3509.511962890625 10424.4853515625 L 3509.68359375 10423.85546875 L 3510.329833984375 10423.7587890625 L 4259.3359375 10312.3955078125 L 4260.73388671875 10312.1875 L 4260.46484375 10313.5751953125 L 4150.62451171875 10879.857421875 L 4150.46875 10880.66015625 L 4149.65087890625 10880.6669921875 L 3384.95556640625 10886.9736328125 L 3383.635986328125 10886.984375 Z" stroke="none"/>
      <path d="M 4259.48291015625 10313.384765625 L 3510.47705078125 10424.748046875 L 3384.947265625 10885.9736328125 L 4149.642578125 10879.6669921875 L 4259.48291015625 10313.384765625 M 4259.48291015625 10311.384765625 C 4260.0244140625 10311.384765625 4260.5478515625 10311.6044921875 4260.927734375 10312.001953125 C 4261.37646484375 10312.470703125 4261.56982421875 10313.12890625 4261.4462890625 10313.765625 L 4151.60595703125 10880.0478515625 C 4151.4248046875 10880.982421875 4150.6103515625 10881.6591796875 4149.6591796875 10881.6669921875 L 3384.9638671875 10887.9736328125 C 3384.9580078125 10887.9736328125 3384.95263671875 10887.9736328125 3384.94677734375 10887.9736328125 C 3384.3271484375 10887.9736328125 3383.74169921875 10887.685546875 3383.36328125 10887.1943359375 C 3382.98095703125 10886.6982421875 3382.85302734375 10886.052734375 3383.017578125 10885.4482421875 L 3508.54736328125 10424.22265625 C 3508.755859375 10423.45703125 3509.3974609375 10422.88671875 3510.18310546875 10422.76953125 L 4259.1884765625 10311.40625 C 4259.287109375 10311.3916015625 4259.38525390625 10311.384765625 4259.48291015625 10311.384765625 Z" stroke="none" fill="#e9edf1"/>
    </g>
  </g>
</svg>
