<svg xmlns="http://www.w3.org/2000/svg" xmlns:xlink="http://www.w3.org/1999/xlink" width="1600" height="720" viewBox="0 0 1600 720">
    <defs>
        <linearGradient id="a" x1="50%" x2="50%" y1="0%" y2="100%">
            <stop offset="0%" stop-color="#1D58F5"/>
            <stop offset="100%" stop-color="#3B90F7"/>
        </linearGradient>
        <path
            id="b"
            d="M114.960237,0 L1618.03976,0 C1618.03976,0 1876.9207,418.271277 1618.03976,506.271277 C1359.15883,594.271277 1289,506 1117.01325,544.058511 C945.026509,582.117021 874.328539,725.845745 615.986746,661.845745 C357.644952,597.845745 373.323297,827.632979 114.960237,827.632979 C-143.402823,827.632979 114.960237,0 114.960237,0 Z"/>
    </defs>
    <g fill="none" fill-rule="evenodd" transform="translate(-78 -108)">
        <path
            class="fill-primary"
            d="M114.960237,16 L1618.03976,0 C1618.03976,0 1844.9207,290.271277 1658.03976,442.271277 C1471.15883,594.271277 1375.35505,432.058511 1117.01325,520.058511 C858.671461,608.058511 874.328539,741.845745 615.986746,701.845745 C357.644952,661.845745 373.323297,827.632979 114.960237,827.632979 C-143.402823,827.632979 114.960237,16 114.960237,16 Z"
            opacity=".2"/>
        <mask id="c" fill="white">
            <use xlink:href="#b"/>
        </mask>
        <use class="fill-primary" xlink:href="#b"/>
        <g mask="url(#c)" opacity=".7">
            <g transform="translate(-660.065 -775.149)">
                <path
                    fill="#94C5FF"
                    d="M754.067729,531.446809 L571.838569,975.459523 C546.600934,1036.94566 486.601576,1077.11086 419.986934,1077.11086 L82.1996616,1077.11086 L264.434819,633.10413 C289.672454,571.612009 349.671812,531.446809 416.280456,531.446809 L754.067729,531.446809 Z"
                    opacity=".06"/>
                <path
                    fill="#94C5FF"
                    d="M1922.70825,0 L1522.44479,975.266913 C1467.01072,1110.32024 1335.22308,1198.54247 1188.90507,1198.54247 L0,1198.69149 L400.276643,223.437717 C455.71071,88.3712451 587.498353,0.149016157 733.803188,0.149016157 L1922.70825,0 Z"
                    opacity=".06"/>
                <path
                    fill="#1A32AF"
                    fill-opacity=".4"
                    d="M2566.38343,880.016429 L2341.04653,1429.06383 C2309.83874,1505.095 2235.64606,1554.76159 2153.2732,1554.76159 L631,1554.74516 L856.344311,1005.70516 C887.552106,929.666594 961.744783,880 1044.11022,880 L2566.38343,880.016429 Z"
                    opacity=".31"/>
                <path
                    fill="#0092FF"
                    fill-opacity=".2"
                    d="M2632.59095,606.319149 L2497.22956,936.135609 C2478.48283,981.808041 2433.91479,1011.6431 2384.43286,1011.6431 L1755.54992,1011.6431 L1890.91576,681.831081 C1909.66249,636.154205 1954.23053,606.319149 2003.708,606.319149 L2632.59095,606.319149 Z"
                    opacity=".7"/>
                <path
                    fill="#0092FF"
                    fill-opacity=".2"
                    d="M2512.22716,1249.34043 L2376.86577,1579.15689 C2358.11904,1624.82932 2313.551,1654.66437 2264.06907,1654.66437 L314.120135,1654.66437 L449.485976,1324.85236 C468.232708,1279.17548 512.800747,1249.34043 562.278221,1249.34043 L2512.22716,1249.34043 Z"
                    opacity=".4"/>
            </g>
        </g>
        <path
            fill="#0055FF"
            d="M114.960237,16 L1618.03976,0 C1618.03976,0 1948,228 1658,352 C1368,476 1349,596 1165.5,635.5 C982,675 826.341794,515.5 616,659.5 C405.658206,803.5 373.323297,787.632979 114.960237,763.632979 C-143.402823,739.632979 114.960237,16 114.960237,16 Z"
            opacity=".1"/>
    </g>
</svg>
