<?xml version="1.0" encoding="UTF-8"?>
<svg width="768px" height="61px" viewBox="0 0 768 61" version="1.1" xmlns="http://www.w3.org/2000/svg" xmlns:xlink="http://www.w3.org/1999/xlink">
    <title>CNP-Logo</title>
    <defs>
        <path d="M12.772168,46.7011719 C15.5439779,46.7011719 18.0724609,45.6696777 20.3576172,43.6066895 C22.6427734,41.5437012 24.1767904,38.5973307 24.959668,34.7675781 L24.959668,34.7675781 L24.0392578,34.3232422 C22.9389974,36.8834635 21.8069987,38.6502279 20.6432617,39.6235352 C18.9928711,41.0411784 17.1308919,41.75 15.0573242,41.75 C12.1585612,41.75 9.85753581,40.4222819 8.15424805,37.7668457 C6.45096029,35.1114095 5.59931641,32.0486654 5.59931641,28.5786133 C5.59931641,25.1720378 6.45625,22.4319661 8.17011719,20.3583984 C9.46080729,18.7926432 11.1640951,18.0097656 13.2799805,18.0097656 C14.5918294,18.0097656 15.6180339,18.3271484 16.3585938,18.9619141 C17.0991536,19.6178385 17.5276204,20.569987 17.6439941,21.8183594 C17.7603678,23.0667318 17.9984049,23.9130859 18.3581055,24.3574219 C18.9928711,25.1614583 19.9344401,25.5634766 21.1828125,25.5634766 C22.1138021,25.5634766 22.8384928,25.31486 23.3568848,24.817627 C23.8752767,24.3203939 24.1344727,23.6697591 24.1344727,22.8657227 C24.1344727,21.2364909 23.2140625,19.665446 21.3732422,18.1525879 C19.5324219,16.6397298 17.1837891,15.8833008 14.3273438,15.8833008 C10.51875,15.8833008 7.25499674,17.3115234 4.53608398,20.1679688 C1.81717122,23.0244141 0.457714844,26.737793 0.457714844,31.3081055 C0.457714844,36.0265299 1.68492839,39.7716471 4.13935547,42.543457 C6.59378255,45.3152669 9.47138672,46.7011719 12.772168,46.7011719 Z M42.5013672,45.8125 L42.5013672,44.6699219 C41.1895182,44.6699219 40.1844727,44.4794922 39.4862305,44.0986328 C38.7879883,43.7177734 38.3013346,43.2416992 38.0262695,42.6704102 C37.6242513,41.8452148 37.4232422,40.6285807 37.4232422,39.0205078 L37.4232422,39.0205078 L37.4232422,25.0874023 C38.4388672,23.0984701 39.4227539,21.6702474 40.3749023,20.8027344 C40.8192383,20.3795573 41.2318359,20.1679688 41.6126953,20.1679688 C42.0570313,20.1679688 42.7394043,20.532959 43.6598145,21.2629395 C44.5802246,21.9929199 45.4107096,22.3579102 46.1512695,22.3579102 C46.9129883,22.3579102 47.5689128,22.0722656 48.119043,21.5009766 C48.6691732,20.9296875 48.9442383,20.2314453 48.9442383,19.40625 C48.9442383,18.4752604 48.5633789,17.6553548 47.8016602,16.9465332 C47.0399414,16.2377116 46.0772135,15.8833008 44.9134766,15.8833008 C42.3532552,15.8833008 39.8565104,18.0626628 37.4232422,22.4213867 L37.4232422,22.4213867 L37.4232422,15.8833008 L36.0902344,15.8833008 L27.2987305,19.4379883 L27.6161133,20.5805664 C28.4413086,20.2631836 29.1818685,20.1044922 29.837793,20.1044922 C30.3879232,20.1044922 30.8481283,20.2526042 31.2184082,20.5488281 C31.5886882,20.8450521 31.8425944,21.3158366 31.980127,21.9611816 C32.1176595,22.6065267 32.1864258,24.6219076 32.1864258,28.0073242 L32.1864258,39.2744141 C32.1864258,40.9671224 32.1335286,41.9933268 32.0277344,42.3530273 C31.8161458,43.0935872 31.4458659,43.633138 30.9168945,43.9716797 C30.1974935,44.4371745 29.0972331,44.6699219 27.6161133,44.6699219 L27.6161133,44.6699219 L27.6161133,45.8125 L42.5013672,45.8125 Z M57.5674805,46.4155273 C58.8581706,46.4155273 60.0748047,46.1510417 61.2173828,45.6220703 C61.9791016,45.2623698 63.8516602,43.929362 66.8350586,41.6230469 C66.8562174,43.3580729 67.1736003,44.5852865 67.787207,45.3046875 C68.4008138,46.0240885 69.2260091,46.3837891 70.262793,46.3837891 C72.4209961,46.3837891 74.6849935,44.796875 77.0547852,41.6230469 L77.0547852,41.6230469 L77.0547852,39.8457031 C75.7852539,41.1152344 74.9283203,41.8875326 74.4839844,42.1625977 C74.2300781,42.3107096 73.9338542,42.3847656 73.5953125,42.3847656 C73.2779297,42.3847656 72.9975749,42.2789714 72.754248,42.0673828 C72.5109212,41.8557943 72.3363607,41.4379069 72.2305664,40.8137207 C72.1247721,40.1895345 72.071875,38.4915365 72.071875,35.7197266 L72.071875,35.7197266 L72.071875,25.8491211 C72.071875,23.0349935 71.8814453,21.1730143 71.5005859,20.2631836 C70.908138,18.8666992 69.9877279,17.8404948 68.7393555,17.1845703 C67.0889648,16.3170573 64.9730794,15.8833008 62.3916992,15.8833008 C59.0274414,15.8833008 56.4143229,16.6450195 54.5523438,18.168457 C52.6903646,19.6918945 51.759375,21.363444 51.759375,23.1831055 C51.759375,24.1352539 52.0079915,24.8863932 52.5052246,25.4365234 C53.0024577,25.9866536 53.642513,26.2617188 54.4253906,26.2617188 C55.2294271,26.2617188 55.8800618,25.9972331 56.3772949,25.4682617 C56.874528,24.9392904 57.1231445,24.188151 57.1231445,23.2148438 L57.1231445,23.2148438 L57.059668,21.3740234 C57.059668,20.4430339 57.4616862,19.6178385 58.2657227,18.8984375 C59.0486003,18.1790365 60.106543,17.8193359 61.4395508,17.8193359 C63.1957357,17.8193359 64.5340332,18.3588867 65.4544434,19.4379883 C66.3748535,20.5170898 66.8350586,22.5060221 66.8350586,25.4047852 L66.8350586,25.4047852 L66.8350586,26.5473633 C61.841569,28.3670247 58.2710124,29.9116211 56.1233887,31.1811523 C53.975765,32.4506836 52.4681966,33.8048503 51.6006836,35.2436523 C50.965918,36.2804362 50.6485352,37.5076497 50.6485352,38.925293 C50.6485352,41.1681315 51.2991699,42.9772135 52.6004395,44.3525391 C53.901709,45.7278646 55.5573893,46.4155273 57.5674805,46.4155273 Z M60.4874023,42.7338867 C59.3025065,42.7338867 58.2551432,42.2313639 57.3453125,41.2263184 C56.4354818,40.2212728 55.9805664,38.9570312 55.9805664,37.4335938 C55.9805664,36.2275391 56.3402669,35.1166992 57.059668,34.1010742 C57.779069,33.0854492 58.9745443,32.1121419 60.6460938,31.1811523 C61.5770833,30.652181 63.6400716,29.7529297 66.8350586,28.4833984 L66.8350586,28.4833984 L66.8350586,39.5600586 C64.2113607,41.675944 62.0954753,42.7338867 60.4874023,42.7338867 Z M86.4080078,7.12353516 C87.2966797,7.12353516 88.0531087,6.80615234 88.6772949,6.17138672 C89.3014811,5.53662109 89.6135742,4.77490234 89.6135742,3.88623047 C89.6135742,2.99755859 89.3014811,2.24112956 88.6772949,1.61694336 C88.0531087,0.992757161 87.2966797,0.680664062 86.4080078,0.680664062 C85.4981771,0.680664062 84.7311686,0.992757161 84.1069824,1.61694336 C83.4827962,2.24112956 83.1707031,2.99755859 83.1707031,3.88623047 C83.1707031,4.77490234 83.4880859,5.53662109 84.1228516,6.17138672 C84.7576172,6.80615234 85.5193359,7.12353516 86.4080078,7.12353516 Z M93.4539063,45.8125 L93.4539063,44.6699219 C92.0785807,44.6699219 91.131722,44.5218099 90.6133301,44.2255859 C90.0949382,43.929362 89.7034993,43.4797363 89.4390137,42.876709 C89.174528,42.2736816 89.0422852,41.0623372 89.0422852,39.2426758 L89.0422852,39.2426758 L89.0422852,15.8833008 L87.6458008,15.8833008 L78.8860352,19.4379883 L79.3303711,20.5805664 C80.1767253,20.2631836 80.8961263,20.1044922 81.4885742,20.1044922 C82.0387044,20.1044922 82.4724609,20.236735 82.7898438,20.5012207 C83.1072266,20.7657064 83.339974,21.2364909 83.4880859,21.9135742 C83.6785156,22.8445638 83.7737305,24.8863932 83.7737305,28.0390625 L83.7737305,39.2426758 C83.7737305,41.0411784 83.6309082,42.2578125 83.3452637,42.8925781 C83.0596191,43.5273438 82.6734701,43.9822591 82.1868164,44.2573242 C81.7001628,44.5323893 80.7480143,44.6699219 79.3303711,44.6699219 L79.3303711,44.6699219 L79.3303711,45.8125 L93.4539063,45.8125 Z M109.503906,59.8408203 C114.814779,59.8408203 119.120605,58.296224 122.421387,55.2070312 C124.664225,53.1123047 125.785645,50.8694661 125.785645,48.4785156 C125.785645,46.7434896 125.198486,45.2835286 124.02417,44.0986328 C122.849854,42.913737 121.278809,42.1837565 119.311035,41.9086914 C118.020345,41.7182617 115.195638,41.5701497 110.836914,41.4643555 C108.467122,41.4008789 106.986003,41.3268229 106.393555,41.2421875 C105.37793,41.0940755 104.695557,40.8507487 104.346436,40.512207 C103.997314,40.1736654 103.822754,39.8245443 103.822754,39.4648438 C103.822754,39.0416667 103.986735,38.5285645 104.314697,37.9255371 C104.64266,37.3225098 105.272135,36.6189779 106.203125,35.8149414 C107.705404,36.2381185 109.175944,36.449707 110.614746,36.449707 C114.105957,36.449707 116.888346,35.4869792 118.961914,33.5615234 C121.035482,31.6360677 122.072266,29.3191732 122.072266,26.6108398 C122.072266,24.2410482 121.479818,22.2944336 120.294922,20.7709961 L120.294922,20.7709961 L124.071777,20.7709961 C124.981608,20.7709961 125.515869,20.7392578 125.674561,20.6757812 C125.833252,20.6123047 125.944336,20.5276693 126.007813,20.421875 C126.113607,20.2102865 126.166504,19.8294271 126.166504,19.2792969 C126.166504,18.7926432 126.103027,18.4541016 125.976074,18.2636719 C125.912598,18.1367188 125.806803,18.0467936 125.658691,17.9938965 C125.510579,17.9409993 124.981608,17.9145508 124.071777,17.9145508 L117.914551,17.9145508 C115.883301,16.5603841 113.481771,15.8833008 110.709961,15.8833008 C107.324544,15.8833008 104.547445,16.9200846 102.378662,18.9936523 C100.20988,21.0672201 99.1254883,23.542806 99.1254883,26.4204102 C99.1254883,28.3035482 99.6015625,30.0227051 100.553711,31.5778809 C101.505859,33.1330566 102.870605,34.344401 104.647949,35.2119141 C102.468587,37.0315755 101.077393,38.4386393 100.474365,39.4331055 C99.8713379,40.4275716 99.5698242,41.2950846 99.5698242,42.0356445 C99.5698242,42.691569 99.7972819,43.2787272 100.252197,43.7971191 C100.707113,44.3155111 101.484701,44.9026693 102.584961,45.5585938 C100.57487,47.6533203 99.4957682,48.7958984 99.3476563,48.9863281 C98.226237,50.3828125 97.4856771,51.4724935 97.1259766,52.2553711 C96.8932292,52.7631836 96.7768555,53.2709961 96.7768555,53.7788086 C96.7768555,54.9213867 97.5703125,56.0216471 99.1572266,57.0795898 C101.971354,58.9204102 105.420247,59.8408203 109.503906,59.8408203 Z M110.995605,34.8945312 C109.302897,34.8945312 107.906413,34.1962891 106.806152,32.7998047 C105.36735,30.9589844 104.647949,28.3670247 104.647949,25.0239258 C104.647949,22.4425456 105.176921,20.5276693 106.234863,19.2792969 C107.292806,18.0309245 108.604655,17.4067383 110.17041,17.4067383 C111.863118,17.4067383 113.249023,18.1049805 114.328125,19.5014648 C115.788086,21.4057617 116.518066,24.0400391 116.518066,27.4042969 C116.518066,29.9856771 115.999674,31.8793945 114.962891,33.0854492 C113.926107,34.2915039 112.603678,34.8945312 110.995605,34.8945312 Z M112.328613,56.0322266 C108.32959,56.0322266 105.272135,55.3763021 103.15625,54.0644531 C101.929036,53.3027344 101.31543,52.4140625 101.31543,51.3984375 C101.31543,50.6155599 101.569336,49.7586263 102.077148,48.8276367 C102.584961,47.8966471 103.3361,46.8916016 104.330566,45.8125 C106.890788,46.1722005 110.55127,46.4155273 115.312012,46.5424805 C118.570475,46.6271159 120.749837,46.902181 121.850098,47.3676758 C122.929199,47.8331706 123.46875,48.6160482 123.46875,49.7163086 C123.46875,51.2397461 122.564209,52.6732585 120.755127,54.0168457 C118.946045,55.3604329 116.137207,56.0322266 112.328613,56.0322266 Z M158.425195,45.8125 L158.425195,44.6699219 C156.838281,44.6699219 155.785628,44.5270996 155.267236,44.2414551 C154.748844,43.9558105 154.341536,43.5061849 154.045313,42.8925781 C153.812565,42.4270833 153.696191,41.2104492 153.696191,39.2426758 L153.696191,39.2426758 L153.696191,23.9130859 C156.192936,21.1624349 158.70026,19.7871094 161.218164,19.7871094 C162.847396,19.7871094 164.005843,20.384847 164.693506,21.5803223 C165.381169,22.7757975 165.725,24.6959635 165.725,27.3408203 L165.725,27.3408203 L165.725,39.2426758 C165.725,40.9142253 165.682682,41.9086914 165.598047,42.2260742 C165.386458,43.0301107 165.010889,43.6384277 164.471338,44.0510254 C163.931787,44.463623 162.984928,44.6699219 161.630762,44.6699219 L161.630762,44.6699219 L161.027734,44.6699219 L161.027734,45.8125 L175.405176,45.8125 L175.405176,44.6699219 C174.008691,44.6699219 173.051253,44.5218099 172.532861,44.2255859 C172.014469,43.929362 171.6389,43.5167643 171.406152,42.987793 C171.109928,42.3318685 170.961816,41.0834961 170.961816,39.2426758 L170.961816,39.2426758 L170.961816,26.8330078 C170.961816,24.2093099 170.729069,22.2626953 170.263574,20.9931641 C169.586491,19.1735026 168.67666,17.8669434 167.534082,17.0734863 C166.391504,16.2800293 165.026758,15.8833008 163.439844,15.8833008 C160.350651,15.8833008 157.102767,17.9357096 153.696191,22.0405273 L153.696191,22.0405273 L153.696191,15.8833008 L152.331445,15.8833008 L143.57168,19.4379883 L144.047754,20.5805664 C144.872949,20.2631836 145.581771,20.1044922 146.174219,20.1044922 C146.724349,20.1044922 147.163395,20.2420247 147.491357,20.5170898 C147.81932,20.7921549 148.062646,21.3105469 148.221338,22.0722656 C148.380029,22.8339844 148.459375,24.9604492 148.459375,28.4516602 L148.459375,39.2426758 C148.459375,41.3585612 148.200179,42.7920736 147.681787,43.5432129 C147.163395,44.2943522 146.163639,44.6699219 144.68252,44.6699219 L144.68252,44.6699219 L144.047754,44.6699219 L144.047754,45.8125 L158.425195,45.8125 Z M190.598242,46.7011719 C193.814388,46.7011719 196.490983,45.5109863 198.628027,43.1306152 C200.765072,40.7502441 202.055762,38.1106771 202.500098,35.2119141 L202.500098,35.2119141 L201.516211,34.5771484 C200.564063,37.1162109 199.384456,38.9094238 197.977393,39.9567871 C196.570329,41.0041504 194.914648,41.527832 193.010352,41.527832 C190.153906,41.527832 187.667741,40.3006185 185.551855,37.8461914 C183.43597,35.3917643 182.388607,32.0063477 182.409766,27.6899414 L182.409766,27.6899414 L202.500098,27.6899414 C202.500098,24.0929362 201.452734,21.2206217 199.358008,19.072998 C197.263281,16.9253743 194.586686,15.8515625 191.328223,15.8515625 C187.477311,15.8515625 184.277035,17.2427572 181.727393,20.0251465 C179.177751,22.8075358 177.90293,26.6848958 177.90293,31.6572266 C177.90293,36.2486979 179.146012,39.90389 181.632178,42.6228027 C184.118343,45.3417155 187.107031,46.7011719 190.598242,46.7011719 Z M195.866797,25.8491211 L182.409766,25.8491211 C182.642513,23.4158529 183.451839,21.5168457 184.837744,20.1520996 C186.223649,18.7873535 187.794694,18.1049805 189.550879,18.1049805 C190.693457,18.1049805 191.788428,18.4435221 192.835791,19.1206055 C193.883154,19.7976888 194.671322,20.7286784 195.200293,21.9135742 C195.538835,22.675293 195.761003,23.9871419 195.866797,25.8491211 L195.866797,25.8491211 Z M219.660938,46.7011719 L228.135059,28.1342773 L235.403125,46.7011719 L236.704395,46.7011719 L246.416309,21.659668 C247.283822,19.4379883 248.637988,18.1896159 250.478809,17.9145508 L250.478809,17.9145508 L250.478809,16.7402344 L241.306445,16.7402344 L241.306445,17.9145508 C242.5125,17.9568685 243.321826,18.1367188 243.734424,18.4541016 C244.147021,18.7714844 244.35332,19.1311849 244.35332,19.5332031 C244.35332,20.2102865 244.141732,21.1201172 243.718555,22.2626953 L243.718555,22.2626953 L237.593066,38.3540039 L230.991504,21.659668 C230.822233,21.215332 230.737598,20.7815755 230.737598,20.3583984 C230.737598,19.6178385 230.949186,19.0782878 231.372363,18.7397461 C232.007129,18.2530924 233.08623,17.9780273 234.609668,17.9145508 L234.609668,17.9145508 L234.609668,16.7402344 L220.771777,16.7402344 L220.771777,17.9145508 C222.041309,17.9780273 222.908822,18.1578776 223.374316,18.4541016 C224.199512,18.9407552 224.866016,19.8188477 225.373828,21.0883789 L225.373828,21.0883789 L227.024219,25.3730469 L220.771777,38.9887695 L214.551074,22.2626953 C214.191374,21.3317057 214.011523,20.5382487 214.011523,19.8823242 C214.011523,19.2898763 214.186084,18.8349609 214.535205,18.5175781 C214.884326,18.2001953 215.619596,17.9991862 216.741016,17.9145508 L216.741016,17.9145508 L216.741016,16.7402344 L204.553516,16.7402344 L204.553516,17.9145508 C205.823047,18.1896159 206.754036,18.5969238 207.346484,19.1364746 C207.938932,19.6760254 208.54196,20.718099 209.155566,22.2626953 L209.155566,22.2626953 L218.486621,46.7011719 L219.660938,46.7011719 Z M266.274902,45.8125 L266.274902,44.6699219 C264.687988,44.6699219 263.635335,44.5270996 263.116943,44.2414551 C262.598551,43.9558105 262.207113,43.5273438 261.942627,42.9560547 C261.678141,42.3847656 261.545898,41.1469727 261.545898,39.2426758 L261.545898,39.2426758 L261.545898,23.6591797 C262.498047,22.4954427 263.852214,21.4480794 265.608398,20.5170898 C266.729818,19.9034831 267.861816,19.5966797 269.004395,19.5966797 C270.675944,19.5966797 271.977214,20.273763 272.908203,21.6279297 C273.606445,22.6647135 273.955566,24.3680013 273.955566,26.737793 L273.955566,26.737793 L273.955017,39.5417185 C273.94916,41.0985416 273.896446,42.046224 273.796875,42.3847656 C273.564128,43.1464844 273.14624,43.7177734 272.543213,44.0986328 C271.940186,44.4794922 270.834635,44.6699219 269.226563,44.6699219 L269.226563,44.6699219 L269.226563,45.8125 L283.921387,45.8125 L283.921387,44.6699219 C282.440267,44.6699219 281.392904,44.5059408 280.779297,44.1779785 C280.16569,43.8500163 279.747803,43.4427083 279.525635,42.9560547 C279.303467,42.469401 279.192383,41.2316081 279.192383,39.2426758 L279.192383,39.2426758 L279.192383,25.3730469 L279.128906,24.0083008 L279.192383,23.6591797 C280.800456,22.1357422 282.170492,21.0936686 283.30249,20.532959 C284.434489,19.9722493 285.561198,19.6918945 286.682617,19.6918945 C288.502279,19.6918945 289.824707,20.3689779 290.649902,21.7231445 C291.221191,22.6964518 291.506836,24.3680013 291.506836,26.737793 L291.506836,26.737793 L291.506397,39.5344703 C291.501711,41.0538078 291.45954,41.9827474 291.379883,42.3212891 C291.168294,43.061849 290.819173,43.6013997 290.33252,43.9399414 C289.634277,44.4265951 288.66097,44.6699219 287.412598,44.6699219 L287.412598,44.6699219 L286.80957,44.6699219 L286.80957,45.8125 L301.155273,45.8125 L301.155273,44.6699219 C299.864583,44.6699219 298.933594,44.5059408 298.362305,44.1779785 C297.791016,43.8500163 297.399577,43.4532878 297.187988,42.987793 C296.912923,42.3107096 296.775391,41.0623372 296.775391,39.2426758 L296.775391,39.2426758 L296.775391,26.737793 C296.775391,24.1140951 296.542643,22.1886393 296.077148,20.9614258 C295.378906,19.1629232 294.432048,17.8669434 293.236572,17.0734863 C292.041097,16.2800293 290.671061,15.8833008 289.126465,15.8833008 C287.539551,15.8833008 285.994954,16.2800293 284.492676,17.0734863 C282.990397,17.8669434 281.149577,19.5332031 278.970215,22.0722656 C278.525879,20.0621745 277.647786,18.5281576 276.335938,17.4702148 C275.024089,16.4122721 273.458333,15.8833008 271.638672,15.8833008 C270.55957,15.8833008 269.469889,16.1054688 268.369629,16.5498047 C267.269368,16.9941406 266.243164,17.6183268 265.291016,18.4223633 C264.910156,18.7397461 263.661784,19.9563802 261.545898,22.0722656 L261.545898,22.0722656 L261.545898,15.8833008 L260.181152,15.8833008 L251.421387,19.4379883 L251.897461,20.5805664 C252.722656,20.2631836 253.431478,20.1044922 254.023926,20.1044922 C254.574056,20.1044922 255.007813,20.236735 255.325195,20.5012207 C255.642578,20.7657064 255.875326,21.2470703 256.023438,21.9453125 C256.213867,22.8763021 256.309082,24.9392904 256.309082,28.1342773 L256.309082,28.1342773 L256.309082,39.2426758 C256.309082,41.0411784 256.171549,42.2525228 255.896484,42.876709 C255.621419,43.5008952 255.219401,43.9558105 254.69043,44.2414551 C254.161458,44.5270996 253.230469,44.6699219 251.897461,44.6699219 L251.897461,44.6699219 L251.897461,45.8125 L266.274902,45.8125 Z M310.476758,46.4155273 C311.767448,46.4155273 312.984082,46.1510417 314.12666,45.6220703 C314.888379,45.2623698 316.760938,43.929362 319.744336,41.6230469 C319.765495,43.3580729 320.082878,44.5852865 320.696484,45.3046875 C321.310091,46.0240885 322.135286,46.3837891 323.17207,46.3837891 C325.330273,46.3837891 327.594271,44.796875 329.964063,41.6230469 L329.964063,41.6230469 L329.964063,39.8457031 C328.694531,41.1152344 327.837598,41.8875326 327.393262,42.1625977 C327.139355,42.3107096 326.843132,42.3847656 326.50459,42.3847656 C326.187207,42.3847656 325.906852,42.2789714 325.663525,42.0673828 C325.420199,41.8557943 325.245638,41.4379069 325.139844,40.8137207 C325.034049,40.1895345 324.981152,38.4915365 324.981152,35.7197266 L324.981152,25.8491211 C324.981152,23.0349935 324.790723,21.1730143 324.409863,20.2631836 C323.817415,18.8666992 322.897005,17.8404948 321.648633,17.1845703 C319.998242,16.3170573 317.882357,15.8833008 315.300977,15.8833008 C311.936719,15.8833008 309.3236,16.6450195 307.461621,18.168457 C305.599642,19.6918945 304.668652,21.363444 304.668652,23.1831055 C304.668652,24.1352539 304.917269,24.8863932 305.414502,25.4365234 C305.911735,25.9866536 306.55179,26.2617188 307.334668,26.2617188 C308.138704,26.2617188 308.789339,25.9972331 309.286572,25.4682617 C309.783805,24.9392904 310.032422,24.188151 310.032422,23.2148438 L310.032422,23.2148438 L309.968945,21.3740234 C309.968945,20.4430339 310.370964,19.6178385 311.175,18.8984375 C311.957878,18.1790365 313.01582,17.8193359 314.348828,17.8193359 C316.105013,17.8193359 317.443311,18.3588867 318.363721,19.4379883 C319.284131,20.5170898 319.744336,22.5060221 319.744336,25.4047852 L319.744336,25.4047852 L319.744336,26.5473633 C314.750846,28.3670247 311.18029,29.9116211 309.032666,31.1811523 C306.885042,32.4506836 305.377474,33.8048503 304.509961,35.2436523 C303.875195,36.2804362 303.557813,37.5076497 303.557813,38.925293 C303.557813,41.1681315 304.208447,42.9772135 305.509717,44.3525391 C306.810986,45.7278646 308.466667,46.4155273 310.476758,46.4155273 Z M313.39668,42.7338867 C312.211784,42.7338867 311.164421,42.2313639 310.25459,41.2263184 C309.344759,40.2212728 308.889844,38.9570312 308.889844,37.4335938 C308.889844,36.2275391 309.249544,35.1166992 309.968945,34.1010742 C310.688346,33.0854492 311.883822,32.1121419 313.555371,31.1811523 C314.486361,30.652181 316.549349,29.7529297 319.744336,28.4833984 L319.744336,28.4833984 L319.744336,39.5600586 C317.120638,41.675944 315.004753,42.7338867 313.39668,42.7338867 Z M345.50625,45.8125 L345.50625,44.6699219 C344.194401,44.6699219 343.189355,44.4794922 342.491113,44.0986328 C341.792871,43.7177734 341.306217,43.2416992 341.031152,42.6704102 C340.629134,41.8452148 340.428125,40.6285807 340.428125,39.0205078 L340.428125,39.0205078 L340.428125,25.0874023 C341.44375,23.0984701 342.427637,21.6702474 343.379785,20.8027344 C343.824121,20.3795573 344.236719,20.1679688 344.617578,20.1679688 C345.061914,20.1679688 345.744287,20.532959 346.664697,21.2629395 C347.585107,21.9929199 348.415592,22.3579102 349.156152,22.3579102 C349.917871,22.3579102 350.573796,22.0722656 351.123926,21.5009766 C351.674056,20.9296875 351.949121,20.2314453 351.949121,19.40625 C351.949121,18.4752604 351.568262,17.6553548 350.806543,16.9465332 C350.044824,16.2377116 349.082096,15.8833008 347.918359,15.8833008 C345.358138,15.8833008 342.861393,18.0626628 340.428125,22.4213867 L340.428125,22.4213867 L340.428125,15.8833008 L339.095117,15.8833008 L330.303613,19.4379883 L330.620996,20.5805664 C331.446191,20.2631836 332.186751,20.1044922 332.842676,20.1044922 C333.392806,20.1044922 333.853011,20.2526042 334.223291,20.5488281 C334.593571,20.8450521 334.847477,21.3158366 334.98501,21.9611816 C335.122542,22.6065267 335.191309,24.6219076 335.191309,28.0073242 L335.191309,39.2744141 C335.191309,40.9671224 335.138411,41.9933268 335.032617,42.3530273 C334.821029,43.0935872 334.450749,43.633138 333.921777,43.9716797 C333.202376,44.4371745 332.102116,44.6699219 330.620996,44.6699219 L330.620996,44.6699219 L330.620996,45.8125 L345.50625,45.8125 Z M361.968848,29.6259766 L370.887305,41.0200195 C371.733659,42.0991211 372.156836,42.8819987 372.156836,43.3686523 C372.156836,43.7706706 372.014014,44.0827637 371.728369,44.3049316 C371.442725,44.5270996 370.897884,44.648763 370.093848,44.6699219 L370.093848,44.6699219 L370.093848,45.8125 L384.217383,45.8125 L384.217383,44.6699219 C382.905534,44.6699219 381.985124,44.5641276 381.456152,44.3525391 C380.694434,44.0563151 379.805762,43.4109701 378.790137,42.4165039 C378.070736,41.7182617 376.674251,40.0678711 374.600684,37.465332 L374.600684,37.465332 L367.142188,28.0390625 L374.600684,21.1518555 C375.976009,19.9034831 377.240251,19.0359701 378.393408,18.5493164 C379.546566,18.0626628 380.990658,17.7981771 382.725684,17.7558594 L382.725684,17.7558594 L382.725684,16.7402344 L370.093848,16.7402344 L370.093848,17.7558594 C370.897884,17.7981771 371.474463,17.9727376 371.823584,18.279541 C372.172705,18.5863444 372.347266,18.9513346 372.347266,19.3745117 C372.347266,19.628418 372.26263,19.8823242 372.093359,20.1362305 C371.979102,20.3076172 371.732019,20.5861206 371.352112,20.9717407 L371.079163,21.2446899 C370.640222,21.6779175 370.068457,22.2182617 369.363867,22.8657227 L369.363867,22.8657227 L361.968848,29.6259766 Z M361.968848,29.6259766 L361.968848,0.680664062 L360.508887,0.680664062 L351.876074,4.23535156 L352.415625,5.34619141 C353.304297,4.98649089 353.970801,4.80664062 354.415137,4.80664062 C354.965267,4.80664062 355.409603,4.94946289 355.748145,5.23510742 C356.086686,5.52075195 356.330013,6.03914388 356.478125,6.7902832 C356.626237,7.54142253 356.700293,9.59912109 356.700293,12.9633789 L356.700293,12.9633789 L356.700293,39.4331055 C356.700293,41.1469727 356.541602,42.3530273 356.224219,43.0512695 C355.991471,43.5379232 355.65293,43.8976237 355.208594,44.1303711 C354.468034,44.4900716 353.357194,44.6699219 351.876074,44.6699219 L351.876074,44.6699219 L351.876074,45.8125 L366.666113,45.8125 L366.666113,44.6699219 C365.036882,44.648763 363.978939,44.5112305 363.492285,44.2573242 C363.005632,44.003418 362.630062,43.5802409 362.365576,42.987793 C362.10109,42.3953451 361.968848,41.1575521 361.968848,39.2744141 L361.968848,39.2744141 L361.968848,29.6259766 Z M414.69873,59.7138672 L414.69873,58.5395508 C413.111816,58.5395508 412.016846,58.3808594 411.413818,58.0634766 C410.810791,57.7460938 410.387614,57.317627 410.144287,56.7780762 C409.90096,56.2385254 409.779297,54.9742839 409.779297,52.9853516 L409.779297,52.9853516 L409.779297,44.1303711 C410.83724,45.0825195 411.789388,45.7172852 412.635742,46.034668 C413.77832,46.4790039 415.132487,46.7011719 416.698242,46.7011719 C420.295247,46.7011719 423.278646,45.3575846 425.648438,42.6704102 C428.526042,39.3907878 429.964844,35.2436523 429.964844,30.2290039 C429.964844,25.7433268 428.769368,22.1040039 426.378418,19.3110352 C424.431803,17.0258789 421.998535,15.8833008 419.078613,15.8833008 C417.407064,15.8833008 415.81486,16.396403 414.302002,17.4226074 C412.789144,18.4488118 411.281576,20.2420247 409.779297,22.8022461 L409.779297,22.8022461 L409.779297,16.0102539 L408.573242,16.0102539 L399.623047,19.628418 L400.003906,20.644043 C400.786784,20.347819 401.432129,20.199707 401.939941,20.199707 C402.574707,20.199707 403.07723,20.3266602 403.44751,20.5805664 C403.81779,20.8344727 404.087565,21.215332 404.256836,21.7231445 C404.426107,22.230957 404.510742,23.4264323 404.510742,25.3095703 L404.510742,25.3095703 L404.510742,52.7949219 C404.510742,54.9108073 404.399658,56.227946 404.17749,56.7463379 C403.955322,57.2647298 403.643229,57.6402995 403.241211,57.8730469 C402.416016,58.3385417 401.421549,58.5607096 400.257813,58.5395508 L400.257813,58.5395508 L399.464355,58.5395508 L399.464355,59.7138672 L414.69873,59.7138672 Z M416.603027,44.796875 C414.846842,44.796875 413.392171,44.3313802 412.239014,43.4003906 C411.085856,42.469401 410.361165,41.3902995 410.064941,40.1630859 C409.874512,39.422526 409.779297,37.8779297 409.779297,35.5292969 L409.779297,35.5292969 L409.779297,24.6748047 C411.535482,22.7705078 412.794434,21.6279297 413.556152,21.2470703 C414.550618,20.7392578 415.555664,20.4853516 416.571289,20.4853516 C418.433268,20.4853516 420.041341,21.3105469 421.395508,22.9609375 C423.342122,25.351888 424.31543,28.769043 424.31543,33.2124023 C424.31543,37.1267904 423.458496,40.1630859 421.744629,42.3212891 C420.43278,43.9716797 418.718913,44.796875 416.603027,44.796875 Z M447.252637,45.8125 L447.252637,44.6699219 C445.771517,44.6699219 444.729443,44.5059408 444.126416,44.1779785 C443.523389,43.8500163 443.110791,43.4427083 442.888623,42.9560547 C442.666455,42.469401 442.555371,41.2316081 442.555371,39.2426758 L442.555371,39.2426758 L442.555371,23.8813477 C444.121126,22.2097982 445.464714,21.0989583 446.586133,20.5488281 C447.707552,19.9986979 448.786654,19.7236328 449.823438,19.7236328 C450.839063,19.7236328 451.706576,19.9722493 452.425977,20.4694824 C453.145378,20.9667155 453.669059,21.7125651 453.997021,22.7070312 C454.324984,23.7014974 454.488965,25.7856445 454.488965,28.9594727 L454.488635,39.5271123 C454.485121,41.0077928 454.453493,41.9074468 454.39375,42.2260742 C454.182161,43.0301107 453.811882,43.6384277 453.28291,44.0510254 C452.753939,44.463623 451.81237,44.6699219 450.458203,44.6699219 L450.458203,44.6699219 L449.791699,44.6699219 L449.791699,45.8125 L464.073926,45.8125 L464.073926,44.6699219 C462.719759,44.6699219 461.78877,44.5218099 461.280957,44.2255859 C460.773145,43.929362 460.413444,43.5273438 460.201855,43.0195312 C459.905632,42.3424479 459.75752,41.0834961 459.75752,39.2426758 L459.75752,39.2426758 L459.75752,28.9594727 C459.75752,25.3624674 459.55651,22.8868815 459.154492,21.5327148 C458.583203,19.5861003 457.705111,18.1578776 456.520215,17.2480469 C455.335319,16.3382161 453.917676,15.8833008 452.267285,15.8833008 C450.89196,15.8833008 449.516634,16.248291 448.141309,16.9782715 C446.765983,17.708252 444.904004,19.3639323 442.555371,21.9453125 L442.555371,21.9453125 L442.555371,0.680664062 L441.09541,0.680664062 L432.399121,4.23535156 L432.843457,5.34619141 C433.837923,5.00764974 434.557324,4.83837891 435.00166,4.83837891 C435.55179,4.83837891 435.990837,4.97591146 436.318799,5.25097656 C436.646761,5.52604167 436.890088,6.04443359 437.048779,6.80615234 C437.207471,7.56787109 437.286816,9.60970052 437.286816,12.9316406 L437.286816,39.2426758 C437.286816,41.0623372 437.159863,42.2683919 436.905957,42.8608398 C436.652051,43.4532878 436.313509,43.855306 435.890332,44.0668945 C435.149772,44.4689128 434.134147,44.6699219 432.843457,44.6699219 L432.843457,44.6699219 L432.843457,45.8125 L447.252637,45.8125 Z M473.712793,7.12353516 C474.601465,7.12353516 475.357894,6.80615234 475.98208,6.17138672 C476.606266,5.53662109 476.918359,4.77490234 476.918359,3.88623047 C476.918359,2.99755859 476.606266,2.24112956 475.98208,1.61694336 C475.357894,0.992757161 474.601465,0.680664062 473.712793,0.680664062 C472.802962,0.680664062 472.035954,0.992757161 471.411768,1.61694336 C470.787581,2.24112956 470.475488,2.99755859 470.475488,3.88623047 C470.475488,4.77490234 470.792871,5.53662109 471.427637,6.17138672 C472.062402,6.80615234 472.824121,7.12353516 473.712793,7.12353516 Z M480.758691,45.8125 L480.758691,44.6699219 C479.383366,44.6699219 478.436507,44.5218099 477.918115,44.2255859 C477.399723,43.929362 477.008285,43.4797363 476.743799,42.876709 C476.479313,42.2736816 476.34707,41.0623372 476.34707,39.2426758 L476.34707,39.2426758 L476.34707,15.8833008 L474.950586,15.8833008 L466.19082,19.4379883 L466.635156,20.5805664 C467.48151,20.2631836 468.200911,20.1044922 468.793359,20.1044922 C469.34349,20.1044922 469.777246,20.236735 470.094629,20.5012207 C470.412012,20.7657064 470.644759,21.2364909 470.792871,21.9135742 C470.983301,22.8445638 471.078516,24.8863932 471.078516,28.0390625 L471.078516,39.2426758 C471.078516,41.0411784 470.935693,42.2578125 470.650049,42.8925781 C470.364404,43.5273438 469.978255,43.9822591 469.491602,44.2573242 C469.004948,44.5323893 468.052799,44.6699219 466.635156,44.6699219 L466.635156,44.6699219 L466.635156,45.8125 L480.758691,45.8125 Z M498.87168,45.8125 L498.87168,44.6699219 C497.369401,44.6699219 496.343197,44.5165202 495.793066,44.2097168 C495.242936,43.9029134 494.835628,43.4532878 494.571143,42.8608398 C494.306657,42.2683919 494.174414,41.0623372 494.174414,39.2426758 L494.174414,39.2426758 L494.174414,0.680664062 L492.746191,0.680664062 L484.081641,4.23535156 L484.621191,5.34619141 C485.467546,5.00764974 486.165788,4.83837891 486.715918,4.83837891 C487.22373,4.83837891 487.641618,4.97591146 487.96958,5.25097656 C488.297542,5.52604167 488.535579,6.03914388 488.683691,6.7902832 C488.831803,7.54142253 488.905859,9.55680339 488.905859,12.8364258 L488.905859,39.2426758 C488.905859,41.0411784 488.768327,42.2578125 488.493262,42.8925781 C488.218197,43.5273438 487.837337,43.9822591 487.350684,44.2573242 C486.86403,44.5323893 485.954199,44.6699219 484.621191,44.6699219 L484.621191,44.6699219 L484.621191,45.8125 L498.87168,45.8125 Z M509.240527,46.4155273 C510.531217,46.4155273 511.747852,46.1510417 512.89043,45.6220703 C513.652148,45.2623698 515.524707,43.929362 518.508105,41.6230469 C518.529264,43.3580729 518.846647,44.5852865 519.460254,45.3046875 C520.073861,46.0240885 520.899056,46.3837891 521.93584,46.3837891 C524.094043,46.3837891 526.35804,44.796875 528.727832,41.6230469 L528.727832,41.6230469 L528.727832,39.8457031 C527.458301,41.1152344 526.601367,41.8875326 526.157031,42.1625977 C525.903125,42.3107096 525.606901,42.3847656 525.268359,42.3847656 C524.950977,42.3847656 524.670622,42.2789714 524.427295,42.0673828 C524.183968,41.8557943 524.009408,41.4379069 523.903613,40.8137207 C523.797819,40.1895345 523.744922,38.4915365 523.744922,35.7197266 L523.744922,35.7197266 L523.744922,25.8491211 C523.744922,23.0349935 523.554492,21.1730143 523.173633,20.2631836 C522.581185,18.8666992 521.660775,17.8404948 520.412402,17.1845703 C518.762012,16.3170573 516.646126,15.8833008 514.064746,15.8833008 C510.700488,15.8833008 508.08737,16.6450195 506.225391,18.168457 C504.363411,19.6918945 503.432422,21.363444 503.432422,23.1831055 C503.432422,24.1352539 503.681038,24.8863932 504.178271,25.4365234 C504.675505,25.9866536 505.31556,26.2617188 506.098438,26.2617188 C506.902474,26.2617188 507.553109,25.9972331 508.050342,25.4682617 C508.547575,24.9392904 508.796191,24.188151 508.796191,23.2148438 L508.796191,23.2148438 L508.732715,21.3740234 C508.732715,20.4430339 509.134733,19.6178385 509.93877,18.8984375 C510.721647,18.1790365 511.77959,17.8193359 513.112598,17.8193359 C514.868783,17.8193359 516.20708,18.3588867 517.12749,19.4379883 C518.0479,20.5170898 518.508105,22.5060221 518.508105,25.4047852 L518.508105,25.4047852 L518.508105,26.5473633 C513.514616,28.3670247 509.944059,29.9116211 507.796436,31.1811523 C505.648812,32.4506836 504.141243,33.8048503 503.27373,35.2436523 C502.638965,36.2804362 502.321582,37.5076497 502.321582,38.925293 C502.321582,41.1681315 502.972217,42.9772135 504.273486,44.3525391 C505.574756,45.7278646 507.230436,46.4155273 509.240527,46.4155273 Z M512.160449,42.7338867 C510.975553,42.7338867 509.92819,42.2313639 509.018359,41.2263184 C508.108529,40.2212728 507.653613,38.9570312 507.653613,37.4335938 C507.653613,36.2275391 508.013314,35.1166992 508.732715,34.1010742 C509.452116,33.0854492 510.647591,32.1121419 512.319141,31.1811523 C513.25013,30.652181 515.313118,29.7529297 518.508105,28.4833984 L518.508105,28.4833984 L518.508105,39.5600586 C515.884408,41.675944 513.768522,42.7338867 512.160449,42.7338867 Z M543.88916,45.8125 L543.88916,44.6699219 C542.302246,44.6699219 541.249593,44.5270996 540.731201,44.2414551 C540.212809,43.9558105 539.805501,43.5061849 539.509277,42.8925781 C539.27653,42.4270833 539.160156,41.2104492 539.160156,39.2426758 L539.160156,39.2426758 L539.160156,23.9130859 C541.656901,21.1624349 544.164225,19.7871094 546.682129,19.7871094 C548.311361,19.7871094 549.469808,20.384847 550.157471,21.5803223 C550.845133,22.7757975 551.188965,24.6959635 551.188965,27.3408203 L551.188965,27.3408203 L551.188526,39.5306266 C551.18384,41.0288784 551.141669,41.927361 551.062012,42.2260742 C550.850423,43.0301107 550.474854,43.6384277 549.935303,44.0510254 C549.395752,44.463623 548.448893,44.6699219 547.094727,44.6699219 L547.094727,44.6699219 L546.491699,44.6699219 L546.491699,45.8125 L560.869141,45.8125 L560.869141,44.6699219 C559.472656,44.6699219 558.515218,44.5218099 557.996826,44.2255859 C557.478434,43.929362 557.102865,43.5167643 556.870117,42.987793 C556.573893,42.3318685 556.425781,41.0834961 556.425781,39.2426758 L556.425781,39.2426758 L556.425781,26.8330078 C556.425781,24.2093099 556.193034,22.2626953 555.727539,20.9931641 C555.050456,19.1735026 554.140625,17.8669434 552.998047,17.0734863 C551.855469,16.2800293 550.490723,15.8833008 548.903809,15.8833008 C545.814616,15.8833008 542.566732,17.9357096 539.160156,22.0405273 L539.160156,22.0405273 L539.160156,15.8833008 L537.79541,15.8833008 L529.035645,19.4379883 L529.511719,20.5805664 C530.336914,20.2631836 531.045736,20.1044922 531.638184,20.1044922 C532.188314,20.1044922 532.62736,20.2420247 532.955322,20.5170898 C533.283285,20.7921549 533.526611,21.3105469 533.685303,22.0722656 C533.843994,22.8339844 533.92334,24.9604492 533.92334,28.4516602 L533.92334,39.2426758 C533.92334,41.3585612 533.664144,42.7920736 533.145752,43.5432129 C532.62736,44.2943522 531.627604,44.6699219 530.146484,44.6699219 L530.146484,44.6699219 L529.511719,44.6699219 L529.511719,45.8125 L543.88916,45.8125 Z M571.777539,46.2885742 C573.216341,46.2885742 574.612826,45.7648926 575.966992,44.7175293 C577.321159,43.670166 578.368522,42.1097005 579.109082,40.0361328 L579.109082,40.0361328 L577.871289,40.0361328 C577.511589,40.882487 577.003776,41.5225423 576.347852,41.9562988 C575.691927,42.3900553 575.014844,42.6069336 574.316602,42.6069336 C573.470247,42.6069336 572.777295,42.2789714 572.237744,41.6230469 C571.698193,40.9671224 571.428418,39.6975911 571.428418,37.8144531 L571.428418,37.8144531 L571.428418,18.9619141 L578.22041,18.9619141 L578.22041,16.7402344 L571.428418,16.7402344 L571.428418,7.18701172 L570.444531,7.18701172 C569.577018,9.32405599 568.899935,10.7945964 568.413281,11.5986328 C567.461133,13.1220703 566.376742,14.439209 565.160107,15.5500488 C563.943473,16.6608887 562.753288,17.449056 561.589551,17.9145508 L561.589551,17.9145508 L561.589551,18.9619141 L566.191602,18.9619141 L566.191602,38.5126953 C566.191602,40.6074219 566.41377,42.1573079 566.858105,43.1623535 C567.302441,44.1673991 567.990104,44.9396973 568.921094,45.479248 C569.852083,46.0187988 570.804232,46.2885742 571.777539,46.2885742 Z M594.07998,45.8125 L594.07998,44.6699219 C592.598861,44.6699219 591.556787,44.5059408 590.95376,44.1779785 C590.350732,43.8500163 589.938135,43.4427083 589.715967,42.9560547 C589.493799,42.469401 589.382715,41.2316081 589.382715,39.2426758 L589.382715,39.2426758 L589.382715,23.8813477 C590.94847,22.2097982 592.292057,21.0989583 593.413477,20.5488281 C594.534896,19.9986979 595.613997,19.7236328 596.650781,19.7236328 C597.666406,19.7236328 598.533919,19.9722493 599.25332,20.4694824 C599.972721,20.9667155 600.496403,21.7125651 600.824365,22.7070312 C601.152327,23.7014974 601.316309,25.7856445 601.316309,28.9594727 L601.316309,28.9594727 L601.316309,39.2426758 C601.316309,40.8930664 601.28457,41.8875326 601.221094,42.2260742 C601.009505,43.0301107 600.639225,43.6384277 600.110254,44.0510254 C599.581283,44.463623 598.639714,44.6699219 597.285547,44.6699219 L597.285547,44.6699219 L596.619043,44.6699219 L596.619043,45.8125 L610.90127,45.8125 L610.90127,44.6699219 C609.547103,44.6699219 608.616113,44.5218099 608.108301,44.2255859 C607.600488,43.929362 607.240788,43.5273438 607.029199,43.0195312 C606.732975,42.3424479 606.584863,41.0834961 606.584863,39.2426758 L606.584863,39.2426758 L606.584863,28.9594727 C606.584863,25.3624674 606.383854,22.8868815 605.981836,21.5327148 C605.410547,19.5861003 604.532454,18.1578776 603.347559,17.2480469 C602.162663,16.3382161 600.74502,15.8833008 599.094629,15.8833008 C597.719303,15.8833008 596.343978,16.248291 594.968652,16.9782715 C593.593327,17.708252 591.731348,19.3639323 589.382715,21.9453125 L589.382715,21.9453125 L589.382715,0.680664062 L587.922754,0.680664062 L579.226465,4.23535156 L579.670801,5.34619141 C580.665267,5.00764974 581.384668,4.83837891 581.829004,4.83837891 C582.379134,4.83837891 582.81818,4.97591146 583.146143,5.25097656 C583.474105,5.52604167 583.717432,6.04443359 583.876123,6.80615234 C584.034814,7.56787109 584.11416,9.60970052 584.11416,12.9316406 L584.11416,12.9316406 L584.11416,39.2426758 C584.11416,41.0623372 583.987207,42.2683919 583.733301,42.8608398 C583.479395,43.4532878 583.140853,43.855306 582.717676,44.0668945 C581.977116,44.4689128 580.961491,44.6699219 579.670801,44.6699219 L579.670801,44.6699219 L579.670801,45.8125 L594.07998,45.8125 Z M626.729102,45.8125 L626.729102,44.6699219 C625.417253,44.6699219 624.412207,44.4794922 623.713965,44.0986328 C623.015723,43.7177734 622.529069,43.2416992 622.254004,42.6704102 C621.851986,41.8452148 621.650977,40.6285807 621.650977,39.0205078 L621.650977,39.0205078 L621.650977,25.0874023 C622.666602,23.0984701 623.650488,21.6702474 624.602637,20.8027344 C625.046973,20.3795573 625.45957,20.1679688 625.84043,20.1679688 C626.284766,20.1679688 626.967139,20.532959 627.887549,21.2629395 C628.807959,21.9929199 629.638444,22.3579102 630.379004,22.3579102 C631.140723,22.3579102 631.796647,22.0722656 632.346777,21.5009766 C632.896908,20.9296875 633.171973,20.2314453 633.171973,19.40625 C633.171973,18.4752604 632.791113,17.6553548 632.029395,16.9465332 C631.267676,16.2377116 630.304948,15.8833008 629.141211,15.8833008 C626.58099,15.8833008 624.084245,18.0626628 621.650977,22.4213867 L621.650977,22.4213867 L621.650977,15.8833008 L620.317969,15.8833008 L611.526465,19.4379883 L611.843848,20.5805664 C612.669043,20.2631836 613.409603,20.1044922 614.065527,20.1044922 C614.615658,20.1044922 615.075863,20.2526042 615.446143,20.5488281 C615.816423,20.8450521 616.070329,21.3158366 616.207861,21.9611816 C616.345394,22.6065267 616.41416,24.6219076 616.41416,28.0073242 L616.41416,28.0073242 L616.41416,39.2744141 C616.41416,40.9671224 616.361263,41.9933268 616.255469,42.3530273 C616.04388,43.0935872 615.6736,43.633138 615.144629,43.9716797 C614.425228,44.4371745 613.324967,44.6699219 611.843848,44.6699219 L611.843848,44.6699219 L611.843848,45.8125 L626.729102,45.8125 Z M648.460254,46.7011719 C651.147428,46.7011719 653.585986,46.0240885 655.775928,44.6699219 C657.965869,43.3157552 659.685026,41.3056641 660.933398,38.6396484 C662.181771,35.9736328 662.805957,33.3393555 662.805957,30.7368164 C662.805957,27.0340169 661.673958,23.7543945 659.409961,20.8979492 C656.743945,17.5548503 653.210417,15.8833008 648.809375,15.8833008 C646.397266,15.8833008 644.112109,16.5127767 641.953906,17.7717285 C639.795703,19.0306803 638.055387,20.9772949 636.732959,23.6115723 C635.410531,26.2458496 634.749316,28.8959961 634.749316,31.5620117 C634.749316,35.2224935 635.838997,38.5232747 638.018359,41.4643555 C640.59974,44.9555664 644.080371,46.7011719 648.460254,46.7011719 Z M649.825,44.4477539 C647.074349,44.4477539 644.857959,42.913737 643.17583,39.8457031 C641.493701,36.7776693 640.652637,33.1277669 640.652637,28.8959961 C640.652637,26.2722982 641.001758,24.1246745 641.7,22.453125 C642.398242,20.7815755 643.313363,19.6125488 644.445361,18.9460449 C645.57736,18.279541 646.704069,17.9462891 647.825488,17.9462891 C650.152962,17.9462891 652.067839,18.9619141 653.570117,20.9931641 C655.791797,23.9554036 656.902637,28.0179036 656.902637,33.1806641 C656.902637,37.3066406 656.236133,40.2159831 654.903125,41.9086914 C653.570117,43.6013997 651.877409,44.4477539 649.825,44.4477539 Z M679.871582,59.7138672 L679.871582,58.5395508 C678.284668,58.5395508 677.189697,58.3808594 676.58667,58.0634766 C675.983643,57.7460938 675.560465,57.317627 675.317139,56.7780762 C675.073812,56.2385254 674.952148,54.9742839 674.952148,52.9853516 L674.952148,52.9853516 L674.952148,44.1303711 C676.010091,45.0825195 676.96224,45.7172852 677.808594,46.034668 C678.951172,46.4790039 680.305339,46.7011719 681.871094,46.7011719 C685.468099,46.7011719 688.451497,45.3575846 690.821289,42.6704102 C693.698893,39.3907878 695.137695,35.2436523 695.137695,30.2290039 C695.137695,25.7433268 693.94222,22.1040039 691.55127,19.3110352 C689.604655,17.0258789 687.171387,15.8833008 684.251465,15.8833008 C682.579915,15.8833008 680.987712,16.396403 679.474854,17.4226074 C677.961995,18.4488118 676.454427,20.2420247 674.952148,22.8022461 L674.952148,22.8022461 L674.952148,16.0102539 L673.746094,16.0102539 L664.795898,19.628418 L665.176758,20.644043 C665.959635,20.347819 666.60498,20.199707 667.112793,20.199707 C667.747559,20.199707 668.250081,20.3266602 668.620361,20.5805664 C668.990641,20.8344727 669.260417,21.215332 669.429688,21.7231445 C669.598958,22.230957 669.683594,23.4264323 669.683594,25.3095703 L669.683594,25.3095703 L669.683594,52.7949219 C669.683594,54.9108073 669.57251,56.227946 669.350342,56.7463379 C669.128174,57.2647298 668.816081,57.6402995 668.414063,57.8730469 C667.588867,58.3385417 666.594401,58.5607096 665.430664,58.5395508 L665.430664,58.5395508 L664.637207,58.5395508 L664.637207,59.7138672 L679.871582,59.7138672 Z M681.775879,44.796875 C680.019694,44.796875 678.565023,44.3313802 677.411865,43.4003906 C676.258708,42.469401 675.534017,41.3902995 675.237793,40.1630859 C675.047363,39.422526 674.952148,37.8779297 674.952148,35.5292969 L674.952148,24.6748047 C676.708333,22.7705078 677.967285,21.6279297 678.729004,21.2470703 C679.72347,20.7392578 680.728516,20.4853516 681.744141,20.4853516 C683.60612,20.4853516 685.214193,21.3105469 686.568359,22.9609375 C688.514974,25.351888 689.488281,28.769043 689.488281,33.2124023 C689.488281,37.1267904 688.631348,40.1630859 686.91748,42.3212891 C685.605632,43.9716797 683.891764,44.796875 681.775879,44.796875 Z M706.585645,7.12353516 C707.474316,7.12353516 708.230745,6.80615234 708.854932,6.17138672 C709.479118,5.53662109 709.791211,4.77490234 709.791211,3.88623047 C709.791211,2.99755859 709.479118,2.24112956 708.854932,1.61694336 C708.230745,0.992757161 707.474316,0.680664062 706.585645,0.680664062 C705.675814,0.680664062 704.908805,0.992757161 704.284619,1.61694336 C703.660433,2.24112956 703.34834,2.99755859 703.34834,3.88623047 C703.34834,4.77490234 703.665723,5.53662109 704.300488,6.17138672 C704.935254,6.80615234 705.696973,7.12353516 706.585645,7.12353516 Z M713.631543,45.8125 L713.631543,44.6699219 C712.256217,44.6699219 711.309359,44.5218099 710.790967,44.2255859 C710.272575,43.929362 709.881136,43.4797363 709.61665,42.876709 C709.352165,42.2736816 709.219922,41.0623372 709.219922,39.2426758 L709.219922,39.2426758 L709.219922,15.8833008 L707.823438,15.8833008 L699.063672,19.4379883 L699.508008,20.5805664 C700.354362,20.2631836 701.073763,20.1044922 701.666211,20.1044922 C702.216341,20.1044922 702.650098,20.236735 702.96748,20.5012207 C703.284863,20.7657064 703.517611,21.2364909 703.665723,21.9135742 C703.856152,22.8445638 703.951367,24.8863932 703.951367,28.0390625 L703.951367,28.0390625 L703.951367,39.2426758 C703.951367,41.0411784 703.808545,42.2578125 703.5229,42.8925781 C703.237256,43.5273438 702.851107,43.9822591 702.364453,44.2573242 C701.877799,44.5323893 700.925651,44.6699219 699.508008,44.6699219 L699.508008,44.6699219 L699.508008,45.8125 L713.631543,45.8125 Z M730.125879,46.7011719 C733.342025,46.7011719 736.01862,45.5109863 738.155664,43.1306152 C740.292708,40.7502441 741.583398,38.1106771 742.027734,35.2119141 L742.027734,35.2119141 L741.043848,34.5771484 C740.091699,37.1162109 738.912093,38.9094238 737.505029,39.9567871 C736.097965,41.0041504 734.442285,41.527832 732.537988,41.527832 C729.681543,41.527832 727.195378,40.3006185 725.079492,37.8461914 C722.963607,35.3917643 721.916243,32.0063477 721.937402,27.6899414 L721.937402,27.6899414 L742.027734,27.6899414 C742.027734,24.0929362 740.980371,21.2206217 738.885645,19.072998 C736.790918,16.9253743 734.114323,15.8515625 730.855859,15.8515625 C727.004948,15.8515625 723.804671,17.2427572 721.255029,20.0251465 C718.705387,22.8075358 717.430566,26.6848958 717.430566,31.6572266 C717.430566,36.2486979 718.673649,39.90389 721.159814,42.6228027 C723.64598,45.3417155 726.634668,46.7011719 730.125879,46.7011719 Z M735.394434,25.8491211 L721.937402,25.8491211 C722.17015,23.4158529 722.979476,21.5168457 724.365381,20.1520996 C725.751286,18.7873535 727.322331,18.1049805 729.078516,18.1049805 C730.221094,18.1049805 731.316064,18.4435221 732.363428,19.1206055 C733.410791,19.7976888 734.198958,20.7286784 734.72793,21.9135742 C735.066471,22.675293 735.288639,23.9871419 735.394434,25.8491211 L735.394434,25.8491211 Z M756.966895,46.7011719 C759.44248,46.7011719 761.680029,45.8918457 763.679541,44.2731934 C765.679053,42.654541 766.678809,40.5227865 766.678809,37.8779297 C766.678809,34.4501953 764.531185,31.6889648 760.235938,29.5942383 L760.235938,29.5942383 L755.602148,27.3408203 C753.592057,26.367513 752.259049,25.4471029 751.603125,24.5795898 C750.926042,23.7332357 750.5875,22.7176107 750.5875,21.5327148 C750.5875,20.5805664 751.042415,19.7130534 751.952246,18.9301758 C752.862077,18.1472982 754.057552,17.7558594 755.538672,17.7558594 C757.485286,17.7558594 759.08807,18.316569 760.347021,19.4379883 C761.605973,20.5594076 762.637467,22.675293 763.441504,25.7856445 L763.441504,25.7856445 L764.488867,25.7856445 L764.488867,15.8833008 L763.441504,15.8833008 C763.187598,16.3911133 762.96543,16.7190755 762.775,16.8671875 C762.58457,17.0152995 762.320085,17.0893555 761.981543,17.0893555 C761.621842,17.0893555 760.902441,16.9306641 759.82334,16.6132812 C758.194108,16.1266276 756.808203,15.8833008 755.665625,15.8833008 C753.063086,15.8833008 750.941911,16.6873372 749.3021,18.2954102 C747.662288,19.9034831 746.842383,21.9029948 746.842383,24.2939453 C746.842383,26.1347656 747.318457,27.6582031 748.270605,28.8642578 C749.222754,30.0914714 751.232845,31.4667969 754.300879,32.9902344 C757.368913,34.5136719 759.416032,35.7726237 760.442236,36.7670898 C761.468441,37.761556 761.981543,38.9887695 761.981543,40.4487305 C761.981543,41.6547852 761.521338,42.6862793 760.600928,43.5432129 C759.680518,44.4001465 758.490332,44.8286133 757.030371,44.8286133 C754.956803,44.8286133 753.084245,44.077474 751.412695,42.5751953 C749.741146,41.0729167 748.609147,38.8406576 748.016699,35.878418 L748.016699,35.878418 L746.969336,35.878418 L746.969336,46.2568359 L748.016699,46.2568359 C748.291764,45.7067057 748.672624,45.4316406 749.159277,45.4316406 C749.603613,45.4316406 750.174902,45.5374349 750.873145,45.7490234 C753.158301,46.3837891 755.189551,46.7011719 756.966895,46.7011719 Z" id="path-1"></path>
    </defs>
    <g id="CNP-Logo" stroke="none" stroke-width="1" fill="none" fill-rule="evenodd">
        <g id="craignewmarkphilanthropies" fill-rule="nonzero">
            <use fill="#FFFFFF" xlink:href="#path-1"></use>
            <use fill="#E56934" xlink:href="#path-1"></use>
        </g>
    </g>
</svg>