<svg id="Layer_1" data-name="Layer 1" xmlns="http://www.w3.org/2000/svg" viewBox="0 0 484 563"><defs><style>.cls-1,.cls-3{fill:#082659;}.cls-2{fill:none;}.cls-3{isolation:isolate;font-size:24.9px;font-family:Nunito-Regular, Nunito;letter-spacing:0.18em;}.cls-4{letter-spacing:0.2em;}.cls-5{letter-spacing:0.19em;}.cls-6{letter-spacing:0.2em;}.cls-7{letter-spacing:0.2em;}.cls-8{letter-spacing:0.19em;}.cls-9{letter-spacing:0.21em;}</style></defs><path class="cls-1" d="M296.2,68.6,273.3,82l-8.8,5.2v40.4a19.9,19.9,0,0,1-9.8,17l-36,21v36.7l67.7-39.5a19.78,19.78,0,0,0,9.8-17Z"/><path class="cls-1" d="M180.4,83.9,296.7,16.1,272.3,1.9a13.82,13.82,0,0,0-13.9,0L148.7,65.7a13.35,13.35,0,0,0-6.6,11.5V273.8a12.8,12.8,0,0,0,6.3,11l25.4,14.9V95.4A13.35,13.35,0,0,1,180.4,83.9Z"/><path class="cls-1" d="M309.3,60.9v94.7a16.16,16.16,0,0,1-7.9,13.9l-82.7,47.3,20.4,12a26.34,26.34,0,0,0,24.4.8L331,189a20.53,20.53,0,0,0,10.2-17.7L341,42.5Z"/><path class="cls-1" d="M218.7,202.2V121.9a14.48,14.48,0,0,1,7-12.3l47.6-27.8,22.9-13.4,13.2-7.7L341,42.4,320.1,29.9a19.77,19.77,0,0,0-20.2-.2L194.1,91.3a14.23,14.23,0,0,0-7,12.3V297.7a16.84,16.84,0,0,0,8.3,14.5l23.4,13.6V217.6l-.1-15.4Z"/><path class="cls-1" d="M296.2,68.6,273.3,81.9Z"/><path class="cls-1" d="M309.3,60.9l30.5-17.8Z"/><path class="cls-1" d="M3,458.7a3,3,0,0,1-3-3V409.6H39.2c10.9,0,16.3,4.9,16.3,14.7,0,9.5-5.4,14.2-16.3,14.2H10.9v20.1H3Zm7.9-28.9H39.2c3.6,0,5.4-1.7,5.4-4.9v-1.5c0-3.2-1.9-4.9-5.4-4.9H10.9Z"/><path class="cls-1" d="M72.1,458.7a3,3,0,0,1-3-3V409.6h39.2c10.9,0,16.3,4.9,16.3,14.7,0,8.5-4.8,13.2-14.3,14.1a18,18,0,0,1,2,2.4l12.3,17.9H112.3L98.5,438.6H80v20.1ZM80,429.8h28.3c3.6,0,5.4-1.7,5.4-4.9v-1.5c0-3.2-1.9-4.9-5.4-4.9H80Z"/><path class="cls-1" d="M134.5,434.2a23.3,23.3,0,0,1,8-18.2c5.3-4.8,12.2-7.3,20.4-7.3s15,2.5,20.3,7.3a23.68,23.68,0,0,1,8.1,18.2,23.06,23.06,0,0,1-8.1,18.2c-5.3,4.8-12.1,7.3-20.3,7.3s-15-2.5-20.4-7.3C137.1,447.8,134.5,441.6,134.5,434.2Zm11.4,0a15.9,15.9,0,0,0,4.7,11.7,18.65,18.65,0,0,0,24.3,0,16.66,16.66,0,0,0,0-23.4,16.94,16.94,0,0,0-12.1-4.5,17.35,17.35,0,0,0-12.2,4.5A15.9,15.9,0,0,0,145.9,434.2Z"/><path class="cls-1" d="M202.4,447a2.53,2.53,0,0,1,2.6-3h7.9c0,4.6,5.1,6.9,15.2,6.9s15.2-2.4,15.2-7.2c0-3.7-5.2-5.6-15.7-5.6-16.4,0-24.6-4.7-24.6-14,0-10.3,8.4-15.4,25.1-15.4,7.5,0,13.6,1.5,18.2,4.3s6.9,6.7,6.9,11.4H242.3c0-4.6-4.7-6.9-14.2-6.9s-14.2,2.2-14.2,6.6c0,3.4,4.9,5.2,14.7,5.2,17.1,0,25.6,4.8,25.6,14.4,0,10.7-8.7,16-26.1,16-8,0-14.3-1.5-19.1-4.3C205.5,453.2,203.2,450.4,202.4,447Z"/><path class="cls-1" d="M265.5,447a2.53,2.53,0,0,1,2.6-3H276c0,4.6,5.1,6.9,15.2,6.9s15.2-2.4,15.2-7.2c0-3.7-5.2-5.6-15.7-5.6-16.4,0-24.6-4.7-24.6-14,0-10.3,8.4-15.4,25-15.4,7.5,0,13.6,1.5,18.2,4.3s6.9,6.7,6.9,11.4H305.3c0-4.6-4.7-6.9-14.2-6.9s-14.2,2.2-14.2,6.6c0,3.4,4.9,5.2,14.7,5.2,17.1,0,25.6,4.8,25.6,14.4,0,10.7-8.7,16-26.1,16-8,0-14.3-1.5-19.1-4.3A14.35,14.35,0,0,1,265.5,447Z"/><path class="cls-1" d="M342,409.7v49.1h-7.9a3,3,0,0,1-3-3V409.7Z"/><path class="cls-1" d="M358.3,409.7h9.8l17,20.6h.9l17-20.6h9.8v49.1h-7.9a3,3,0,0,1-3-3V424.4h-.2a9.73,9.73,0,0,1-.8,1.9,18.75,18.75,0,0,1-2.3,3.6l-5.1,6.1a8.35,8.35,0,0,1-6.6,3.1h-2.8a8.49,8.49,0,0,1-6.6-3.1l-5.1-6.1a22.53,22.53,0,0,1-2.3-3.6c-.3-.7-.5-1.3-.8-1.9h-.2v34.3h-7.9a3,3,0,0,1-3-3v-46Z"/><path class="cls-1" d="M426.4,434.2a23.3,23.3,0,0,1,8-18.2c5.3-4.8,12.2-7.3,20.4-7.3s15,2.5,20.4,7.3a23.59,23.59,0,0,1,8,18.2,23.3,23.3,0,0,1-8,18.2c-5.3,4.8-12.1,7.3-20.4,7.3s-15-2.5-20.4-7.3C429,447.8,426.4,441.6,426.4,434.2Zm11.4,0a15.9,15.9,0,0,0,4.7,11.7,17,17,0,0,0,12.2,4.5,17.35,17.35,0,0,0,12.2-4.5,15.38,15.38,0,0,0,4.7-11.7,15.9,15.9,0,0,0-4.7-11.7,17,17,0,0,0-12.2-4.5,17.35,17.35,0,0,0-12.2,4.5A15.9,15.9,0,0,0,437.8,434.2Z"/><rect class="cls-2" x="-174" y="495.4" width="832" height="64"/><text class="cls-3" transform="translate(33.56 516.74) scale(1.2 1)">F<tspan class="cls-4" x="18.45" y="0">OR MEMO</tspan><tspan class="cls-5" x="171.24" y="0">R</tspan><tspan class="cls-6" x="193.15" y="0">Y </tspan><tspan class="cls-7" x="224.5" y="0">S</tspan><tspan class="cls-4" x="244.76" y="0">AF</tspan><tspan class="cls-8" x="286.7" y="0">E</tspan><tspan class="cls-9" x="305.87" y="0">T</tspan><tspan class="cls-4" x="325.96" y="0">Y</tspan></text></svg>