<svg width="484" height="461" viewBox="0 0 484 461" fill="none" xmlns="http://www.w3.org/2000/svg">
<path d="M296.71 69.0627L273.846 82.4139L265.001 87.5875V127.975C265.001 134.984 261.246 141.41 255.238 144.998L219.273 166.026V202.742L286.947 163.272C292.955 159.767 296.71 153.259 296.71 146.249V69.0627Z" fill="white"/>
<path d="M180.971 84.4154L297.293 16.6581L272.844 2.38899C268.505 -0.114363 263.248 -0.114363 258.909 2.38899L149.262 66.2244C145.173 68.6443 142.67 72.9835 142.67 77.7398V274.336C142.67 278.842 145.09 283.015 149.012 285.351L174.379 300.204V95.9309C174.379 91.1745 176.882 86.8353 180.971 84.4154Z" fill="white"/>
<path d="M309.894 61.3835V156.094C309.894 161.768 306.89 167.108 301.967 169.945L219.273 217.259L239.633 229.275C247.143 233.697 256.489 233.697 263.999 230.026L331.506 189.388C337.848 185.717 341.687 178.958 341.687 171.698L341.603 43.0256L309.894 61.3835Z" fill="white"/>
<path d="M219.272 202.74V166.024V122.383C219.272 117.376 221.942 112.703 226.282 110.116L273.845 82.3289L296.709 68.9777L309.894 61.3008L341.519 42.9429L320.658 30.4261C314.483 26.6711 306.723 26.6711 300.464 30.2592L194.656 91.8416C190.317 94.345 187.647 99.0179 187.647 104.108V298.201C187.647 304.209 190.817 309.717 195.991 312.721L219.356 326.322V254.81V218.094V202.74H219.272Z" fill="white"/>
<path d="M296.706 69.0627L273.843 82.3305L296.706 69.0627Z" fill="white"/>
<path d="M309.893 61.3854L340.35 43.6116L309.893 61.3854Z" fill="white"/>
<path d="M3.54494 459.253C1.89387 459.253 0.55542 457.914 0.55542 456.263V410.196H39.7635C50.6546 410.196 56.1002 415.102 56.1002 424.913C56.1002 434.43 50.6546 439.14 39.7635 439.14H11.4466V459.253H3.54494ZM11.4466 430.309H39.7635C43.3576 430.309 45.2091 428.641 45.2091 425.404V423.932C45.2091 420.694 43.3576 419.026 39.7635 419.026H11.4466V430.309Z" fill="white"/>
<path d="M72.7031 459.253C71.0521 459.253 69.7136 457.915 69.7136 456.264V410.196H108.922C119.813 410.196 125.258 415.102 125.258 424.913C125.258 433.449 120.466 438.159 110.991 439.042C111.862 439.925 112.516 440.71 112.951 441.396L125.258 459.253H112.951L99.1197 439.14H80.6048V459.253H72.7031ZM80.6048 430.31H108.922C112.516 430.31 114.367 428.642 114.367 425.404V423.932C114.367 420.694 112.516 419.027 108.922 419.027H80.6048V430.31Z" fill="white"/>
<path d="M135.061 434.726C135.061 427.368 137.784 421.186 143.011 416.477C148.348 411.669 155.209 409.217 163.378 409.217C171.546 409.217 178.407 411.669 183.635 416.477C188.972 421.285 191.695 427.368 191.695 434.726C191.695 442.085 188.972 448.266 183.635 452.975C178.299 457.783 171.546 460.236 163.378 460.236C155.209 460.236 148.348 457.783 143.011 452.975C137.675 448.266 135.061 442.085 135.061 434.726ZM146.496 434.726C146.496 439.436 148.13 443.36 151.18 446.402C154.338 449.443 158.368 450.915 163.378 450.915C168.279 450.915 172.308 449.443 175.467 446.402C178.625 443.36 180.259 439.436 180.259 434.726C180.259 430.017 178.625 426.092 175.467 423.051C172.308 420.009 168.279 418.537 163.378 418.537C158.477 418.537 154.447 420.009 151.18 423.051C148.021 426.092 146.496 430.017 146.496 434.726Z" fill="white"/>
<path d="M202.929 447.5C202.541 445.895 203.925 444.538 205.576 444.538H213.477C213.477 449.149 218.596 451.405 228.725 451.405C238.854 451.405 243.973 449.051 243.973 444.243C243.973 440.515 238.745 438.651 228.289 438.651C211.844 438.651 203.675 433.941 203.675 424.62C203.675 414.318 212.062 409.217 228.725 409.217C236.24 409.217 242.339 410.688 246.913 413.534C251.488 416.379 253.775 420.205 253.775 424.915H242.884C242.884 420.303 238.2 418.047 228.725 418.047C219.25 418.047 214.567 420.205 214.567 424.62C214.567 428.054 219.468 429.82 229.27 429.82C246.369 429.82 254.864 434.628 254.864 444.243C254.864 454.938 246.151 460.236 228.725 460.236C220.775 460.236 214.458 458.764 209.666 455.919C206.007 453.696 203.744 450.874 202.929 447.5Z" fill="white"/>
<path d="M266.096 447.5C265.708 445.895 267.091 444.538 268.742 444.538H276.644C276.644 449.149 281.763 451.405 291.892 451.405C302.02 451.405 307.139 449.051 307.139 444.243C307.139 440.515 301.912 438.651 291.456 438.651C275.01 438.651 266.842 433.941 266.842 424.62C266.842 414.318 275.228 409.217 291.892 409.217C299.407 409.217 305.506 410.688 310.08 413.534C314.654 416.379 316.941 420.205 316.941 424.915H306.05C306.05 420.303 301.367 418.047 291.892 418.047C282.416 418.047 277.733 420.205 277.733 424.62C277.733 428.054 282.634 429.82 292.436 429.82C309.535 429.82 318.03 434.628 318.03 444.243C318.03 454.938 309.318 460.236 291.892 460.236C283.941 460.236 277.624 458.764 272.832 455.919C269.173 453.696 266.911 450.874 266.096 447.5Z" fill="white"/>
<path d="M342.537 410.196V459.253H334.636C332.985 459.253 331.646 457.915 331.646 456.264V410.196H342.537Z" fill="white"/>
<path d="M358.874 410.196H368.676L385.666 430.8H386.538L403.528 410.196H413.33V459.253H405.428C403.777 459.253 402.439 457.915 402.439 456.264V424.913H402.221C402.003 425.502 401.785 426.091 401.458 426.778C400.696 428.249 399.934 429.525 399.171 430.408L394.11 436.531C392.487 438.494 390.073 439.63 387.526 439.63H384.678C382.131 439.63 379.717 438.494 378.094 436.531L373.033 430.408C372.27 429.525 371.508 428.249 370.745 426.778C370.419 426.091 370.201 425.502 369.983 424.913H369.765V459.253H361.864C360.212 459.253 358.874 457.915 358.874 456.264V410.196Z" fill="white"/>
<path d="M426.945 434.726C426.945 427.368 429.668 421.186 434.896 416.477C440.233 411.669 447.094 409.217 455.262 409.217C463.431 409.217 470.292 411.669 475.629 416.477C480.965 421.285 483.579 427.368 483.579 434.726C483.579 442.085 480.857 448.266 475.629 452.975C470.292 457.783 463.54 460.236 455.262 460.236C447.094 460.236 440.233 457.783 434.896 452.975C429.559 448.266 426.945 442.085 426.945 434.726ZM438.381 434.726C438.381 439.436 440.015 443.36 443.064 446.402C446.223 449.443 450.252 450.915 455.262 450.915C460.163 450.915 464.193 449.443 467.46 446.402C470.619 443.36 472.144 439.436 472.144 434.726C472.144 430.017 470.51 426.092 467.46 423.051C464.302 420.009 460.272 418.537 455.262 418.537C450.361 418.537 446.332 420.009 443.064 423.051C439.906 426.092 438.381 430.017 438.381 434.726Z" fill="white"/>
</svg>
