<svg width="183" height="299" viewBox="0 0 183 299" fill="none" xmlns="http://www.w3.org/2000/svg">
<path d="M141.095 62.7896L120.152 75.0188L112.05 79.7577V116.751C112.05 123.172 108.611 129.057 103.107 132.344L70.1648 151.605V185.235L132.152 149.082C137.655 145.872 141.095 139.911 141.095 133.49V62.7896Z" fill="#14DFB4"/>
<path d="M35.0828 76.8535L141.63 14.7898L119.236 1.71974C115.261 -0.573248 110.446 -0.573248 106.471 1.71974L6.03821 60.191C2.29299 62.4076 0 66.3821 0 70.7388V250.815C0 254.942 2.21656 258.764 5.80892 260.904L29.0446 274.509V87.4012C29.0446 83.0445 31.3376 79.07 35.0828 76.8535Z" fill="#082659"/>
<path d="M153.171 55.7572V142.509C153.171 147.706 150.42 152.598 145.91 155.197L70.1648 198.534L88.8145 209.54C95.6935 213.591 104.254 213.591 111.133 210.228L172.967 173.006C178.776 169.642 182.292 163.451 182.292 156.802L182.216 38.9419L153.171 55.7572Z" fill="#14DFB4"/>
<path d="M70.1644 185.235V151.605V111.63C70.1644 107.044 72.6102 102.764 76.5848 100.394L120.152 74.9422L141.094 62.7129L153.171 55.6811L182.139 38.8658L163.031 27.4008C157.374 23.9613 150.266 23.9613 144.534 27.2479L47.6166 83.6555C43.6421 85.9485 41.1962 90.2288 41.1962 94.8912V272.675C41.1962 278.178 44.1007 283.222 48.8395 285.974L70.2408 298.432V232.929V199.299V185.235H70.1644Z" fill="#082659"/>
<path d="M141.093 62.7896L120.151 74.9424L141.093 62.7896Z" fill="black"/>
<path d="M153.17 55.7583L181.068 39.478L153.17 55.7583Z" fill="black"/>
</svg>
