<svg width="484" height="460" viewBox="0 0 484 460" fill="none" xmlns="http://www.w3.org/2000/svg">
<path d="M296.154 68.5513L273.29 81.9025L264.445 87.0761V127.463C264.445 134.473 260.69 140.898 254.682 144.486L218.717 165.514V202.23L286.391 162.761C292.399 159.256 296.154 152.747 296.154 145.738V68.5513Z" fill="#14DFB4"/>
<path d="M180.416 83.904L296.738 16.1466L272.288 1.87751C267.949 -0.625838 262.692 -0.625838 258.353 1.87751L148.706 65.7129C144.618 68.1329 142.114 72.472 142.114 77.2284V273.825C142.114 278.331 144.534 282.503 148.456 284.84L173.823 299.693V95.4194C173.823 90.663 176.327 86.3239 180.416 83.904Z" fill="#14DFB4"/>
<path d="M309.339 60.8721V155.582C309.339 161.256 306.335 166.597 301.411 169.434L218.717 216.747L239.078 228.763C246.588 233.186 255.934 233.186 263.444 229.514L330.951 188.877C337.293 185.205 341.131 178.446 341.131 171.186L341.048 42.5142L309.339 60.8721Z" fill="#14DFB4"/>
<path d="M218.717 202.229V165.513V121.871C218.717 116.864 221.387 112.191 225.726 109.605L273.29 81.8174L296.154 68.4662L309.338 60.7893L340.964 42.4314L320.102 29.9146C313.928 26.1596 306.167 26.1596 299.909 29.7477L194.101 91.3302C189.761 93.8335 187.091 98.5064 187.091 103.597V297.69C187.091 303.698 190.262 309.205 195.436 312.209L218.8 325.811V254.298V217.582V202.229H218.717Z" fill="#14DFB4"/>
<path d="M296.151 68.5513L273.287 81.819L296.151 68.5513Z" fill="#14DFB4"/>
<path d="M309.337 60.8739L339.795 43.1001L309.337 60.8739Z" fill="#14DFB4"/>
<path d="M2.98952 458.741C1.33845 458.741 0 457.403 0 455.752V409.685H39.2081C50.0992 409.685 55.5448 414.59 55.5448 424.402C55.5448 433.919 50.0992 438.628 39.2081 438.628H10.8911V458.741H2.98952ZM10.8911 429.798H39.2081C42.8021 429.798 44.6536 428.13 44.6536 424.892V423.421C44.6536 420.183 42.8021 418.515 39.2081 418.515H10.8911V429.798Z" fill="#14DFB4"/>
<path d="M72.1477 458.742C70.4967 458.742 69.1582 457.403 69.1582 455.752V409.685H108.366C119.257 409.685 124.703 414.591 124.703 424.402C124.703 432.938 119.911 437.647 110.436 438.531C111.307 439.414 111.96 440.198 112.396 440.885L124.703 458.742H112.396L98.5643 438.629H80.0493V458.742H72.1477ZM80.0493 429.798H108.366C111.96 429.798 113.812 428.13 113.812 424.893V423.421C113.812 420.183 111.96 418.515 108.366 418.515H80.0493V429.798Z" fill="#14DFB4"/>
<path d="M134.505 434.215C134.505 426.856 137.228 420.675 142.456 415.966C147.793 411.158 154.654 408.705 162.822 408.705C170.991 408.705 177.852 411.158 183.08 415.966C188.416 420.773 191.139 426.856 191.139 434.215C191.139 441.573 188.416 447.754 183.08 452.464C177.743 457.271 170.991 459.724 162.822 459.724C154.654 459.724 147.793 457.271 142.456 452.464C137.119 447.754 134.505 441.573 134.505 434.215ZM145.941 434.215C145.941 438.924 147.575 442.849 150.624 445.89C153.783 448.932 157.812 450.403 162.822 450.403C167.723 450.403 171.753 448.932 174.911 445.89C178.07 442.849 179.704 438.924 179.704 434.215C179.704 429.505 178.07 425.581 174.911 422.539C171.753 419.498 167.723 418.026 162.822 418.026C157.921 418.026 153.892 419.498 150.624 422.539C147.466 425.581 145.941 429.505 145.941 434.215Z" fill="#14DFB4"/>
<path d="M202.374 446.989C201.986 445.384 203.369 444.026 205.02 444.026H212.922C212.922 448.637 218.041 450.894 228.17 450.894C238.298 450.894 243.417 448.539 243.417 443.732C243.417 440.003 238.189 438.139 227.734 438.139C211.288 438.139 203.12 433.43 203.12 424.109C203.12 413.807 211.506 408.705 228.17 408.705C235.684 408.705 241.784 410.177 246.358 413.022C250.932 415.867 253.219 419.694 253.219 424.403H242.328C242.328 419.792 237.645 417.535 228.17 417.535C218.694 417.535 214.011 419.694 214.011 424.109C214.011 427.543 218.912 429.309 228.714 429.309C245.813 429.309 254.308 434.117 254.308 443.732C254.308 454.426 245.595 459.724 228.17 459.724C220.219 459.724 213.902 458.253 209.11 455.407C205.451 453.184 203.189 450.363 202.374 446.989Z" fill="#14DFB4"/>
<path d="M265.54 446.989C265.153 445.384 266.536 444.026 268.187 444.026H276.089C276.089 448.637 281.208 450.894 291.336 450.894C301.465 450.894 306.584 448.539 306.584 443.732C306.584 440.003 301.356 438.139 290.901 438.139C274.455 438.139 266.287 433.43 266.287 424.109C266.287 413.807 274.673 408.705 291.336 408.705C298.851 408.705 304.95 410.177 309.525 413.022C314.099 415.867 316.386 419.694 316.386 424.403H305.495C305.495 419.792 300.812 417.535 291.336 417.535C281.861 417.535 277.178 419.694 277.178 424.109C277.178 427.543 282.079 429.309 291.881 429.309C308.98 429.309 317.475 434.117 317.475 443.732C317.475 454.426 308.762 459.724 291.336 459.724C283.386 459.724 277.069 458.253 272.277 455.407C268.618 453.184 266.355 450.363 265.54 446.989Z" fill="#14DFB4"/>
<path d="M341.982 409.685V458.742H334.08C332.429 458.742 331.091 457.403 331.091 455.752V409.685H341.982Z" fill="#14DFB4"/>
<path d="M358.319 409.685H368.121L385.111 430.289H385.982L402.972 409.685H412.774V458.742H404.873C403.222 458.742 401.883 457.404 401.883 455.752V424.402H401.665C401.447 424.991 401.23 425.579 400.903 426.266C400.141 427.738 399.378 429.013 398.616 429.897L393.554 436.02C391.931 437.983 389.518 439.119 386.971 439.119H384.122C381.575 439.119 379.161 437.983 377.539 436.02L372.477 429.897C371.715 429.013 370.952 427.738 370.19 426.266C369.863 425.579 369.645 424.991 369.428 424.402H369.21V458.742H361.308C359.657 458.742 358.319 457.404 358.319 455.752V409.685Z" fill="#14DFB4"/>
<path d="M426.39 434.215C426.39 426.856 429.113 420.675 434.34 415.966C439.677 411.158 446.539 408.705 454.707 408.705C462.875 408.705 469.737 411.158 475.073 415.966C480.41 420.773 483.024 426.856 483.024 434.215C483.024 441.573 480.301 447.754 475.073 452.464C469.737 457.271 462.984 459.724 454.707 459.724C446.539 459.724 439.677 457.271 434.34 452.464C429.004 447.754 426.39 441.573 426.39 434.215ZM437.826 434.215C437.826 438.924 439.459 442.849 442.509 445.89C445.667 448.932 449.697 450.403 454.707 450.403C459.608 450.403 463.638 448.932 466.905 445.89C470.063 442.849 471.588 438.924 471.588 434.215C471.588 429.505 469.955 425.581 466.905 422.539C463.747 419.498 459.717 418.026 454.707 418.026C449.806 418.026 445.776 419.498 442.509 422.539C439.35 425.581 437.826 429.505 437.826 434.215Z" fill="#14DFB4"/>
</svg>
