<svg id="Layer_1" data-name="Layer 1" xmlns="http://www.w3.org/2000/svg" xmlns:xlink="http://www.w3.org/1999/xlink" viewBox="0 0 1206 393.5"><defs><style>.cls-1{fill:none;}.cls-2{fill:#14dfb4;}.cls-3,.cls-5{fill:#082659;}.cls-4{clip-path:url(#clip-path);}.cls-5{isolation:isolate;font-size:39.01px;font-family:Nunito-Regular, Nunito;letter-spacing:0.18em;}.cls-6{letter-spacing:0.19em;}.cls-7{letter-spacing:0.19em;}.cls-8{letter-spacing:0.19em;}.cls-9{letter-spacing:0.19em;}.cls-10{letter-spacing:0.18em;}.cls-11{letter-spacing:0.2em;}.cls-12{letter-spacing:0.19em;}</style><clipPath id="clip-path"><rect class="cls-1" x="252.3" y="100" width="952.7" height="100.6"/></clipPath></defs><path class="cls-2" d="M166.7,87.2,145.8,99.4l-8.1,4.7v37a18.21,18.21,0,0,1-8.9,15.6L95.8,176v33.6l62-36.2a18.09,18.09,0,0,0,8.9-15.6Z"/><path class="cls-3" d="M60.7,101.3,167.2,39.2,144.8,26.1a12.73,12.73,0,0,0-12.8,0L31.6,84.6a12.26,12.26,0,0,0-6,10.5V275.2a11.88,11.88,0,0,0,5.8,10.1l23.2,13.6V111.8A12.35,12.35,0,0,1,60.7,101.3Z"/><path class="cls-2" d="M178.8,80.2V167a14.74,14.74,0,0,1-7.3,12.7L95.8,223l18.6,11a23.54,23.54,0,0,0,22.3.7l61.8-37.2a18.8,18.8,0,0,0,9.3-16.2l-.1-117.9Z"/><path class="cls-3" d="M95.8,209.6V136a12.89,12.89,0,0,1,6.4-11.2l43.6-25.5,20.9-12.2,12.1-7,29-16.8L188.7,51.8a18.53,18.53,0,0,0-18.5-.2L73.3,108a12.89,12.89,0,0,0-6.4,11.2V297a15.45,15.45,0,0,0,7.6,13.3l21.4,12.5V223.7l-.1-14.1Z"/><path d="M166.7,87.2,145.8,99.4Z"/><path d="M178.8,80.2l27.9-16.3Z"/><g class="cls-4"><path class="cls-3" d="M255.1,198.6a2.69,2.69,0,0,1-2.7-2.7v-94h77.3q32.25,0,32.2,29c0,18.8-10.7,28.1-32.2,28.1H273.8v39.7H255.1v-.1Zm18.7-57h55.9c7.1,0,10.7-3.3,10.7-9.7V129c0-6.4-3.7-9.7-10.7-9.7H273.8Z"/><path class="cls-3" d="M391.5,198.6a2.69,2.69,0,0,1-2.7-2.7v-94h77.3q32.25,0,32.2,29c0,16.8-9.5,26.1-28.1,27.9a34.19,34.19,0,0,1,3.9,4.6l24.3,35.2H474L446.7,159H410.2v39.7l-18.7-.1Zm18.7-57h55.9c7.1,0,10.7-3.3,10.7-9.7V129c0-6.4-3.7-9.7-10.7-9.7H410.2Z"/><path class="cls-3" d="M517.6,150.3c0-14.5,5.4-26.7,15.7-36,10.5-9.5,24.1-14.3,40.2-14.3s29.6,4.8,40,14.3,15.9,21.5,15.9,36-5.4,26.7-15.9,36c-10.5,9.5-23.8,14.3-40,14.3s-29.6-4.8-40.2-14.3C522.8,177,517.6,164.8,517.6,150.3Zm22.6,0c0,9.3,3.2,17,9.2,23,6.2,6,14.2,8.9,24.1,8.9,9.7,0,17.6-2.9,23.8-8.9a30.83,30.83,0,0,0,9.5-23c0-9.3-3.2-17-9.5-23s-14.2-8.9-23.8-8.9-17.6,2.9-24.1,8.9C543.2,133.2,540.2,141,540.2,150.3Z"/><path class="cls-3" d="M650.9,172.3a2.49,2.49,0,0,1,2.6-2.7h18.7c0,9.1,10.1,13.5,30.1,13.5s30.1-4.6,30.1-14.1c0-7.4-10.3-11-30.9-11-32.4,0-48.5-9.3-48.5-27.7q0-30.45,49.4-30.4c14.8,0,26.9,2.9,35.9,8.5s13.5,13.2,13.5,22.4H730.3c0-9.1-9.2-13.5-27.9-13.5s-27.9,4.3-27.9,13c0,6.8,9.7,10.3,29,10.3q50.55,0,50.5,28.4c0,21.1-17.2,31.5-51.6,31.5-15.7,0-28.1-2.9-37.6-8.5C656.5,187,651.8,180.4,650.9,172.3Z"/><path class="cls-3" d="M775.5,172.3a2.49,2.49,0,0,1,2.6-2.7h18.7c0,9.1,10.1,13.5,30.1,13.5S857,178.5,857,169c0-7.4-10.3-11-30.9-11-32.4,0-48.5-9.3-48.5-27.7q0-30.45,49.4-30.4c14.8,0,26.9,2.9,35.9,8.5s13.5,13.2,13.5,22.4H854.9c0-9.1-9.2-13.5-27.9-13.5s-27.9,4.3-27.9,13c0,6.8,9.7,10.3,29,10.3q50.55,0,50.5,28.4c0,21.1-17.2,31.5-51.6,31.5-15.7,0-28.1-2.9-37.6-8.5C781,187,776.4,180.4,775.5,172.3Z"/><path class="cls-3" d="M926.8,101.9v96.7H908.1a2.69,2.69,0,0,1-2.7-2.7v-94Z"/><path class="cls-3" d="M959.1,101.9h19.3l33.5,40.6h1.7l33.5-40.6h19.3v96.7h-18.7a2.69,2.69,0,0,1-2.7-2.7v-65h-.4c-.4,1.2-.9,2.3-1.5,3.7a41,41,0,0,1-4.5,7.2l-12.7,15.3a7.79,7.79,0,0,1-6,2.8h-14.1a7.79,7.79,0,0,1-6-2.8L987,141.8a37.6,37.6,0,0,1-4.5-7.2c-.6-1.4-1.1-2.5-1.5-3.7h-.4v67.7H961.9a2.69,2.69,0,0,1-2.7-2.7l-.1-94Z"/><path class="cls-3" d="M1093.3,150.3c0-14.5,5.4-26.7,15.7-36,10.5-9.5,24.1-14.3,40.2-14.3s29.7,4.8,40.2,14.3,15.7,21.5,15.7,36-5.4,26.7-15.7,36c-10.5,9.5-23.8,14.3-40.2,14.3-16.1,0-29.6-4.8-40.2-14.3C1098.5,177,1093.3,164.8,1093.3,150.3Zm22.6,0c0,9.3,3.2,17,9.2,23,6.2,6,14.2,8.9,24.1,8.9,9.7,0,17.6-2.9,24.1-8.9,6.2-6,9.2-13.7,9.2-23s-3.2-17-9.2-23c-6.2-6-14.2-8.9-24.1-8.9-9.7,0-17.6,2.9-24.1,8.9C1118.9,133.2,1115.9,141,1115.9,150.3Z"/></g><rect class="cls-1" x="247.9" y="241.5" width="832" height="64"/><text class="cls-5" transform="translate(247.85 274.84) scale(1.2 1)">F<tspan class="cls-6" x="28.56" y="0">OR MEMO</tspan><tspan class="cls-7" x="265.46" y="0">R</tspan><tspan class="cls-8" x="299.44" y="0">Y </tspan><tspan class="cls-9" x="347.85" y="0">S</tspan><tspan class="cls-6" x="379.25" y="0">AF</tspan><tspan class="cls-10" x="444.24" y="0">E</tspan><tspan class="cls-11" x="473.93" y="0">T</tspan><tspan class="cls-12" x="505.06" y="0">Y</tspan></text></svg>