<svg xmlns="http://www.w3.org/2000/svg" viewBox="0 0 484 587.31"><defs><style>.cls-1,.cls-3{fill:#082659;}.cls-2{fill:#14dfb4;}.cls-3{font-size:30px;font-family:Nunito-Regular, Nunito;letter-spacing:0.2em;}.cls-4{letter-spacing:0.21em;}.cls-5{letter-spacing:0.21em;}.cls-6{letter-spacing:0.21em;}.cls-7{letter-spacing:0.2em;}.cls-8{letter-spacing:0.22em;}</style></defs><g id="Wordmark"><path class="cls-1" d="M3,459.74a3,3,0,0,1-3-3V410.68H39.21q16.34,0,16.33,14.72c0,9.52-5.44,14.23-16.33,14.23H10.89v20.11Zm7.9-28.94H39.21c3.59,0,5.44-1.67,5.44-4.91v-1.47c0-3.24-1.85-4.9-5.44-4.9H10.89Z"/><path class="cls-1" d="M72.15,459.74a3,3,0,0,1-3-3V410.68h39.21q16.34,0,16.33,14.72c0,8.54-4.79,13.25-14.26,14.13a14.86,14.86,0,0,1,2,2.36l12.3,17.85H112.4L98.56,439.63H80.05v20.11Zm7.9-28.94h28.32c3.59,0,5.44-1.67,5.44-4.91v-1.47c0-3.24-1.85-4.9-5.44-4.9H80.05Z"/><path class="cls-1" d="M134.51,435.21a23.64,23.64,0,0,1,8-18.24c5.33-4.81,12.19-7.27,20.36-7.27s15,2.46,20.26,7.27a24.68,24.68,0,0,1,0,36.49c-5.34,4.81-12.09,7.26-20.26,7.26s-15-2.45-20.36-7.26S134.51,442.57,134.51,435.21Zm11.43,0a15.93,15.93,0,0,0,4.68,11.68c3.16,3,7.19,4.51,12.2,4.51a16.69,16.69,0,0,0,12.09-4.51,16.62,16.62,0,0,0,0-23.35A16.69,16.69,0,0,0,162.82,419a17.13,17.13,0,0,0-12.2,4.51A15.54,15.54,0,0,0,145.94,435.21Z"/><path class="cls-1" d="M202.37,448a2.52,2.52,0,0,1,2.65-3h7.9c0,4.61,5.12,6.86,15.25,6.86s15.25-2.35,15.25-7.16q0-5.6-15.69-5.59c-16.44,0-24.61-4.71-24.61-14,0-10.3,8.39-15.41,25-15.41,7.51,0,13.61,1.48,18.19,4.32s6.86,6.67,6.86,11.38H242.33c0-4.61-4.68-6.86-14.16-6.86S214,420.69,214,425.11c0,3.43,4.9,5.2,14.7,5.2,17.1,0,25.6,4.81,25.6,14.42,0,10.7-8.71,16-26.14,16-7.95,0-14.27-1.47-19.06-4.31C205.45,454.18,203.19,451.36,202.37,448Z"/><path class="cls-1" d="M265.54,448a2.51,2.51,0,0,1,2.65-3h7.9c0,4.61,5.12,6.86,15.25,6.86s15.24-2.35,15.24-7.16q0-5.6-15.68-5.59c-16.45,0-24.61-4.71-24.61-14,0-10.3,8.38-15.41,25-15.41,7.51,0,13.61,1.48,18.18,4.32s6.87,6.67,6.87,11.38h-10.9c0-4.61-4.68-6.86-14.15-6.86s-14.16,2.15-14.16,6.57c0,3.43,4.9,5.2,14.7,5.2,17.1,0,25.6,4.81,25.6,14.42,0,10.7-8.72,16-26.14,16-7.95,0-14.27-1.47-19.06-4.31C268.62,454.18,266.36,451.36,265.54,448Z"/><path class="cls-1" d="M342,410.68v49.06h-7.9a3,3,0,0,1-3-3V410.68Z"/><path class="cls-1" d="M358.32,410.68h9.8l17,20.61H386l17-20.61h9.8v49.06h-7.9a3,3,0,0,1-3-3V425.4h-.21c-.22.59-.44,1.18-.77,1.87a19.77,19.77,0,0,1-2.28,3.63L393.55,437a8.54,8.54,0,0,1-6.58,3.1h-2.85a8.55,8.55,0,0,1-6.58-3.1l-5.06-6.12a19.24,19.24,0,0,1-2.29-3.63,18.44,18.44,0,0,1-.76-1.87h-.22v34.34h-7.9a3,3,0,0,1-3-3Z"/><path class="cls-1" d="M426.39,435.21A23.64,23.64,0,0,1,434.34,417c5.34-4.81,12.2-7.27,20.37-7.27s15,2.46,20.36,7.27A23.42,23.42,0,0,1,483,435.21a23.66,23.66,0,0,1-7.95,18.25c-5.33,4.81-12.09,7.26-20.36,7.26s-15-2.45-20.37-7.26S426.39,442.57,426.39,435.21Zm11.44,0a15.93,15.93,0,0,0,4.68,11.68c3.16,3,7.19,4.51,12.2,4.51a17.09,17.09,0,0,0,12.19-4.51,15.52,15.52,0,0,0,4.69-11.68,15.93,15.93,0,0,0-4.69-11.67c-3.15-3-7.18-4.51-12.19-4.51a17.13,17.13,0,0,0-12.2,4.51A15.5,15.5,0,0,0,437.83,435.21Z"/></g><g id="Logo"><path class="cls-2" d="M296.8,68.89l-23,13.42-8.89,5.2v40.58a20,20,0,0,1-9.81,17.11L219,166.33v36.9l68-39.66a19.87,19.87,0,0,0,9.81-17.11Z"/><path class="cls-1" d="M180.49,84.32l116.9-68.09L272.82,1.89a13.93,13.93,0,0,0-14,0L148.62,66A13.42,13.42,0,0,0,142,77.61V275.18a12.92,12.92,0,0,0,6.37,11.07l25.5,14.92V95.89A13.4,13.4,0,0,1,180.49,84.32Z"/><path class="cls-2" d="M310.05,61.17v95.18a16.09,16.09,0,0,1-8,13.92L219,217.82l20.46,12.08a26.15,26.15,0,0,0,24.49.75l67.84-40.84A20.53,20.53,0,0,0,342,172l-.08-129.3Z"/><path class="cls-1" d="M219,203.23V122.47a14.38,14.38,0,0,1,7-12.32l47.8-27.93,23-13.41,13.25-7.72,31.78-18.45-21-12.58a20,20,0,0,0-20.3-.16L194.24,91.78a14.19,14.19,0,0,0-7,12.33V299.16a16.82,16.82,0,0,0,8.38,14.59l23.48,13.67V203.23Z"/><path d="M296.8,68.89l-23,13.33Z"/><path d="M310.05,61.17l30.61-17.86Z"/><text class="cls-3" transform="translate(33.98 519.64) scale(1 0.83)">F<tspan class="cls-4" x="22.56" y="0">OR MEMO</tspan><tspan class="cls-5" x="208.95" y="0">R</tspan><tspan class="cls-4" x="235.68" y="0">Y </tspan><tspan class="cls-6" x="274.11" y="0">S</tspan><tspan class="cls-4" x="298.86" y="0">AF</tspan><tspan class="cls-7" x="350.04" y="0">E</tspan><tspan class="cls-8" x="373.47" y="0">T</tspan><tspan class="cls-4" x="398.01" y="0">Y</tspan></text></g></svg>