<svg width="374" height="120" viewBox="0 0 374 120" fill="none" xmlns="http://www.w3.org/2000/svg">
<path d="M82.837 65.3453C89.5711 68.308 99.0475 69.375 99.3624 72.6588C99.6569 75.6941 93.8979 76.8025 87.4077 76.4088C89.0328 78.4185 90.3227 80.3453 90.2211 81.7231C90.0586 84.0332 87.6311 85.5352 83.8019 85.5352C79.5108 85.5352 72.9095 82.7968 71.3248 75.4001C71.3884 75.7038 71.9493 78.5047 71.6136 81.1948C71.187 84.5925 68.6681 90 64.6866 90C60.7051 90 58.1862 84.5925 57.7596 81.1948C57.4239 78.5047 57.9848 75.7038 58.0483 75.4001C56.4636 82.7968 49.8522 85.5352 45.5712 85.5352C41.7421 85.5352 39.3146 84.0332 39.1521 81.7231C39.0505 80.3453 40.3303 78.4289 41.9655 76.4088C35.4753 76.8025 29.7163 75.6941 30.0108 72.6588C30.3358 69.3854 39.8123 68.308 46.5362 65.3453C45.0736 62.3722 42.8289 59.0055 43.7938 52.8108C45.0837 44.5649 52.092 30 64.6866 30C77.2812 30 84.2895 44.5753 85.5794 52.8108C86.5443 59.0055 84.3098 62.3722 82.837 65.3453Z" fill="white"/>
<path d="M99.3623 72.6588C99.0475 69.375 89.5711 68.308 82.837 65.3453C84.3098 62.3722 86.5443 59.0055 85.5794 52.8108C84.2895 44.5753 77.2812 30 64.6866 30C52.092 30 45.0837 44.5649 43.7938 52.8108C42.8289 59.0055 45.0736 62.3722 46.5362 65.3453C39.8123 68.308 30.3358 69.3854 30.0108 72.6588C29.7163 75.6941 35.4753 76.8025 41.9655 76.4088C40.3303 78.4289 39.0505 80.3453 39.1521 81.7231C39.3146 84.0332 41.7421 85.5352 45.5712 85.5352C49.8575 85.5352 56.4798 82.7901 58.0541 75.3729C58.0541 75.3729 57.4041 78.346 57.7596 81.1948C58.1862 84.5925 60.7051 90 64.6866 90C68.6681 90 71.187 84.5925 71.6136 81.1948C71.9691 78.346 71.3191 75.3729 71.3191 75.3729C72.8934 82.7901 79.5056 85.5352 83.8019 85.5352C87.6311 85.5352 90.0586 84.0332 90.2211 81.7231C90.3227 80.3453 89.0328 78.4185 87.4076 76.4088C93.8979 76.8025 99.6569 75.6941 99.3623 72.6588ZM51.4927 42.317C50.7411 41.6644 50.9443 40.2555 51.9396 39.1678C52.935 38.0801 54.357 37.7175 55.1086 38.3702C55.8602 39.0228 55.6571 40.4316 54.6617 41.5193C53.6663 42.607 52.2443 42.9593 51.4927 42.317ZM58.3487 61.0877C55.2508 61.0877 52.742 58.529 52.742 55.3695C52.742 52.2099 55.2508 49.6512 58.3487 49.6512C61.4465 49.6512 63.9553 52.2099 63.9553 55.3695C63.9553 58.5186 61.4465 61.0877 58.3487 61.0877ZM61.7716 38.567C59.5878 39.5615 57.2619 39.2196 56.5712 37.8108C55.8805 36.3916 57.0892 34.4441 59.2729 33.4496C61.4567 32.4551 63.7826 32.797 64.4733 34.2058C65.164 35.6146 63.9553 37.5725 61.7716 38.567ZM76.8546 61.0877C73.7567 61.0877 71.248 58.529 71.248 55.3695C71.248 52.2099 73.7567 49.6512 76.8546 49.6512C79.9525 49.6512 82.4612 52.2099 82.4612 55.3695C82.4612 58.5186 79.9525 61.0877 76.8546 61.0877ZM77.3117 55.328L79.3735 52.8522C78.7336 52.1789 77.8398 51.7645 76.8546 51.7645C74.9045 51.7645 73.3301 53.3702 73.3301 55.3591C73.3301 57.3481 74.9045 58.9537 76.8546 58.9537C78.8047 58.9537 80.379 57.3481 80.379 55.3591C80.379 55.3488 80.379 55.3384 80.379 55.328H77.3117ZM61.863 55.328C61.863 55.3384 61.863 55.3488 61.863 55.3591C61.863 57.3481 60.2886 58.9537 58.3385 58.9537C56.3884 58.9537 54.8141 57.3481 54.8141 55.3591C54.8141 53.3702 56.3884 51.7645 58.3385 51.7645C59.3237 51.7645 60.2175 52.1789 60.8574 52.8522L58.7956 55.328H61.863Z" fill="#3443F4"/>
<path d="M132.966 54.5734H139.665C139.459 52.7322 138.96 51.0988 138.166 49.6733C137.373 48.2478 136.36 47.0599 135.126 46.1096C133.921 45.1296 132.54 44.3871 130.983 43.8823C129.455 43.3774 127.825 43.125 126.091 43.125C123.682 43.125 121.508 43.5556 119.569 44.4168C117.659 45.2781 116.044 46.466 114.721 47.9806C113.399 49.4951 112.386 51.277 111.681 53.3261C110.976 55.3456 110.623 57.5432 110.623 59.919C110.623 62.2354 110.976 64.4033 111.681 66.4228C112.386 68.4125 113.399 70.1498 114.721 71.6347C116.044 73.1196 117.659 74.2927 119.569 75.1539C121.508 75.9854 123.682 76.4012 126.091 76.4012C128.03 76.4012 129.808 76.1042 131.424 75.5103C133.04 74.9163 134.45 74.0551 135.654 72.9266C136.859 71.7981 137.828 70.432 138.563 68.8283C139.297 67.2246 139.753 65.4279 139.929 63.4382H133.231C132.966 65.5764 132.232 67.2989 131.027 68.6056C129.852 69.9123 128.207 70.5656 126.091 70.5656C124.534 70.5656 123.212 70.2686 122.125 69.6747C121.038 69.051 120.157 68.2343 119.481 67.2246C118.805 66.2149 118.306 65.0864 117.983 63.8391C117.689 62.5621 117.542 61.2554 117.542 59.919C117.542 58.5232 117.689 57.172 117.983 55.8653C118.306 54.5586 118.805 53.4004 119.481 52.3907C120.157 51.3512 121.038 50.5346 122.125 49.9406C123.212 49.317 124.534 49.0051 126.091 49.0051C126.943 49.0051 127.751 49.1536 128.515 49.4506C129.308 49.7179 130.014 50.1039 130.631 50.6088C131.247 51.1137 131.762 51.7076 132.173 52.3907C132.584 53.044 132.849 53.7716 132.966 54.5734Z" fill="#3443F4"/>
<path d="M143.111 43.8823V75.6884H149.369V63.6164C149.369 61.2702 149.751 59.5923 150.515 58.5826C151.279 57.5432 152.513 57.0235 154.217 57.0235C155.715 57.0235 156.758 57.4987 157.346 58.449C157.933 59.3696 158.227 60.7802 158.227 62.6809V75.6884H164.485V61.5227C164.485 60.0972 164.353 58.8053 164.088 57.6471C163.853 56.4592 163.427 55.4644 162.81 54.6625C162.193 53.831 161.341 53.1925 160.254 52.747C159.197 52.2719 157.831 52.0343 156.156 52.0343C154.981 52.0343 153.776 52.3461 152.542 52.9698C151.308 53.5637 150.295 54.5289 149.501 55.8653H149.369V43.8823H143.111Z" fill="#3443F4"/>
<path d="M168.089 59.7408C168.177 58.2559 168.544 57.0235 169.19 56.0435C169.837 55.0634 170.659 54.2765 171.658 53.6825C172.657 53.0886 173.774 52.6728 175.008 52.4352C176.271 52.1679 177.534 52.0343 178.798 52.0343C179.943 52.0343 181.104 52.1234 182.279 52.3016C183.454 52.4501 184.527 52.7619 185.496 53.237C186.466 53.7122 187.259 54.3804 187.876 55.2416C188.493 56.0732 188.801 57.1868 188.801 58.5826V70.5656C188.801 71.605 188.86 72.5999 188.978 73.5502C189.095 74.5005 189.301 75.2133 189.595 75.6884H183.249C183.131 75.3321 183.028 74.9757 182.94 74.6193C182.881 74.2333 182.837 73.8472 182.808 73.4611C181.809 74.5005 180.634 75.2281 179.282 75.6439C177.931 76.0597 176.55 76.2676 175.14 76.2676C174.053 76.2676 173.039 76.1339 172.099 75.8666C171.159 75.5994 170.336 75.1836 169.631 74.6193C168.926 74.0551 168.368 73.3423 167.957 72.4811C167.575 71.6199 167.384 70.5953 167.384 69.4074C167.384 68.1007 167.604 67.0316 168.045 66.2001C168.515 65.3388 169.102 64.6558 169.807 64.1509C170.542 63.6461 171.365 63.2748 172.275 63.0373C173.215 62.77 174.156 62.5621 175.096 62.4136C176.036 62.2651 176.961 62.1463 177.872 62.0572C178.783 61.9681 179.591 61.8345 180.296 61.6563C181.001 61.4781 181.559 61.2257 181.971 60.899C182.382 60.5427 182.573 60.0378 182.543 59.3844C182.543 58.7014 182.426 58.1668 182.191 57.7808C181.985 57.365 181.691 57.0532 181.31 56.8453C180.957 56.6077 180.531 56.4592 180.032 56.3998C179.561 56.3107 179.047 56.2662 178.489 56.2662C177.255 56.2662 176.286 56.5335 175.581 57.068C174.875 57.6026 174.464 58.4935 174.347 59.7408H168.089ZM182.543 64.4182C182.279 64.6558 181.941 64.8488 181.53 64.9973C181.148 65.1161 180.722 65.22 180.252 65.3091C179.811 65.3982 179.341 65.4725 178.842 65.5319C178.342 65.5913 177.843 65.6655 177.343 65.7546C176.873 65.8437 176.403 65.9625 175.933 66.111C175.492 66.2594 175.096 66.4673 174.743 66.7346C174.42 66.9722 174.156 67.284 173.95 67.6701C173.744 68.0562 173.641 68.5462 173.641 69.1401C173.641 69.7044 173.744 70.1795 173.95 70.5656C174.156 70.9517 174.435 71.2635 174.787 71.5011C175.14 71.709 175.551 71.8575 176.021 71.9465C176.491 72.0356 176.976 72.0802 177.475 72.0802C178.709 72.0802 179.664 71.8723 180.34 71.4565C181.016 71.0408 181.515 70.5508 181.838 69.9865C182.162 69.3926 182.352 68.7986 182.411 68.2046C182.499 67.6107 182.543 67.1355 182.543 66.7792V64.4182Z" fill="#3443F4"/>
<path d="M199.211 49.0942V43.8823H192.953V49.0942H199.211ZM192.953 52.6579V75.6884H199.211V52.6579H192.953Z" fill="#3443F4"/>
<path d="M203.257 52.6579V75.6884H209.515V63.6164C209.515 61.2702 209.897 59.5923 210.661 58.5826C211.425 57.5432 212.659 57.0235 214.363 57.0235C215.861 57.0235 216.904 57.4987 217.492 58.449C218.079 59.3696 218.373 60.7802 218.373 62.6809V75.6884H224.631V61.5227C224.631 60.0972 224.499 58.8053 224.234 57.6471C223.999 56.4592 223.573 55.4644 222.956 54.6625C222.339 53.831 221.487 53.1925 220.4 52.747C219.343 52.2719 217.977 52.0343 216.302 52.0343C214.98 52.0343 213.687 52.3461 212.424 52.9698C211.161 53.5637 210.132 54.5289 209.339 55.8653H209.207V52.6579H203.257Z" fill="#3443F4"/>
<path d="M239.12 70.2538C238.15 70.2538 237.342 70.0459 236.696 69.6301C236.05 69.2144 235.521 68.6798 235.11 68.0265C234.728 67.3731 234.448 66.6455 234.272 65.8437C234.125 65.0121 234.052 64.1806 234.052 63.3491C234.052 62.4879 234.14 61.6712 234.316 60.899C234.522 60.0972 234.83 59.3993 235.242 58.8053C235.682 58.1817 236.211 57.6917 236.828 57.3353C237.475 56.9789 238.238 56.8008 239.12 56.8008C240.148 56.8008 241 56.9938 241.676 57.3799C242.352 57.7659 242.895 58.2856 243.306 58.939C243.718 59.5923 244.012 60.3496 244.188 61.2109C244.364 62.0424 244.452 62.9333 244.452 63.8836C244.452 64.7152 244.335 65.517 244.1 66.2891C243.894 67.0316 243.571 67.6998 243.13 68.2937C242.689 68.8877 242.131 69.3629 241.456 69.7192C240.78 70.0756 240.001 70.2538 239.12 70.2538ZM250.402 74.2184V52.6579H244.452V55.7316H244.364C243.6 54.3952 242.645 53.4449 241.5 52.8807C240.383 52.3164 239.076 52.0343 237.577 52.0343C235.991 52.0343 234.581 52.3461 233.347 52.9698C232.142 53.5934 231.129 54.4398 230.306 55.5089C229.483 56.5483 228.852 57.7659 228.411 59.1617C228 60.5278 227.794 61.9533 227.794 63.4382C227.794 65.0121 227.97 66.5119 228.323 67.9374C228.705 69.3332 229.292 70.5656 230.086 71.6347C230.879 72.6741 231.892 73.5057 233.126 74.1293C234.36 74.7233 235.829 75.0202 237.533 75.0202C238.914 75.0202 240.222 74.7381 241.456 74.1739C242.719 73.5799 243.688 72.6741 244.364 71.4565H244.452V74.4857C244.482 76.1191 244.085 77.4703 243.262 78.5394C242.469 79.6085 241.191 80.1431 239.428 80.1431C238.312 80.1431 237.328 79.9055 236.476 79.4303C235.624 78.9849 235.051 78.1682 234.757 76.9803H228.543C228.631 78.287 228.984 79.4007 229.601 80.3213C230.247 81.2716 231.04 82.0437 231.981 82.6377C232.95 83.2316 234.008 83.6623 235.154 83.9295C236.329 84.2265 237.475 84.375 238.591 84.375C241.206 84.375 243.292 84.0186 244.849 83.3059C246.406 82.5931 247.596 81.7171 248.418 80.6776C249.241 79.6679 249.77 78.5691 250.005 77.3812C250.269 76.1933 250.402 75.139 250.402 74.2184Z" fill="#3443F4"/>
<path d="M275.932 75.6884V52.6579H269.674V64.73C269.674 67.0761 269.292 68.7689 268.529 69.8083C267.765 70.818 266.531 71.3229 264.827 71.3229C263.328 71.3229 262.285 70.8626 261.698 69.942C261.11 68.9916 260.816 67.5661 260.816 65.6655V52.6579H254.559V66.8237C254.559 68.2492 254.676 69.5559 254.911 70.7438C255.176 71.902 255.616 72.8969 256.233 73.7284C256.85 74.5302 257.687 75.1539 258.745 75.5994C259.832 76.0448 261.213 76.2676 262.888 76.2676C264.21 76.2676 265.502 75.9706 266.766 75.3766C268.029 74.7827 269.057 73.8175 269.851 72.4811H269.983V75.6884H275.932Z" fill="#3443F4"/>
<path d="M279.536 59.7408C279.624 58.2559 279.991 57.0235 280.638 56.0435C281.284 55.0634 282.107 54.2765 283.105 53.6825C284.104 53.0886 285.221 52.6728 286.455 52.4352C287.718 52.1679 288.981 52.0343 290.245 52.0343C291.391 52.0343 292.551 52.1234 293.726 52.3016C294.901 52.4501 295.974 52.7619 296.943 53.237C297.913 53.7122 298.706 54.3804 299.323 55.2416C299.94 56.0732 300.248 57.1868 300.248 58.5826V70.5656C300.248 71.605 300.307 72.5999 300.425 73.5502C300.542 74.5005 300.748 75.2133 301.042 75.6884H294.696C294.578 75.3321 294.475 74.9757 294.387 74.6193C294.328 74.2333 294.284 73.8472 294.255 73.4611C293.256 74.5005 292.081 75.2281 290.729 75.6439C289.378 76.0597 287.997 76.2676 286.587 76.2676C285.5 76.2676 284.486 76.1339 283.546 75.8666C282.606 75.5994 281.783 75.1836 281.078 74.6193C280.373 74.0551 279.815 73.3423 279.404 72.4811C279.022 71.6199 278.831 70.5953 278.831 69.4074C278.831 68.1007 279.051 67.0316 279.492 66.2001C279.962 65.3388 280.549 64.6558 281.255 64.1509C281.989 63.6461 282.812 63.2748 283.722 63.0373C284.663 62.77 285.603 62.5621 286.543 62.4136C287.483 62.2651 288.408 62.1463 289.319 62.0572C290.23 61.9681 291.038 61.8345 291.743 61.6563C292.448 61.4781 293.006 61.2257 293.418 60.899C293.829 60.5427 294.02 60.0378 293.991 59.3844C293.991 58.7014 293.873 58.1668 293.638 57.7808C293.432 57.365 293.139 57.0532 292.757 56.8453C292.404 56.6077 291.978 56.4592 291.479 56.3998C291.009 56.3107 290.494 56.2662 289.936 56.2662C288.702 56.2662 287.733 56.5335 287.028 57.068C286.323 57.6026 285.911 58.4935 285.794 59.7408H279.536ZM293.991 64.4182C293.726 64.6558 293.388 64.8488 292.977 64.9973C292.595 65.1161 292.169 65.22 291.699 65.3091C291.258 65.3982 290.788 65.4725 290.289 65.5319C289.789 65.5913 289.29 65.6655 288.79 65.7546C288.32 65.8437 287.85 65.9625 287.38 66.111C286.94 66.2594 286.543 66.4673 286.19 66.7346C285.867 66.9722 285.603 67.284 285.397 67.6701C285.191 68.0562 285.089 68.5462 285.089 69.1401C285.089 69.7044 285.191 70.1795 285.397 70.5656C285.603 70.9517 285.882 71.2635 286.234 71.5011C286.587 71.709 286.998 71.8575 287.468 71.9465C287.938 72.0356 288.423 72.0802 288.923 72.0802C290.157 72.0802 291.111 71.8723 291.787 71.4565C292.463 71.0408 292.962 70.5508 293.285 69.9865C293.609 69.3926 293.8 68.7986 293.858 68.2046C293.947 67.6107 293.991 67.1355 293.991 66.7792V64.4182Z" fill="#3443F4"/>
<path d="M304.224 52.6579V75.6884H310.482V65.3091C310.482 64.2697 310.585 63.3045 310.791 62.4136C310.996 61.5227 311.334 60.7505 311.804 60.0972C312.304 59.4141 312.95 58.8796 313.743 58.4935C314.537 58.1075 315.506 57.9144 316.652 57.9144C317.034 57.9144 317.43 57.9441 317.842 58.0035C318.253 58.0332 318.606 58.0778 318.899 58.1371V52.257C318.4 52.1085 317.945 52.0343 317.533 52.0343C316.74 52.0343 315.976 52.1531 315.242 52.3907C314.507 52.6282 313.817 52.9698 313.17 53.4152C312.524 53.831 311.951 54.3507 311.452 54.9744C310.952 55.5683 310.556 56.2217 310.262 56.9344H310.174V52.6579H304.224Z" fill="#3443F4"/>
<path d="M337.086 64.1064C337.086 65.0567 336.997 65.9773 336.821 66.8683C336.645 67.7592 336.351 68.561 335.94 69.2738C335.528 69.9568 334.97 70.5062 334.265 70.922C333.589 71.3377 332.737 71.5456 331.709 71.5456C330.74 71.5456 329.902 71.3377 329.197 70.922C328.521 70.4765 327.949 69.9123 327.478 69.2292C327.038 68.5165 326.715 67.7146 326.509 66.8237C326.303 65.9328 326.2 65.0418 326.2 64.1509C326.2 63.2006 326.289 62.2948 326.465 61.4336C326.671 60.5427 326.979 59.7557 327.39 59.0726C327.831 58.3896 328.404 57.8402 329.109 57.4244C329.814 57.0086 330.681 56.8008 331.709 56.8008C332.737 56.8008 333.589 57.0086 334.265 57.4244C334.941 57.8402 335.484 58.3896 335.896 59.0726C336.336 59.726 336.645 60.4981 336.821 61.389C336.997 62.2503 337.086 63.156 337.086 64.1064ZM337.174 72.7484V75.6884H343.123V43.8823H336.865V55.4644H336.777C336.072 54.3359 335.102 53.4895 333.869 52.9252C332.664 52.3313 331.386 52.0343 330.034 52.0343C328.36 52.0343 326.891 52.3758 325.628 53.0589C324.364 53.7122 323.307 54.5883 322.455 55.6871C321.632 56.7859 321 58.0629 320.56 59.5181C320.148 60.9436 319.943 62.4285 319.943 63.9727C319.943 65.5764 320.148 67.1207 320.56 68.6056C321 70.0904 321.632 71.412 322.455 72.5702C323.307 73.6987 324.379 74.6045 325.672 75.2875C326.964 75.9409 328.463 76.2676 330.167 76.2676C331.665 76.2676 333.002 76.0003 334.177 75.4657C335.382 74.9015 336.351 73.9957 337.086 72.7484H337.174Z" fill="#3443F4"/>
</svg>
