<svg width="93" height="49" viewBox="0 0 93 49" fill="none" xmlns="http://www.w3.org/2000/svg">
<path d="M32.6191 0.0400391V38H39.3271V0.0400391H32.6191Z" fill="#003865"/>
<path d="M24.1444 15.276C21.683 12.6067 18.7017 11.272 15.2004 11.272C11.5604 11.272 8.75236 12.5374 6.77636 15.068V12H0.0683594V48.4H6.77636V34.932C6.78432 34.9422 6.7923 34.9524 6.80029 34.9626V26.0001H6.82802C6.79358 25.6764 6.77636 25.3431 6.77636 25C6.77636 22.8507 7.45236 21.1 8.80436 19.748C10.1564 18.3614 11.8724 17.668 13.9524 17.668C16.0324 17.668 17.7484 18.3614 19.1004 19.748C20.487 21.1 21.1804 22.8507 21.1804 25C21.1804 27.1494 20.487 28.9174 19.1004 30.304C17.7484 31.656 16.0324 32.332 13.9524 32.332C13.9015 32.332 13.8508 32.3316 13.8003 32.3308V38.6617C14.2524 38.7059 14.7191 38.728 15.2004 38.728C18.7017 38.728 21.683 37.4107 24.1444 34.776C26.6404 32.1067 27.8884 28.848 27.8884 25C27.8884 21.152 26.6404 17.9107 24.1444 15.276Z" fill="#003865"/>
<path d="M65.2268 12H71.9348V38H65.2268V34.932C65.2181 34.943 65.2094 34.9539 65.2007 34.9648V26.0001H65.1738C65.2091 25.6764 65.2268 25.3431 65.2268 25C65.2268 22.8507 64.5335 21.1 63.1468 19.748C61.7948 18.3614 60.0788 17.668 57.9988 17.668C55.9188 17.668 54.2028 18.3614 52.8508 19.748C51.4988 21.1 50.8228 22.8507 50.8228 25C50.8228 27.1494 51.4988 28.9174 52.8508 30.304C54.2028 31.656 55.9188 32.332 57.9988 32.332C58.0665 32.332 58.1338 32.3313 58.2007 32.3299V38.6568C57.7327 38.7043 57.2494 38.728 56.7508 38.728C53.2841 38.728 50.3028 37.4107 47.8068 34.776C45.3455 32.1067 44.1148 28.848 44.1148 25C44.1148 21.152 45.3455 17.9107 47.8068 15.276C50.3028 12.6067 53.2841 11.272 56.7508 11.272C60.3908 11.272 63.2161 12.5374 65.2268 15.068V12Z" fill="#003865"/>
<path d="M87.0136 18.448H92.8896V12H87.0136V4.72004L80.3056 6.74804V12H75.7816V18.448H80.3056V29.264C80.3056 32.8347 81.2416 35.3134 83.1136 36.7C85.0202 38.0867 88.2789 38.52 92.8896 38V31.916C91.6069 31.9854 90.5322 32.0027 89.6656 31.968C88.7989 31.8987 88.1402 31.656 87.6896 31.24C87.2389 30.824 87.0136 30.1654 87.0136 29.264V18.448Z" fill="#003865"/>
</svg>
