<svg aria-label="Sovereign Tech Agency" role="img" class="main-nav-two-lines-logo hidden max-w-full leading-none md:block" width="213" height="67" viewBox="0 0 123 38" fill="none" xmlns="http://www.w3.org/2000/svg"><path class="fill-grey-900 dark:fill-white" d="M2.85199 13.6836C2.16963 13.3192 1.62308 12.8025 1.21234 12.1334C0.801604 11.4643 0.582985 10.7057 0.556485 9.85774H3.31904C3.34554 10.2552 3.44491 10.603 3.61715 10.9012C3.7894 11.1993 4.01464 11.4344 4.29289 11.6067C4.57113 11.7789 4.90237 11.8651 5.28661 11.8651H6.20084C6.49233 11.8651 6.77388 11.7988 7.0455 11.6663C7.31712 11.5338 7.53574 11.3417 7.70136 11.09C7.86698 10.8382 7.94979 10.5335 7.94979 10.1757C7.94979 9.79149 7.83386 9.48013 7.60199 9.24163C7.37012 9.00314 7.07531 8.81764 6.71757 8.68515C6.35983 8.55265 5.85635 8.39365 5.20711 8.20816C4.29289 7.98292 3.53434 7.74442 2.93149 7.49268C2.32863 7.24093 1.81189 6.83351 1.38128 6.2704C0.950662 5.70729 0.735355 4.94875 0.735355 3.99477C0.735355 3.22629 0.927475 2.53731 1.31172 1.92782C1.69596 1.31834 2.216 0.844665 2.87186 0.506799C3.52772 0.168933 4.23989 0 5.00837 0H6.00209C6.77057 0 7.47611 0.155683 8.11872 0.46705C8.76133 0.778417 9.28138 1.23884 9.67887 1.84833C10.0764 2.45781 10.3082 3.17992 10.3745 4.01464H7.6318C7.5523 3.48466 7.36681 3.07723 7.07531 2.79236C6.78382 2.5075 6.39296 2.36506 5.90272 2.36506H5.02824C4.7765 2.36506 4.53138 2.42469 4.29289 2.54393C4.05439 2.66318 3.86559 2.83211 3.72646 3.05073C3.58734 3.26935 3.51778 3.52441 3.51778 3.8159C3.51778 4.18689 3.63372 4.48832 3.86559 4.72019C4.09745 4.95206 4.38563 5.13424 4.73012 5.26674C5.07462 5.39923 5.57148 5.5516 6.22071 5.72385C7.16144 5.93584 7.92991 6.17103 8.52615 6.42939C9.12238 6.68776 9.64243 7.10513 10.0863 7.68149C10.5302 8.25784 10.7521 9.04289 10.7521 10.0366C10.7521 10.8846 10.5533 11.6233 10.1559 12.2526C9.75837 12.882 9.21182 13.3689 8.51621 13.7134C7.82061 14.0579 7.02231 14.2301 6.12134 14.2301H5.14749C4.29951 14.2301 3.53434 14.0479 2.85199 13.6836ZM13.5544 13.5643C12.8787 13.1205 12.3487 12.5044 11.9644 11.716C11.5802 10.9277 11.3881 10.0432 11.3881 9.06276C11.3881 8.08229 11.5802 7.19787 11.9644 6.40952C12.3487 5.62116 12.8787 5.00506 13.5544 4.56119C14.2301 4.11733 14.9854 3.8954 15.8201 3.8954H16.6151C17.4498 3.8954 18.205 4.11733 18.8808 4.56119C19.5565 5.00506 20.0865 5.62116 20.4707 6.40952C20.8549 7.19787 21.0471 8.08229 21.0471 9.06276C21.0471 10.0432 20.8549 10.9277 20.4707 11.716C20.0865 12.5044 19.5598 13.1205 18.8907 13.5643C18.2216 14.0082 17.4697 14.2301 16.6349 14.2301H15.84C14.992 14.2301 14.2301 14.0082 13.5544 13.5643ZM17.5094 11.6365C17.8009 11.3781 18.0328 11.0204 18.205 10.5633C18.3773 10.1062 18.4634 9.606 18.4634 9.06276C18.4634 8.51953 18.3773 8.01935 18.205 7.56224C18.0328 7.10513 17.7976 6.74739 17.4995 6.48902C17.2014 6.23065 16.8734 6.10146 16.5157 6.10146H15.9195C15.5617 6.10146 15.2338 6.22734 14.9357 6.47908C14.6375 6.73082 14.4024 7.08525 14.2301 7.54236C14.0579 7.99948 13.9718 8.50628 13.9718 9.06276C13.9718 9.61925 14.0579 10.126 14.2301 10.5832C14.4024 11.0403 14.6375 11.3947 14.9357 11.6464C15.2338 11.8982 15.5617 12.0241 15.9195 12.0241H16.5356C16.8933 12.0241 17.2179 11.8949 17.5094 11.6365ZM21.0255 4.05439H23.649L25.5967 9.95711C25.6629 10.1559 25.7656 10.2552 25.9047 10.2552C26.0438 10.2552 26.1465 10.1559 26.2128 9.95711L28.1008 4.05439H30.7243L27.1866 14.0711H24.5632L21.0255 4.05439ZM33.4852 9.78818C33.3924 9.88755 33.3659 10.0234 33.4057 10.1956C33.4587 10.5136 33.5647 10.815 33.7237 11.0999C33.8827 11.3848 34.0847 11.6199 34.3298 11.8054C34.575 11.9909 34.8631 12.0837 35.1944 12.0837H35.9099C36.3206 12.0837 36.675 11.9512 36.9731 11.6862C37.2713 11.4212 37.4601 11.09 37.5396 10.6925H39.9841C39.9179 11.3682 39.6926 11.9744 39.3084 12.511C38.9242 13.0476 38.4339 13.4683 37.8377 13.773C37.2415 14.0778 36.5922 14.2301 35.89 14.2301H35.1745C34.3398 14.2301 33.5845 14.0115 32.9088 13.5743C32.2331 13.137 31.7031 12.5209 31.3189 11.7259C30.9346 10.931 30.7425 10.0366 30.7425 9.04289C30.7425 8.04916 30.9479 7.11838 31.3586 6.33002C31.7693 5.54167 32.3093 4.93881 32.9784 4.52144C33.6475 4.10408 34.3663 3.8954 35.1348 3.8954H35.8701C36.6651 3.8954 37.3806 4.1107 38.0166 4.54132C38.6525 4.97193 39.1527 5.55823 39.5171 6.30021C39.8814 7.04219 40.0636 7.85704 40.0636 8.74477C40.0636 8.97001 40.0504 9.20851 40.0239 9.46025V9.63912H33.9025C33.717 9.63912 33.5779 9.68881 33.4852 9.78818ZM33.664 7.62186C33.7435 7.74773 33.8959 7.81067 34.1212 7.81067H36.8837C37.0957 7.81067 37.2481 7.75105 37.3408 7.6318C37.4336 7.51255 37.4402 7.35356 37.3607 7.15481C37.268 6.78382 37.0858 6.47908 36.8141 6.24059C36.5425 6.00209 36.2345 5.88284 35.89 5.88284H35.1944C34.8896 5.88284 34.5981 5.99547 34.3199 6.22071C34.0417 6.44596 33.823 6.7507 33.664 7.13494C33.5845 7.33368 33.5845 7.49599 33.664 7.62186ZM44.5867 6.52877C44.3019 6.74739 44.0832 7.03556 43.9309 7.39331C43.7785 7.75105 43.7023 8.12866 43.7023 8.52615V14.0711H41.1385V4.05439H43.7023V4.45188C43.7023 4.67713 43.7652 4.80631 43.8911 4.83944C44.017 4.87256 44.1727 4.803 44.3582 4.63075C44.5437 4.43201 44.759 4.28626 45.0041 4.19351C45.2492 4.10077 45.544 4.05439 45.8885 4.05439H46.9617V6.20084H45.6103C45.2128 6.20084 44.8716 6.31015 44.5867 6.52877ZM49.7624 9.78818C49.6696 9.88755 49.6431 10.0234 49.6829 10.1956C49.7359 10.5136 49.8419 10.815 50.0009 11.0999C50.1599 11.3848 50.3619 11.6199 50.607 11.8054C50.8522 11.9909 51.1403 12.0837 51.4716 12.0837H52.1871C52.5978 12.0837 52.9522 11.9512 53.2503 11.6862C53.5485 11.4212 53.7373 11.09 53.8168 10.6925H56.2613C56.1951 11.3682 55.9698 11.9744 55.5856 12.511C55.2014 13.0476 54.7111 13.4683 54.1149 13.773C53.5186 14.0778 52.8694 14.2301 52.1672 14.2301H51.4517C50.617 14.2301 49.8617 14.0115 49.186 13.5743C48.5103 13.137 47.9803 12.5209 47.5961 11.7259C47.2118 10.931 47.0197 10.0366 47.0197 9.04289C47.0197 8.04916 47.2251 7.11838 47.6358 6.33002C48.0465 5.54167 48.5865 4.93881 49.2556 4.52144C49.9247 4.10408 50.6435 3.8954 51.4119 3.8954H52.1473C52.9423 3.8954 53.6578 4.1107 54.2938 4.54132C54.9297 4.97193 55.4299 5.55823 55.7943 6.30021C56.1586 7.04219 56.3408 7.85704 56.3408 8.74477C56.3408 8.97001 56.3276 9.20851 56.3011 9.46025V9.63912H50.1797C49.9942 9.63912 49.8551 9.68881 49.7624 9.78818ZM49.9412 7.62186C50.0207 7.74773 50.1731 7.81067 50.3984 7.81067H53.1609C53.3729 7.81067 53.5253 7.75105 53.618 7.6318C53.7108 7.51255 53.7174 7.35356 53.6379 7.15481C53.5451 6.78382 53.363 6.47908 53.0913 6.24059C52.8197 6.00209 52.5117 5.88284 52.1672 5.88284H51.4716C51.1668 5.88284 50.8753 5.99547 50.5971 6.22071C50.3189 6.44596 50.1002 6.7507 49.9412 7.13494C49.8617 7.33368 49.8617 7.49599 49.9412 7.62186ZM60.4548 0.158996V2.46444H57.7122V0.158996H60.4548ZM57.7917 4.05439H60.3555V14.0711H57.7917V4.05439ZM62.005 17.3604C61.3426 16.8502 61.0113 16.1646 61.0113 15.3033C61.0113 14.9456 61.0709 14.6111 61.1902 14.2997C61.3094 13.9883 61.4817 13.72 61.7069 13.4948C61.8129 13.3755 61.8726 13.2596 61.8858 13.147C61.8991 13.0343 61.8593 12.9184 61.7666 12.7992C61.6341 12.6402 61.5347 12.4646 61.4684 12.2725C61.4022 12.0804 61.3691 11.8849 61.3691 11.6862C61.3691 11.355 61.4751 11.0436 61.6871 10.7521C61.899 10.4606 62.1707 10.2354 62.5019 10.0764C62.6609 9.99686 62.7537 9.90411 62.7802 9.79812C62.8066 9.69212 62.7603 9.57287 62.641 9.44038C62.3893 9.14888 62.2005 8.82758 62.0746 8.47646C61.9487 8.12535 61.8858 7.75767 61.8858 7.37343C61.8858 6.6977 62.0481 6.09815 62.3727 5.57479C62.6973 5.05143 63.1313 4.64069 63.6745 4.34257C64.2177 4.04446 64.8338 3.8954 65.5228 3.8954H66.1787C66.3642 3.8954 66.5364 3.90202 66.6954 3.91527C66.8544 3.92852 67.02 3.9484 67.1923 3.9749C67.8283 4.02789 68.3053 4.05439 68.6232 4.05439H70.8691V5.82322H69.9548C69.7561 5.82322 69.6269 5.8696 69.5673 5.96234C69.5077 6.05509 69.511 6.19421 69.5772 6.37971C69.67 6.55195 69.7329 6.73082 69.766 6.91632C69.7991 7.10181 69.8157 7.30056 69.8157 7.51255C69.8157 8.12204 69.6468 8.68515 69.3089 9.20188C68.971 9.71862 68.5272 10.126 67.9773 10.4242C67.4275 10.7223 66.8412 10.8713 66.2184 10.8713H64.5291C64.3304 10.8713 64.1614 10.9243 64.0223 11.0303C63.8832 11.1363 63.8136 11.2821 63.8136 11.4676C63.8136 11.6531 63.8865 11.7988 64.0322 11.9048C64.178 12.0108 64.3635 12.0638 64.5887 12.0638H67.6295C68.61 12.0638 69.3917 12.3321 69.9747 12.8687C70.5577 13.4053 70.8492 14.1043 70.8492 14.9655C70.8492 15.6015 70.6803 16.158 70.3424 16.6349C70.0045 17.1119 69.5441 17.4796 68.9611 17.738C68.3781 17.9963 67.7223 18.1255 66.9935 18.1255H64.7676C63.5884 18.1255 62.6675 17.8705 62.005 17.3604ZM68.0071 15.8201C68.2191 15.6213 68.3251 15.3563 68.3251 15.0251C68.3251 14.7204 68.2224 14.4752 68.0171 14.2897C67.8117 14.1043 67.5301 14.0115 67.1724 14.0115H64.7279C64.2906 14.0115 63.9859 14.1175 63.8136 14.3295C63.6414 14.5415 63.5553 14.7866 63.5553 15.0649C63.5553 15.3828 63.6646 15.6379 63.8832 15.83C64.1018 16.0221 64.4099 16.1182 64.8073 16.1182H67.1128C67.497 16.1182 67.7951 16.0188 68.0071 15.8201ZM66.7451 8.66527C66.9372 8.51953 67.083 8.33403 67.1823 8.10879C67.2817 7.88354 67.3314 7.63842 67.3314 7.37343C67.3314 7.12169 67.2817 6.88319 67.1823 6.65795C67.083 6.43271 66.9372 6.24721 66.7451 6.10146C66.553 5.95572 66.3377 5.88284 66.0992 5.88284H65.5825C65.3705 5.88284 65.175 5.94578 64.9962 6.07165C64.8173 6.19752 64.6616 6.37308 64.5291 6.59833C64.3966 6.82357 64.3304 7.08194 64.3304 7.37343C64.3304 7.66492 64.3966 7.94317 64.5291 8.16841C64.6616 8.39365 64.8173 8.56921 64.9962 8.69508C65.175 8.82096 65.3638 8.88389 65.5626 8.88389H66.0992C66.3377 8.88389 66.553 8.81102 66.7451 8.66527ZM71.7402 4.05439H74.304V4.47176C74.304 4.68375 74.3736 4.81294 74.5127 4.85931C74.6518 4.90568 74.8274 4.84275 75.0394 4.6705C75.3044 4.43201 75.5926 4.2432 75.9039 4.10408C76.2153 3.96496 76.5498 3.8954 76.9076 3.8954H77.6231C78.1928 3.8954 78.7195 4.06433 79.2031 4.4022C79.6867 4.74006 80.0742 5.20049 80.3657 5.78347C80.6572 6.36646 80.803 7.01569 80.803 7.73117V14.0711H78.2392V8.14854C78.2392 7.79079 78.1796 7.45955 78.0603 7.15481C77.9411 6.85007 77.7688 6.61158 77.5436 6.43933C77.3183 6.26709 77.0533 6.18096 76.7486 6.18096H76.1126C75.7681 6.18096 75.4601 6.29358 75.1884 6.51883C74.9168 6.74407 74.7015 7.04882 74.5425 7.43305C74.3835 7.81729 74.304 8.24791 74.304 8.7249V14.0711H71.7402V4.05439ZM87.5206 2.68305C87.4146 2.57706 87.2688 2.52406 87.0833 2.52406H83.8636V0.158996H94.2183V2.52406H91.0383C90.8528 2.52406 90.7071 2.57706 90.6011 2.68305C90.4951 2.78905 90.4421 2.9348 90.4421 3.12029V14.0711H87.6796V3.12029C87.6796 2.9348 87.6266 2.78905 87.5206 2.68305ZM95.7916 9.78818C95.6989 9.88755 95.6724 10.0234 95.7122 10.1956C95.7652 10.5136 95.8711 10.815 96.0301 11.0999C96.1891 11.3848 96.3912 11.6199 96.6363 11.8054C96.8814 11.9909 97.1696 12.0837 97.5009 12.0837H98.2163C98.6271 12.0837 98.9815 11.9512 99.2796 11.6862C99.5777 11.4212 99.7665 11.09 99.846 10.6925H102.291C102.224 11.3682 101.999 11.9744 101.615 12.511C101.231 13.0476 100.74 13.4683 100.144 13.773C99.5479 14.0778 98.8987 14.2301 98.1965 14.2301H97.481C96.6463 14.2301 95.891 14.0115 95.2153 13.5743C94.5396 13.137 94.0096 12.5209 93.6253 11.7259C93.2411 10.931 93.049 10.0366 93.049 9.04289C93.049 8.04916 93.2543 7.11838 93.6651 6.33002C94.0758 5.54167 94.6157 4.93881 95.2849 4.52144C95.954 4.10408 96.6728 3.8954 97.4412 3.8954H98.1766C98.9716 3.8954 99.687 4.1107 100.323 4.54132C100.959 4.97193 101.459 5.55823 101.824 6.30021C102.188 7.04219 102.37 7.85704 102.37 8.74477C102.37 8.97001 102.357 9.20851 102.33 9.46025V9.63912H96.209C96.0235 9.63912 95.8844 9.68881 95.7916 9.78818ZM95.9705 7.62186C96.05 7.74773 96.2024 7.81067 96.4276 7.81067H99.1902C99.4022 7.81067 99.5545 7.75105 99.6473 7.6318C99.74 7.51255 99.7467 7.35356 99.6672 7.15481C99.5744 6.78382 99.3922 6.47908 99.1206 6.24059C98.849 6.00209 98.541 5.88284 98.1965 5.88284H97.5009C97.1961 5.88284 96.9046 5.99547 96.6264 6.22071C96.3481 6.44596 96.1295 6.7507 95.9705 7.13494C95.891 7.33368 95.891 7.49599 95.9705 7.62186ZM105.328 13.5445C104.652 13.0873 104.132 12.4646 103.768 11.6763C103.404 10.8879 103.221 10.0167 103.221 9.06276C103.221 8.10879 103.407 7.22106 103.778 6.43933C104.149 5.6576 104.676 5.03818 105.358 4.58107C106.04 4.12395 106.832 3.8954 107.733 3.8954H108.369C109.124 3.8954 109.806 4.07096 110.416 4.42207C111.025 4.77319 111.509 5.26011 111.867 5.88284C112.225 6.50558 112.423 7.21444 112.463 8.00941H109.899C109.846 7.45293 109.677 6.99582 109.392 6.63808C109.108 6.28034 108.753 6.10146 108.329 6.10146H107.733C107.335 6.10146 106.994 6.23727 106.709 6.50889C106.424 6.78051 106.206 7.13825 106.054 7.58211C105.901 8.02598 105.825 8.51953 105.825 9.06276C105.825 9.606 105.901 10.1029 106.054 10.5533C106.206 11.0038 106.421 11.3616 106.699 11.6266C106.978 11.8916 107.309 12.0241 107.693 12.0241H108.289C108.727 12.0241 109.088 11.8518 109.373 11.5073C109.657 11.1628 109.846 10.7123 109.939 10.1559H112.483C112.403 10.9243 112.178 11.6199 111.807 12.2427C111.436 12.8654 110.953 13.3523 110.356 13.7035C109.76 14.0546 109.078 14.2301 108.309 14.2301H107.693C106.792 14.2301 106.004 14.0016 105.328 13.5445ZM113.67 0.158996H116.234V4.47176C116.234 4.68375 116.304 4.81294 116.443 4.85931C116.582 4.90568 116.758 4.84275 116.97 4.6705C117.235 4.43201 117.523 4.2432 117.834 4.10408C118.145 3.96496 118.48 3.8954 118.838 3.8954H119.553C120.123 3.8954 120.65 4.06433 121.133 4.4022C121.617 4.74006 122.004 5.20049 122.296 5.78347C122.587 6.36646 122.733 7.01569 122.733 7.73117V14.0711H120.169V8.14854C120.169 7.79079 120.11 7.45955 119.99 7.15481C119.871 6.85007 119.699 6.61158 119.474 6.43933C119.249 6.26709 118.984 6.18096 118.679 6.18096H118.043C117.698 6.18096 117.39 6.29358 117.119 6.51883C116.847 6.74407 116.632 7.04882 116.473 7.43305C116.314 7.81729 116.234 8.24791 116.234 8.7249V14.0711H113.67V0.158996ZM4.94874 20.0335H7.75104L12.7197 33.9456H9.81799L8.94351 31.3619C8.87726 31.1764 8.78783 31.0439 8.67521 30.9644C8.56259 30.8849 8.41353 30.8452 8.22803 30.8452H4.47176C4.10077 30.8452 3.86227 31.0174 3.75628 31.3619L2.8818 33.9456H0L4.94874 20.0335ZM4.83943 28.3112C4.92556 28.4106 5.05474 28.4602 5.22699 28.4602H7.45293C7.62517 28.4602 7.75104 28.4106 7.83054 28.3112C7.91004 28.2118 7.92329 28.0694 7.87029 27.8839L6.67782 24.3661C6.63807 24.2204 6.57514 24.1243 6.48902 24.0779C6.40289 24.0316 6.31346 24.0349 6.22071 24.0879C6.12796 24.1409 6.06171 24.2336 6.02197 24.3661L4.80962 27.8839C4.74337 28.0694 4.75331 28.2118 4.83943 28.3112ZM14.0695 37.2348C13.407 36.7247 13.0757 36.0391 13.0757 35.1778C13.0757 34.8201 13.1354 34.4855 13.2546 34.1742C13.3739 33.8628 13.5461 33.5945 13.7714 33.3692C13.8774 33.25 13.937 33.1341 13.9502 33.0214C13.9635 32.9088 13.9237 32.7929 13.831 32.6736C13.6985 32.5146 13.5991 32.3391 13.5329 32.147C13.4666 31.9548 13.4335 31.7594 13.4335 31.5607C13.4335 31.2294 13.5395 30.9181 13.7515 30.6266C13.9635 30.3351 14.2351 30.1098 14.5663 29.9508C14.7253 29.8713 14.8181 29.7786 14.8446 29.6726C14.8711 29.5666 14.8247 29.4474 14.7055 29.3149C14.4537 29.0234 14.2649 28.7021 14.139 28.3509C14.0132 27.9998 13.9502 27.6321 13.9502 27.2479C13.9502 26.5722 14.1125 25.9726 14.4371 25.4493C14.7618 24.9259 15.1957 24.5152 15.7389 24.2171C16.2822 23.9189 16.8983 23.7699 17.5873 23.7699H18.2431C18.4286 23.7699 18.6009 23.7765 18.7598 23.7897C18.9188 23.803 19.0845 23.8229 19.2567 23.8494C19.8927 23.9024 20.3697 23.9289 20.6877 23.9289H22.9335V25.6977H22.0193C21.8205 25.6977 21.6913 25.7441 21.6317 25.8368C21.5721 25.9296 21.5754 26.0687 21.6416 26.2542C21.7344 26.4264 21.7973 26.6053 21.8305 26.7908C21.8636 26.9763 21.8801 27.175 21.8801 27.387C21.8801 27.9965 21.7112 28.5596 21.3733 29.0764C21.0355 29.5931 20.5916 30.0005 20.0417 30.2986C19.4919 30.5968 18.9056 30.7458 18.2829 30.7458H16.5935C16.3948 30.7458 16.2259 30.7988 16.0867 30.9048C15.9476 31.0108 15.878 31.1566 15.878 31.3421C15.878 31.5275 15.9509 31.6733 16.0967 31.7793C16.2424 31.8853 16.4279 31.9383 16.6532 31.9383H19.6939C20.6744 31.9383 21.4562 32.2066 22.0391 32.7432C22.6221 33.2798 22.9136 33.9787 22.9136 34.84C22.9136 35.4759 22.7447 36.0324 22.4068 36.5094C22.0689 36.9864 21.6085 37.3541 21.0255 37.6124C20.4426 37.8708 19.7867 38 19.058 38H16.832C15.6528 38 14.732 37.7449 14.0695 37.2348ZM20.0716 35.6946C20.2836 35.4958 20.3896 35.2308 20.3896 34.8996C20.3896 34.5948 20.2869 34.3497 20.0815 34.1642C19.8761 33.9787 19.5946 33.886 19.2368 33.886H16.7923C16.355 33.886 16.0503 33.992 15.878 34.204C15.7058 34.416 15.6197 34.6611 15.6197 34.9393C15.6197 35.2573 15.729 35.5124 15.9476 35.7045C16.1662 35.8966 16.4743 35.9927 16.8718 35.9927H19.1772C19.5615 35.9927 19.8596 35.8933 20.0716 35.6946ZM18.8095 28.5397C19.0017 28.394 19.1474 28.2085 19.2468 27.9833C19.3461 27.758 19.3958 27.5129 19.3958 27.2479C19.3958 26.9962 19.3461 26.7577 19.2468 26.5324C19.1474 26.3072 19.0017 26.1217 18.8095 25.9759C18.6174 25.8302 18.4021 25.7573 18.1636 25.7573H17.6469C17.4349 25.7573 17.2394 25.8203 17.0606 25.9461C16.8817 26.072 16.726 26.2476 16.5935 26.4728C16.461 26.698 16.3948 26.9564 16.3948 27.2479C16.3948 27.5394 16.461 27.8176 16.5935 28.0429C16.726 28.2681 16.8817 28.4437 17.0606 28.5696C17.2394 28.6954 17.4283 28.7584 17.627 28.7584H18.1636C18.4021 28.7584 18.6174 28.6855 18.8095 28.5397ZM25.8517 29.6627C25.759 29.762 25.7325 29.8978 25.7722 30.0701C25.8252 30.3881 25.9312 30.6895 26.0902 30.9744C26.2492 31.2592 26.4513 31.4944 26.6964 31.6799C26.9415 31.8654 27.2297 31.9582 27.5609 31.9582H28.2764C28.6871 31.9582 29.0416 31.8257 29.3397 31.5607C29.6378 31.2957 29.8266 30.9644 29.9061 30.5669H32.3507C32.2844 31.2427 32.0592 31.8489 31.6749 32.3855C31.2907 32.9221 30.8005 33.3428 30.2042 33.6475C29.608 33.9522 28.9588 34.1046 28.2565 34.1046H27.541C26.7063 34.1046 25.9511 33.886 25.2754 33.4487C24.5996 33.0115 24.0696 32.3954 23.6854 31.6004C23.3012 30.8054 23.109 29.9111 23.109 28.9174C23.109 27.9236 23.3144 26.9929 23.7252 26.2045C24.1359 25.4161 24.6758 24.8133 25.3449 24.3959C26.014 23.9786 26.7328 23.7699 27.5013 23.7699H28.2367C29.0316 23.7699 29.7471 23.9852 30.3831 24.4158C31.0191 24.8464 31.5193 25.4327 31.8836 26.1747C32.248 26.9167 32.4302 27.7315 32.4302 28.6192C32.4302 28.8445 32.4169 29.083 32.3904 29.3347V29.5136H26.2691C26.0836 29.5136 25.9445 29.5633 25.8517 29.6627ZM26.0306 27.4963C26.1101 27.6222 26.2625 27.6851 26.4877 27.6851H29.2503C29.4622 27.6851 29.6146 27.6255 29.7074 27.5063C29.8001 27.387 29.8067 27.228 29.7272 27.0293C29.6345 26.6583 29.4523 26.3536 29.1807 26.1151C28.9091 25.8766 28.601 25.7573 28.2565 25.7573H27.5609C27.2562 25.7573 26.9647 25.8699 26.6865 26.0952C26.4082 26.3204 26.1896 26.6252 26.0306 27.0094C25.9511 27.2082 25.9511 27.3705 26.0306 27.4963ZM33.7021 23.9289H36.2659V24.3462C36.2659 24.5582 36.3355 24.6874 36.4746 24.7338C36.6137 24.7802 36.7893 24.7172 37.0013 24.545C37.2663 24.3065 37.5545 24.1177 37.8658 23.9786C38.1772 23.8394 38.5118 23.7699 38.8695 23.7699H39.585C40.1547 23.7699 40.6814 23.9388 41.165 24.2767C41.6486 24.6145 42.0362 25.075 42.3277 25.658C42.6192 26.2409 42.7649 26.8902 42.7649 27.6056V33.9456H40.2011V28.023C40.2011 27.6653 40.1415 27.334 40.0222 27.0293C39.903 26.7245 39.7307 26.4861 39.5055 26.3138C39.2802 26.1416 39.0152 26.0554 38.7105 26.0554H38.0745C37.73 26.0554 37.422 26.1681 37.1504 26.3933C36.8787 26.6185 36.6634 26.9233 36.5044 27.3075C36.3454 27.6918 36.2659 28.1224 36.2659 28.5994V33.9456H33.7021V23.9289ZM46.0541 33.4189C45.3784 32.9618 44.8583 32.3391 44.494 31.5507C44.1296 30.7624 43.9474 29.8912 43.9474 28.9372C43.9474 27.9833 44.1329 27.0955 44.5039 26.3138C44.8749 25.5321 45.4016 24.9127 46.0839 24.4555C46.7663 23.9984 47.558 23.7699 48.4589 23.7699H49.0949C49.8501 23.7699 50.5325 23.9454 51.142 24.2965C51.7515 24.6477 52.2351 25.1346 52.5928 25.7573C52.9506 26.3801 53.1493 27.0889 53.1891 27.8839H50.6253C50.5723 27.3274 50.4033 26.8703 50.1185 26.5126C49.8336 26.1548 49.4792 25.9759 49.0552 25.9759H48.4589C48.0614 25.9759 47.7203 26.1118 47.4354 26.3834C47.1505 26.655 46.9319 27.0127 46.7795 27.4566C46.6272 27.9005 46.551 28.394 46.551 28.9372C46.551 29.4805 46.6272 29.9773 46.7795 30.4278C46.9319 30.8783 47.1472 31.2361 47.4255 31.501C47.7037 31.766 48.0349 31.8985 48.4192 31.8985H49.0154C49.4527 31.8985 49.8137 31.7263 50.0986 31.3818C50.3834 31.0373 50.5723 30.5868 50.665 30.0303H53.2089C53.1294 30.7988 52.9042 31.4944 52.5332 32.1172C52.1622 32.7399 51.6786 33.2268 51.0824 33.5779C50.4861 33.929 49.8038 34.1046 49.0353 34.1046H48.4192C47.5182 34.1046 46.7299 33.876 46.0541 33.4189ZM56.1653 35.5455C56.3773 35.3401 56.5296 35.095 56.6224 34.8101C56.7151 34.5253 56.7615 34.2503 56.7615 33.9854C56.7615 33.7866 56.7449 33.5945 56.7118 33.409C56.6787 33.2235 56.6091 32.9916 56.5031 32.7134V32.6935L53.3033 23.9289H55.9268L57.8943 29.7918C57.9606 29.9641 58.0533 30.0502 58.1726 30.0502C58.2918 30.0502 58.378 29.9641 58.431 29.7918L60.3787 23.9289H63.0021L58.8284 35.4958C58.5105 36.357 58.0931 36.9897 57.5764 37.3938C57.0596 37.7979 56.417 38 55.6485 38H54.2573V35.8536H55.3504C55.6817 35.8536 55.9533 35.7509 56.1653 35.5455Z" fill="#000000"></path></svg>