<svg width="1332" height="835" viewBox="0 0 1332 835" xmlns="http://www.w3.org/2000/svg" xmlns:xlink="http://www.w3.org/1999/xlink"><title>Macbook</title><defs><linearGradient x1="97.727%" y1="50%" x2="0%" y2="50%" id="linearGradient-1"><stop stop-opacity="0" offset="0%"/><stop offset="14.212%"/><stop offset="49.096%"/><stop offset="85.271%"/><stop stop-opacity="0" offset="100%"/></linearGradient><filter x="-1.2%" y="-184.4%" width="102.4%" height="468.8%" filterUnits="objectBoundingBox" id="filter-2"><feGaussianBlur stdDeviation="4.303" in="SourceGraphic"/></filter><linearGradient x1="97.727%" y1="50%" x2="0%" y2="50%" id="linearGradient-3"><stop stop-color="#FFF" stop-opacity="0" offset="0%"/><stop stop-color="#50545A" offset="85.271%"/><stop stop-opacity="0" offset="100%"/></linearGradient><filter x="-1.2%" y="-645.4%" width="102.4%" height="1390.8%" filterUnits="objectBoundingBox" id="filter-4"><feGaussianBlur stdDeviation="4.303" in="SourceGraphic"/></filter><linearGradient x1="97.727%" y1="50%" x2="0%" y2="50%" id="linearGradient-5"><stop stop-color="#FFF" stop-opacity="0" offset="0%"/><stop offset="85.271%"/><stop stop-opacity="0" offset="100%"/></linearGradient><filter x="-1.2%" y="-645.4%" width="102.4%" height="1390.8%" filterUnits="objectBoundingBox" id="filter-6"><feGaussianBlur stdDeviation="4.303" in="SourceGraphic"/></filter><linearGradient x1="50%" y1="7.091%" x2="50%" y2="52.212%" id="linearGradient-7"><stop stop-color="#50545A" offset="0%"/><stop stop-color="#50545A" stop-opacity="0" offset="100%"/></linearGradient><filter x="-8.7%" y="-58.8%" width="117.4%" height="217.7%" filterUnits="objectBoundingBox" id="filter-8"><feGaussianBlur stdDeviation="30.982" in="SourceGraphic"/></filter><filter x="-2.7%" y="-60.7%" width="105.4%" height="221.5%" filterUnits="objectBoundingBox" id="filter-9"><feGaussianBlur stdDeviation="10.327" in="SourceGraphic"/></filter><path d="M184.258 0h963.484c21.075 0 26.988 0 36.062 3.044 10.727 3.912 19.225 12.393 23.145 23.097C1210 35.196 1210 41.097 1210 62.128v558.744c0 21.031 0 26.932-3.051 35.987-3.92 10.704-12.418 19.185-23.145 23.097-9.074 3.044-14.987 3.044-36.062 3.044H184.258c-21.075 0-26.99 0-36.062-3.044-10.727-3.912-19.225-12.393-23.145-23.097C122 647.804 122 641.903 122 620.872V62.128c0-21.031 0-26.932 3.051-35.987 3.92-10.704 12.418-19.185 23.145-23.097C157.268 0 163.183 0 184.258 0z" id="path-10"/><filter x="-10.5%" y="-16.7%" width="121.5%" height="134.3%" filterUnits="objectBoundingBox" id="filter-11"><feOffset dx="3" dy="3" in="SourceAlpha" result="shadowOffsetOuter1"/><feGaussianBlur stdDeviation="38.5" in="shadowOffsetOuter1" result="shadowBlurOuter1"/><feColorMatrix values="0 0 0 0 0 0 0 0 0 0 0 0 0 0 0 0 0 0 0.05 0" in="shadowBlurOuter1"/></filter><linearGradient x1="0%" y1="50%" y2="50%" id="linearGradient-12"><stop stop-opacity=".04" offset="0%"/><stop stop-color="#FFF" stop-opacity=".04" offset="100%"/></linearGradient><path id="path-13" d="M.114.103h1331.382V7.41H.114z"/><filter x="0%" y="0%" width="100%" height="100%" filterUnits="objectBoundingBox" id="filter-14"><feOffset in="SourceAlpha" result="shadowOffsetInner1"/><feComposite in="shadowOffsetInner1" in2="SourceAlpha" operator="arithmetic" k2="-1" k3="1" result="shadowInnerInner1"/><feColorMatrix values="0 0 0 0 0 0 0 0 0 0 0 0 0 0 0 0 0 0 0.02 0" in="shadowInnerInner1"/></filter><linearGradient x1="124.719%" y1="50%" x2="0%" y2="50%" id="linearGradient-15"><stop offset="0%"/><stop stop-color="#FFF" offset="100%"/><stop stop-color="#FFF" offset="100%"/></linearGradient><linearGradient x1="0%" y1="50%" y2="50%" id="linearGradient-16"><stop offset="0%"/><stop stop-color="#FFF" offset="100%"/><stop stop-color="#FFF" offset="100%"/></linearGradient><linearGradient x1="0%" y1="50%" y2="50%" id="linearGradient-17"><stop stop-opacity=".07" offset="0%"/><stop stop-color="#EAEAEA" stop-opacity=".07" offset="100%"/><stop stop-color="#FFF" stop-opacity=".07" offset="200%"/></linearGradient><linearGradient x1="50%" y1="0%" x2="50%" y2="100%" id="linearGradient-18"><stop stop-opacity=".07" offset="0%"/><stop stop-color="#FFF" stop-opacity=".07" offset="100%"/></linearGradient><linearGradient x1="50%" y1="0%" x2="50%" y2="100%" id="linearGradient-19"><stop stop-color="#FFF" stop-opacity=".05" offset="0%"/><stop stop-opacity=".05" offset="100%"/></linearGradient><path d="M.205 8.05h1331.383c-7.869 4.828-77.66 24.635-309.912 19.49-20.512 0-598.546-.61-725.195-.61-146.987 0-207.835.58-263.372-9.935C13.667 13.314 3.931 10.274.205 8.05z" id="path-20"/><path d="M562.915.103h229.954v6.7c0 2.566-24.793 3.044-24.793 3.044H562.915s-24.793-.478-24.793-3.045v-6.7h24.793z" id="path-21"/><filter x="0%" y="0%" width="100%" height="100%" filterUnits="objectBoundingBox" id="filter-22"><feOffset in="SourceAlpha" result="shadowOffsetInner1"/><feComposite in="shadowOffsetInner1" in2="SourceAlpha" operator="arithmetic" k2="-1" k3="1" result="shadowInnerInner1"/><feColorMatrix values="0 0 0 0 0 0 0 0 0 0 0 0 0 0 0 0 0 0 0.03 0" in="shadowInnerInner1"/></filter><linearGradient x1="100%" y1="50%" x2="0%" y2="50%" id="linearGradient-23"><stop offset="0%"/><stop stop-color="#FFF" offset="100%"/><stop stop-color="#FFF" offset="100%"/></linearGradient></defs><g id="Page-1" fill="none" fill-rule="evenodd"><g id="Macbook" transform="translate(0 73)"><path id="Rectangle-5" fill-opacity=".1" fill="url(#linearGradient-1)" opacity=".8" filter="url(#filter-2)" transform="matrix(1 0 0 -1 0 1371)" d="M122 682h1089v7H122z"/><path id="Rectangle-5" fill-opacity=".1" fill="url(#linearGradient-3)" filter="url(#filter-4)" d="M122 690h1089v2H122z"/><path id="Rectangle-5" fill-opacity=".1" fill="url(#linearGradient-5)" filter="url(#filter-6)" transform="matrix(-1 0 0 1 1333 0)" d="M122 690h1089v2H122z"/><path d="M158.365 615h1014.27c18.463 0 29.837 3.346 25.41 7.468l-153.65 143.064c-4.429 4.124-18.294 7.468-30.956 7.468H317.561c-12.667 0-26.529-3.346-30.956-7.468L132.956 622.468c-4.43-4.124 6.954-7.468 25.41-7.468z" id="Rectangle-3" fill-opacity=".5" fill="url(#linearGradient-7)" filter="url(#filter-8)"/><rect id="Rectangle-8" fill-opacity=".1" fill="#50545A" filter="url(#filter-9)" x="92" y="666" width="1148" height="51" rx="25.5"/><g id="bg"><use fill="#000" filter="url(#filter-11)" xlink:href="#path-10"/><use fill="#FFF" xlink:href="#path-10"/></g><path d="M663 26a4 4 0 1 1 0 8 4 4 0 0 1 0-8z" id="cam" fill="#F2F2F2"/><g id="Bottom" transform="translate(0 658)"><g id="Rectangle-1"><use fill="#FFF" xlink:href="#path-13"/><use fill="url(#linearGradient-12)" style="mix-blend-mode:multiply" xlink:href="#path-13"/><use fill="#000" filter="url(#filter-14)" xlink:href="#path-13"/></g><path id="gradient" fill="url(#linearGradient-15)" opacity=".1" style="mix-blend-mode:multiply" d="M1281.91.103h49.586V7.41h-49.586z"/><path id="gradient" fill="url(#linearGradient-16)" opacity=".1" style="mix-blend-mode:multiply" d="M.115.103H49.7V7.41H.115z"/><g id="bottom"><use fill="#FAFDFF" xlink:href="#path-20"/><use fill="url(#linearGradient-17)" style="mix-blend-mode:multiply" xlink:href="#path-20"/><use fill="url(#linearGradient-17)" style="mix-blend-mode:multiply" xlink:href="#path-20"/><use fill="url(#linearGradient-18)" style="mix-blend-mode:multiply" xlink:href="#path-20"/><use fill="url(#linearGradient-19)" style="mix-blend-mode:multiply" xlink:href="#path-20"/></g><g id="Combined-shape-29"><use fill="#FFF" xlink:href="#path-21"/><use fill="#000" filter="url(#filter-22)" xlink:href="#path-21"/></g><path d="M538.122.103h24.793v9.744s-24.793-.478-24.793-3.045v-6.7z" id="gradient" fill="url(#linearGradient-16)" opacity=".07" style="mix-blend-mode:multiply"/><path d="M792.87.103h-24.794v9.744s24.793-.478 24.793-3.045v-6.7z" id="gradient" fill="url(#linearGradient-23)" opacity=".07" style="mix-blend-mode:multiply"/></g></g></g></svg>